<svg width="48" height="48" viewBox="0 0 48 48" fill="none" xmlns="http://www.w3.org/2000/svg">
<path d="M44.1082 33.5675H3.89196C3.20383 33.5675 2.54388 33.2942 2.0573 32.8076C1.57072 32.321 1.29736 31.6611 1.29736 30.9729V29.027C1.29874 27.8232 1.77755 26.6691 2.62877 25.8179C3.47999 24.9666 4.6341 24.4878 5.8379 24.4865H42.1622C43.366 24.4878 44.5201 24.9666 45.3714 25.8179C46.2226 26.6691 46.7014 27.8232 46.7028 29.027V30.9729C46.7028 31.6611 46.4294 32.321 45.9428 32.8076C45.4563 33.2942 44.7963 33.5675 44.1082 33.5675ZM5.8379 25.7837C4.97806 25.7848 4.15373 26.1268 3.54572 26.7348C2.93772 27.3428 2.59569 28.1671 2.59466 29.027V30.9729C2.59466 31.317 2.73134 31.647 2.97463 31.8903C3.21792 32.1336 3.54789 32.2702 3.89196 32.2702H44.1082C44.4522 32.2702 44.7822 32.1336 45.0255 31.8903C45.2688 31.647 45.4055 31.317 45.4055 30.9729V29.027C45.4044 28.1671 45.0624 27.3428 44.4544 26.7348C43.8464 26.1268 43.0221 25.7848 42.1622 25.7837H5.8379Z" fill="#BF3882"/>
<path d="M46.0541 41.3514H40.8649C40.6929 41.3514 40.5279 41.283 40.4063 41.1614C40.2846 41.0397 40.2163 40.8748 40.2163 40.7027C40.2163 40.5307 40.2846 40.3657 40.4063 40.2441C40.5279 40.1224 40.6929 40.0541 40.8649 40.0541H45.4055V33.5676H2.59466V40.0541H7.1352C7.30723 40.0541 7.47222 40.1224 7.59386 40.2441C7.71551 40.3657 7.78385 40.5307 7.78385 40.7027C7.78385 40.8748 7.71551 41.0397 7.59386 41.1614C7.47222 41.283 7.30723 41.3514 7.1352 41.3514H1.94601C1.77398 41.3514 1.60899 41.283 1.48735 41.1614C1.3657 41.0397 1.29736 40.8748 1.29736 40.7027V32.9189C1.29736 32.7469 1.3657 32.5819 1.48735 32.4603C1.60899 32.3386 1.77398 32.2703 1.94601 32.2703H46.0541C46.2262 32.2703 46.3911 32.3386 46.5128 32.4603C46.6344 32.5819 46.7028 32.7469 46.7028 32.9189V40.7027C46.7028 40.8748 46.6344 41.0397 46.5128 41.1614C46.3911 41.283 46.2262 41.3514 46.0541 41.3514Z" fill="#BF3882"/>
<path d="M40.8652 41.3513C40.6932 41.3513 40.5282 41.283 40.4065 41.1613C40.2849 41.0397 40.2165 40.8747 40.2165 40.7027V38.1081H7.78411V40.7027C7.78411 40.8747 7.71577 41.0397 7.59413 41.1613C7.47248 41.283 7.3075 41.3513 7.13547 41.3513C6.96343 41.3513 6.79845 41.283 6.6768 41.1613C6.55516 41.0397 6.48682 40.8747 6.48682 40.7027V37.4594C6.48682 37.2874 6.55516 37.1224 6.6768 37.0008C6.79845 36.8791 6.96343 36.8108 7.13547 36.8108H40.8652C41.0372 36.8108 41.2022 36.8791 41.3239 37.0008C41.4455 37.1224 41.5138 37.2874 41.5138 37.4594V40.7027C41.5138 40.8747 41.4455 41.0397 41.3239 41.1613C41.2022 41.283 41.0372 41.3513 40.8652 41.3513Z" fill="#BF3882"/>
<path d="M32.0699 8.68543C32.0283 8.68537 31.9868 8.68146 31.946 8.67375C31.3849 8.56478 30.7732 8.46748 30.0772 8.37472C29.9104 8.34798 29.7606 8.25721 29.6597 8.12173C29.5588 7.98624 29.5147 7.81673 29.5368 7.64925C29.559 7.48176 29.6456 7.32953 29.7782 7.22492C29.9109 7.12031 30.0791 7.07158 30.2472 7.0891C30.9698 7.18445 31.6061 7.2837 32.1931 7.3998C32.3516 7.43029 32.493 7.51875 32.5898 7.64793C32.6865 7.7771 32.7316 7.93769 32.7163 8.09835C32.701 8.25901 32.6263 8.40819 32.5069 8.51674C32.3875 8.6253 32.2319 8.68545 32.0705 8.68543H32.0699Z" fill="#BF3882"/>
<path d="M3.24338 26.7827C3.07134 26.7827 2.90636 26.7143 2.78471 26.5927C2.66307 26.4711 2.59473 26.3061 2.59473 26.134V12.1622C2.59475 12.039 2.62984 11.9184 2.69589 11.8144C2.76193 11.7105 2.85621 11.6275 2.9677 11.5751C8.0521 9.14156 13.5049 7.568 19.1041 6.91848C19.2735 6.90304 19.4422 6.95475 19.5738 7.06247C19.7054 7.17019 19.7895 7.3253 19.8079 7.49439C19.8262 7.66348 19.7775 7.83302 19.672 7.9665C19.5666 8.09997 19.413 8.1867 19.2442 8.20799C13.9243 8.82432 8.73959 10.2995 3.89202 12.576V26.1327C3.89219 26.218 3.87554 26.3025 3.84302 26.3814C3.8105 26.4602 3.76275 26.5319 3.7025 26.5922C3.64225 26.6526 3.57068 26.7005 3.4919 26.7332C3.41312 26.7659 3.32867 26.7827 3.24338 26.7827Z" fill="#BF3882"/>
<path d="M25.6218 7.97839H25.5952C25.0114 7.95439 24.401 7.9466 23.7277 7.95309H23.7212C23.5492 7.95395 23.3839 7.88643 23.2616 7.7654C23.1394 7.64436 23.0702 7.47972 23.0693 7.30768C23.0685 7.13565 23.136 6.97032 23.257 6.84807C23.3781 6.72582 23.5427 6.65665 23.7147 6.65579C24.4101 6.64736 25.0425 6.65579 25.6484 6.68239C25.8204 6.68591 25.984 6.75763 26.1031 6.88177C26.2223 7.00591 26.2872 7.1723 26.2837 7.34433C26.2802 7.51636 26.2085 7.67995 26.0843 7.7991C25.9602 7.91825 25.7938 7.98321 25.6218 7.97968V7.97839Z" fill="#BF3882"/>
<path d="M44.7569 26.7827C44.5849 26.7827 44.4199 26.7144 44.2983 26.5928C44.1766 26.4711 44.1083 26.3061 44.1083 26.1341V12.5773C41.6269 11.4292 39.0608 10.4737 36.4328 9.71937C36.3505 9.69647 36.2735 9.65751 36.2062 9.60476C36.139 9.552 36.0829 9.48647 36.041 9.41194C35.9992 9.33742 35.9725 9.25536 35.9625 9.17048C35.9525 9.0856 35.9593 8.99959 35.9826 8.91737C36.006 8.83515 36.0453 8.75835 36.0984 8.69139C36.1515 8.62442 36.2174 8.56862 36.2921 8.52717C36.3669 8.48573 36.449 8.45946 36.534 8.44989C36.6189 8.44031 36.7049 8.44761 36.787 8.47137C39.6143 9.28304 42.3716 10.3214 45.032 11.5765C45.1434 11.6286 45.2376 11.7114 45.3038 11.8151C45.37 11.9188 45.4053 12.0392 45.4056 12.1622V26.1341C45.4056 26.3061 45.3372 26.4711 45.2156 26.5928C45.0939 26.7144 44.929 26.7827 44.7569 26.7827Z" fill="#BF3882"/>
<path d="M30.8342 25.7838C30.7435 25.7839 30.6539 25.765 30.571 25.7284C30.4881 25.6917 30.4138 25.6381 30.3529 25.571C28.4258 23.446 27.4482 21.6324 27.4482 20.1801C27.4477 19.478 27.6364 18.7886 27.9944 18.1846C28.3524 17.5806 28.8665 17.0841 29.4827 16.7475C30.0989 16.4109 30.7944 16.2465 31.4961 16.2716C32.1978 16.2967 32.8797 16.5104 33.4703 16.8902C34.0608 16.5107 34.7427 16.2973 35.4442 16.2724C36.1457 16.2474 36.8409 16.4119 37.4569 16.7485C38.0729 17.0851 38.5869 17.5814 38.9448 18.1852C39.3027 18.7891 39.4914 19.4782 39.491 20.1801C39.491 21.6331 38.5142 23.4467 36.5864 25.571C36.5292 25.6341 36.46 25.6854 36.383 25.7218C36.306 25.7582 36.2225 25.7791 36.1374 25.7832C36.0523 25.7874 35.9672 25.7747 35.887 25.746C35.8068 25.7173 35.733 25.673 35.6699 25.6158C35.6067 25.5585 35.5555 25.4894 35.5191 25.4124C35.4827 25.3353 35.4618 25.2519 35.4577 25.1668C35.4535 25.0817 35.4661 24.9966 35.4949 24.9163C35.5236 24.8361 35.5679 24.7623 35.6251 24.6992C37.3057 22.8473 38.1937 21.2847 38.1937 20.1801C38.1931 19.4875 37.9177 18.8234 37.428 18.3336C36.9383 17.8438 36.2743 17.5682 35.5816 17.5673C34.9617 17.5638 34.3615 17.7848 33.8919 18.1894C33.7744 18.2899 33.6249 18.3451 33.4703 18.3451C33.3157 18.3451 33.1662 18.2899 33.0487 18.1894C32.5799 17.7854 31.981 17.5645 31.3622 17.5673C30.6695 17.5682 30.0054 17.8437 29.5156 18.3336C29.0258 18.8234 28.7503 19.4874 28.7494 20.1801C28.7494 21.2828 29.6381 22.8473 31.3181 24.6992C31.4025 24.7922 31.458 24.9077 31.4781 25.0317C31.4981 25.1557 31.4817 25.2828 31.4309 25.3976C31.38 25.5125 31.297 25.6101 31.1917 25.6786C31.0865 25.7472 30.9637 25.7837 30.8381 25.7838H30.8342Z" fill="#BF3882"/>
<path d="M17.166 25.7838C17.0404 25.7837 16.9175 25.7472 16.8123 25.6787C16.7071 25.6101 16.624 25.5125 16.5732 25.3977C16.5224 25.2828 16.506 25.1557 16.526 25.0317C16.546 24.9078 16.6016 24.7923 16.686 24.6993C18.366 22.8474 19.2546 21.2841 19.2546 20.1801C19.2538 19.4874 18.9782 18.8234 18.4884 18.3336C17.9986 17.8438 17.3346 17.5682 16.6419 17.5674C16.0231 17.5645 15.4241 17.7855 14.9554 18.1894C14.8379 18.2899 14.6884 18.3451 14.5338 18.3451C14.3792 18.3451 14.2296 18.2899 14.1122 18.1894C13.6425 17.7848 13.0423 17.5638 12.4224 17.5674C11.7298 17.5682 11.0658 17.8438 10.5761 18.3336C10.0864 18.8234 9.811 19.4875 9.81031 20.1801C9.81031 21.2828 10.6983 22.8474 12.379 24.6993C12.4946 24.8269 12.5547 24.9953 12.5462 25.1673C12.5377 25.3393 12.4612 25.5008 12.3336 25.6165C12.2059 25.7321 12.0376 25.7922 11.8656 25.7837C11.6936 25.7752 11.532 25.6987 11.4164 25.571C9.48858 23.4467 8.51172 21.6331 8.51172 20.1801C8.51164 19.4786 8.70041 18.79 9.05821 18.1865C9.41601 17.5831 9.92964 17.0871 10.5452 16.7505C11.1608 16.414 11.8556 16.2494 12.5567 16.274C13.2578 16.2986 13.9394 16.5114 14.5299 16.8902C15.1204 16.5107 15.8023 16.2973 16.5038 16.2724C17.2053 16.2475 17.9005 16.4119 18.5165 16.7485C19.1325 17.0851 19.6465 17.5814 20.0044 18.1853C20.3623 18.7891 20.551 19.4782 20.5506 20.1801C20.5506 21.6325 19.5731 23.4461 17.646 25.571C17.5852 25.638 17.5111 25.6915 17.4285 25.7282C17.3458 25.7648 17.2564 25.7838 17.166 25.7838Z" fill="#BF3882"/>
</svg>
