<svg width="64" height="64" viewBox="0 0 64 64" fill="none" xmlns="http://www.w3.org/2000/svg">
<path fill-rule="evenodd" clip-rule="evenodd" d="M18.9008 14.1049C16.1088 10.4095 10.5574 10.4095 7.76538 14.1049C6.65433 15.5754 6.17013 17.4257 6.4185 19.252L9.45465 41.5766C9.71849 43.5166 11.3752 44.9633 13.3331 44.9633C15.291 44.9633 16.9477 43.5166 17.2116 41.5766L20.2477 19.252C20.4961 17.4257 20.0119 15.5754 18.9008 14.1049ZM6.70156 13.3011C10.0271 8.89964 16.6391 8.89964 19.9646 13.3011C21.288 15.0526 21.8647 17.2565 21.5689 19.4317L18.5327 41.7563C18.179 44.3572 15.9579 46.2966 13.3331 46.2966C10.7083 46.2966 8.4872 44.3571 8.13348 41.7563L5.09733 19.4317C4.80151 17.2565 5.37821 15.0526 6.70156 13.3011Z" fill="#387EBF"/>
<path fill-rule="evenodd" clip-rule="evenodd" d="M20.1828 23.6043L18.2617 24.1532C16.8929 24.5443 15.9235 25.7615 15.8487 27.1831L15.4585 34.5959C15.3937 35.8278 16.0145 36.9947 17.0723 37.6294L18.3427 38.3916L17.6567 39.535L16.3863 38.7727C14.9054 37.8842 14.0363 36.2504 14.127 34.5258L14.5172 27.113C14.6219 25.1228 15.9791 23.4187 17.8954 22.8712L19.8165 22.3223L20.1828 23.6043Z" fill="#387EBF"/>
<path fill-rule="evenodd" clip-rule="evenodd" d="M6.4832 23.6043L8.40435 24.1532C9.77315 24.5443 10.7425 25.7615 10.8173 27.1831L11.2075 34.5959C11.2723 35.8278 10.6515 36.9947 9.59375 37.6294L8.32335 38.3916L9.00934 39.535L10.2797 38.7727C11.7606 37.8842 12.6297 36.2504 12.539 34.5258L12.1488 27.113C12.0441 25.1228 10.687 23.4187 8.77065 22.8712L6.84949 22.3223L6.4832 23.6043Z" fill="#387EBF"/>
<path fill-rule="evenodd" clip-rule="evenodd" d="M45.333 12.6667C44.2284 12.6667 43.333 13.5621 43.333 14.6667V30C43.333 31.1046 44.2284 32 45.333 32H46.6663C47.7709 32 48.6663 31.1046 48.6663 30V26.6667C48.6663 25.1939 49.8603 24 51.333 24C52.0694 24 52.6663 23.403 52.6663 22.6667V14.6667C52.6663 13.5621 51.7709 12.6667 50.6663 12.6667H45.333ZM41.9997 14.6667C41.9997 12.8257 43.4921 11.3333 45.333 11.3333H50.6663C52.5073 11.3333 53.9997 12.8257 53.9997 14.6667V15.3333H57.9997C58.3679 15.3333 58.6663 15.6318 58.6663 16C58.6663 16.3682 58.3679 16.6667 57.9997 16.6667H53.9997V19.6667H57.9997C58.3679 19.6667 58.6663 19.9651 58.6663 20.3333C58.6663 20.7015 58.3679 21 57.9997 21H53.9997V22.6667C53.9997 24.1394 52.8058 25.3333 51.333 25.3333C50.5966 25.3333 49.9997 25.9303 49.9997 26.6667V30C49.9997 31.841 48.5073 33.3333 46.6663 33.3333V48C46.6663 50.5773 44.577 52.6667 41.9997 52.6667H17.333C14.7557 52.6667 12.6663 50.5773 12.6663 48V46C12.6663 45.6318 12.9648 45.3333 13.333 45.3333C13.7012 45.3333 13.9997 45.6318 13.9997 46V48C13.9997 49.841 15.4921 51.3333 17.333 51.3333H41.9997C43.8406 51.3333 45.333 49.841 45.333 48V33.3333C43.4921 33.3333 41.9997 31.841 41.9997 30V14.6667Z" fill="#387EBF"/>
<path fill-rule="evenodd" clip-rule="evenodd" d="M46.8612 14.0291C47.2133 14.1367 47.4115 14.5094 47.3039 14.8615L46.3238 18.0691L48.9905 17.3418L47.3039 22.8615C47.1963 23.2136 46.8237 23.4118 46.4715 23.3042C46.1194 23.1966 45.9212 22.824 46.0288 22.4719L47.0089 19.2643L44.3422 19.9915L46.0288 14.4719C46.1364 14.1197 46.509 13.9215 46.8612 14.0291Z" fill="#387EBF"/>
</svg>
