<svg width="100" height="100" viewBox="0 0 100 100" fill="none" xmlns="http://www.w3.org/2000/svg">
<g filter="url(#filter0_d)">
<circle cx="50" cy="50" r="30" fill="#E5DDEE"/>
<circle cx="50" cy="50" r="27.5" stroke="white" stroke-width="5"/>
</g>
<path d="M47.1289 47.2705H49.458C51.3037 47.2705 52.2266 46.3672 52.2266 44.5605C52.2266 43.8574 52.0068 43.2861 51.5674 42.8467C51.1279 42.3975 50.5078 42.1729 49.707 42.1729C49.0527 42.1729 48.4814 42.3633 47.9932 42.7441C47.5146 43.125 47.2754 43.5986 47.2754 44.165H42.3389C42.3389 43.042 42.6514 42.041 43.2764 41.1621C43.9014 40.2832 44.7656 39.5996 45.8691 39.1113C46.9824 38.6133 48.2031 38.3643 49.5312 38.3643C51.9043 38.3643 53.7695 38.9062 55.127 39.9902C56.4844 41.0742 57.1631 42.5635 57.1631 44.458C57.1631 45.376 56.8799 46.2451 56.3135 47.0654C55.7568 47.876 54.9414 48.5352 53.8672 49.043C55 49.4531 55.8887 50.0781 56.5332 50.918C57.1777 51.748 57.5 52.7783 57.5 54.0088C57.5 55.9131 56.7676 57.4365 55.3027 58.5791C53.8379 59.7217 51.9141 60.293 49.5312 60.293C48.1348 60.293 46.8359 60.0293 45.6348 59.502C44.4434 58.9648 43.54 58.2275 42.9248 57.29C42.3096 56.3428 42.002 55.2686 42.002 54.0674H46.9678C46.9678 54.7217 47.2314 55.2881 47.7588 55.7666C48.2861 56.2451 48.9355 56.4844 49.707 56.4844C50.5762 56.4844 51.2695 56.2451 51.7871 55.7666C52.3047 55.2783 52.5635 54.6582 52.5635 53.9062C52.5635 52.832 52.2949 52.0703 51.7578 51.6211C51.2207 51.1719 50.4785 50.9473 49.5312 50.9473H47.1289V47.2705Z" fill="#FFF1FF"/>
<defs>
<filter id="filter0_d" x="0" y="0" width="100" height="100" filterUnits="userSpaceOnUse" color-interpolation-filters="sRGB">
<feFlood flood-opacity="0" result="BackgroundImageFix"/>
<feColorMatrix in="SourceAlpha" type="matrix" values="0 0 0 0 0 0 0 0 0 0 0 0 0 0 0 0 0 0 127 0"/>
<feOffset/>
<feGaussianBlur stdDeviation="10"/>
<feColorMatrix type="matrix" values="0 0 0 0 0 0 0 0 0 0 0 0 0 0 0 0 0 0 0.25 0"/>
<feBlend mode="normal" in2="BackgroundImageFix" result="effect1_dropShadow"/>
<feBlend mode="normal" in="SourceGraphic" in2="effect1_dropShadow" result="shape"/>
</filter>
</defs>
</svg>
