<svg width="80" height="40" viewBox="0 0 80 40" fill="none" xmlns="http://www.w3.org/2000/svg">
<path d="M28.3872 37.322C27.1824 37.322 26.6003 36.8753 26.6003 35.9548C26.6003 35.3998 26.8034 34.4792 27.1553 33.1797C27.5344 31.8801 27.7104 30.946 27.7104 30.3639C27.7104 29.4028 27.3043 28.929 26.4379 28.929C26.2619 28.929 26.0318 28.9696 25.7475 28.9967L24.0689 36.9565H21.023L24.0689 22.6207C23.1483 23.0268 22.4173 23.6089 21.8758 24.367C21.3614 25.1521 21.0907 26.0862 21.0907 27.2098C21.0907 27.7648 21.1584 28.198 21.3344 28.5093C21.375 28.577 21.375 28.6176 21.375 28.6447C20.2378 28.6447 19.5204 28.2657 19.2496 27.5482C19.1413 27.2775 19.1143 26.9661 19.1143 26.5871C19.1143 25.8696 19.3579 25.2198 19.8047 24.57C20.6981 23.2298 22.0654 22.2416 23.8793 21.5918C24.7322 21.2805 25.6256 21.118 26.5191 21.118C26.7898 21.118 27.1012 21.118 27.3719 21.1587L26.0318 27.467C26.4785 26.1945 27.1012 25.0032 27.8864 23.8661C28.6715 22.729 29.389 21.9844 30.0117 21.6325C30.6344 21.294 31.1488 21.118 31.6226 21.118C32.0964 21.118 32.4484 21.2263 32.6514 21.3888C33.0305 21.7001 33.2335 22.0386 33.2335 22.377C33.2335 22.9591 33.0982 23.4058 32.8274 23.6495C32.5567 23.8932 32.2453 23.9879 31.8663 23.9879C31.2436 23.9879 30.8375 23.7172 30.6344 23.1351C29.2942 23.9202 28.1029 25.5312 27.0064 27.9408C27.1824 27.9408 27.3449 27.9002 27.4802 27.9002H27.8864C29.2942 27.9002 30.12 28.3469 30.3907 29.2674C30.4584 29.5382 30.5261 29.8901 30.5261 30.2556C30.5261 30.8377 30.3501 31.7312 30.0117 33.0037C29.6733 34.2356 29.4973 35.0613 29.4973 35.4404C29.4973 36.2255 29.768 36.7129 30.323 36.9159C29.4296 37.1596 28.7798 37.295 28.3737 37.295L28.4143 37.3356L28.3872 37.322ZM44.9838 33.1797C44.0904 35.7788 42.7908 37.0919 41.0716 37.0919C40.2864 37.0919 39.6637 36.8889 39.217 36.4421C38.7702 35.9954 38.5672 35.5216 38.5672 34.9395C38.5672 34.3574 38.7432 33.3963 39.041 31.9884L39.9615 27.8054C39.244 27.8054 38.7296 28.1168 38.3506 28.6989C37.9715 29.281 37.6602 30.1744 37.4301 31.3386C37.1864 32.5028 36.9563 33.4369 36.8074 34.0867C36.6314 34.7364 36.4283 35.2915 36.1846 35.7382C35.7108 36.6316 34.9121 37.1055 33.8562 37.1055C33.0982 37.1055 32.5161 36.8618 32.11 36.4151C31.7309 35.9413 31.5279 35.3456 31.5279 34.6281C31.5279 33.9107 31.7715 33.4233 32.2859 33.1526C32.4619 33.0849 32.665 33.0172 32.9357 33.0172C33.2065 33.0172 33.4501 33.1255 33.6532 33.3286C33.8562 33.5316 33.9645 33.8024 33.9645 34.1543C33.9645 34.4928 33.8969 34.7364 33.7209 34.9124C33.5449 35.0884 33.3418 35.1561 33.1388 35.1155C33.1388 35.2509 33.2065 35.4268 33.3148 35.5622C33.4231 35.6976 33.6532 35.8059 33.9645 35.8059C34.303 35.8059 34.5873 35.6976 34.7903 35.4675C35.1694 35.0884 35.4807 34.3303 35.6838 33.2338L35.9951 31.6906C36.6178 28.7395 37.4977 27.1015 38.7432 26.6818C39.1493 26.5465 39.5689 26.4788 40.0427 26.4788H43.1563L41.6807 33.3421C41.5724 33.7482 41.5454 34.0325 41.5454 34.2356C41.5454 34.8177 41.8161 35.129 42.3982 35.129C42.8043 35.129 43.1563 34.953 43.427 34.6552C43.6707 34.3168 43.9414 33.8701 44.1851 33.288H45.0786L44.9703 33.2203L44.9838 33.1797ZM52.9031 33.1797C51.3192 35.7788 49.4105 37.0919 47.1091 37.0919C46.1209 37.0919 45.3222 36.8212 44.7131 36.3068C44.131 35.7923 43.8196 34.9395 43.8196 33.7347C43.8196 32.1238 44.2257 30.5805 45.0515 29.0779C45.6742 27.9408 46.527 27.1285 47.5829 26.6412C48.138 26.3705 48.7201 26.2622 49.3022 26.2622C50.2633 26.2622 50.9537 26.4382 51.2921 26.8172C51.6306 27.1962 51.8065 27.67 51.8065 28.2927C51.8065 29.4976 51.3327 30.5264 50.3716 31.3386C49.4105 32.1644 48.2733 32.6382 46.9738 32.7059C46.9332 33.112 46.9332 33.3963 46.9332 33.5587C46.9332 34.2762 47.0685 34.7635 47.3122 34.9937C47.5559 35.2373 47.9349 35.3321 48.3816 35.3321C49.2074 35.3321 49.8572 35.1561 50.4393 34.7771C50.9943 34.4386 51.5764 33.8836 52.1856 33.1932H52.9031V33.1526V33.1797ZM50.1956 28.1032C50.1956 27.5888 50.0196 27.3451 49.6812 27.3451C49.1668 27.3451 48.6524 27.8189 48.1786 28.7124C47.7048 29.6059 47.3528 30.5941 47.1498 31.6906C47.9755 31.6229 48.6524 31.2439 49.2751 30.5535C49.8978 29.8631 50.1956 29.0508 50.1956 28.0897V28.1032ZM60.2808 30.6753C60.3485 30.919 60.3891 31.3251 60.3891 31.9072C60.3891 32.4893 60.2808 33.0714 60.0507 33.7212C59.807 34.3709 59.4957 34.926 59.0625 35.4404C58.1013 36.5369 56.8695 37.0919 55.3533 37.0919C54.1891 37.0919 53.3362 36.7535 52.7542 36.0631C52.1721 35.3727 51.8607 34.4522 51.8607 33.315C51.8607 32.1779 52.1314 30.6753 52.7135 28.7936C53.3362 26.736 54.1214 25.0167 55.0419 23.6224C56.1384 21.9709 57.2756 21.1587 58.4668 21.1587C59.1166 21.1587 59.6716 21.3617 60.0778 21.8084C60.4839 22.2552 60.7275 23.0132 60.7275 24.1098C60.7275 25.2063 60.3485 26.5058 59.5904 27.9814L59.0083 29.0779C59.3197 29.2133 59.5904 29.4163 59.7935 29.7006C60.714 29.7006 61.7428 29.4299 62.8393 28.8478C63.1507 28.6718 63.4214 28.5364 63.6245 28.374L63.8276 28.9561C63.0018 29.8089 61.8105 30.391 60.2673 30.6753V30.7159L60.2808 30.6753ZM55.0013 33.315C55.0013 34.5469 55.4074 35.129 56.3009 35.129C56.9507 35.129 57.4651 34.8177 57.8847 34.2085C58.2909 33.5858 58.4668 32.9766 58.4668 32.3268C58.4668 31.677 58.3992 31.2574 58.2909 30.9866C58.0878 31.0543 57.8171 31.122 57.5057 31.122C57.1943 31.122 56.9236 31.0137 56.7476 30.8513C56.5446 30.6753 56.4363 30.4452 56.4363 30.1609C56.4363 29.6871 56.5716 29.3757 56.8153 29.1727C57.059 28.9696 57.438 28.8613 57.9118 28.8342C58.5616 27.67 59.0083 26.4382 59.252 25.125C59.3197 24.6783 59.3874 24.2722 59.3874 23.8526C59.3874 23.4464 59.3197 23.1351 59.2114 22.9591C59.1031 22.7831 58.9406 22.7154 58.697 22.7154C58.2502 22.7154 57.8035 23.1622 57.3297 24.0556C56.5446 25.5312 55.8948 27.7648 55.3127 30.6753C55.1096 31.8124 55.0013 32.6653 55.0013 33.2744V33.315ZM70.4337 33.1797C68.8499 35.7788 66.9411 37.0919 64.6398 37.0919C63.6516 37.0919 62.8529 36.8212 62.2437 36.3068C61.6616 35.7923 61.3503 34.9395 61.3503 33.7347C61.3503 32.1238 61.7564 30.5805 62.5821 29.0779C63.2049 27.9408 64.0577 27.1285 65.1136 26.6412C65.6686 26.3705 66.2507 26.2622 66.8328 26.2622C67.794 26.2622 68.4844 26.4382 68.8228 26.8172C69.1612 27.1962 69.3372 27.67 69.3372 28.2927C69.3372 29.4976 68.8634 30.5264 67.9023 31.3386C66.9411 32.1644 65.804 32.6382 64.5044 32.7059C64.4638 33.112 64.4638 33.3963 64.4638 33.5587C64.4638 34.2762 64.5992 34.7635 64.8428 34.9937C65.0865 35.2373 65.4656 35.3321 65.9123 35.3321C66.7381 35.3321 67.3878 35.1561 67.9699 34.7771C68.525 34.4386 69.1071 33.8836 69.7162 33.1932H70.4337V33.1526V33.1797ZM67.7263 28.1032C67.7263 27.5888 67.5503 27.3451 67.2119 27.3451C66.6974 27.3451 66.183 27.8189 65.7092 28.7124C65.2354 29.6059 64.8835 30.5941 64.6804 31.6906C65.5062 31.6229 66.183 31.2439 66.8057 30.5535C67.4285 29.8631 67.7263 29.0508 67.7263 28.0897V28.1032ZM72.0446 36.3338L71.5438 38.6622L68.349 39.4203L71.2865 25.6395H74.3324L73.994 27.2233C74.6844 26.6006 75.4966 26.3299 76.4578 26.3299C77.6626 26.3299 78.4748 26.912 78.8268 28.0762C78.9621 28.4823 79.0298 28.9967 79.0298 29.5517C79.0298 30.1067 78.9892 30.6482 78.9215 31.2032C78.8538 31.7583 78.7455 32.2998 78.5831 32.8548C78.4071 33.4098 78.204 33.9513 77.9604 34.4386C77.7167 34.953 77.3783 35.3998 76.9992 35.7788C76.6202 36.1849 76.1735 36.4963 75.632 36.7399C75.1176 36.9836 74.4678 37.0784 73.6826 37.0784C72.8975 37.0784 72.3424 36.8347 72.0311 36.3203V36.3609L72.0446 36.3338ZM76.1599 29.5788C76.1599 28.4146 75.8215 27.8325 75.0905 27.8325C74.8468 27.8325 74.6167 27.9408 74.3324 28.1032C74.0617 28.2792 73.8586 28.55 73.642 28.8884L72.4101 34.7906C72.5455 35.1019 72.8162 35.2644 73.3036 35.2644C73.7774 35.2644 74.197 35.0613 74.5761 34.6823C75.2936 33.8971 75.7809 32.8006 75.9839 31.3251C76.0922 30.6753 76.1599 30.0932 76.1599 29.6059V29.5652V29.5788Z" fill="#333333"/>
<path fill-rule="evenodd" clip-rule="evenodd" d="M9.06991 0C14.0651 0 18.1398 4.07469 18.1398 9.06991V18.1398H9.06991C4.07469 18.1398 0 14.0651 0 9.06991C0 4.07469 4.07469 0 9.06991 0Z" fill="#669933"/>
<path fill-rule="evenodd" clip-rule="evenodd" d="M0 28.6582C0 23.6629 4.07469 19.5882 9.06991 19.5882H18.1398V28.6582C18.1398 33.6534 14.0651 37.7281 9.06991 37.7281C4.07469 37.7281 0 33.6534 0 28.6582Z" fill="#669933"/>
<path fill-rule="evenodd" clip-rule="evenodd" d="M37.7281 9.08354C37.7281 14.0788 33.6534 18.1535 28.6581 18.1535H19.5882V9.08354C19.5882 4.08832 23.6629 0.0136325 28.6581 0.0136325C33.6534 0.0136325 37.7281 4.08832 37.7281 9.08354Z" fill="#669933"/>
</svg>
