<svg width="64" height="64" viewBox="0 0 64 64" fill="none" xmlns="http://www.w3.org/2000/svg">
<path fill-rule="evenodd" clip-rule="evenodd" d="M35.9994 20H27.9994C25.0539 20 22.6661 22.3878 22.6661 25.3333V49.3333C22.6661 52.2789 25.0539 54.6667 27.9994 54.6667H35.9994C38.9449 54.6667 41.3327 52.2789 41.3327 49.3333V25.3333C41.3327 22.3878 38.9449 20 35.9994 20ZM27.9994 18.6667C24.3175 18.6667 21.3327 21.6514 21.3327 25.3333V49.3333C21.3327 53.0152 24.3175 56 27.9994 56H35.9994C39.6813 56 42.666 53.0152 42.666 49.3333V25.3333C42.666 21.6514 39.6813 18.6667 35.9994 18.6667H27.9994Z" fill="#387EBF"/>
<path fill-rule="evenodd" clip-rule="evenodd" d="M29.3327 22C29.3327 21.6318 29.6312 21.3333 29.9994 21.3333H33.9994C34.3676 21.3333 34.6661 21.6318 34.6661 22C34.6661 22.3682 34.3676 22.6667 33.9994 22.6667H29.9994C29.6312 22.6667 29.3327 22.3682 29.3327 22Z" fill="#387EBF"/>
<path fill-rule="evenodd" clip-rule="evenodd" d="M28.6661 34.3861C28.6661 32.8214 30.3817 31.8627 31.7142 32.6828L36.5035 35.63C37.7726 36.411 37.7726 38.2557 36.5035 39.0367L31.7142 41.9839C30.3817 42.8039 28.6661 41.8452 28.6661 40.2806V34.3861ZM31.0155 33.8183C30.5713 33.545 29.9994 33.8645 29.9994 34.3861V40.2806C29.9994 40.8021 30.5713 41.1217 31.0155 40.8484L35.8047 37.9011C36.2278 37.6408 36.2278 37.0259 35.8047 36.7656L31.0155 33.8183Z" fill="#387EBF"/>
<path fill-rule="evenodd" clip-rule="evenodd" d="M41.1994 10.4C35.7475 6.31111 28.2512 6.31111 22.7994 10.4L21.7327 11.2C21.4382 11.4209 21.0203 11.3612 20.7994 11.0667C20.5785 10.7721 20.6382 10.3542 20.9327 10.1333L21.9994 9.33333C27.9253 4.88889 36.0735 4.88889 41.9994 9.33333L43.066 10.1333C43.3606 10.3542 43.4203 10.7721 43.1994 11.0667C42.9785 11.3612 42.5606 11.4209 42.2661 11.2L41.1994 10.4ZM39.5726 13.8455C35.1856 10.1896 28.8132 10.1896 24.4262 13.8455C24.1433 14.0812 23.7229 14.043 23.4872 13.7601C23.2515 13.4773 23.2897 13.0569 23.5726 12.8212C28.4541 8.75329 35.5447 8.75329 40.4262 12.8212C40.709 13.0569 40.7472 13.4773 40.5115 13.7601C40.2758 14.043 39.8554 14.0812 39.5726 13.8455ZM36.8613 16.4714C34.1761 13.7862 29.8226 13.7862 27.1375 16.4714C26.8771 16.7318 26.455 16.7318 26.1946 16.4714C25.9343 16.2111 25.9343 15.7889 26.1946 15.5286C29.4005 12.3227 34.5983 12.3227 37.8041 15.5286C38.0645 15.7889 38.0645 16.2111 37.8041 16.4714C37.5438 16.7318 37.1217 16.7318 36.8613 16.4714Z" fill="#387EBF"/>
</svg>
