<svg width="246" height="78" viewBox="0 0 246 78" fill="none" xmlns="http://www.w3.org/2000/svg">
<path d="M60.958 60.3584V63H59.7227V55.8906H62.4424C63.2367 55.8906 63.8665 56.0973 64.332 56.5107C64.8008 56.9242 65.0352 57.471 65.0352 58.1514C65.0352 58.848 64.8057 59.39 64.3467 59.7773C63.891 60.1647 63.2513 60.3584 62.4277 60.3584H60.958ZM60.958 59.3672H62.4424C62.8818 59.3672 63.2171 59.2646 63.4482 59.0596C63.6794 58.8512 63.7949 58.5518 63.7949 58.1611C63.7949 57.777 63.6777 57.471 63.4434 57.2432C63.209 57.012 62.8867 56.8932 62.4766 56.8867H60.958V59.3672ZM71.2744 59.8262H68.3545V62.0137H71.7676V63H67.1191V55.8906H71.7334V56.8867H68.3545V58.8496H71.2744V59.8262ZM75.0088 62.0137H78.2363V63H73.7734V55.8906H75.0088V62.0137ZM81.6826 61.4521L83.4893 55.8906H84.8467L82.2881 63H81.0918L78.543 55.8906H79.8955L81.6826 61.4521ZM87.9561 63H86.7256V55.8906H87.9561V63ZM95.8994 60.6855C95.8278 61.444 95.5479 62.0365 95.0596 62.4629C94.5713 62.8861 93.9219 63.0977 93.1113 63.0977C92.5449 63.0977 92.0452 62.9642 91.6123 62.6973C91.1826 62.4271 90.8506 62.0446 90.6162 61.5498C90.3818 61.055 90.2598 60.4805 90.25 59.8262V59.1621C90.25 58.4915 90.3688 57.9007 90.6064 57.3896C90.8441 56.8786 91.1842 56.4847 91.627 56.208C92.0729 55.9313 92.5872 55.793 93.1699 55.793C93.9544 55.793 94.5859 56.0062 95.0645 56.4326C95.543 56.859 95.8213 57.4613 95.8994 58.2393H94.6689C94.6104 57.7282 94.4606 57.3604 94.2197 57.1357C93.9821 56.9079 93.6322 56.7939 93.1699 56.7939C92.6328 56.7939 92.2194 56.9909 91.9297 57.3848C91.6432 57.7754 91.4967 58.3499 91.4902 59.1084V59.7383C91.4902 60.5065 91.627 61.0924 91.9004 61.4961C92.1771 61.8997 92.5807 62.1016 93.1113 62.1016C93.5964 62.1016 93.9609 61.9925 94.2051 61.7744C94.4492 61.5563 94.6038 61.1934 94.6689 60.6855H95.8994ZM107.143 63H105.912V59.8408H102.733V63H101.498V55.8906H102.733V58.8496H105.912V55.8906H107.143V63ZM113.763 59.8262H110.843V62.0137H114.256V63H109.607V55.8906H114.222V56.8867H110.843V58.8496H113.763V59.8262ZM120.241 61.3447H117.487L116.911 63H115.627L118.312 55.8906H119.421L122.111 63H120.822L120.241 61.3447ZM117.834 60.3486H119.895L118.864 57.3994L117.834 60.3486ZM125.157 62.0137H128.385V63H123.922V55.8906H125.157V62.0137ZM134.463 56.8867H132.246V63H131.021V56.8867H128.823V55.8906H134.463V56.8867ZM142.045 63H140.814V59.8408H137.636V63H136.4V55.8906H137.636V58.8496H140.814V55.8906H142.045V63Z" fill="#BF3882"/>
<path d="M60.0312 36V13.25H67.0312C69.0312 13.25 70.8177 13.7031 72.3906 14.6094C73.974 15.5052 75.2083 16.7865 76.0938 18.4531C76.9792 20.1094 77.4219 21.9948 77.4219 24.1094V25.1562C77.4219 27.2708 76.9844 29.151 76.1094 30.7969C75.2448 32.4427 74.0208 33.7188 72.4375 34.625C70.8542 35.5312 69.0677 35.9896 67.0781 36H60.0312ZM64.7188 17.0469V32.2344H66.9844C68.8177 32.2344 70.2188 31.6354 71.1875 30.4375C72.1562 29.2396 72.651 27.526 72.6719 25.2969V24.0938C72.6719 21.7812 72.1927 20.0312 71.2344 18.8438C70.276 17.6458 68.875 17.0469 67.0312 17.0469H64.7188ZM88.6481 36.3125C86.169 36.3125 84.1481 35.5521 82.5856 34.0312C81.0335 32.5104 80.2575 30.4844 80.2575 27.9531V27.5156C80.2575 25.8177 80.5856 24.3021 81.2419 22.9688C81.8981 21.625 82.8252 20.5938 84.0231 19.875C85.2315 19.1458 86.6065 18.7812 88.1481 18.7812C90.4606 18.7812 92.2783 19.5104 93.6012 20.9688C94.9346 22.4271 95.6012 24.4948 95.6012 27.1719V29.0156H84.8356C84.9815 30.1198 85.419 31.0052 86.1481 31.6719C86.8877 32.3385 87.82 32.6719 88.945 32.6719C90.6846 32.6719 92.044 32.0417 93.0231 30.7812L95.2419 33.2656C94.5648 34.224 93.6481 34.974 92.4919 35.5156C91.3356 36.0469 90.0544 36.3125 88.6481 36.3125ZM88.1325 22.4375C87.2367 22.4375 86.5075 22.7396 85.945 23.3438C85.3929 23.9479 85.0387 24.8125 84.8825 25.9375H91.1637V25.5781C91.1429 24.5781 90.8721 23.8073 90.3512 23.2656C89.8304 22.7135 89.0908 22.4375 88.1325 22.4375ZM104.609 30.4844L107.749 19.0938H112.468L106.765 36H102.452L96.7494 19.0938H101.468L104.609 30.4844ZM119.554 36H115.022V19.0938H119.554V36ZM114.757 14.7188C114.757 14.0417 114.981 13.4844 115.429 13.0469C115.887 12.6094 116.507 12.3906 117.288 12.3906C118.059 12.3906 118.674 12.6094 119.132 13.0469C119.59 13.4844 119.819 14.0417 119.819 14.7188C119.819 15.4062 119.585 15.9688 119.116 16.4062C118.658 16.8438 118.049 17.0625 117.288 17.0625C116.528 17.0625 115.913 16.8438 115.444 16.4062C114.986 15.9688 114.757 15.4062 114.757 14.7188ZM122.983 29.875C122.983 28.8229 123.275 27.849 123.858 26.9531C124.452 26.0573 125.535 25.0625 127.108 23.9688C126.431 23.0625 125.9 22.2135 125.514 21.4219C125.129 20.6198 124.936 19.7865 124.936 18.9219C124.936 17.151 125.494 15.7135 126.608 14.6094C127.733 13.4948 129.244 12.9375 131.139 12.9375C132.837 12.9375 134.228 13.4427 135.311 14.4531C136.405 15.4635 136.952 16.724 136.952 18.2344C136.952 20.0469 136.035 21.6458 134.202 23.0312L132.452 24.2969L136.374 28.8594C136.988 27.651 137.296 26.3177 137.296 24.8594H141.139C141.139 27.8177 140.457 30.2135 139.092 32.0469L142.499 36H137.374L136.202 34.6562C134.525 35.7604 132.598 36.3125 130.421 36.3125C128.171 36.3125 126.369 35.724 125.014 34.5469C123.66 33.3594 122.983 31.8021 122.983 29.875ZM130.639 32.6875C131.723 32.6875 132.749 32.3854 133.717 31.7812L129.233 26.5938L128.905 26.8281C127.978 27.6198 127.514 28.5521 127.514 29.625C127.514 30.5312 127.801 31.2708 128.374 31.8438C128.957 32.4062 129.712 32.6875 130.639 32.6875ZM128.983 18.8594C128.983 19.6406 129.441 20.625 130.358 21.8125L131.561 21.0156C132.176 20.6198 132.598 20.2344 132.827 19.8594C133.066 19.4844 133.186 19.0365 133.186 18.5156C133.186 17.9948 132.994 17.5417 132.608 17.1562C132.223 16.7708 131.728 16.5781 131.124 16.5781C130.478 16.5781 129.957 16.7865 129.561 17.2031C129.176 17.6198 128.983 18.1719 128.983 18.8594ZM158.912 26.1406H149.912V32.2344H160.475V36H145.225V13.25H160.444V17.0469H149.912V22.4688H158.912V26.1406ZM168.014 36H163.482V19.0938H168.014V36ZM163.217 14.7188C163.217 14.0417 163.441 13.4844 163.889 13.0469C164.347 12.6094 164.967 12.3906 165.748 12.3906C166.519 12.3906 167.134 12.6094 167.592 13.0469C168.05 13.4844 168.279 14.0417 168.279 14.7188C168.279 15.4062 168.045 15.9688 167.576 16.4062C167.118 16.8438 166.509 17.0625 165.748 17.0625C164.988 17.0625 164.373 16.8438 163.904 16.4062C163.446 15.9688 163.217 15.4062 163.217 14.7188ZM181.568 23.3281C180.954 23.2448 180.412 23.2031 179.943 23.2031C178.235 23.2031 177.115 23.7812 176.584 24.9375V36H172.068V19.0938H176.334L176.459 21.1094C177.365 19.5573 178.62 18.7812 180.224 18.7812C180.724 18.7812 181.193 18.849 181.631 18.9844L181.568 23.3281ZM188.31 19.0938L188.451 20.9844C189.649 19.5156 191.268 18.7812 193.31 18.7812C195.487 18.7812 196.982 19.6406 197.794 21.3594C198.982 19.6406 200.675 18.7812 202.872 18.7812C204.706 18.7812 206.07 19.3177 206.966 20.3906C207.862 21.4531 208.31 23.0573 208.31 25.2031V36H203.779V25.2188C203.779 24.2604 203.591 23.5625 203.216 23.125C202.841 22.6771 202.18 22.4531 201.232 22.4531C199.878 22.4531 198.94 23.099 198.419 24.3906L198.435 36H193.919V25.2344C193.919 24.2552 193.727 23.5469 193.341 23.1094C192.956 22.6719 192.3 22.4531 191.372 22.4531C190.091 22.4531 189.164 22.9844 188.591 24.0469V36H184.076V19.0938H188.31ZM221.911 36C221.703 35.5938 221.552 35.0885 221.458 34.4844C220.364 35.7031 218.943 36.3125 217.193 36.3125C215.536 36.3125 214.161 35.8333 213.068 34.875C211.984 33.9167 211.443 32.7083 211.443 31.25C211.443 29.4583 212.104 28.0833 213.427 27.125C214.76 26.1667 216.682 25.6823 219.193 25.6719H221.271V24.7031C221.271 23.9219 221.068 23.2969 220.661 22.8281C220.265 22.3594 219.635 22.125 218.771 22.125C218.01 22.125 217.411 22.3073 216.974 22.6719C216.547 23.0365 216.333 23.5365 216.333 24.1719H211.818C211.818 23.1927 212.12 22.2865 212.724 21.4531C213.328 20.6198 214.182 19.9688 215.286 19.5C216.39 19.0208 217.63 18.7812 219.005 18.7812C221.088 18.7812 222.739 19.3073 223.958 20.3594C225.187 21.401 225.802 22.8698 225.802 24.7656V32.0938C225.812 33.6979 226.036 34.9115 226.474 35.7344V36H221.911ZM218.177 32.8594C218.844 32.8594 219.458 32.7135 220.021 32.4219C220.583 32.1198 221 31.7188 221.271 31.2188V28.3125H219.583C217.323 28.3125 216.12 29.0938 215.974 30.6562L215.958 30.9219C215.958 31.4844 216.156 31.9479 216.552 32.3125C216.948 32.6771 217.489 32.8594 218.177 32.8594ZM233.747 19.0938L233.887 21.0469C235.096 19.5365 236.716 18.7812 238.747 18.7812C240.539 18.7812 241.872 19.3073 242.747 20.3594C243.622 21.4115 244.07 22.9844 244.091 25.0781V36H239.575V25.1875C239.575 24.2292 239.367 23.5365 238.95 23.1094C238.533 22.6719 237.841 22.4531 236.872 22.4531C235.601 22.4531 234.648 22.9948 234.012 24.0781V36H229.497V19.0938H233.747Z" fill="#432D5C"/>
<circle cx="25" cy="25" r="25" fill="#432D5C"/>
<path d="M17.9173 12C20.6919 12 23.2008 13.1342 25 14.9614C26.8002 13.1342 29.3086 12 32.0837 12C37.5606 12 42 16.4162 42 21.8639C42 33.1366 25 43 25 43C25 43 7.99996 33.1366 7.99996 21.8639C7.99996 16.4162 12.4398 12 17.9173 12ZM17.4203 35.5867C20.5061 38.4063 23.6324 40.4849 25 41.3466C26.3675 40.4849 29.4944 38.4062 32.5801 35.5867C34.9459 33.4246 36.8228 31.2593 38.1597 29.1478C39.7681 26.6088 40.5836 24.1582 40.5836 21.8639C40.5836 19.6057 39.6996 17.4824 38.0939 15.8858C36.4882 14.2886 34.3538 13.4093 32.0836 13.4093C30.9204 13.4093 29.7937 13.6384 28.7353 14.0905C27.7117 14.5275 26.796 15.1525 26.0126 15.9476L25 16.975L23.9883 15.9475C23.2049 15.1523 22.2887 14.5274 21.2658 14.0904C20.2064 13.6384 19.0805 13.4092 17.9173 13.4092C15.646 13.4092 13.5117 14.2886 11.9064 15.8857C10.3014 17.4823 9.41727 19.6057 9.41727 21.8639C9.41727 24.1581 10.2329 26.6088 11.8412 29.1477C13.1775 31.2593 15.0546 33.4245 17.4203 35.5867Z" fill="#D14F97"/>
<path d="M31.5822 15.0244C31.7207 14.8871 31.9018 14.818 32.0833 14.818C35.9951 14.818 39.1665 17.9725 39.1665 21.8639C39.1665 22.044 39.0975 22.2246 38.959 22.3619C38.6825 22.6369 38.2342 22.6369 37.9572 22.3619C37.8192 22.2246 37.7497 22.044 37.7497 21.8639C37.7497 20.3581 37.1603 18.9426 36.09 17.878C35.0198 16.8135 33.5967 16.2273 32.0833 16.2273C31.9018 16.2273 31.7207 16.1586 31.5822 16.0209C31.3057 15.7458 31.3057 15.3 31.5822 15.0244Z" fill="#D14F97"/>
<path d="M25.5001 63.0001C24.5002 77.5 42.0001 80.0001 48.0001 71C54.0001 61.9999 43.5001 55.0001 51.5002 47C59.5002 39 130 57 155.5 48" stroke="#D14F97" stroke-width="2"/>
<path d="M23 52H25V56H26V52H28V60.5C28 61.8807 26.8807 63 25.5 63C24.1193 63 23 61.8807 23 60.5V52Z" fill="white"/>
<path d="M177.5 55C181.642 55 185 51.6421 185 47.5C185 43.3579 181.642 40 177.5 40C174.541 40 163.634 41 159.5 43C157.015 43 155 45.0147 155 47.5C155 49.9853 157.015 52 159.5 52C162.634 54 170.541 55 177.5 55Z" fill="#BF3882"/>
<path d="M177.5 55C181.642 55 185 51.6421 185 47.5C185 43.3579 181.642 40 177.5 40C171.541 43 165.634 44 159.5 43C157.015 43 155 45.0147 155 47.5C155 49.9853 157.015 52 159.5 52C165.634 51 169.541 52 177.5 55Z" fill="white"/>
</svg>
