<svg width="48" height="48" viewBox="0 0 48 48" fill="none" xmlns="http://www.w3.org/2000/svg">
<g clip-path="url(#clip0)">
<path d="M44.602 9.09535L37.6838 0.305185C37.3582 -0.101769 36.707 -0.101769 36.3815 0.305185L29.4633 9.09535C25.4751 13.409 25.4751 20.3272 29.4633 24.5595C31.5794 26.5943 34.2653 27.6523 37.0326 27.6523C39.7998 27.6523 42.4857 26.5943 44.6019 24.5595C48.5901 20.0017 48.5901 13.0835 44.602 9.09535ZM43.4624 23.42C39.8812 26.9198 34.1839 26.9198 30.6841 23.42C27.1844 19.7575 27.2657 13.816 30.6841 10.072L37.0326 2.09573L43.381 10.072L43.4624 10.1534C46.8809 13.5718 46.8809 19.5133 43.4624 23.42Z" fill="#BF3882"/>
<path d="M36.9515 22.8503C35.4051 22.8503 33.94 22.2806 32.8819 21.2225C30.6844 18.7808 30.6844 14.8741 32.9633 12.4324L33.0447 12.351C33.3703 12.0254 33.3703 11.537 33.0447 11.2115C32.7192 10.886 32.2308 10.886 31.9053 11.2115L31.8239 11.2929C29.0566 14.3043 28.9752 19.2692 31.8239 22.2807C33.2075 23.6643 35.0795 24.3968 37.0329 24.3968C37.5212 24.3968 37.7654 24.1527 37.7654 23.6643C37.7654 23.176 37.4397 22.8503 36.9515 22.8503Z" fill="#BF3882"/>
<path d="M24.4988 23.9084L14.9762 13.1649C14.8133 13.0021 14.5692 12.9207 14.3251 12.9207C14.0809 13.0022 13.8367 13.0836 13.674 13.2463L4.55817 23.9898C1.87222 26.6757 0.407227 30.1755 0.407227 33.9194C0.407227 37.6634 1.87222 41.2446 4.55817 43.849C7.24403 46.5349 10.7439 48 14.4878 48C18.2317 48 21.7315 46.535 24.4988 43.7677C27.4289 41.1632 29.0567 37.6634 29.0567 33.9195C29.0566 30.1755 27.4288 26.5944 24.4988 23.9084ZM23.278 42.7096C20.9176 45.0699 17.8248 46.3722 14.4878 46.3722C11.1507 46.3722 8.05794 45.0699 5.69763 42.7096C3.33731 40.3493 2.03504 37.1751 2.03504 33.9194C2.03504 30.6638 3.33731 27.4896 5.69763 25.1293L14.2437 15.0368L23.1966 25.1293C23.1966 25.2107 23.278 25.2107 23.278 25.2107C25.9639 27.571 27.3476 30.7452 27.3476 34.0822C27.2661 37.3379 25.8824 40.4307 23.278 42.7096Z" fill="#BF3882"/>
<path d="M14.488 43.1166C12.0463 43.1166 9.68598 42.1399 7.97676 40.4307C6.26753 38.6401 5.2909 36.3612 5.2909 33.9195C5.2909 31.4777 6.26763 29.1174 7.97676 27.4082L8.05817 27.3268C8.38371 27.0012 8.38371 26.5129 8.05817 26.1873C7.73262 25.8618 7.24426 25.8618 6.91872 26.1873L6.83731 26.2687C4.80254 28.3035 3.66309 31.0708 3.66309 33.9195C3.66309 36.8495 4.80254 39.5354 6.83731 41.5702C8.87208 43.6049 11.6393 44.7444 14.488 44.7444C14.895 44.7444 15.3019 44.4189 15.3019 43.9305C15.3019 43.4421 14.9764 43.1166 14.488 43.1166Z" fill="#BF3882"/>
</g>
<defs>
<clipPath id="clip0">
<rect width="48" height="48" fill="white"/>
</clipPath>
</defs>
</svg>
