<svg width="64" height="64" viewBox="0 0 64 64" fill="none" xmlns="http://www.w3.org/2000/svg">
<path fill-rule="evenodd" clip-rule="evenodd" d="M32.0007 9.33333C21.3231 9.33333 12.6673 17.9892 12.6673 28.6667C12.6673 37.6255 18.7615 45.1626 27.0315 47.3556L26.6898 48.6444C17.8498 46.3003 11.334 38.2453 11.334 28.6667C11.334 17.2528 20.5868 8 32.0007 8C43.4145 8 52.6673 17.2528 52.6673 28.6667C52.6673 38.2453 46.1515 46.3003 37.3115 48.6444L36.9698 47.3556C45.2398 45.1626 51.334 37.6255 51.334 28.6667C51.334 17.9892 42.6782 9.33333 32.0007 9.33333Z" fill="#387EBF"/>
<path fill-rule="evenodd" clip-rule="evenodd" d="M32 16C25.0044 16 19.3333 21.671 19.3333 28.6666C19.3333 33.5156 22.0578 37.7293 26.0626 39.8585L25.4367 41.0358C21.0139 38.6843 18 34.028 18 28.6666C18 20.9346 24.268 14.6666 32 14.6666C39.732 14.6666 46 20.9346 46 28.6666C46 34.028 42.9861 38.6843 38.5633 41.0358L37.9374 39.8585C41.9422 37.7293 44.6667 33.5156 44.6667 28.6666C44.6667 21.671 38.9956 16 32 16Z" fill="#387EBF"/>
<path fill-rule="evenodd" clip-rule="evenodd" d="M37.5668 25.1416C34.7748 21.4462 29.2235 21.4462 26.4314 25.1416C25.3203 26.6121 24.8361 28.4625 25.0845 30.2887L28.1207 52.6133C28.3845 54.5534 30.0412 56 31.9991 56C33.957 56 35.6137 54.5534 35.8776 52.6133L38.9137 30.2887C39.1621 28.4625 38.6779 26.6121 37.5668 25.1416ZM25.3676 24.3378C28.6931 19.9364 35.3051 19.9364 38.6307 24.3378C39.954 26.0893 40.5307 28.2932 40.2349 30.4684L37.1987 52.793C36.845 55.3939 34.6239 57.3333 31.9991 57.3333C29.3743 57.3333 27.1532 55.3939 26.7995 52.793L23.7633 30.4684C23.4675 28.2932 24.0442 26.0893 25.3676 24.3378Z" fill="#387EBF"/>
<path fill-rule="evenodd" clip-rule="evenodd" d="M38.8494 34.641L36.9282 35.1899C35.5594 35.581 34.59 36.7982 34.5152 38.2198L34.1251 45.6326C34.0602 46.8645 34.681 48.0315 35.7388 48.6661L37.0092 49.4284L36.3232 50.5717L35.0528 49.8094C33.5719 48.9209 32.7028 47.2872 32.7936 45.5625L33.1837 38.1497C33.2885 36.1595 34.6456 34.4554 36.5619 33.9079L38.4831 33.359L38.8494 34.641Z" fill="#387EBF"/>
<path fill-rule="evenodd" clip-rule="evenodd" d="M25.1506 34.641L27.0718 35.1899C28.4406 35.581 29.41 36.7982 29.4848 38.2198L29.8749 45.6326C29.9398 46.8645 29.319 48.0315 28.2612 48.6661L26.9908 49.4284L27.6768 50.5717L28.9472 49.8094C30.4281 48.9209 31.2972 47.2872 31.2064 45.5625L30.8163 38.1497C30.7115 36.1595 29.3544 34.4554 27.4381 33.9079L25.5169 33.359L25.1506 34.641Z" fill="#387EBF"/>
</svg>
