<svg width="64" height="64" viewBox="0 0 64 64" fill="none" xmlns="http://www.w3.org/2000/svg">
<path fill-rule="evenodd" clip-rule="evenodd" d="M20.666 12.6667H43.3327V19.517C43.3327 21.2787 42.6985 22.9816 41.546 24.3141L36.0303 30.6917C35.3806 31.4429 35.3806 32.5571 36.0303 33.3083L41.546 39.6859C42.6985 41.0184 43.3327 42.7212 43.3327 44.483V51.3333H20.666V44.483C20.666 42.7212 21.3002 41.0184 22.4527 39.6859L27.9684 33.3083C28.6181 32.5571 28.6181 31.4429 27.9684 30.6917L22.4527 24.3141C21.3002 22.9816 20.666 21.2787 20.666 19.517V12.6667ZM21.9993 14V19.517C21.9993 20.9584 22.5183 22.3517 23.4612 23.4419L28.9769 29.8195C30.0597 31.0715 30.0597 32.9285 28.9769 34.1805L23.4612 40.5581C22.5183 41.6483 21.9993 43.0415 21.9993 44.483V50H41.9993V44.483C41.9993 43.0415 41.4804 41.6483 40.5375 40.5581L35.0218 34.1805C33.939 32.9285 33.939 31.0715 35.0218 29.8195L40.5375 23.4419C41.4804 22.3517 41.9993 20.9584 41.9993 19.517V14H21.9993Z" fill="#387EBF"/>
<path fill-rule="evenodd" clip-rule="evenodd" d="M16.666 53.3333C16.666 51.4924 18.1584 50 19.9993 50H43.9993C45.8403 50 47.3327 51.4924 47.3327 53.3333C47.3327 55.1743 45.8403 56.6667 43.9993 56.6667H19.9993C18.1584 56.6667 16.666 55.1743 16.666 53.3333ZM19.9993 51.3333C18.8948 51.3333 17.9993 52.2288 17.9993 53.3333C17.9993 54.4379 18.8948 55.3333 19.9993 55.3333H43.9993C45.1039 55.3333 45.9993 54.4379 45.9993 53.3333C45.9993 52.2288 45.1039 51.3333 43.9993 51.3333H19.9993Z" fill="#387EBF"/>
<path fill-rule="evenodd" clip-rule="evenodd" d="M16.666 10.6667C16.666 8.82573 18.1584 7.33334 19.9993 7.33334H43.9993C45.8403 7.33334 47.3327 8.82573 47.3327 10.6667C47.3327 12.5076 45.8403 14 43.9993 14H19.9993C18.1584 14 16.666 12.5076 16.666 10.6667ZM19.9993 8.66668C18.8948 8.66668 17.9993 9.56211 17.9993 10.6667C17.9993 11.7712 18.8948 12.6667 19.9993 12.6667H43.9993C45.1039 12.6667 45.9993 11.7712 45.9993 10.6667C45.9993 9.56211 45.1039 8.66668 43.9993 8.66668H19.9993Z" fill="#387EBF"/>
<path fill-rule="evenodd" clip-rule="evenodd" d="M32.9841 17.2091C34.7582 16.0263 37.1508 16.4648 38.3902 18.1999C39.441 19.671 39.3591 21.6678 38.1913 23.0479L32.6662 29.5775V45.7534L37.449 51.3333H26.5501L31.3329 45.7534V29.5775L25.8078 23.0479C24.64 21.6678 24.5581 19.671 25.6089 18.1999C26.8482 16.4648 29.2408 16.0263 31.015 17.2091L31.9995 17.8654L32.9841 17.2091ZM31.9995 28.3012L37.1734 22.1867C37.9471 21.2723 38.0013 19.9495 37.3052 18.9749C36.4841 17.8254 34.8991 17.5349 33.7237 18.3185L31.9995 19.4679L30.2754 18.3185C29.1 17.5349 27.5149 17.8254 26.6939 18.9749C25.9977 19.9495 26.052 21.2723 26.8257 22.1867L31.9995 28.3012ZM31.9995 47.0244L29.449 50H34.5501L31.9995 47.0244Z" fill="#387EBF"/>
</svg>
