<svg width="24" height="24" viewBox="0 0 24 24" fill="none" xmlns="http://www.w3.org/2000/svg">
<path d="M19.5973 7.59724C19.5973 3.40813 16.1891 0 12.0001 0C7.811 0 4.40283 3.40813 4.40283 7.59724C4.40283 11.2937 7.05668 14.3815 10.5589 15.0568V17.0335H8.25312C7.45723 17.0335 6.81198 17.6787 6.81198 18.4746C6.81198 19.2705 7.45723 19.9158 8.25312 19.9158H10.5589V22.5589C10.5589 23.3548 11.2042 24 12.0001 24C12.796 24 13.4412 23.3547 13.4412 22.5589V19.9158H15.747C16.5429 19.9158 17.1882 19.2705 17.1882 18.4746C17.1882 17.6787 16.5429 17.0335 15.747 17.0335H13.4412V15.0568C16.9435 14.3815 19.5973 11.2937 19.5973 7.59724ZM7.28512 7.59724C7.28512 4.99743 9.40018 2.88228 12 2.88228C14.5999 2.88228 16.715 4.99735 16.715 7.59724C16.715 10.1971 14.5999 12.3122 12 12.3122C9.40026 12.3122 7.28512 10.1971 7.28512 7.59724Z" fill="white"/>
</svg>
