<svg width="48" height="48" viewBox="0 0 48 48" fill="none" xmlns="http://www.w3.org/2000/svg">
<path d="M24 0C15.0828 0 7.82812 7.25466 7.82812 16.1719C7.82812 20.1061 9.25772 23.8977 11.8536 26.8482C14.2891 29.6166 17.5846 31.4657 21.1875 32.0986V36.6562H18.2812C16.7304 36.6562 15.4688 37.9179 15.4688 39.4688C15.4688 40.22 15.7613 40.9263 16.2925 41.4575C16.8237 41.9887 17.53 42.2812 18.2812 42.2812H21.1875V45.1875C21.1875 46.7383 22.4492 48 24 48C25.5508 48 26.8125 46.7383 26.8125 45.1875V42.2812H29.7188C30.4701 42.2812 31.1763 41.9887 31.7075 41.4575C32.2387 40.9262 32.5312 40.22 32.5312 39.4688C32.5312 37.9179 31.2696 36.6562 29.7188 36.6562H26.8125V32.0987C30.4154 31.4658 33.7108 29.6166 36.1464 26.8483C38.7423 23.8977 40.1719 20.1061 40.1719 16.1719C40.1719 7.25466 32.9172 0 24 0ZM26.0143 30.8002C25.6659 30.8477 25.4062 31.1453 25.4062 31.4968V37.3594C25.4062 37.7477 25.721 38.0625 26.1094 38.0625H29.7188C30.4942 38.0625 31.125 38.6933 31.125 39.4688C31.125 39.8443 30.9787 40.1975 30.7131 40.4632C30.4475 40.7287 30.0944 40.875 29.7188 40.875H26.1094C25.721 40.875 25.4062 41.1898 25.4062 41.5781V45.1875C25.4062 45.9629 24.7754 46.5938 24 46.5938C23.2246 46.5938 22.5938 45.9629 22.5938 45.1875V41.5781C22.5938 41.1898 22.279 40.875 21.8906 40.875H18.2812C17.9056 40.875 17.5525 40.7287 17.2869 40.4632C17.0213 40.1975 16.875 39.8443 16.875 39.4688C16.875 38.6933 17.5058 38.0625 18.2812 38.0625H21.8906C22.279 38.0625 22.5938 37.7477 22.5938 37.3594V31.4968C22.5938 31.1453 22.334 30.8477 21.9857 30.8002C14.7162 29.8088 9.23438 23.52 9.23438 16.1719C9.23438 8.03006 15.8582 1.40625 24 1.40625C32.1418 1.40625 38.7656 8.03006 38.7656 16.1719C38.7656 23.52 33.2838 29.8088 26.0143 30.8002Z" fill="#BF3882"/>
<path d="M24 4.21875C21.3183 4.21875 18.7837 5.08706 16.6703 6.72984C16.3637 6.96816 16.3084 7.40991 16.5467 7.71647C16.785 8.02303 17.2268 8.07834 17.5333 7.84003C19.3976 6.39094 21.6337 5.625 24 5.625C29.8155 5.625 34.5469 10.3563 34.5469 16.1719C34.5469 21.9875 29.8155 26.7188 24 26.7188C18.1845 26.7188 13.4531 21.9875 13.4531 16.1719C13.4531 13.8055 14.2191 11.5694 15.6683 9.70519C15.9066 9.39853 15.8512 8.95688 15.5446 8.71856C15.2381 8.48025 14.7964 8.53547 14.558 8.84212C12.9152 10.9554 12.0469 13.4901 12.0469 16.1719C12.0469 22.7629 17.409 28.125 24 28.125C30.591 28.125 35.9531 22.7629 35.9531 16.1719C35.9531 9.58087 30.591 4.21875 24 4.21875Z" fill="#BF3882"/>
</svg>
