<svg width="64" height="64" viewBox="0 0 64 64" fill="none" xmlns="http://www.w3.org/2000/svg">
<path fill-rule="evenodd" clip-rule="evenodd" d="M49.1785 1.35704C50.3426 0.0917358 52.3261 0.05043 53.5418 1.26618C54.6865 2.41088 54.7266 4.25408 53.6327 5.44743L41.1016 19.1177C40.8046 19.4417 40.6226 19.8546 40.5837 20.2924L40.198 24.6408L38.4354 29.7238L39.2962 34.8067L36.9828 60.8846L36.2791 62.0105C35.5056 63.2482 34.1491 64 32.6896 64C30.4512 64 28.5998 62.2574 28.4644 60.0231L26.9959 35.7933L27.9815 30.3726L26.3388 24.9518L26.0579 20.3174C26.0302 19.8595 25.8459 19.4251 25.5359 19.0869L13.033 5.44743C11.9391 4.25408 11.9792 2.41088 13.1239 1.26618C14.3396 0.0504297 16.3231 0.0917366 17.4872 1.35704L30.3645 15.3541C30.7432 15.7658 31.277 16 31.8364 16H34.8293C35.3887 16 35.9225 15.7658 36.3012 15.3541L49.1785 1.35704ZM52.599 2.20899C51.9194 1.52934 50.8105 1.55243 50.1598 2.25978L37.2824 16.2569C36.6512 16.943 35.7616 17.3334 34.8293 17.3334H31.8364C30.9041 17.3334 30.0145 16.943 29.3833 16.2569L16.506 2.25978C15.8552 1.55243 14.7464 1.52934 14.0667 2.20899C13.4268 2.84892 13.4044 3.87934 14.0159 4.54646L26.5188 18.186C27.0354 18.7495 27.3426 19.4736 27.3888 20.2367L27.6602 24.7149L29.3509 30.2942L28.3365 35.8734L29.7952 59.9425C29.888 61.473 31.1563 62.6667 32.6896 62.6667C33.6893 62.6667 34.6186 62.1517 35.1485 61.3039L35.652 60.4982L34.0013 38.0489C33.9743 37.6817 34.2501 37.3622 34.6173 37.3352C34.9845 37.3082 35.3041 37.5839 35.3311 37.9511L36.395 52.4211L37.9529 34.86L37.0637 29.6096L38.8844 24.3593L39.2556 20.1746C39.3204 19.4449 39.6237 18.7568 40.1187 18.2167L52.6498 4.54646C53.2613 3.87934 53.2389 2.84892 52.599 2.20899Z" fill="#BF3882"/>
<path fill-rule="evenodd" clip-rule="evenodd" d="M33.3333 13.3333C35.5425 13.3333 37.3333 11.5425 37.3333 9.33333C37.3333 7.12419 35.5425 5.33333 33.3333 5.33333C31.1242 5.33333 29.3333 7.12419 29.3333 9.33333C29.3333 11.5425 31.1242 13.3333 33.3333 13.3333ZM33.3333 14.6667C36.2789 14.6667 38.6667 12.2789 38.6667 9.33333C38.6667 6.38781 36.2789 4 33.3333 4C30.3878 4 28 6.38781 28 9.33333C28 12.2789 30.3878 14.6667 33.3333 14.6667Z" fill="#BF3882"/>
<path fill-rule="evenodd" clip-rule="evenodd" d="M26.6667 20.6667C27.0349 20.6667 27.3333 20.9652 27.3333 21.3334C27.3333 22.2472 27.5882 23.3953 28.2194 24.0676C28.5163 24.3839 28.9028 24.6042 29.4309 24.6553C29.9743 24.708 30.7176 24.5856 31.7138 24.112C32.0463 23.9539 32.444 24.0953 32.6021 24.4278C32.7602 24.7604 32.6188 25.1581 32.2862 25.3162C31.1491 25.8568 30.1591 26.0654 29.3024 25.9825C28.4305 25.898 27.7504 25.5162 27.2473 24.9802C26.2784 23.9481 26 22.3916 26 21.3334C26 20.9652 26.2985 20.6667 26.6667 20.6667Z" fill="#BF3882"/>
<path fill-rule="evenodd" clip-rule="evenodd" d="M39.9993 20.6667C39.6312 20.6667 39.3327 20.9652 39.3327 21.3334C39.3327 22.2472 39.0778 23.3953 38.4466 24.0676C38.1498 24.3839 37.7632 24.6042 37.2351 24.6553C36.6917 24.708 35.9484 24.5856 34.9523 24.112C34.6197 23.9539 34.222 24.0953 34.0639 24.4278C33.9058 24.7604 34.0472 25.1581 34.3798 25.3162C35.5169 25.8568 36.5069 26.0654 37.3636 25.9825C38.2355 25.898 38.9156 25.5162 39.4187 24.9802C40.3876 23.9481 40.666 22.3916 40.666 21.3334C40.666 20.9652 40.3675 20.6667 39.9993 20.6667Z" fill="#BF3882"/>
</svg>
