<svg width="64" height="64" viewBox="0 0 64 64" fill="none" xmlns="http://www.w3.org/2000/svg">
<path fill-rule="evenodd" clip-rule="evenodd" d="M24.2719 11.8016C25.156 10.6649 26.5154 10 27.9555 10H34.8696C36.2026 10 37.4719 10.57 38.3575 11.5663L46.0269 20.1944C47.2656 21.5879 47.1205 23.7265 45.7049 24.9398L38.7734 30.8811L42.4513 41.9147C42.5908 42.3335 42.6703 42.7699 42.6873 43.2111L43.2122 56.8591C43.2922 58.9379 41.6286 60.6667 39.5483 60.6667C37.5802 60.6667 35.9632 59.113 35.8845 57.1466L35.3626 44.0974C35.3463 43.6912 35.2559 43.2913 35.0957 42.9176L32.6659 37.248V57C32.6659 59.025 31.0242 60.6667 28.9992 60.6667C26.9741 60.6667 25.3325 59.025 25.3325 57V31.624L18.0027 24.8178C16.7363 23.6418 16.5787 21.6929 17.6397 20.3287L24.2719 11.8016ZM27.9555 11.3333C26.9269 11.3333 25.9559 11.8082 25.3243 12.6202L18.6922 21.1473C18.0556 21.9658 18.1501 23.1351 18.91 23.8407L26.6659 31.0426V57C26.6659 58.2887 27.7105 59.3333 28.9992 59.3333C30.2879 59.3333 31.3325 58.2887 31.3325 57V34L32.612 33.7374L36.3212 42.3924C36.5455 42.9156 36.6721 43.4754 36.6948 44.0441L37.2168 57.0933C37.2668 58.3446 38.2959 59.3333 39.5483 59.3333C40.8721 59.3333 41.9307 58.2332 41.8799 56.9103L41.3549 43.2623C41.3428 42.9472 41.2861 42.6355 41.1863 42.3363L37.225 30.4522L44.8372 23.9275C45.6865 23.1995 45.7736 21.9164 45.0304 21.0802L37.361 12.4521C36.7284 11.7405 35.8217 11.3333 34.8696 11.3333H27.9555Z" fill="#387EBF"/>
<path fill-rule="evenodd" clip-rule="evenodd" d="M33.334 3.33333C30.7567 3.33333 28.6673 5.42267 28.6673 8C28.6673 8.85111 28.8946 9.64712 29.2912 10.3328C29.4756 10.6516 29.3667 11.0594 29.048 11.2437C28.7293 11.4281 28.3214 11.3192 28.1371 11.0005C27.6262 10.1173 27.334 9.09175 27.334 8C27.334 4.68629 30.0203 2 33.334 2C36.6477 2 39.334 4.68629 39.334 8C39.334 9.49621 38.7855 10.866 37.8794 11.9166C37.639 12.1955 37.218 12.2266 36.9392 11.9861C36.6603 11.7457 36.6292 11.3247 36.8697 11.0459C37.5749 10.2281 38.0006 9.16461 38.0006 8C38.0006 5.42267 35.9113 3.33333 33.334 3.33333Z" fill="#387EBF"/>
<path fill-rule="evenodd" clip-rule="evenodd" d="M25.8048 19.5286C26.0652 19.789 26.0652 20.2111 25.8048 20.4714L24.2762 22L28.8048 26.5286C29.9857 27.7094 29.9857 29.6239 28.8048 30.8047C27.624 31.9856 25.7095 31.9856 24.5287 30.8047L23.5287 29.8047C23.2683 29.5444 23.2683 29.1223 23.5287 28.8619C23.789 28.6016 24.2112 28.6016 24.4715 28.8619L25.4715 29.8619C26.1316 30.5221 27.2019 30.5221 27.862 29.8619C28.5222 29.2018 28.5222 28.1315 27.862 27.4714L22.3906 22L24.862 19.5286C25.1224 19.2683 25.5445 19.2683 25.8048 19.5286Z" fill="#387EBF"/>
<path fill-rule="evenodd" clip-rule="evenodd" d="M37.5291 19.5286C37.2688 19.789 37.2688 20.2111 37.5291 20.4714L39.0577 22L34.5291 26.5286C33.3483 27.7094 33.3483 29.6239 34.5291 30.8047C35.71 31.9856 37.6245 31.9856 38.8053 30.8047L39.8053 29.8047C40.0656 29.5444 40.0656 29.1223 39.8053 28.8619C39.5449 28.6016 39.1228 28.6016 38.8625 28.8619L37.8625 29.8619C37.2024 30.5221 36.1321 30.5221 35.472 29.8619C34.8118 29.2018 34.8118 28.1315 35.472 27.4714L40.9434 22L38.472 19.5286C38.2116 19.2683 37.7895 19.2683 37.5291 19.5286Z" fill="#387EBF"/>
</svg>
