<svg width="64" height="64" viewBox="0 0 64 64" fill="none" xmlns="http://www.w3.org/2000/svg">
<path fill-rule="evenodd" clip-rule="evenodd" d="M22.4026 14.441C23.2871 13.321 24.6362 12.6667 26.0648 12.6667H38.175C39.6036 12.6667 40.9527 13.321 41.8372 14.441L48.1792 20.8968L48.2031 20.9275C49.392 22.46 49.0265 24.6801 47.4089 25.7505L39.4388 31.0249V59.6667C39.4388 61.6917 37.7972 63.3334 35.7721 63.3334C33.7471 63.3334 32.1054 61.6917 32.1054 59.6667V37.6749C32.1054 37.0966 31.4195 36.7925 30.991 37.1809L25.5473 42.1155C25.2677 42.3689 25.254 42.8037 25.5171 43.0742L30.5955 48.2959C31.9195 49.6573 31.9015 51.8306 30.5552 53.17C29.2005 54.5176 27.0107 54.5148 25.6596 53.1636L17.4558 44.9598C16.1856 43.6897 16.1503 41.6415 17.3759 40.3284L24.2342 32.9802C24.5799 32.6099 24.7721 32.1222 24.7721 31.6156V31.0295L16.8236 25.7512C15.2096 24.6794 14.8463 22.462 16.0339 20.9312L16.0578 20.9004L22.4026 14.441ZM26.105 31.668C26.092 32.4935 25.7731 33.2855 25.209 33.89L18.3507 41.2381C17.6153 42.026 17.6365 43.2549 18.3986 44.017L26.6024 52.2208C27.4338 53.0522 28.7813 53.054 29.6149 52.2247C30.4433 51.4006 30.4543 50.0633 29.6396 49.2255L24.5613 44.0038C23.772 43.1923 23.8131 41.8879 24.6518 41.1276L30.0956 36.1931C31.381 35.0279 33.4388 35.94 33.4388 37.6749V59.6667C33.4388 60.9553 34.4834 62 35.7721 62C37.0608 62 38.1054 60.9553 38.1054 59.6667V31.6777C36.9147 31.9514 35.6262 31.483 34.9083 30.4062C33.9572 28.9794 34.38 27.0483 35.8404 26.1496L38.1054 24.7557V21.6044C38.1054 19.7476 40.4156 18.893 41.624 20.3028L42.2624 21.0477C43.0624 21.981 42.839 23.4083 41.7921 24.0526L36.5392 27.2851C35.7222 27.7879 35.4856 28.8684 36.0177 29.6666C36.5365 30.4447 37.5878 30.655 38.366 30.1362L38.4023 30.112L38.4042 30.1107L46.6731 24.6386C47.6335 24.003 47.8583 22.692 47.1715 21.7736L40.8325 15.3209L40.8087 15.2901C40.1773 14.4763 39.2051 14 38.175 14H26.0648C25.0348 14 24.0625 14.4763 23.4311 15.2901L23.4073 15.3209L17.0655 21.7772C16.3794 22.6946 16.6029 24.0041 17.5612 24.6405L25.807 30.1161C26.6061 30.6468 27.6841 30.4302 28.2162 29.632C28.749 28.8328 28.533 27.753 27.7338 27.2202L22.8814 23.9852C21.9413 23.3585 21.7066 22.078 22.3633 21.1587L22.478 20.9982C23.6089 19.4149 26.1054 20.215 26.1054 22.1606V24.5321L28.4734 26.1108C29.8854 27.0521 30.2669 28.9597 29.3256 30.3716C28.602 31.4571 27.3069 31.9337 26.105 31.668ZM24.7721 23.6432V22.1606C24.7721 21.5121 23.9399 21.2454 23.563 21.7731L23.4483 21.9336C23.2294 22.2401 23.3076 22.6669 23.621 22.8758L24.7721 23.6432ZM39.4388 23.9352L41.0933 22.917C41.4423 22.7023 41.5167 22.2265 41.2501 21.9154L40.6116 21.1705C40.2088 20.7006 39.4388 20.9854 39.4388 21.6044V23.9352Z" fill="#BF3882"/>
<path fill-rule="evenodd" clip-rule="evenodd" d="M25.3327 19.3333C25.7009 19.3333 25.9993 19.6318 25.9993 20C25.9993 20.9139 26.2543 22.0619 26.8854 22.7343C27.1823 23.0505 27.5688 23.2708 28.0969 23.322C28.6403 23.3746 29.3836 23.2522 30.3798 22.7786C30.7123 22.6205 31.11 22.7619 31.2681 23.0945C31.4262 23.427 31.2848 23.8247 30.9523 23.9828C29.8151 24.5234 28.8251 24.732 27.9684 24.6491C27.0965 24.5647 26.4164 24.1828 25.9133 23.6468C24.9444 22.6147 24.666 21.0582 24.666 20C24.666 19.6318 24.9645 19.3333 25.3327 19.3333Z" fill="#BF3882"/>
<path fill-rule="evenodd" clip-rule="evenodd" d="M38.6673 19.3333C38.2991 19.3333 38.0007 19.6318 38.0007 20C38.0007 20.9139 37.7457 22.0619 37.1146 22.7343C36.8177 23.0505 36.4312 23.2708 35.9031 23.322C35.3597 23.3746 34.6164 23.2522 33.6202 22.7786C33.2877 22.6205 32.89 22.7619 32.7319 23.0945C32.5738 23.427 32.7152 23.8247 33.0477 23.9828C34.1849 24.5234 35.1749 24.732 36.0316 24.6491C36.9035 24.5647 37.5836 24.1828 38.0867 23.6468C39.0556 22.6147 39.334 21.0582 39.334 20C39.334 19.6318 39.0355 19.3333 38.6673 19.3333Z" fill="#BF3882"/>
<path fill-rule="evenodd" clip-rule="evenodd" d="M31.9993 10.6666C34.2085 10.6666 35.9993 8.87579 35.9993 6.66665C35.9993 4.45751 34.2085 2.66665 31.9993 2.66665C29.7902 2.66665 27.9993 4.45751 27.9993 6.66665C27.9993 8.87579 29.7902 10.6666 31.9993 10.6666ZM31.9993 12C34.9449 12 37.3327 9.61217 37.3327 6.66665C37.3327 3.72113 34.9449 1.33331 31.9993 1.33331C29.0538 1.33331 26.666 3.72113 26.666 6.66665C26.666 9.61217 29.0538 12 31.9993 12Z" fill="#BF3882"/>
</svg>
