<svg width="24" height="24" viewBox="0 0 24 24" fill="none" xmlns="http://www.w3.org/2000/svg">
<g clip-path="url(#clip0)">
<path d="M22.336 0H16.2257C15.3079 0 14.5638 0.744042 14.5638 1.66177C14.5638 2.5795 15.3079 3.32354 16.2257 3.32354H18.3241L13.6667 7.98093C12.2292 7.00449 10.5342 6.47912 8.75824 6.47912C6.41823 6.47912 4.2183 7.39038 2.56367 9.04497C-0.851952 12.4607 -0.851952 18.0185 2.56367 21.4341C4.2183 23.0887 6.41823 24 8.75824 24C11.0982 24 13.2982 23.0888 14.9528 21.4341C17.9667 18.4202 18.3206 13.7387 16.0156 10.3323L20.6743 5.6737V7.77214C20.6743 8.68991 21.4184 9.43391 22.3361 9.43391C23.2539 9.43391 23.9979 8.68987 23.9979 7.77214V1.66177C23.9979 0.744042 23.2538 0 22.336 0ZM12.6027 19.084C11.5758 20.1109 10.2105 20.6764 8.75828 20.6764C7.30608 20.6764 5.94078 20.1109 4.91387 19.084C2.7941 16.9641 2.7941 13.515 4.91387 11.3951C5.94078 10.3682 7.30608 9.80274 8.75828 9.80274C10.2105 9.80274 11.5759 10.3683 12.6027 11.3951C14.7224 13.515 14.7224 16.9643 12.6027 19.084Z" fill="white"/>
</g>
<defs>
<clipPath id="clip0">
<rect width="24" height="24" fill="white"/>
</clipPath>
</defs>
</svg>
