<svg width="64" height="64" viewBox="0 0 64 64" fill="none" xmlns="http://www.w3.org/2000/svg">
<path fill-rule="evenodd" clip-rule="evenodd" d="M59.5289 9.13807C58.6847 8.29385 57.316 8.29385 56.4718 9.13807L49.532 16.0779C48.5105 17.0994 47.4188 17.5676 46.2564 17.4202C45.1412 17.2787 44.1085 16.5852 43.1381 15.6375C42.9784 15.4815 42.7913 15.3714 42.5363 15.3204C41.0472 15.0226 40.0873 15.3504 39.3905 15.7251C39.1414 15.8592 38.95 15.9834 38.7557 16.1095C38.645 16.1814 38.5333 16.2539 38.4094 16.3292C38.1456 16.4895 37.7123 16.7399 37.2228 16.6574C33.512 16.0317 31.0699 16.7309 26.9305 18.2742C25.2432 18.9033 23.7113 19.8985 22.4345 21.1753L5.47176 38.1381C4.44344 39.1664 4.44344 40.8336 5.47176 41.8619C6.5005 42.8907 8.1661 42.8914 9.19398 41.8636L24.1952 26.8623C24.1953 26.8622 24.1956 26.8619 24.667 27.3333L24.1952 26.8623L24.2759 26.7816L24.3783 26.7324C27.3995 25.2809 29.8555 24.2025 32.0372 24.0054C34.3089 23.8001 36.2345 24.5485 38.1712 26.5418C38.4253 26.8033 38.632 27.0957 38.8009 27.3939L48.5697 44.6329C49.1292 45.6202 50.3845 45.965 51.3699 45.402C52.3352 44.8503 52.6848 43.6296 52.1576 42.6506L48.1876 35.2778C45.6213 30.5117 46.5727 24.6165 50.5081 20.8998L56.2023 15.5219L59.5289 12.1953C60.3732 11.351 60.3732 9.98229 59.5289 9.13807ZM25.058 27.8851C28.0688 26.4412 30.2779 25.5031 32.1572 25.3333C33.9678 25.1697 35.5131 25.7194 37.215 27.4709C37.3753 27.6359 37.5167 27.832 37.6409 28.0512L47.4097 45.2902C48.3331 46.9199 50.405 47.489 52.0314 46.5596C53.6248 45.6491 54.2016 43.6343 53.3316 42.0185L49.3616 34.6456C47.0811 30.4104 47.9265 25.1719 51.4236 21.8691L57.1317 16.4781L60.4718 13.1381C61.8367 11.7731 61.8367 9.56018 60.4718 8.19526C59.1068 6.83034 56.8939 6.83034 55.529 8.19526L48.5891 15.1351C47.766 15.9582 47.0625 16.1784 46.4242 16.0975C45.7389 16.0105 44.9657 15.5587 44.0697 14.6837C43.7404 14.362 43.3254 14.1185 42.7978 14.0129C40.9535 13.6441 39.6792 14.0559 38.7589 14.5509C38.467 14.7079 38.1808 14.8927 37.9603 15.0351C37.8655 15.0963 37.7828 15.1497 37.717 15.1897C37.5156 15.3121 37.4358 15.3344 37.4232 15.339C33.3637 14.659 30.6468 15.4657 26.4647 17.0249C24.5937 17.7224 22.9002 18.824 21.4917 20.2325L4.52895 37.1953C2.97993 38.7443 2.97993 41.2557 4.52895 42.8047C6.07753 44.3533 8.58735 44.3558 10.1368 42.8064L25.058 27.8851Z" fill="#BF3882"/>
<path fill-rule="evenodd" clip-rule="evenodd" d="M51.9993 32C54.2085 32 55.9993 30.2091 55.9993 28C55.9993 25.7909 54.2085 24 51.9993 24C49.7902 24 47.9993 25.7909 47.9993 28C47.9993 30.2091 49.7902 32 51.9993 32ZM51.9993 33.3333C54.9449 33.3333 57.3327 30.9455 57.3327 28C57.3327 25.0545 54.9449 22.6667 51.9993 22.6667C49.0538 22.6667 46.666 25.0545 46.666 28C46.666 30.9455 49.0538 33.3333 51.9993 33.3333Z" fill="#BF3882"/>
<path fill-rule="evenodd" clip-rule="evenodd" d="M22.666 48C24.1388 48 25.3327 46.8061 25.3327 45.3333C25.3327 43.8606 24.1388 42.6667 22.666 42.6667C21.1933 42.6667 19.9993 43.8606 19.9993 45.3333C19.9993 46.8061 21.1933 48 22.666 48ZM22.666 49.3333C24.8752 49.3333 26.666 47.5425 26.666 45.3333C26.666 43.1242 24.8752 41.3333 22.666 41.3333C20.4569 41.3333 18.666 43.1242 18.666 45.3333C18.666 47.5425 20.4569 49.3333 22.666 49.3333Z" fill="#BF3882"/>
<path fill-rule="evenodd" clip-rule="evenodd" d="M38.171 52.3809C39.4637 48.8262 36.5928 45.065 32.7571 45.4596L27.5986 45.9902C25.0159 46.2558 22.8671 48.0918 22.2016 50.6014L21.2683 54.1216C20.8557 55.6774 21.8356 57.2601 23.4121 57.5844C24.8555 57.8813 26.2822 57.0095 26.6765 55.5897L27.6737 52H31.5003V52.75C31.5003 55.6495 33.8508 58 36.7503 58H39.1908C40.7424 58 42.0003 56.7421 42.0003 55.1905C42.0003 53.6388 40.7424 52.3809 39.1908 52.3809H38.171ZM36.828 52.1515C37.9964 49.4472 35.8239 46.4845 32.8935 46.7859L27.735 47.3165C25.7038 47.5254 24.0138 48.9694 23.4904 50.9431L22.5571 54.4634C22.3408 55.2788 22.8544 56.1084 23.6808 56.2784C24.4373 56.434 25.1851 55.9771 25.3919 55.2329L26.3992 51.6063C26.5535 51.051 27.0591 50.6666 27.6355 50.6666H31.6215C32.291 50.6666 32.8336 51.2093 32.8336 51.8788V52.75C32.8336 54.9131 34.5872 56.6666 36.7503 56.6666H39.1908C40.0061 56.6666 40.667 56.0057 40.667 55.1905C40.667 54.3752 40.0061 53.7143 39.1908 53.7143H37.7172C36.9776 53.7143 36.4799 52.957 36.7732 52.2781L36.828 52.1515Z" fill="#BF3882"/>
<path fill-rule="evenodd" clip-rule="evenodd" d="M31.334 51.3333V46.6667H32.6673V51.2551L37.927 50.6707L38.0743 51.9959L32.7369 52.589C31.9885 52.6721 31.334 52.0863 31.334 51.3333Z" fill="#BF3882"/>
<path d="M5.33398 36.6667V36.6667C4.24191 35.2106 4.57813 33.1387 6.07463 32.1026L20.6673 22" stroke="#BF3882"/>
<path fill-rule="evenodd" clip-rule="evenodd" d="M37.3327 21.3333C37.7009 21.3333 37.9993 21.6318 37.9993 22C37.9993 22.4339 38.195 23.0913 38.8087 23.5689C39.414 24.0398 40.5367 24.42 42.5538 24.0755C42.9167 24.0135 43.2612 24.2575 43.3232 24.6204C43.3851 24.9834 43.1412 25.3278 42.7782 25.3898C40.5286 25.774 38.9847 25.3952 37.99 24.6212C37.0037 23.8539 36.666 22.7807 36.666 22C36.666 21.6318 36.9645 21.3333 37.3327 21.3333Z" fill="#BF3882"/>
</svg>
