<svg width="64" height="64" viewBox="0 0 64 64" fill="none" xmlns="http://www.w3.org/2000/svg">
<path fill-rule="evenodd" clip-rule="evenodd" d="M24.2719 11.8016C25.156 10.6649 26.5154 10 27.9555 10H34.8696C36.2026 10 37.4719 10.57 38.3575 11.5663L46.0269 20.1944C47.2656 21.5879 47.1205 23.7265 45.7049 24.9398L38.7734 30.8811L42.4513 41.9147C42.5908 42.3335 42.6703 42.7699 42.6873 43.2111L43.2122 56.8591C43.2922 58.9379 41.6286 60.6667 39.5483 60.6667C37.5802 60.6667 35.9632 59.113 35.8845 57.1466L35.3626 44.0974C35.3463 43.6912 35.2559 43.2913 35.0957 42.9176L32.6659 37.248V57C32.6659 59.025 31.0242 60.6667 28.9992 60.6667C26.9741 60.6667 25.3325 59.025 25.3325 57V31.624L18.0027 24.8178C16.7363 23.6418 16.5787 21.6929 17.6397 20.3287L24.2719 11.8016ZM27.9555 11.3333C26.9269 11.3333 25.9559 11.8082 25.3243 12.6202L18.6922 21.1473C18.0556 21.9658 18.1501 23.1351 18.91 23.8407L26.6659 31.0426V57C26.6659 58.2887 27.7105 59.3333 28.9992 59.3333C30.2879 59.3333 31.3325 58.2887 31.3325 57V34L32.612 33.7374L36.3212 42.3924C36.5455 42.9156 36.6721 43.4754 36.6948 44.0441L37.2168 57.0933C37.2668 58.3446 38.2959 59.3333 39.5483 59.3333C40.8721 59.3333 41.9307 58.2332 41.8799 56.9103L41.3549 43.2623C41.3428 42.9472 41.2861 42.6355 41.1863 42.3363L37.225 30.4522L44.8372 23.9275C45.6865 23.1995 45.7736 21.9164 45.0304 21.0802L37.361 12.4521C36.7284 11.7405 35.8217 11.3333 34.8696 11.3333H27.9555Z" fill="#387EBF"/>
<path fill-rule="evenodd" clip-rule="evenodd" d="M33.334 3.33333C30.7567 3.33333 28.6673 5.42267 28.6673 8C28.6673 8.85111 28.8946 9.64712 29.2912 10.3328C29.4756 10.6516 29.3667 11.0594 29.048 11.2437C28.7293 11.4281 28.3214 11.3192 28.1371 11.0005C27.6262 10.1173 27.334 9.09175 27.334 8C27.334 4.68629 30.0203 2 33.334 2C36.6477 2 39.334 4.68629 39.334 8C39.334 9.49621 38.7855 10.866 37.8794 11.9166C37.639 12.1955 37.218 12.2266 36.9392 11.9861C36.6603 11.7457 36.6292 11.3247 36.8697 11.0459C37.5749 10.2281 38.0006 9.16461 38.0006 8C38.0006 5.42267 35.9113 3.33333 33.334 3.33333Z" fill="#387EBF"/>
<path fill-rule="evenodd" clip-rule="evenodd" d="M25.8048 19.5286C26.0652 19.7889 26.0652 20.211 25.8048 20.4714L24.2762 22L28.8048 26.5286C29.9857 27.7094 29.9857 29.6239 28.8048 30.8047C27.624 31.9855 25.7095 31.9855 24.5287 30.8047L23.5287 29.8047C23.2683 29.5444 23.2683 29.1223 23.5287 28.8619C23.789 28.6016 24.2112 28.6016 24.4715 28.8619L25.4715 29.8619C26.1316 30.522 27.2019 30.522 27.862 29.8619C28.5222 29.2018 28.5222 28.1315 27.862 27.4714L22.3906 22L24.862 19.5286C25.1224 19.2682 25.5445 19.2682 25.8048 19.5286Z" fill="#387EBF"/>
<path fill-rule="evenodd" clip-rule="evenodd" d="M37.5291 19.5286C37.2688 19.7889 37.2688 20.211 37.5291 20.4714L39.0577 22L34.5291 26.5286C33.3483 27.7094 33.3483 29.6239 34.5291 30.8047C35.71 31.9855 37.6245 31.9855 38.8053 30.8047L39.8053 29.8047C40.0656 29.5444 40.0656 29.1223 39.8053 28.8619C39.5449 28.6016 39.1228 28.6016 38.8625 28.8619L37.8625 29.8619C37.2024 30.522 36.1321 30.522 35.472 29.8619C34.8118 29.2018 34.8118 28.1315 35.472 27.4714L40.9434 22L38.472 19.5286C38.2116 19.2682 37.7895 19.2682 37.5291 19.5286Z" fill="#387EBF"/>
<path fill-rule="evenodd" clip-rule="evenodd" d="M46.1932 28.167C46.3773 28.4859 46.2681 28.8936 45.9492 29.0777C43.1115 30.716 42.1392 34.3446 43.7776 37.1823C43.9617 37.5012 43.8524 37.9089 43.5336 38.093C43.2147 38.2771 42.807 38.1678 42.6229 37.849C40.6163 34.3735 41.8071 29.9295 45.2825 27.923C45.6014 27.7389 46.0091 27.8481 46.1932 28.167Z" fill="#387EBF"/>
<path fill-rule="evenodd" clip-rule="evenodd" d="M47.7741 29.9625C47.9637 30.2781 47.8616 30.6876 47.546 30.8773C45.6602 32.0104 44.9937 34.4979 46.0603 36.4221C46.2388 36.7441 46.1224 37.1499 45.8004 37.3284C45.4784 37.5069 45.0726 37.3906 44.8941 37.0685C43.4793 34.5161 44.3578 31.2374 46.8593 29.7344C47.1749 29.5447 47.5845 29.6469 47.7741 29.9625Z" fill="#387EBF"/>
<path fill-rule="evenodd" clip-rule="evenodd" d="M50.0711 32.0906C50.1779 32.443 49.9788 32.8152 49.6264 32.922C48.7722 33.1807 48.3818 33.6318 48.2715 34.0432C48.1613 34.4547 48.2738 35.0405 48.8842 35.6917C49.136 35.9604 49.1224 36.3822 48.8537 36.634C48.5851 36.8858 48.1632 36.8722 47.9114 36.6035C47.0905 35.7277 46.7192 34.6851 46.9836 33.6981C47.2481 32.7112 48.091 31.9939 49.2398 31.6459C49.5922 31.5391 49.9644 31.7383 50.0711 32.0906Z" fill="#387EBF"/>
<path fill-rule="evenodd" clip-rule="evenodd" d="M18.5978 29.5003C18.4137 29.8192 18.5229 30.2269 18.8418 30.411C21.6795 32.0493 22.6518 35.6779 21.0134 38.5156C20.8293 38.8345 20.9386 39.2422 21.2574 39.4263C21.5763 39.6104 21.984 39.5011 22.1681 39.1823C24.1747 35.7068 22.9839 31.2628 19.5085 29.2563C19.1896 29.0722 18.7819 29.1814 18.5978 29.5003Z" fill="#387EBF"/>
<path fill-rule="evenodd" clip-rule="evenodd" d="M17.0169 31.2958C16.8273 31.6114 16.9294 32.0209 17.245 32.2106C19.1308 33.3437 19.7973 35.8312 18.7307 37.7554C18.5522 38.0775 18.6686 38.4832 18.9906 38.6617C19.3126 38.8402 19.7184 38.7239 19.8969 38.4018C21.3117 35.8494 20.4332 32.5707 17.9317 31.0677C17.6161 30.8781 17.2065 30.9802 17.0169 31.2958Z" fill="#387EBF"/>
<path fill-rule="evenodd" clip-rule="evenodd" d="M14.7199 33.424C14.6131 33.7763 14.8122 34.1485 15.1646 34.2553C16.0188 34.5141 16.4092 34.9651 16.5195 35.3765C16.6297 35.788 16.5172 36.3738 15.9068 37.025C15.655 37.2937 15.6686 37.7156 15.9373 37.9674C16.2059 38.2191 16.6278 38.2055 16.8796 37.9369C17.7005 37.061 18.0718 36.0184 17.8074 35.0315C17.543 34.0445 16.7001 33.3272 15.5512 32.9792C15.1988 32.8725 14.8266 33.0716 14.7199 33.424Z" fill="#387EBF"/>
</svg>
