<svg width="30" height="30" viewBox="0 0 30 30" fill="none" xmlns="http://www.w3.org/2000/svg">
<g clip-path="url(#clip0)">
<path d="M22.8081 19.8452C21.828 18.8776 20.6045 18.8776 19.6306 19.8452C18.8877 20.5819 18.1448 21.3185 17.4144 22.0677C17.2147 22.2737 17.0461 22.3174 16.8027 22.18C16.322 21.9178 15.8101 21.7056 15.3481 21.4184C13.1944 20.0637 11.3902 18.322 9.79208 16.3618C8.99926 15.3879 8.29383 14.3454 7.80065 13.1718C7.70077 12.9346 7.7195 12.7785 7.91302 12.585C8.65591 11.8671 9.38006 11.1304 10.1105 10.3938C11.128 9.36997 11.128 8.17137 10.1042 7.14132C9.52365 6.5545 8.94307 5.98017 8.3625 5.39336C7.7632 4.79406 7.17014 4.18851 6.5646 3.59546C5.58449 2.64032 4.36092 2.64032 3.38705 3.6017C2.63793 4.33834 1.92002 5.09371 1.1584 5.81786C0.452977 6.48583 0.0971419 7.30363 0.0222293 8.25877C-0.0963823 9.8132 0.284423 11.2802 0.821297 12.7098C1.92002 15.6689 3.59306 18.2971 5.62195 20.7067C8.3625 23.9654 11.6337 26.5437 15.4605 28.404C17.1835 29.2405 18.9689 29.8835 20.9104 29.9897C22.2463 30.0646 23.4074 29.7275 24.3376 28.6849C24.9744 27.9733 25.6923 27.324 26.3665 26.6436C27.3653 25.6322 27.3716 24.4087 26.379 23.4098C25.1929 22.2175 24.0005 21.0314 22.8081 19.8452Z" fill="#D6D6D6"/>
<path d="M21.6157 14.8703L23.9193 14.477C23.5572 12.3607 22.5584 10.4442 21.0414 8.921C19.437 7.31662 17.4081 6.3053 15.1733 5.99316L14.8486 8.30921C16.5779 8.55268 18.151 9.33302 19.3933 10.5753C20.567 11.7489 21.3348 13.2347 21.6157 14.8703Z" fill="#D6D6D6"/>
<path d="M25.2176 4.85683C22.5582 2.19744 19.1933 0.518146 15.4789 0L15.1543 2.31605C18.3631 2.76552 21.2722 4.22008 23.5695 6.51115C25.7482 8.68986 27.1778 11.4429 27.6959 14.4706L29.9995 14.0773C29.3939 10.5689 27.7396 7.38513 25.2176 4.85683Z" fill="#D6D6D6"/>
</g>
<defs>
<clipPath id="clip0">
<rect width="30" height="30" fill="white"/>
</clipPath>
</defs>
</svg>
