<svg width="48" height="48" viewBox="0 0 48 48" fill="none" xmlns="http://www.w3.org/2000/svg">
<path fill-rule="evenodd" clip-rule="evenodd" d="M38.1562 0H9.84375C4.41591 0 0 4.41591 0 9.84375V38.1562C0 43.5841 4.41591 48 9.84375 48H38.1562C43.5841 48 48 43.5841 48 38.1562V9.84375C48 4.41591 43.5841 0 38.1562 0Z" fill="url(#paint0_linear)"/>
<path d="M24.9286 22.5357L28.8286 18.3571L13.6929 10.1857C13.6 10.0929 13.4143 10.0929 13.1357 10L24.9286 22.5357Z" fill="#00F076"/>
<path d="M30.5 28.5714L35.9786 25.6C36.6286 25.2285 37 24.6714 37 23.9286C37 23.1857 36.6286 22.5357 35.9786 22.2571L30.5 19.2857L26.1357 23.9286L30.5 28.5714Z" fill="#FFC900"/>
<path d="M11.3714 10.8357C11.0929 11.1143 11 11.4857 11 11.8571V35.9999C11 36.3713 11.0929 36.7428 11.3714 37.1142L23.6285 23.9285L11.3714 10.8357Z" fill="#00D6FF"/>
<path d="M24.9286 25.3214L13.1357 37.8571C13.3215 37.8571 13.5072 37.7642 13.6929 37.6714L28.8286 29.5L24.9286 25.3214Z" fill="#FF3A44"/>
<defs>
<linearGradient id="paint0_linear" x1="0" y1="0" x2="45.5" y2="48" gradientUnits="userSpaceOnUse">
<stop stop-color="#F7F5F5"/>
<stop offset="1" stop-color="#D2D1D1"/>
</linearGradient>
</defs>
</svg>
