<svg width="64" height="64" viewBox="0 0 64 64" fill="none" xmlns="http://www.w3.org/2000/svg">
<g clip-path="url(#clip0)">
<path fill-rule="evenodd" clip-rule="evenodd" d="M53.6787 -1.2973C54.027 -1.41668 54.4061 -1.2311 54.5255 -0.882801C59.7354 14.3178 63.2437 28.773 59.2249 45.1163L54.5422 64.1592C54.4543 64.5168 54.0932 64.7353 53.7356 64.6474C53.3781 64.5595 53.1595 64.1984 53.2475 63.8408L57.9301 44.798C61.8541 28.8403 58.4538 14.6909 53.2642 -0.450495C53.1448 -0.798795 53.3304 -1.17792 53.6787 -1.2973ZM10.3162 -1.29905C10.6655 -1.18253 10.8542 -0.80493 10.7376 -0.455665C5.65454 14.7805 2.13004 28.7757 6.06995 44.798L10.7526 63.8408C10.8405 64.1984 10.622 64.5595 10.2644 64.6474C9.9069 64.7353 9.54578 64.5168 9.45786 64.1592L4.77519 45.1163C0.739524 28.7046 4.37618 14.3991 9.47284 -0.877631C9.58936 -1.2269 9.96696 -1.41557 10.3162 -1.29905Z" fill="#BF3882"/>
<path fill-rule="evenodd" clip-rule="evenodd" d="M20.7365 33.0352C20.9012 32.7059 21.3017 32.5724 21.631 32.737L31.9896 37.9164L41.6858 32.7451C42.0106 32.5718 42.4145 32.6947 42.5877 33.0196C42.761 33.3445 42.6381 33.7483 42.3132 33.9216L32.6662 39.0667L32.6662 64C32.6662 64.3682 32.3677 64.6666 31.9995 64.6666C31.6313 64.6666 31.3328 64.3682 31.3328 64L31.3328 39.0787L21.0347 33.9296C20.7054 33.7649 20.5719 33.3645 20.7365 33.0352Z" fill="#BF3882"/>
<path fill-rule="evenodd" clip-rule="evenodd" d="M32.6663 -1.33331C33.4027 -1.33331 33.9996 -0.736359 33.9996 2.03848e-05V6.50931L40.126 9.5725C42.0237 10.5214 43.4668 12.1852 44.1378 14.1981L44.2281 14.4692L46.5069 18.7012C46.856 19.3496 46.6134 20.1582 45.9651 20.5073C45.3167 20.8564 44.5081 20.6138 44.159 19.9655L41.7711 15.5308L41.6079 15.0414C41.1606 13.6995 40.1986 12.5902 38.9334 11.9576L32.6663 8.82407L26.3991 11.9576C25.134 12.5902 24.1719 13.6995 23.7246 15.0414L23.5615 15.5308L21.1736 19.9655C20.8245 20.6138 20.0158 20.8564 19.3675 20.5073C18.7191 20.1582 18.4765 19.3496 18.8256 18.7012L21.1044 14.4692L21.1948 14.1981C21.8657 12.1852 23.3088 10.5214 25.2065 9.5725L31.3329 6.50931V2.03848e-05C31.3329 -0.736359 31.9299 -1.33331 32.6663 -1.33331Z" fill="#BF3882"/>
<path fill-rule="evenodd" clip-rule="evenodd" d="M26.0243 0.178453L27.309 -0.178406L28.9437 5.70652L32.6667 10.8614L36.3896 5.70652L38.0243 -0.178406L39.309 0.178453L37.6104 6.29353L33.3333 12.2156V15.5487L39.4155 17.9815L43.9526 17.3334H47.3333V18.6667H44.0474L39.2512 19.3519L32.6667 16.718L26.0821 19.3519L21.286 18.6667H18V17.3334H21.3807L25.9179 17.9815L32 15.5487V12.2156L27.723 6.29353L26.0243 0.178453Z" fill="#BF3882"/>
<path fill-rule="evenodd" clip-rule="evenodd" d="M29.0993 22.0437L29.0808 23.1813C29.0767 23.4325 29.0992 23.6905 29.1516 23.9528L29.9879 28.134C30.2433 29.4113 31.3648 30.3308 32.6675 30.3308C33.9701 30.3308 35.0916 29.4113 35.3471 28.134L36.1833 23.9528C36.2362 23.6884 36.2586 23.4284 36.254 23.1753L36.234 22.0603L37.3278 21.8434C37.3552 21.838 37.3828 21.8309 37.4104 21.8222L38.8397 21.3724C39.5132 21.1604 39.8172 20.3793 39.4642 19.7678L40.6189 19.1011C41.3984 20.4513 40.7272 22.1761 39.24 22.6442L37.8107 23.0941C37.7366 23.1174 37.662 23.1364 37.5872 23.1513C37.5934 23.4999 37.5625 23.8557 37.4908 24.2143L36.6545 28.3955C36.2744 30.2961 34.6057 31.6641 32.6675 31.6641C30.7293 31.6641 29.0605 30.2961 28.6804 28.3955L27.8442 24.2143C27.773 23.8585 27.742 23.5055 27.7476 23.1596C27.6579 23.1438 27.5684 23.122 27.4796 23.0941L26.0503 22.6442C24.5631 22.1761 23.8919 20.4513 24.6714 19.1011C25.451 17.7509 27.2803 17.4698 28.4293 18.5237L29.4884 19.4952C30.3388 18.7729 31.4427 18.3308 32.6675 18.3308C33.8811 18.3308 34.9761 18.7649 35.8233 19.4756L36.8611 18.5237C38.01 17.4698 39.8394 17.7509 40.6189 19.1011L39.4642 19.7678C39.1112 19.1563 38.2827 19.029 37.7623 19.5063L35.8626 21.2488L34.9664 20.4971C34.3496 19.9797 33.5552 19.6641 32.6675 19.6641C31.7717 19.6641 30.9708 19.9854 30.3515 20.5114L29.4545 21.2734L27.528 19.5063C27.0077 19.029 26.1792 19.1563 25.8261 19.7678C25.4731 20.3793 25.7771 21.1604 26.4506 21.3724L27.8799 21.8222C27.9131 21.8327 27.9461 21.8407 27.9788 21.8465L29.0993 22.0437Z" fill="#BF3882"/>
</g>
<defs>
<clipPath id="clip0">
<rect width="64" height="64" fill="white"/>
</clipPath>
</defs>
</svg>
