<svg width="64" height="64" viewBox="0 0 64 64" fill="none" xmlns="http://www.w3.org/2000/svg">
<g clip-path="url(#clip0)">
<path fill-rule="evenodd" clip-rule="evenodd" d="M58.3019 12.0204C58.6588 11.93 59.0214 12.146 59.1118 12.503C61.8078 23.1454 61.8744 34.3449 59.2257 45.1163L54.543 64.1592C54.4551 64.5167 54.094 64.7353 53.7365 64.6474C53.3789 64.5595 53.1604 64.1984 53.2483 63.8408L57.931 44.7979C60.5272 34.2398 60.4619 23.2621 57.8193 12.8304C57.7289 12.4735 57.945 12.1108 58.3019 12.0204ZM5.36331 13.3505C5.72201 13.4336 5.94547 13.7917 5.86242 14.1504C3.53905 24.1854 3.58377 34.6842 6.07077 44.7979L10.7534 63.8408C10.8414 64.1984 10.6228 64.5595 10.2652 64.6474C9.90771 64.7353 9.5466 64.5167 9.45868 64.1592L4.776 45.1163C2.23876 34.7982 2.19315 24.0874 4.56345 13.8496C4.6465 13.4909 5.00461 13.2675 5.36331 13.3505Z" fill="#BF3882"/>
<path fill-rule="evenodd" clip-rule="evenodd" d="M9.76661 -0.624212C10.1114 -0.753492 10.4956 -0.578821 10.6249 -0.234075C11.6223 2.42555 13.306 6.70053 15.0221 10.3981C15.8811 12.2491 16.7404 13.9383 17.5193 15.2038C17.9094 15.8376 18.2691 16.3481 18.5883 16.7151C18.9258 17.1031 19.1506 17.2506 19.2557 17.285C19.7037 17.4317 20.2097 17.4686 20.918 17.5028C20.964 17.505 21.0108 17.5072 21.0582 17.5094C21.7203 17.5408 22.5125 17.5783 23.4449 17.738C25.4621 18.0836 28.0773 18.9886 31.7157 21.5289C32.0176 21.7396 32.0914 22.1552 31.8806 22.4571C31.6699 22.759 31.2543 22.8329 30.9524 22.6221C27.4475 20.1751 25.013 19.3594 23.2198 19.0522C22.3703 18.9067 21.6517 18.8725 20.9862 18.8409C20.9418 18.8388 20.8976 18.8367 20.8537 18.8345C20.1695 18.8015 19.4861 18.7633 18.841 18.5522C18.3746 18.3996 17.9506 18.0135 17.5823 17.5902C17.1958 17.1458 16.7928 16.5672 16.3838 15.9027C15.5646 14.5717 14.6798 12.828 13.8126 10.9594C12.0763 7.21809 10.3791 2.90779 9.37647 0.23409C9.24719 -0.110657 9.42186 -0.494932 9.76661 -0.624212ZM-0.397046 5.34768C-0.101562 5.12801 0.316049 5.18947 0.535714 5.48496C2.49531 8.12093 4.50089 11.1801 6.56201 14.3239C7.74882 16.1342 8.95404 17.9725 10.1795 19.7744C13.5568 24.74 17.1128 29.4696 20.9825 32.83C21.2605 33.0714 21.2902 33.4925 21.0488 33.7705C20.8073 34.0485 20.3863 34.0781 20.1083 33.8367C16.0994 30.3555 12.4627 25.5022 9.077 20.5242C7.82105 18.6776 6.60287 16.8191 5.41153 15.0015C3.36901 11.8854 1.4054 8.88968 -0.534329 6.28044C-0.753994 5.98495 -0.692531 5.56734 -0.397046 5.34768ZM42.2926 32.7047C42.6398 32.5821 43.0206 32.7641 43.1433 33.1113C43.4253 33.9097 43.5827 34.7516 43.6113 35.4758C43.6256 35.8377 43.6085 36.187 43.5506 36.496C43.4953 36.7909 43.3906 37.1174 43.1787 37.3707C43.0097 37.5726 42.7531 37.7218 42.5283 37.8323C42.2799 37.9543 41.9723 38.075 41.6216 38.1908C40.9183 38.423 39.9965 38.6504 38.9313 38.8329C36.8016 39.1978 34.0502 39.3917 31.2561 39.0631C30.8905 39.02 30.6289 38.6887 30.6719 38.3231C30.7149 37.9574 31.0462 37.6958 31.4119 37.7389C34.0549 38.0497 36.6756 37.8667 38.7061 37.5187C39.7209 37.3448 40.5762 37.1318 41.2036 36.9246C41.5182 36.8208 41.7644 36.722 41.9402 36.6356C42.0911 36.5615 42.1496 36.5157 42.1598 36.509C42.1716 36.4887 42.2092 36.4148 42.24 36.2504C42.2746 36.0659 42.2906 35.8212 42.279 35.5284C42.2559 34.9433 42.1255 34.2332 41.886 33.5554C41.7634 33.2082 41.9455 32.8274 42.2926 32.7047Z" fill="#BF3882"/>
<path fill-rule="evenodd" clip-rule="evenodd" d="M54.3082 -0.591329C53.9816 -0.761358 53.579 -0.634449 53.409 -0.307871C52.757 0.944491 51.9503 2.62595 51.077 4.44645L51.0356 4.53274C50.1439 6.39159 49.1811 8.39676 48.2298 10.2667C47.2769 12.1397 46.3442 13.8595 45.5139 15.1517C45.0981 15.7988 44.7187 16.3218 44.385 16.6987C44.0315 17.098 43.8002 17.2503 43.6942 17.285C43.2239 17.4389 42.6937 17.4713 41.9369 17.5073L41.8878 17.5096C41.1606 17.5441 40.282 17.5858 39.2282 17.7883C37.0579 18.2054 34.2168 19.2886 30.2181 22.2616C28.6224 23.4481 27.5075 24.4515 26.7648 25.3015C26.0318 26.1404 25.6111 26.8862 25.5043 27.5577C25.3971 28.2318 25.6156 28.7815 26.0221 29.1633C25.1011 29.4963 23.9919 29.7565 22.6997 30.0127C21.8762 30.176 21.2318 30.6946 20.7535 31.313C20.275 31.9314 19.9284 32.691 19.6987 33.4386C19.4684 34.1879 19.3448 34.9597 19.3345 35.6228C19.3294 35.9542 19.3522 36.2743 19.4119 36.5593C19.4692 36.8327 19.5725 37.1331 19.7713 37.3707C19.8916 37.5145 20.0488 37.6239 20.1863 37.7056C20.3334 37.7931 20.506 37.8766 20.6948 37.9561C21.0731 38.1153 21.5564 38.2747 22.1169 38.4239C23.2402 38.7229 24.7184 38.9923 26.3782 39.1315C29.6846 39.4089 33.8013 39.1767 37.2946 37.547C42.8825 34.9402 47.7402 29.2286 52.1311 23.0358C53.9921 20.411 55.7853 17.6756 57.5222 15.0259C57.8419 14.5382 58.1597 14.0534 58.4757 13.5728C60.5133 10.4729 62.4742 7.54585 64.4 5.07666C64.6264 4.78634 64.5746 4.36742 64.2843 4.14098C63.994 3.91454 63.5751 3.96633 63.3486 4.25666C61.3855 6.77365 59.3977 9.74275 57.3615 12.8404C57.0436 13.3239 56.7246 13.8106 56.4041 14.2995C54.6668 16.9496 52.8891 19.6615 51.0434 22.2646C46.6549 28.454 41.9707 33.8943 36.7309 36.3387C33.532 37.831 29.6781 38.0703 26.4897 37.8029C24.9021 37.6697 23.5018 37.4127 22.4598 37.1354C21.9378 36.9965 21.5168 36.8554 21.2121 36.7272C21.0594 36.6629 20.9459 36.606 20.8676 36.5595C20.8235 36.5333 20.7996 36.5157 20.7895 36.5079C20.778 36.4877 20.7457 36.4232 20.7169 36.2858C20.6829 36.1234 20.6636 35.9066 20.6677 35.6435C20.6759 35.1178 20.7762 34.471 20.9732 33.8303C21.1706 33.1878 21.4547 32.5856 21.8081 32.1288C22.1615 31.6719 22.5503 31.4016 22.959 31.3206C24.8492 30.9458 26.552 30.5296 27.8568 29.7963C28.3839 29.7522 28.9982 29.5388 29.601 29.2714C30.3032 28.96 31.0797 28.5336 31.8446 28.0642C33.369 27.1287 34.9093 25.9839 35.7913 25.1515C36.059 24.8988 36.0712 24.4768 35.8185 24.2091C35.5658 23.9413 35.1438 23.9291 34.8761 24.1818C34.0807 24.9325 32.621 26.0234 31.1472 26.9278C30.413 27.3784 29.6909 27.773 29.0604 28.0526C28.4298 28.3323 27.9669 28.4617 27.6939 28.4709C27.3701 28.434 27.1137 28.3379 26.9664 28.2188C26.8556 28.1292 26.7815 28.0164 26.8211 27.7672C26.8701 27.459 27.1014 26.9427 27.7688 26.1789C28.4264 25.4263 29.4602 24.4866 31.0137 23.3316C34.888 20.451 37.5469 19.4692 39.4798 19.0977C40.4396 18.9133 41.2382 18.8753 41.968 18.8407L42.0165 18.8384C42.7294 18.8045 43.4416 18.7706 44.109 18.5522C44.5745 18.3998 45.0053 18.0095 45.3833 17.5826C45.7811 17.1332 46.2025 16.5465 46.6356 15.8724C47.5031 14.5224 48.4602 12.7544 49.4182 10.8713C50.3777 8.98519 51.3471 6.96601 52.2378 5.10945L52.2708 5.04051C53.1509 3.20591 53.9498 1.54062 54.5917 0.30786C54.7617 -0.0187187 54.6348 -0.421299 54.3082 -0.591329Z" fill="#BF3882"/>
<path fill-rule="evenodd" clip-rule="evenodd" d="M32.0007 38C32.3688 38 32.6673 38.2985 32.6673 38.6667L32.6673 64C32.6673 64.3682 32.3688 64.6667 32.0007 64.6667C31.6325 64.6667 31.334 64.3682 31.334 64L31.334 38.6667C31.334 38.2985 31.6325 38 32.0007 38Z" fill="#BF3882"/>
<path d="M34.666 3.99999C34.666 4.73637 33.7706 5.33332 32.666 5.33332C31.5614 5.33332 30.666 4.73637 30.666 3.99999C30.666 3.26361 31.5614 2.66666 32.666 2.66666C33.7706 2.66666 34.666 3.26361 34.666 3.99999Z" fill="#BF3882"/>
</g>
<defs>
<clipPath id="clip0">
<rect width="64" height="64" fill="white"/>
</clipPath>
</defs>
</svg>
