<svg width="64" height="64" viewBox="0 0 64 64" fill="none" xmlns="http://www.w3.org/2000/svg">
<path fill-rule="evenodd" clip-rule="evenodd" d="M22.3871 17.3277C23.4871 14.5165 26.1975 12.6667 29.2162 12.6667H34.9617C37.8813 12.6667 40.5228 14.3985 41.6869 17.076L45.7022 26.3112C46.3562 27.8154 45.8187 29.5718 44.4349 30.4524L39.3776 33.6707L42.2995 58.2153C42.5427 60.2576 41.0751 62.1068 39.031 62.3339C37.027 62.5566 35.2132 61.1352 34.9501 59.1362L32.666 41.777L30.3865 59.101C30.1209 61.1196 28.2893 62.5548 26.2658 62.33C24.2357 62.1044 22.7622 60.2919 22.9558 58.2585L25.297 33.6766L20.1594 30.4072C18.815 29.5516 18.2641 27.8642 18.8448 26.3803L22.3871 17.3277ZM26.5628 34.4488L24.2832 58.385C24.1586 59.6933 25.1067 60.8597 26.413 61.0048C27.7151 61.1495 28.8937 60.226 29.0646 58.927L32.005 36.5797C32.0487 36.248 32.3314 36 32.666 36C33.0006 36 33.2833 36.248 33.327 36.5797L36.2721 58.9623C36.4404 60.2416 37.6012 61.1512 38.8837 61.0087C40.1919 60.8634 41.1311 59.6799 40.9755 58.3729L38.1386 34.5425C36.7698 35.3663 34.9655 34.9844 34.0592 33.6249C33.146 32.2551 33.4939 30.4067 34.8426 29.4626L39.1187 26.4693L36.7539 22.3307C36.5712 22.0111 36.6822 21.6038 37.0019 21.4212C37.3216 21.2385 37.7288 21.3496 37.9115 21.6692L40.5782 26.3359C40.7491 26.6351 40.6639 27.0152 40.3817 27.2128L35.6072 30.555C34.8521 31.0835 34.6573 32.1184 35.1686 32.8853C35.7087 33.6955 36.8185 33.8856 37.5975 33.3014L38.266 32.8C38.2797 32.7898 38.2937 32.78 38.3081 32.7709L43.719 29.3276C44.5493 28.7992 44.8718 27.7453 44.4794 26.8428L40.4641 17.6076C39.5117 15.417 37.3505 14 34.9617 14H29.2162C26.7463 14 24.5288 15.5135 23.6288 17.8136L20.0865 26.8662C19.738 27.7565 20.0686 28.769 20.8752 29.2823L26.3499 32.7662L27.6855 33.5675C28.4945 34.0529 29.5421 33.8174 30.0654 33.0324C30.615 32.2079 30.3797 31.0928 29.5437 30.5609L24.3081 27.2291C24.0325 27.0537 23.9246 26.7044 24.0533 26.404L26.0533 21.7374C26.1983 21.399 26.5902 21.2422 26.9286 21.3872C27.2671 21.5323 27.4238 21.9242 27.2788 22.2626L25.502 26.4084L30.2596 29.436C31.7261 30.3692 32.1391 32.3256 31.1748 33.772C30.2567 35.1492 28.4188 35.5624 26.9995 34.7109L26.5628 34.4488Z" fill="#387EBF"/>
<path fill-rule="evenodd" clip-rule="evenodd" d="M63.4824 37.3481L62.3304 41.6474L55.6105 39.1067L56.3319 42.6321L42.6317 35.4914L43.1124 34.2563L51.4764 36.4974L50.5961 33.8952L63.4824 37.3481ZM61.8494 38.2909L52.6575 35.8279L53.5378 38.4301L48.6335 37.116L54.4641 40.155L53.8193 37.004L61.4239 39.8792L61.8494 38.2909Z" fill="#387EBF"/>
<path fill-rule="evenodd" clip-rule="evenodd" d="M3.18359 37.3481L4.33831 41.6575L10.1983 39.3469L9.6684 42.8385L21.6601 36.1228L21.1618 34.8972L13.9116 36.8399L14.6079 34.2869L3.18359 37.3481ZM4.81659 38.2909L12.7108 36.1757L12.0144 38.7286L16.3553 37.5654L11.3957 40.343L11.8641 37.2568L5.23943 39.869L4.81659 38.2909Z" fill="#387EBF"/>
<path fill-rule="evenodd" clip-rule="evenodd" d="M31.9993 10.6667C34.2085 10.6667 35.9993 8.87582 35.9993 6.66668C35.9993 4.45754 34.2085 2.66668 31.9993 2.66668C29.7902 2.66668 27.9993 4.45754 27.9993 6.66668C27.9993 8.87582 29.7902 10.6667 31.9993 10.6667ZM31.9993 12C34.9449 12 37.3327 9.6122 37.3327 6.66668C37.3327 3.72116 34.9449 1.33334 31.9993 1.33334C29.0538 1.33334 26.666 3.72116 26.666 6.66668C26.666 9.6122 29.0538 12 31.9993 12Z" fill="#387EBF"/>
</svg>
