<svg width="60" height="60" viewBox="0 0 60 60" fill="none" xmlns="http://www.w3.org/2000/svg">
<circle cx="30" cy="30" r="29" stroke="#432D5C" stroke-width="2"/>
<path d="M29.8661 35.71C29.6661 35.71 29.5061 35.65 29.3861 35.53C29.2661 35.41 29.2061 35.25 29.2061 35.05V33.61C29.2061 32.79 29.3461 32.05 29.6261 31.39C29.9061 30.73 30.2461 30.16 30.6461 29.68C31.0461 29.18 31.5761 28.59 32.2361 27.91C33.0561 27.05 33.6461 26.35 34.0061 25.81C34.3861 25.25 34.5761 24.62 34.5761 23.92C34.5761 22.86 34.1261 22.02 33.2261 21.4C32.3261 20.76 31.2861 20.44 30.1061 20.44C28.8461 20.44 27.7961 20.77 26.9561 21.43C26.1161 22.09 25.5761 23.15 25.3361 24.61C25.2561 25.05 25.0161 25.27 24.6161 25.27H24.1361C23.9561 25.27 23.8061 25.22 23.6861 25.12C23.5661 25 23.5061 24.85 23.5061 24.67C23.5261 23.57 23.8261 22.57 24.4061 21.67C24.9861 20.75 25.7661 20.03 26.7461 19.51C27.7461 18.97 28.8661 18.7 30.1061 18.7C31.4461 18.7 32.5861 18.94 33.5261 19.42C34.4861 19.9 35.1961 20.54 35.6561 21.34C36.1361 22.14 36.3761 23 36.3761 23.92C36.3761 24.96 36.1361 25.86 35.6561 26.62C35.1761 27.38 34.4661 28.25 33.5261 29.23C32.6861 30.11 32.0561 30.86 31.6361 31.48C31.2361 32.1 31.0361 32.81 31.0361 33.61V35.05C31.0361 35.25 30.9761 35.41 30.8561 35.53C30.7361 35.65 30.5761 35.71 30.3761 35.71H29.8661ZM29.5061 40C29.3061 40 29.1461 39.94 29.0261 39.82C28.9061 39.7 28.8461 39.54 28.8461 39.34V38.2C28.8461 38 28.9061 37.84 29.0261 37.72C29.1461 37.58 29.3061 37.51 29.5061 37.51H30.6461C30.8461 37.51 31.0061 37.58 31.1261 37.72C31.2661 37.84 31.3361 38 31.3361 38.2V39.34C31.3361 39.54 31.2661 39.7 31.1261 39.82C31.0061 39.94 30.8461 40 30.6461 40H29.5061Z" fill="#BF3882"/>
</svg>
