<svg width="48" height="48" viewBox="0 0 48 48" fill="none" xmlns="http://www.w3.org/2000/svg">
<path d="M43.0683 38.4658H39.7925L35.9176 9.01697V0.328918H34.3286V9.06861L38.19 38.4658H35.1231V40.0548H38.3012V43.2329C38.3012 45.8657 40.4355 48 43.0683 48C45.7011 48 47.8354 45.8657 47.8354 43.2329C47.8354 40.6 45.7011 38.4658 43.0683 38.4658ZM43.0683 46.411C41.3131 46.411 39.8902 44.9881 39.8902 43.2329C39.8902 41.4777 41.3131 40.0548 43.0683 40.0548C44.8235 40.0548 46.2464 41.4777 46.2464 43.2329C46.2464 44.9881 44.8235 46.411 43.0683 46.411Z" fill="#BF3882"/>
<path d="M34.3286 0.328918H32.7395V9.01697L28.8647 38.4658H25.5889C22.9561 38.4658 20.8218 40.6 20.8218 43.2329C20.8218 45.8657 22.9561 48 25.5889 48C28.2217 48 30.356 45.8657 30.356 43.2329V40.0548H33.5341V38.4658H30.4672L34.3214 9.1727L34.3286 0.328918ZM25.5889 46.411C23.8337 46.411 22.4108 44.9881 22.4108 43.2329C22.4108 41.4777 23.8337 40.0548 25.5889 40.0548C27.3441 40.0548 28.767 41.4777 28.767 43.2329C28.767 44.9881 27.3441 46.411 25.5889 46.411Z" fill="#BF3882"/>
<path d="M17.6436 17.8083V0L16.2874 1.35624C14.0963 3.53531 12.8681 6.50045 12.8765 9.59062V14.6303H16.0546V17.8083H14.4655V48H19.2327V17.8083H17.6436ZM14.4655 13.0412V9.59062C14.4605 7.66461 15.0124 5.77813 16.0546 4.15851V13.0412H14.4655ZM17.6436 46.411H16.0546V19.3974H17.6436V46.411Z" fill="#BF3882"/>
<path d="M27.6547 10.3804C27.3378 9.42724 27.1768 8.42923 27.178 7.42476V0.328918L22.4109 3.90425V7.42317C22.4121 8.42764 22.2511 9.42565 21.9342 10.3788C21.1918 12.6231 21.1918 15.0468 21.9342 17.2911C22.2513 18.2447 22.4122 19.2433 22.4109 20.2483V36.8767H27.178V20.2483C27.1768 19.2438 27.3378 18.2458 27.6547 17.2927C28.3971 15.0484 28.3971 12.6247 27.6547 10.3804ZM26.1499 16.7913C25.7782 17.9059 25.5888 19.0733 25.589 20.2483V35.2877H24V20.2483C24.0004 19.0728 23.811 17.9048 23.439 16.7897C22.804 14.8713 22.804 12.7994 23.439 10.8809C23.8109 9.766 24.0003 8.59846 24 7.42317V4.69877L25.589 3.50699V7.42317C25.5886 8.59866 25.778 9.7666 26.1499 10.8817C26.785 12.8004 26.785 14.8727 26.1499 16.7913Z" fill="#BF3882"/>
<path d="M41.8165 0.738892L38.0981 3.21779L41.4796 10.8261V36.8767H46.2467V10.4852L41.8165 0.738892ZM44.6577 35.2877H43.0686V30.5206H44.6577V35.2877ZM44.6577 28.9316H43.0686V27.3425H44.6577V28.9316ZM44.6577 25.7535H43.0686V24.1645H44.6577V25.7535ZM44.6577 22.5754H43.0686V10.4892L40.094 3.7962L41.1427 3.09702L44.6577 10.8301V22.5754Z" fill="#BF3882"/>
<path d="M25.589 11.4521H24V13.0412H25.589V11.4521Z" fill="#BF3882"/>
<path d="M25.589 14.6302H24V16.2193H25.589V14.6302Z" fill="#BF3882"/>
<path d="M7.31511 0.328918H5.72607V14.6302H7.31511V0.328918Z" fill="#BF3882"/>
<path d="M2.5481 30.5206H10.4933C11.8097 30.5206 12.8768 29.4535 12.8768 28.1371C12.8768 26.8207 11.8097 25.7535 10.4933 25.7535H2.5481C2.10933 25.7535 1.75359 25.3978 1.75359 24.959C1.75359 24.5202 2.10933 24.1645 2.5481 24.1645H10.4933C11.8097 24.1645 12.8768 23.0973 12.8768 21.7809C12.8768 20.4645 11.8097 19.3974 10.4933 19.3974H8.10973C7.67096 19.3974 7.31521 19.0416 7.31521 18.6029V16.2193H5.72618V18.6029C5.72618 19.9193 6.79331 20.9864 8.10973 20.9864H10.4933C10.9321 20.9864 11.2878 21.3422 11.2878 21.7809C11.2878 22.2197 10.9321 22.5754 10.4933 22.5754H2.5481C1.23169 22.5754 0.164551 23.6426 0.164551 24.959C0.164551 26.2754 1.23169 27.3426 2.5481 27.3426H10.4933C10.9321 27.3426 11.2878 27.6983 11.2878 28.1371C11.2878 28.5758 10.9321 28.9316 10.4933 28.9316H2.5481C1.23169 28.9316 0.164551 29.9987 0.164551 31.3151C0.164551 32.6316 1.23169 33.6987 2.5481 33.6987H10.4933C10.9321 33.6987 11.2878 34.0544 11.2878 34.4932C11.2878 34.932 10.9321 35.2877 10.4933 35.2877H2.5481C1.23169 35.2877 0.164551 36.3549 0.164551 37.6713C0.164551 38.9877 1.23169 40.0548 2.5481 40.0548H10.4933C10.9321 40.0548 11.2878 40.4106 11.2878 40.8494C11.2878 41.2881 10.9321 41.6439 10.4933 41.6439H2.5481C1.23169 41.6439 0.164551 42.711 0.164551 44.0274C0.164551 45.3438 1.23169 46.411 2.5481 46.411H10.4933C10.9321 46.411 11.2878 46.7667 11.2878 47.2055V48H12.8768V47.2055C12.8768 45.8891 11.8097 44.8219 10.4933 44.8219H2.5481C2.10933 44.8219 1.75359 44.4662 1.75359 44.0274C1.75359 43.5886 2.10933 43.2329 2.5481 43.2329H10.4933C11.8097 43.2329 12.8768 42.1658 12.8768 40.8494C12.8768 39.5329 11.8097 38.4658 10.4933 38.4658H2.5481C2.10933 38.4658 1.75359 38.1101 1.75359 37.6713C1.75359 37.2325 2.10933 36.8768 2.5481 36.8768H10.4933C11.8097 36.8768 12.8768 35.8096 12.8768 34.4932C12.8768 33.1768 11.8097 32.1097 10.4933 32.1097H2.5481C2.10933 32.1097 1.75359 31.7539 1.75359 31.3151C1.75359 30.8764 2.10933 30.5206 2.5481 30.5206Z" fill="#BF3882"/>
</svg>
