<svg width="64" height="64" viewBox="0 0 64 64" fill="none" xmlns="http://www.w3.org/2000/svg">
<g clip-path="url(#clip0)">
<path fill-rule="evenodd" clip-rule="evenodd" d="M19.3325 14.6667C17.1234 14.6667 15.3325 12.8758 15.3325 10.6667C15.3325 8.45754 17.1234 6.66668 19.3325 6.66668C21.5416 6.66668 23.3325 8.45754 23.3325 10.6667C23.3325 12.8758 21.5416 14.6667 19.3325 14.6667ZM19.3325 16C16.387 16 13.9992 13.6122 13.9992 10.6667C13.9992 7.72116 16.387 5.33334 19.3325 5.33334C22.278 5.33334 24.6658 7.72116 24.6658 10.6667C24.6658 13.6122 22.278 16 19.3325 16ZM23.3325 22.3333C23.3325 19.2037 20.7954 16.6667 17.6658 16.6667C14.5362 16.6667 11.9992 19.2037 11.9992 22.3333V42H13.9992V60.3333C13.9992 62.3584 15.6408 64 17.6658 64C19.6909 64 21.3325 62.3584 21.3325 60.3333V42H23.3325V36.9215C24.351 38.1478 26.1342 38.4991 27.5613 37.6751C29.1556 36.7547 29.7019 34.716 28.7814 33.1217L23.3325 23.684V22.3333ZM21.7991 21.0281L21.5766 20.6427C20.6562 19.0484 18.6175 18.5022 17.0232 19.4227C15.4289 20.3431 14.8827 22.3818 15.8031 23.9761L21.9992 34.7079V40.6667H13.3325V22.3333C13.3325 19.9401 15.2726 18 17.6658 18C19.6042 18 21.2454 19.2727 21.7991 21.0281ZM19.9992 42V60.3333C19.9992 61.622 18.9545 62.6667 17.6658 62.6667C16.3772 62.6667 15.3325 61.622 15.3325 60.3333V42H19.9992ZM20.4219 21.3094C19.8697 20.3528 18.6465 20.0251 17.6899 20.5774C16.7333 21.1296 16.4055 22.3528 16.9578 23.3094L24.1626 35.7884C24.7149 36.745 25.938 37.0727 26.8946 36.5204C27.8512 35.9682 28.179 34.745 27.6267 33.7884L20.4219 21.3094Z" fill="#387EBF"/>
<path fill-rule="evenodd" clip-rule="evenodd" d="M47.8965 14.6667C47.8965 17.6122 45.5087 20 42.5632 20C39.6176 20 37.2298 17.6122 37.2298 14.6667C37.2298 11.7212 39.6176 9.33334 42.5632 9.33334C45.5087 9.33334 47.8965 11.7212 47.8965 14.6667ZM46.5632 14.6667C46.5632 16.8758 44.7723 18.6667 42.5632 18.6667C40.354 18.6667 38.5632 16.8758 38.5632 14.6667C38.5632 12.4575 40.354 10.6667 42.5632 10.6667C44.7723 10.6667 46.5632 12.4575 46.5632 14.6667Z" fill="#387EBF"/>
<path fill-rule="evenodd" clip-rule="evenodd" d="M42.0989 20.6667C39.7384 20.6667 37.7372 22.4023 37.4034 24.7391L37.2301 25.9524L30.0584 33.124C28.7567 34.4258 28.7567 36.5363 30.0584 37.8381C31.3602 39.1398 33.4707 39.1398 34.7725 37.8381L35.6587 36.9518L33.7947 50H39.2299V60.3333C39.2299 62.3584 40.8715 64 42.8966 64C44.9216 64 46.5632 62.3584 46.5632 60.3333V50H51.332L47.789 25.1989C47.4175 22.5983 45.1903 20.6667 42.5634 20.6667H42.0989ZM38.4733 26.6776L38.4871 26.5809L40.0444 25.0237C40.8254 24.2427 42.0917 24.2427 42.8728 25.0237C43.6538 25.8048 43.6538 27.0711 42.8728 27.8521L33.8297 36.8953C33.0486 37.6763 31.7823 37.6763 31.0012 36.8953C30.2202 36.1142 30.2202 34.8479 31.0012 34.0668L38.4008 26.6673L38.4733 26.6776ZM42.0989 22C40.6167 22 39.3315 22.952 38.8701 24.3123L39.1015 24.0809C40.4033 22.7791 42.5138 22.7791 43.8156 24.0809C45.1173 25.3826 45.1173 27.4932 43.8156 28.7949L37.188 35.4226L37.2233 35.4276L35.332 48.6667H49.7947L46.4691 25.3874C46.1914 23.4437 44.5268 22 42.5634 22H42.0989ZM45.2299 50V60.3333C45.2299 61.622 44.1852 62.6667 42.8966 62.6667C41.6079 62.6667 40.5632 61.622 40.5632 60.3333V50H45.2299Z" fill="#387EBF"/>
<path fill-rule="evenodd" clip-rule="evenodd" d="M30.6991 1.67112C30.0268 1.16687 29.086 1.23373 28.4917 1.828C27.9607 2.35901 27.85 3.15108 28.2086 3.74557C29.1898 5.37252 30.197 6.46996 32.1377 7.78258C34.0385 6.54252 35.1048 5.51003 36.1145 3.74727C36.4508 3.16019 36.3294 2.3861 35.8005 1.85722C35.1895 1.24619 34.2221 1.17744 33.5308 1.69592L32.1315 2.7454L30.6991 1.67112ZM27.5489 0.885187C28.6124 -0.178269 30.296 -0.297919 31.4991 0.604454L32.1315 1.07873L32.7308 0.629255C33.953 -0.287348 35.6631 -0.165812 36.7433 0.914416C37.6462 1.8173 37.9416 3.24009 37.2715 4.40999C36.0604 6.52429 34.7419 7.71662 32.4879 9.14217L32.1259 9.37108L31.7673 9.13708C29.4415 7.61974 28.2225 6.35041 27.0668 4.4342C26.3629 3.26703 26.6252 1.80889 27.5489 0.885187Z" fill="#387EBF"/>
</g>
<defs>
<clipPath id="clip0">
<rect width="64" height="64" fill="white"/>
</clipPath>
</defs>
</svg>
