<svg width="64" height="64" viewBox="0 0 64 64" fill="none" xmlns="http://www.w3.org/2000/svg">
<g clip-path="url(#clip0)">
<path fill-rule="evenodd" clip-rule="evenodd" d="M43.9976 14.6667C46.2067 14.6667 47.9976 12.8758 47.9976 10.6667C47.9976 8.45754 46.2067 6.66668 43.9976 6.66668C41.7884 6.66668 39.9976 8.45754 39.9976 10.6667C39.9976 12.8758 41.7884 14.6667 43.9976 14.6667ZM43.9976 16C46.9431 16 49.3309 13.6122 49.3309 10.6667C49.3309 7.72116 46.9431 5.33334 43.9976 5.33334C41.0521 5.33334 38.6642 7.72116 38.6642 10.6667C38.6642 13.6122 41.0521 16 43.9976 16ZM39.9976 22.3333C39.9976 19.2037 42.5346 16.6667 45.6643 16.6667C48.7939 16.6667 51.3309 19.2037 51.3309 22.3333V42H49.3309V60.3333C49.3309 62.3584 47.6893 64 45.6643 64C43.6392 64 41.9976 62.3584 41.9976 60.3333V42H39.9976V36.9215C38.9791 38.1478 37.1959 38.4991 35.7688 37.6751C34.1745 36.7547 33.6282 34.716 34.5487 33.1217L39.9976 23.684V22.3333ZM41.5309 21.0281L41.7534 20.6427C42.6739 19.0484 44.7126 18.5022 46.3069 19.4227C47.9012 20.3431 48.4474 22.3818 47.5269 23.9761L41.3309 34.7079V40.6667H49.9976V22.3333C49.9976 19.9401 48.0575 18 45.6643 18C43.7259 18 42.0847 19.2727 41.5309 21.0281ZM43.3309 42V60.3333C43.3309 61.622 44.3756 62.6667 45.6643 62.6667C46.9529 62.6667 47.9976 61.622 47.9976 60.3333V42H43.3309ZM42.9081 21.3094C43.4604 20.3528 44.6836 20.0251 45.6402 20.5774C46.5968 21.1296 46.9245 22.3528 46.3722 23.3094L39.1675 35.7884C38.6152 36.745 37.392 37.0727 36.4355 36.5204C35.4789 35.9682 35.1511 34.745 35.7034 33.7884L42.9081 21.3094Z" fill="#BF3882"/>
<path fill-rule="evenodd" clip-rule="evenodd" d="M15.4355 14.6667C15.4355 17.6122 17.8234 20 20.7689 20C23.7144 20 26.1022 17.6122 26.1022 14.6667C26.1022 11.7212 23.7144 9.33334 20.7689 9.33334C17.8234 9.33334 15.4355 11.7212 15.4355 14.6667ZM16.7689 14.6667C16.7689 16.8758 18.5597 18.6667 20.7689 18.6667C22.978 18.6667 24.7689 16.8758 24.7689 14.6667C24.7689 12.4575 22.978 10.6667 20.7689 10.6667C18.5597 10.6667 16.7689 12.4575 16.7689 14.6667Z" fill="#BF3882"/>
<path fill-rule="evenodd" clip-rule="evenodd" d="M21.2331 20.6667C23.5936 20.6667 25.5948 22.4023 25.9286 24.7391L26.102 25.9524L33.2736 33.124C34.5754 34.4258 34.5754 36.5363 33.2736 37.8381C31.9719 39.1398 29.8613 39.1398 28.5596 37.8381L27.6733 36.9518L29.5373 50H24.1021V60.3333C24.1021 62.3584 22.4605 64 20.4355 64C18.4104 64 16.7688 62.3584 16.7688 60.3333V50H12L15.543 25.1989C15.9145 22.5983 18.1417 20.6667 20.7687 20.6667H21.2331ZM24.8587 26.6776L24.8449 26.5809L23.2877 25.0237C22.5066 24.2427 21.2403 24.2427 20.4592 25.0237C19.6782 25.8048 19.6782 27.0711 20.4592 27.8521L29.5024 36.8953C30.2834 37.6763 31.5497 37.6763 32.3308 36.8953C33.1118 36.1142 33.1118 34.8479 32.3308 34.0668L24.9312 26.6673L24.8587 26.6776ZM21.2331 22C22.7153 22 24.0005 22.952 24.4619 24.3123L24.2305 24.0809C22.9287 22.7791 20.8182 22.7791 19.5164 24.0809C18.2147 25.3826 18.2147 27.4932 19.5164 28.7949L26.1441 35.4226L26.1087 35.4276L28 48.6667H13.5373L16.863 25.3874C17.1406 23.4437 18.8053 22 20.7687 22H21.2331ZM18.1021 50V60.3333C18.1021 61.622 19.1468 62.6667 20.4355 62.6667C21.7241 62.6667 22.7688 61.622 22.7688 60.3333V50H18.1021Z" fill="#BF3882"/>
<path fill-rule="evenodd" clip-rule="evenodd" d="M30.6992 1.67112C30.0268 1.16687 29.086 1.23373 28.4917 1.828C27.9607 2.35901 27.85 3.15108 28.2086 3.74557C29.1898 5.37252 30.197 6.46996 32.1377 7.78258C34.0385 6.54252 35.1048 5.51003 36.1145 3.74727C36.4508 3.16019 36.3294 2.3861 35.8005 1.85722C35.1895 1.24619 34.2221 1.17744 33.5308 1.69592L32.1315 2.7454L30.6992 1.67112ZM27.5489 0.885187C28.6124 -0.178269 30.296 -0.297919 31.4991 0.604454L32.1315 1.07873L32.7308 0.629255C33.953 -0.287348 35.6631 -0.165812 36.7433 0.914416C37.6462 1.8173 37.9416 3.24009 37.2715 4.40999C36.0604 6.52429 34.7419 7.71662 32.4879 9.14217L32.1259 9.37108L31.7673 9.13708C29.4415 7.61974 28.2225 6.35041 27.0668 4.4342C26.3629 3.26703 26.6252 1.80889 27.5489 0.885187Z" fill="#BF3882"/>
</g>
<defs>
<clipPath id="clip0">
<rect width="64" height="64" fill="white"/>
</clipPath>
</defs>
</svg>
