<svg width="24" height="24" viewBox="0 0 24 24" fill="none" xmlns="http://www.w3.org/2000/svg">
<g clip-path="url(#clip0)">
<path d="M18.6918 23.6096C20.2911 23.6096 21.5877 22.3131 21.5877 20.7137C21.5877 19.1144 20.2911 17.8179 18.6918 17.8179C17.0924 17.8179 15.7959 19.1144 15.7959 20.7137C15.7959 22.3131 17.0924 23.6096 18.6918 23.6096Z" fill="white"/>
<path d="M23.325 5.02354C23.246 4.99722 23.167 4.99722 23.088 4.99722H6.10767L5.34421 1.12727C5.26523 0.706051 4.87034 0.390137 4.44912 0.390137H0V2.23297H3.68566L6.42358 16.0016C6.50256 16.4228 6.89745 16.7387 7.31867 16.7387H20.4818C20.903 16.7387 21.2715 16.4491 21.3768 16.0542L23.9568 6.15557C24.1148 5.65537 23.8252 5.15517 23.325 5.02354Z" fill="white"/>
<path d="M8.45057 23.6096C10.0499 23.6096 11.3464 22.3131 11.3464 20.7137C11.3464 19.1144 10.0499 17.8179 8.45057 17.8179C6.85122 17.8179 5.55469 19.1144 5.55469 20.7137C5.55469 22.3131 6.85122 23.6096 8.45057 23.6096Z" fill="white"/>
</g>
<defs>
<clipPath id="clip0">
<rect width="24" height="24" fill="white"/>
</clipPath>
</defs>
</svg>
