<svg width="64" height="64" viewBox="0 0 64 64" fill="none" xmlns="http://www.w3.org/2000/svg">
<path fill-rule="evenodd" clip-rule="evenodd" d="M43.7247 29.4123L33.0457 11.1055C32.5786 10.3047 31.4214 10.3047 30.9543 11.1055L20.2753 29.4123C17.1684 34.7384 18.0418 41.4896 22.4019 45.8497C27.7028 51.1506 36.2972 51.1506 41.5981 45.8497C45.9582 41.4896 46.8316 34.7384 43.7247 29.4123ZM34.1974 10.4337C33.2158 8.75084 30.7842 8.75084 29.8026 10.4337L19.1236 28.7404C15.7115 34.5898 16.6707 42.0041 21.4591 46.7925C27.2807 52.6141 36.7193 52.6141 42.5409 46.7925C47.3293 42.0041 48.2885 34.5898 44.8764 28.7404L34.1974 10.4337Z" fill="#387EBF"/>
<path fill-rule="evenodd" clip-rule="evenodd" d="M40.4154 30.1265C40.7137 29.9107 41.1305 29.9776 41.3463 30.2759C44.6984 34.9092 43.7224 40.78 39.0851 44.519C38.7985 44.7501 38.3788 44.7051 38.1477 44.4184C37.9166 44.1318 37.9616 43.7121 38.2482 43.481C42.3839 40.1465 43.1654 35.0648 40.266 31.0574C40.0502 30.7591 40.1171 30.3423 40.4154 30.1265Z" fill="#387EBF"/>
</svg>
