<svg width="48" height="48" viewBox="0 0 48 48" fill="none" xmlns="http://www.w3.org/2000/svg">
<g clip-path="url(#clip0)">
<path d="M16.9193 35.7423C14.8282 33.6512 11.4258 33.6512 9.33477 35.7423C7.24388 37.8333 7.24388 41.2357 9.33477 43.3267C10.3803 44.3721 11.7537 44.8949 13.127 44.8949C14.5003 44.8949 15.8737 44.3721 16.9192 43.3267C19.0102 41.2357 19.0102 37.8333 16.9193 35.7423ZM16.3768 41.7898L15.1407 40.5537C15.2991 40.2416 15.3835 39.8947 15.3835 39.5345C15.3835 39.1744 15.2991 38.8274 15.1407 38.5154L16.3768 37.2793C17.3152 38.6301 17.3152 40.4389 16.3768 41.7898ZM12.5262 40.1357C12.5261 40.1356 12.5261 40.1356 12.526 40.1355C12.5259 40.1354 12.5258 40.1353 12.5257 40.1353C12.3653 39.9748 12.2769 39.7614 12.2769 39.5344C12.2769 39.3074 12.3653 39.0939 12.5259 38.9334C12.6917 38.7676 12.9093 38.6848 13.127 38.6848C13.3446 38.6848 13.5623 38.7677 13.728 38.9334C13.8886 39.0939 13.977 39.3074 13.977 39.5344C13.977 39.7615 13.8886 39.975 13.728 40.1355C13.3967 40.467 12.8576 40.467 12.5262 40.1357ZM9.87716 41.7898C8.93883 40.4388 8.93883 38.6301 9.87725 37.2791L11.1134 38.5152C10.9551 38.8273 10.8706 39.1743 10.8706 39.5344C10.8706 39.8946 10.955 40.2416 11.1134 40.5536L9.87716 41.7898ZM15.3824 36.2847L14.1463 37.5208C13.8342 37.3625 13.4872 37.2781 13.1271 37.2781C12.767 37.2781 12.42 37.3625 12.1078 37.5209L10.8716 36.2848C11.5471 35.8155 12.3368 35.5798 13.1271 35.5798C13.9173 35.5797 14.7069 35.8154 15.3824 36.2847ZM10.8716 42.7844L12.1078 41.5482C12.42 41.7065 12.7669 41.7909 13.127 41.7909C13.4871 41.7909 13.8341 41.7065 14.1462 41.5482L15.3823 42.7843C14.0314 43.7227 12.2225 43.7226 10.8716 42.7844Z" fill="#BF3882"/>
<path d="M31.0805 43.3267C32.1259 44.3721 33.4994 44.8949 34.8727 44.8949C36.2459 44.8949 37.6194 44.3721 38.6649 43.3267C40.7558 41.2357 40.7558 37.8333 38.6649 35.7423C36.5738 33.6512 33.1714 33.6512 31.0804 35.7423C28.9895 37.8333 28.9895 41.2357 31.0805 43.3267ZM31.6228 37.2792L32.8589 38.5153C32.7006 38.8274 32.6162 39.1743 32.6162 39.5344C32.6162 39.8946 32.7006 40.2416 32.8589 40.5536L31.6228 41.7897C30.6845 40.4389 30.6845 38.6301 31.6228 37.2792ZM34.8726 38.6848C35.0903 38.6848 35.308 38.7677 35.4737 38.9334C35.6343 39.0939 35.7227 39.3074 35.7227 39.5344C35.7227 39.7615 35.6343 39.975 35.4737 40.1355C35.1423 40.467 34.6032 40.467 34.2718 40.1357C34.2717 40.1356 34.2717 40.1355 34.2716 40.1355C34.2715 40.1354 34.2714 40.1353 34.2713 40.1352C34.1109 39.9747 34.0226 39.7614 34.0226 39.5344C34.0226 39.3074 34.111 39.0939 34.2716 38.9334C34.4373 38.7677 34.655 38.6848 34.8726 38.6848ZM38.1224 37.2791C39.0607 38.6301 39.0608 40.4388 38.1225 41.7898L36.8863 40.5536C37.0447 40.2415 37.1291 39.8946 37.1291 39.5344C37.1291 39.1743 37.0447 38.8273 36.8862 38.5152L38.1224 37.2791ZM32.6173 42.7843L33.8534 41.5482C34.1656 41.7065 34.5126 41.7909 34.8727 41.7909C35.2328 41.7909 35.5798 41.7065 35.8918 41.5482L37.128 42.7844C35.7771 43.7227 33.9682 43.7226 32.6173 42.7843ZM37.1281 36.2847L35.8919 37.5208C35.5798 37.3625 35.2328 37.278 34.8727 37.278C34.5126 37.278 34.1656 37.3624 33.8534 37.5207L32.6173 36.2846C33.2928 35.8154 34.0825 35.5797 34.8727 35.5797C35.6629 35.5797 36.4526 35.8154 37.1281 36.2847Z" fill="#BF3882"/>
<path d="M44.8947 8.41156C44.8793 7.80908 44.6301 7.24869 44.1931 6.83353C43.7562 6.41837 43.1877 6.19926 42.5812 6.2136C41.9786 6.22907 41.4182 6.47828 41.0032 6.91529L34.2923 13.9793H21.5965V2.25647C21.5965 1.01221 20.5843 0 19.3401 0C18.3362 0 17.4837 0.65921 17.1917 1.56735C10.4248 1.87084 4.97533 7.32041 4.67184 14.0873C3.7637 14.3792 3.10449 15.2318 3.10449 16.2357V17.0124C3.10449 17.8284 3.7683 18.4922 4.58427 18.4922H4.65768V22.4488C4.65768 26.2624 7.76031 29.365 11.5739 29.365H19.676L17.1166 32.059C15.9035 31.4097 14.5418 31.0651 13.1271 31.0651C10.8648 31.0651 8.73802 31.9461 7.13823 33.5457C3.83608 36.848 3.83608 42.2211 7.13823 45.5233C8.7894 47.1744 10.9582 48 13.1271 48C15.296 48 17.4648 47.1745 19.116 45.5233C20.1687 44.4706 20.9078 43.1887 21.2917 41.7909H26.708C27.0919 43.1886 27.831 44.4705 28.8837 45.5233C30.5349 47.1744 32.7037 48 34.8726 48C37.0415 48 39.2103 47.1745 40.8615 45.5233C44.1636 42.2211 44.1636 36.8479 40.8615 33.5457C39.2617 31.9461 37.1349 31.0651 34.8726 31.0651C33.4579 31.0651 32.0962 31.4097 30.8831 32.059L28.3239 29.3649H33.3195C37.1331 29.3649 40.2357 26.2623 40.2357 22.4487V18.4921H40.3091C41.1251 18.4921 41.7889 17.8283 41.7889 17.0123V16.2356C41.7889 15.2855 41.1982 14.4711 40.365 14.1391L44.2748 10.0235C44.69 9.58663 44.9101 9.01415 44.8947 8.41156ZM19.3401 1.40637C19.8088 1.40637 20.1901 1.78768 20.1901 2.25647V13.9793H18.49V2.25647C18.4901 1.78768 18.8714 1.40637 19.3401 1.40637ZM17.0838 2.98131V13.9793H6.0858C6.43692 8.07423 11.1786 3.33252 17.0838 2.98131ZM4.51086 17.0123V16.2356C4.51086 15.7669 4.89217 15.3856 5.36086 15.3856H32.9563L31.3411 17.0857H4.58427C4.54386 17.0857 4.51086 17.0528 4.51086 17.0123ZM11.5739 27.9585C8.53578 27.9585 6.06405 25.4868 6.06405 22.4487V18.4921H30.0051L21.012 27.9585H11.5739ZM18.1215 44.5288C16.7444 45.9059 14.9361 46.5944 13.1271 46.5942C11.3186 46.5941 9.50955 45.9055 8.13272 44.5288C5.37887 41.775 5.37887 37.294 8.13272 34.5401C9.46679 33.206 11.2404 32.4714 13.1271 32.4714C15.0138 32.4714 16.7874 33.2061 18.1215 34.5401C19.4556 35.8741 20.1902 37.6477 20.1902 39.5344C20.1902 41.4211 19.4556 43.1948 18.1215 44.5288ZM23.9999 31.3655L27.6122 35.1679C27.2141 35.8272 26.9117 36.5364 26.708 37.278H21.2917C21.088 36.5364 20.7856 35.8272 20.3875 35.1679L23.9999 31.3655ZM21.5546 40.3845C21.5824 40.1038 21.5967 39.8202 21.5967 39.5344C21.5967 39.2487 21.5824 38.965 21.5546 38.6844H26.4453C26.4174 38.9651 26.4032 39.2487 26.4032 39.5344C26.4032 39.8202 26.4174 40.1038 26.4453 40.3845H21.5546ZM39.8671 34.5401C42.6209 37.294 42.6209 41.775 39.8671 44.5289C37.1132 47.2828 32.6323 47.2827 29.8784 44.5289C28.8891 43.5397 28.2303 42.3083 27.9554 40.9687C27.9522 40.9499 27.9482 40.9313 27.9435 40.913C27.8551 40.4638 27.8096 40.0027 27.8096 39.5345C27.8096 39.0664 27.8551 38.6053 27.9435 38.1561C27.9482 38.1377 27.9522 38.1192 27.9555 38.1003C28.2304 36.7608 28.8892 35.5295 29.8785 34.5402C31.2126 33.2062 32.9863 32.4716 34.8729 32.4716C36.7595 32.4716 38.533 33.2061 39.8671 34.5401ZM28.8838 33.5457C28.7334 33.6961 28.5915 33.8527 28.4539 34.0121L24.9699 30.3446L26.1424 29.1104L29.686 32.8406C29.4067 33.0577 29.1379 33.2916 28.8838 33.5457ZM38.8293 22.4487C38.8293 25.4868 36.3576 27.9585 33.3194 27.9585H27.2366L36.2296 18.4921H38.8293V22.4487ZM39.5324 15.3856C40.0011 15.3856 40.3825 15.7669 40.3825 16.2356V17.0123C40.3825 17.0528 40.3495 17.0857 40.309 17.0857H37.5657L39.1809 15.3856H39.5324ZM43.2552 9.05493L19.5459 34.0121C19.4084 33.8527 19.2664 33.6961 19.1161 33.5457C18.862 33.2917 18.5932 33.0578 18.314 32.8406L42.0228 7.8838C42.1791 7.71926 42.3902 7.62541 42.6172 7.61959C42.84 7.61481 43.0598 7.69666 43.2245 7.85314C43.3892 8.00953 43.483 8.22067 43.4888 8.44766C43.4946 8.67465 43.4117 8.8902 43.2552 9.05493Z" fill="#BF3882"/>
</g>
<defs>
<clipPath id="clip0">
<rect width="48" height="48" fill="white"/>
</clipPath>
</defs>
</svg>
