<svg width="64" height="64" viewBox="0 0 64 64" fill="none" xmlns="http://www.w3.org/2000/svg">
<path fill-rule="evenodd" clip-rule="evenodd" d="M46.0753 10.8005C45.1287 8.32644 47.4228 5.78603 50.0106 6.53332C51.5979 6.99166 52.5874 8.56932 52.3091 10.1978L51.9841 12.099C51.9665 12.2019 51.925 12.2992 51.8629 12.3832L46.4855 19.6518C45.9506 20.3748 45.1463 20.851 44.2551 20.9723L42.7496 21.1771C41.7647 21.3111 40.7628 21.1271 39.8897 20.652L38.083 19.6688L37.7878 33.2477L40.6349 57.1635C40.8701 59.1388 39.4507 60.9274 37.4736 61.1471C35.5354 61.3624 33.781 59.9877 33.5266 58.0542L31.3603 41.5903L29.1984 58.0204C28.9416 59.9727 27.1702 61.3607 25.2131 61.1433C23.2498 60.9252 21.8247 59.1721 22.012 57.2057L24.2923 33.2628L23.7002 19.6462L21.7695 20.676C20.9081 21.1354 19.9243 21.3131 18.9566 21.1841L17.3493 20.9698C16.4566 20.8507 15.65 20.3755 15.1133 19.6524L9.71831 12.384C9.6565 12.3007 9.61497 12.2042 9.59702 12.102L9.2599 10.1835C8.97557 8.56542 9.95526 6.99285 11.533 6.53481C14.1153 5.78511 16.4039 8.33743 15.427 10.8035L18.9337 14.0296L19.0123 13.9486C20.9389 11.9613 23.8202 11.2281 26.4623 12.0527L30.7203 13.3816L35.004 12.0447C37.6313 11.2247 40.4966 11.9449 42.4239 13.9097L42.5451 14.0333L46.0753 10.8005ZM49.6407 7.81431C48.0864 7.36547 46.712 8.9298 47.3571 10.4134L47.485 10.7075C47.5985 10.9685 47.5338 11.2728 47.3239 11.465L42.9705 15.4516C42.7056 15.6943 42.296 15.6833 42.0444 15.4268L41.4721 14.8434C39.8952 13.2358 37.5508 12.6465 35.4012 13.3175L30.9189 14.7164C30.7896 14.7568 30.651 14.7568 30.5217 14.7164L26.0651 13.3255C23.9034 12.6508 21.5459 13.2507 19.9696 14.8766L19.439 15.424C19.1874 15.6835 18.7749 15.6953 18.5089 15.4506L14.1756 11.4639C13.966 11.2711 13.902 10.9664 14.0164 10.7056L14.1575 10.3838C14.8002 8.91864 13.4412 7.3692 11.9047 7.81527C10.9805 8.0836 10.4065 9.00484 10.5731 9.95272L10.8829 11.716L16.1839 18.8577C16.506 19.2916 16.9899 19.5767 17.5255 19.6481L19.1328 19.8624C19.824 19.9546 20.5267 19.8277 21.142 19.4995L24.0066 17.9718C24.2086 17.864 24.4519 17.8675 24.6508 17.981C24.8497 18.0945 24.9764 18.3022 24.9863 18.531L25.6263 33.251C25.6277 33.2818 25.6269 33.3126 25.624 33.3432L23.3393 57.3321C23.2211 58.5736 24.1208 59.6804 25.3603 59.8181C26.5959 59.9554 27.7143 59.079 27.8765 57.8465L30.6993 36.393C30.743 36.0613 31.0257 35.8133 31.3603 35.8133C31.6949 35.8133 31.9776 36.0613 32.0213 36.393L34.8485 57.8803C35.0082 59.0941 36.1096 59.9571 37.3264 59.8219C38.5675 59.684 39.4586 58.5612 39.311 57.3211L36.4583 33.3588C36.4546 33.3278 36.4531 33.2967 36.4538 33.2655L36.7738 18.5455C36.7788 18.313 36.9047 18.0999 37.106 17.9832C37.3072 17.8666 37.5547 17.8632 37.759 17.9744L40.5271 19.4809C41.1507 19.8203 41.8664 19.9517 42.5699 19.8559L44.0754 19.6511C44.6101 19.5784 45.0927 19.2927 45.4136 18.8589L50.6966 11.7178L50.9948 9.97315C51.1588 9.01377 50.5758 8.08433 49.6407 7.81431Z" fill="#387EBF"/>
<path fill-rule="evenodd" clip-rule="evenodd" d="M30.7196 11.4667C32.8109 11.4667 34.5063 9.77132 34.5063 7.68C34.5063 5.58868 32.8109 3.89333 30.7196 3.89333C28.6283 3.89333 26.9329 5.58868 26.9329 7.68C26.9329 9.77132 28.6283 11.4667 30.7196 11.4667ZM30.7196 12.8C33.5473 12.8 35.8396 10.5077 35.8396 7.68C35.8396 4.8523 33.5473 2.56 30.7196 2.56C27.8919 2.56 25.5996 4.8523 25.5996 7.68C25.5996 10.5077 27.8919 12.8 30.7196 12.8Z" fill="#387EBF"/>
</svg>
