<svg width="64" height="64" viewBox="0 0 64 64" fill="none" xmlns="http://www.w3.org/2000/svg">
<path fill-rule="evenodd" clip-rule="evenodd" d="M18.9008 18.1049C16.1088 14.4095 10.5574 14.4095 7.76538 18.1049C6.65433 19.5754 6.17013 21.4257 6.4185 23.252L9.45465 45.5766C9.71849 47.5166 11.3752 48.9633 13.3331 48.9633C15.291 48.9633 16.9477 47.5166 17.2116 45.5766L20.2477 23.252C20.4961 21.4257 20.0119 19.5754 18.9008 18.1049ZM6.70156 17.3011C10.0271 12.8996 16.6391 12.8996 19.9646 17.3011C21.288 19.0526 21.8647 21.2565 21.5689 23.4317L18.5327 45.7563C18.179 48.3572 15.9579 50.2966 13.3331 50.2966C10.7083 50.2966 8.4872 48.3571 8.13348 45.7563L5.09733 23.4317C4.80151 21.2565 5.37821 19.0526 6.70156 17.3011Z" fill="#BF3882"/>
<path fill-rule="evenodd" clip-rule="evenodd" d="M20.1828 27.6043L18.2617 28.1532C16.8929 28.5443 15.9235 29.7615 15.8487 31.1831L15.4585 38.5959C15.3937 39.8278 16.0145 40.9947 17.0723 41.6294L18.3427 42.3916L17.6567 43.535L16.3863 42.7727C14.9054 41.8842 14.0363 40.2504 14.127 38.5258L14.5172 31.113C14.6219 29.1228 15.9791 27.4187 17.8954 26.8712L19.8165 26.3223L20.1828 27.6043Z" fill="#BF3882"/>
<path fill-rule="evenodd" clip-rule="evenodd" d="M6.4832 27.6043L8.40435 28.1532C9.77315 28.5443 10.7425 29.7615 10.8173 31.1831L11.2075 38.5959C11.2723 39.8278 10.6515 40.9947 9.59375 41.6294L8.32335 42.3916L9.00934 43.535L10.2797 42.7727C11.7606 41.8842 12.6297 40.2504 12.539 38.5258L12.1488 31.113C12.0441 29.1228 10.687 27.4187 8.77065 26.8712L6.84949 26.3223L6.4832 27.6043Z" fill="#BF3882"/>
<path fill-rule="evenodd" clip-rule="evenodd" d="M51.9997 14.6667H43.9997C41.0542 14.6667 38.6663 17.0545 38.6663 20V44C38.6663 46.9455 41.0542 49.3333 43.9997 49.3333H51.9997C54.9452 49.3333 57.333 46.9455 57.333 44V20C57.333 17.0545 54.9452 14.6667 51.9997 14.6667ZM43.9997 13.3333C40.3178 13.3333 37.333 16.3181 37.333 20V44C37.333 47.6819 40.3178 50.6667 43.9997 50.6667H51.9997C55.6816 50.6667 58.6663 47.6819 58.6663 44V20C58.6663 16.3181 55.6816 13.3333 51.9997 13.3333H43.9997Z" fill="#BF3882"/>
<path fill-rule="evenodd" clip-rule="evenodd" d="M45.333 16.6667C45.333 16.2985 45.6315 16 45.9997 16H49.9997C50.3679 16 50.6663 16.2985 50.6663 16.6667C50.6663 17.0349 50.3679 17.3333 49.9997 17.3333H45.9997C45.6315 17.3333 45.333 17.0349 45.333 16.6667Z" fill="#BF3882"/>
<path fill-rule="evenodd" clip-rule="evenodd" d="M50.0968 30.6246C49.7928 30.2598 49.2158 30.3207 48.9947 30.7409L47.2944 33.9714C46.7334 35.0373 45.3644 35.3691 44.3777 34.6784L43.628 34.1536C43.2814 33.911 42.7995 34.0483 42.6329 34.4371L41.2791 37.5959C41.1341 37.9344 40.7422 38.0911 40.4037 37.9461C40.0653 37.8011 39.9085 37.4091 40.0536 37.0707L41.4074 33.9119C41.9072 32.7455 43.353 32.3335 44.3926 33.0613L45.1423 33.586C45.4712 33.8163 45.9275 33.7057 46.1145 33.3504L47.8148 30.1199C48.4782 28.8594 50.2092 28.6767 51.1211 29.771L52.3418 31.2359C52.5742 31.5147 52.987 31.5564 53.2704 31.3297L55.5832 29.4794C55.8707 29.2494 56.2903 29.296 56.5203 29.5835C56.7503 29.871 56.7037 30.2906 56.4161 30.5206L54.1034 32.3708C53.253 33.0511 52.0147 32.926 51.3175 32.0894L50.0968 30.6246Z" fill="#BF3882"/>
<path fill-rule="evenodd" clip-rule="evenodd" d="M31.3331 3.33333C24.9068 3.33333 19.1886 6.36347 15.5285 11.0756L14.4755 10.2577C18.3773 5.23438 24.4776 2 31.3331 2C37.5252 2 43.1012 4.6387 46.9976 8.85099V5.33333H48.3309V11.4164L41.9218 10.6621L42.0776 9.3379L46.0658 9.80727C42.4094 5.82675 37.1626 3.33333 31.3331 3.33333Z" fill="#BF3882"/>
<path fill-rule="evenodd" clip-rule="evenodd" d="M31.3332 60.6667C37.7595 60.6667 43.4778 57.6365 47.1379 52.9244L48.1909 53.7423C44.2891 58.7656 38.1887 62 31.3332 62C25.1412 62 19.5651 59.3613 15.6688 55.149V58.6667H14.3354V52.5836L20.7446 53.3379L20.5887 54.6621L16.6006 54.1927C20.257 58.1733 25.5038 60.6667 31.3332 60.6667Z" fill="#BF3882"/>
</svg>
