<svg width="30" height="30" viewBox="0 0 30 30" fill="none" xmlns="http://www.w3.org/2000/svg">
<g clip-path="url(#clip0)">
<path d="M27.583 23.6853L27.4819 23.8066C24.1533 27.8003 19.7197 30.0007 15.0002 30.0007C10.28 30.0007 5.84711 27.801 2.51788 23.8066L2.41748 23.6853L2.44119 23.5298C3.08402 19.3367 5.27469 15.9684 8.60949 14.0434L8.84655 13.9068L9.0355 14.1048C10.6105 15.7572 12.7287 16.6664 14.9995 16.6664C17.2704 16.6664 19.3885 15.7565 20.9635 14.1048L21.1525 13.9068L21.3895 14.0434C24.7243 15.9684 26.915 19.3367 27.5586 23.5298L27.583 23.6853ZM15.0002 14.9826C19.1306 14.9826 22.4912 11.622 22.4912 7.49163C22.4912 3.3613 19.1306 0 15.0002 0C10.8699 0 7.50928 3.3613 7.50928 7.49094C7.50928 11.6206 10.8699 14.9826 15.0002 14.9826Z" fill="#D6D6D6"/>
</g>
<defs>
<clipPath id="clip0">
<rect width="30" height="30" fill="white"/>
</clipPath>
</defs>
</svg>
