<svg width="48" height="48" viewBox="0 0 48 48" fill="none" xmlns="http://www.w3.org/2000/svg">
<g clip-path="url(#clip0)">
<path d="M47.1377 2.0878C45.3147 0.709388 43.0855 -0.0242507 40.8002 0.00199756C37.9243 0.00199756 35.6127 0.912437 33.1655 1.87612C30.5122 2.92137 27.7683 4.00176 24.0013 4.00176C20.2343 4.00176 17.4905 2.92137 14.8371 1.87612C12.39 0.912437 10.0784 0.00199756 7.20245 0.00199756C4.91717 -0.0243444 2.68794 0.709388 0.864998 2.0878C0.321377 2.50402 0.0026487 3.14982 0.00292993 3.83452V4.29387C0.00255495 5.09997 0.443432 5.84158 1.15176 6.22649C1.86009 6.61131 2.72225 6.57765 3.39833 6.13865C4.51463 5.34277 5.83351 4.8792 7.20236 4.80158C9.94793 4.80158 12.4583 6.132 14.7612 7.56937C15.1217 7.79511 15.4791 8.02478 15.8346 8.2537C16.6049 8.74895 17.4012 9.26145 18.1911 9.70513C19.955 10.7247 21.9643 11.2421 24.0012 11.2011C26.0351 11.2424 28.0415 10.7266 29.8032 9.70935C30.6013 9.26135 31.3976 8.74885 32.1679 8.25361C32.5234 8.02468 32.8807 7.79501 33.2402 7.56965C35.5444 6.1319 38.0547 4.80149 40.8002 4.80149C42.1692 4.87911 43.4881 5.34267 44.6046 6.13856C45.2807 6.57747 46.1428 6.61112 46.851 6.2263C47.5592 5.84148 48 5.09988 47.9996 4.29378V3.83443C48 3.14982 47.6813 2.50402 47.1377 2.0878ZM46.3998 4.29387C46.4003 4.5137 46.2801 4.71609 46.0869 4.8209C45.8937 4.9257 45.6585 4.91605 45.4745 4.79587C44.103 3.8244 42.4795 3.27075 40.8002 3.20185C37.6438 3.20185 34.7791 4.72397 32.3922 6.21337C32.0262 6.44266 31.6633 6.6758 31.3024 6.9082C30.5173 7.41329 29.776 7.89016 29.0115 8.31941C27.4896 9.19582 25.7571 9.63914 24.0012 9.60136C22.2424 9.63876 20.5068 9.19395 18.9829 8.3151C18.2266 7.89016 17.4853 7.41319 16.7002 6.9082C16.3393 6.6758 15.9764 6.44266 15.6092 6.2129C13.2234 4.72397 10.3588 3.20175 7.20236 3.20175C5.52313 3.27066 3.89977 3.82421 2.52848 4.79577C2.34446 4.91605 2.10917 4.9257 1.91587 4.8209C1.72257 4.71609 1.60229 4.5137 1.60267 4.29387V3.83452C1.60398 3.6446 1.6936 3.46611 1.84528 3.35174C3.38764 2.19054 5.27208 1.57502 7.20245 1.60183C9.77497 1.60183 11.949 2.45799 14.2508 3.36459C16.9131 4.41339 19.9305 5.60159 24.0013 5.60159C28.0722 5.60159 31.0895 4.41339 33.7519 3.36459C36.0537 2.45799 38.2278 1.60183 40.8002 1.60183C42.7305 1.57502 44.615 2.19054 46.1573 3.35174C46.3089 3.46611 46.3986 3.6446 46.3998 3.83452V4.29387Z" fill="#BF3882"/>
<path d="M40.8003 6.40152C38.7992 6.53473 36.8881 7.28243 35.328 8.54244C34.4021 9.21205 33.5341 9.95844 32.7332 10.7735C32.1457 11.3407 31.5884 11.9199 31.0611 12.4683C30.7159 12.8277 30.3834 13.173 30.0639 13.4925C27.1885 16.5546 25.5921 20.5999 25.6013 24.8003C25.5868 27.0971 25.4212 29.3904 25.1056 31.6655C24.9332 32.8363 24.8315 34.0166 24.8013 35.1996V37.5994C24.841 39.2568 25.1714 40.8943 25.7773 42.4374C25.9257 42.8756 26.0753 43.3186 26.2125 43.7815C26.9473 46.2645 28.9987 47.9987 31.2008 47.9987C32.5256 47.9973 33.5992 46.9237 33.6006 45.5989V43.999C33.6006 42.9627 32.7613 41.7323 32.057 40.8824C30.9672 39.5681 30.3798 37.9094 30.3997 36.2022L30.4008 35.9994C30.4008 29.9006 32.8737 26.7891 35.0555 24.0436C36.7754 21.8793 38.4002 19.8349 38.4002 16.8007C38.4002 14.0861 39.2412 11.2011 40.8001 11.2011C41.0606 11.2011 42.0683 11.3925 44.1065 13.8548C44.868 14.7703 46.2196 14.9141 47.1566 14.1793C48.0936 13.4444 48.2762 12.0976 47.5688 11.1398C46.5186 9.71499 43.7563 6.40152 40.8003 6.40152ZM46.0046 13.0175C45.7667 13.1079 45.4978 13.0339 45.3394 12.8347C43.5383 10.6591 42.0537 9.60128 40.8003 9.60128C38.0372 9.60128 36.8005 13.2171 36.8005 16.8008C36.8005 19.2768 35.4776 20.9412 33.803 23.0484C31.5746 25.8525 28.801 29.3426 28.801 35.9995L28.7999 36.1823C28.7756 38.2691 29.4934 40.2966 30.8252 41.9034C31.4038 42.4794 31.8109 43.205 32.0009 43.999V45.5989C32.0003 46.0404 31.6425 46.3982 31.201 46.3988C29.4523 46.3988 28.1848 44.8068 27.7469 43.3275C27.6039 42.8443 27.448 42.3823 27.2934 41.9249C26.7451 40.5464 26.443 39.0823 26.4012 37.5994V35.1995C26.4327 34.0823 26.5302 32.9679 26.6934 31.8622C27.0178 29.5219 27.1873 27.1629 27.2012 24.8002C27.2074 21.027 28.6331 17.3942 31.1951 14.624C31.5212 14.2975 31.861 13.9443 32.2145 13.5771C32.7285 13.0424 33.2719 12.4776 33.8547 11.9144C34.5956 11.1586 35.399 10.4667 36.2561 9.84576C37.5523 8.79039 39.1353 8.14797 40.8004 8.00135C42.6194 8.00135 44.8243 10.1129 46.2813 12.0886C46.3593 12.1941 46.4009 12.3221 46.4001 12.4533C46.405 12.7075 46.2452 12.9356 46.0046 13.0175Z" fill="#BF3882"/>
<path d="M22.4016 24.8003C22.4108 20.5998 20.8144 16.5544 17.9391 13.4921C17.6196 13.173 17.2872 12.8277 16.9418 12.4683C16.4145 11.9199 15.8571 11.3407 15.2795 10.7833C14.4762 9.965 13.6055 9.2158 12.6765 8.54357C11.116 7.28299 9.2043 6.53492 7.20268 6.40152C4.24666 6.40152 1.48431 9.71499 0.433631 11.1403C-0.277228 12.098 -0.0956461 13.4479 0.84301 14.1838C1.78167 14.9196 3.1358 14.7739 3.89625 13.8549C5.93442 11.3925 6.94217 11.2012 7.20268 11.2012C8.76155 11.2012 9.60252 14.0862 9.60252 16.8008C9.60252 19.835 11.2274 21.8794 12.9472 24.0437C15.1291 26.7892 17.602 29.9007 17.602 35.9995L17.6031 36.2027C17.6229 37.9097 17.0355 39.5683 15.9458 40.8825C15.2415 41.7324 14.4021 42.9628 14.4021 43.9991V45.599C14.4035 46.9238 15.4772 47.9974 16.802 47.9988C19.0042 47.9988 21.0556 46.2646 21.7903 43.7815C21.9275 43.3186 22.077 42.8756 22.2255 42.4374C22.8315 40.8943 23.1618 39.2567 23.2016 37.5994V35.1996C23.1713 34.0165 23.0697 32.8363 22.8973 31.6655C22.5817 29.3904 22.4162 27.0971 22.4016 24.8003ZM21.6017 37.5994C21.5599 39.0824 21.258 40.5465 20.7096 41.925C20.5549 42.3824 20.399 42.8444 20.256 43.3276C19.8182 44.8068 18.5506 46.3989 16.802 46.3989C16.3604 46.3983 16.0026 46.0405 16.002 45.599V43.9991C16.192 43.205 16.5991 42.4795 17.1778 41.9035C18.5095 40.2968 19.2272 38.2694 19.203 36.1828L19.2019 35.9996C19.2019 29.3426 16.4282 25.8526 14.1999 23.0485C12.5255 20.9413 11.2024 19.2769 11.2024 16.8009C11.2024 13.2172 9.96578 9.60137 7.20268 9.60137C5.94923 9.60137 4.46461 10.6591 2.66351 12.8348C2.50218 13.0309 2.23473 13.1038 1.99615 13.0168C1.75757 12.9298 1.59999 12.7017 1.60299 12.4477C1.60299 12.3186 1.64452 12.1929 1.72139 12.0891C3.17873 10.1131 5.38368 8.00154 7.20268 8.00154C8.86842 8.14825 10.4518 8.79114 11.7485 9.84717C12.6087 10.4707 13.4147 11.1655 14.1581 11.9243C14.7312 12.4778 15.2744 13.0427 15.7885 13.5773C16.142 13.9445 16.4818 14.2976 16.808 14.6238C19.3698 17.3942 20.7955 21.027 20.8018 24.8004C20.8157 27.163 20.9853 29.5222 21.3096 31.8624C21.4727 32.9681 21.5703 34.0825 21.6018 35.1997V37.5994H21.6017Z" fill="#BF3882"/>
</g>
<defs>
<clipPath id="clip0">
<rect width="48" height="48" fill="white"/>
</clipPath>
</defs>
</svg>
