<svg width="48" height="48" viewBox="0 0 48 48" fill="none" xmlns="http://www.w3.org/2000/svg">
<g clip-path="url(#clip0)">
<path d="M33 48C32.744 48 32.488 47.902 32.292 47.708L28.372 43.788C23.226 38.642 22.084 30.876 25.538 24.466L26.798 22.116C27.426 20.942 28.734 20.334 30.032 20.592L33.352 21.258C36.088 21.808 38.378 23.554 39.634 26.05L41.894 30.55C42.14 31.044 41.94 31.644 41.448 31.892C40.956 32.136 40.352 31.942 40.104 31.448L37.844 26.948C36.87 25.006 35.088 23.646 32.958 23.218L29.638 22.552C29.196 22.466 28.768 22.67 28.56 23.06L27.3 25.412C24.268 31.04 25.268 37.854 29.786 42.372L33.706 46.292C34.096 46.682 34.096 47.316 33.706 47.706C33.512 47.902 33.256 48 33 48Z" fill="#BF3882"/>
<path d="M45.0001 28C44.6641 28 44.3341 27.83 44.1461 27.52L42.3461 24.56C39.8921 20.568 36.6381 18.326 32.1001 17.506C30.6061 17.236 29.5501 15.838 29.6921 14.322C30.1481 9.48801 28.1581 4.80001 24.3781 1.78201C23.9461 1.43801 23.8741 0.808013 24.2201 0.376013C24.5661 -0.0539873 25.1941 -0.123987 25.6241 0.218013C29.9361 3.65801 32.2001 9.00201 31.6841 14.51C31.6381 15 31.9761 15.45 32.4561 15.536C37.5921 16.464 41.2781 19 44.0521 23.516L45.8541 26.48C46.1421 26.952 45.9921 27.566 45.5201 27.854C45.3581 27.954 45.1781 28 45.0001 28Z" fill="#BF3882"/>
<path d="M23.0003 48C22.7443 48 22.4883 47.902 22.2923 47.708L20.3723 45.788C18.4103 43.828 16.9763 41.382 16.2243 38.718C16.1343 38.398 15.8983 38.134 15.5943 38.012C15.4443 37.95 15.1423 37.878 14.8383 38.062C13.6823 38.75 12.7543 39.746 12.1543 40.946L9.89427 45.448C9.64427 45.94 9.04027 46.136 8.55027 45.892C8.05827 45.644 7.85827 45.044 8.10427 44.55L10.3643 40.05C11.1363 38.508 12.3283 37.226 13.8143 36.342C14.5783 35.888 15.4963 35.816 16.3343 36.152C17.2123 36.502 17.8903 37.256 18.1503 38.172C18.8083 40.508 20.0663 42.652 21.7863 44.372L23.7063 46.292C24.0963 46.682 24.0963 47.316 23.7063 47.706C23.5123 47.902 23.2563 48 23.0003 48Z" fill="#BF3882"/>
<path d="M4.99996 42C4.82196 42 4.64196 41.954 4.47996 41.854C4.00796 41.566 3.85796 40.952 4.14596 40.48L5.94596 37.52C7.98996 34.198 11.128 31.662 14.78 30.37C15.624 30.072 16.278 29.43 16.576 28.614C16.842 27.888 17.164 27.168 17.534 26.47L20.176 21.564C23.394 15.592 21.938 8.09002 16.716 3.72602L14.362 1.77002C13.936 1.41602 13.876 0.786017 14.23 0.362017C14.584 -0.0619833 15.218 -0.119983 15.638 0.230017L17.998 2.19002C23.95 7.16202 25.608 15.71 21.942 22.514L19.302 27.414C18.976 28.026 18.69 28.662 18.458 29.298C17.956 30.678 16.858 31.756 15.45 32.256C12.226 33.396 9.45596 35.634 7.65396 38.564L5.85396 41.52C5.66596 41.83 5.33596 42 4.99996 42Z" fill="#BF3882"/>
<path d="M11.0003 16C10.8083 16 10.6163 15.946 10.4463 15.832C9.98631 15.526 9.86231 14.906 10.1683 14.446C12.7743 10.538 17.7063 8.848 22.1583 10.332L22.8163 10.552C23.3403 10.726 23.6223 11.294 23.4483 11.816C23.2723 12.342 22.7063 12.626 22.1823 12.448L21.5243 12.228C17.9243 11.026 13.9383 12.394 11.8303 15.554C11.6383 15.844 11.3223 16 11.0003 16Z" fill="#BF3882"/>
<path d="M37 40C36.722 40 36.446 39.884 36.248 39.658C34.212 37.334 31.274 36 28.186 36H25C24.448 36 24 35.552 24 35C24 34.448 24.448 34 25 34H28.186C31.852 34 35.338 35.582 37.752 38.342C38.118 38.758 38.074 39.388 37.658 39.754C37.468 39.918 37.234 40 37 40Z" fill="#BF3882"/>
</g>
<defs>
<clipPath id="clip0">
<rect width="48" height="48" fill="white"/>
</clipPath>
</defs>
</svg>
