<svg width="64" height="64" viewBox="0 0 64 64" fill="none" xmlns="http://www.w3.org/2000/svg">
<path fill-rule="evenodd" clip-rule="evenodd" d="M37.5681 17.8082C34.776 14.1129 29.2247 14.1129 26.4326 17.8082C25.3216 19.2788 24.8374 21.1291 25.0858 22.9553L25.5077 26.0577L25.5168 26.0256L27.438 26.5745C29.3543 27.122 30.7114 28.8261 30.8162 30.8164L31.2063 38.2292C31.2971 39.9538 30.428 41.5875 28.9471 42.4761L27.8316 43.1454L28.1219 45.28C28.3858 47.22 30.0425 48.6666 32.0004 48.6666C33.9582 48.6666 35.615 47.22 35.8788 45.28L36.1691 43.1454L35.0536 42.4761C33.5727 41.5875 32.7036 39.9538 32.7944 38.2292L33.1845 30.8164C33.2893 28.8261 34.6464 27.122 36.5627 26.5745L38.4839 26.0256L38.493 26.0577L38.915 22.9553C39.1633 21.1291 38.6791 19.2788 37.5681 17.8082ZM38.3017 27.4644L36.929 27.8566C35.5602 28.2476 34.5909 29.4648 34.516 30.8864L34.1259 38.2992C34.061 39.5311 34.6818 40.6981 35.7396 41.3327L36.3646 41.7077L38.3017 27.4644ZM27.6361 41.7077L28.2611 41.3327C29.3189 40.6981 29.9397 39.5311 29.8748 38.2992L29.4847 30.8864C29.4099 29.4648 28.4405 28.2476 27.0717 27.8566L25.699 27.4644L27.6361 41.7077ZM25.3688 17.0045C28.6944 12.603 35.3064 12.603 38.6319 17.0045C39.9552 18.7559 40.532 20.9598 40.2361 23.135L37.2 45.4596C36.8463 48.0605 34.6252 50 32.0004 50C29.3755 50 27.1545 48.0605 26.8007 45.4596L23.7646 23.135C23.4688 20.9598 24.0455 18.7559 25.3688 17.0045ZM10.6574 15.8506C10.9812 16.0259 11.1016 16.4304 10.9263 16.7542L10.4107 17.7069C9.65687 19.0996 9.9813 20.7465 11.0965 21.6298C12.7625 22.9494 13.162 25.3205 12.127 27.2326C11.3732 28.6254 11.6976 30.2722 12.8128 31.1556C14.4788 32.4752 14.8783 34.8462 13.8433 36.7584C13.0895 38.1511 13.4139 39.798 14.5291 40.6813C16.1951 42.0009 16.5946 44.372 15.5596 46.2841C14.8058 47.6769 15.1302 49.3237 16.2454 50.2071L17.0471 50.8421C17.3357 51.0707 17.3844 51.49 17.1558 51.7786C16.9271 52.0672 16.5079 52.1158 16.2192 51.8872L15.4176 51.2522C13.7515 49.9326 13.3521 47.5616 14.387 45.6494C15.1409 44.2567 14.8165 42.6098 13.7012 41.7265C12.0352 40.4069 11.6357 38.0358 12.6707 36.1237C13.4246 34.7309 13.1002 33.0841 11.9849 32.2007C10.3189 30.8811 9.91945 28.5101 10.9544 26.5979C11.7083 25.2052 11.3839 23.5583 10.2686 22.675C8.60264 21.3554 8.20314 18.9843 9.23814 17.0722L9.75376 16.1195C9.92903 15.7957 10.3336 15.6753 10.6574 15.8506ZM52.6487 15.8506C52.9725 15.6753 53.377 15.7957 53.5523 16.1195L54.0679 17.0722C55.1029 18.9843 54.7034 21.3554 53.0374 22.675C51.9222 23.5583 51.5978 25.2052 52.3516 26.5979C53.3866 28.5101 52.9871 30.8811 51.3211 32.2007C50.2059 33.0841 49.8815 34.7309 50.6353 36.1237C51.6703 38.0358 51.2708 40.4069 49.6048 41.7265C48.4896 42.6098 48.1652 44.2567 48.919 45.6494C49.954 47.5616 49.5545 49.9326 47.8885 51.2522L47.0868 51.8872C46.7982 52.1158 46.3789 52.0672 46.1503 51.7786C45.9217 51.49 45.9703 51.0707 46.259 50.8421L47.0606 50.2071C48.1758 49.3237 48.5003 47.6769 47.7464 46.2841C46.7114 44.372 47.1109 42.0009 48.7769 40.6813C49.8922 39.798 50.2166 38.1511 49.4627 36.7584C48.4277 34.8462 48.8272 32.4752 50.4932 31.1556C51.6085 30.2722 51.9329 28.6254 51.179 27.2326C50.1441 25.3205 50.5435 22.9494 52.2095 21.6298C53.3248 20.7465 53.6492 19.0996 52.8953 17.7069L52.3797 16.7542C52.2044 16.4304 52.3249 16.0259 52.6487 15.8506ZM16.9041 17.0274C17.2279 17.2027 17.3483 17.6072 17.173 17.931L16.7178 18.7721C16.0688 19.9712 16.3508 21.3827 17.3031 22.137C18.8062 23.3276 19.1633 25.4633 18.2331 27.1819C17.584 28.381 17.866 29.7926 18.8183 30.5469C20.3214 31.7374 20.6785 33.8731 19.7483 35.5917C19.0992 36.7909 19.3813 38.2024 20.3336 38.9567C21.8367 40.1473 22.1938 42.283 21.2635 44.0015C20.6145 45.2007 20.8965 46.6122 21.8488 47.3665L22.5566 47.9271C22.8452 48.1557 22.8938 48.575 22.6652 48.8637C22.4366 49.1523 22.0173 49.2009 21.7287 48.9723L21.0209 48.4117C19.5178 47.2211 19.1608 45.0854 20.091 43.3669C20.74 42.1677 20.458 40.7562 19.5057 40.0019C18.0026 38.8113 17.6455 36.6756 18.5757 34.957C19.2248 33.7579 18.9428 32.3464 17.9905 31.592C16.4874 30.4015 16.1303 28.2658 17.0605 26.5472C17.7095 25.348 17.4275 23.9365 16.4752 23.1822C14.9721 21.9916 14.615 19.856 15.5452 18.1374L16.0005 17.2963C16.1757 16.9725 16.5803 16.8521 16.9041 17.0274ZM46.402 17.0274C46.7258 16.8521 47.1303 16.9725 47.3056 17.2963L47.7608 18.1374C48.691 19.856 48.3339 21.9916 46.8308 23.1822C45.8785 23.9365 45.5965 25.348 46.2456 26.5472C47.1758 28.2658 46.8187 30.4015 45.3156 31.592C44.3633 32.3464 44.0813 33.7579 44.7303 34.957C45.6606 36.6756 45.3035 38.8113 43.8004 40.0019C42.8481 40.7562 42.566 42.1677 43.2151 43.3669C44.1453 45.0854 43.7882 47.2211 42.2851 48.4117L41.5774 48.9723C41.2887 49.2009 40.8694 49.1523 40.6408 48.8637C40.4122 48.575 40.4609 48.1557 40.7495 47.9271L41.4573 47.3665C42.4096 46.6122 42.6916 45.2007 42.0425 44.0015C41.1123 42.283 41.4694 40.1473 42.9725 38.9567C43.9248 38.2024 44.2068 36.7909 43.5578 35.5917C42.6275 33.8731 42.9846 31.7374 44.4877 30.5469C45.44 29.7926 45.7221 28.381 45.073 27.1819C44.1428 25.4633 44.4999 23.3276 46.003 22.137C46.9553 21.3827 47.2373 19.9712 46.5882 18.7721L46.133 17.931C45.9578 17.6072 46.0782 17.2027 46.402 17.0274Z" fill="#387EBF"/>
</svg>
