<svg width="68" height="72" viewBox="0 0 68 72" fill="none" xmlns="http://www.w3.org/2000/svg">
<path d="M34.0003 37.62C33.682 37.6202 33.3767 37.4937 33.1516 37.2686C32.9266 37.0436 32.8002 36.7383 32.8002 36.4199V35.9998C32.8002 35.337 33.3375 34.7998 34.0001 34.7998C34.6628 34.7998 35.2001 35.3371 35.2001 35.9998V36.4199C35.2002 36.7382 35.0738 37.0435 34.8487 37.2686C34.6238 37.4936 34.3185 37.62 34.0003 37.62Z" fill="black"/>
<path d="M61.6004 21.8038V50.1958L58.0783 52.1038L34.7647 64.7039L34.6003 64.7999L7.60016 50.1958V21.8038L34.6003 7.19971L61.6004 21.8038Z" fill="#A2DED8"/>
<path d="M58.0004 24.2036V52.1037L38.3443 62.7478L35.0202 64.5478L34.7202 64.7037L34.5643 64.7998L34.3362 64.6677L7.60016 50.1957V22.2956L10.0001 20.9996L31.0363 9.59961L58.0004 24.2036Z" fill="#83C5BE"/>
<path d="M34 36.42V60.492L9.99988 47.796V23.7119L34 36.42Z" fill="#A2DED8"/>
<path d="M61.6003 21.8038L57.9283 23.7478L34.0002 36.4198L6.47202 21.8398L6.40002 21.8038L34.0002 7.19971L61.6003 21.8038Z" fill="#83C5BE"/>
<path d="M57.9283 23.7478L33.9666 36.4198L6.40002 21.8398L30.3618 9.17969L57.9283 23.7478Z" fill="#A2DED8"/>
<path d="M38.3442 62.7479L35.0201 64.5479L34.3361 64.6679L34.1682 64.7039L34.0002 64.7999L6.40002 50.1958V21.8038L10 19.1997V47.7959L34.0002 60.4919L38.3442 62.7479Z" fill="white"/>
<path d="M34.0003 65.5851C33.682 65.5852 33.3767 65.4588 33.1516 65.2337C32.9266 65.0087 32.8002 64.7034 32.8002 64.385V35.9998C32.8002 35.337 33.3375 34.7998 34.0001 34.7998C34.6628 34.7998 35.2001 35.3371 35.2001 35.9998V64.385C35.2002 64.7032 35.0738 65.0085 34.8487 65.2337C34.6238 65.4588 34.3185 65.5852 34.0003 65.5851Z" fill="#006D77"/>
<path d="M34.0002 72.0001C33.804 72.0001 33.6109 71.952 33.4377 71.8601L1.03754 54.6803C0.645196 54.4723 0.399804 54.0645 0.400086 53.6202V18.3794C0.399945 17.9354 0.645196 17.5275 1.03754 17.3196L33.4377 0.139747C33.7895 -0.0465822 34.2108 -0.0465822 34.5627 0.139747L66.9628 17.3196C67.3551 17.5275 67.6005 17.9354 67.6003 18.3794V53.6202C67.6004 54.0643 67.3551 54.4721 66.9628 54.6803L34.5627 71.8601C34.3894 71.952 34.1963 72.0001 34.0002 72.0001ZM2.8 52.8984L34.0002 69.4419L65.2003 52.8984V19.1014L34.0002 2.55808L2.8 19.1014V52.8984Z" fill="#006D77"/>
<path d="M34.0001 66C33.8044 66.0002 33.6117 65.9524 33.4387 65.8605L5.83873 51.2567C5.44597 51.0487 5.20015 50.6406 5.20001 50.1961V38.4C5.20001 37.7373 5.73734 37.2001 6.39997 37.2001C7.0626 37.2001 7.59993 37.7373 7.59993 38.4V49.4737L34 63.4426L60.4 49.4737V22.5264L34.0001 8.55746L7.60007 22.5264V28.7999C7.60007 29.4627 7.06274 29.9999 6.40011 29.9999C5.73748 29.9999 5.20015 29.4626 5.20015 28.7999V21.8038C5.20029 21.3593 5.44597 20.9512 5.83887 20.7432L33.439 6.13926C33.79 5.95293 34.2106 5.95293 34.5616 6.13926L62.1618 20.7432C62.5546 20.9512 62.8004 21.3593 62.8005 21.8038V50.1961C62.8004 50.6406 62.5547 51.0487 62.1618 51.2567L34.5615 65.8607C34.3885 65.9524 34.1959 66.0002 34.0001 66Z" fill="#006D77"/>
<path d="M34.0002 37.615C33.8044 37.6151 33.6118 37.5673 33.4388 37.4755L5.83877 22.8682C5.25489 22.5572 5.03285 21.8325 5.34222 21.2477C5.65174 20.663 6.37596 20.4391 6.96138 20.7471L34.0002 35.0576L61.0389 20.7471C61.6244 20.4391 62.3487 20.663 62.6581 21.2477C62.9676 21.8325 62.7454 22.5572 62.1615 22.8682L34.5615 37.4756C34.3886 37.5673 34.1959 37.6151 34.0002 37.615Z" fill="#006D77"/>
<path d="M6.39997 34.7998C7.06268 34.7998 7.59992 34.2626 7.59992 33.5999C7.59992 32.9371 7.06268 32.3999 6.39997 32.3999C5.73725 32.3999 5.20001 32.9371 5.20001 33.5999C5.20001 34.2626 5.73725 34.7998 6.39997 34.7998Z" fill="#FFDDD2"/>
</svg>
