<svg width="72" height="72" viewBox="0 0 72 72" fill="none" xmlns="http://www.w3.org/2000/svg">
<g clip-path="url(#clip0)">
<path d="M70.7997 36.0002C70.8021 47.7373 64.8867 58.6845 55.0675 65.1144C45.2484 71.5444 32.8492 72.5904 22.0917 67.8962H22.0797C14.9877 70.1762 5.55571 70.6682 1.81171 70.7762C1.56417 70.7827 1.33804 70.6365 1.24242 70.4081C1.1468 70.1796 1.20133 69.9159 1.37971 69.7442C4.863 66.1567 7.17317 61.595 8.00372 56.6642C-0.971184 44.5085 -1.07656 27.9503 7.74289 15.6815C16.5623 3.41259 32.2912 -1.76323 46.6729 2.87096C61.0545 7.50514 70.8025 20.8903 70.7997 36.0002Z" fill="#A2DED8"/>
<path d="M35.9997 1.2002C35.3957 1.2002 34.7957 1.2154 34.1997 1.2458C52.6981 2.19737 67.2094 17.4722 67.2119 35.995C67.2145 54.5179 52.7074 69.7967 34.2093 70.7534C34.7997 70.7834 35.3997 70.8002 35.9997 70.8002C55.2192 70.8002 70.7997 55.2197 70.7997 36.0002C70.7997 16.7807 55.2192 1.2002 35.9997 1.2002Z" fill="#83C5BE"/>
<path d="M15.5303 26.3999L25.1999 26.3999V45.6L15.5303 45.5999C14.7662 45.6033 14.0469 45.24 13.5959 44.6231C9.86784 39.4787 9.86784 32.5211 13.5959 27.3767C14.0469 26.7598 14.7662 26.3966 15.5303 26.3999Z" fill="#A2DED8"/>
<path d="M21.5999 26.3999H25.1999V45.5999H21.5999V26.3999Z" fill="#FFDDD2"/>
<path d="M25.1997 45.5998L37.6797 54.9598C38.0433 55.2325 38.5298 55.2764 38.9363 55.0731C39.3429 54.8699 39.5997 54.4543 39.5997 53.9998V17.9998C39.5997 17.5453 39.3429 17.1298 38.9363 16.9265C38.5298 16.7232 38.0433 16.7671 37.6797 17.0398L25.1997 26.3998V45.5998Z" fill="#A2DED8"/>
<path d="M37.68 17.0398L36 18.3022V53.7022L37.68 54.9622C38.044 55.2352 38.531 55.2789 38.9377 55.075C39.3445 54.8711 39.6009 54.4548 39.6 53.9998V17.9998C39.6 17.5453 39.3432 17.1298 38.9367 16.9265C38.5301 16.7232 38.0436 16.7671 37.68 17.0398Z" fill="#83C5BE"/>
<path d="M1.37971 69.7442C1.20133 69.916 1.1468 70.1797 1.24242 70.4081C1.33804 70.6365 1.56417 70.7827 1.81171 70.7762C2.63371 70.7522 3.74251 70.7078 5.02891 70.6322C4.89725 70.5256 4.8168 70.3683 4.80743 70.1991C4.79806 70.03 4.86064 69.8647 4.97971 69.7442C8.463 66.1568 10.7732 61.595 11.6037 56.6642C3.99752 46.3584 2.66753 32.7072 8.14143 21.127C13.6153 9.54683 25.0082 1.90973 37.7997 1.2458C37.2037 1.2154 36.6037 1.2002 35.9997 1.2002C22.8678 1.20197 10.8551 8.59581 4.93772 20.319C-0.979662 32.0421 0.206057 46.098 8.00371 56.6642C7.17317 61.595 4.863 66.1568 1.37971 69.7442Z" fill="white"/>
<path d="M1.3848 26.1982L3.6936 26.851L3.12 29.0938C2.9772 29.8522 2.88 30.6202 2.76 31.3822L2.5836 32.527L2.5236 33.685L2.4 35.9999H0L0.12 33.5206L0.1908 32.2798L0.3768 31.0522C0.5076 30.235 0.6168 29.413 0.7668 28.6006L1.3848 26.1982Z" fill="white"/>
<path d="M1.58852 32.4122C0.925781 32.4155 0.385836 31.881 0.382523 31.2182C0.379209 30.5555 0.913781 30.0155 1.57652 30.0122H1.58852C2.25126 30.0122 2.78852 30.5495 2.78852 31.2122C2.78852 31.875 2.25126 32.4122 1.58852 32.4122Z" fill="#006D77"/>
<path d="M35.9999 0C24.1247 0.0504773 13.0258 5.90896 6.28428 15.6852C4.11143 18.9119 2.45814 22.4594 1.38468 26.1984C1.22245 26.8294 1.59341 27.4746 2.22039 27.6519C2.84737 27.8292 3.50126 27.4738 3.69348 26.8512C4.69605 23.3624 6.2383 20.052 8.26428 17.04C10.329 14.0529 12.8582 11.4152 15.7559 9.2268C27.4256 0.401315 43.466 0.146016 55.4106 8.59565C67.3553 17.0453 72.4555 32.2554 68.0192 46.1978C63.5829 60.1402 50.6311 69.6064 35.9999 69.6C31.3787 69.6113 26.8062 68.6569 22.5755 66.798C22.5672 66.7955 22.5588 66.7935 22.5503 66.792C21.197 66.2028 19.8845 65.5241 18.6215 64.7604C18.0542 64.4171 17.316 64.5987 16.9727 65.166C16.6294 65.7333 16.811 66.4715 17.3783 66.8148C17.8211 67.0824 18.2807 67.3248 18.7367 67.5744C13.6394 68.6845 8.45323 69.3371 3.23988 69.5244C5.77029 66.5752 7.60369 63.0938 8.60388 59.3388C9.03588 59.8464 9.47507 60.3456 9.93108 60.8256C10.388 61.3061 11.148 61.3251 11.6285 60.8682C12.109 60.4112 12.128 59.6513 11.6711 59.1708C10.7045 58.1552 9.80273 57.0799 8.97108 55.9512C4.68404 50.1847 2.37874 43.1854 2.39988 36C2.39988 35.3372 1.86262 34.8 1.19988 34.8C0.537133 34.8 -0.00012494 35.3372 -0.00012494 36C-0.024017 43.5154 2.32799 50.8461 6.71988 56.9448C5.8808 61.4515 3.72772 65.6095 0.531475 68.8956C0.0068889 69.4169 -0.145421 70.2061 0.147475 70.8852C0.424538 71.5722 1.10548 72.0092 1.84548 71.9748C5.55828 71.8692 14.8475 71.382 22.0223 69.1728C26.4426 71.05 31.1975 72.0118 35.9999 72C55.8821 72 71.9999 55.8822 71.9999 36C71.9999 16.1177 55.8821 0 35.9999 0V0Z" fill="#006D77"/>
<path d="M15.5293 46.8001H24.8005L36.9601 55.9201C37.6873 56.4655 38.6603 56.5533 39.4734 56.1467C40.2865 55.7402 40.8001 54.9092 40.8001 54.0001V18.0001C40.8001 17.0911 40.2865 16.26 39.4734 15.8535C38.6603 15.4469 37.6873 15.5347 36.9601 16.0801L24.8005 25.2001H15.5293C14.3832 25.2005 13.3054 25.7452 12.6253 26.6677C8.59089 32.2353 8.59089 39.7649 12.6253 45.3325C13.3044 46.2562 14.3828 46.8012 15.5293 46.8001ZM38.4001 18.0001V54.0001L26.4001 45.0001V33.0001L35.5201 26.1601C36.0503 25.7625 36.1577 25.0103 35.7601 24.4801C35.3625 23.9499 34.6103 23.8425 34.0801 24.2401L26.4001 30.0001V27.0001L38.4001 18.0001ZM14.5633 28.0801C14.7892 27.7739 15.1488 27.5953 15.5293 27.6001L24.0001 27.6V31.2001H16.8001C16.1373 31.2001 15.6001 31.7374 15.6001 32.4001C15.6001 33.0629 16.1373 33.6001 16.8001 33.6001H24.0001V44.4002L15.5293 44.4001C15.1507 44.4038 14.7935 44.2252 14.5693 43.9201C11.1508 39.197 11.1508 32.8129 14.5693 28.0897L14.5633 28.0801Z" fill="#006D77"/>
<path d="M45.0634 39.72C44.4703 40.0162 44.2296 40.7372 44.5258 41.3304C44.8221 41.9235 45.5431 42.1642 46.1362 41.868C48.1716 40.6361 49.3525 38.3742 49.1998 36C49.3548 33.6237 48.1736 31.3589 46.1362 30.126C45.5511 29.8349 44.8407 30.0693 44.5438 30.6516C44.2448 31.2371 44.4687 31.9543 45.0478 32.2656C46.2656 33.1007 46.936 34.5296 46.7998 36C46.9324 37.4621 46.2693 38.8827 45.0634 39.72Z" fill="#006D77"/>
<path d="M49.7364 25.326C49.1433 25.0297 48.4223 25.2704 48.126 25.8636C47.8298 26.4567 48.0705 27.1777 48.6636 27.474C48.7044 27.4944 52.8 29.616 52.8 36C52.8 42.3108 48.8256 44.4432 48.6636 44.52C48.0705 44.8162 47.8298 45.5372 48.126 46.1304C48.4223 46.7235 49.1433 46.9642 49.7364 46.668C49.9596 46.56 55.2 43.8516 55.2 36C55.2 28.1484 49.9596 25.44 49.7364 25.326Z" fill="#006D77"/>
<path d="M58.7998 36C58.7998 46.7748 52.4914 50.4 52.2274 50.5452C51.6448 50.8614 51.4288 51.5899 51.745 52.1724C52.0611 52.755 52.7896 52.971 53.3722 52.6548C53.6902 52.482 61.1997 48.2736 61.1997 36C61.1997 23.7264 53.6902 19.518 53.3722 19.3452C52.7896 19.0291 52.0611 19.2451 51.745 19.8276C51.4288 20.4102 51.6448 21.1387 52.2274 21.4548C52.2934 21.4908 58.7998 25.14 58.7998 36Z" fill="#006D77"/>
</g>
<defs>
<clipPath id="clip0">
<rect width="72" height="72" fill="white"/>
</clipPath>
</defs>
</svg>
