<svg width="24" height="22" viewBox="0 0 24 22" fill="none" xmlns="http://www.w3.org/2000/svg">
<path d="M22.9609 5.16208H5.63362L4.47016 0.971862C4.34531 0.522076 3.93579 0.210754 3.46891 0.210754H1.03913C0.465216 0.210754 0 0.675971 0 1.24988C0 1.82379 0.465216 2.289 1.03913 2.289H2.67902L7.25564 18.7718C7.38049 19.2215 7.79001 19.5329 8.25689 19.5329H8.49506C8.45495 19.6817 8.43323 19.8381 8.43323 19.9995C8.43323 20.988 9.23455 21.7893 10.223 21.7893C11.2115 21.7893 12.0129 20.988 12.0129 19.9995C12.0129 19.8381 11.9911 19.6817 11.951 19.5329H14.1558C14.1157 19.6817 14.094 19.8381 14.094 19.9995C14.094 20.988 14.8953 21.7893 15.8838 21.7893C16.8722 21.7893 17.6735 20.988 17.6735 19.9995C17.6735 19.8381 17.6518 19.6817 17.6117 19.5329H18.5182C19.0921 19.5329 19.5573 19.0677 19.5573 18.4937C19.5573 17.9198 19.0921 17.4546 18.5182 17.4546H9.04678L8.60126 15.8501H19.3202C19.9472 15.8501 20.4959 15.4288 20.6577 14.8231L22.6833 7.24038H22.9609C23.5348 7.24038 24 6.77517 24 6.20126C24 5.62735 23.5348 5.16208 22.9609 5.16208ZM11.0024 13.0025C11.0024 13.4329 10.6534 13.7819 10.223 13.7819C9.79261 13.7819 9.44367 13.4329 9.44367 13.0025V8.57956C9.44367 8.14915 9.79261 7.80021 10.223 7.80021C10.6534 7.80021 11.0024 8.14915 11.0024 8.57956V13.0025ZM14.7276 13.0025C14.7276 13.4329 14.3787 13.7819 13.9483 13.7819C13.5179 13.7819 13.1689 13.4329 13.1689 13.0025V8.57956C13.1689 8.14915 13.5179 7.80021 13.9483 7.80021C14.3787 7.80021 14.7276 8.14915 14.7276 8.57956V13.0025ZM18.4528 13.0025C18.4528 13.4329 18.1039 13.7819 17.6735 13.7819C17.2431 13.7819 16.8942 13.4329 16.8942 13.0025V8.57956C16.8942 8.14915 17.2431 7.80021 17.6735 7.80021C18.1039 7.80021 18.4528 8.14915 18.4528 8.57956V13.0025Z" fill="white"/>
</svg>
