<svg width="48" height="48" viewBox="0 0 48 48" fill="none" xmlns="http://www.w3.org/2000/svg">
<g clip-path="url(#clip0)">
<path d="M47.2003 0.800049C47.2003 7.90315 43.4085 11.8549 37.5211 15.4464C37.1407 15.0978 36.7401 14.7719 36.3211 14.4705C35.6141 13.9579 34.8586 13.5159 34.0655 13.1508C34.0574 13.1508 34.0574 13.1428 34.0494 13.1428C33.8652 13.0626 33.6814 12.9828 33.4895 12.9106C33.4979 12.8832 33.5085 12.8564 33.5214 12.8308C34.8894 8.99912 38.401 1.77591 45.6964 0.887931C46.1955 0.829709 46.6975 0.800415 47.2003 0.800049Z" fill="#FFDDD2"/>
<path d="M45.6962 0.887939C45.392 7.32716 41.8005 11.079 36.321 14.4705C36.2251 14.5266 36.1291 14.5906 36.0328 14.6467C35.425 14.0879 34.7662 13.587 34.0654 13.1508C34.0573 13.1508 34.0573 13.1428 34.0493 13.1428L33.5212 12.8308C34.8893 8.99913 38.4009 1.77592 45.6962 0.887939Z" fill="#E3E7F2"/>
<path d="M0.804443 19.998C1.96229 20.7418 3.28749 21.1845 4.65992 21.2859C3.3805 21.4232 2.08716 21.3394 0.836301 21.038C0.812133 20.6861 0.804443 20.3423 0.804443 19.998Z" fill="#E3E7F2"/>
<path d="M6.65967 31.221C8.54731 31.1489 10.3848 30.5927 11.9952 29.6055C11.6554 30.0881 11.2841 30.5476 10.8835 30.9812C9.49168 31.2419 8.07201 31.3228 6.65967 31.221Z" fill="#E3E7F2"/>
<path d="M36.8012 38.3966C35.2014 42.396 36.8012 47.1955 36.8012 47.1955C35.9773 47.1955 35.1772 47.1797 34.3852 47.1398C34.2094 46.5957 32.9055 42.14 34.4013 38.3966C36.0011 34.3969 39.2008 28.8533 39.2008 23.1977C39.2008 19.3503 34.7693 12.5507 27.322 12.0388C27.794 12.007 28.2898 11.9989 28.8017 11.9989C36.8012 11.9989 41.6007 19.1983 41.6007 23.1977C41.6007 28.8533 38.4011 34.3969 36.8012 38.3966Z" fill="#E3E7F2"/>
<path d="M34.4013 38.3966C32.9055 42.14 34.2094 46.5957 34.3852 47.1398C32.4609 47.0574 30.5433 46.8623 28.6417 46.5558C28.106 46.4756 27.578 46.3796 27.058 46.2756C24.3025 45.7366 21.6089 44.919 19.0186 43.8358C24.0422 39.6365 26.2579 28.7094 26.3941 28.0294C25.5413 30.1935 24.1934 32.1277 22.4584 33.677C19.3998 36.3629 15.8826 38.4764 12.0755 39.9162C11.7873 39.7083 11.5076 39.4922 11.2274 39.2685C9.75174 38.1176 8.3859 36.8323 7.14785 35.4287C10.0267 34.1475 12.5241 32.1408 14.3952 29.6054C13.326 30.2898 12.133 30.7571 10.8836 30.9812C11.2842 30.5476 11.6555 30.0881 11.9953 29.6054C10.3849 30.5926 8.54738 31.1489 6.65974 31.221C5.73734 31.1694 4.8186 31.0654 3.90828 30.909C3.19607 29.6735 2.59408 28.378 2.10816 27.0374C1.90823 26.5017 1.73246 25.9576 1.5805 25.4215C1.17367 23.9919 0.924308 22.5221 0.836426 21.038C2.08729 21.3393 3.38062 21.4232 4.66005 21.2859C6.32395 21.4466 8.00324 21.2811 9.60344 20.7981C14.2751 19.4623 15.8749 12.583 27.322 12.0388C34.7693 12.5507 39.2008 19.3503 39.2008 23.1977C39.2008 28.8533 36.0011 34.3969 34.4013 38.3966Z" fill="#D4E1F4"/>
<path d="M11.2275 39.2685C11.5077 39.4922 11.7874 39.7083 12.0756 39.9163C12.541 39.7325 13.0698 39.5076 13.6216 39.2638C12.1481 38.1143 10.7841 36.8305 9.54787 35.4288C12.4268 34.1475 14.9241 32.1409 16.7949 29.6055C15.726 30.2899 14.5326 30.7571 13.2832 30.9812H13.273C11.5703 32.8817 9.48233 34.398 7.14795 35.4288C8.38599 36.8323 9.75183 38.1176 11.2275 39.2685Z" fill="white"/>
<path d="M1.58037 25.4215C1.73234 25.9576 1.9081 26.5017 2.10803 27.0374C2.59395 28.378 3.19595 29.6735 3.90816 30.909C4.81848 31.0654 5.73721 31.1694 6.65961 31.221C7.44177 31.2679 8.22575 31.2664 9.00754 31.217C8.10272 31.165 7.20119 31.0621 6.30772 30.909C5.59587 29.6735 4.99351 28.378 4.50796 27.0374C4.30802 26.5017 4.13189 25.9576 3.97993 25.4215C3.57347 23.9919 3.32411 22.5221 3.23622 21.038V21.0277C2.37095 20.8311 1.54778 20.4825 0.804443 19.998C0.804443 20.3423 0.812133 20.6861 0.836301 21.038C0.924183 22.5221 1.17355 23.9919 1.58037 25.4215Z" fill="white"/>
<path d="M9.38379 20.0285C10.8844 19.4309 12.2348 18.5092 13.3378 17.329C14.6194 16.0877 16.0215 14.9767 17.5228 14.0133C19.2149 12.9851 21.0641 12.2421 22.9968 11.8133C24.9046 11.4021 26.8504 11.1963 28.8018 11.1989V12.7991C26.9709 12.7958 25.1448 12.988 23.3545 13.3725C21.5914 13.7625 19.9048 14.4395 18.3614 15.3762C16.9453 16.288 15.6234 17.3378 14.4151 18.5111C13.1349 19.8634 11.5651 20.9084 9.82357 21.5676L9.38379 20.0285Z" fill="white"/>
<path d="M12.9838 18.7222C12.6989 18.3993 12.2126 18.3509 11.8695 18.612C11.1394 19.2393 10.2953 19.7201 9.38354 20.0284L9.82332 21.5674C10.9405 21.2009 11.9761 20.6205 12.8717 19.8589C13.0431 19.7267 13.1522 19.53 13.1731 19.3147C13.1943 19.0998 13.1259 18.8852 12.9838 18.7222Z" fill="#006D77"/>
<path d="M28.8015 12.7991V11.1989C26.8505 11.1963 24.9046 11.4021 22.9972 11.8133C21.0645 12.2421 19.2153 12.9851 17.5236 14.0133L16.8139 14.4578C16.4485 14.7068 16.354 15.2045 16.6026 15.5699C16.8513 15.9354 17.3493 16.0298 17.7147 15.7808L18.361 15.3762C19.9045 14.4395 21.5911 13.7625 23.3542 13.3725C25.1445 12.988 26.9706 12.7958 28.8015 12.7991Z" fill="#006D77"/>
<path d="M14.2345 16.5168C14.0741 16.6611 13.976 16.8617 13.9609 17.0767L13.9705 17.2305C13.9778 17.2839 13.9928 17.3363 14.0144 17.3857C14.0276 17.4348 14.0485 17.4817 14.0759 17.5249C14.1045 17.5699 14.1363 17.6131 14.1711 17.6534C14.3158 17.8083 14.5135 17.9024 14.7248 17.9174C14.8291 17.9189 14.9331 17.9017 15.032 17.8673C15.3315 17.7611 15.5403 17.4875 15.563 17.1704C15.5659 17.0653 15.5494 16.961 15.515 16.8617C15.4839 16.7621 15.4333 16.6695 15.3663 16.5897C15.2264 16.4304 15.0305 16.3308 14.8193 16.3121C14.6054 16.3051 14.3971 16.378 14.2345 16.5168Z" fill="#006D77"/>
<path d="M37.521 16.2473C37.3211 16.2473 37.1285 16.1722 36.9809 16.0371C35.8732 15.0191 34.5898 14.2106 33.1932 13.6507C32.7944 13.4918 32.5919 13.0462 32.7351 12.6412C34.0812 8.84061 38.1802 0 47.2002 0C47.6418 0 47.9999 0.358121 47.9999 0.800097C47.9999 8.87284 43.1646 12.9389 37.9392 16.1305C37.8132 16.2074 37.6686 16.2476 37.521 16.2473ZM34.5012 12.4742C35.618 12.9953 36.6609 13.6613 37.6034 14.4556C42.6805 11.2724 46.1002 7.77943 46.38 1.62802C39.6119 2.0927 36.1091 8.27999 34.5026 12.4742H34.5012Z" fill="#006D77"/>
<path d="M41.6006 6.82805C41.2615 6.82841 40.9591 6.61457 40.8459 6.29489C40.7328 5.97522 40.8335 5.61893 41.0975 5.40582C41.6914 4.92319 42.337 4.50758 43.0221 4.16594C43.415 3.98615 43.8801 4.15166 44.0716 4.53907C44.2631 4.92649 44.1122 5.39593 43.7307 5.59952C43.1514 5.8888 42.6054 6.24107 42.103 6.64972C41.9609 6.7647 41.7833 6.82768 41.6006 6.82805Z" fill="#006D77"/>
<path d="M37.5603 12.2387C37.4398 12.2391 37.3212 12.2116 37.2132 12.1589C36.8151 11.967 36.6485 11.4888 36.8404 11.0911C37.2967 10.1362 37.8261 9.21815 38.4248 8.34555C38.5852 8.10497 38.8628 7.96948 39.151 7.99145C39.4392 8.01306 39.6933 8.18882 39.8156 8.45064C39.9379 8.71282 39.9093 9.02005 39.7409 9.25513C39.1898 10.06 38.702 10.9062 38.2817 11.7861C38.1484 12.0633 37.8679 12.2391 37.5603 12.2387Z" fill="#006D77"/>
<path d="M36.8012 47.9955C30.6014 48.0815 24.4485 46.916 18.7098 44.5684C18.4535 44.46 18.2722 44.2257 18.2312 43.9503C18.1898 43.675 18.2949 43.3981 18.5084 43.2191C21.2185 40.9506 23.0973 36.5287 24.2398 33.0071C20.7904 36.8718 15.6621 39.3588 12.368 40.6617C12.1124 40.7624 11.8231 40.725 11.6016 40.5625C9.75386 39.216 8.05809 37.673 6.54395 35.96C6.37404 35.767 6.3074 35.5045 6.36416 35.254C6.42091 35.0035 6.59448 34.7955 6.83103 34.6952C8.52131 33.9555 10.0765 32.9394 11.4331 31.6889C8.90469 32.1854 6.3041 32.1884 3.77455 31.6977C3.53873 31.6578 3.33368 31.5146 3.21467 31.3073C1.18165 27.8799 0.0754329 23.9823 0.00439453 19.998C0.00439453 19.6951 0.175765 19.4179 0.446736 19.2825C0.717707 19.147 1.04177 19.1763 1.28418 19.3583C1.40026 19.4428 4.27768 21.4868 9.38365 20.0295C9.66121 19.9408 9.96478 20.0108 10.1764 20.2111C10.3877 20.4114 10.4734 20.7113 10.4002 20.9932C10.3269 21.2752 10.1058 21.4949 9.82343 21.5667C7.15693 22.433 4.27402 22.3576 1.65622 21.3532C1.93561 24.4598 2.87779 27.4702 4.41939 30.1821C6.89914 30.5699 11.1058 30.8339 13.959 28.9316C14.2776 28.7192 14.7016 28.762 14.9711 29.0337C15.2407 29.3058 15.2798 29.7302 15.0645 30.0466C13.3303 32.4121 11.0732 34.3448 8.46931 35.6949C9.61617 36.9003 10.8612 38.0087 12.1911 39.0084C16.4827 37.2621 23.5159 33.5967 25.65 27.7239C25.7924 27.3314 26.2124 27.1146 26.6145 27.2256C27.0169 27.3365 27.2663 27.7378 27.1875 28.1476C27.1011 28.5998 25.1333 38.6378 20.4752 43.5574C25.3636 45.3861 30.5348 46.3433 35.7539 46.3861C35.354 44.675 34.8198 41.1992 36.0596 38.0988C36.4145 37.2116 36.8444 36.2591 37.2977 35.247C38.8576 31.7731 40.8005 27.4493 40.8005 23.1976C40.8005 19.5318 36.2449 12.7989 28.8017 12.7989C28.36 12.7989 28.0019 12.4404 28.0019 11.9988C28.0019 11.5572 28.36 11.1987 28.8017 11.1987C37.6009 11.1987 42.4004 19.1254 42.4004 23.1976C42.4004 27.7924 40.3798 32.2898 38.7551 35.9029C38.3087 36.8974 37.8865 37.8374 37.5441 38.6939C36.0754 42.3648 37.5441 46.8981 37.5602 46.9435C37.6412 47.1873 37.5998 47.4554 37.4497 47.6637C37.2992 47.8721 37.0578 47.9955 36.8012 47.9955Z" fill="#006D77"/>
<path d="M27.8499 47.2757H27.8148C27.3732 47.2566 27.0308 46.8835 27.0498 46.4422C27.13 44.4949 27.6507 40.9225 29.6424 34.9432C29.7819 34.5235 30.2356 34.2965 30.6552 34.436C31.0748 34.5755 31.3019 35.0289 31.1624 35.4489C29.2289 41.2491 28.7287 44.6655 28.6497 46.5111C28.631 46.9388 28.2784 47.276 27.8499 47.2757Z" fill="#006D77"/>
<path d="M7.27086 27.4688C5.39348 27.4625 3.52011 27.2945 1.67165 26.9664C1.24872 26.8785 0.971888 26.4706 1.04659 26.0451C1.12092 25.6196 1.52005 25.3303 1.94738 25.3911C4.52966 25.8426 9.54665 26.3713 14.148 24.8385C14.4194 24.7481 14.7185 24.8096 14.9324 24.9996C15.1466 25.1897 15.2429 25.4793 15.1854 25.7594C15.1276 26.0396 14.9251 26.2681 14.6534 26.3585C12.2677 27.1202 9.77552 27.4951 7.27086 27.4688Z" fill="#006D77"/>
</g>
<defs>
<clipPath id="clip0">
<rect width="48" height="48" fill="white"/>
</clipPath>
</defs>
</svg>
