<svg width="72" height="72" viewBox="0 0 72 72" fill="none" xmlns="http://www.w3.org/2000/svg">
<g clip-path="url(#clip0)">
<path d="M58.8003 36.2822C58.8003 48.8739 48.5927 59.0815 36.001 59.0815C35.3886 59.0815 34.7766 59.0574 34.1647 59.0096C22.3443 58.0291 13.2495 48.1493 13.2495 36.2883C13.2495 24.4266 22.3443 14.5469 34.1647 13.567C34.7651 13.5065 35.377 13.4829 36.001 13.4829C48.5894 13.4906 58.7921 23.6939 58.8003 36.2822Z" fill="#83C5BE"/>
<path d="M55.2002 36.2822C55.1931 48.1861 46.0329 58.0834 34.1647 59.0095C22.3443 58.029 13.2495 48.1493 13.2495 36.2882C13.2495 24.4266 22.3443 14.5468 34.1647 13.5669C46.0329 14.4831 55.1969 24.3788 55.2002 36.2822Z" fill="#A2DED8"/>
<path d="M38.4014 36.2823C38.4014 37.6078 37.3269 38.6823 36.0014 38.6823C34.6759 38.6823 33.6014 37.6078 33.6014 36.2823C33.6014 34.9568 34.6759 33.8823 36.0014 33.8823C37.3269 33.8823 38.4014 34.9568 38.4014 36.2823Z" fill="#FFDDD2"/>
<path d="M61.1519 12.1752L58.668 11.9467L50.1725 11.1667C49.9659 11.148 49.7836 11.0233 49.6907 10.8377C49.5979 10.652 49.6078 10.4317 49.7165 10.2549L53.7484 3.79892L54.708 2.27516C54.8146 2.10158 55.0019 1.99337 55.2057 1.98842C55.4095 1.98403 55.6018 2.0829 55.716 2.25099L61.7039 11.2392C61.8352 11.4309 61.844 11.6819 61.7259 11.8824C61.6073 12.0829 61.3837 12.1972 61.1519 12.1752Z" fill="#83C5BE"/>
<path d="M58.6679 11.9466L50.1725 11.1666C49.9659 11.1479 49.7836 11.0232 49.6907 10.8376C49.5979 10.6519 49.6078 10.4316 49.7165 10.2548L53.7484 3.79883L58.7042 11.2391C58.8503 11.4566 58.836 11.745 58.6679 11.9466Z" fill="#A2DED8"/>
<path d="M22.2852 61.7096L17.2937 69.6893C17.1871 69.8634 16.9998 69.9711 16.796 69.976C16.5922 69.981 16.4 69.8821 16.2857 69.7135L15.4815 68.5017L10.2978 60.7258C10.1665 60.5336 10.1577 60.2825 10.2763 60.082C10.3944 59.8815 10.618 59.7678 10.8498 59.7898L20.3895 60.6654L21.8292 60.7978C22.0363 60.8164 22.2182 60.9411 22.311 61.1268C22.4038 61.3125 22.3939 61.5327 22.2852 61.7096Z" fill="#83C5BE"/>
<path d="M20.3895 60.6654L15.4936 68.4896L15.4815 68.5017L10.2978 60.7258C10.1665 60.5336 10.1577 60.2825 10.2763 60.082C10.3944 59.8815 10.618 59.7678 10.8498 59.7898L20.3895 60.6654Z" fill="#A2DED8"/>
<path d="M15.4815 68.5017L16.2857 69.7135C16.4 69.8821 16.5922 69.981 16.796 69.976C16.9998 69.9711 17.1871 69.8634 17.2937 69.6893L18.5428 67.6926L13.8973 60.7258C13.7655 60.527 13.7655 60.2682 13.8973 60.0694L10.8498 59.7898C10.618 59.7678 10.3944 59.8815 10.2763 60.082C10.1577 60.2825 10.1665 60.5336 10.2978 60.7258L15.4815 68.5017Z" fill="white"/>
<path d="M32.7465 58.8618C32.6949 58.8558 32.6438 58.8464 32.5927 58.8343C32.5515 58.8124 32.5114 58.7877 32.473 58.7613C29.9198 57.8187 27.5457 56.4493 25.4518 54.7113C25.4282 54.6932 25.398 54.686 25.3754 54.6668C25.3485 54.6366 25.3233 54.6047 25.2996 54.5718C23.2612 52.8376 21.5243 50.7772 20.1615 48.474C20.1071 48.4146 20.0587 48.3504 20.0175 48.2817C20.0016 48.2427 19.9884 48.2026 19.9774 48.162C18.6245 45.8005 17.6863 43.2243 17.2035 40.5454C17.1897 40.5129 17.1777 40.48 17.1672 40.4459C17.1601 40.4053 17.1733 40.3668 17.1672 40.3262C16.6761 37.6511 16.6761 34.9084 17.1672 32.2333C17.1672 32.1916 17.1579 32.1531 17.1672 32.1136C17.1771 32.0828 17.1886 32.0526 17.2024 32.0235C17.6847 29.3429 18.6234 26.765 19.9774 24.4025C19.9884 24.3618 20.0016 24.3217 20.0175 24.2822C20.0483 24.2399 20.0824 24.1998 20.1192 24.1624C21.488 21.829 23.2392 19.7422 25.2996 17.9888C25.3233 17.9559 25.3485 17.924 25.3754 17.8938C25.3958 17.8757 25.4232 17.8724 25.4457 17.8554C27.5408 16.1141 29.9171 14.7425 32.473 13.7993C32.5114 13.7729 32.5515 13.7482 32.5927 13.7263C32.6378 13.7164 32.6828 13.7098 32.7284 13.7059C34.7147 12.9929 36.8146 13.6422 39.0009 13.4791C38.401 13.4346 37.8078 13.3879 37.2008 13.3879C34.3653 13.3879 31.6556 12.7985 29.1288 13.7059C29.0832 13.7098 29.0376 13.7164 28.9931 13.7263C28.9519 13.7482 28.9118 13.7729 28.8728 13.7993C26.3175 14.7425 23.9412 16.1141 21.8462 17.8554C21.8231 17.8724 21.7956 17.8757 21.7753 17.8938C21.7484 17.924 21.7231 17.9559 21.6995 17.9888C19.6396 19.7422 17.8885 21.829 16.5196 24.1624C16.4822 24.1998 16.4482 24.2399 16.4174 24.2822C16.4015 24.3217 16.3883 24.3618 16.3779 24.4025C15.0227 26.7667 14.084 29.3462 13.6023 32.0284C13.5891 32.0575 13.5775 32.0878 13.5676 32.118C13.5605 32.1592 13.5737 32.1976 13.5676 32.2383C13.0766 34.9134 13.0766 37.6555 13.5676 40.3306C13.5676 40.3729 13.5578 40.4113 13.5676 40.4509C13.5775 40.4844 13.5896 40.5179 13.6034 40.5503C14.0867 43.2276 15.0249 45.8016 16.3779 48.162C16.3883 48.2026 16.4015 48.2427 16.4174 48.2817C16.4597 48.3509 16.5092 48.4152 16.5652 48.474C17.9269 50.7766 19.6621 52.8376 21.6995 54.5718C21.7231 54.6047 21.7484 54.6366 21.7753 54.6668C21.7978 54.686 21.828 54.6932 21.8522 54.7113C23.9456 56.4493 26.3202 57.8187 28.8728 58.7613C28.9118 58.7877 28.9519 58.8124 28.9931 58.8343C29.0437 58.8464 29.0948 58.8558 29.1469 58.8618C31.6666 59.7643 34.3724 59.1727 37.2008 59.1727C37.8078 59.1727 38.401 59.126 39.0009 59.0815C36.8207 58.9184 34.7267 59.5699 32.7465 58.8618Z" fill="white"/>
<path d="M17.2299 8.43128C7.96707 14.6746 2.41034 25.1119 2.4021 36.2825H0.00219727C0.0104368 24.3121 5.96596 13.1284 15.8929 6.43896L17.2299 8.43128Z" fill="white"/>
<path d="M13.5798 11.2769C14.7289 10.2448 15.9484 9.29395 17.2299 8.43099C20.8558 5.96628 24.9344 4.24532 29.2294 3.36698C33.6941 2.46064 38.295 2.46064 42.7592 3.36698C44.918 3.81576 47.0289 4.47108 49.0625 5.32304C49.6832 5.59055 50.2792 5.87399 50.8625 6.16293L48.183 10.4469C47.9595 10.8007 47.9364 11.2451 48.1221 11.6197C48.3077 11.9943 48.6746 12.2459 49.0916 12.2827L62.2913 13.4829H62.4C62.8428 13.4829 63.2498 13.239 63.4585 12.849C63.6673 12.4585 63.6442 11.985 63.3987 11.6169L56.199 0.817125C55.9688 0.482601 55.5887 0.282655 55.1822 0.283204C54.7752 0.289247 54.3989 0.501826 54.183 0.847337L52.138 4.12282C51.4503 3.77511 50.7439 3.434 50.0012 3.11375C47.8232 2.19972 45.5629 1.49661 43.2514 1.01487C38.4659 0.0431595 33.5348 0.0431595 28.7493 1.01487C24.1472 1.95473 19.7775 3.79818 15.8929 6.43868C14.5185 7.36315 13.2106 8.3832 11.9786 9.49059C11.7352 9.70317 11.5886 10.0064 11.5737 10.3294C11.5583 10.6529 11.6759 10.9682 11.8984 11.2028C12.3493 11.6719 13.0887 11.7043 13.5798 11.2769ZM55.2328 3.69437L60.01 10.8606L51.2503 10.0641L53.6189 6.28267V6.27553L55.2328 3.69437Z" fill="#006D77"/>
<path d="M8.67785 14.7522C8.92999 14.9434 9.24255 15.0368 9.55841 15.0148C10.2011 14.9522 10.6774 14.3897 10.6323 13.7453L10.5928 13.5212C10.5724 13.4427 10.5422 13.3674 10.5027 13.2965C10.4752 13.2257 10.4368 13.1592 10.389 13.0999C10.3401 13.0362 10.2863 12.9763 10.228 12.9208C9.87042 12.5802 9.33264 12.5121 8.90088 12.7527C8.46032 12.9823 8.19775 13.4504 8.23126 13.9458C8.25103 14.1035 8.30157 14.2551 8.38012 14.3935C8.45483 14.5314 8.55591 14.6534 8.67785 14.7522Z" fill="#006D77"/>
<path d="M2.83153 50.282C3.10619 50.8621 3.78897 51.123 4.38057 50.8742C4.97271 50.6259 5.26384 49.9552 5.04192 49.3532C4.18776 47.3191 3.53135 45.207 3.08202 43.0472C1.41983 34.9252 2.81725 26.4759 7.00623 19.3217L7.60606 18.333C7.94498 17.7777 7.78898 17.0542 7.25231 16.6878C6.98425 16.5071 6.65467 16.4434 6.33883 16.5115C6.02353 16.5796 5.74888 16.773 5.57914 17.0476L4.93261 18.1061C0.44482 25.7738 -1.05038 34.8296 0.733753 43.5333C1.21604 45.8448 1.9186 48.1046 2.83153 50.282Z" fill="#006D77"/>
<path d="M69.1701 21.6823C68.9086 21.0791 68.211 20.799 67.6051 21.0533C66.9992 21.3076 66.7108 22.002 66.9575 22.6106C67.8116 24.6452 68.4675 26.7567 68.9174 28.9166C69.8276 33.3802 69.8276 37.9817 68.9174 42.4453C67.1399 51.054 62.061 58.6244 54.7696 63.5346C51.1436 65.9994 47.0651 67.7203 42.7701 68.5981C38.3054 69.505 33.7044 69.505 29.2402 68.5981C27.082 68.1488 24.9722 67.4935 22.9392 66.6409C22.319 66.3734 21.7225 66.0905 21.1391 65.8011L23.8175 61.516C24.0384 61.1628 24.0603 60.72 23.8752 60.3465C23.6901 59.9735 23.3243 59.723 22.909 59.6851L9.70928 58.4849C9.24896 58.4426 8.80513 58.6689 8.56893 59.0661C8.33218 59.4638 8.34536 59.9614 8.60189 60.3459L15.8016 71.1458C16.0246 71.4803 16.3998 71.6813 16.8013 71.6813H16.8194C17.2265 71.6747 17.6033 71.4627 17.8192 71.1172L19.8587 67.8434C20.5464 68.1916 21.2534 68.5322 21.9961 68.853C24.1735 69.7659 26.4339 70.4679 28.7459 70.9491C33.5303 71.9258 38.463 71.9258 43.2474 70.9491C50.1434 69.516 56.4702 66.0999 61.4524 61.1216C64.7295 57.8323 67.3491 53.9482 69.1701 49.6774C70.0836 47.4994 70.7856 45.2391 71.2679 42.9276C72.244 38.1426 72.244 33.2105 71.2679 28.426C70.7856 26.1162 70.083 23.858 69.1701 21.6823ZM16.7689 68.2696L11.9916 61.1034L20.7519 61.8999L18.3827 65.6813V65.6884L16.7689 68.2696Z" fill="#006D77"/>
<path d="M59.632 32.2362C59.632 32.1939 59.6413 32.1555 59.632 32.1159C59.6221 32.0764 59.6056 32.0583 59.5968 32.0269C59.1162 29.3453 58.1785 26.7663 56.824 24.4026C56.813 24.362 56.7998 24.3219 56.7844 24.2823C56.7537 24.24 56.7201 24.1999 56.6833 24.1626C55.3145 21.8286 53.5628 19.7413 51.5018 17.9873C51.4787 17.9544 51.4534 17.9231 51.4265 17.8929C51.4046 17.8747 51.3782 17.8709 51.3557 17.8544C49.2606 16.1131 46.8843 14.7415 44.3284 13.7984C44.29 13.772 44.2499 13.7473 44.2087 13.7253C44.1642 13.716 44.1192 13.7094 44.0741 13.705C38.8607 11.8028 33.1425 11.8028 27.9285 13.705C27.8829 13.7088 27.8379 13.7154 27.7928 13.7253C27.7516 13.7473 27.7115 13.772 27.6731 13.7984C25.1172 14.7415 22.7409 16.1131 20.6459 17.8544C20.6233 17.8709 20.5959 17.8747 20.575 17.8929C20.5481 17.9231 20.5234 17.9544 20.4997 17.9873C18.4393 19.7413 16.6881 21.8286 15.3193 24.1626C15.2825 24.1999 15.2484 24.24 15.2171 24.2823C15.2017 24.3219 15.1885 24.362 15.1776 24.4026C13.823 26.7668 12.8842 29.3464 12.4025 32.0286C12.3888 32.0577 12.3772 32.0879 12.3673 32.1181C12.3602 32.1593 12.3734 32.1978 12.3673 32.2384C11.8763 34.9135 11.8763 37.6556 12.3673 40.3307C12.3673 40.373 12.358 40.4115 12.3673 40.451C12.3778 40.4845 12.3899 40.5181 12.4036 40.5505C12.8864 43.2278 13.8252 45.8018 15.1776 48.1621C15.1885 48.2028 15.2017 48.2429 15.2171 48.2819C15.26 48.3511 15.3094 48.4154 15.3649 48.4741C16.7271 50.7768 18.4624 52.8378 20.4997 54.5719C20.5234 54.6049 20.5481 54.6367 20.575 54.667C20.5981 54.6862 20.6283 54.6933 20.6519 54.7115C22.7458 56.4494 25.1199 57.8189 27.6731 58.7615C27.7115 58.7878 27.7516 58.8125 27.7928 58.8345C27.8439 58.8466 27.895 58.8559 27.9466 58.862C33.1491 60.7549 38.8525 60.7549 44.0549 58.862C44.1065 58.8559 44.1582 58.8466 44.2087 58.8345C44.2499 58.8125 44.29 58.7878 44.3284 58.7615C46.8816 57.8189 49.2557 56.4494 51.3496 54.7115C51.3738 54.6933 51.4035 54.6862 51.4265 54.667C51.4534 54.6367 51.4787 54.6049 51.5018 54.5719C53.5408 52.8378 55.2771 50.7774 56.6405 48.4741C56.6949 48.4148 56.7432 48.3505 56.7844 48.2819C56.7998 48.2429 56.813 48.2028 56.824 48.1621C58.1769 45.8007 59.1157 43.2245 59.5979 40.5455C59.6117 40.5131 59.6238 40.4801 59.6342 40.4461C59.6413 40.4054 59.6281 40.367 59.6342 40.3263C60.1253 37.6512 60.1253 34.9086 59.6342 32.2335L59.632 32.2362ZM50.7602 52.0078L50.0308 51.1377C49.7588 50.7977 49.3238 50.6318 48.8942 50.7043C48.4647 50.7768 48.1082 51.0762 47.9632 51.4865C47.8176 51.8974 47.9055 52.3544 48.1939 52.6812L48.9223 53.5486C47.5561 54.5824 46.0725 55.4497 44.5015 56.1319L44.1043 55.0416C43.8659 54.4363 43.1892 54.1314 42.5778 54.3533C41.967 54.5758 41.644 55.2443 41.8494 55.8611L42.2466 56.9532C40.6053 57.442 38.9112 57.7332 37.2007 57.8205V56.6818C37.2007 56.0188 36.6635 55.4816 36.001 55.4816C35.338 55.4816 34.8008 56.0188 34.8008 56.6818V57.8205C33.0897 57.7337 31.3957 57.442 29.7538 56.9532L30.151 55.8611C30.3108 55.4552 30.2378 54.9943 29.9604 54.6576C29.6824 54.3209 29.2441 54.1616 28.8151 54.2413C28.3861 54.3209 28.0345 54.6274 27.8961 55.0416L27.4989 56.1319C25.9279 55.4497 24.4443 54.5824 23.0782 53.5486L23.8065 52.6812C24.0944 52.3544 24.1828 51.8974 24.0372 51.4865C23.8917 51.0762 23.5357 50.7768 23.1062 50.7043C22.6766 50.6318 22.2416 50.7977 21.9697 51.1377L21.2402 52.0078C19.99 50.8378 18.8826 49.5244 17.94 48.0946L18.9337 47.5211C19.3078 47.3085 19.5396 46.9114 19.5407 46.4807C19.5412 46.0501 19.3116 45.6518 18.9381 45.4376C18.5651 45.2228 18.1053 45.225 17.7335 45.4431L16.7447 46.0155C15.9697 44.4868 15.3802 42.8707 14.9891 41.2019L16.1196 41.0031C16.7727 40.8877 17.2083 40.2648 17.093 39.6123C16.9776 38.9591 16.3547 38.5235 15.7021 38.6389L14.5667 38.8394C14.3459 37.1393 14.3459 35.4178 14.5667 33.7177L15.7021 33.9182C15.7714 33.9303 15.8417 33.9363 15.912 33.9363C16.5349 33.9369 17.054 33.4606 17.1084 32.8405C17.1622 32.2203 16.7332 31.6617 16.1196 31.5545L14.9891 31.3623C15.3802 29.6952 15.9697 28.0802 16.7447 26.5532L17.7335 27.1255C18.1053 27.3431 18.5651 27.3453 18.9381 27.1305C19.3116 26.9162 19.5412 26.518 19.5407 26.0873C19.5396 25.6567 19.3078 25.2596 18.9337 25.047L17.94 24.4735C18.8831 23.0448 19.9911 21.7319 21.2413 20.5625L21.9708 21.4326C22.2427 21.7726 22.6777 21.9385 23.1073 21.866C23.5368 21.7935 23.8933 21.4941 24.0389 21.0838C24.1839 20.6734 24.096 20.2164 23.8082 19.8896L23.0798 19.0217C24.4454 17.9884 25.929 17.1211 27.5 16.4383L27.8972 17.5292C28.0356 17.9434 28.3872 18.2494 28.8162 18.3296C29.2452 18.4092 29.6841 18.2499 29.9615 17.9132C30.2394 17.5765 30.3119 17.1156 30.1521 16.7097L29.7549 15.6177C31.3962 15.1266 33.0903 14.8333 34.8008 14.7443V15.883C34.8008 16.5454 35.338 17.0826 36.001 17.0826C36.6635 17.0826 37.2007 16.5454 37.2007 15.883V14.7443C38.9118 14.8311 40.6058 15.1222 42.2477 15.6116L41.8505 16.7036C41.6907 17.1096 41.7638 17.5704 42.0412 17.9072C42.3191 18.2439 42.7574 18.4032 43.1865 18.3235C43.6155 18.2433 43.9676 17.9374 44.1054 17.5232L44.5026 16.4323C46.0736 17.1151 47.5572 17.9824 48.9234 19.0162L48.195 19.8835C47.9072 20.2104 47.8187 20.6674 47.9643 21.0777C48.1098 21.488 48.4663 21.7874 48.8953 21.8599C49.3249 21.9324 49.7599 21.7665 50.0318 21.4265L50.7602 20.5625C52.0104 21.733 53.1178 23.0464 54.0604 24.4757L53.0667 25.0492C52.6927 25.2623 52.4609 25.6594 52.4598 26.0901C52.4587 26.5207 52.6888 26.9184 53.0623 27.1332C53.4353 27.3474 53.8951 27.3453 54.267 27.1277L55.2557 26.5554C56.0308 28.0819 56.6207 29.6957 57.0124 31.3623L55.8819 31.5617C55.2689 31.6688 54.8393 32.2274 54.8937 32.8476C54.9475 33.4678 55.4666 33.944 56.0895 33.9435C56.1599 33.9435 56.2302 33.9374 56.2994 33.9253L57.4348 33.7254C57.6556 35.4249 57.6556 37.1464 57.4348 38.8465L56.2994 38.646C55.877 38.5719 55.4474 38.7279 55.1717 39.0564C54.8959 39.3848 54.8163 39.8353 54.9624 40.2385C55.109 40.6411 55.4595 40.9355 55.8819 41.0102L57.0124 41.2091C56.6213 42.8768 56.0319 44.4917 55.2568 46.0188L54.2681 45.4464C53.8962 45.2289 53.437 45.2267 53.0634 45.4409C52.6899 45.6557 52.4603 46.0539 52.4609 46.484C52.462 46.9147 52.6938 47.3118 53.0678 47.5249L54.0615 48.0984C53.1184 49.5266 52.0104 50.8389 50.7602 52.0078Z" fill="#006D77"/>
<path d="M48.0005 35.082H39.3798C39.0167 34.0658 38.2169 33.2661 37.2007 32.903V20.6826C37.2007 20.0196 36.6635 19.4824 36.001 19.4824C35.338 19.4824 34.8008 20.0196 34.8008 20.6826V32.903C33.221 33.4583 32.2345 35.0315 32.4229 36.6953C32.6107 38.3592 33.9241 39.672 35.5879 39.8604C37.2518 40.0483 38.825 39.0617 39.3798 37.4819H48.0005C48.663 37.4819 49.2002 36.9447 49.2002 36.2823C49.2002 35.6193 48.663 35.082 48.0005 35.082ZM36.001 37.4819C35.338 37.4819 34.8008 36.9447 34.8008 36.2823C34.8008 35.6193 35.338 35.082 36.001 35.082C36.6635 35.082 37.2007 35.6193 37.2007 36.2823C37.2007 36.9447 36.6635 37.4819 36.001 37.4819Z" fill="#006D77"/>
</g>
<defs>
<clipPath id="clip0">
<rect width="72" height="72" fill="white"/>
</clipPath>
</defs>
</svg>
