<svg width="72" height="72" viewBox="0 0 72 72" fill="none" xmlns="http://www.w3.org/2000/svg">
<g clip-path="url(#clip0)">
<path d="M26.4 26.4002V63.6002H2.3999L2.40004 26.4002C2.38773 23.8018 3.23113 21.2716 4.80004 19.2002H24C25.5579 21.2773 26.4 23.8038 26.4 26.4002Z" fill="#FFDDD2"/>
<path d="M22.8 26.4002V63.6002H2.3999L2.40004 26.4002C2.38773 23.8018 3.23113 21.2716 4.80003 19.2002H20.4C21.9579 21.2773 22.8 23.8038 22.8 26.4002Z" fill="#A2DED8"/>
<path d="M26.4 63.6001V68.4001C26.4 69.7256 25.3254 70.8001 24 70.8001H4.79996C3.47448 70.8001 2.39996 69.7256 2.39996 68.4001V63.6001H26.4Z" fill="#83C5BE"/>
<path d="M70.8001 57.3604C70.8001 67.2004 60.7201 71.3284 51.0001 70.8004C42.6001 70.2724 34.8001 66.0004 34.8001 57.4204C34.8001 54.3484 35.1121 50.0764 36.3361 47.2564C36.4357 47.0145 36.6806 46.865 36.9413 46.887C37.2019 46.909 37.4184 47.0973 37.4761 47.3524C38.0641 49.8964 39.5881 51.5404 42.1681 51.5404C47.0761 51.5404 45.4321 45.6604 43.8001 42.3004C42.4201 39.4804 40.4641 34.2724 45.2521 30.1804C47.5441 28.2244 50.6881 25.8844 52.2961 23.1604C52.3976 22.9771 52.5906 22.8633 52.8001 22.8633C53.0097 22.8633 53.2027 22.9771 53.3041 23.1604C54.9001 25.8724 58.1041 28.2484 60.3481 30.1804C65.1481 34.2724 63.1801 39.4804 61.8001 42.3004C60.4201 45.1204 59.0041 49.8844 61.6921 51.1924C63.346 51.8771 65.246 51.5503 66.5761 50.3524C67.3686 49.5212 67.9059 48.48 68.1241 47.3524C68.1819 47.0973 68.3983 46.909 68.659 46.887C68.9196 46.865 69.1645 47.0145 69.2641 47.2564C69.9601 48.8404 70.8001 51.9484 70.8001 57.3604Z" fill="#A2DED8"/>
<path d="M24 19.2004H4.80005C6.12651 17.4244 7.92165 16.0531 9.98405 15.2405C10.4687 15.0768 10.7963 14.6239 10.8 14.1125V9.16846C11.7112 10.2017 13.0224 10.7936 14.4 10.7936C15.7777 10.7936 17.0889 10.2017 18 9.16846V14.1125C18.0053 14.6133 18.321 15.0582 18.792 15.2285C20.8628 16.0439 22.666 17.4191 24 19.2004Z" fill="#83C5BE"/>
<path d="M19.1999 6.00027C19.2048 8.41534 17.4146 10.458 15.0197 10.7698C12.6248 11.0816 10.3712 9.56557 9.7575 7.22977C9.14378 4.89398 10.3611 2.46593 12.5999 1.56027C14.0779 0.962386 15.7563 1.13739 17.0792 2.02732C18.402 2.91724 19.1967 4.40593 19.1999 6.00027Z" fill="#FFDDD2"/>
<path d="M12.5999 10.4401C10.7993 9.70043 9.62372 7.94661 9.62372 6.00006C9.62372 4.0535 10.7993 2.29969 12.5999 1.56006C14.4004 2.29969 15.576 4.0535 15.576 6.00006C15.576 7.94661 14.4004 9.70043 12.5999 10.4401Z" fill="#A2DED8"/>
<path d="M20.4001 26.4004H8.40007C7.73733 26.4004 7.20007 26.9376 7.20007 27.6004V48.0004C7.20007 48.6631 7.73733 49.2004 8.40007 49.2004H20.4001C21.0628 49.2004 21.6001 48.6631 21.6001 48.0004V27.6004C21.6001 26.9376 21.0628 26.4004 20.4001 26.4004Z" fill="white"/>
<path d="M46.3081 15.9722L45.3361 20.4002C45.2622 20.7336 45.0498 21.0199 44.752 21.1871C44.4542 21.3543 44.0992 21.3867 43.7761 21.2762C40.9921 20.3402 42.8401 20.9282 35.8081 18.5642C35.2326 18.3653 34.8972 17.7669 35.0281 17.1722L35.5921 14.5802C35.7231 13.984 36.2809 13.5811 36.8881 13.6442L45.2881 14.5322C45.6205 14.5751 45.9199 14.7551 46.1136 15.0287C46.3074 15.3022 46.3779 15.6443 46.3081 15.9722Z" fill="#83C5BE"/>
<path d="M51 70.5001C44.928 68.4001 44.316 57.6721 47.328 58.2001C47.9233 58.4481 48.5562 58.5941 49.2 58.6321C50.2909 58.6565 51.3308 58.1713 52.0131 57.3197C52.6953 56.4681 52.9418 55.3473 52.68 54.2881C52.579 53.8641 52.7158 53.4188 53.0374 53.1246C53.359 52.8305 53.8147 52.7338 54.228 52.8721C64.548 56.5441 59.46 73.3201 51 70.5001Z" fill="#83C5BE"/>
<path d="M70.8002 57.3603C70.8002 67.2003 60.7202 71.3283 51.0002 70.8003C59.4002 70.2723 67.2002 66.0003 67.2002 57.4203C67.233 55.0492 67.0239 52.681 66.5762 50.3523C67.3687 49.5211 67.906 48.4799 68.1242 47.3523C68.182 47.0972 68.3984 46.9088 68.659 46.8869C68.9197 46.8649 69.1646 47.0144 69.2642 47.2563C69.9602 48.8403 70.8002 51.9483 70.8002 57.3603Z" fill="#FFDDD2"/>
<path d="M61.8002 42.2404C60.4082 45.1084 59.0042 49.8243 61.6922 51.1323C61.1014 51.3706 60.4691 51.4889 59.8322 51.4803C54.9242 51.4803 56.5682 45.6003 58.2002 42.2404C59.5802 39.4204 61.5362 34.2124 56.7482 30.1204C54.7018 28.5252 52.7802 26.7761 51.0002 24.8884C51.4832 24.3311 51.9168 23.7328 52.2962 23.1004C52.3976 22.917 52.5906 22.8032 52.8002 22.8032C53.0097 22.8032 53.2027 22.917 53.3042 23.1004C54.9002 25.8124 58.1042 28.1884 60.3482 30.1204C65.1362 34.2124 63.1802 39.4204 61.8002 42.2404Z" fill="#FFDDD2"/>
<path d="M4.80009 70.8002H8.40009C7.0746 70.8002 6.00009 69.7257 6.00009 68.4002V26.4002C6.00312 21.4706 9.02057 17.0444 13.6081 15.2402C14.0832 15.0684 14.3999 14.6174 14.4001 14.1122V9.19216C13.367 8.02434 12.9655 6.42751 13.3235 4.90997C13.6814 3.39244 14.7541 2.14329 16.2001 1.56016C15.0506 1.06784 13.7496 1.06784 12.6001 1.56016C11.1541 2.14329 10.0814 3.39244 9.72346 4.90997C9.36555 6.42751 9.76702 8.02434 10.8001 9.19216V14.1122C10.7999 14.6174 10.4832 15.0684 10.0081 15.2402C5.42057 17.0444 2.40312 21.4706 2.40009 26.4002V68.4002C2.40009 69.0367 2.65294 69.6471 3.10303 70.0972C3.55312 70.5473 4.16357 70.8002 4.80009 70.8002Z" fill="white"/>
<path d="M2.39983 32.4C1.73709 32.4 1.19983 31.8627 1.19983 31.2C1.19983 30.5373 1.73709 30 2.39983 30C3.06257 30 3.59983 30.5373 3.59983 31.2C3.59983 31.8627 3.06257 32.4 2.39983 32.4Z" fill="#006D77"/>
<path d="M44.472 29.2083C40.56 32.5443 39.972 37.1043 42.72 42.7683C44.124 45.6603 44.616 48.4563 43.92 49.5843C43.812 49.7523 43.476 50.2803 42.168 50.2803C40.32 50.2803 39.132 49.1883 38.64 47.0283C38.4847 46.255 37.8411 45.6749 37.056 45.6003C36.2759 45.5319 35.5401 45.9724 35.232 46.6923C34.488 48.4923 33.6 51.7563 33.6 57.3603C33.6 67.4763 43.2 72.0003 52.8 72.0003C62.4 72.0003 72 67.4763 72 57.3603C72 51.7563 71.112 48.4923 70.368 46.7283C70.0717 45.9942 69.3331 45.5375 68.544 45.6003C67.7695 45.6704 67.1291 46.2332 66.96 46.9923C66.468 49.1523 65.28 50.2443 63.432 50.2443C62.124 50.2443 61.788 49.7163 61.68 49.5483C60.984 48.4203 61.476 45.6243 62.88 42.7323C65.628 37.0683 65.04 32.5083 61.128 29.1723L59.928 28.2123C57.7532 26.6089 55.8525 24.6637 54.3 22.4523C53.9805 21.8995 53.3905 21.5591 52.752 21.5591C52.1135 21.5591 51.5235 21.8995 51.204 22.4523C49.6618 24.6747 47.7692 26.6321 45.6 28.2483L44.472 29.2083ZM46.8 61.2003C46.8064 60.5664 46.9326 59.9393 47.172 59.3523C48.627 60.0322 50.3257 59.9394 51.6979 59.1049C53.0702 58.2705 53.9342 56.805 54 55.2003C54.0108 54.7938 53.9541 54.3882 53.832 54.0003C56.9052 55.028 58.9299 57.9624 58.8 61.2003C58.8 65.8083 56.112 69.6003 52.8 69.6003C49.488 69.6003 46.8 65.8443 46.8 61.2003ZM47.148 30.0603C49.2629 28.468 51.1627 26.6086 52.8 24.5283C54.4349 26.6213 56.3348 28.4929 58.452 30.0963C58.836 30.4203 59.22 30.7323 59.568 31.0443C63.588 34.4643 62.148 38.7723 60.768 41.7243C60 43.2003 57.888 48.0003 59.652 50.8563C60.4823 52.1113 61.9329 52.8113 63.432 52.6803C65.7203 52.745 67.815 51.4025 68.712 49.2963C69.3659 51.9328 69.6645 54.6447 69.6 57.3603C69.6 63.8043 64.692 67.5363 58.656 68.9403C60.357 66.7233 61.254 63.9941 61.2 61.2003C61.3278 56.9371 58.6682 53.0863 54.636 51.6963C53.8019 51.4152 52.8808 51.6132 52.236 52.2123C51.573 52.8189 51.3044 53.7451 51.54 54.6123C51.5865 54.8047 51.6067 55.0025 51.6 55.2003C51.536 56.4787 50.48 57.4819 49.2 57.4803C48.8446 57.4815 48.493 57.4079 48.168 57.2643C47.5573 56.9778 46.8541 56.9616 46.2308 57.2196C45.6075 57.4776 45.1216 57.986 44.892 58.6203C44.5851 59.4468 44.4188 60.3189 44.4 61.2003C44.3542 63.9818 45.2508 66.697 46.944 68.9043C40.944 67.5003 36 63.7683 36 57.3243C35.9355 54.6087 36.2341 51.8967 36.888 49.2603C37.785 51.3665 39.8797 52.709 42.168 52.6443C43.6671 52.7753 45.1177 52.0753 45.948 50.8203C47.712 48.0003 45.6 43.2003 44.88 41.7243C43.452 38.7723 42.012 34.4643 46.08 31.0443C46.38 30.7323 46.8 30.4203 47.148 30.0963V30.0603Z" fill="#006D77"/>
<path d="M1.2 7.20016H6.18L2.856 9.86416C2.34131 10.2763 2.25557 11.0265 2.664 11.5442C2.86226 11.7949 3.1524 11.9562 3.47004 11.9923C3.78769 12.0283 4.10659 11.9361 4.356 11.7362L8.82 8.13616C9.00981 8.65843 9.2724 9.1513 9.6 9.60016V14.1722C4.5446 16.1238 1.20787 20.9811 1.2 26.4002C1.2 27.0629 1.73726 27.6002 2.4 27.6002C3.06274 27.6002 3.6 27.0629 3.6 26.4002C3.59763 24.265 4.22818 22.1771 5.412 20.4002H23.412C24.594 22.1766 25.2168 24.2664 25.2 26.4002V62.4002H3.6V36.0002C3.6 35.3374 3.06274 34.8002 2.4 34.8002C1.73726 34.8002 1.2 35.3374 1.2 36.0002V68.4002C1.2 70.3884 2.81177 72.0002 4.8 72.0002H24C25.9882 72.0002 27.6 70.3884 27.6 68.4002V26.4002C27.6068 23.5036 26.6483 20.6873 24.876 18.3962C24.5345 17.9461 24.1658 17.5173 23.772 17.1122C22.4741 15.804 20.9167 14.7821 19.2 14.1122V9.60016C19.7245 8.88632 20.0888 8.06768 20.268 7.20016H24.084C26.0258 7.20016 27.6 8.77432 27.6 10.7162C27.598 13.433 29.4504 15.8005 32.088 16.4522L33.852 16.8962C33.5916 18.0889 34.2682 19.2871 35.424 19.6802L43.392 22.3922C43.6438 22.4739 43.9072 22.5144 44.172 22.5122C44.5913 22.5187 45.0051 22.4153 45.372 22.2122C45.9821 21.8823 46.4197 21.3047 46.572 20.6282L47.544 16.2242C47.6912 15.5575 47.5476 14.8597 47.1491 14.3055C46.7505 13.7512 46.1348 13.3928 45.456 13.3202L37.056 12.4322C35.8373 12.2995 34.7145 13.1067 34.452 14.3042V14.5442L32.748 14.1122C31.1496 13.7636 30.0074 12.3521 30 10.7162C30 7.44884 27.3513 4.80016 24.084 4.80016H20.28C19.7122 2.00377 17.2535 -0.00585938 14.4 -0.00585938C11.5465 -0.00585938 9.08783 2.00377 8.52 4.80016H1.2C0.537258 4.80016 0 5.33741 0 6.00016C0 6.6629 0.537258 7.20016 1.2 7.20016ZM36.768 14.8322L45.168 15.7202L44.196 20.1242L36.216 17.4242L36.456 16.3322L36.768 14.8322ZM24 69.6002H4.8C4.13726 69.6002 3.6 69.0629 3.6 68.4002V64.8002H25.2V68.4002C25.2 69.0629 24.6627 69.6002 24 69.6002ZM21.18 18.0002H7.608C8.46663 17.3103 9.42572 16.7559 10.452 16.3562C11.384 16.0023 12.0001 15.1091 12 14.1122V11.4962C13.5303 12.164 15.2697 12.164 16.8 11.4962V14.1122C16.8018 15.1121 17.4233 16.0062 18.36 16.3562C19.3807 16.7522 20.3325 17.307 21.18 18.0002ZM14.4 2.40016C16.3882 2.40016 18 4.01193 18 6.00016C18 7.98838 16.3882 9.60016 14.4 9.60016C12.4118 9.60016 10.8 7.98838 10.8 6.00016C10.8 4.01193 12.4118 2.40016 14.4 2.40016Z" fill="#006D77"/>
<path d="M8.39994 50.4002H20.3999C21.7254 50.4002 22.7999 49.3257 22.7999 48.0002V27.6002C22.7999 26.2747 21.7254 25.2002 20.3999 25.2002H8.39994C7.07446 25.2002 5.99994 26.2747 5.99994 27.6002V48.0002C5.99994 49.3257 7.07446 50.4002 8.39994 50.4002ZM8.39994 27.6002H20.3999V48.0002H8.39994V27.6002Z" fill="#006D77"/>
<path d="M7.19994 55.2003H21.5999C22.2627 55.2003 22.7999 54.663 22.7999 54.0003C22.7999 53.3375 22.2627 52.8003 21.5999 52.8003H7.19994C6.5372 52.8003 5.99994 53.3375 5.99994 54.0003C5.99994 54.663 6.5372 55.2003 7.19994 55.2003Z" fill="#006D77"/>
</g>
<defs>
<clipPath id="clip0">
<rect width="72" height="72" fill="white"/>
</clipPath>
</defs>
</svg>
