<svg width="48" height="48" viewBox="0 0 48 48" fill="none" xmlns="http://www.w3.org/2000/svg">
<g clip-path="url(#clip0)">
<path d="M40.8 19.2L24 40.7999L27.312 28.0319L28.352 23.9999L29.6 19.2H40.8Z" fill="#FFDDD2"/>
<path d="M24 40.7999L7.19995 19.2H18.4L24 40.7999Z" fill="#FFDDD2"/>
<path d="M18.4 19.2H7.19995L12.8 10.4L18.4 19.2Z" fill="#83C5BE"/>
<path d="M40.7999 19.2H29.5999L35.1999 10.4L40.7999 19.2Z" fill="#83C5BE"/>
<path d="M24 10.4L18.4 19.2L12.8 10.4H24Z" fill="#FFDDD2"/>
<path d="M29.6001 19.2L28.3521 23.9999L27.3121 28.0319L24.0001 40.7999L18.4001 19.2H29.6001Z" fill="#83C5BE"/>
<path d="M27.2001 19.2L25.9521 23.9999L24.9121 28.0319L22.8 36.1727L24.0001 40.7999L27.3121 28.0319L28.3521 23.9999L29.6001 19.2H27.2001Z" fill="#83C5BE"/>
<path d="M29.6001 19.2H18.4001L24.0001 10.4L29.6001 19.2Z" fill="#83C5BE"/>
<path d="M35.2 10.4L29.6 19.2L24 10.4H35.2Z" fill="#FFDDD2"/>
<path d="M25.2 39.2568L9.59995 19.2L15.2 10.4H12.8L7.19995 19.2L24 40.8L25.2 39.2568Z" fill="white"/>
<path d="M9.05518 22.8822L10.3176 21.8998L14.2472 26.9494L12.9848 27.9318L9.05518 22.8822Z" fill="white"/>
<path d="M11.1624 24.2944C10.9063 24.4926 10.795 24.8258 10.8805 25.1382C10.966 25.4506 11.2315 25.6806 11.5529 25.7208C11.8743 25.761 12.1882 25.6034 12.348 25.3216C12.5078 25.0399 12.4819 24.6896 12.2824 24.4344C12.0112 24.0874 11.5107 24.0248 11.1624 24.2944Z" fill="#006D77"/>
<path d="M0.8 24.7999H3.2C3.64183 24.7999 4 24.4418 4 23.9999C4 23.5581 3.64183 23.2 3.2 23.2H0.8C0.358172 23.2 0 23.5581 0 23.9999C0 24.4418 0.358172 24.7999 0.8 24.7999Z" fill="#006D77"/>
<path d="M44.8 24.7999H47.2C47.6418 24.7999 48 24.4418 48 23.9999C48 23.5581 47.6418 23.2 47.2 23.2H44.8C44.3582 23.2 44 23.5581 44 23.9999C44 24.4418 44.3582 24.7999 44.8 24.7999Z" fill="#006D77"/>
<path d="M24.8002 47.2V44.8C24.8002 44.3582 24.442 44 24.0002 44C23.5584 44 23.2002 44.3582 23.2002 44.8V47.2C23.2002 47.6418 23.5584 48 24.0002 48C24.442 48 24.8002 47.6418 24.8002 47.2Z" fill="#006D77"/>
<path d="M24.0002 4C24.442 4 24.8002 3.64183 24.8002 3.2V0.8C24.8002 0.358172 24.442 0 24.0002 0C23.5584 0 23.2002 0.358172 23.2002 0.8V3.2C23.2002 3.64183 23.5584 4 24.0002 4Z" fill="#006D77"/>
<path d="M8.72629 38.1424L7.02949 39.84C6.81338 40.0389 6.72364 40.3403 6.79574 40.625C6.86783 40.9097 7.09016 41.1321 7.3749 41.2042C7.65964 41.2763 7.96098 41.1865 8.15989 40.9704L9.8567 39.2736C10.1599 38.9597 10.1555 38.4607 9.84695 38.1522C9.53836 37.8436 9.0394 37.8392 8.72549 38.1424H8.72629Z" fill="#006D77"/>
<path d="M38.708 10.092C38.9201 10.092 39.1236 10.0077 39.2736 9.85761L40.9704 8.16001C41.1865 7.9611 41.2762 7.65976 41.2041 7.37502C41.132 7.09028 40.9097 6.86795 40.625 6.79586C40.3402 6.72376 40.0389 6.8135 39.84 7.02961L38.1432 8.72641C37.9145 8.95521 37.8461 9.29924 37.9698 9.59814C38.0936 9.89703 38.3853 10.0919 38.7088 10.092H38.708Z" fill="#006D77"/>
<path d="M40.4049 41.2048C40.7285 41.2047 41.0201 41.0098 41.1439 40.7109C41.2677 40.412 41.1993 40.068 40.9705 39.8392L39.2737 38.1424C38.9598 37.8392 38.4609 37.8436 38.1523 38.1522C37.8437 38.4607 37.8394 38.9597 38.1425 39.2736L39.8401 40.9704C39.9899 41.1203 40.1931 41.2046 40.4049 41.2048Z" fill="#006D77"/>
<path d="M8.72629 9.85761C9.0402 10.1608 9.53916 10.1565 9.84775 9.84787C10.1563 9.53928 10.1607 9.04032 9.85749 8.72641L8.15989 7.02961C7.96098 6.8135 7.65963 6.72376 7.3749 6.79586C7.09016 6.86795 6.86783 7.09028 6.79574 7.37502C6.72364 7.65976 6.81338 7.9611 7.02949 8.16001L8.72629 9.85761Z" fill="#006D77"/>
<path d="M9.05742 22.8912C9.23045 23.1239 9.51588 23.2448 9.80343 23.2071C10.091 23.1694 10.3356 22.979 10.4428 22.7095C10.55 22.4401 10.5029 22.1337 10.3198 21.9088L8.83582 20H17.7814L22.2534 37.252L14.2534 26.9608C14.0779 26.7351 13.7954 26.6202 13.5122 26.6594C13.2291 26.6985 12.9883 26.8858 12.8806 27.1506C12.773 27.4154 12.8147 27.7175 12.9902 27.9432L23.3686 41.2912L23.3742 41.2864C23.523 41.4829 23.7549 41.5988 24.0014 41.5998C24.2479 41.6007 24.4808 41.4866 24.631 41.2912L41.431 19.6912C41.6185 19.45 41.6524 19.1232 41.5182 18.8488C41.5034 18.8229 41.4868 18.798 41.4686 18.7744H41.475L35.875 9.97438C35.7244 9.75025 35.4698 9.61844 35.1998 9.62478V9.59998H12.7998V9.62478C12.5306 9.61755 12.2762 9.74777 12.1246 9.97038L6.52462 18.7704H6.53102C6.51284 18.794 6.49627 18.8189 6.48142 18.8448C6.34728 19.1192 6.38112 19.446 6.56862 19.6872L9.05742 22.8912ZM25.4574 11.2H33.7422L29.5998 17.7096L25.4574 11.2ZM28.1422 18.4H19.8574L23.9998 11.8904L28.1422 18.4ZM18.3998 17.7096L14.2574 11.2H22.5422L18.3998 17.7096ZM25.7462 37.2512L28.0862 28.2304C28.1703 27.9496 28.0941 27.6454 27.8876 27.4374C27.6812 27.2294 27.3775 27.1509 27.0961 27.2329C26.8148 27.3148 26.6007 27.544 26.5382 27.8304L23.9998 37.6128L19.4334 20H28.5654L27.5782 23.7992C27.4942 24.0799 27.5704 24.3842 27.7768 24.5922C27.9833 24.8002 28.2869 24.8786 28.5683 24.7967C28.8497 24.7147 29.0637 24.4855 29.1262 24.1992L30.2182 20H39.1638L25.7462 37.2512ZM39.3422 18.4H31.0574L35.1998 11.8904L39.3422 18.4ZM12.7998 11.8904L16.9422 18.4H8.65742L12.7998 11.8904Z" fill="#006D77"/>
</g>
<defs>
<clipPath id="clip0">
<rect width="48" height="48" fill="white"/>
</clipPath>
</defs>
</svg>
