<svg width="16" height="16" viewBox="0 0 16 16" fill="none" xmlns="http://www.w3.org/2000/svg">
<path d="M15.3073 4.10804H3.75574L2.98011 1.31456C2.89687 1.01471 2.62386 0.807159 2.31261 0.807159H0.69275C0.310144 0.807159 0 1.1173 0 1.49991C0 1.88252 0.310144 2.19266 0.69275 2.19266H1.78601L4.83709 13.1812C4.92033 13.481 5.19334 13.6886 5.50459 13.6886H5.66337C5.63663 13.7878 5.62215 13.892 5.62215 13.9997C5.62215 14.6587 6.15637 15.1929 6.81534 15.1929C7.47432 15.1929 8.00857 14.6587 8.00857 13.9997C8.00857 13.892 7.99406 13.7878 7.96735 13.6886H9.4372C9.41046 13.7878 9.39598 13.892 9.39598 13.9997C9.39598 14.6587 9.93019 15.1929 10.5892 15.1929C11.2481 15.1929 11.7824 14.6587 11.7824 13.9997C11.7824 13.892 11.7679 13.7878 11.7411 13.6886H12.3455C12.7281 13.6886 13.0382 13.3784 13.0382 12.9958C13.0382 12.6132 12.7281 12.3031 12.3455 12.3031H6.03119L5.73417 11.2334H12.8802C13.2981 11.2334 13.6639 10.9525 13.7718 10.5487L15.1222 5.49358H15.3073C15.6899 5.49358 16 5.18343 16 4.80083C16 4.41822 15.6899 4.10804 15.3073 4.10804ZM7.33491 9.33502C7.33491 9.62195 7.10228 9.85458 6.81534 9.85458C6.52841 9.85458 6.29578 9.62195 6.29578 9.33502V6.38636C6.29578 6.09942 6.52841 5.8668 6.81534 5.8668C7.10228 5.8668 7.33491 6.09942 7.33491 6.38636V9.33502ZM9.81842 9.33502C9.81842 9.62195 9.58579 9.85458 9.29885 9.85458C9.01192 9.85458 8.77929 9.62195 8.77929 9.33502V6.38636C8.77929 6.09942 9.01192 5.8668 9.29885 5.8668C9.58579 5.8668 9.81842 6.09942 9.81842 6.38636V9.33502ZM12.3019 9.33502C12.3019 9.62195 12.0693 9.85458 11.7823 9.85458C11.4954 9.85458 11.2628 9.62195 11.2628 9.33502V6.38636C11.2628 6.09942 11.4954 5.8668 11.7823 5.8668C12.0693 5.8668 12.3019 6.09942 12.3019 6.38636V9.33502Z" fill="#ADACB5"/>
</svg>
