<svg width="72" height="72" viewBox="0 0 72 72" fill="none" xmlns="http://www.w3.org/2000/svg">
<g clip-path="url(#clip0)">
<path d="M34.5239 47.2318C34.5239 47.7238 32.3999 50.7598 32.3999 63.5998C27.6904 64.7904 22.7486 64.7034 18.0839 63.3478C3.83992 58.9198 -2.26808 41.4358 3.14392 28.7998C6.67545 31.3647 10.7548 33.0736 15.0599 33.7918C20.7599 34.7038 25.4399 35.7598 29.4599 39.5158C31.6986 41.681 33.4283 44.3165 34.5239 47.2318Z" fill="#FFDDD2"/>
<path d="M30.9239 47.2318C30.9239 47.7238 28.7999 50.7598 28.7999 63.5998C27.1704 64.0045 25.5076 64.2616 23.8319 64.3678C21.8817 64.2619 19.9515 63.9194 18.0839 63.3478C4.27193 59.0518 -1.66807 40.9918 2.39993 28.7998C5.09993 30.3358 7.95593 33.2158 11.4599 33.7918C17.1599 34.7038 21.8399 35.7598 25.8599 39.5158C28.0986 41.681 29.8283 44.3165 30.9239 47.2318Z" fill="#83C5BE"/>
<path d="M37.2 70.7998C36.5918 70.8012 35.9932 70.6484 35.46 70.3558C33.768 69.4678 32.4 67.1998 32.4 63.5998C32.4 50.3158 34.524 47.9998 34.524 47.2318C35.3763 44.9835 36.726 42.9569 38.472 41.3038C43.092 36.9118 48.444 35.6878 54.96 34.6198C59.896 33.7828 64.5635 31.7884 68.58 28.7998C74.64 43.1998 68.088 63.8398 51.504 69.1078C46.8961 70.6181 42.0331 71.1934 37.2 70.7998Z" fill="#A2DED8"/>
<path d="M51.5042 69.1081C47.299 70.4824 42.8797 71.0841 38.4602 70.8841C41.6866 70.6957 44.876 70.099 47.9522 69.1081C63.8402 64.0681 70.5122 44.9161 65.7242 30.7081C66.6962 30.1441 67.6562 29.5081 68.6282 28.8481C74.6402 43.2001 68.0882 63.8401 51.5042 69.1081Z" fill="#83C5BE"/>
<path d="M52.0559 19.7639L36.8519 35.1359C36.5758 35.4135 36.1816 35.5389 35.7959 35.4719C35.2919 35.3999 36.5639 36.5399 19.9559 19.7639C16.8612 16.6563 15.9339 11.995 17.6037 7.93962C19.2736 3.88427 23.2143 1.22733 27.5999 1.19991C30.4563 1.19651 33.1939 2.34258 35.1959 4.37991L36.0479 5.21991L36.8999 4.37991C38.7495 2.4855 41.2406 1.35122 43.8839 1.19991C53.6999 0.695908 58.9679 12.7319 52.0559 19.7639Z" fill="#A2DED8"/>
<path d="M52.056 19.7639L36.852 35.1359C36.5758 35.4134 36.1817 35.5388 35.796 35.4719C35.556 35.4719 35.712 35.6759 34.2 34.1759L48.456 19.7759C51.2911 16.8857 52.3013 12.6676 51.083 8.80665C49.8647 4.9457 46.6164 2.07134 42.636 1.33187C43.0314 1.25506 43.4331 1.21489 43.8359 1.21187C53.7 0.695866 58.968 12.7319 52.056 19.7639Z" fill="#83C5BE"/>
<path d="M27.408 64.3558C25.4673 64.2441 23.5462 63.9058 21.684 63.3478C10.86 59.9998 4.92004 49.2838 4.80004 38.9518C4.6016 36.0573 4.86078 33.1496 5.56804 30.3358C4.75204 29.8558 3.94804 29.3518 3.16804 28.7998C3.16804 28.9198 3.08404 29.0518 3.02404 29.1718C2.83204 29.0518 2.62804 28.9078 2.42404 28.7998C1.38007 32.0763 0.972743 35.5222 1.22404 38.9518C1.33204 49.2838 7.22404 59.9878 18.096 63.3478C21.114 64.242 24.2687 64.5835 27.408 64.3558Z" fill="white"/>
<path d="M35.7962 35.4718C36.1819 35.5387 36.5761 35.4133 36.8522 35.1358L37.8002 34.1758C36.1202 32.5078 32.3522 28.6678 23.5562 19.7758C20.709 16.9069 19.6815 12.6988 20.8863 8.84064C22.091 4.98246 25.3304 2.10673 29.3042 1.36776C18.9962 -0.348237 12.5882 12.3358 19.9562 19.7638C36.2882 36.2878 35.2802 35.3998 35.7962 35.4718Z" fill="white"/>
<path d="M9.02393 59.5077L10.6199 57.7197C12.8847 59.7473 15.5503 61.2764 18.4439 62.2077L17.7239 64.4877C14.5057 63.4586 11.5411 61.7616 9.02393 59.5077Z" fill="white"/>
<path d="M68.916 27.5997C68.5718 27.5027 68.2022 27.5643 67.908 27.7677C64.035 30.6491 59.5374 32.5772 54.78 33.3957C48.336 34.4397 42.6 35.6877 37.632 40.3917C36.4145 41.5676 35.3791 42.9184 34.56 44.3997C33.4645 42.2632 32.0253 40.3214 30.3 38.6517C25.944 34.6077 20.904 33.5277 15.252 32.6517C11.1185 31.9633 7.2026 30.3197 3.81601 27.8517C3.55198 27.6731 3.22772 27.6068 2.91479 27.6676C2.60186 27.7284 2.32598 27.9112 2.14801 28.1757C2.11922 28.2435 2.083 28.3079 2.04001 28.3677C-1.08575 36.3823 -0.465141 45.3745 3.73201 52.8837C4.10401 53.4837 4.40401 54.0837 4.83601 54.6957L6.03601 56.4237C6.92506 57.5347 7.90875 58.5666 8.97601 59.5077C9.47008 59.9475 10.2269 59.9045 10.668 59.4117C11.1078 58.9176 11.0649 58.1608 10.572 57.7197C3.23502 50.7755 0.574008 40.2156 3.74401 30.6237C7.1028 32.8449 10.894 34.3295 14.868 34.9797C20.316 35.8437 24.804 36.8037 28.656 40.3917C30.6571 42.335 32.22 44.6834 33.24 47.2797C31.9449 51.2969 31.281 55.4908 31.272 59.7117C26.7864 53.7281 21.3165 48.5504 15.096 44.3997C14.5459 44.0285 13.7991 44.1736 13.428 44.7237C13.0569 45.2738 13.2019 46.0205 13.752 46.3917C20.311 50.7529 25.9866 56.3145 30.48 62.7837C26.4895 63.5352 22.3779 63.3337 18.48 62.1957C18.0684 62.0671 17.6195 62.1678 17.3024 62.4599C16.9852 62.752 16.8479 63.1912 16.9424 63.6119C17.0368 64.0326 17.3484 64.3711 17.76 64.4997C20.3105 65.2593 22.9589 65.6394 25.62 65.6277C28.0008 65.6384 30.3741 65.3604 32.688 64.7997C32.9236 64.7244 33.1348 64.5877 33.3 64.4037C33.4957 64.1818 33.6025 63.8955 33.6 63.5997C33.6 50.3037 35.784 45.5997 39.3 42.1797C43.752 37.9437 49.116 36.7917 55.164 35.8077C59.7677 35.0325 64.1484 33.2679 68.004 30.6357C70.4877 38.2344 70.0032 46.4915 66.648 53.7477C63.7325 60.4733 58.096 65.643 51.144 67.9677C47.0313 69.2853 42.712 69.8384 38.4 69.5997C42.5606 61.3749 48.7573 54.352 56.4 49.1997C56.7769 48.9657 56.994 48.543 56.9646 48.1003C56.9351 47.6577 56.6638 47.2674 56.2592 47.0856C55.8546 46.9037 55.3826 46.9599 55.032 47.2317C40.32 57.3117 35.7 69.6717 35.508 70.1877C35.3818 70.5338 35.4217 70.9187 35.616 71.2317C35.812 71.5494 36.1446 71.7579 36.516 71.7957C37.86 71.9277 39.192 71.9997 40.524 71.9997C44.371 72.0061 48.1959 71.4192 51.864 70.2597C59.4605 67.7328 65.625 62.0962 68.82 54.7557C72.7323 46.4504 73.0448 36.899 69.684 28.3557C69.5619 27.9964 69.2771 27.7161 68.916 27.5997Z" fill="#006D77"/>
<path d="M13.7041 62.628C13.0413 62.628 12.5041 62.0908 12.5041 61.428C12.5041 60.7653 13.0413 60.228 13.7041 60.228C14.3668 60.228 14.9041 60.7653 14.9041 61.428C14.9041 62.0908 14.3668 62.628 13.7041 62.628Z" fill="#006D77"/>
<path d="M44.4 -7.45017e-05C41.2292 0.0183916 38.2002 1.31654 36 3.59993C33.8055 1.30846 30.7728 0.00877119 27.6 -7.45017e-05C24.4345 -0.0268705 21.3971 1.24883 19.2 3.52793C14.5305 8.25757 14.5305 15.8623 19.2 20.5919L35.148 36.8399C35.3733 37.0671 35.6801 37.1949 36 37.1949C36.32 37.1949 36.6267 37.0671 36.852 36.8399L52.908 20.6039C57.5318 15.8789 57.5318 8.32495 52.908 3.59993C50.6794 1.29311 47.6075 -0.0067069 44.4 -7.45017e-05ZM54 12.0719C54.01 14.6321 53.0046 17.0918 51.204 18.9119L36 34.2959L20.808 18.9119C17.0625 15.121 17.0625 9.02281 20.808 5.23193C22.567 3.41662 24.9883 2.39437 27.516 2.39993C30.0543 2.39426 32.4868 3.41576 34.26 5.23193L35.1 6.07193C35.3253 6.2991 35.632 6.42688 35.952 6.42688C36.272 6.42688 36.5787 6.2991 36.804 6.07193L37.656 5.21993C39.432 3.40932 41.8638 2.39247 44.4 2.39993C46.9411 2.39784 49.376 3.41853 51.156 5.23193C52.973 7.04491 53.996 9.50512 54 12.0719Z" fill="#006D77"/>
<path d="M22.5121 6.92404C19.9877 9.50336 19.7033 13.5316 21.8401 16.44C22.0667 16.7422 22.4224 16.92 22.8001 16.92C23.0584 16.9235 23.3109 16.8436 23.5201 16.692C24.0503 16.2944 24.1578 15.5422 23.7601 15.012C22.3266 13.0557 22.5196 10.3493 24.2161 8.61604C24.5184 8.31165 24.6353 7.86913 24.5228 7.45519C24.4103 7.04124 24.0855 6.71874 23.6708 6.60918C23.256 6.49963 22.8144 6.61965 22.5121 6.92404Z" fill="#006D77"/>
<path d="M29.0519 4.9678C28.5739 4.86835 28.088 4.81213 27.5999 4.7998C26.9372 4.7998 26.3999 5.33706 26.3999 5.99981C26.3999 6.66255 26.9372 7.19981 27.5999 7.19981C27.923 7.1995 28.245 7.23573 28.5599 7.30781H28.8119C29.4746 7.37739 30.0683 6.89655 30.1379 6.23381C30.2075 5.57106 29.7266 4.97739 29.0639 4.9078L29.0519 4.9678Z" fill="#006D77"/>
</g>
<defs>
<clipPath id="clip0">
<rect width="72" height="72" fill="white"/>
</clipPath>
</defs>
</svg>
