<svg width="16" height="20" viewBox="0 0 16 20" fill="none" xmlns="http://www.w3.org/2000/svg">
<path d="M8.00029 0C3.96852 0 0.688477 3.33899 0.688477 7.44318C0.688477 9.73889 1.84957 12.5253 4.13962 15.7251C5.81548 18.0668 7.46689 19.7369 7.53638 19.8069C7.66412 19.9355 7.83216 20 8.00041 20C8.16377 20 8.32724 19.9391 8.45396 19.8171C8.52361 19.75 10.1792 18.1475 11.8582 15.8382C14.1501 12.6858 15.3122 9.86131 15.3122 7.44314C15.3121 3.33899 12.032 0 8.00029 0ZM8.00029 10.6565C6.02919 10.6565 4.42563 9.05291 4.42563 7.08185C4.42563 5.11079 6.02923 3.50719 8.00029 3.50719C9.97135 3.50719 11.5749 5.11079 11.5749 7.08185C11.5749 9.05291 9.97131 10.6565 8.00029 10.6565Z" fill="#006D77"/>
</svg>
