<svg width="16" height="20" viewBox="0 0 16 20" fill="none" xmlns="http://www.w3.org/2000/svg">
<path d="M8.00004 0C3.96828 0 0.688232 3.33899 0.688232 7.44318C0.688232 9.73889 1.84933 12.5253 4.13937 15.7251C5.81523 18.0668 7.46664 19.7369 7.53614 19.8069C7.66387 19.9355 7.83192 20 8.00016 20C8.16352 20 8.327 19.9391 8.45372 19.8171C8.52337 19.75 10.179 18.1475 11.858 15.8382C14.1499 12.6858 15.3119 9.86131 15.3119 7.44314C15.3119 3.33899 12.0317 0 8.00004 0ZM8.00004 10.6565C6.02895 10.6565 4.42539 9.05291 4.42539 7.08185C4.42539 5.11079 6.02899 3.50719 8.00004 3.50719C9.9711 3.50719 11.5747 5.11079 11.5747 7.08185C11.5747 9.05291 9.97106 10.6565 8.00004 10.6565Z" fill="white"/>
</svg>
