<svg width="48" height="48" viewBox="0 0 48 48" fill="none" xmlns="http://www.w3.org/2000/svg">
<g clip-path="url(#clip0)">
<path d="M23.9626 0C16.1774 0 9.84375 6.33362 9.84375 14.1189V33.8811C9.84375 41.6664 16.1774 48 23.9626 48C31.7479 48 38.0815 41.6664 38.0815 33.8811V14.1189C38.0815 6.33362 31.7479 0 23.9626 0ZM35.2017 33.8811C35.2017 40.0781 30.1597 45.1201 23.9626 45.1201C17.7656 45.1201 12.7236 40.0781 12.7236 33.8811V14.1189C12.7236 7.92188 17.7656 2.87988 23.9626 2.87988C30.1597 2.87988 35.2017 7.92188 35.2017 14.1189V33.8811Z" fill="white"/>
<path d="M23.963 9.54858C23.1676 9.54858 22.5231 10.1931 22.5231 10.9885V17.6162C22.5231 18.4113 23.1676 19.0562 23.963 19.0562C24.7581 19.0562 25.403 18.4113 25.403 17.6162V10.9885C25.403 10.1931 24.7584 9.54858 23.963 9.54858Z" fill="white"/>
</g>
<defs>
<clipPath id="clip0">
<rect width="48" height="48" fill="white"/>
</clipPath>
</defs>
</svg>
