<svg width="48" height="48" viewBox="0 0 48 48" fill="none" xmlns="http://www.w3.org/2000/svg">
<g clip-path="url(#clip0)">
<path d="M46.28 47.1999C45.904 47.1839 45.5201 47.1679 45.1441 47.1439C38.28 46.7999 31.584 45.4959 28.664 42.2399C27.0051 40.3734 26.4988 37.7496 27.344 35.3999L29.2 33.7279L29.384 33.5519L26.48 36.1679C26.1283 36.4861 25.6539 36.6325 25.184 36.5679C25.0998 36.5569 25.0168 36.5382 24.936 36.5119C24.6612 36.4284 24.4148 36.2706 24.224 36.0559L24 35.8079C23.4094 35.1461 23.4629 34.1318 24.12 33.5359L24.968 32.7679C24.3023 33.4905 23.1795 33.5439 22.448 32.8879L22.224 32.6399C21.7464 32.0176 21.763 31.1475 22.264 30.5439C18.808 28.6879 14.52 25.1679 10.424 20.6079C3.24005 12.6079 -0.703955 4.34392 1.34404 1.73592C1.4122 1.64759 1.48709 1.56467 1.56805 1.48792C1.63493 1.43266 1.70731 1.3844 1.78405 1.34392L1.76805 1.32792C1.79209 1.30989 1.81919 1.29634 1.84804 1.28792C1.87879 1.27794 1.90831 1.26452 1.93605 1.24792C2.03064 1.19195 2.12963 1.14379 2.23205 1.10392C2.33654 1.06718 2.44346 1.03777 2.55205 1.01592C2.66698 0.983017 2.78489 0.961579 2.90405 0.951915C3.0289 0.938431 3.1545 0.933086 3.28005 0.935915C3.41605 0.935915 3.54405 0.935915 3.68005 0.943915C3.81605 0.951915 3.96005 0.983915 4.11205 1.00792C4.26405 1.03192 4.40005 1.05592 4.55205 1.08792C4.55415 1.08577 4.55704 1.08455 4.56005 1.08455C4.56306 1.08455 4.56594 1.08577 4.56805 1.08792C4.72005 1.12792 4.86405 1.17592 5.01605 1.21592C5.19205 1.27192 5.36005 1.31992 5.53605 1.37592C5.54484 1.37486 5.55365 1.37779 5.56005 1.38392C5.70405 1.43992 5.85605 1.49592 6.00805 1.55992L6.29605 1.67992C6.39205 1.71992 6.49605 1.75992 6.59205 1.80792C6.67161 1.83737 6.74912 1.87211 6.82405 1.91192L7.06405 2.03192C7.28005 2.13592 7.49605 2.23992 7.72005 2.35992C7.99205 2.50392 8.26405 2.65592 8.54405 2.82392C8.66405 2.89592 8.78405 2.96792 8.91205 3.04792C8.98405 3.08792 9.05605 3.13592 9.13605 3.18392C9.21605 3.23192 9.28005 3.27992 9.35205 3.31992C9.48805 3.40792 9.61604 3.48792 9.75205 3.57592C9.88805 3.66392 10.024 3.75192 10.16 3.84792C10.296 3.94392 10.44 4.03992 10.576 4.14392C10.832 4.31992 11.088 4.50392 11.352 4.68792C11.424 4.74392 11.496 4.79192 11.56 4.84792C11.656 4.91992 11.76 4.99992 11.856 5.07992C12.088 5.24792 12.32 5.42392 12.552 5.60792C12.586 5.63218 12.6181 5.65892 12.648 5.68792C12.752 5.76792 12.856 5.84792 12.96 5.93592C12.968 5.93592 12.968 5.94392 12.976 5.95192C13.048 6.01592 13.12 6.07192 13.184 6.12792C13.344 6.25592 13.496 6.38392 13.648 6.51192C13.7023 6.55019 13.7531 6.59301 13.8 6.63992C13.984 6.79192 14.168 6.95192 14.352 7.11192C14.768 7.46392 15.176 7.83992 15.584 8.21592C15.752 8.37592 15.928 8.54392 16.088 8.70392C16.288 8.89592 16.488 9.07992 16.688 9.27192C17.2 9.76792 17.712 10.2799 18.216 10.8159C18.448 11.0559 18.688 11.3039 18.912 11.5519C19.136 11.7999 19.376 12.0559 19.608 12.3119C21.4889 14.3979 23.2237 16.6112 24.8 18.9359C24.976 19.1999 25.152 19.4719 25.328 19.7359C25.504 19.9999 25.656 20.2639 25.816 20.5199C25.976 20.7759 26.136 21.0399 26.28 21.2959C26.424 21.5519 26.576 21.8079 26.712 22.0559C26.848 22.3039 26.984 22.5519 27.112 22.7999C27.496 23.5359 27.8321 24.2479 28.12 24.9199C28.1472 24.9583 28.1662 25.0019 28.176 25.0479C28.1981 25.0918 28.2168 25.1372 28.232 25.1839H28.24C28.8794 24.7987 29.6983 24.894 30.232 25.4159L30.456 25.6639C30.9554 26.3143 30.9219 27.2279 30.376 27.8399C30.3361 27.8959 30.288 27.9519 30.24 28.0079L30.416 27.8559L30.928 27.3919C31.5847 26.8035 32.5936 26.8572 33.184 27.5119L33.408 27.7599C33.9987 28.4187 33.945 29.4312 33.288 30.0239L32.472 30.7679C32.64 30.7279 32.808 30.6959 32.9761 30.6719C33.4886 30.5857 34.0094 30.5589 34.528 30.5919C36.2909 30.6901 37.9426 31.4843 39.12 32.7999C40.1957 34.1312 40.9855 35.6698 41.44 37.3199C41.6241 37.8399 41.8001 38.3679 41.9921 38.8959C42.3534 39.9442 42.8169 40.9544 43.376 41.9119C43.6649 42.4049 43.994 42.8732 44.3601 43.3119C45.0714 44.1857 45.9038 44.9534 46.8321 45.5919C47.1474 45.8218 47.2761 46.2305 47.1494 46.5996C47.0227 46.9687 46.6701 47.2122 46.28 47.1999Z" fill="#83C5BE"/>
<path d="M45.1441 47.144C38.28 46.8 31.584 45.496 28.664 42.24C27.0218 40.3947 26.5075 37.8048 27.32 35.472L27.344 35.4L29.2 33.728L29.384 33.552L26.944 35.752L26.48 36.168C26.1283 36.4862 25.6539 36.6326 25.184 36.568C25.216 36.448 25.256 36.32 25.296 36.2L26.28 35.312L27.152 34.528L27.336 34.352L26.272 35.304L24.936 36.512C24.6612 36.4285 24.4148 36.2707 24.224 36.056L24 35.808C23.4094 35.1462 23.4629 34.1319 24.12 33.536L24.968 32.768C24.3023 33.4905 23.1795 33.544 22.448 32.888L22.224 32.64C21.7464 32.0177 21.763 31.1476 22.264 30.544C18.808 28.688 14.52 25.168 10.424 20.608C3.24005 12.608 -0.703955 4.34396 1.34404 1.73596C1.44004 1.73596 1.53604 1.73596 1.63204 1.74396C1.76804 1.75996 1.91205 1.78396 2.06404 1.80796C2.21605 1.83196 2.35205 1.85596 2.50405 1.88796C2.50615 1.88581 2.50904 1.8846 2.51205 1.8846C2.51506 1.8846 2.51794 1.88581 2.52005 1.88796C2.66405 1.92796 2.80805 1.97596 2.95205 2.00796C2.96005 2.01596 2.96005 2.01596 2.96805 2.01596C3.14405 2.07196 3.31205 2.11996 3.48805 2.17596C3.49684 2.1749 3.50565 2.17784 3.51205 2.18396C3.65605 2.23996 3.80805 2.29596 3.96005 2.35996L4.24805 2.47996C4.34405 2.51996 4.44805 2.55996 4.54405 2.60796C4.62361 2.63741 4.70112 2.67216 4.77605 2.71196L5.01605 2.83196C5.23205 2.93596 5.44805 3.03996 5.67205 3.15996C5.94405 3.30396 6.21605 3.45596 6.49605 3.62396C6.61605 3.69596 6.73605 3.76796 6.86405 3.84796C6.93605 3.88796 7.00805 3.93596 7.08805 3.98396C7.16805 4.03196 7.23205 4.07996 7.30405 4.11996C7.44005 4.20796 7.56805 4.28796 7.70405 4.37596C7.84005 4.46396 7.97605 4.55196 8.11205 4.64796C8.24805 4.74396 8.39205 4.83996 8.52805 4.94396C8.78405 5.11996 9.04005 5.30396 9.30405 5.48796C9.37605 5.54396 9.44805 5.59196 9.51205 5.64796C9.60805 5.71996 9.71205 5.79996 9.80805 5.87996C10.04 6.04796 10.272 6.22396 10.504 6.40796C10.538 6.43223 10.5701 6.45897 10.6 6.48796C10.704 6.56796 10.808 6.64796 10.912 6.73596C10.92 6.73596 10.92 6.74396 10.928 6.75196C11 6.81596 11.072 6.87196 11.136 6.92796C11.296 7.05596 11.448 7.18396 11.6 7.31196C11.6543 7.35024 11.7051 7.39306 11.752 7.43996C11.936 7.59196 12.12 7.75196 12.304 7.91196C12.72 8.26396 13.128 8.63996 13.536 9.01596C13.704 9.17596 13.88 9.34396 14.04 9.50396C14.24 9.69596 14.44 9.87996 14.64 10.072C15.152 10.568 15.664 11.08 16.168 11.616C16.4 11.856 16.64 12.104 16.864 12.352C17.088 12.6 17.328 12.856 17.56 13.112C19.4409 15.198 21.1757 17.4112 22.752 19.736C22.928 20 23.104 20.272 23.28 20.536C23.456 20.8 23.608 21.064 23.768 21.32C23.928 21.576 24.088 21.84 24.232 22.096C24.376 22.352 24.528 22.608 24.664 22.856C24.8 23.104 24.936 23.352 25.064 23.6C25.448 24.336 25.784 25.048 26.072 25.72C26.0992 25.7584 26.1182 25.8019 26.128 25.848C26.1501 25.8918 26.1688 25.9373 26.184 25.984H26.192C26.8314 25.5987 27.6503 25.6941 28.184 26.216L28.408 26.464C28.983 27.2596 28.8159 28.369 28.032 28.96L28.88 28.192C29.2836 27.8225 29.8501 27.6892 30.376 27.84C30.392 27.848 30.4 27.848 30.416 27.856C30.432 27.864 30.448 27.864 30.4641 27.872C30.7221 27.9586 30.9535 28.1101 31.136 28.312L31.36 28.56C31.9507 29.2188 31.897 30.2313 31.24 30.824L30.424 31.568C30.592 31.528 30.76 31.496 30.928 31.472C31.4406 31.3857 31.9614 31.3589 32.48 31.392C34.2429 31.4901 35.8946 32.2843 37.072 33.6C38.1477 34.9312 38.9375 36.4699 39.3921 38.12C39.576 38.64 39.752 39.168 39.944 39.696C40.3054 40.7442 40.7689 41.7544 41.328 42.712C41.6169 43.205 41.946 43.6732 42.312 44.112C42.9565 44.9091 43.7044 45.6167 44.536 46.216C44.616 46.272 44.696 46.336 44.784 46.392C45.0315 46.5588 45.1692 46.8466 45.1441 47.144Z" fill="white"/>
<path d="M44.536 46.2159C38.656 45.6799 33.256 44.3279 30.72 41.4959C29.0611 39.6295 28.5547 37.0057 29.4 34.6559L31.256 32.9839L31.44 32.8079L28.536 35.4239C28.1843 35.7421 27.7098 35.8886 27.24 35.8239C27.272 35.7039 27.312 35.5759 27.352 35.4559L29.208 33.7839L29.392 33.6079L27.32 35.4719L26.992 35.7679C26.976 35.7599 26.96 35.7599 26.944 35.7519C26.6874 35.6671 26.4581 35.5152 26.28 35.3119L26.272 35.3039L26.056 35.0639C25.4653 34.4021 25.5189 33.3878 26.176 32.7919L27.024 32.0239C26.3582 32.7465 25.2354 32.8 24.504 32.1439L24.28 31.8959C23.8023 31.2736 23.8189 30.4036 24.32 29.7999C20.864 27.9439 16.576 24.4239 12.48 19.8639C6.05597 12.7119 2.22397 5.35193 2.95197 2.00793C2.95997 2.01593 2.95997 2.01593 2.96797 2.01593C3.14397 2.07193 3.31197 2.11993 3.48797 2.17593C3.49676 2.17488 3.50557 2.17781 3.51197 2.18393C3.65597 2.23993 3.80797 2.29593 3.95997 2.35993L4.24797 2.47993C4.34397 2.51993 4.44797 2.55993 4.54397 2.60793C4.62353 2.63738 4.70104 2.67213 4.77597 2.71193L5.01597 2.83193C5.23197 2.93593 5.44797 3.03993 5.67197 3.15993C5.94397 3.30393 6.21597 3.45593 6.49597 3.62393C6.61597 3.69593 6.73597 3.76793 6.86397 3.84793C6.93597 3.88793 7.00797 3.93593 7.08797 3.98393C7.16797 4.03193 7.23197 4.07993 7.30397 4.11993C7.43997 4.20793 7.56797 4.28793 7.70397 4.37593C7.83997 4.46393 7.97597 4.55193 8.11197 4.64793C8.24797 4.74393 8.39197 4.83993 8.52797 4.94393C8.78397 5.11993 9.03997 5.30393 9.30397 5.48793C9.37597 5.54393 9.44797 5.59193 9.51197 5.64793C9.60797 5.71993 9.71197 5.79993 9.80797 5.87993C10.04 6.04793 10.272 6.22393 10.504 6.40793C10.5379 6.4322 10.57 6.45894 10.6 6.48793C10.704 6.56793 10.808 6.64793 10.912 6.73593C10.92 6.73593 10.92 6.74393 10.928 6.75193C11 6.81593 11.072 6.87193 11.136 6.92793C11.296 7.05593 11.448 7.18393 11.6 7.31193C11.6542 7.35021 11.705 7.39303 11.752 7.43993C11.936 7.59193 12.12 7.75193 12.304 7.91193C12.72 8.26393 13.128 8.63994 13.536 9.01593C13.704 9.17593 13.88 9.34393 14.04 9.50393C14.24 9.69593 14.44 9.87993 14.64 10.0719C15.152 10.5679 15.664 11.0799 16.168 11.6159C16.4 11.8559 16.64 12.1039 16.864 12.3519C17.088 12.5999 17.328 12.8559 17.56 13.1119C19.4409 15.1979 21.1756 17.4112 22.752 19.7359C22.928 19.9999 23.104 20.2719 23.28 20.5359C23.456 20.7999 23.608 21.0639 23.768 21.3199C23.928 21.5759 24.088 21.8399 24.232 22.0959C24.376 22.3519 24.528 22.6079 24.664 22.8559C24.8 23.1039 24.936 23.3519 25.064 23.5999C25.448 24.3359 25.784 25.0479 26.072 25.7199C26.0991 25.7584 26.1182 25.8019 26.128 25.8479C26.15 25.8918 26.1687 25.9373 26.184 25.9839H26.192C26.8313 25.5987 27.6502 25.6941 28.184 26.2159L28.408 26.4639C28.9829 27.2596 28.8158 28.369 28.032 28.9599L28.88 28.1919C29.2835 27.8225 29.85 27.6892 30.376 27.8399C30.392 27.8479 30.4 27.8479 30.416 27.8559C30.3197 27.9872 30.2097 28.1079 30.088 28.2159L30.464 27.8719C30.722 27.9585 30.9534 28.1101 31.136 28.3119L31.36 28.5599C31.9506 29.2188 31.897 30.2313 31.24 30.8239L30.424 31.5679C30.592 31.5279 30.76 31.4959 30.928 31.4719C31.4405 31.3857 31.9613 31.3589 32.48 31.3919C34.2428 31.4901 35.8945 32.2843 37.072 33.5999C38.1477 34.9312 38.9374 36.4699 39.392 38.1199C39.576 38.6399 39.752 39.1679 39.944 39.6959C40.3053 40.7442 40.7689 41.7544 41.328 42.7119C41.6168 43.2049 41.9459 43.6732 42.312 44.1119C42.9564 44.9091 43.7043 45.6167 44.536 46.2159Z" fill="#83C5BE"/>
<path d="M12.7679 5.77599C12.8319 5.82399 12.896 5.87999 12.96 5.93599C12.856 5.84799 12.7519 5.76799 12.6479 5.68799C12.6898 5.71469 12.7299 5.74408 12.7679 5.77599Z" fill="#59474E"/>
<path d="M14.3521 7.11189C14.1681 6.95189 13.9841 6.79189 13.8 6.63989C13.904 6.71989 14.008 6.80789 14.1121 6.89589C14.1921 6.95989 14.2721 7.03989 14.3521 7.11189Z" fill="#59474E"/>
<path d="M33.2878 30.024L26.4798 36.168C26.1281 36.4862 25.6536 36.6326 25.1838 36.568C24.8116 36.5216 24.4696 36.3392 24.2238 36.056L23.9998 35.808C23.4091 35.1462 23.4627 34.1319 24.1198 33.536L30.2318 28.016L30.9278 27.392C31.5844 26.8036 32.5933 26.8572 33.1838 27.512L33.4078 27.76C33.9984 28.4188 33.9448 29.4313 33.2878 30.024Z" fill="#83C5BE"/>
<path d="M31.6078 30.6719C31.5273 30.8104 31.4246 30.9347 31.3038 31.0399L25.1838 36.5679C24.8116 36.5215 24.4696 36.3392 24.2238 36.0559L23.9998 35.8079C23.4091 35.1461 23.4627 34.1318 24.1198 33.5359L24.9678 32.7679L26.1278 31.7279V31.7199L28.3358 29.7279L30.2318 28.0159C30.6062 28.0624 30.9506 28.2445 31.1998 28.5279L31.4158 28.7759C31.8838 29.2995 31.9613 30.065 31.6078 30.6719Z" fill="white"/>
<path fill-rule="evenodd" clip-rule="evenodd" d="M46.2799 47.2C45.6239 47.176 44.9679 47.144 44.3119 47.104C37.7439 46.688 31.4639 45.36 28.6639 42.24C27.005 40.3735 26.4987 37.7497 27.3439 35.3999L29.1999 33.7279L29.4079 33.5279L29.6239 33.3279L29.7919 33.1759L29.9119 33.0719L30.4799 32.5599L32.4719 30.7679C32.609 30.7336 32.7479 30.7069 32.8879 30.6879C32.9199 30.6799 32.9439 30.6799 32.9759 30.6719C33.4885 30.5857 34.0092 30.5589 34.5279 30.5919C36.2908 30.6901 37.9425 31.4843 39.1199 32.7999C40.1956 34.1312 40.9854 35.6699 41.4399 37.32C41.6239 37.84 41.7999 38.3679 41.9919 38.8959C42.3532 39.9442 42.8168 40.9544 43.3759 41.912C43.6648 42.4049 43.9939 42.8732 44.3599 43.312C45.0712 44.1857 45.9036 44.9534 46.8319 45.592C47.1473 45.8219 47.276 46.2305 47.1492 46.5996C47.0225 46.9688 46.67 47.2122 46.2799 47.2Z" fill="#FFDDD2"/>
<path fill-rule="evenodd" clip-rule="evenodd" d="M44.3119 47.104C37.7439 46.688 31.4639 45.36 28.6639 42.24C27.005 40.3735 26.4987 37.7497 27.3439 35.4L29.1999 33.728L29.4079 33.528L29.6239 33.328L29.7919 33.176L29.9119 33.072L30.4799 32.56L32.4719 30.768C32.609 30.7336 32.7479 30.7069 32.8879 30.688C34.3701 30.9305 35.7234 31.6764 36.7199 32.8C37.7956 34.1312 38.5854 35.6699 39.0399 37.32C39.2239 37.84 39.3999 38.368 39.5919 38.896C39.9532 39.9443 40.4168 40.9545 40.9759 41.912C41.2648 42.405 41.5939 42.8733 41.9599 43.312C42.6712 44.1857 43.5036 44.9535 44.4319 45.592C44.6829 45.7736 44.8211 46.0729 44.7966 46.3817C44.7721 46.6905 44.5884 46.9643 44.3119 47.104Z" fill="#FFDDD2"/>
<path d="M3.6799 0.943925C3.5439 0.935925 3.4159 0.935925 3.2799 0.935925C3.15435 0.933096 3.02875 0.938441 2.9039 0.951926C2.78474 0.96159 2.66683 0.983027 2.5519 1.01593C2.44332 1.03778 2.33639 1.06719 2.2319 1.10393C2.12948 1.1438 2.03049 1.19196 1.9359 1.24793C1.90817 1.26453 1.87865 1.27795 1.8479 1.28793C2.40225 0.969816 3.04791 0.848579 3.6799 0.943925Z" fill="#7F5B53"/>
<path d="M3.67993 0.94397C3.97462 0.963241 4.2667 1.01147 4.55193 1.08797C4.39993 1.05597 4.25593 1.03197 4.11193 1.00797C3.96793 0.98397 3.81593 0.95997 3.67993 0.94397Z" fill="#7F5B53"/>
<path d="M5.01612 1.21589C5.19212 1.27189 5.36012 1.31989 5.53612 1.37589C5.21896 1.26227 4.8958 1.16612 4.56812 1.08789C4.72012 1.12789 4.86412 1.17589 5.01612 1.21589Z" fill="#7F5B53"/>
<path d="M6.00806 1.55991L6.29606 1.67991C6.05675 1.56687 5.81099 1.46803 5.56006 1.38391C5.70406 1.43991 5.85606 1.49591 6.00806 1.55991Z" fill="#7F5B53"/>
<path d="M7.06397 2.03199C7.27997 2.13599 7.49597 2.23999 7.71997 2.35999C7.41597 2.19199 7.11197 2.03999 6.82397 1.91199L7.06397 2.03199Z" fill="#7F5B53"/>
<path d="M8.54395 2.82397C8.73594 2.93597 8.93594 3.05598 9.13594 3.18398C9.05594 3.13598 8.98394 3.08797 8.91194 3.04797C8.78394 2.96797 8.66394 2.89597 8.54395 2.82397Z" fill="#7F5B53"/>
<path d="M9.35199 3.31996C9.48799 3.40796 9.61599 3.48796 9.75199 3.57596C9.54399 3.43996 9.33599 3.30396 9.13599 3.18396C9.20799 3.23196 9.27999 3.27996 9.35199 3.31996Z" fill="#7F5B53"/>
<path d="M10.1602 3.8479C10.5522 4.1119 10.9522 4.3919 11.3522 4.6879C11.0882 4.5039 10.8322 4.3199 10.5762 4.1439C10.4402 4.0399 10.2962 3.9359 10.1602 3.8479Z" fill="#7F5B53"/>
<path d="M11.5601 4.8479C11.8881 5.0879 12.2161 5.3439 12.5521 5.6079C12.3201 5.4239 12.0881 5.2479 11.8561 5.0799C11.7601 4.9999 11.6561 4.9199 11.5601 4.8479Z" fill="#7F5B53"/>
<path d="M12.9761 5.9519C13.2001 6.1279 13.4241 6.31191 13.6481 6.51191C13.4961 6.38391 13.3441 6.2559 13.1841 6.1279C13.1201 6.0719 13.0481 6.0159 12.9761 5.9519Z" fill="#7F5B53"/>
<path d="M15.584 8.21594C15.952 8.55994 16.32 8.91194 16.688 9.27194C16.488 9.07994 16.288 8.89594 16.088 8.70394C15.928 8.54394 15.752 8.37594 15.584 8.21594Z" fill="#7F5B53"/>
<path d="M27.1118 22.7999C27.4842 23.4887 27.8206 24.1963 28.1198 24.9199C27.8318 24.2479 27.4958 23.5359 27.1118 22.7999Z" fill="#7F5B53"/>
<path d="M28.24 25.184H28.232C28.2168 25.1373 28.1981 25.0918 28.176 25.048C28.2 25.096 28.224 25.144 28.24 25.184Z" fill="#7F5B53"/>
<path d="M30.0719 28.1599L28.3359 29.7279L24.9679 32.7679C24.3021 33.4904 23.1793 33.5439 22.4479 32.8879L22.2239 32.6399C21.7164 31.9643 21.7705 31.021 22.3519 30.4079C22.4309 30.3115 22.5164 30.2206 22.6079 30.1359L27.7119 25.5279C28.3815 24.8111 29.5014 24.7613 30.2319 25.4159L30.4559 25.6639C31.0323 26.4608 30.8612 27.573 30.0719 28.1599Z" fill="#83C5BE"/>
<path d="M28.5039 29.48L28.4959 29.488C28.451 29.5733 28.3974 29.6538 28.3359 29.728L26.1279 31.72L24.9679 32.768C24.3021 33.4906 23.1793 33.544 22.4479 32.888L22.2239 32.64C21.7164 31.9644 21.7705 31.0212 22.3519 30.408L24.4719 28.496L25.7039 27.384C26.3714 26.6652 27.4911 26.6119 28.2239 27.264L28.4479 27.512C28.9031 28.0822 28.926 28.8848 28.5039 29.48Z" fill="white"/>
<path d="M31.608 30.6719L27.48 34.3999C27.1078 34.3535 26.7659 34.1711 26.52 33.8879L26.296 33.6399C25.8194 33.1115 25.7509 32.3312 26.128 31.7279V31.7199C26.203 31.5868 26.3005 31.4677 26.416 31.3679L27.264 30.5999L28.496 29.4879C28.4511 29.5732 28.3975 29.6536 28.336 29.7279L30.232 28.0159C30.6065 28.0624 30.9508 28.2445 31.2 28.5279L31.416 28.7759C31.8841 29.2995 31.9616 30.065 31.608 30.6719Z" fill="#83C5BE"/>
<path d="M28.5039 29.48L28.4959 29.488L27.2639 30.6C26.5982 31.3226 25.4753 31.376 24.7439 30.72L24.5199 30.472C24.0671 29.897 24.0476 29.0923 24.4719 28.496L25.7039 27.384C26.3714 26.6652 27.4911 26.6119 28.2239 27.264L28.4479 27.512C28.9031 28.0822 28.926 28.8848 28.5039 29.48Z" fill="#83C5BE"/>
<path d="M42.4281 43.5327C30.5032 43.5327 29.1056 33.3031 29.092 33.1951C29.0531 32.9094 29.1711 32.6248 29.4006 32.4503C29.6302 32.2758 29.936 32.2384 30.2009 32.3524C30.4658 32.4663 30.6489 32.714 30.68 33.0007C30.7304 33.3935 32.0568 42.6551 43.8121 41.8847C44.0243 41.868 44.2343 41.9377 44.3945 42.0779C44.5547 42.2181 44.6516 42.417 44.6633 42.6295C44.6775 42.8414 44.6069 43.0503 44.4671 43.2101C44.3272 43.3699 44.1296 43.4676 43.9177 43.4815C43.4051 43.5162 42.9086 43.5333 42.4281 43.5327Z" fill="#FFDDD2"/>
<path d="M41.7337 38.9391H41.6953C38.7521 38.8007 36.4841 37.8719 34.9529 36.1815C33.6439 34.6781 32.9345 32.7452 32.9601 30.7519C32.9833 30.3101 33.3603 29.9707 33.8021 29.9939C34.244 30.0171 34.5833 30.3941 34.5601 30.8359C34.5489 31.0839 34.3681 36.9903 41.7737 37.3399C42.2156 37.3501 42.5655 37.7165 42.5553 38.1583C42.5452 38.6002 42.1788 38.9501 41.7369 38.9399L41.7337 38.9391Z" fill="#FFDDD2"/>
<path d="M2.10157 2.07998C1.69108 2.57221 1.5111 3.21669 1.60717 3.85038C1.66519 4.64463 1.82407 5.42825 2.07997 6.18238C2.62156 7.77254 3.32161 9.30424 4.16957 10.7544C6.11865 14.0924 8.41399 17.2158 11.0176 20.0728L9.82717 21.1424C7.14634 18.1991 4.7834 14.9813 2.77757 11.5424C1.87645 9.99679 1.13349 8.36426 0.559967 6.66958C0.259012 5.7805 0.0737567 4.85637 0.00876674 3.91998C-0.0187213 3.40541 0.0289807 2.88958 0.150367 2.38878C0.290654 1.81392 0.596643 1.29291 1.03037 0.890381L2.10157 2.07998Z" fill="white"/>
<path d="M1.00074 5.26958C1.41269 5.17949 1.69381 4.7977 1.65754 4.37758C1.45015 3.58399 1.61341 2.73917 2.10154 2.07998L1.02954 0.890381C0.513633 1.38801 0.177403 2.04275 0.0735445 2.75198C-0.0176789 3.35978 -0.0176789 3.97778 0.0735445 4.58558C0.0949163 4.80424 0.20807 5.00357 0.384872 5.134C0.561673 5.26442 0.785516 5.3137 1.00074 5.26958Z" fill="#006D77"/>
<path d="M9.82703 21.1424L11.0174 20.0728C8.41385 17.2158 6.11852 14.0924 4.16943 10.7544C4.0393 10.5277 3.91317 10.2995 3.79103 10.0696C3.57918 9.69141 3.10764 9.54632 2.71983 9.73999C2.52899 9.83746 2.38579 10.0081 2.32293 10.213C2.26007 10.4178 2.28291 10.6394 2.38623 10.8272C2.51423 11.0688 2.64597 11.3075 2.78143 11.5432C4.78606 14.9817 7.14765 18.1992 9.82703 21.1424Z" fill="#006D77"/>
<path d="M2.46648 7.26233C2.39001 7.07157 2.24346 6.91729 2.05688 6.83113L1.91128 6.78393C1.85905 6.77045 1.80521 6.76425 1.75128 6.76553C1.70102 6.75908 1.6501 6.75989 1.60008 6.76793C1.54732 6.77708 1.49521 6.78964 1.44408 6.80553C1.2431 6.87701 1.07858 7.02513 0.986479 7.21753C0.945516 7.31699 0.924583 7.42356 0.924879 7.53113C0.920471 7.86281 1.11258 8.16572 1.41448 8.30313C1.51288 8.34207 1.61833 8.36006 1.72408 8.35593C1.82914 8.35625 1.93315 8.33502 2.02968 8.29353C2.22105 8.20567 2.374 8.05131 2.46008 7.85913C2.53854 7.66835 2.54083 7.45475 2.46648 7.26233Z" fill="#006D77"/>
<path d="M28.2719 26.0639C27.9449 26.0637 27.6509 25.8645 27.5295 25.5607C26.0423 21.8519 22.9391 17.2191 19.0143 12.8495C13.2919 6.47993 6.89752 1.90313 3.46392 1.72313C2.98134 1.65509 2.49159 1.783 2.10392 2.07833C1.89307 2.27777 1.59075 2.34738 1.31391 2.26021C1.03708 2.17305 0.82917 1.9428 0.77062 1.65853C0.712069 1.37427 0.812064 1.0806 1.03192 0.89113C1.73109 0.303515 2.63994 0.0269607 3.54792 0.12553C7.43272 0.32873 14.1263 5.01273 20.2047 11.7807C24.2495 16.2839 27.4607 21.0895 29.0143 24.9655C29.1134 25.2121 29.0837 25.4918 28.9349 25.7119C28.7861 25.9321 28.5376 26.064 28.2719 26.0639Z" fill="#006D77"/>
<path d="M22.3608 31.3984C22.2302 31.3982 22.1017 31.366 21.9864 31.3048C18.3064 29.3512 13.8736 25.6472 9.82641 21.1448C9.53954 20.8151 9.57026 20.3163 9.89543 20.0243C10.2206 19.7324 10.7199 19.7554 11.0168 20.076C14.9424 24.4464 19.2136 28.0256 22.736 29.8952C23.0604 30.0676 23.2257 30.4388 23.1367 30.7953C23.0477 31.1517 22.7274 31.4018 22.36 31.4016L22.3608 31.3984Z" fill="#006D77"/>
<path d="M24.3633 33.5664C24.3201 33.5664 24.2785 33.5664 24.2353 33.5664C23.5983 33.5346 23.0006 33.2488 22.5761 32.7728L22.3537 32.5256C21.4703 31.5378 21.5496 30.0222 22.5313 29.132L26.7201 25.3528C27.1932 24.9266 27.8162 24.7058 28.4521 24.7391C29.088 24.7724 29.6845 25.0571 30.1105 25.5304L30.3321 25.7784C31.2162 26.7658 31.1372 28.2818 30.1553 29.172L25.9705 32.9488C25.5307 33.3482 24.9574 33.5685 24.3633 33.5664ZM28.3209 26.3344C28.1236 26.3341 27.9333 26.4074 27.7873 26.54L23.6001 30.32C23.2713 30.6184 23.2452 31.1263 23.5417 31.4568L23.7633 31.7048C23.9046 31.863 24.1034 31.9581 24.3153 31.9688C24.5269 31.9818 24.7347 31.9078 24.8905 31.764L29.0753 27.9872C29.4037 27.6886 29.4297 27.181 29.1337 26.8504L28.9121 26.6032C28.7703 26.445 28.5714 26.3498 28.3593 26.3384L28.3209 26.3344Z" fill="#006D77"/>
<path d="M25.4142 37.3831C25.371 37.3831 25.3278 37.3831 25.2846 37.3831C24.648 37.3513 24.0508 37.0657 23.6262 36.5903L23.4046 36.3423C22.52 35.3548 22.5998 33.8381 23.583 32.9487L30.391 26.8031C30.8641 26.3767 31.4873 26.1558 32.1234 26.1891C32.7595 26.2224 33.3562 26.5072 33.7822 26.9807L34.0038 27.2279C34.8879 28.2154 34.8089 29.7313 33.827 30.6215L27.0174 36.7679C26.5782 37.1654 26.0065 37.3847 25.4142 37.3831ZM31.9998 27.7815C31.8028 27.7812 31.6127 27.8545 31.467 27.9871L24.6574 34.1335C24.3288 34.4319 24.3024 34.9395 24.5982 35.2703L24.8198 35.5175C24.9616 35.6757 25.1605 35.771 25.3726 35.7823C25.5843 35.7914 25.7912 35.7177 25.9494 35.5767L32.7574 29.4311C33.0865 29.133 33.1129 28.625 32.8166 28.2943L32.5942 28.0463C32.453 27.8879 32.2541 27.7928 32.0422 27.7823L31.9998 27.7815Z" fill="#006D77"/>
<path d="M14.9599 21.1664C14.7328 21.1663 14.5164 21.0698 14.3647 20.9008C13.9543 20.4448 13.8279 20.2936 13.6007 20.0208L13.2007 19.5408C13.0149 19.323 12.9594 19.0226 13.0552 18.7528C13.1509 18.483 13.3833 18.2848 13.6648 18.2328C13.9463 18.1808 14.2341 18.283 14.4199 18.5008L14.8311 18.988C15.0479 19.2464 15.1679 19.388 15.5591 19.8256C15.77 20.0605 15.823 20.3975 15.6944 20.6858C15.5658 20.9742 15.2796 21.1599 14.9639 21.16L14.9599 21.1664Z" fill="white"/>
<path d="M11.52 17.1271C11.2795 17.1276 11.0515 17.0197 10.8992 16.8335C7.60404 12.7999 4.94644 9.0927 4.91924 9.0559C4.6621 8.69648 4.74501 8.19665 5.10444 7.9395C5.46387 7.68236 5.9637 7.76528 6.22084 8.1247C6.24724 8.1615 8.87684 11.8287 12.1344 15.8215C12.3295 16.0607 12.3696 16.3907 12.2375 16.6696C12.1054 16.9485 11.8246 17.1265 11.516 17.1271H11.52Z" fill="white"/>
<path d="M46.32 47.9999H46.2568C37.0016 47.6639 30.8832 45.9063 28.072 42.7775C26.2232 40.6898 25.6545 37.7625 26.5872 35.1343C26.7377 34.7251 27.1884 34.5118 27.6004 34.6549C28.0124 34.7979 28.2338 35.2446 28.0984 35.6591C27.3572 37.737 27.8029 40.0535 29.2624 41.7079C31.7336 44.4623 37.6304 46.0847 46.312 46.3999C46.336 46.3999 46.372 46.3999 46.392 46.3375C46.412 46.2751 46.392 46.2655 46.368 46.2503C42.8008 43.7511 41.7488 40.6743 40.8192 37.9599C40.3752 36.2789 39.5956 34.7052 38.5272 33.3335C37.0439 31.7077 34.7915 31.0212 32.6536 31.5431C32.2232 31.6445 31.7922 31.3779 31.6908 30.9475C31.5894 30.5172 31.856 30.0861 32.2864 29.9847C34.9941 29.3305 37.8431 30.2049 39.7176 32.2655C40.9398 33.7906 41.8308 35.5537 42.3336 37.4423C43.224 40.0471 44.1464 42.7399 47.2864 44.9399C47.8832 45.3636 48.1383 46.1241 47.9179 46.822C47.6975 47.5199 47.0519 47.9958 46.32 47.9999Z" fill="#006D77"/>
</g>
<defs>
<clipPath id="clip0">
<rect width="48" height="48" fill="white"/>
</clipPath>
</defs>
</svg>
