<svg width="72" height="72" viewBox="0 0 72 72" fill="none" xmlns="http://www.w3.org/2000/svg">
<path d="M22.8 3.60016V17.9999H1.20032V3.60016C1.20416 2.27631 2.27643 1.20404 3.60028 1.2002H20.4C21.7239 1.20404 22.7961 2.27631 22.8 3.60016Z" fill="#A2DED8"/>
<path d="M22.8 18V19.704L22.0919 34.7997H1.20032V18H22.8Z" fill="#A2DED8"/>
<path d="M22.0919 34.7998L20.4 70.7998H3.60028C2.27643 70.796 1.20416 69.7237 1.20032 68.3998V34.7998H22.0919Z" fill="#A2DED8"/>
<path d="M34.8723 49.2001H9.11975L28.4282 38.0522L34.8723 49.2001Z" fill="#83C5BE"/>
<path d="M53.772 48.3483L52.296 49.2003H34.8723L28.4282 38.0525L42.9719 29.6523L53.772 48.3483Z" fill="#83C5BE"/>
<path d="M66.2399 41.1484L53.772 48.3483L53.22 47.3881L42.9719 29.6523L54.3719 23.0764L55.4398 22.4524C55.9918 22.1305 56.6488 22.0426 57.2663 22.2069C57.8831 22.3711 58.4094 22.7749 58.728 23.328L67.1281 37.8723C67.4456 38.4243 67.5302 39.0797 67.3638 39.6943C67.1968 40.309 66.7925 40.832 66.2399 41.1484Z" fill="#FFDDD2"/>
<path d="M62.8682 41.8199L53.22 47.3878L42.9719 29.652L54.3719 23.0762C54.7861 23.2772 55.1289 23.5997 55.3563 24.0001L63.7559 38.5438C64.0734 39.0959 64.158 39.7518 63.9915 40.3659C63.8251 40.9806 63.4208 41.5035 62.8682 41.8199Z" fill="#83C5BE"/>
<path d="M49.5478 16.5602L42.348 29.028L23.652 18.2279L30.8519 5.76007C31.1683 5.20746 31.6912 4.80317 32.3059 4.63617C32.9206 4.46973 33.5759 4.55433 34.128 4.87183L48.6722 13.272C49.2254 13.5906 49.6291 14.1168 49.7934 14.7337C49.9576 15.3511 49.8697 16.0081 49.5478 16.5602Z" fill="#A2DED8"/>
<path d="M42.348 29.0281L41.496 30.5042L26.4722 39.3119L26.4123 39.2163L15.2518 32.7723L22.8 19.704L23.652 18.228L42.348 29.0281Z" fill="#A2DED8"/>
<path d="M26.4721 39.3121L9.59985 49.2003H5.77222L15.2518 32.7725L26.4122 39.2165L26.4721 39.3121Z" fill="#A2DED8"/>
<path d="M20.4 49.2002V70.7999H3.60028C2.27643 70.796 1.20416 69.7238 1.20032 68.3999V51.6002C1.20416 50.2763 2.27643 49.204 3.60028 49.2002H20.4Z" fill="white"/>
<path d="M20.4 49.2002H37.2003V70.7999H20.4V49.2002Z" fill="#A2DED8"/>
<path d="M37.2003 49.2002H54.0001V70.7999H37.2003V49.2002Z" fill="#A2DED8"/>
<path d="M70.7997 51.6002V68.3999C70.7959 69.7238 69.7236 70.796 68.3998 70.7999H54V49.2002H68.3998C69.7236 49.204 70.7959 50.2763 70.7997 51.6002Z" fill="#83C5BE"/>
<path d="M67.2001 51.6002V68.3999C67.1962 69.7238 66.124 70.796 64.8001 70.7999H54V49.2002H64.8001C66.124 49.204 67.1962 50.2763 67.2001 51.6002Z" fill="#A2DED8"/>
<path d="M15.6 60.0001C15.6 61.9881 13.9883 63.5998 11.9998 63.5998C10.0118 63.5998 8.40015 61.9881 8.40015 60.0001C8.40015 58.0116 10.0118 56.3999 11.9998 56.3999C13.9883 56.3999 15.6 58.0116 15.6 60.0001Z" fill="#FFDDD2"/>
<path d="M3.60028 70.7997H7.19995C5.8761 70.7958 4.80383 69.7236 4.79999 68.3997V3.60016C4.80383 2.27631 5.8761 1.20404 7.19995 1.2002H3.60028C2.27643 1.20404 1.20416 2.27631 1.20032 3.60016V68.3997C1.20416 69.7236 2.27643 70.7958 3.60028 70.7997Z" fill="white"/>
<path d="M2.39996 3.6001V51.5999H0V3.6001H2.39996Z" fill="white"/>
<path d="M1.20026 9.59973C1.86218 9.59808 2.39832 9.06195 2.39996 8.40002V3.6001H0V8.40002C0.00164796 9.06195 0.537781 9.59808 1.20026 9.59973Z" fill="#006D77"/>
<path d="M0 51.6001H2.39996V18.0001C2.39996 17.3376 1.86273 16.7998 1.20026 16.7998C0.537231 16.7998 0 17.3376 0 18.0001V51.6001Z" fill="#006D77"/>
<path d="M2.39995 13.2003C2.395 12.8828 2.27086 12.5784 2.05223 12.3483L1.87206 12.2043C1.80504 12.1588 1.73253 12.1225 1.65617 12.0961C1.58806 12.0615 1.515 12.0374 1.43974 12.0242C1.36064 12.0104 1.28044 12.0027 1.20024 12C0.882187 12.0044 0.577866 12.1291 0.348251 12.3483C-0.104935 12.8256 -0.104935 13.5743 0.348251 14.0522C0.462509 14.1605 0.597092 14.2462 0.743759 14.3044C0.888229 14.3659 1.04314 14.3983 1.20024 14.4C1.51775 14.3956 1.82152 14.2709 2.05223 14.0522C2.27086 13.8221 2.395 13.5178 2.39995 13.2003Z" fill="#006D77"/>
<path d="M20.4 72.0001H3.60022C1.61279 71.9979 0.00219727 70.3873 0 68.3999V51.6002C0 50.9371 0.537231 50.3999 1.20026 50.3999C1.86273 50.3999 2.39996 50.9371 2.39996 51.6002V68.3999C2.40106 69.0624 2.93774 69.5991 3.60022 69.6002H20.4C21.063 69.6002 21.6002 70.1374 21.6002 70.7999C21.6002 71.4629 21.063 72.0001 20.4 72.0001Z" fill="#006D77"/>
<path d="M22.7999 20.9042C22.1375 20.9042 21.6002 20.367 21.6002 19.704V3.60022C21.5991 2.93774 21.0624 2.40106 20.4 2.39996H3.60022C2.93774 2.40106 2.40106 2.93774 2.39996 3.60022C2.39996 4.2627 1.86273 4.79993 1.20026 4.79993C0.537231 4.79993 0 4.2627 0 3.60022C0.00219727 1.61279 1.61279 0.00219727 3.60022 0H20.4C22.3874 0.00219727 23.998 1.61279 24.0002 3.60022V19.704C24.0002 20.367 23.463 20.9042 22.7999 20.9042Z" fill="#006D77"/>
<path d="M68.3998 72.0002H3.60022C1.61279 71.998 0.00219727 70.3874 0 68.4V51.6002C0.00219727 49.6128 1.61279 48.0022 3.60022 48H68.3998C70.3872 48.0022 71.9978 49.6128 72 51.6002V68.4C71.9978 70.3874 70.3872 71.998 68.3998 72.0002ZM3.60022 50.4C2.93774 50.4011 2.40106 50.9377 2.39996 51.6002V68.4C2.40106 69.0624 2.93774 69.5991 3.60022 69.6002H68.3998C69.0623 69.5991 69.5989 69.0624 69.6 68.4V51.6002C69.5989 50.9377 69.0623 50.4011 68.3998 50.4H3.60022Z" fill="#006D77"/>
<path d="M52.2972 50.3998C51.754 50.4009 51.2777 50.0361 51.1371 49.511C50.9959 48.9864 51.2255 48.4321 51.6963 48.1607L65.6401 40.1083C65.9181 39.9512 66.1213 39.6897 66.2054 39.3821C66.2894 39.0739 66.2466 38.7455 66.0867 38.4692L57.6893 23.9282C57.5278 23.6502 57.2636 23.4481 56.9538 23.3651C56.6467 23.2822 56.3188 23.3267 56.0452 23.4887L9.72026 50.2394C9.14622 50.5706 8.41179 50.3739 8.08055 49.7999C7.74931 49.2259 7.94597 48.492 8.52 48.1607L54.84 21.4123C55.6651 20.9284 56.6506 20.7965 57.574 21.047C58.4979 21.2926 59.2856 21.8957 59.7641 22.723L68.167 37.2722C68.6443 38.1 68.7718 39.0838 68.5224 40.0067C68.273 40.929 67.6665 41.7145 66.8371 42.1891L52.896 50.2394C52.7142 50.3448 52.5076 50.4003 52.2972 50.3998Z" fill="#006D77"/>
<path d="M5.77115 50.3999C5.34213 50.3999 4.94662 50.1709 4.73239 49.7995C4.51816 49.4288 4.51816 48.9712 4.73239 48.6004L29.8125 5.1599C30.2877 4.33208 31.0721 3.72728 31.9933 3.47789C32.9151 3.2285 33.8972 3.35594 34.7251 3.8311L49.2721 12.2334C50.1015 12.7119 50.7063 13.5007 50.953 14.4263C51.1991 15.3519 51.0667 16.3374 50.5844 17.1647L42.5358 31.1041C42.321 31.4754 41.925 31.7045 41.4965 31.7045C41.0675 31.7045 40.6714 31.4754 40.4566 31.1041C40.2424 30.7328 40.2424 30.2757 40.4566 29.9044L48.5085 15.96C48.6722 15.6853 48.7178 15.3558 48.6354 15.0465C48.5514 14.735 48.347 14.4697 48.0674 14.3088L33.5281 5.91136C33.2523 5.75316 32.925 5.71141 32.6184 5.79491C32.3114 5.8784 32.051 6.08055 31.8933 6.35631L6.81155 49.8001C6.59677 50.172 6.20016 50.4005 5.77115 50.3999Z" fill="#006D77"/>
<path d="M68.3998 72.0002H3.60022C1.61279 71.998 0.00219727 70.3874 0 68.4V51.6002C0.00219727 49.6128 1.61279 48.0022 3.60022 48H68.3998C70.3872 48.0022 71.9978 49.6128 72 51.6002V68.4C71.9978 70.3874 70.3872 71.998 68.3998 72.0002ZM3.60022 50.4C2.93774 50.4011 2.40106 50.9377 2.39996 51.6002V68.4C2.40106 69.0624 2.93774 69.5991 3.60022 69.6002H68.3998C69.0623 69.5991 69.5989 69.0624 69.6 68.4V51.6002C69.5989 50.9377 69.0623 50.4011 68.3998 50.4H3.60022Z" fill="#006D77"/>
<path d="M11.9998 64.8C9.34875 64.8 7.19983 62.6511 7.19983 60.0001C7.19983 57.3491 9.34875 55.2002 11.9998 55.2002C14.6508 55.2002 16.7997 57.3491 16.7997 60.0001C16.7969 62.6495 14.6497 64.7968 11.9998 64.8ZM11.9998 57.6002C10.6743 57.6002 9.59979 58.6746 9.59979 60.0001C9.59979 61.3256 10.6743 62.4001 11.9998 62.4001C13.3253 62.4001 14.3997 61.3256 14.3997 60.0001C14.3986 58.6752 13.3247 57.6013 11.9998 57.6002Z" fill="#006D77"/>
<path d="M20.4 72.0002C19.7375 72.0002 19.2003 71.463 19.2003 70.7999V49.2003C19.2003 48.5372 19.7375 48 20.4 48C21.063 48 21.6003 48.5372 21.6003 49.2003V70.7999C21.6003 71.463 21.063 72.0002 20.4 72.0002Z" fill="#006D77"/>
<path d="M37.2003 72.0002C36.5372 72.0002 36 71.463 36 70.7999V49.2003C36 48.5372 36.5372 48 37.2003 48C37.8627 48 38.4 48.5372 38.4 49.2003V70.7999C38.4 71.463 37.8627 72.0002 37.2003 72.0002Z" fill="#006D77"/>
<path d="M53.9999 72.0002C53.3375 72.0002 52.7997 71.463 52.7997 70.7999V49.2003C52.7997 48.5372 53.3375 48 53.9999 48C54.6624 48 55.2002 48.5372 55.2002 49.2003V70.7999C55.2002 71.463 54.6624 72.0002 53.9999 72.0002Z" fill="#006D77"/>
<path d="M34.8732 50.3999C34.4442 50.4005 34.0476 50.1719 33.8328 49.8006L27.3888 38.6528C27.1652 38.2809 27.1597 37.8178 27.3745 37.4404C27.5887 37.0636 27.9903 36.8318 28.4237 36.834C28.8576 36.8362 29.2564 37.073 29.4668 37.452L35.9108 48.6003C36.1251 48.9711 36.1251 49.4282 35.9108 49.7995C35.6972 50.1708 35.3017 50.3994 34.8732 50.3999Z" fill="#006D77"/>
<path d="M53.7743 49.5532C53.3453 49.5537 52.9487 49.3247 52.7339 48.9533L41.9338 30.2463C41.6026 29.6723 41.7992 28.9384 42.3733 28.6072C42.9473 28.2759 43.6812 28.4726 44.013 29.0466L54.8125 47.7531C55.0268 48.1244 55.0273 48.5814 54.8131 48.9528C54.5989 49.3241 54.2028 49.5526 53.7743 49.5532Z" fill="#006D77"/>
<path d="M26.4107 40.4158C26.2003 40.4158 25.9938 40.3603 25.8119 40.2554L14.652 33.8113C14.078 33.4801 13.8808 32.7457 14.2126 32.1716C14.5438 31.5976 15.2777 31.4009 15.8517 31.7322L27.0116 38.1762C27.4824 38.4476 27.712 39.0018 27.5714 39.527C27.4302 40.0516 26.954 40.4163 26.4107 40.4158Z" fill="#006D77"/>
<path d="M42.3523 30.2266C42.1419 30.2266 41.9354 30.1711 41.7536 30.0662L23.0466 19.2661C22.4726 18.9349 22.2759 18.201 22.6072 17.6269C22.9389 17.0529 23.6728 16.8557 24.2469 17.1875L42.9533 27.987C43.424 28.259 43.6537 28.8127 43.5125 29.3378C43.3719 29.863 42.8956 30.2272 42.3523 30.2266Z" fill="#006D77"/>
<path d="M14.0878 36.0001H1.20026C0.537231 36.0001 0 35.4628 0 34.7998C0 34.1373 0.537231 33.6001 1.20026 33.6001H14.0878C14.7508 33.6001 15.288 34.1373 15.288 34.7998C15.288 35.4628 14.7508 36.0001 14.0878 36.0001Z" fill="#006D77"/>
<path d="M22.7999 19.2003H1.20026C0.537231 19.2003 0 18.6625 0 18.0001C0 17.3376 0.537231 16.7998 1.20026 16.7998H22.7999C23.463 16.7998 24.0002 17.3376 24.0002 18.0001C24.0002 18.6625 23.463 19.2003 22.7999 19.2003Z" fill="#006D77"/>
</svg>
