<svg width="72" height="72" viewBox="0 0 72 72" fill="none" xmlns="http://www.w3.org/2000/svg">
<g clip-path="url(#clip0)">
<path d="M58.044 16.8364L50.184 19.5244C49.7584 19.6724 49.4614 20.0591 49.428 20.5084L48.636 29.1364C48.6162 29.6017 48.2981 30.0009 47.849 30.1241C47.3998 30.2474 46.9226 30.0664 46.668 29.6764L45.204 27.2884L42.48 22.8244C42.237 22.423 41.7541 22.2358 41.304 22.3684L33.612 24.6964C33.163 24.8119 32.6904 24.6279 32.4377 24.2393C32.1849 23.8506 32.2084 23.344 32.496 22.9804L37.656 16.0204C37.9306 15.6641 37.9683 15.1789 37.752 14.7844L35.016 9.93643L33.672 7.54843C33.4425 7.14398 33.4859 6.63987 33.7813 6.28065C34.0766 5.92142 34.5628 5.78137 35.004 5.92843L42.324 8.72443C42.7634 8.87816 43.2518 8.73308 43.536 8.36443L48.804 1.63243C49.0812 1.2497 49.5809 1.10086 50.0223 1.26955C50.4637 1.43825 50.7368 1.8824 50.688 2.35243L50.136 10.8724C50.0933 11.3422 50.3677 11.7832 50.808 11.9524L58.128 14.7484C58.5499 14.9348 58.815 15.3601 58.7965 15.821C58.7779 16.2819 58.4795 16.6846 58.044 16.8364Z" fill="#A2DED8"/>
<path d="M58.128 14.7484L50.808 11.9524C50.3677 11.7832 50.0933 11.3422 50.136 10.8724L50.688 2.35243C50.7367 1.8824 50.4637 1.43825 50.0223 1.26955C49.5808 1.10086 49.0812 1.2497 48.804 1.63243L46.9836 3.96043L46.536 10.8724C46.4933 11.3422 46.7677 11.7832 47.208 11.9524L54.528 14.7484C54.9499 14.9348 55.215 15.3601 55.1965 15.821C55.1779 16.2819 54.8795 16.6846 54.444 16.8364L46.584 19.5244C46.1584 19.6724 45.8614 20.0591 45.828 20.5084L45.2052 27.2908L46.668 29.6764C46.9225 30.0664 47.3998 30.2474 47.8489 30.1241C48.298 30.0009 48.6161 29.6017 48.636 29.1364L49.428 20.5084C49.4614 20.0591 49.7584 19.6724 50.184 19.5244L58.044 16.8364C58.4795 16.6846 58.7779 16.2819 58.7965 15.821C58.815 15.3601 58.5499 14.9348 58.128 14.7484Z" fill="#83C5BE"/>
<path d="M70.2598 41.0881L63.1558 45.4081C62.781 45.6486 62.5761 46.0818 62.6278 46.5241L63.7198 55.1281C63.7908 55.5851 63.563 56.0366 63.1533 56.251C62.7435 56.4653 62.2427 56.395 61.9078 56.0761L60.1078 54.1921L56.3518 50.2801C56.0293 49.937 55.5145 49.8578 55.1038 50.0881L48.0958 54.0121C47.6808 54.2272 47.1746 54.1511 46.8413 53.8233C46.5081 53.4955 46.4235 52.9906 46.6318 52.5721L50.1838 44.6641C50.3638 44.2594 50.2937 43.787 50.0038 43.4521L47.8198 41.0041L44.4718 37.2481C44.1611 36.9043 44.0948 36.4045 44.3052 35.9916C44.5156 35.5787 44.9591 35.3386 45.4198 35.3881L53.1718 36.5401C53.6377 36.6026 54.0901 36.3546 54.2878 35.9281L57.9718 28.2241C58.1625 27.7904 58.6199 27.5382 59.0884 27.6083C59.5569 27.6784 59.9205 28.0536 59.9758 28.5241L61.2598 36.9721C61.3262 37.4368 61.6851 37.8054 62.1478 37.8841L69.8998 39.0361C70.353 39.1248 70.7048 39.4836 70.7846 39.9385C70.8644 40.3933 70.6557 40.8504 70.2598 41.0881Z" fill="#A2DED8"/>
<path d="M69.9 39.0361L62.148 37.8841C61.6853 37.8054 61.3264 37.4368 61.26 36.9721L59.976 28.5241C59.9207 28.0536 59.5572 27.6784 59.0887 27.6083C58.6202 27.5382 58.1627 27.7904 57.972 28.2241L56.7264 30.8293L57.66 36.9721C57.7264 37.4368 58.0853 37.8054 58.548 37.8841L66.3 39.0361C66.7533 39.1248 67.105 39.4836 67.1848 39.9385C67.2646 40.3933 67.056 40.8504 66.66 41.0881L59.556 45.4081C59.1812 45.6486 58.9763 46.0818 59.028 46.5241L59.988 54.0637L60.108 54.1921L61.908 56.0761C62.2429 56.395 62.7437 56.4653 63.1535 56.251C63.5633 56.0366 63.7911 55.5851 63.72 55.1281L62.628 46.5241C62.5763 46.0818 62.7812 45.6486 63.156 45.4081L70.26 41.0881C70.656 40.8504 70.8646 40.3933 70.7848 39.9385C70.705 39.4836 70.3533 39.1248 69.9 39.0361Z" fill="#83C5BE"/>
<path d="M25.524 37.86H18.216C17.7883 37.8592 17.416 38.1521 17.316 38.568L15.48 45.636C15.3624 46.045 14.9931 46.3306 14.5676 46.3416C14.1421 46.3526 13.7586 46.0864 13.62 45.684L10.656 38.388C10.5081 38.0079 10.1513 37.7497 9.74402 37.728L4.80002 37.56L2.19602 37.464C1.77365 37.4505 1.40335 37.1779 1.26493 36.7786C1.12652 36.3793 1.24865 35.936 1.57202 35.664L7.20002 31.308C7.5378 31.0446 7.6602 30.5893 7.50002 30.192L4.76402 22.92C4.6037 22.521 4.72826 22.064 5.06888 21.8016C5.4095 21.5392 5.88309 21.5352 6.22802 21.792L12.576 26.268C12.9256 26.5166 13.3956 26.5118 13.74 26.256L19.368 21.9C19.7128 21.6579 20.1708 21.6524 20.5213 21.886C20.8718 22.1197 21.0429 22.5446 20.952 22.956L19.308 30.324C19.2232 30.7257 19.3831 31.1396 19.716 31.38L25.512 35.676L26.04 36.072C26.3931 36.3085 26.5528 36.7461 26.435 37.1544C26.3171 37.5627 25.9488 37.848 25.524 37.86Z" fill="#A2DED8"/>
<path d="M13.7159 38.5684L12.5507 43.0527L13.6199 45.6843C13.7585 46.0868 14.142 46.3529 14.5674 46.3419C14.9929 46.3309 15.3622 46.0454 15.4799 45.6363L17.3159 38.5684C17.4158 38.1525 17.7882 37.8596 18.2159 37.8604H14.6159C14.1882 37.8596 13.8158 38.1525 13.7159 38.5684Z" fill="#83C5BE"/>
<path d="M26.0399 36.0723L25.5119 35.6763L19.7159 31.3803C19.383 31.14 19.223 30.726 19.3079 30.3243L20.9519 22.9563C21.0427 22.5449 20.8717 22.12 20.5212 21.8864C20.1706 21.6527 19.7126 21.6582 19.3679 21.9003L17.2163 23.5659L15.7079 30.3243C15.623 30.726 15.783 31.14 16.1159 31.3803L21.9119 35.6763L22.4399 36.0723C22.793 36.3088 22.9526 36.7464 22.8348 37.1547C22.717 37.563 22.3487 37.8483 21.9239 37.8603H25.5239C25.9487 37.8483 26.317 37.563 26.4348 37.1547C26.5526 36.7464 26.393 36.3088 26.0399 36.0723Z" fill="#83C5BE"/>
<path d="M60.1081 54.1919C52.2361 55.9079 43.3801 65.8679 39.3841 70.3919C39.0325 70.7747 38.4746 70.8876 38.0019 70.6717C37.5291 70.4559 37.2491 69.9602 37.3081 69.4439C38.3401 52.5479 46.5121 42.5039 47.8201 41.0039L50.0041 43.4519C50.294 43.7868 50.3642 44.2592 50.1841 44.6639L46.6321 52.5719C46.4238 52.9904 46.5084 53.4953 46.8416 53.8231C47.1749 54.1509 47.6811 54.2271 48.0961 54.0119L55.1041 50.0879C55.5148 49.8576 56.0296 49.9368 56.3521 50.2799L60.1081 54.1919Z" fill="#FFDDD2"/>
<path d="M56.3521 50.28C56.0296 49.9369 55.5148 49.8577 55.1041 50.088L53.4541 51.012L56.5081 54.192C49.5577 55.7076 41.8453 63.6444 37.3837 68.592C37.3609 68.8776 37.3261 69.1488 37.3081 69.4392C37.2491 69.9555 37.5291 70.4511 38.0019 70.667C38.4746 70.8829 39.0325 70.7699 39.3841 70.3872C43.3801 65.8632 52.2361 55.9032 60.1081 54.1872L56.3521 50.28Z" fill="#83C5BE"/>
<path d="M45.204 27.288C35.076 36.12 31.764 58.368 30.72 69.624C30.678 70.2479 30.1844 70.7463 29.561 70.7945C28.9376 70.8427 28.3733 70.426 28.236 69.816C26.1174 60.8042 25.098 51.569 25.1999 42.312C25.1999 40.776 25.2479 39.288 25.3439 37.86H25.5239C25.9487 37.848 26.3171 37.5628 26.4349 37.1545C26.5527 36.7462 26.393 36.3085 26.0399 36.072L25.5119 35.676C27.0239 20.004 33.552 11.64 35.016 9.93604L37.752 14.784C37.9682 15.1785 37.9306 15.6637 37.656 16.02L32.496 22.98C32.2083 23.3436 32.1849 23.8502 32.4376 24.2389C32.6904 24.6275 33.163 24.8115 33.612 24.696L41.304 22.368C41.754 22.2354 42.237 22.4226 42.48 22.824L45.204 27.288Z" fill="#FFDDD2"/>
<path d="M42.4801 22.8239C42.2371 22.4225 41.7541 22.2353 41.3041 22.3679L39.0241 23.0579L41.6041 27.2879C32.3785 35.3279 28.8097 54.5063 27.4573 66.3671C27.7165 67.6343 27.9805 68.7863 28.2361 69.8159C28.3734 70.4259 28.9377 70.8426 29.5611 70.7944C30.1845 70.7462 30.6781 70.2478 30.7201 69.6239C31.7641 58.3679 35.0761 36.1199 45.2041 27.2879L42.4801 22.8239Z" fill="#83C5BE"/>
<path d="M22.2358 37.8721C17.3158 44.4721 19.6918 61.9441 20.9638 69.3001C21.0885 69.806 20.8724 70.3346 20.429 70.6083C19.9856 70.882 19.4162 70.8383 19.0198 70.5001C6.01184 58.7041 4.58384 40.7041 4.79984 37.6321V37.5601L9.74384 37.7281C10.1511 37.7498 10.5079 38.008 10.6558 38.3881L13.6198 45.6841C13.7584 46.0865 14.1419 46.3526 14.5674 46.3416C14.9929 46.3307 15.3622 46.0451 15.4798 45.6361L17.3158 38.5681C17.4158 38.1522 17.7881 37.8593 18.2158 37.8601H22.2358V37.8721Z" fill="#FFDDD2"/>
<path d="M22.2361 37.8604H18.6361V37.8724C13.8181 44.3356 15.9949 61.2004 17.2801 68.8072C17.8381 69.382 18.4117 69.9496 19.0189 70.5004C19.4153 70.8386 19.9846 70.8823 20.428 70.6086C20.8714 70.3349 21.0875 69.8063 20.9629 69.3004C19.6909 61.9444 17.3149 44.4724 22.2349 37.8724L22.2361 37.8604Z" fill="#83C5BE"/>
<path d="M1.57202 35.664C1.24865 35.936 1.12652 36.3793 1.26493 36.7786C1.40335 37.1779 1.77365 37.4504 2.19602 37.464L4.80002 37.56C4.80002 48.6888 9.86642 62.1996 19.02 70.5C19.4164 70.8382 19.9858 70.8819 20.4292 70.6082C20.8726 70.3345 21.0887 69.8059 20.964 69.3C20.9352 69.132 20.9112 68.9748 20.8824 68.8092C13.0363 60.2722 8.59486 49.1532 8.40002 37.56L5.79602 37.464C5.37365 37.4504 5.00335 37.1779 4.86493 36.7786C4.72652 36.3793 4.84865 35.936 5.17202 35.664L10.8 31.308C11.1378 31.0446 11.2602 30.5892 11.1 30.192L8.55722 23.4348L6.22802 21.792C5.88309 21.5352 5.4095 21.5392 5.06888 21.8016C4.72826 22.064 4.6037 22.521 4.76402 22.92L7.50002 30.192C7.6602 30.5892 7.5378 31.0446 7.20002 31.308L1.57202 35.664Z" fill="white"/>
<path d="M9.04798 53.2332L6.79918 54.0732C5.66495 51.0009 4.80519 47.8341 4.22998 44.61L6.59398 44.1948C7.14386 47.2741 7.96506 50.2987 9.04798 53.2332Z" fill="white"/>
<path d="M71.9531 39.6553C71.7735 38.717 71.0201 37.9949 70.0751 37.8553L62.4359 36.7153L61.1639 28.3477C61.0282 27.358 60.2559 26.5765 59.2679 26.429C58.2799 26.2816 57.313 26.8036 56.8943 27.7105L53.2343 35.3437L45.5999 34.2001C44.6544 34.0573 43.7224 34.53 43.2791 35.3773C42.801 36.2398 42.9219 37.3106 43.5803 38.0449L46.2551 41.0209C43.7555 44.1481 37.0559 53.8921 36.1103 69.3721C36.0283 70.4293 36.6376 71.4187 37.6187 71.8212C38.5504 72.2092 39.626 71.9529 40.2827 71.1864C43.9283 67.062 52.3223 57.5773 59.7347 55.5421L61.0403 56.9041C61.4553 57.3458 62.0338 57.5975 62.6399 57.6001C62.9765 57.599 63.3086 57.5228 63.6119 57.3769C64.5161 56.9399 65.0385 55.9726 64.9079 54.9769L63.7835 46.4401L70.8851 42.1201C71.7299 41.6099 72.1586 40.6205 71.9531 39.6553ZM38.5055 69.5172C38.9669 59.9019 42.2249 50.6304 47.8799 42.8401L49.0799 44.1817L45.5399 52.0801C45.1231 52.9951 45.3409 54.0743 46.0799 54.7561C46.7865 55.4138 47.8391 55.535 48.6767 55.0549L55.5719 51.1957L57.8831 53.6077C50.1251 56.4337 42.0827 65.5201 38.5055 69.5172ZM62.5355 44.3869C61.7503 44.8686 61.3214 45.7666 61.4399 46.6801L62.5571 55.0237L57.2159 49.4473C56.5116 48.713 55.4002 48.5472 54.5123 49.0441L47.8667 52.7641L51.2771 45.1621C51.656 44.3236 51.5076 43.3408 50.8979 42.6517L48.6287 40.1317C48.6203 40.1233 48.6167 40.1125 48.6083 40.1041H48.6011L45.4643 36.6157L52.9907 37.7389C53.9781 37.8826 54.9428 37.3617 55.3643 36.4573L58.8599 29.1601L60.0755 37.1557C60.2145 38.1444 60.9857 38.9248 61.9727 39.0757L69.4475 40.1905L62.5355 44.3869Z" fill="#006D77"/>
<path d="M2.14796 38.6582L3.58796 38.711C3.66138 40.6894 3.87633 42.66 4.23116 44.6078C4.33181 45.1808 4.82898 45.5991 5.41076 45.6002C5.48074 45.6 5.55059 45.594 5.61956 45.5822C5.93416 45.5285 6.21444 45.3518 6.39842 45.091C6.5824 44.8303 6.65492 44.507 6.59996 44.1926C6.27276 42.409 6.07226 40.6045 5.99996 38.7926L9.59276 38.9222L12.5124 46.1318C12.8489 46.9754 13.6645 47.5297 14.5728 47.5322H14.718C15.6417 47.4815 16.4239 46.8332 16.6452 45.935L18.4308 39.0638H20.172C16.5948 46.613 18.324 61.091 19.824 69.6086C14.984 65.0821 11.2903 59.4692 9.04796 53.2334C8.89791 52.8317 8.54495 52.5405 8.12203 52.4696C7.69911 52.3987 7.2705 52.5588 6.99763 52.8896C6.72477 53.2204 6.64911 53.6717 6.79916 54.0734C9.17524 60.6688 13.087 66.604 18.2112 71.3882C18.9464 72.0685 20.0363 72.1974 20.91 71.7074C21.8388 71.189 22.3366 70.1385 22.1496 69.0914C21.21 63.6914 18.5496 45.869 22.8816 39.065H24.0816C24.0324 40.1246 23.9988 41.2046 23.9988 42.3146C23.8999 51.671 24.9322 61.0051 27.0732 70.1138C27.3322 71.2203 28.3199 72.0022 29.4564 72.0002C29.5248 72.0002 29.592 72.0002 29.6616 71.9918C30.8706 71.9049 31.8325 70.9436 31.92 69.7346C32.7756 60.4946 35.7396 38.5742 44.9628 29.1746L45.6468 30.2966C46.0431 30.961 46.7596 31.368 47.5332 31.3682C47.7096 31.3676 47.8855 31.3475 48.0576 31.3082C49.0355 31.0757 49.7539 30.2421 49.8396 29.2406L50.5728 20.6606L58.434 17.9654C59.3649 17.6475 59.993 16.7758 60 15.7922C60.0267 14.8396 59.4495 13.9739 58.56 13.6322L51.336 10.8746L51.888 2.42778C51.9669 1.43242 51.3801 0.504192 50.4471 0.148586C49.5141 -0.207021 48.4583 0.0951665 47.8548 0.890584L42.6432 7.56018L35.4252 4.80858C34.5317 4.46645 33.5195 4.72913 32.9052 5.46258C32.2531 6.20241 32.1413 7.27415 32.6268 8.13258L33.5748 9.80178C31.3392 12.6146 26.2548 20.3006 24.5628 33.485L20.5104 30.4802L22.1196 23.2154C22.3263 22.2955 21.9269 21.3457 21.1248 20.8502C20.358 20.35 19.3586 20.3905 18.6348 20.951L13.1436 25.2002L6.91676 20.8106C6.14142 20.2587 5.09621 20.2793 4.34321 20.8613C3.59021 21.4433 3.30687 22.4496 3.64556 23.339L6.32516 30.4694L0.831561 34.7174C0.108843 35.2781 -0.180015 36.2347 0.111561 37.1018C0.389281 38.0016 1.20683 38.6264 2.14796 38.6582ZM41.8932 9.84018C42.8264 10.1929 43.8804 9.89086 44.4852 9.09738L49.464 2.73018L48.936 10.8002C48.8601 11.7947 49.4454 12.7213 50.376 13.0802L57.4392 15.773L49.788 18.395C48.9186 18.6981 48.308 19.483 48.228 20.4002L47.5284 28.787L43.5048 22.2002C43.0986 21.5361 42.3764 21.1311 41.598 21.131C41.3787 21.1308 41.1607 21.1636 40.9512 21.2282L33.6624 23.4338L38.6256 16.7402C39.1749 16.0023 39.2406 15.0109 38.7936 14.207L36.1092 9.47178C36.0823 9.41325 36.0506 9.35705 36.0144 9.30378L34.7808 7.13178L41.8932 9.84018ZM36.696 15.305L31.536 22.265C30.9331 23.0699 30.9152 24.1709 31.4916 24.995C32.041 25.7884 33.0427 26.1322 33.9636 25.8434L41.5236 23.5526L43.6716 27.071C33.9408 36.4454 30.6312 57.5642 29.5116 69.5858L29.4048 69.5246C27.3116 60.6078 26.3027 51.4709 26.4 42.3122C26.4 41.1122 26.4384 39.9422 26.4996 38.8046C26.9974 38.5584 27.3766 38.124 27.5532 37.5974C27.8453 36.6983 27.5367 35.7129 26.784 35.141C28.104 22.781 32.6256 15.1682 34.866 12.0794L36.696 15.305ZM7.93556 32.2562C8.69027 31.6707 8.97087 30.6591 8.62556 29.7686L6.16436 23.2154L11.88 27.2402C12.6552 27.8 13.7063 27.7834 14.4636 27.1994L19.6608 23.1782L18.1356 30.065C17.949 30.9248 18.2844 31.8141 18.9924 32.3366L24.8112 36.6566H18.2112C17.2363 36.6568 16.3845 37.3152 16.1388 38.2586L14.4804 44.6426L11.7612 37.9226C11.4324 37.1064 10.6556 36.5588 9.77636 36.5234L2.72636 36.269L7.93556 32.2562Z" fill="#006D77"/>
<path d="M6.47995 50.2863C5.81721 50.2892 5.27753 49.7544 5.27455 49.0916C5.27157 48.4289 5.80641 47.8892 6.46915 47.8862H6.47995C7.14269 47.8862 7.67995 48.4235 7.67995 49.0862C7.67995 49.749 7.14269 50.2863 6.47995 50.2863Z" fill="#006D77"/>
</g>
<defs>
<clipPath id="clip0">
<rect width="72" height="72" fill="white"/>
</clipPath>
</defs>
</svg>
