<svg width="24" height="24" viewBox="0 0 24 24" fill="none" xmlns="http://www.w3.org/2000/svg">
<path d="M14.2566 4.79297L1.5546 17.496C1.4906 17.56 1.4446 17.641 1.4226 17.728L0.014602 23.379C-0.027398 23.549 0.022602 23.73 0.146602 23.854C0.240602 23.948 0.368602 24 0.499602 24C0.539602 24 0.580602 23.995 0.620602 23.985L6.2716 22.577C6.3596 22.555 6.4396 22.509 6.5036 22.445L19.2066 9.74297L14.2566 4.79297Z" fill="white"/>
<path d="M22.3539 3.0611L20.9399 1.6471C19.9949 0.702096 18.3479 0.703096 17.4039 1.6471L15.6719 3.3791L20.6219 8.3291L22.3539 6.5971C22.8259 6.1251 23.0859 5.4971 23.0859 4.8291C23.0859 4.1611 22.8259 3.5331 22.3539 3.0611Z" fill="white"/>
</svg>
