<svg width="72" height="72" viewBox="0 0 72 72" fill="none" xmlns="http://www.w3.org/2000/svg">
<g clip-path="url(#clip0)">
<path d="M68.4001 1.19971H64.9801C66.2537 1.25385 67.2452 2.32569 67.2002 3.59975V68.3997C67.2452 69.6738 66.2539 70.7455 64.9801 70.7998H68.4001C69.7239 70.7958 70.7962 69.7237 70.8002 68.3997V3.59975C70.7962 2.27591 69.7239 1.20364 68.4001 1.19971Z" fill="#83C5BE"/>
<path d="M25.2001 1.19971H25.0201C24.1876 1.21405 23.4369 1.70371 23.088 2.45971C23.5095 1.68585 24.3189 1.20294 25.2001 1.19971ZM23.088 69.5398C23.4368 70.2958 24.1876 70.7854 25.0201 70.7998H25.2001C24.3189 70.7965 23.5095 70.3136 23.088 69.5398Z" fill="#A2DED8"/>
<path d="M64.9801 1.19971H25.2001C24.3189 1.20294 23.5095 1.68585 23.088 2.45971C23.0218 2.57305 22.9694 2.69385 22.9321 2.81971C22.8916 2.91575 22.8633 3.01658 22.8481 3.11966C22.8138 3.2773 22.7977 3.43832 22.8002 3.59961V68.3996C22.7978 68.5609 22.8138 68.7219 22.8481 68.8795C22.8633 68.9826 22.8916 69.0835 22.9321 69.1795C22.9694 69.3054 23.0218 69.4262 23.088 69.5395C23.5095 70.3134 24.3189 70.7963 25.2001 70.7995H64.9801C66.2537 70.7452 67.2451 69.6735 67.2001 68.3995V3.59975C67.2451 2.32569 66.2539 1.25399 64.9801 1.19971ZM48 56.3998C47.9961 57.7236 46.924 58.7959 45.6 58.7998H37.2C35.8762 58.7959 34.8039 57.7238 34.8 56.3998V15.5997C34.8038 14.2759 35.8761 13.2036 37.2 13.1997H45.6C46.9238 13.2036 47.9961 14.2757 48 15.5997V56.3998Z" fill="#FFDDD2"/>
<path d="M50.3999 8.3999H32.3999C31.0761 8.40384 30.0038 9.47597 29.9999 10.7999V61.2C30.0038 62.5238 31.0761 63.5961 32.3999 63.6H50.3999C51.7237 63.5961 52.796 62.5239 52.8 61.2V10.7999C52.796 9.47611 51.7237 8.40384 50.3999 8.3999ZM47.9999 56.4C47.9959 57.7238 46.9238 58.7961 45.5998 58.8H37.1999C35.876 58.7961 34.8038 57.724 34.7998 56.4V15.5999C34.8036 14.2761 35.8759 13.2038 37.1999 13.1999H45.5998C46.9237 13.2038 47.9959 14.2759 47.9999 15.5999V56.4Z" fill="#83C5BE"/>
<path d="M38.6762 49.2C39.3479 49.9451 39.7048 50.9213 39.6723 51.924C39.5113 53.8075 37.9143 55.2418 36.0243 55.2H32.4243C34.3143 55.2418 35.9114 53.8075 36.0723 51.924C36.1049 50.9213 35.7479 49.9451 35.0762 49.2C34.4167 48.4432 33.464 48.0063 32.4602 48H36.0602C37.0641 48.0062 38.0167 48.4432 38.6762 49.2Z" fill="#83C5BE"/>
<path d="M46.8244 37.3796C46.8223 37.4601 46.8143 37.5404 46.8004 37.6197C46.7055 38.3789 46.3591 39.0844 45.8164 39.6237C45.6011 39.8413 45.3591 40.0307 45.0964 40.1878C44.4839 40.58 43.7717 40.7882 43.0444 40.7878L40.8604 40.8119C41.8899 40.8064 42.8709 41.2488 43.5484 42.0239H43.5604C44.7637 43.3937 44.7482 45.4483 43.5244 46.8C42.8296 47.5707 41.8382 48.0075 40.8003 47.9999H37.2003C39.1387 48.0164 40.7466 46.5038 40.8483 44.568C40.8939 43.6369 40.5753 42.7245 39.9602 42.0239H39.9483C39.2708 41.2488 38.2898 40.8065 37.2602 40.8119L39.4443 40.7878C40.1716 40.7882 40.8837 40.58 41.4963 40.1878C41.759 40.0308 42.001 39.8413 42.2163 39.6237C42.759 39.0844 43.1055 38.3789 43.2002 37.6197C43.2142 37.5404 43.2222 37.4602 43.2243 37.3796C43.2343 37.1993 43.2263 37.0184 43.2002 36.8396C43.1247 36.0871 42.814 35.3776 42.3122 34.8117C42.0584 34.5238 41.7583 34.2805 41.4242 34.0917V34.0797C41.2051 33.9605 40.9763 33.8601 40.7401 33.7798C40.4129 33.6802 40.074 33.6238 39.7321 33.6119C39.6929 33.6019 39.6526 33.5979 39.6122 33.5999L37.2002 33.6119V33.5999C38.1549 33.6 39.0702 33.2201 39.7442 32.544C39.7874 32.503 39.8276 32.4589 39.8642 32.4119C40.8227 31.3589 41.0691 29.8393 40.4922 28.5374C39.9154 27.2355 38.6242 26.3972 37.2002 26.3999H40.8002C42.2242 26.3972 43.5152 27.2356 44.0922 28.5374C44.6691 29.8393 44.4228 31.3589 43.4642 32.4119C43.4275 32.4589 43.3874 32.5029 43.3442 32.544C42.6702 33.2201 41.7549 33.6 40.8002 33.5999V33.6119L43.2122 33.5999C43.2526 33.5979 43.2931 33.602 43.3322 33.6119C43.9259 33.6275 44.5068 33.7881 45.0242 34.0799V34.0918C45.3583 34.2807 45.6584 34.524 45.9122 34.8118C46.414 35.3777 46.7247 36.0873 46.8003 36.8398C46.8264 37.0185 46.8344 37.1993 46.8244 37.3796Z" fill="#83C5BE"/>
<path d="M7.58409 23.9758C5.79281 25.7668 4.79058 28.1987 4.80014 30.7318L4.84809 43.5118C4.85414 46.6475 6.11723 49.6497 8.35458 51.8465C10.5919 54.0434 13.6169 55.2512 16.752 55.1999L21.6 55.2118H18L13.152 55.1999C10.0168 55.2513 6.99192 54.0434 4.75458 51.8465C2.51723 49.6497 1.254 46.6473 1.24809 43.5118L1.20014 30.7318C1.19072 28.1987 2.19281 25.7668 3.98409 23.9758L19.2001 10.4038L20.2201 9.49181C20.9229 8.8552 21.8537 8.5305 22.8001 8.59181V10.4038L7.58409 23.9758Z" fill="white"/>
<path d="M43.2239 37.3796C43.2218 37.4601 43.2138 37.5404 43.1999 37.6197C43.105 38.3789 42.7586 39.0844 42.2159 39.6237C42.0006 39.8413 41.7586 40.0307 41.4959 40.1878C40.8834 40.58 40.1713 40.7882 39.4439 40.7878L37.2599 40.8119C38.2894 40.8064 39.2704 41.2488 39.9479 42.0239H39.9599C41.1632 43.3937 41.1478 45.4483 39.9239 46.8C39.2291 47.5707 38.2377 48.0075 37.1999 47.9999H32.4598C33.4636 48.0062 34.4163 48.4433 35.0759 49.1999C35.7475 49.945 36.1044 50.9213 36.0719 51.9239C35.9109 53.8074 34.3139 55.2417 32.4239 55.1999H25.1999L22.7999 55.2119H21.5999L16.7519 55.1999C13.6166 55.2514 10.5918 54.0434 8.35443 51.8466C6.11709 49.6497 4.85399 46.6475 4.84795 43.5119L4.79999 30.7319C4.79057 28.1988 5.79266 25.7668 7.58395 23.9758L22.8 10.4038V16.7038L17.5919 21.6599C16.7679 22.3994 16.1934 23.3762 15.9479 24.4559C15.7439 25.4999 15.9359 26.3999 16.7999 26.3999H37.2C38.624 26.3972 39.915 27.2356 40.492 28.5374C41.0689 29.8393 40.8226 31.3589 39.864 32.4119C39.8273 32.4589 39.7872 32.5029 39.744 32.544C39.07 33.2201 38.1547 33.6 37.2 33.5999V33.6119L39.612 33.5999C39.6524 33.5979 39.6929 33.602 39.7319 33.6119C40.0738 33.6238 40.4127 33.6802 40.7399 33.7798C40.9761 33.8601 41.2049 33.9605 41.4239 34.0797V34.0917C41.7581 34.2805 42.0582 34.5238 42.312 34.8117C42.8137 35.3775 43.1245 36.0871 43.2 36.8398C43.2259 37.0185 43.2339 37.1993 43.2239 37.3796Z" fill="#A2DED8"/>
<path d="M40.7998 34.8001H29.9395C29.2767 34.8001 28.7395 34.2629 28.7395 33.6002C28.7395 32.9374 29.2767 32.4002 29.9395 32.4002H40.7998C42.1253 32.4002 43.1998 31.3257 43.1998 30.0001C43.1998 28.6746 42.1253 27.6001 40.7998 27.6001H33.5998C32.937 27.6001 32.3998 27.0628 32.3998 26.4001C32.3998 25.7374 32.9372 25.2002 33.5998 25.2002H40.7998C43.4507 25.2002 45.5997 27.3492 45.5997 30.0001C45.5997 32.6511 43.4508 34.8001 40.7998 34.8001Z" fill="#006D77"/>
<path d="M68.3998 72H25.1998C23.2125 71.9979 21.602 70.3873 21.5999 68.4V55.3798C21.5999 54.717 22.1372 54.1799 22.7998 54.1799C23.4624 54.1799 23.9998 54.717 23.9998 55.3798V68.4C24.0006 69.0623 24.5374 69.5991 25.1997 69.6H68.3997C69.0622 69.5993 69.5991 69.0625 69.5996 68.4V3.6C69.5989 2.93752 69.0622 2.40061 68.3997 2.40005H25.1998C24.5375 2.40089 24.0007 2.93766 23.9999 3.6V25.2C23.9999 25.8628 23.4627 26.4 22.7999 26.4C22.1372 26.4 21.6 25.8628 21.6 25.2V3.6C21.6021 1.61269 23.2127 0.00210937 25.2 0H68.4C70.3873 0.00210937 71.9978 1.61269 71.9999 3.6V68.4C71.9977 70.3873 70.3871 71.9979 68.3998 72Z" fill="#006D77"/>
<path d="M50.3999 64.8002H32.3999C30.4126 64.7981 28.802 63.1875 28.7999 61.2002V55.3683C28.7999 54.7056 29.3373 54.1684 29.9999 54.1684C30.6626 54.1684 31.1998 54.7057 31.1998 55.3683V61.2002C31.2007 61.8625 31.7374 62.3993 32.3998 62.4001H50.3998C51.0621 62.3993 51.5989 61.8625 51.5997 61.2002V10.8002C51.5989 10.1379 51.0621 9.60109 50.3998 9.60024H32.3998C31.7374 9.60109 31.2007 10.1379 31.1998 10.8002V25.2002C31.1998 25.863 30.6625 26.4001 29.9999 26.4001C29.3371 26.4001 28.7999 25.863 28.7999 25.2002V10.8002C28.802 8.81288 30.4126 7.2023 32.3999 7.2002H50.3999C52.3872 7.2023 53.9978 8.81288 53.9999 10.8002V61.2002C53.9978 63.1875 52.3872 64.7981 50.3999 64.8002Z" fill="#006D77"/>
<path d="M45.5999 60.0001H37.2C35.2127 59.998 33.6021 58.3874 33.6 56.4001V55.3443C33.6 54.6815 34.1373 54.1443 34.7999 54.1443C35.4627 54.1443 35.9999 54.6817 35.9999 55.3443V56.4001C36.0007 57.0624 36.5375 57.5992 37.1998 57.6H45.5998C46.2621 57.5992 46.7989 57.0624 46.7998 56.4001V15.6C46.7989 14.9377 46.2621 14.4009 45.5998 14.4H37.1998C36.5375 14.4009 36.0007 14.9377 35.9999 15.6V25.2C35.9999 25.8628 35.4626 26.4 34.7999 26.4C34.1372 26.4 33.6 25.8628 33.6 25.2V15.6C33.6021 13.6127 35.2127 12.0021 37.2 12H45.5999C47.5873 12.0021 49.1978 13.6127 49.2 15.6V56.4C49.1977 58.3874 47.5873 59.9978 45.5999 60.0001Z" fill="#006D77"/>
<path d="M1.21166 33.6002C0.552126 33.6003 0.0160632 33.0679 0.0117038 32.4084L-0.000108654 30.7403C-0.00460865 27.8877 1.12306 25.1499 3.13527 23.1278L19.4215 8.59704C20.3667 7.74991 21.6121 7.31679 22.8792 7.39469C23.3074 7.42254 23.688 7.67693 23.8777 8.06182C24.0674 8.44671 24.0372 8.90346 23.7986 9.26008C23.5599 9.61671 23.149 9.81865 22.721 9.7901C22.0977 9.74524 21.4836 9.96011 21.024 10.3837L4.78227 24.8716C3.24917 26.4341 2.39333 28.5377 2.39994 30.7268L2.41161 32.3921C2.41611 33.0548 1.88258 33.5957 1.21981 33.6003H1.21166V33.6002Z" fill="#006D77"/>
<path d="M22.8024 56.4119L13.1983 56.4002H13.1467C9.6922 56.459 6.35882 55.1274 3.89578 52.7048C1.43273 50.2821 0.0461656 46.9711 0.0478531 43.516V42.0002C0.0478531 41.3375 0.585181 40.8003 1.24781 40.8003C1.91043 40.8003 2.44776 41.3376 2.44776 42.0002V43.512C2.45085 46.338 3.59273 49.0434 5.6152 51.0171C7.63767 52.9908 10.3706 54.0662 13.1959 54.0002L22.8 54.0119L36.0239 54.0002C37.2731 54.0441 38.3433 53.1136 38.4732 51.8703C38.4974 51.1534 38.2299 50.4572 37.732 49.9408C37.2998 49.4749 36.6951 49.207 36.0598 49.2001L30.0024 49.2118H30C29.3372 49.2125 28.7995 48.6757 28.7988 48.0129C28.7981 47.3502 29.3348 46.8124 29.9976 46.8117L36.0574 46.8001C37.3474 46.804 38.579 47.3384 39.4629 48.2777C40.4133 49.2679 40.9214 50.6012 40.8709 51.9727C40.6747 54.4953 38.5539 56.4324 36.0239 56.4L22.8024 56.4119Z" fill="#006D77"/>
<path d="M33.5999 27.6003H16.7999C16.1875 27.6131 15.6025 27.3466 15.2103 26.876C14.6736 26.1035 14.512 25.1305 14.7703 24.2258C15.0621 22.8988 15.7613 21.696 16.7701 20.7857L21.9726 15.8346C22.4528 15.3777 23.2125 15.3966 23.6695 15.8768C24.1264 16.357 24.1075 17.1167 23.6273 17.5737L18.4195 22.5296C17.7773 23.1013 17.3255 23.8557 17.1247 24.6917C17.0898 24.8591 17.0725 25.0295 17.073 25.2004H33.6C34.2628 25.2004 34.7999 25.7375 34.7999 26.4003C34.7999 27.0629 34.2626 27.6003 33.5999 27.6003Z" fill="#006D77"/>
<path d="M40.8598 42.006C40.1971 42.0078 39.6583 41.4719 39.6566 40.8093C39.6549 40.1466 40.1907 39.6078 40.8533 39.6061L43.0377 39.5944C44.2996 39.6189 45.391 38.7196 45.6082 37.4763C45.6082 37.4493 45.6252 37.3235 45.6269 37.2965C45.6314 37.1956 45.6259 37.0945 45.6104 36.9947C45.5035 35.7507 44.4607 34.7966 43.2122 34.8004L29.9553 34.8366C29.6353 34.8438 29.326 34.7202 29.0991 34.4945C28.872 34.2688 28.7467 33.9603 28.7519 33.6402C28.7499 32.9774 29.2857 32.4387 29.9483 32.4367L43.2085 32.4005C45.6802 32.387 47.7548 34.2594 47.9939 36.7193C48.0276 36.9644 48.0366 37.2124 48.0209 37.4594C48.0183 37.5652 48.0079 37.6705 47.9898 37.7747C47.6108 40.2071 45.5138 41.9992 43.052 41.9946L40.8659 42.0063H40.8598V42.006Z" fill="#006D77"/>
<path d="M40.7999 49.2H36.0602C35.3975 49.2 34.8603 48.6629 34.8603 48.0001C34.8603 47.3373 35.3976 46.8001 36.0602 46.8001H40.7999C42.0961 46.8131 43.1742 45.8062 43.2497 44.512C43.2812 43.8584 43.0435 43.2204 42.5918 42.7468C42.1402 42.2731 41.5141 42.0054 40.8598 42.0059L29.9772 42.0183H29.9761C29.5473 42.0186 29.151 41.7899 28.9366 41.4188C28.722 41.0477 28.7218 40.5903 28.936 40.2189C29.1502 39.8475 29.5462 39.6185 29.975 39.6184L40.8353 39.606C42.1506 39.5987 43.4108 40.1325 44.3208 41.0822C45.2308 42.0318 45.7104 43.3138 45.6469 44.6276C45.5105 47.2009 43.377 49.2137 40.7999 49.2Z" fill="#006D77"/>
<path d="M1.19995 38.3999C1.86267 38.3999 2.39991 37.8627 2.39991 37.2C2.39991 36.5372 1.86267 36 1.19995 36C0.537237 36 0 36.5372 0 37.2C0 37.8627 0.537237 38.3999 1.19995 38.3999Z" fill="#FFDDD2"/>
</g>
<defs>
<clipPath id="clip0">
<rect width="72" height="72" fill="white"/>
</clipPath>
</defs>
</svg>
