<svg width="72" height="72" viewBox="0 0 72 72" fill="none" xmlns="http://www.w3.org/2000/svg">
<g clip-path="url(#clip0)">
<path d="M68.3998 66H3.59977C2.27428 66 1.19977 67.0745 1.19977 68.4C1.19977 69.7255 2.27428 70.8 3.59977 70.8H68.3998C69.7253 70.8 70.7998 69.7255 70.7998 68.4C70.7998 67.0745 69.7253 66 68.3998 66Z" fill="#A2DED8"/>
<path d="M68.3999 66H64.7999C66.1254 66 67.1999 67.0745 67.1999 68.4C67.1999 69.7255 66.1254 70.8 64.7999 70.8H68.3999C69.7254 70.8 70.7999 69.7255 70.7999 68.4C70.7999 67.0745 69.7254 66 68.3999 66Z" fill="#FFDDD2"/>
<path d="M68.3998 54H3.59977C2.27428 54 1.19977 55.0745 1.19977 56.4C1.19977 57.7255 2.27428 58.8 3.59977 58.8H68.3998C69.7253 58.8 70.7998 57.7255 70.7998 56.4C70.7998 55.0745 69.7253 54 68.3998 54Z" fill="#A2DED8"/>
<path d="M68.3999 54H64.7999C66.1254 54 67.1999 55.0745 67.1999 56.4C67.1999 57.7255 66.1254 58.8 64.7999 58.8H68.3999C69.7254 58.8 70.7999 57.7255 70.7999 56.4C70.7999 55.0745 69.7254 54 68.3999 54Z" fill="#FFDDD2"/>
<path d="M68.3998 58.8003L63.5998 66.0003H3.59979L8.39979 58.8003H68.3998Z" fill="#FFDDD2"/>
<path d="M64.7999 58.8003L59.9999 66.0003H63.5999L68.3999 58.8003H64.7999Z" fill="#83C5BE"/>
<path d="M47.9999 22.8002C47.9999 29.4276 42.6273 34.8002 35.9999 34.8002C29.3725 34.8002 23.9999 29.4276 23.9999 22.8002C23.9999 12.0002 35.9999 1.2002 35.9999 1.2002C35.9999 1.2002 47.9999 12.0002 47.9999 22.8002Z" fill="#83C5BE"/>
<path d="M44.3997 22.8002C44.3997 29.4278 40.6389 34.8002 35.9997 34.8002C31.3605 34.8002 27.5997 29.4278 27.5997 22.8002C27.5997 12.0002 35.9997 1.2002 35.9997 1.2002C35.9997 1.2002 44.3997 12.0002 44.3997 22.8002Z" fill="#FFDDD2"/>
<path d="M18 26.2287C18.0466 30.915 14.2863 34.7522 9.60001 34.8003C4.91376 34.7522 1.15339 30.915 1.20001 26.2287C1.20001 18.5151 9.60001 10.8003 9.60001 10.8003C9.60001 10.8003 18 18.5151 18 26.2287Z" fill="#FFDDD2"/>
<path d="M14.4 26.2287C14.4 30.9603 12.2508 34.8003 9.59999 34.8003C6.94919 34.8003 4.79999 30.9603 4.79999 26.2287C4.79999 18.5151 9.59999 10.8003 9.59999 10.8003C9.59999 10.8003 14.4 18.5151 14.4 26.2287Z" fill="#A2DED8"/>
<path d="M70.8 26.2287C70.8 30.8679 67.0392 34.6287 62.4 34.6287C57.7608 34.6287 54 30.8679 54 26.2287C54 18.5151 62.4 10.8003 62.4 10.8003C62.4 10.8003 70.8 18.5151 70.8 26.2287Z" fill="#FFDDD2"/>
<path d="M67.1999 26.2287C67.1999 30.9603 65.0507 34.8003 62.3999 34.8003C59.7491 34.8003 57.5999 30.9603 57.5999 26.2287C57.5999 18.5151 62.3999 10.8003 62.3999 10.8003C62.3999 10.8003 67.1999 18.5151 67.1999 26.2287Z" fill="#A2DED8"/>
<path d="M41.9998 46.8001H38.3998V54.0001H33.5998V46.8001H29.9998L35.9998 39.6001L41.9998 46.8001Z" fill="#FFDDD2"/>
<path d="M63.6 46.8001H60V54.0001H55.2V46.8001H51.6L57.6 39.6001L63.6 46.8001Z" fill="#FFDDD2"/>
<path d="M20.3998 46.8001H16.7998V54.0001H11.9998V46.8001H8.39984L14.3998 39.6001L20.3998 46.8001Z" fill="#FFDDD2"/>
<path d="M9.60001 34.8003C10.2056 34.799 10.8093 34.7309 11.4 34.5975C7.51417 33.6937 4.77317 30.2182 4.80001 26.2287C4.80001 20.8131 8.93281 15.4083 11.4 12.6615C10.3536 11.4963 9.60001 10.8003 9.60001 10.8003C9.60001 10.8003 1.20001 18.5151 1.20001 26.2287C1.15339 30.915 4.91376 34.7522 9.60001 34.8003Z" fill="white"/>
<path d="M3.59977 66C2.27428 66 1.19977 67.0745 1.19977 68.4C1.19977 69.7255 2.27428 70.8 3.59977 70.8H7.19977C5.87428 70.8 4.79977 69.7255 4.79977 68.4C4.79977 67.0745 5.87428 66 7.19977 66H3.59977Z" fill="white"/>
<path d="M3.59977 58.8H7.19977C5.87428 58.8 4.79977 57.7255 4.79977 56.4C4.79977 55.0745 5.87428 54 7.19977 54H3.59977C2.27428 54 1.19977 55.0745 1.19977 56.4C1.19977 57.7255 2.27428 58.8 3.59977 58.8Z" fill="white"/>
<path d="M3.27594 16.6284L5.30394 17.9112C3.59868 20.3685 2.59477 23.2438 2.39994 26.2284H-6.10352e-05C0.189172 22.7882 1.32265 19.4667 3.27594 16.6284Z" fill="white"/>
<path d="M-6.10352e-05 68.4C-6.10352e-05 70.3882 1.61171 72 3.59994 72H68.3999C70.3882 72 71.9999 70.3882 71.9999 68.4C71.9999 66.4117 70.3882 64.8 68.3999 64.8H65.8415L69.0887 59.9304C70.9012 59.5688 72.1455 57.8934 71.9678 56.0538C71.79 54.2141 70.2481 52.8079 68.3999 52.8H61.1999V48H63.5999C64.0654 47.9998 64.4888 47.7304 64.6862 47.3089C64.8836 46.8873 64.8195 46.3896 64.5215 46.032L58.5215 38.832C58.2865 38.5706 57.9515 38.4214 57.5999 38.4214C57.2484 38.4214 56.9134 38.5706 56.6783 38.832L50.6783 46.032C50.3804 46.3896 50.3162 46.8873 50.5136 47.3089C50.7111 47.7304 51.1345 47.9998 51.5999 48H53.9999V52.8H39.5999V48H41.9999C42.4654 47.9998 42.8888 47.7304 43.0862 47.3089C43.2836 46.8873 43.2195 46.3896 42.9215 46.032L36.9215 38.832C36.6865 38.5706 36.3515 38.4214 35.9999 38.4214C35.6484 38.4214 35.3134 38.5706 35.0783 38.832L29.0783 46.032C28.7804 46.3896 28.7162 46.8873 28.9136 47.3089C29.1111 47.7304 29.5345 47.9998 29.9999 48H32.3999V52.8H17.9999V48H20.3999C20.8654 47.9998 21.2888 47.7304 21.4862 47.3089C21.6836 46.8873 21.6195 46.3896 21.3215 46.032L15.3215 38.832C15.0865 38.5706 14.7515 38.4214 14.3999 38.4214C14.0484 38.4214 13.7134 38.5706 13.4783 38.832L7.47834 46.032C7.18043 46.3896 7.11624 46.8873 7.31365 47.3089C7.51106 47.7304 7.93445 47.9998 8.39994 48H10.7999V52.8H3.59994C1.61171 52.8 -6.08792e-05 54.4117 -6.08792e-05 56.4C-6.08792e-05 58.3882 1.61171 60 3.59994 60H6.15834L2.91114 64.8696C1.22145 65.1989 0.0014169 66.6785 -6.10352e-05 68.4H-6.10352e-05ZM69.5999 68.4C69.5999 69.0627 69.0627 69.6 68.3999 69.6H3.59994C2.9372 69.6 2.39994 69.0627 2.39994 68.4C2.39994 67.7372 2.9372 67.2 3.59994 67.2H68.3999C69.0627 67.2 69.5999 67.7372 69.5999 68.4ZM18.1583 60L14.9579 64.8H11.8379L15.0383 60H18.1583ZM53.8415 64.8L57.0419 60H60.1619L56.9615 64.8H53.8415ZM50.9615 64.8H47.8415L51.0419 60H54.1619L50.9615 64.8ZM44.9615 64.8H41.8415L45.0419 60H48.1619L44.9615 64.8ZM38.9615 64.8H35.8415L39.0419 60H42.1619L38.9615 64.8ZM32.9615 64.8H29.8415L33.0419 60H36.1619L32.9615 64.8ZM26.9615 64.8H23.8415L27.0419 60H30.1619L26.9615 64.8ZM20.9615 64.8H17.8415L21.0419 60H24.1619L20.9615 64.8ZM59.8415 64.8L63.0419 60H66.1619L62.9615 64.8H59.8415ZM55.1999 45.6H54.1619L57.5999 41.4744L61.0379 45.6H59.9999C59.3372 45.6 58.7999 46.1372 58.7999 46.8V52.8H56.3999V46.8C56.3999 46.1372 55.8627 45.6 55.1999 45.6ZM33.5999 45.6H32.5619L35.9999 41.4744L39.4379 45.6H38.3999C37.7372 45.6 37.1999 46.1372 37.1999 46.8V52.8H34.7999V46.8C34.7999 46.1372 34.2627 45.6 33.5999 45.6ZM11.9999 45.6H10.9619L14.3999 41.4744L17.8379 45.6H16.7999C16.1372 45.6 15.5999 46.1372 15.5999 46.8V52.8H13.1999V46.8C13.1999 46.1372 12.6627 45.6 11.9999 45.6ZM2.39994 56.4C2.39994 55.7372 2.9372 55.2 3.59994 55.2H68.3999C69.0627 55.2 69.5999 55.7372 69.5999 56.4C69.5999 57.0627 69.0627 57.6 68.3999 57.6H3.59994C2.9372 57.6 2.39994 57.0627 2.39994 56.4ZM12.1583 60L8.95794 64.8H5.83794L9.03834 60H12.1583Z" fill="#006D77"/>
<path d="M36 36.0002C43.2866 35.9916 49.1914 30.0868 49.2 22.8002C49.2 11.5946 37.3092 0.763373 36.8028 0.308573C36.3464 -0.102207 35.6536 -0.102207 35.1972 0.308573C34.6908 0.763373 22.8 11.5946 22.8 22.8002C22.8086 30.0868 28.7134 35.9916 36 36.0002ZM36 2.86217C38.6292 5.46377 46.8 14.2418 46.8 22.8002C46.8 28.7648 41.9647 33.6002 36 33.6002C30.0353 33.6002 25.2 28.7648 25.2 22.8002C25.2 14.2538 33.3732 5.46617 36 2.86217Z" fill="#006D77"/>
<path d="M35.9997 31.2001C36.6625 31.2001 37.1997 30.6628 37.1997 30.0001C37.1997 29.3374 36.6625 28.8001 35.9997 28.8001C32.6877 28.7961 30.0037 26.1122 29.9997 22.8001C29.9997 22.1374 29.4625 21.6001 28.7997 21.6001C28.137 21.6001 27.5997 22.1374 27.5997 22.8001C27.605 27.4371 31.3627 31.1948 35.9997 31.2001Z" fill="#006D77"/>
<path d="M9.59986 36.0003C14.9463 35.9462 19.2405 31.5753 19.1999 26.2287C19.1999 18.0807 10.7711 10.2459 10.4111 9.91711C9.95317 9.50008 9.25172 9.50478 8.79946 9.92791L8.78866 9.91591C8.76466 9.93871 8.74306 9.96272 8.72026 9.98552C6.64976 11.9774 4.82226 14.2073 3.27586 16.6287C3.09496 16.8988 3.0346 17.2321 3.10927 17.5485C3.18393 17.8649 3.38688 18.136 3.66946 18.2967C4.23098 18.6168 4.94435 18.4486 5.30386 17.9115C6.55038 15.9652 7.99399 14.1525 9.61186 12.5019C11.6519 14.6139 16.7999 20.5035 16.7999 26.2287C16.8425 30.2507 13.6217 33.5483 9.59986 33.6003C5.57802 33.5483 2.35718 30.2507 2.39986 26.2287C2.39986 25.566 1.8626 25.0287 1.19986 25.0287C0.537117 25.0287 -0.000141304 25.566 -0.000141304 26.2287C-0.0407702 31.5753 4.25339 35.9462 9.59986 36.0003Z" fill="#006D77"/>
<path d="M10.7999 30.0004C10.7999 29.3377 10.2626 28.8004 9.59987 28.8004C8.22826 28.7502 7.15533 27.6006 7.19987 26.2288C7.19987 25.5661 6.66261 25.0288 5.99986 25.0288C5.33712 25.0288 4.79986 25.5661 4.79986 26.2288C4.75572 28.9259 6.9029 31.1498 9.59987 31.2004C9.91813 31.2004 10.2234 31.074 10.4484 30.8489C10.6734 30.6239 10.7999 30.3187 10.7999 30.0004Z" fill="#006D77"/>
<path d="M62.3997 36C67.7462 35.9459 72.0404 31.575 71.9997 26.2284C71.9997 18.0804 63.5709 10.2456 63.2109 9.91679C62.752 9.49583 62.0474 9.49583 61.5885 9.91679C61.2285 10.2456 52.7997 18.0768 52.7997 26.2284C52.7591 31.575 57.0533 35.9459 62.3997 36ZM62.3997 12.4896C64.4397 14.5956 69.5997 20.4972 69.5997 26.2284C69.5997 30.2048 66.3762 33.4284 62.3997 33.4284C58.4233 33.4284 55.1997 30.2048 55.1997 26.2284C55.1997 20.5092 60.3597 14.598 62.3997 12.4896Z" fill="#006D77"/>
<path d="M62.4 31.2004C63.0628 31.2004 63.6 30.6631 63.6 30.0004C63.6 29.3377 63.0628 28.8004 62.4 28.8004C61.0284 28.7502 59.9555 27.6006 60 26.2288C60 25.5661 59.4628 25.0288 58.8 25.0288C58.1373 25.0288 57.6 25.5661 57.6 26.2288C57.5559 28.9259 59.7031 31.1498 62.4 31.2004Z" fill="#006D77"/>
</g>
<defs>
<clipPath id="clip0">
<rect width="72" height="72" fill="white"/>
</clipPath>
</defs>
</svg>
