<svg width="292" height="390" viewBox="0 0 292 390" fill="none" xmlns="http://www.w3.org/2000/svg">
<path fill-rule="evenodd" clip-rule="evenodd" d="M275.675 153.258L275.677 153.254C284.462 133.783 289.082 111.421 288.258 90.4904C287.433 69.5479 281.176 50.2986 268.509 36.7062C255.678 23.1479 236.179 14.9739 214.255 10.1844C192.378 5.40508 168.458 4.07383 147.168 3.91562C104.682 3.59988 73.7515 8.06213 44.1683 15.4269C14.5038 22.812 -13.6511 32.7922 -38.2314 51.6222L-38.241 51.6295L-38.2506 51.6368C-62.7099 70.0628 -83.6131 97.7108 -96.1117 132.546C-108.622 167.415 -112.237 209.364 -98.676 247.174C-85.1182 284.973 -53.9867 318.918 -12.6167 347.011L-12.6071 347.017L-12.5975 347.024C8.04498 361.276 31.0203 374.023 53.1592 381.034C75.3459 388.06 96.251 389.191 113.139 380.876L113.14 380.875C130.022 372.573 143.516 354.485 156.388 332.498C161.636 323.535 166.715 314.045 171.858 304.436C172.992 302.316 174.13 300.191 175.273 298.065C181.58 286.329 188.045 274.577 195.004 263.737C206.852 245.281 220.127 229.581 232.731 214.673C234.926 212.077 237.1 209.505 239.244 206.946C253.752 189.627 266.842 172.915 275.675 153.258ZM270.695 34.6509C297.306 63.194 296.339 114.753 278.412 154.487C268.054 177.537 252.007 196.519 235 216.636C222.394 231.547 209.262 247.082 197.528 265.358C189.395 278.027 181.921 291.992 174.513 305.833C156.817 338.897 139.498 371.256 114.464 383.567C78.6974 401.177 27.2581 378.187 -14.302 349.492C-55.9692 321.198 -87.6502 286.8 -101.5 248.186C-115.35 209.573 -111.621 166.891 -98.9354 131.533C-86.2496 96.1757 -65.0056 68.0362 -40.0558 49.2407C-14.9988 30.0455 13.6178 19.941 43.4436 12.5158C73.2694 5.09058 104.451 0.598083 147.191 0.9157C189.93 1.23332 243.829 6.254 270.695 34.6509Z" fill="#83C5BE"/>
<circle cx="200" cy="227" r="36" fill="#E29578"/>
</svg>
