<svg width="1268" height="2013" viewBox="0 0 1268 2013" fill="none" xmlns="http://www.w3.org/2000/svg">
<path d="M-163.829 984.109C-146.769 1134.9 -131.231 1281.86 -50.7738 1371.75C29.6836 1461.65 173.653 1493.61 303.757 1492.89C433.431 1492.88 548.103 1460.45 632.591 1399.87C717.078 1339.3 771.38 1250.56 839.847 1160.82C908.314 1071.08 990.242 979.898 970.499 907.803C950.052 835.276 827.229 781.406 737.579 738.157C647.929 694.909 591.18 661.147 506.715 592.033C422.954 523.35 311.909 418.61 186.359 400.821C61.5118 383.462 -78.9762 453.327 -139.009 565.654C-199.746 677.549 -181.162 832.179 -163.829 984.109Z" fill="#A2DED8"/>
<path d="M-168.777 978.191L-168.777 978.192C-168.765 980.459 -168.754 982.726 -168.744 984.991C-168.389 1058.56 -168.04 1130.91 -159.521 1196.93C-150.74 1264.99 -133.295 1326.15 -98.3386 1374.88C-28.3957 1472.37 110.751 1519.56 240.046 1532.82L240.054 1532.82C368.744 1546.72 485.907 1526.84 576.084 1475.88C647.44 1435.56 701.94 1375.8 760.116 1312.02C775.523 1295.12 791.188 1277.95 807.492 1260.77C817.195 1250.55 827.097 1240.35 836.976 1230.16C866.733 1199.48 896.283 1169.02 919.544 1139.11C950.561 1099.23 970.03 1060.77 964.199 1024.54C958.032 987.997 926.252 953.042 885.067 920.5C849.864 892.685 808.081 866.848 770.254 843.458C763.894 839.525 757.645 835.661 751.558 831.868C666.993 779.178 614.106 739.439 537.468 661.547L537.467 661.546C528.538 652.452 519.295 642.831 509.737 632.881C478.617 600.484 444.146 564.6 406.223 532.07C356.665 489.558 301.362 452.912 240.231 437.401C118.575 406.87 -27.9658 460.992 -99.368 565.684L-99.3679 565.684L-99.3735 565.692C-135.384 617.764 -152.981 682.601 -161.445 753.623C-169.699 822.888 -169.254 897.893 -168.81 972.503C-168.799 974.399 -168.788 976.295 -168.777 978.191Z" stroke="#83C5BE" stroke-width="3"/>
<path d="M207.762 1500.48L173.59 1555.24L143 1498L207.762 1500.48Z" fill="#83C5BE"/>
<circle cx="292" cy="1145" r="28.5" stroke="white" stroke-width="3"/>
</svg>
