<svg width="1301" height="1981" viewBox="0 0 1301 1981" fill="none" xmlns="http://www.w3.org/2000/svg">
<path d="M316.803 1427.7C166.008 1410.64 19.0501 1395.1 -70.8425 1314.65C-160.735 1234.19 -192.7 1090.22 -191.981 960.115C-191.966 830.442 -159.54 715.769 -98.9621 631.282C-38.3838 546.794 50.3472 492.493 140.089 424.026C229.83 355.558 321.013 273.63 393.109 293.373C465.635 313.82 519.506 436.643 562.754 526.293C606.003 615.943 639.765 672.693 708.879 757.157C777.562 840.918 882.301 951.963 900.091 1077.51C917.449 1202.36 847.584 1342.85 735.258 1402.88C623.362 1463.62 468.732 1445.03 316.803 1427.7Z" fill="#A2DED8"/>
<path d="M320.353 1329.58L320.352 1329.58C318.281 1329.57 316.211 1329.56 314.143 1329.55C246.92 1329.22 180.816 1328.9 120.498 1321.12C58.3283 1313.1 2.46055 1297.16 -42.0348 1265.24C-131.067 1201.36 -174.178 1074.27 -186.293 956.142L-186.294 956.134C-198.995 838.568 -180.827 731.542 -134.285 649.174C-97.4558 583.995 -42.8739 534.215 15.4086 481.06C30.8462 466.98 46.5434 452.664 62.2391 437.762C71.5793 428.894 80.9083 419.845 90.2151 410.817C118.244 383.629 146.071 356.636 173.395 335.386C209.834 307.047 244.937 289.291 277.982 294.61C311.318 300.237 343.231 329.237 372.964 366.867C398.374 399.026 421.977 437.196 443.349 471.76C446.943 477.572 450.474 483.282 453.94 488.845C502.089 566.121 538.406 614.453 609.585 684.488L609.586 684.489C617.898 692.649 626.69 701.095 635.782 709.829C665.383 738.264 698.165 769.755 727.884 804.401C766.722 849.676 800.192 900.19 814.358 956.018C842.241 1067.13 792.809 1200.97 697.195 1266.18L697.195 1266.18L697.187 1266.18C649.632 1299.07 590.414 1315.15 525.529 1322.88C462.249 1330.42 393.723 1330.01 325.547 1329.61L320.353 1329.58Z" stroke="#006D77" stroke-width="3"/>
<rect x="134" y="1576" width="60" height="60" transform="rotate(-30 134 1576)" fill="#006D77"/>
</svg>
