<svg width="308" height="393" viewBox="0 0 308 393" fill="none" xmlns="http://www.w3.org/2000/svg">
<path fill-rule="evenodd" clip-rule="evenodd" d="M16.4531 154.31L16.455 154.314C25.3636 174.14 38.5652 190.994 53.1953 208.458C55.3568 211.038 57.5499 213.632 59.7634 216.25C72.4729 231.283 85.8571 247.113 97.8041 265.722C104.821 276.652 111.339 288.502 117.699 300.335C118.852 302.48 119.999 304.623 121.143 306.76C126.329 316.45 131.451 326.019 136.742 335.058C149.722 357.229 163.333 375.475 180.363 383.85L180.364 383.851C197.402 392.239 218.49 391.097 240.865 384.012C263.193 376.941 286.363 364.086 307.18 349.713L307.189 349.707L307.199 349.7C348.918 321.37 380.315 287.138 393.988 249.015C407.666 210.882 404.019 168.575 391.403 133.41C378.798 98.2786 357.717 70.3949 333.048 51.8115L333.039 51.8042L333.029 51.7969C308.239 32.8062 279.844 22.7413 249.93 15.294C220.097 7.86704 188.905 3.36716 146.061 3.68556C124.593 3.8451 100.47 5.18753 78.407 10.0075C56.2984 14.8374 36.6303 23.0809 23.6871 36.7572C10.9074 50.4693 4.59692 69.887 3.76512 91.0096C2.93383 112.12 7.5936 134.673 16.4531 154.31ZM21.5003 34.7034C48.5905 6.06865 102.941 1.00592 146.039 0.685638C189.137 0.365363 220.579 4.89549 250.655 12.3829C280.73 19.8703 309.587 30.0595 334.853 49.4154C360.012 68.3684 381.434 96.7435 394.226 132.397C407.018 168.051 410.778 211.091 396.812 250.027C382.847 288.964 350.9 323.65 308.884 352.182C266.976 381.117 215.106 404.3 179.039 386.542C153.796 374.128 136.332 341.498 118.487 308.156C111.018 294.199 103.481 280.118 95.2796 267.343C83.4479 248.913 70.2051 233.249 57.4938 218.213C40.3445 197.927 24.1625 178.786 13.7186 155.544C-4.35865 115.476 -5.33445 63.4856 21.5003 34.7034Z" fill="#83C5BE"/>
<circle r="36.3015" transform="matrix(-1 0 0 1 92.7873 228.664)" fill="#A2DED8"/>
</svg>
