<svg width="1369" height="1386" viewBox="0 0 1369 1386" fill="none" xmlns="http://www.w3.org/2000/svg">
<path d="M474.937 340.178C609.637 270.277 740.302 201.251 859.783 217.933C979.265 234.615 1086.06 336.318 1157.99 444.731C1230.27 552.393 1267.28 665.67 1264.09 769.582C1260.89 873.493 1217.5 968.04 1181.17 1074.91C1144.83 1181.78 1114.81 1300.63 1043.95 1324.43C972.339 1347.89 859.145 1275.95 773.263 1225.63C687.381 1175.32 627.716 1147.02 523.251 1115.43C419.536 1084.18 270.677 1050.38 185.917 956.07C101.907 862.1 81.5895 706.52 141.375 594.062C200.411 481.26 339.144 410.485 474.937 340.178Z" fill="#A2DED8"/>
<path d="M467.266 339.057L467.267 339.056C469.156 337.801 471.043 336.547 472.93 335.293C534.203 294.575 594.464 254.53 654.025 224.796C715.416 194.149 775.924 174.531 835.862 176.39C955.788 180.108 1072.53 269.32 1155.62 369.268L1155.63 369.274C1238.91 468.361 1287.72 576.715 1295.69 679.985C1301.99 761.701 1282.77 840.26 1262.24 924.118C1256.8 946.326 1251.28 968.906 1246.11 992.015C1243.04 1005.77 1240.08 1019.68 1237.13 1033.56C1228.25 1075.36 1219.44 1116.88 1207.57 1152.86C1191.75 1200.85 1170.68 1238.45 1137.35 1253.81C1103.58 1269.06 1056.84 1262.16 1006.86 1246.11C964.147 1232.39 919.405 1212.11 878.899 1193.74C872.088 1190.66 865.396 1187.62 858.854 1184.68C767.969 1143.85 705.494 1122.1 598.105 1101.9L598.103 1101.9C585.576 1099.55 572.436 1097.24 558.847 1094.86C514.603 1087.08 465.595 1078.47 417.448 1065.12C354.528 1047.68 293.274 1022.19 246.318 980.089C153.151 896.111 116.39 744.282 163.5 626.641L163.5 626.641L163.503 626.632C186.658 567.708 230.675 516.954 284.919 470.334C337.82 424.868 400.337 383.425 462.525 342.2C464.106 341.152 465.686 340.104 467.266 339.057Z" stroke="white" stroke-width="3"/>
<path d="M840.708 1145L891.924 1184.29L832 1209.22L840.708 1145Z" fill="#83C5BE"/>
<circle cx="1116" cy="655" r="28.5" stroke="#83C5BE" stroke-width="3"/>
<path d="M1149.82 1163.53C1115.81 1159.68 1082.67 1156.17 1062.39 1138.03C1042.12 1119.88 1034.91 1087.42 1035.07 1058.07C1035.08 1028.83 1042.39 1002.97 1056.05 983.914C1069.71 964.86 1089.73 952.613 1109.96 937.172C1130.2 921.731 1150.77 903.254 1167.03 907.707C1183.38 912.318 1195.53 940.018 1205.29 960.236C1215.04 980.454 1222.65 993.253 1238.24 1012.3C1253.73 1031.19 1277.35 1056.24 1281.36 1084.55C1285.28 1112.71 1269.52 1144.39 1244.19 1157.93C1218.95 1171.63 1184.08 1167.43 1149.82 1163.53Z" fill="white"/>
<path d="M1159.82 1153.53C1125.81 1149.68 1092.67 1146.17 1072.39 1128.03C1052.12 1109.88 1044.91 1077.42 1045.07 1048.07C1045.08 1018.83 1052.39 992.967 1066.05 973.914C1079.71 954.86 1099.73 942.613 1119.96 927.172C1140.2 911.731 1160.77 893.254 1177.03 897.707C1193.38 902.318 1205.53 930.018 1215.29 950.236C1225.04 970.454 1232.65 983.253 1248.24 1002.3C1263.73 1021.19 1287.35 1046.24 1291.36 1074.55C1295.28 1102.71 1279.52 1134.39 1254.19 1147.93C1228.95 1161.63 1194.08 1157.43 1159.82 1153.53Z" fill="#006D77"/>
</svg>
