<svg width="872" height="1503" viewBox="0 0 872 1503" fill="none" xmlns="http://www.w3.org/2000/svg">
<path d="M1082.49 512.609C1143.11 651.73 1203.13 786.769 1178.4 904.847C1153.67 1022.92 1044.97 1122.59 931.939 1187.02C819.631 1251.85 704.109 1281.1 600.652 1270.88C497.194 1260.66 405.802 1210.97 301.637 1167.49C197.472 1124 80.9286 1086 61.9788 1013.69C43.4233 940.656 122.856 832.592 178.871 750.313C234.885 668.033 267.151 610.42 305.743 508.333C343.94 406.971 387.738 260.742 487.573 182.56C587.015 105.104 743.613 95.3648 851.767 162.626C960.314 229.162 1021.54 372.367 1082.49 512.609Z" fill="#A2DED8"/>
<path d="M794.027 1349.41C753.893 1331.38 726.09 1296.09 683.157 1268.53C640.223 1240.96 582.412 1220.98 564.948 1185.46C547.337 1149.7 570.328 1098.26 599.022 1056.7C627.317 1015.03 661.715 983.35 700.328 969.5C738.942 955.65 781.624 959.379 816.981 972.065C852.339 984.75 880.478 1005.99 899.274 1030.94C918.469 1056 928.574 1084.62 935.999 1114.44C943.424 1144.27 947.917 1175.45 947.599 1218.19C947.281 1260.93 942.261 1314.83 913.864 1341.69C885.321 1368.31 833.762 1367.34 794.027 1349.41Z" fill="#FFDDD2"/>
<path d="M1083.81 505.01L1083.82 505.011C1084.94 506.98 1086.06 508.948 1087.19 510.915C1123.66 574.804 1159.54 637.638 1185.17 699.075C1211.59 762.399 1227.07 824.096 1221.16 883.771C1209.33 1003.17 1112.42 1113.61 1007.08 1189.74L1007.07 1189.75C902.573 1266.13 791.164 1307.49 687.591 1308.45C605.636 1309.21 528.559 1284.71 446.282 1258.56C424.493 1251.63 402.339 1244.59 379.633 1237.87C366.12 1233.87 352.441 1229.98 338.793 1226.1C297.684 1214.41 256.862 1202.8 221.761 1188.53C174.958 1169.5 138.868 1145.93 125.803 1111.64C112.874 1076.91 122.918 1030.74 142.314 981.97C158.893 940.28 182.16 897.013 203.224 857.843C206.766 851.257 210.245 844.786 213.62 838.458C260.511 750.545 286.442 689.686 313.867 583.91L313.868 583.909C317.054 571.569 320.247 558.616 323.55 545.22C334.303 501.603 346.213 453.291 362.79 406.157C384.452 344.562 414.023 285.174 459.208 241.176C549.301 153.907 703.269 127.508 817.452 182.473L817.452 182.473L817.46 182.477C874.682 209.568 922.34 256.919 965.181 314.194C1006.96 370.052 1044.08 435.231 1081 500.067C1081.94 501.715 1082.88 503.362 1083.81 505.01Z" stroke="#83C5BE" stroke-width="3"/>
<path d="M615.569 537L624 601L564 576.254L615.569 537Z" fill="#83C5BE"/>
</svg>
