<svg width="80" height="40" viewBox="0 0 80 40" fill="none" xmlns="http://www.w3.org/2000/svg">
<path d="M28.7358 37.871C27.5162 37.871 26.9269 37.4177 26.9269 36.4836C26.9269 35.9205 27.1325 34.9864 27.4888 33.6677C27.8725 32.349 28.0506 31.4012 28.0506 30.8106C28.0506 29.8353 27.6395 29.3545 26.7625 29.3545C26.5844 29.3545 26.3514 29.3957 26.0636 29.4232L24.3644 37.5001H21.2812L24.3644 22.9534C23.4326 23.3655 22.6926 23.9562 22.1445 24.7254C21.6238 25.5221 21.3497 26.4699 21.3497 27.61C21.3497 28.1732 21.4182 28.6128 21.5963 28.9287C21.6375 28.9974 21.6375 29.0386 21.6375 29.0661C20.4864 29.0661 19.7601 28.6815 19.486 27.9534C19.3764 27.6787 19.349 27.3628 19.349 26.9782C19.349 26.2501 19.5957 25.5908 20.0479 24.9315C20.9523 23.5716 22.3363 22.5688 24.1726 21.9095C25.0359 21.5935 25.9403 21.4287 26.8447 21.4287C27.1188 21.4287 27.434 21.4287 27.708 21.4699L26.3514 27.871C26.8036 26.5798 27.434 25.371 28.2288 24.2172C29.0236 23.0633 29.7498 22.3078 30.3802 21.9507C31.0105 21.6073 31.5313 21.4287 32.0109 21.4287C32.4905 21.4287 32.8468 21.5386 33.0523 21.7034C33.436 22.0194 33.6416 22.3628 33.6416 22.7062C33.6416 23.2968 33.5045 23.7501 33.2305 23.9974C32.9564 24.2446 32.6412 24.3408 32.2575 24.3408C31.6272 24.3408 31.2161 24.0661 31.0105 23.4754C29.6539 24.2721 28.448 25.9067 27.338 28.3518C27.5162 28.3518 27.6806 28.3106 27.8177 28.3106H28.2288C29.6539 28.3106 30.4898 28.7639 30.7639 29.6979C30.8324 29.9727 30.9009 30.3298 30.9009 30.7007C30.9009 31.2913 30.7228 32.1979 30.3802 33.4891C30.0376 34.7391 29.8595 35.5771 29.8595 35.9617C29.8595 36.7584 30.1335 37.2529 30.6954 37.4589C29.7909 37.7062 29.1332 37.8435 28.7221 37.8435L28.7632 37.8847L28.7358 37.871ZM45.5361 33.6677C44.6317 36.3051 43.3161 37.6375 41.5758 37.6375C40.781 37.6375 40.1507 37.4314 39.6985 36.9782C39.2462 36.5249 39.0407 36.0441 39.0407 35.4534C39.0407 34.8628 39.2188 33.8875 39.5203 32.4589L40.4521 28.2144C39.7259 28.2144 39.2051 28.5304 38.8214 29.121C38.4377 29.7117 38.1226 30.6183 37.8896 31.7996C37.643 32.9809 37.41 33.9287 37.2593 34.588C37.0811 35.2474 36.8756 35.8106 36.6289 36.2639C36.1493 37.1705 35.3408 37.6512 34.2719 37.6512C33.5045 37.6512 32.9153 37.404 32.5042 36.9507C32.1205 36.4699 31.915 35.8655 31.915 35.1375C31.915 34.4095 32.1616 33.915 32.6823 33.6402C32.8605 33.5716 33.066 33.5029 33.3401 33.5029C33.6142 33.5029 33.8608 33.6128 34.0664 33.8188C34.2719 34.0249 34.3816 34.2996 34.3816 34.6567C34.3816 35.0001 34.313 35.2474 34.1349 35.426C33.9568 35.6045 33.7512 35.6732 33.5457 35.632C33.5457 35.7694 33.6142 35.9479 33.7238 36.0853C33.8334 36.2227 34.0664 36.3325 34.3816 36.3325C34.7241 36.3325 35.0119 36.2227 35.2175 35.9891C35.6012 35.6045 35.9163 34.8353 36.1219 33.7227L36.4371 32.1567C37.0674 29.1622 37.9581 27.5001 39.2188 27.0743C39.6299 26.9369 40.0547 26.8683 40.5344 26.8683H43.6861L42.1925 33.8325C42.0828 34.2446 42.0554 34.5331 42.0554 34.7391C42.0554 35.3298 42.3295 35.6457 42.9187 35.6457C43.3298 35.6457 43.6861 35.4672 43.9602 35.165C44.2068 34.8216 44.4809 34.3683 44.7276 33.7776H45.632L45.5224 33.7089L45.5361 33.6677ZM53.5525 33.6677C51.9492 36.3051 50.0171 37.6375 47.6875 37.6375C46.6872 37.6375 45.8787 37.3628 45.262 36.8408C44.6728 36.3188 44.3576 35.4534 44.3576 34.2309C44.3576 32.5963 44.7687 31.0304 45.6046 29.5056C46.2349 28.3518 47.0983 27.5276 48.1671 27.0331C48.7289 26.7584 49.3182 26.6485 49.9074 26.6485C50.8804 26.6485 51.5792 26.8271 51.9218 27.2117C52.2644 27.5963 52.4426 28.0771 52.4426 28.7089C52.4426 29.9315 51.9629 30.9754 50.99 31.7996C50.0171 32.6375 48.866 33.1183 47.5505 33.1869C47.5094 33.599 47.5094 33.8875 47.5094 34.0523C47.5094 34.7803 47.6464 35.2749 47.893 35.5084C48.1397 35.7556 48.5234 35.8518 48.9756 35.8518C49.8115 35.8518 50.4693 35.6732 51.0585 35.2886C51.6204 34.9452 52.2096 34.382 52.8262 33.6814H53.5525V33.6402V33.6677ZM50.8119 28.5166C50.8119 27.9946 50.6337 27.7474 50.2911 27.7474C49.7704 27.7474 49.2497 28.2282 48.7701 29.1347C48.2904 30.0413 47.9342 31.0441 47.7286 32.1567C48.5645 32.088 49.2497 31.7034 49.88 31.0029C50.5104 30.3023 50.8119 29.4782 50.8119 28.5029V28.5166ZM61.0208 31.1265C61.0894 31.3738 61.1305 31.7858 61.1305 32.3765C61.1305 32.9672 61.0208 33.5578 60.7879 34.2172C60.5412 34.8765 60.226 35.4397 59.7875 35.9617C58.8146 37.0743 57.5676 37.6375 56.0328 37.6375C54.8543 37.6375 53.991 37.2941 53.4018 36.5935C52.8125 35.893 52.4974 34.9589 52.4974 33.8051C52.4974 32.6512 52.7714 31.1265 53.3607 29.2172C53.991 27.1293 54.7858 25.3848 55.7177 23.9699C56.8276 22.2941 57.9787 21.4699 59.1846 21.4699C59.8424 21.4699 60.4042 21.676 60.8153 22.1293C61.2264 22.5826 61.473 23.3518 61.473 24.4644C61.473 25.5771 61.0894 26.8957 60.322 28.393L59.7327 29.5056C60.0479 29.643 60.322 29.849 60.5275 30.1375C61.4593 30.1375 62.5008 29.8628 63.6108 29.2721C63.9259 29.0935 64.2 28.9562 64.4056 28.7913L64.6111 29.382C63.7752 30.2474 62.5693 30.838 61.0071 31.1265V31.1677L61.0208 31.1265ZM55.6765 33.8051C55.6765 35.0551 56.0876 35.6457 56.9921 35.6457C57.6498 35.6457 58.1705 35.3298 58.5954 34.7117C59.0065 34.0798 59.1846 33.4617 59.1846 32.8023C59.1846 32.143 59.1161 31.7172 59.0065 31.4424C58.8009 31.5111 58.5268 31.5798 58.2117 31.5798C57.8965 31.5798 57.6224 31.4699 57.4443 31.3051C57.2387 31.1265 57.1291 30.893 57.1291 30.6045C57.1291 30.1238 57.2661 29.8078 57.5128 29.6018C57.7594 29.3957 58.1431 29.2858 58.6228 29.2584C59.2805 28.0771 59.7327 26.8271 59.9794 25.4946C60.0479 25.0413 60.1164 24.6293 60.1164 24.2034C60.1164 23.7913 60.0479 23.4754 59.9383 23.2968C59.8287 23.1183 59.6642 23.0496 59.4175 23.0496C58.9653 23.0496 58.5131 23.5029 58.0335 24.4095C57.2387 25.9067 56.581 28.1732 55.9917 31.1265C55.7862 32.2804 55.6765 33.1457 55.6765 33.7639V33.8051ZM71.2983 33.6677C69.6951 36.3051 67.7629 37.6375 65.4333 37.6375C64.433 37.6375 63.6245 37.3628 63.0078 36.8408C62.4186 36.3188 62.1034 35.4534 62.1034 34.2309C62.1034 32.5963 62.5145 31.0304 63.3504 29.5056C63.9808 28.3518 64.8441 27.5276 65.9129 27.0331C66.4748 26.7584 67.064 26.6485 67.6533 26.6485C68.6262 26.6485 69.3251 26.8271 69.6676 27.2117C70.0102 27.5963 70.1884 28.0771 70.1884 28.7089C70.1884 29.9315 69.7088 30.9754 68.7358 31.7996C67.7629 32.6375 66.6118 33.1183 65.2963 33.1869C65.2552 33.599 65.2552 33.8875 65.2552 34.0523C65.2552 34.7803 65.3922 35.2749 65.6389 35.5084C65.8855 35.7556 66.2692 35.8518 66.7214 35.8518C67.5573 35.8518 68.2151 35.6732 68.8043 35.2886C69.3662 34.9452 69.9554 34.382 70.5721 33.6814H71.2983V33.6402V33.6677ZM68.5577 28.5166C68.5577 27.9946 68.3795 27.7474 68.0369 27.7474C67.5162 27.7474 66.9955 28.2282 66.5159 29.1347C66.0363 30.0413 65.68 31.0441 65.4744 32.1567C66.3103 32.088 66.9955 31.7034 67.6258 31.0029C68.2562 30.3023 68.5577 29.4782 68.5577 28.5029V28.5166ZM72.929 36.8683L72.422 39.2309L69.188 40.0001L72.1617 26.0166H75.2449L74.9023 27.6238C75.6012 26.9919 76.4234 26.7172 77.3963 26.7172C78.6159 26.7172 79.4381 27.3078 79.7944 28.4891C79.9314 28.9012 80 29.4232 80 29.9864C80 30.5496 79.9589 31.099 79.8903 31.6622C79.8218 32.2254 79.7122 32.7749 79.5477 33.338C79.3696 33.9012 79.1641 34.4507 78.9174 34.9452C78.6707 35.4672 78.3282 35.9205 77.9445 36.3051C77.5608 36.7172 77.1086 37.0331 76.5604 37.2803C76.0397 37.5276 75.3819 37.6238 74.5871 37.6238C73.7924 37.6238 73.2305 37.3765 72.9153 36.8545V36.8957L72.929 36.8683ZM77.0949 30.0139C77.0949 28.8326 76.7523 28.2419 76.0123 28.2419C75.7656 28.2419 75.5327 28.3518 75.2449 28.5166C74.9708 28.6952 74.7653 28.9699 74.546 29.3133L73.299 35.3023C73.4361 35.6183 73.7101 35.7831 74.2034 35.7831C74.6831 35.7831 75.1079 35.5771 75.4916 35.1924C76.2178 34.3957 76.7112 33.2831 76.9167 31.7858C77.0263 31.1265 77.0949 30.5358 77.0949 30.0413V30.0001V30.0139Z" fill="#343434"/>
<path fill-rule="evenodd" clip-rule="evenodd" d="M9.18124 0C14.2378 0 18.3625 4.13461 18.3625 9.20329V18.4066H9.18124C4.1247 18.4066 0 14.272 0 9.20329C0 4.13461 4.1247 0 9.18124 0Z" fill="#ADACB5"/>
<path fill-rule="evenodd" clip-rule="evenodd" d="M0 29.0793C0 24.0106 4.1247 19.876 9.18124 19.876H18.3625V29.0793C18.3625 34.1479 14.2378 38.2826 9.18124 38.2826C4.1247 38.2826 0 34.1479 0 29.0793Z" fill="#ADACB5"/>
<path fill-rule="evenodd" clip-rule="evenodd" d="M38.1912 9.21696C38.1912 14.2856 34.0665 18.4203 29.01 18.4203H19.8287V9.21696C19.8287 4.14829 23.9534 0.0136719 29.01 0.0136719C34.0665 0.0136719 38.1912 4.14829 38.1912 9.21696Z" fill="#ADACB5"/>
</svg>
