<svg width="40" height="40" viewBox="0 0 40 40" fill="none" xmlns="http://www.w3.org/2000/svg">
<g clip-path="url(#clip0)">
<path d="M35.5352 15.535C35.5352 27.9745 21.4922 39.4952 21.4922 39.4952C20.6716 40.1684 19.3287 40.1684 18.5082 39.4952C18.5082 39.4952 4.46509 27.9745 4.46509 15.535C4.46524 6.95525 11.4205 0 20.0002 0C28.5799 0 35.5352 6.95525 35.5352 15.535Z" fill="#EE3840"/>
<path d="M20.0001 23.3508C15.6904 23.3508 12.1843 19.8447 12.1843 15.5351C12.1843 11.2256 15.6905 7.71924 20.0001 7.71924C24.3096 7.71924 27.8158 11.2254 27.8158 15.535C27.8158 19.8445 24.3098 23.3508 20.0001 23.3508Z" fill="#FFE1D6"/>
</g>
<defs>
<clipPath id="clip0">
<rect width="40" height="40" fill="white"/>
</clipPath>
</defs>
</svg>
