<svg width="80" height="80" viewBox="0 0 80 80" fill="none" xmlns="http://www.w3.org/2000/svg">
<path d="M75.3125 70.625H4.6875C2.10344 70.625 0 72.7284 0 75.3125V80H80V75.3125C80 72.7284 77.8966 70.625 75.3125 70.625Z" fill="#E1E1E9"/>
<path d="M42.3438 38.1089V32.8125H44.6875C45.7633 32.8125 46.6994 32.08 46.9603 31.0364L48.2741 25.7812H31.7259L33.0397 31.0364C33.3006 32.0802 34.2367 32.8125 35.3125 32.8125H37.6562V38.1089C33.6167 39.152 30.625 42.8259 30.625 47.1875C30.625 52.358 34.8295 56.5625 40 56.5625C45.1705 56.5625 49.375 52.358 49.375 47.1875C49.375 42.8261 46.3833 39.152 42.3438 38.1089Z" fill="#E1E1E9"/>
<path d="M77.6562 9.375H75.3125C75.2337 9.375 75.1555 9.37719 75.0777 9.38094C73.9911 4.03578 69.2547 0 63.5938 0H44.6875C40.8103 0 37.6562 3.15406 37.6562 7.03125V11.7188H28.2812C26.9869 11.7188 25.9375 12.7681 25.9375 14.0625H9.375C9.375 11.4844 7.26562 9.375 4.6875 9.375H2.34375C1.03109 9.375 0 10.4061 0 11.7188V67.203C1.35922 66.4061 3 65.9375 4.6875 65.9375V63.5938C4.6875 59.75 6.51562 56.3748 9.375 54.2188V18.75H26.5661C27.3767 20.1506 28.8902 21.0938 30.625 21.0938H49.375C51.1097 21.0938 52.6233 20.1506 53.4339 18.75H70.625V54.2188C73.4844 56.3748 75.3125 59.75 75.3125 63.5938V65.9375C77 65.9375 78.6408 66.4061 80 67.203V11.7188C80 10.4061 78.9689 9.375 77.6562 9.375ZM70.625 14.0625H54.0625C54.0625 12.7681 53.0131 11.7188 51.7188 11.7188H42.3438V7.03125C42.3438 5.73813 43.3944 4.6875 44.6875 4.6875H63.5938C67.4709 4.6875 70.625 7.84156 70.625 11.7188C70.625 12.063 70.7008 12.3886 70.8337 12.6828C70.6983 13.1195 70.625 13.5828 70.625 14.0625Z" fill="#E1E1E9"/>
<path d="M63.5938 56.5625H40H16.4062C12.5291 56.5625 9.375 59.7166 9.375 63.5938V65.9375H70.625V63.5938C70.625 59.7166 67.4709 56.5625 63.5938 56.5625Z" fill="#E1E1E9"/>
</svg>
