<svg width="20" height="20" viewBox="0 0 20 20" fill="none" xmlns="http://www.w3.org/2000/svg">
<path d="M19.2859 15.9525V15.9521V5.23742H17.1431V3.80877H12.3809V5.23742H10.2381V15.9517H9.04775V2.38086H0.714141V15.9525H0V17.6191H20V15.9525H19.2859ZM7.38081 14.1666H2.38108V12.9762H7.38081V14.1666ZM7.38081 11.3089H2.38108V10.1186H7.38081V11.3089ZM7.38081 8.45235H2.38108V7.26199H7.38081V8.45235ZM7.38081 5.59505H2.38108V4.40469H7.38081V5.59505ZM17.6189 14.1666H11.9047V12.9762H17.6189V14.1666ZM17.6189 11.3089H11.9047V10.1186H17.6189V11.3089ZM17.6189 8.45235H11.9047V7.26199H17.6189V8.45235Z" fill="white"/>
</svg>
