<svg width="80" height="80" viewBox="0 0 80 80" fill="none" xmlns="http://www.w3.org/2000/svg">
<path d="M77.1434 63.8109V63.8094V20.9506H68.5723V15.236H49.5236V20.9506H40.9524V63.8079H36.191V9.52435H2.85656V63.8109H0V70.4772H80V63.8109H77.1434V63.8109ZM29.5232 56.6672H9.52434V51.9058H29.5232V56.6672ZM29.5232 45.2366H9.52434V40.4751H29.5232V45.2366ZM29.5232 33.8103H9.52434V29.0489H29.5232V33.8103ZM29.5232 22.3811H9.52434V17.6197H29.5232V22.3811ZM70.4757 56.6672H47.6187V51.9058H70.4757V56.6672ZM70.4757 45.2366H47.6187V40.4751H70.4757V45.2366ZM70.4757 33.8103H47.6187V29.0489H70.4757V33.8103Z" fill="#E1E1E9"/>
</svg>
