<svg width="80" height="80" viewBox="0 0 80 80" fill="none" xmlns="http://www.w3.org/2000/svg">
<g clip-path="url(#clip0)">
<path d="M73.97 30.831L68.3594 12.1289C67.0801 7.86377 63.23 5 58.7793 5H21.2207C16.77 5 12.9199 7.86377 11.6406 12.1289L6.02995 30.831C2.48716 32.3706 0 35.8963 0 40V60C0 62.7612 2.23877 65 5 65H5.00031L5 69.9997C5 72.7612 7.23846 75 10 75H15.0003C17.7615 75 20.0003 72.7612 20.0003 70L19.9982 65H60L59.9997 69.9997C59.9997 72.7612 62.2382 75 64.9997 75H70C72.7615 75 75 72.7612 75 70V65.0003L74.9982 65H75C77.7612 65 80 62.7612 80 60V40C80 35.8963 77.5128 32.3706 73.9701 30.831L73.97 30.831ZM21.2206 15H58.7791L63.2793 30H16.7204L21.2205 15H21.2206ZM19.9998 52.5C17.2383 52.5 14.9998 50.2612 14.9998 47.5C14.9998 44.7385 17.2383 42.5 19.9998 42.5C22.7614 42.5 24.9998 44.7385 24.9998 47.5C24.9998 50.2612 22.7614 52.5 19.9998 52.5ZM59.9998 52.5C57.2383 52.5 54.9998 50.2612 54.9998 47.5C54.9998 44.7385 57.2383 42.5 59.9998 42.5C62.7614 42.5 64.9998 44.7385 64.9998 47.5C64.9998 50.2612 62.7614 52.5 59.9998 52.5Z" fill="#E1E1E9"/>
</g>
<defs>
<clipPath id="clip0">
<rect width="80" height="80" fill="white"/>
</clipPath>
</defs>
</svg>
