<svg width="80" height="80" viewBox="0 0 80 80" fill="none" xmlns="http://www.w3.org/2000/svg">
<path d="M34.7223 38.7629L28.208 51.7943L41.2365 45.2801L34.7223 38.7629Z" fill="#E1E1E9"/>
<path d="M38.7627 34.7228L45.2768 41.2399L51.7911 28.2085L38.7627 34.7228Z" fill="#E1E1E9"/>
<path d="M39.9999 0C17.9086 0 0 17.9086 0 39.9999C0 62.0913 17.9086 79.9998 39.9999 79.9998C62.0913 79.9998 79.9998 62.0913 79.9998 39.9999C79.9747 17.919 62.0809 0.0251116 39.9999 0ZM60.7371 23.0971L48.617 47.34C48.3398 47.8932 47.8906 48.3413 47.337 48.6172L23.0943 60.7399C21.6825 61.4447 19.9666 60.8713 19.2619 59.4596C18.8606 58.6555 18.861 57.7094 19.2629 56.9057L31.383 32.6628C31.6602 32.1097 32.1094 31.6615 32.663 31.3856L56.9059 19.2628C58.3176 18.5581 60.0336 19.1313 60.7382 20.5431C61.1394 21.3474 61.139 22.2934 60.7371 23.0971Z" fill="#E1E1E9"/>
</svg>
