<svg width="80" height="80" viewBox="0 0 80 80" fill="none" xmlns="http://www.w3.org/2000/svg">
<g clip-path="url(#clip0)">
<path d="M7.03124 47.1874H2.34375C1.04828 47.1874 0 48.2357 0 49.5311V77.6561C0 78.9515 1.04828 79.9998 2.34375 79.9998H7.03124C7.85686 79.9998 8.63827 79.8308 9.37498 79.5681V47.6458C8.63748 47.3771 7.86264 47.1874 7.03124 47.1874Z" fill="#E1E1E9"/>
<path d="M77.281 50.1874C75.5935 49.5312 73.7185 49.9529 72.4999 51.2654L71.2341 52.6248L60.9216 63.6871C59.6093 65.1402 57.7341 65.9372 55.7655 65.9372H37.4218C36.5312 65.9372 35.6875 66.4528 35.3125 67.2496C34.6562 68.5153 33.1095 68.7966 32.172 68.281C31.0001 67.7185 30.5312 66.3119 31.0937 65.14C32.3125 62.7499 34.7031 61.2499 37.4218 61.2499C46.8437 61.2499 42.6873 61.2499 51.8749 61.2499C54.4531 61.2499 56.5624 59.1405 56.5624 56.5624C56.5624 53.9843 54.4531 51.8749 51.8749 51.8749H42.6249C41.547 51.8749 40.4685 51.6405 39.5314 51.1716L31.2812 47.1406C25.6801 44.3817 19.1047 45.1424 14.2188 48.8543C14.2188 74.7774 14.2188 66.4003 14.2188 78.0308C19.2814 79.3436 24.5312 79.9998 29.7343 79.9998H54.2187C59.3748 79.9998 64.2499 77.5622 67.3437 73.4372L78.5938 58.4372C79.5313 57.2187 80 55.7652 80 54.2187C79.9999 52.4374 78.9219 50.8435 77.281 50.1874Z" fill="#E1E1E9"/>
<path d="M50.4643 0.267773C49.7823 -0.0892576 48.9675 -0.0892576 48.2854 0.267773L30.7009 9.49994L49.3748 20.7046L68.048 9.49963L50.4643 0.267773Z" fill="#E1E1E9"/>
<path d="M51.7188 24.7643V45.8298L69.3678 34.7992C70.0522 34.3712 70.4687 33.6204 70.4687 32.8124V13.514L51.7188 24.7643Z" fill="#E1E1E9"/>
<path d="M28.2812 13.5146V32.8124C28.2812 33.6204 28.6978 34.3712 29.3822 34.7992L47.0312 45.8298V24.7643L28.2812 13.5146Z" fill="#E1E1E9"/>
</g>
<defs>
<clipPath id="clip0">
<rect width="80" height="80" fill="white"/>
</clipPath>
</defs>
</svg>
