<svg width="80" height="80" viewBox="0 0 80 80" fill="none" xmlns="http://www.w3.org/2000/svg">
<g clip-path="url(#clip0)">
<path d="M78.3333 63.3333H1.66672C0.745469 63.3333 0 64.0787 0 65V75C0 75.9212 0.745469 76.6667 1.66672 76.6667H78.3334C79.2547 76.6667 80.0002 75.9212 80.0002 75V65C80 64.0787 79.2545 63.3333 78.3333 63.3333Z" fill="#E1E1E9"/>
<path d="M5.00026 23.3089H13.3335V58.3089C13.3335 59.2301 14.079 59.9756 15.0003 59.9756H25.0003C25.9215 59.9756 26.667 59.2301 26.667 58.3089V23.3089H35.0003C35.6578 23.3089 36.2535 22.9215 36.5237 22.3209C36.7906 21.7187 36.68 21.0172 36.2404 20.5273L21.2404 3.8606C20.6025 3.15747 19.3979 3.15747 18.76 3.8606L3.75995 20.5273C3.32042 21.0172 3.2098 21.7187 3.47667 22.3209C3.74698 22.9215 4.34276 23.3089 5.00026 23.3089Z" fill="#E1E1E9"/>
<path d="M45.0003 23.3089H53.3336V58.3089C53.3336 59.2301 54.0791 59.9756 55.0003 59.9756H65.0003C65.9216 59.9756 66.6671 59.2301 66.6671 58.3089V23.3089H75.0003C75.6578 23.3089 76.2536 22.9215 76.5238 22.3209C76.7907 21.7187 76.68 21.0172 76.2405 20.5273L61.2405 3.8606C60.6025 3.15747 59.398 3.15747 58.76 3.8606L43.76 20.5273C43.3205 21.0172 43.2099 21.7187 43.4767 22.3209C43.747 22.9215 44.3428 23.3089 45.0003 23.3089Z" fill="#E1E1E9"/>
</g>
<defs>
<clipPath id="clip0">
<rect width="80" height="80" fill="white"/>
</clipPath>
</defs>
</svg>
