<svg width="80" height="80" viewBox="0 0 80 80" fill="none" xmlns="http://www.w3.org/2000/svg">
<g clip-path="url(#clip0)">
<path d="M78.1819 0H1.81824C0.813239 0 0 0.813239 0 1.81824V78.1819C0 79.1869 0.813239 80.0002 1.81824 80.0002H78.1819C79.1869 80.0002 80.0002 79.1869 80.0002 78.1819V1.81824C80 0.813239 79.1869 0 78.1819 0ZM32.7273 65.4546H14.5454V58.1818H32.7273V65.4546ZM32.7273 43.6364H14.5454V36.3636H32.7273V43.6364ZM32.7273 21.8182H14.5454V14.5454H32.7273V21.8182ZM65.4546 65.4546H47.2727V58.1818H65.4546V65.4546ZM65.4546 43.6364H47.2727V36.3636H65.4546V43.6364ZM65.4546 21.8182H47.2727V14.5454H65.4546V21.8182Z" fill="#E1E1E9"/>
</g>
<defs>
<clipPath id="clip0">
<rect width="80" height="80" fill="white"/>
</clipPath>
</defs>
</svg>
