<svg width="80" height="80" viewBox="0 0 80 80" fill="none" xmlns="http://www.w3.org/2000/svg">
<g clip-path="url(#clip0)">
<path d="M65.4546 50.9092C65.4546 49.905 64.6405 49.0909 63.6364 49.0909H16.3637C15.3595 49.0909 14.5454 49.905 14.5454 50.9092V54.5455C14.5454 55.5496 15.3595 56.3637 16.3637 56.3637H63.6364C64.6405 56.3637 65.4546 55.5496 65.4546 54.5455V50.9092Z" fill="#E1E1E9"/>
<path d="M65.4546 40.0001C65.4546 38.996 64.6405 38.1819 63.6364 38.1819H16.3637C15.3595 38.1819 14.5454 38.996 14.5454 40.0001V43.6364C14.5454 44.6406 15.3595 45.4547 16.3637 45.4547H63.6364C64.6405 45.4547 65.4546 44.6406 65.4546 43.6364V40.0001Z" fill="#E1E1E9"/>
<path d="M12.9476 12.1947C13.2885 12.5357 13.7511 12.7273 14.2333 12.7273H65.7667C66.2489 12.7273 66.7116 12.5357 67.0525 12.1947L75.8133 3.43227C76.2536 2.99012 76.4384 2.35279 76.2998 1.74375C76.1612 1.13472 75.7209 0.639375 75.1315 0.431591C74.3077 0.141989 73.5193 0 72.7274 0H7.27283C6.4809 0 5.69254 0.141989 4.86874 0.431421C4.2793 0.639205 3.83885 1.13455 3.70044 1.74358C3.56203 2.35262 3.74663 2.99012 4.18692 3.4321L12.9476 12.1947Z" fill="#E1E1E9"/>
<path d="M65.4546 29.0909C65.4546 28.0868 64.6405 27.2727 63.6364 27.2727H16.3637C15.3595 27.2727 14.5454 28.0868 14.5454 29.0909V32.7273C14.5454 33.7314 15.3595 34.5455 16.3637 34.5455H63.6364C64.6405 34.5455 65.4546 33.7314 65.4546 32.7273V29.0909Z" fill="#E1E1E9"/>
<path d="M65.4546 18.1819C65.4546 17.1777 64.6405 16.3636 63.6364 16.3636H16.3637C15.3595 16.3636 14.5454 17.1777 14.5454 18.1819V21.8182C14.5454 22.8223 15.3595 23.6364 16.3637 23.6364H63.6364C64.6405 23.6364 65.4546 22.8223 65.4546 21.8182V18.1819Z" fill="#E1E1E9"/>
<path d="M67.0528 71.4417C66.7118 71.1008 66.2492 70.9092 65.7672 70.9092H14.2336C13.7514 70.9092 13.289 71.1008 12.9481 71.4417L7.49333 76.8964C6.97481 77.4166 6.81867 78.1978 7.09907 78.8779C7.37964 79.5581 8.04373 80 8.77873 80H71.2219C71.9571 80 72.621 79.5579 72.9016 78.8779C73.1821 78.1978 73.0258 77.4166 72.5073 76.8964L67.0528 71.4417Z" fill="#E1E1E9"/>
<path d="M78.8777 7.09878C78.1994 6.81463 77.4147 6.97452 76.8961 7.49304L69.6233 14.7658C69.2824 15.1067 69.0908 15.5694 69.0908 16.0514V67.5853C69.0908 68.0675 69.2822 68.5298 69.6232 68.8709L76.566 75.815C77.0063 76.2553 77.6421 76.4471 78.2492 76.3034C78.8565 76.1667 79.3536 75.7281 79.5631 75.1421C79.8542 74.3307 80 73.5192 80 72.7272V8.77844C79.9998 8.04327 79.5559 7.37935 78.8777 7.09878Z" fill="#E1E1E9"/>
<path d="M63.6364 60H16.3637C15.3595 60 14.5454 60.8141 14.5454 61.8182V65.4545C14.5454 66.4587 15.3595 67.2728 16.3637 67.2728H63.6364C64.6405 67.2728 65.4546 66.4587 65.4546 65.4545V61.8182C65.4546 60.8141 64.6405 60 63.6364 60Z" fill="#E1E1E9"/>
<path d="M10.9091 67.5852V16.0513C10.9091 15.5691 10.7175 15.1067 10.3766 14.7658L3.10364 7.49282C2.58512 6.9743 1.79676 6.81629 1.1221 7.09856C0.443864 7.3793 0 8.04322 0 8.77839V72.7274C0 73.5193 0.145568 74.3307 0.436875 75.1422C0.646364 75.7282 1.14358 76.1666 1.75074 76.3035C2.35807 76.4455 2.9937 76.2556 3.43398 75.8151L10.3768 68.871C10.7177 68.5299 10.9091 68.0675 10.9091 67.5852Z" fill="#E1E1E9"/>
</g>
<defs>
<clipPath id="clip0">
<rect width="80" height="80" fill="white"/>
</clipPath>
</defs>
</svg>
