<svg width="80" height="80" viewBox="0 0 80 80" fill="none" xmlns="http://www.w3.org/2000/svg">
<path d="M55.3613 76.7058L43.3333 74.0328V48.067C54.6208 46.4408 63.3333 36.7316 63.3333 25C63.3333 23.9811 63.2486 22.902 63.0761 21.7106C63.0794 21.613 63.0728 21.512 63.0566 21.4128L59.9803 1.41281C59.8567 0.600625 59.1569 0 58.3333 0H43.6653C42.8711 0 42.1875 0.561562 42.0313 1.33953L40.0325 11.3395C39.9349 11.8294 40.0619 12.3372 40.3775 12.723C40.6933 13.1088 41.1686 13.3333 41.6666 13.3333H48.9713L42.5585 26.1539L43.3235 18.4992C43.3724 18.0305 43.2192 17.5633 42.9035 17.215C42.5877 16.865 42.1385 16.6666 41.6664 16.6666H33.5871L35.6964 1.9025C35.7649 1.42391 35.6216 0.938906 35.3058 0.574375C34.9902 0.21 34.528 0 34.0463 0H21.6667C20.8432 0 20.1433 0.600625 20.0196 1.41281L16.9402 21.4128C16.9239 21.5153 16.9174 21.618 16.9239 21.7205C16.7514 22.9086 16.6667 23.9845 16.6667 25.0002C16.6667 36.7317 25.3792 46.4409 36.6667 48.0672V74.0328L24.6388 76.7058C23.8086 76.8914 23.2521 77.6709 23.3432 78.5156C23.4375 79.3603 24.1503 80 25 80H55C55.8497 80 56.5625 79.3603 56.6569 78.5156C56.748 77.6709 56.1914 76.8913 55.3613 76.7058Z" fill="#E1E1E9"/>
</svg>
