<svg width="80" height="80" viewBox="0 0 80 80" fill="none" xmlns="http://www.w3.org/2000/svg">
<path d="M74.4949 24.1982L41.3657 0.43922C40.5468 -0.146407 39.4534 -0.146407 38.6343 0.43922L5.5052 24.1982C4.19442 25.1386 4.2102 27.0929 5.52348 28.0185L38.6526 51.3087C39.4625 51.876 40.5376 51.876 41.3475 51.3087L74.4766 28.0185C75.7899 27.0929 75.8056 25.1386 74.4949 24.1982Z" fill="#E1E1E9"/>
<path d="M74.4949 38.5655L71.3114 36.2829L41.3475 57.347C40.5376 57.9143 39.4625 57.9143 38.6526 57.347L8.68864 36.2829L5.5052 38.5655C4.19442 39.506 4.2102 41.4602 5.52348 42.3858L38.6526 65.676C39.4625 66.2434 40.5376 66.2434 41.3475 65.676L74.4766 42.3858C75.7899 41.4604 75.8056 39.506 74.4949 38.5655Z" fill="#E1E1E9"/>
<path d="M74.4947 52.9331L71.3114 50.6504L41.3474 71.7144C40.5376 72.2817 39.4624 72.2817 38.6526 71.7144L8.68862 50.6503L5.50517 52.9329C4.19455 53.8712 4.20408 55.842 5.54174 56.7647L38.6709 79.5858C39.4693 80.1378 40.5306 80.1378 41.329 79.5858L74.4581 56.7647C75.7958 55.8422 75.8053 53.8711 74.4947 52.9331Z" fill="#E1E1E9"/>
</svg>
