<svg width="80" height="80" viewBox="0 0 80 80" fill="none" xmlns="http://www.w3.org/2000/svg">
<path d="M32.0872 32.5345C31.1104 30.9625 30.3277 29.292 29.7432 27.5592V53.0026L37.9379 38.9548C35.6241 37.2005 33.6382 35.03 32.0872 32.5345Z" fill="#E1E1E9"/>
<path d="M52.3072 0.769165C41.7216 0.769165 33.1094 9.38135 33.1094 19.967C33.1094 21.4476 33.2836 22.9018 33.6113 24.3076C33.6186 24.3395 33.6261 24.3715 33.6336 24.4032C33.67 24.5564 33.7084 24.7089 33.7486 24.8607C33.7566 24.8907 33.7647 24.9207 33.773 24.9506C33.9519 25.6139 34.1658 26.2648 34.4131 26.9014C34.4241 26.9293 34.4345 26.9574 34.4456 26.9856C34.5008 27.1254 34.5578 27.2645 34.6161 27.4028C34.6333 27.4439 34.6508 27.4848 34.6684 27.5257C34.7267 27.6614 34.7859 27.7965 34.8473 27.9307C34.8631 27.9656 34.8797 27.9999 34.8958 28.0346C35.0997 28.4739 35.3197 28.9049 35.5556 29.3271C35.5728 29.3581 35.5895 29.3892 35.6069 29.4201C35.6733 29.5376 35.742 29.6539 35.8111 29.7698C35.8439 29.8248 35.8764 29.8799 35.9097 29.9346C35.9761 30.0439 36.0436 30.1523 36.1122 30.2601C36.1497 30.3193 36.188 30.3781 36.2264 30.4368C36.295 30.5423 36.3639 30.6476 36.4345 30.7518C36.4727 30.8079 36.512 30.8635 36.5508 30.9192C36.6959 31.1279 36.8447 31.3339 36.9978 31.5368C37.0294 31.5787 37.0602 31.6215 37.092 31.6629C37.1602 31.7517 37.2303 31.8389 37.3002 31.9267C37.3559 31.9968 37.4116 32.0671 37.4684 32.1367C37.5364 32.2196 37.6053 32.3017 37.6747 32.3834C37.7367 32.4567 37.7992 32.5292 37.8622 32.6015C37.93 32.6793 37.9983 32.7568 38.0673 32.8335C38.137 32.9107 38.208 32.9871 38.2789 33.0632C38.3442 33.1334 38.4091 33.204 38.4755 33.2732C38.5792 33.3814 38.685 33.4878 38.7912 33.5935C38.8664 33.6684 38.9427 33.7423 39.0191 33.8159C39.1178 33.911 39.2169 34.0056 39.3177 34.0987C39.3803 34.1564 39.4439 34.2129 39.5073 34.2696C39.5969 34.3499 39.6867 34.4298 39.7778 34.5084C39.8433 34.5649 39.9094 34.621 39.9756 34.6767C40.07 34.7559 40.1652 34.834 40.2609 34.9117C40.3242 34.9629 40.3873 35.0143 40.4514 35.0646C40.5653 35.1543 40.6808 35.2421 40.7967 35.3295C40.8439 35.3648 40.8903 35.4014 40.9378 35.4364C41.1003 35.556 41.2648 35.6732 41.4316 35.7881C41.4795 35.8212 41.5284 35.8529 41.5767 35.8854C41.7 35.9687 41.8237 36.0509 41.9492 36.1315C42.0123 36.172 42.0761 36.2117 42.1397 36.2515C42.2544 36.3232 42.3697 36.394 42.4861 36.4634C42.5516 36.5024 42.6173 36.5414 42.6833 36.5798C42.8066 36.6514 42.9309 36.721 43.0561 36.7899C43.1144 36.8221 43.1722 36.8546 43.2309 36.8862C43.4144 36.9848 43.5992 37.0814 43.7866 37.1742L47.1161 42.3076L49.9995 46.7528L50.3712 47.3259C50.7967 47.9818 51.5255 48.3778 52.3072 48.3778C53.0891 48.3778 53.8176 47.982 54.2431 47.3259L54.6148 46.7528L54.8351 46.4131L57.4715 42.3485L60.8278 37.1743C61.0156 37.0812 61.2011 36.9845 61.3847 36.8857C61.4437 36.854 61.5019 36.8209 61.5606 36.7887C61.6854 36.7199 61.8094 36.6504 61.9323 36.579C61.9995 36.5401 62.0662 36.5004 62.1328 36.4606C62.2478 36.392 62.3617 36.3223 62.475 36.2514C62.5404 36.2103 62.6062 36.1693 62.6711 36.1276C62.7904 36.0509 62.9086 35.9721 63.0261 35.8929C63.0809 35.856 63.1364 35.8198 63.1908 35.7823C63.357 35.6674 63.5215 35.5507 63.6837 35.4312C63.7269 35.3993 63.7687 35.3662 63.8114 35.3343C63.9319 35.2439 64.0517 35.1528 64.1697 35.0596C64.2356 35.0076 64.3004 34.9546 64.3656 34.9017C64.459 34.8262 64.5517 34.7501 64.6436 34.6729C64.7134 34.6142 64.7826 34.5549 64.8515 34.4953C64.9367 34.4214 65.0212 34.3467 65.1053 34.2712C65.175 34.2085 65.2448 34.1462 65.3136 34.0828C65.3965 34.0062 65.4781 33.9281 65.5594 33.8499C65.6253 33.7867 65.6923 33.7243 65.7573 33.6603C65.89 33.5296 66.0208 33.3971 66.1494 33.2629C66.2237 33.1854 66.2959 33.106 66.3689 33.0273C66.4315 32.9598 66.4944 32.8923 66.5561 32.8239C66.6323 32.7392 66.7072 32.6534 66.7817 32.5674C66.8367 32.5042 66.8914 32.4409 66.9454 32.377C67.0223 32.2862 67.0984 32.1948 67.1734 32.1026C67.2208 32.0445 67.2675 31.9859 67.314 31.9271C67.3928 31.8281 67.4714 31.729 67.5484 31.6285C67.5781 31.5896 67.6069 31.5499 67.6364 31.5109C67.9212 31.1321 68.1919 30.7432 68.4479 30.3448C68.4695 30.311 68.4915 30.2779 68.5128 30.244C68.592 30.1192 68.6692 29.9931 68.7456 29.8664C68.7683 29.8289 68.7906 29.7912 68.8129 29.7537C68.8904 29.6229 68.9667 29.4915 69.0411 29.359C69.0548 29.3346 69.0679 29.3101 69.0815 29.2857C69.4231 28.6714 69.7312 28.0382 70.0044 27.3884C70.0067 27.3829 70.0092 27.3773 70.0114 27.3718C70.0789 27.2107 70.144 27.0487 70.207 26.8859C70.2114 26.8749 70.2154 26.8639 70.2198 26.8529C70.6106 25.8387 70.9167 24.7882 71.1319 23.7107C71.1319 23.7106 71.132 23.7103 71.132 23.7101C71.3753 22.491 71.5045 21.2389 71.5045 19.967C71.505 9.38135 62.8931 0.769165 52.3072 0.769165ZM52.3072 30.3907C46.5597 30.3907 41.8834 25.7146 41.8834 19.967C41.8834 14.2193 46.5595 9.54307 52.3072 9.54307C58.0548 9.54307 62.7309 14.2192 62.7309 19.967C62.7309 25.7146 58.0547 30.3907 52.3072 30.3907Z" fill="#E1E1E9"/>
<path d="M78.2412 25.4509L75.6209 24.8092C75.0543 27.5303 74.0129 30.145 72.5278 32.5347C70.4176 35.9298 67.5047 38.7269 64.0517 40.6865L60.543 46.0959L68.785 56.1539H79.9999V27.6923C79.9999 26.6292 79.2737 25.7037 78.2412 25.4509Z" fill="#E1E1E9"/>
<path d="M2.85656 19.297C2.16859 19.1284 1.44078 19.2853 0.882969 19.7228C0.325625 20.1604 0 20.8298 0 21.5384V43.8461H12.3077C12.9264 43.8461 13.5192 44.0945 13.953 44.5357L25.1281 55.9003V24.7512L2.85656 19.297Z" fill="#E1E1E9"/>
<path d="M46.4993 49.8373L41.615 42.3076H41.325L29.7432 62.1623V78.7339L49.9997 73.7731V52.5965C48.581 52.0964 47.3455 51.142 46.4993 49.8373Z" fill="#E1E1E9"/>
<path d="M67.6921 60.7693C67.0007 60.7693 66.3457 60.4591 65.9072 59.9241L57.8984 50.1505C57.0643 51.295 55.9176 52.1375 54.6152 52.5963V73.6472L77.1432 79.1643C77.3249 79.2088 77.5088 79.2305 77.6919 79.2305C78.2033 79.2305 78.7063 79.0605 79.1167 78.7383C79.6742 78.3008 79.9999 77.6316 79.9999 76.9229V60.7693H67.6921Z" fill="#E1E1E9"/>
<path d="M11.3405 48.4615H0V70.7692C0 71.8323 0.726094 72.7578 1.75875 73.0106L25.1281 78.7337V62.483L11.3405 48.4615Z" fill="#E1E1E9"/>
</svg>
