<svg width="80" height="80" viewBox="0 0 80 80" fill="none" xmlns="http://www.w3.org/2000/svg">
<path d="M51.6801 15.3973C51.3163 14.67 50.5729 14.2103 49.7595 14.2103H47.0271V2.34234C47.0273 1.04875 45.9785 0 44.6849 0H35.3154C34.0218 0 32.9731 1.04875 32.9731 2.34234V14.2105H30.2406C29.4273 14.2105 28.6839 14.67 28.3199 15.3975C27.9562 16.125 28.0348 16.9955 28.5228 17.6462L38.1262 30.4492C39.0632 31.6983 40.9368 31.6983 41.8738 30.4492L51.4773 17.6462C51.9652 16.9955 52.0438 16.125 51.6801 15.3973Z" fill="#E1E1E9"/>
<path d="M75.6414 34.8278L72.0625 31.2489L43.9539 45.3031L49.8312 51.1804L75.0325 38.5791C76.4625 37.8642 76.7717 35.9583 75.6414 34.8278Z" fill="#E1E1E9"/>
<path d="M7.93703 31.249L4.35813 34.8279C3.2275 35.9586 3.53688 37.8643 4.96688 38.5793L30.1683 51.1808L36.0456 45.3034L7.93703 31.249Z" fill="#E1E1E9"/>
<path d="M53.4137 22.8719L45.6202 33.2605C44.2843 35.0447 42.2348 36.0718 39.9999 36.0718C37.7649 36.0718 35.7154 35.0447 34.3773 33.2582L26.5873 22.8716L12.0466 28.0656L39.9999 42.0421L67.9535 28.0652L53.4137 22.8719Z" fill="#E1E1E9"/>
<path d="M32.27 55.6704C31.8486 56.139 31.2395 56.3732 30.6305 56.3732C30.2555 56.3732 29.9277 56.2793 29.6 56.139L9.54907 46.1136V64.4935C9.54907 65.3836 10.0644 66.1801 10.8609 66.6016L37.6577 80.0001V50.3297L32.27 55.6704Z" fill="#E1E1E9"/>
<path d="M50.4002 56.139C50.0725 56.2793 49.7444 56.3732 49.3697 56.3732C48.7607 56.3732 48.1517 56.139 47.7302 55.6704L42.3425 50.3297V80.0001L69.1392 66.6016C69.9358 66.1799 70.4511 65.3836 70.4511 64.4935V46.1136L50.4002 56.139Z" fill="#E1E1E9"/>
</svg>
