<svg width="80" height="80" viewBox="0 0 80 80" fill="none" xmlns="http://www.w3.org/2000/svg">
<g clip-path="url(#clip0)">
<path d="M66.0597 30.2724C71.9032 30.2724 76.6021 25.5591 76.6021 19.7442C76.6021 13.9257 71.8995 9.20544 66.0597 9.20544C60.2519 9.20544 55.5459 13.9222 55.5459 19.7442C55.5459 25.5554 60.2519 30.2724 66.0597 30.2724Z" fill="#E1E1E9"/>
<path d="M74.5131 31.9872H57.6282C55.1219 31.9872 53.0113 33.9231 52.3624 36.5258L42.337 57.0507C42.1944 57.04 42.0732 56.9687 41.9269 56.9687H38.0624C37.9197 56.9687 37.7949 57.0436 37.6594 57.0507L27.634 36.5294C26.9888 33.9267 24.8816 31.9873 22.3718 31.9873H5.47623C2.45639 31.9872 0 34.7574 0 38.1551V70.7946H27.8515V52.2662L33.9338 63.5109C34.5221 65.4646 36.1301 66.8799 38.066 66.8799H41.9307C43.8667 66.8799 45.4782 65.4645 46.07 63.5109L52.1487 52.2662V70.7946H80.0002V38.1549C79.9964 34.7574 77.5364 31.9872 74.5131 31.9872Z" fill="#E1E1E9"/>
<path d="M13.933 30.2724C19.7408 30.2724 24.4468 25.5591 24.4468 19.7442C24.4504 13.9222 19.7442 9.20544 13.933 9.20544C8.09681 9.20544 3.39062 13.9222 3.39062 19.7442C3.39062 25.5554 8.09664 30.2724 13.933 30.2724Z" fill="#E1E1E9"/>
</g>
<defs>
<clipPath id="clip0">
<rect width="80" height="80" fill="white"/>
</clipPath>
</defs>
</svg>
