<svg width="80" height="80" viewBox="0 0 80 80" fill="none" xmlns="http://www.w3.org/2000/svg">
<g clip-path="url(#clip0)">
<path d="M77.8226 58.7119L66.6584 47.5477C62.6711 43.5605 55.8928 45.1555 54.298 50.3388C53.1018 53.9274 49.1146 55.921 45.526 55.1234C37.5516 53.1298 26.7861 42.763 24.7925 34.3898C23.5963 30.8012 25.9886 26.814 29.5771 25.6179C34.7605 24.023 36.3554 17.2448 32.3682 13.2575L21.204 2.09329C18.0142 -0.697765 13.2295 -0.697765 10.4384 2.09329L2.86271 9.66903C-4.71302 17.6435 3.66016 38.7758 22.4001 57.5158C41.1401 76.2557 62.2724 85.0278 70.2469 77.0532L77.8226 69.4774C80.6138 66.2877 80.6138 61.503 77.8226 58.7119Z" fill="#E1E1E9"/>
</g>
<defs>
<clipPath id="clip0">
<rect width="80" height="80" fill="white"/>
</clipPath>
</defs>
</svg>
