<svg width="80" height="80" viewBox="0 0 80 80" fill="none" xmlns="http://www.w3.org/2000/svg">
<g clip-path="url(#clip0)">
<path d="M40 0C17.9695 0 0.0410963 17.903 2.56122e-06 39.9241C-0.00140369 40.7506 0.576409 41.5153 1.39281 41.6448C2.43547 41.8103 3.33328 41.0109 3.33328 40C3.33328 36.3233 6.88469 33.3333 11.25 33.3333C15.5759 33.3333 19.1027 36.2695 19.1658 39.9009C19.1806 40.7625 19.7714 41.5519 20.6272 41.6542C21.6408 41.7755 22.5 40.9889 22.5 40C22.5 36.3233 26.0514 33.3333 30.4167 33.3333C32.9686 33.3333 35.218 34.3723 36.6667 35.9558V70.8333C36.6667 72.1891 35.14 73.3333 33.3334 73.3333C31.5269 73.3333 30 72.1891 30 70.8333C30 70.7255 30.0092 70.6189 30.0277 70.5139C30.1372 69.8903 29.9711 69.252 29.4702 68.8645L26.5498 66.6058C25.7614 65.9961 24.5956 66.255 24.1664 67.1545C23.6177 68.3034 23.3333 69.5494 23.3333 70.8333C23.3333 75.887 27.8189 80 33.3333 80C38.8477 80 43.3333 75.887 43.3333 70.8333V35.9558C44.782 34.3723 47.0314 33.3333 49.5833 33.3333C53.9092 33.3333 57.4359 36.2695 57.4991 39.9009C57.5139 40.7625 58.1047 41.5519 58.9605 41.6542C59.9741 41.7755 60.8333 40.9889 60.8333 40C60.8333 36.3233 64.3847 33.3333 68.75 33.3333C73.0759 33.3333 76.6027 36.2695 76.6658 39.9009C76.6806 40.7625 77.2714 41.5519 78.1272 41.6542C79.1408 41.7755 80 40.9889 80 40C80 17.9444 62.0556 0 40 0Z" fill="#E1E1E9"/>
</g>
<defs>
<clipPath id="clip0">
<rect width="80" height="80" fill="white"/>
</clipPath>
</defs>
</svg>
