<svg width="80" height="80" viewBox="0 0 80 80" fill="none" xmlns="http://www.w3.org/2000/svg">
<g clip-path="url(#clip0)">
<path d="M50.0003 21.6667C48.1603 21.6667 46.667 20.1734 46.667 18.3334V13.3334H33.3337V18.3334C33.3337 20.1734 31.8403 21.6667 30.0003 21.6667C28.1603 21.6667 26.667 20.1734 26.667 18.3334V13.3334C26.667 9.65669 29.657 6.66669 33.3337 6.66669H46.667C50.3436 6.66669 53.3336 9.65669 53.3336 13.3334V18.3334C53.3336 20.1734 51.8403 21.6667 50.0003 21.6667Z" fill="#E1E1E9"/>
<path d="M42.3667 51.2667C41.7667 51.5 40.9 51.6667 40 51.6667C39.1 51.6667 38.2333 51.5 37.4333 51.2L0 38.7333V64.1667C0 69.2333 4.1 73.3333 9.16667 73.3333H70.8333C75.9 73.3333 80 69.2333 80 64.1667V38.7333L42.3667 51.2667Z" fill="#E1E1E9"/>
<path d="M80 25.8334V33.4667L40.8 46.5334C40.5333 46.6334 40.2667 46.6667 40 46.6667C39.7333 46.6667 39.4667 46.6334 39.2 46.5334L0 33.4667V25.8334C0 20.7667 4.1 16.6667 9.16667 16.6667H70.8333C75.9 16.6667 80 20.7667 80 25.8334V25.8334Z" fill="#E1E1E9"/>
</g>
<defs>
<clipPath id="clip0">
<rect width="80" height="80" fill="white"/>
</clipPath>
</defs>
</svg>
