<svg width="24" height="24" viewBox="0 0 24 24" fill="none" xmlns="http://www.w3.org/2000/svg">
<path d="M20.1449 1.61724H3.83162C2.12599 1.61724 0.738281 3.00467 0.738281 4.71057V14.694C0.738281 16.396 2.11995 17.7813 3.82063 17.7873V22.3177L10.3313 17.7873H20.1449C21.8506 17.7873 23.2383 16.3996 23.2383 14.694V4.71057C23.2383 3.00467 21.8506 1.61724 20.1449 1.61724ZM21.9199 14.694C21.9199 15.6726 21.1237 16.469 20.1449 16.469H9.91763L5.13899 19.7942V16.469H3.83162C2.85287 16.469 2.05664 15.6726 2.05664 14.694V4.71057C2.05664 3.73169 2.85287 2.9356 3.83162 2.9356H20.1449C21.1237 2.9356 21.9199 3.73169 21.9199 4.71057V14.694Z" fill="#A3A3A3"/>
<path d="M6.76025 6.27558H17.2162V7.59393H6.76025V6.27558Z" fill="#A3A3A3"/>
<path d="M6.76025 9.08808H17.2162V10.4064H6.76025V9.08808Z" fill="#A3A3A3"/>
<path d="M6.76025 11.9006H17.2162V13.2189H6.76025V11.9006Z" fill="#A3A3A3"/>
</svg>
