<svg width="16" height="16" viewBox="0 0 16 16" fill="none" xmlns="http://www.w3.org/2000/svg">
<g clip-path="url(#clip0)">
<path d="M15.8609 3.5903C15.7363 3.43081 15.5453 3.33759 15.3429 3.33759H2.83262L2.64666 1.26593C2.61625 0.927145 2.33232 0.667557 1.99219 0.667557H0.657105C0.294195 0.667557 0 0.961752 0 1.32466C0 1.68757 0.294195 1.98177 0.657105 1.98177H1.39143L2.11168 10.0059C2.11184 10.0154 2.11137 10.0247 2.1119 10.0342C2.11337 10.0594 2.11666 10.0841 2.12085 10.1083L2.1472 10.4017C2.1477 10.4073 2.14826 10.4128 2.14892 10.4183C2.22877 11.1101 2.58233 11.7095 3.09359 12.1145C2.82868 12.4529 2.67016 12.8783 2.67016 13.3403C2.67016 14.4388 3.56385 15.3324 4.66231 15.3324C5.76081 15.3324 6.6545 14.4388 6.6545 13.3403C6.6545 13.1023 6.61241 12.874 6.53556 12.6623H10.132C10.0551 12.874 10.0131 13.1023 10.0131 13.3403C10.0131 14.4388 10.9067 15.3324 12.0052 15.3324C13.1037 15.3324 13.9974 14.4388 13.9974 13.3403C13.9974 12.2418 13.1037 11.3481 12.0052 11.3481H4.66676C4.16761 11.3481 3.73264 11.0469 3.54489 10.6082L14.0463 9.991C14.333 9.97416 14.5756 9.77303 14.6452 9.49441L15.9804 4.15403C16.0294 3.95777 15.9854 3.74982 15.8609 3.5903V3.5903Z" fill="#00B4D8"/>
</g>
<defs>
<clipPath id="clip0">
<rect width="16" height="16" fill="white"/>
</clipPath>
</defs>
</svg>
