<svg width="24" height="24" viewBox="0 0 24 24" fill="none" xmlns="http://www.w3.org/2000/svg">
<g clip-path="url(#clip0)">
<path d="M23.7913 5.38544C23.6045 5.1462 23.3179 5.00638 23.0143 5.00638H4.24893L3.96999 1.89889C3.92437 1.39071 3.49847 1.00133 2.98828 1.00133H0.985657C0.441293 1.00133 0 1.44262 0 1.98698C0 2.53135 0.441293 2.97264 0.985657 2.97264H2.08715L3.16753 15.0089C3.16776 15.0231 3.16706 15.037 3.16785 15.0513C3.17006 15.0891 3.17499 15.1261 3.18128 15.1625L3.2208 15.6026C3.22155 15.6109 3.22239 15.6192 3.22338 15.6274C3.34316 16.6652 3.87349 17.5643 4.64038 18.1718C4.24302 18.6793 4.00524 19.3174 4.00524 20.0104C4.00524 21.6581 5.34578 22.9987 6.99347 22.9987C8.64121 22.9987 9.98175 21.6581 9.98175 20.0104C9.98175 19.6534 9.91862 19.311 9.80334 18.9934H15.198C15.0827 19.311 15.0196 19.6534 15.0196 20.0104C15.0196 21.6581 16.3601 22.9987 18.0079 22.9987C19.6556 22.9987 20.9961 21.6581 20.9961 20.0104C20.9961 18.3626 19.6556 17.0221 18.0079 17.0221H7.00014C6.25141 17.0221 5.59895 16.5704 5.31734 15.9123L21.0695 14.9865C21.4995 14.9612 21.8633 14.6595 21.9679 14.2416L23.9706 6.23104C24.0442 5.93665 23.978 5.62472 23.7913 5.38544Z" fill="#75C1EC"/>
</g>
<defs>
<clipPath id="clip0">
<rect width="24" height="24" fill="white"/>
</clipPath>
</defs>
</svg>
