<svg width="17" height="16" viewBox="0 0 17 16" fill="none" xmlns="http://www.w3.org/2000/svg">
<g clip-path="url(#clip0)">
<path d="M16.6539 3.59034C16.5232 3.43085 16.3225 3.33764 16.11 3.33764H2.97425L2.77899 1.26597C2.74706 0.92719 2.44893 0.667603 2.09179 0.667603H0.68996C0.308905 0.667603 0 0.961798 0 1.32471C0 1.68762 0.308905 1.98181 0.68996 1.98181H1.46101L2.21727 10.006C2.21743 10.0154 2.21694 10.0247 2.2175 10.0342C2.21904 10.0594 2.22249 10.0841 2.22689 10.1084L2.25456 10.4018C2.25508 10.4073 2.25568 10.4128 2.25637 10.4183C2.34021 11.1102 2.71144 11.7096 3.24827 12.1146C2.97011 12.4529 2.80367 12.8783 2.80367 13.3403C2.80367 14.4388 3.74205 15.3325 4.89543 15.3325C6.04885 15.3325 6.98722 14.4388 6.98722 13.3403C6.98722 13.1023 6.94303 12.8741 6.86234 12.6623H10.6386C10.5579 12.8741 10.5137 13.1023 10.5137 13.3403C10.5137 14.4388 11.4521 15.3325 12.6055 15.3325C13.7589 15.3325 14.6973 14.4388 14.6973 13.3403C14.6973 12.2418 13.7589 11.3481 12.6055 11.3481H4.9001C4.37599 11.3481 3.91927 11.047 3.72214 10.6082L14.7486 9.99104C15.0496 9.97421 15.3043 9.77307 15.3775 9.49446L16.7794 4.15408C16.8309 3.95782 16.7846 3.74986 16.6539 3.59034Z" fill="white"/>
</g>
<defs>
<clipPath id="clip0">
<rect width="16.8" height="16" fill="white"/>
</clipPath>
</defs>
</svg>
