<svg width="18" height="16" viewBox="0 0 18 16" fill="none" xmlns="http://www.w3.org/2000/svg">
<path d="M14.98 16C15.2824 15.0707 16.2683 11.8333 16.2683 10.6404V6.49767C16.2683 5.93945 15.7975 5.48525 15.2188 5.48525C14.6402 5.48525 14.1694 5.93945 14.1694 6.49767V8.26413C14.1694 8.36795 14.0808 8.45231 13.9718 8.45231C13.8628 8.45231 13.7743 8.36795 13.7743 8.26413V5.50357C13.7743 4.94551 13.3033 4.49137 12.7246 4.49137C12.1459 4.49137 11.6751 4.94551 11.6751 5.50357V7.47168C11.6751 7.57549 11.5865 7.6598 11.4776 7.6598C11.3686 7.6598 11.2801 7.57543 11.2801 7.47168V4.71138C11.2801 4.15337 10.8093 3.69945 10.2305 3.69945C9.65192 3.69945 9.18112 4.15337 9.18112 4.71138V6.67997C9.18112 6.78362 9.09243 6.86809 8.98354 6.86809C8.87454 6.86809 8.78601 6.78362 8.78601 6.67997V1.01215C8.78607 0.45398 8.3151 0 7.73632 0C7.1576 0 6.68669 0.45398 6.68669 1.01215V9.78855C6.68669 9.86661 6.63527 9.93735 6.55851 9.96477C6.48243 9.99192 6.39346 9.97032 6.34045 9.9123L3.88205 7.23405L3.8532 7.20555C3.65619 7.02799 3.39768 6.92951 3.1256 6.92805H3.11859C2.83559 6.93118 2.57392 7.03375 2.38182 7.21713C2.13972 7.44787 1.95 7.88881 2.42249 8.68008C3.13997 9.88019 3.92414 11.0185 4.61888 12.0267C5.13538 12.7766 5.62331 13.4848 5.98709 14.0822C6.21963 14.4644 6.70474 15.4681 6.97297 15.9999H14.98V16Z" fill="white"/>
</svg>
