<svg width="17" height="16" viewBox="0 0 17 16" fill="none" xmlns="http://www.w3.org/2000/svg">
<g clip-path="url(#clip0)">
<path d="M16.7994 3.59357V1.43743C16.7994 0.643561 16.1237 0 15.2901 0H6.7593C5.92574 0 5.25 0.643561 5.25 1.43743V3.59357C5.25 3.67984 5.32346 3.74981 5.41405 3.74981H16.6354C16.726 3.74981 16.7994 3.67984 16.7994 3.59357Z" fill="white"/>
<path d="M5.25 4.906V5.56222C5.25 6.35608 5.92574 6.99964 6.7593 6.99964H15.2901C16.1237 6.99964 16.7994 6.35608 16.7994 5.56222V4.906C16.7994 4.81972 16.7259 4.74976 16.6354 4.74976H5.41405C5.32346 4.74976 5.25 4.81972 5.25 4.906V4.906Z" fill="white"/>
<path d="M16.4285 11.8642C16.1332 11.1142 15.3225 10.6889 14.4993 10.8518L11.386 11.4294C11.3196 11.4417 11.2688 11.4917 11.2561 11.555C11.1056 12.3054 10.4119 12.8743 9.58076 12.8743H7.36446C7.08179 12.8743 6.83857 12.6674 6.82524 12.3985C6.81107 12.1114 7.05128 11.8744 7.34963 11.8744H9.58076C9.71342 11.8744 9.83692 11.8367 9.94014 11.7719C10.1018 11.6704 10.2015 11.5011 10.2247 11.318C10.2361 11.2285 10.2398 11.1369 10.2348 11.0435C10.1889 10.1737 9.41592 9.4995 8.50155 9.4995H6.14498L2.56919 8.03998C2.50386 8.01332 2.43348 7.99957 2.36238 7.99957H0.524973C0.235024 7.99957 0 8.22341 0 8.49955V14.1451C0 14.4212 0.235024 14.6451 0.524973 14.6451H2.02636L6.50281 15.8631C6.8383 15.9544 7.18101 16 7.52336 15.9999C7.92716 15.9999 8.33038 15.9365 8.71974 15.8101L15.3346 13.973C15.3372 13.9723 15.3398 13.9716 15.3423 13.9708C15.7862 13.8404 16.1583 13.5379 16.363 13.1408C16.5677 12.7437 16.5916 12.2784 16.4285 11.8642V11.8642Z" fill="white"/>
</g>
<defs>
<clipPath id="clip0">
<rect width="16.8" height="16" fill="white"/>
</clipPath>
</defs>
</svg>
