<svg width="24" height="24" viewBox="0 0 24 24" fill="none" xmlns="http://www.w3.org/2000/svg">
<g clip-path="url(#clip0)">
<path d="M23.6093 12.7765L18.3281 10.1578V3.51582C18.3281 3.25646 18.1814 3.00746 17.9394 2.8869L12.3144 0.074398C12.1165 -0.0245552 11.8835 -0.0245552 11.6856 0.074398L6.06056 2.8869C5.82872 3.00244 5.67188 3.24554 5.67188 3.51582V10.1578L0.39075 12.7765C0.150844 12.8959 0 13.1423 0 13.4064V20.4846C0 20.7576 0.159328 21.0002 0.39075 21.1145L6.06262 23.927C6.25472 24.0223 6.48895 24.0265 6.68944 23.9259L12 21.2707L17.3106 23.926C17.5035 24.0223 17.7356 24.0267 17.9374 23.927L23.6093 21.1145C23.8494 20.9959 24 20.7474 24 20.4846V13.4065C24 13.1341 23.8412 12.8912 23.6093 12.7765ZM5.67188 22.1636L1.40625 20.0484V14.5399L5.67188 16.6551V22.1636ZM6.37369 15.4335L2.28581 13.4065L6.37369 11.3795L10.4278 13.4065L6.37369 15.4335ZM11.2969 20.05L7.07812 22.1594V16.6535L11.2969 14.5441V20.05ZM11.2969 12.2688L7.07812 10.1594V4.65352L11.2969 6.7629V12.2688ZM7.94723 3.51587L12 1.48946L16.0528 3.51582L12 5.54223L7.94723 3.51587ZM16.9219 4.65352V10.1594L12.7031 12.2688V6.7629L16.9219 4.65352ZM16.9219 22.1594L12.7031 20.05V14.5441L16.9219 16.6535V22.1594ZM17.6263 15.4335L13.5722 13.4064L17.6263 11.3794L21.7142 13.4064L17.6263 15.4335ZM22.5938 20.0484L18.3281 22.1636V16.6551L22.5938 14.5399V20.0484Z" fill="#A3A3A3"/>
</g>
<defs>
<clipPath id="clip0">
<rect width="24" height="24" fill="white"/>
</clipPath>
</defs>
</svg>
