<svg width="50" height="50" viewBox="0 0 50 50" fill="none" xmlns="http://www.w3.org/2000/svg">
<path d="M9.16925 14.9208H2.93242C2.49082 14.9208 2.13281 15.2788 2.13281 15.7204C2.13281 16.162 2.49082 16.52 2.93242 16.52H9.16915C9.61076 16.52 9.96876 16.162 9.96876 15.7204C9.96876 15.2788 9.61085 14.9208 9.16925 14.9208Z" fill="#00B4D8"/>
<path d="M9.70148 26.115H3.99785C3.55625 26.115 3.19824 26.473 3.19824 26.9146C3.19824 27.3562 3.55625 27.7142 3.99785 27.7142H9.70158C10.1432 27.7142 10.5012 27.3562 10.5012 26.9146C10.5012 26.473 10.1431 26.115 9.70148 26.115Z" fill="#00B4D8"/>
<path d="M7.56945 21.3174H0.799611C0.358009 21.3174 0 21.6755 0 22.1171C0 22.5587 0.358009 22.9167 0.799611 22.9167H7.56945C8.01105 22.9167 8.36906 22.5587 8.36906 22.1171C8.36906 21.6755 8.01105 21.3174 7.56945 21.3174Z" fill="#00B4D8"/>
<path d="M7.56963 32.5117H6.91387C6.47227 32.5117 6.11426 32.8697 6.11426 33.3113C6.11426 33.7529 6.47227 34.1109 6.91387 34.1109H7.56963C8.01123 34.1109 8.36924 33.7529 8.36924 33.3113C8.36924 32.8697 8.01123 32.5117 7.56963 32.5117Z" fill="#00B4D8"/>
<path d="M4.24825 32.5117H0.799611C0.358009 32.5117 0 32.8697 0 33.3113C0 33.7529 0.358009 34.1109 0.799611 34.1109H4.24825C4.68985 34.1109 5.04786 33.7529 5.04786 33.3113C5.04786 32.8697 4.68985 32.5117 4.24825 32.5117Z" fill="#00B4D8"/>
<path d="M41.7752 12.3126H34.9975V10.8733C34.9975 10.4317 34.6395 10.0737 34.1979 10.0737H21.8024C21.3608 10.0737 21.0028 10.4317 21.0028 10.8733C21.0028 11.3149 21.3608 11.6729 21.8024 11.6729H33.3982V29.1867C33.3982 29.6283 33.7562 29.9863 34.1978 29.9863C34.6394 29.9863 34.9974 29.6283 34.9974 29.1867V13.9119H41.7751C45.4288 13.9119 48.4013 16.8839 48.4013 20.5371V34.0625H46.3683C45.9838 31.6487 43.8881 29.7978 41.3677 29.7978C38.8474 29.7978 36.7518 31.6487 36.3672 34.0625H34.9974V32.9183C34.9974 32.4767 34.6394 32.1187 34.1978 32.1187C33.7562 32.1187 33.3982 32.4767 33.3982 32.9183V34.0625H24.9117C24.5272 31.6487 22.4316 29.7978 19.9112 29.7978C17.3909 29.7978 15.2952 31.6487 14.9107 34.0625H13.2477V11.6729H18.6039C19.0455 11.6729 19.4035 11.3149 19.4035 10.8733C19.4035 10.4317 19.0455 10.0737 18.6039 10.0737H12.448C12.0064 10.0737 11.6484 10.4317 11.6484 10.8733V34.8621C11.6484 35.3037 12.0064 35.6617 12.448 35.6617H14.9107C15.2952 38.0755 17.3909 39.9264 19.9112 39.9264C22.4316 39.9264 24.5273 38.0755 24.9117 35.6617H36.3672C36.7518 38.0755 38.8474 39.9264 41.3677 39.9264C43.8881 39.9264 45.9837 38.0755 46.3682 35.6617H49.2009C49.6425 35.6617 50.0005 35.3037 50.0005 34.8621V20.5371C50.0007 16.0021 46.3108 12.3126 41.7752 12.3126ZM19.9112 38.3271C18.0007 38.3271 16.4462 36.7727 16.4462 34.8621C16.4462 32.9515 18.0007 31.3971 19.9112 31.3971C21.8218 31.3971 23.3763 32.9515 23.3763 34.8621C23.3763 36.7727 21.8218 38.3271 19.9112 38.3271ZM41.3679 38.3271C39.4576 38.3271 37.9033 36.7731 37.9029 34.8628C37.9029 34.8626 37.9029 34.8624 37.9029 34.8621C37.9029 34.8618 37.9029 34.8617 37.9029 34.8614C37.9033 32.9511 39.4576 31.3971 41.3679 31.3971C43.2785 31.3971 44.833 32.9515 44.833 34.8621C44.833 36.7727 43.2785 38.3271 41.3679 38.3271Z" fill="#00B4D8"/>
<path d="M41.774 15.511H37.3953C36.9537 15.511 36.5957 15.8691 36.5957 16.3107V23.8272C36.5957 24.2688 36.9537 24.6268 37.3953 24.6268H46.0014C46.443 24.6268 46.801 24.2688 46.801 23.8272V20.5369C46.801 17.7657 44.546 15.511 41.774 15.511ZM45.2018 23.0276H38.1949V17.1104H41.774C43.6642 17.1104 45.2018 18.6476 45.2018 20.537V23.0276Z" fill="#00B4D8"/>
<path d="M19.9111 32.8005C18.7744 32.8005 17.8496 33.7253 17.8496 34.8621C17.8496 35.9988 18.7744 36.9236 19.9111 36.9236C21.0479 36.9236 21.9727 35.9988 21.9727 34.8621C21.9727 33.7252 21.0479 32.8005 19.9111 32.8005ZM19.9111 35.3244C19.6563 35.3244 19.4488 35.117 19.4488 34.8621C19.4488 34.6071 19.6562 34.3998 19.9111 34.3998C20.166 34.3998 20.3734 34.6071 20.3734 34.8621C20.3734 35.117 20.166 35.3244 19.9111 35.3244Z" fill="#00B4D8"/>
<path d="M41.3672 32.8005C40.2305 32.8005 39.3057 33.7253 39.3057 34.8621C39.3057 35.9988 40.2305 36.9236 41.3672 36.9236C42.5039 36.9236 43.4287 35.9988 43.4287 34.8621C43.4287 33.7252 42.5039 32.8005 41.3672 32.8005ZM41.3672 35.3244C41.1123 35.3244 40.9049 35.117 40.9049 34.8621C40.9049 34.6071 41.1122 34.3998 41.3672 34.3998C41.6221 34.3998 41.8295 34.6071 41.8295 34.8621C41.8295 35.117 41.622 35.3244 41.3672 35.3244Z" fill="#00B4D8"/>
<path d="M46.0018 26.8125C45.5602 26.8125 45.2021 27.1705 45.2021 27.6121V29.6378C45.2021 30.0794 45.5602 30.4374 46.0018 30.4374C46.4434 30.4374 46.8014 30.0794 46.8014 29.6378V27.6121C46.8014 27.1705 46.4434 26.8125 46.0018 26.8125Z" fill="#00B4D8"/>
</svg>
