<svg width="48" height="48" viewBox="0 0 48 48" fill="none" xmlns="http://www.w3.org/2000/svg">
<path d="M8.8021 14.324H2.81475C2.39081 14.324 2.04712 14.6677 2.04712 15.0916C2.04712 15.5155 2.39081 15.8592 2.81475 15.8592H8.80201C9.22595 15.8592 9.56963 15.5155 9.56963 15.0916C9.56963 14.6677 9.22604 14.324 8.8021 14.324Z" fill="#A3A3A3"/>
<path d="M9.31366 25.0703H3.83818C3.41425 25.0703 3.07056 25.414 3.07056 25.8379C3.07056 26.2619 3.41425 26.6056 3.83818 26.6056H9.31376C9.73769 26.6056 10.0814 26.2619 10.0814 25.8379C10.0814 25.414 9.7376 25.0703 9.31366 25.0703Z" fill="#A3A3A3"/>
<path d="M7.26667 20.4648H0.767627C0.343688 20.4648 0 20.8085 0 21.2325C0 21.6564 0.343688 22.0001 0.767627 22.0001H7.26667C7.69061 22.0001 8.0343 21.6564 8.0343 21.2325C8.0343 20.8085 7.69061 20.4648 7.26667 20.4648Z" fill="#A3A3A3"/>
<path d="M7.26679 31.2112H6.63726C6.21332 31.2112 5.86963 31.5549 5.86963 31.9788C5.86963 32.4027 6.21332 32.7464 6.63726 32.7464H7.26679C7.69073 32.7464 8.03441 32.4027 8.03441 31.9788C8.03441 31.5549 7.69073 31.2112 7.26679 31.2112Z" fill="#A3A3A3"/>
<path d="M4.07832 31.2112H0.767627C0.343688 31.2112 0 31.5549 0 31.9788C0 32.4027 0.343688 32.7464 0.767627 32.7464H4.07832C4.50226 32.7464 4.84595 32.4027 4.84595 31.9788C4.84595 31.5549 4.50226 31.2112 4.07832 31.2112Z" fill="#A3A3A3"/>
<path d="M40.1038 11.8201H33.5972V10.4383C33.5972 10.0143 33.2535 9.67065 32.8296 9.67065H20.9299C20.506 9.67065 20.1623 10.0143 20.1623 10.4383C20.1623 10.8622 20.506 11.2059 20.9299 11.2059H32.0619V28.0192C32.0619 28.4431 32.4056 28.7868 32.8295 28.7868C33.2535 28.7868 33.5971 28.4431 33.5971 28.0192V13.3553H40.1037C43.6113 13.3553 46.4649 16.2085 46.4649 19.7155V32.6999H44.5132C44.144 30.3827 42.1323 28.6058 39.7127 28.6058C37.2931 28.6058 35.2814 30.3827 34.9122 32.6999H33.5971V31.6015C33.5971 31.1776 33.2535 30.8339 32.8295 30.8339C32.4056 30.8339 32.0619 31.1776 32.0619 31.6015V32.6999H23.9149C23.5457 30.3827 21.5339 28.6058 19.1144 28.6058C16.6949 28.6058 14.683 30.3827 14.3139 32.6999H12.7174V11.2059H17.8594C18.2833 11.2059 18.627 10.8622 18.627 10.4383C18.627 10.0143 18.2833 9.67065 17.8594 9.67065H11.9498C11.5258 9.67065 11.1821 10.0143 11.1821 10.4383V33.4675C11.1821 33.8915 11.5258 34.2352 11.9498 34.2352H14.3139C14.683 36.5524 16.6949 38.3292 19.1144 38.3292C21.5339 38.3292 23.5458 36.5524 23.9149 34.2352H34.9122C35.2814 36.5524 37.2931 38.3292 39.7127 38.3292C42.1322 38.3292 44.1439 36.5524 44.5131 34.2352H47.2325C47.6564 34.2352 48.0001 33.8915 48.0001 33.4675V19.7155C48.0003 15.3619 44.458 11.8201 40.1038 11.8201ZM19.1144 36.794C17.2803 36.794 15.788 35.3018 15.788 33.4675C15.788 31.6333 17.2803 30.1411 19.1144 30.1411C20.9486 30.1411 22.4409 31.6333 22.4409 33.4675C22.4409 35.3018 20.9486 36.794 19.1144 36.794ZM39.7128 36.794C37.8789 36.794 36.3868 35.3021 36.3864 33.4682C36.3864 33.468 36.3864 33.4678 36.3864 33.4675C36.3864 33.4673 36.3864 33.4672 36.3864 33.4669C36.3868 31.6329 37.8789 30.1411 39.7128 30.1411C41.547 30.1411 43.0393 31.6333 43.0393 33.4675C43.0393 35.3018 41.547 36.794 39.7128 36.794Z" fill="#A3A3A3"/>
<path d="M40.1035 14.8906H35.9C35.476 14.8906 35.1323 15.2343 35.1323 15.6583V22.8741C35.1323 23.298 35.476 23.6417 35.9 23.6417H44.1618C44.5857 23.6417 44.9294 23.298 44.9294 22.8741V19.7155C44.9294 17.0551 42.7646 14.8906 40.1035 14.8906ZM43.3942 22.1065H36.6676V16.426H40.1035C41.9181 16.426 43.3942 17.9017 43.3942 19.7156V22.1065Z" fill="#A3A3A3"/>
<path d="M19.1143 31.4885C18.0231 31.4885 17.1353 32.3763 17.1353 33.4676C17.1353 34.5588 18.0231 35.4467 19.1143 35.4467C20.2056 35.4467 21.0934 34.5588 21.0934 33.4676C21.0934 32.3762 20.2056 31.4885 19.1143 31.4885ZM19.1143 33.9114C18.8696 33.9114 18.6705 33.7124 18.6705 33.4676C18.6705 33.2228 18.8695 33.0238 19.1143 33.0238C19.359 33.0238 19.5581 33.2228 19.5581 33.4676C19.5581 33.7124 19.359 33.9114 19.1143 33.9114Z" fill="#A3A3A3"/>
<path d="M39.7127 31.4885C38.6215 31.4885 37.7336 32.3763 37.7336 33.4676C37.7336 34.5588 38.6215 35.4467 39.7127 35.4467C40.804 35.4467 41.6918 34.5588 41.6918 33.4676C41.6918 32.3762 40.804 31.4885 39.7127 31.4885ZM39.7127 33.9114C39.468 33.9114 39.2689 33.7124 39.2689 33.4676C39.2689 33.2228 39.4679 33.0238 39.7127 33.0238C39.9574 33.0238 40.1565 33.2228 40.1565 33.4676C40.1565 33.7124 39.9573 33.9114 39.7127 33.9114Z" fill="#A3A3A3"/>
<path d="M44.1617 25.74C43.7377 25.74 43.394 26.0837 43.394 26.5076V28.4523C43.394 28.8762 43.7377 29.2199 44.1617 29.2199C44.5856 29.2199 44.9293 28.8762 44.9293 28.4523V26.5076C44.9293 26.0837 44.5856 25.74 44.1617 25.74Z" fill="#A3A3A3"/>
</svg>
