<svg width="48" height="96" viewBox="0 0 48 96" fill="none" xmlns="http://www.w3.org/2000/svg">
<g clip-path="url(#clip0)">
<path d="M44.1921 6.8042C41.7074 4.10925 38.298 2.625 34.5912 2.625C31.8204 2.625 29.283 3.50098 27.0491 5.22839C25.9219 6.10034 24.9005 7.16711 24 8.41223C23.0999 7.16748 22.0781 6.10034 20.9506 5.22839C18.717 3.50098 16.1796 2.625 13.4088 2.625C9.70203 2.625 6.29224 4.10925 3.8075 6.8042C1.35242 9.46765 0 13.1063 0 17.0504C0 21.1099 1.51282 24.8258 4.76074 28.745C7.66626 32.2507 11.8422 35.8096 16.678 39.9305C18.3292 41.3379 20.2009 42.9331 22.1444 44.6323C22.6578 45.082 23.3167 45.3296 24 45.3296C24.683 45.3296 25.3422 45.082 25.8549 44.6331C27.7983 42.9335 29.6711 41.3375 31.3231 39.9294C36.1582 35.8092 40.3341 32.2507 43.2396 28.7446C46.4875 24.8258 48 21.1099 48 17.05C48 13.1063 46.6476 9.46765 44.1921 6.8042Z" fill="#D1D1D1"/>
</g>
<g clip-path="url(#clip1)">
<path d="M44.1921 54.8042C41.7074 52.1093 38.298 50.625 34.5912 50.625C31.8204 50.625 29.283 51.501 27.0491 53.2284C25.9219 54.1003 24.9005 55.1671 24 56.4122C23.0999 55.1675 22.0781 54.1003 20.9506 53.2284C18.717 51.501 16.1796 50.625 13.4088 50.625C9.70203 50.625 6.29224 52.1093 3.8075 54.8042C1.35242 57.4677 0 61.1063 0 65.0504C0 69.1099 1.51282 72.8258 4.76074 76.745C7.66626 80.2507 11.8422 83.8096 16.678 87.9305C18.3292 89.3379 20.2009 90.9331 22.1444 92.6323C22.6578 93.082 23.3167 93.3296 24 93.3296C24.683 93.3296 25.3422 93.082 25.8549 92.6331C27.7983 90.9335 29.6711 89.3375 31.3231 87.9294C36.1582 83.8092 40.3341 80.2507 43.2396 76.7446C46.4875 72.8258 48 69.1099 48 65.05C48 61.1063 46.6476 57.4677 44.1921 54.8042Z" fill="#E83E39"/>
</g>
<defs>
<clipPath id="clip0">
<rect width="48" height="48" fill="white"/>
</clipPath>
<clipPath id="clip1">
<rect width="48" height="48" fill="white" transform="translate(0 48)"/>
</clipPath>
</defs>
</svg>
