<svg width="24" height="24" viewBox="0 0 24 24" fill="none" xmlns="http://www.w3.org/2000/svg">
<g clip-path="url(#clip0)">
<path d="M22.9482 9.69543C22.8199 9.5376 22.6075 9.27649 22.5582 9.16681C22.5408 9.04047 22.5972 8.68488 22.6313 8.47028C22.7393 7.78766 22.8875 6.85254 22.3929 5.9978C21.8934 5.13446 21.0029 4.79517 20.3492 4.54596C20.1526 4.4707 19.8267 4.34601 19.7285 4.27185C19.6549 4.17426 19.5306 3.85052 19.4555 3.65497L19.4526 3.64728C19.2052 2.99707 18.8663 2.10663 18.0018 1.60675C17.1473 1.11255 16.2125 1.26068 15.5303 1.3689C15.3153 1.40277 14.9592 1.45898 14.8326 1.44122C14.7241 1.39233 14.4642 1.18158 14.3073 1.05414L14.3027 1.05048C13.758 0.607178 13.012 0 12 0C10.988 0 10.242 0.607178 9.69818 1.04993L9.69287 1.05414C9.53577 1.18176 9.27576 1.39288 9.16718 1.44122C9.04102 1.45917 8.68488 1.40277 8.47009 1.3689C7.78766 1.26068 6.85291 1.11255 5.99817 1.60675C5.13391 2.10663 4.79498 2.99707 4.54834 3.64526L4.54449 3.65497C4.46942 3.85052 4.34528 4.17426 4.27167 4.27185C4.17334 4.34619 3.84741 4.4707 3.64746 4.54724C2.99707 4.79517 2.10663 5.13446 1.6073 5.9978C1.11365 6.85089 1.26086 7.78528 1.3689 8.47009C1.40277 8.68488 1.45917 9.04047 1.44177 9.16681C1.39252 9.27631 1.18011 9.5376 1.05048 9.69708C0.607178 10.2418 0 10.9878 0 12.0002C0 13.0129 0.607178 13.7584 1.05029 14.3022C1.1792 14.4606 1.39233 14.723 1.44177 14.8332C1.45917 14.9592 1.40295 15.3144 1.36853 15.5325C1.26105 16.2147 1.11365 17.1491 1.6073 18.0022C2.10663 18.8655 2.99725 19.2048 3.64673 19.4524C3.84485 19.5282 4.17297 19.6536 4.27222 19.7285C4.34546 19.8261 4.46924 20.1484 4.54395 20.343L4.54761 20.3527C4.7948 21.0026 5.13354 21.8925 5.99799 22.3931C6.85089 22.8869 7.78564 22.7395 8.46991 22.6317C8.67151 22.5998 8.88007 22.5668 9.04376 22.5586C9.11353 22.5547 9.15161 22.5573 9.16772 22.5591C9.2785 22.6093 9.53961 22.8217 9.69891 22.9514C10.2433 23.3939 10.9891 24 12 24C13.0109 24 13.7567 23.3939 14.304 22.949C14.4615 22.8208 14.722 22.6088 14.8319 22.5591C14.8478 22.5575 14.8865 22.5547 14.9594 22.5588C15.1185 22.5668 15.3279 22.5998 15.5319 22.632C16.2144 22.7397 17.1491 22.8871 18.0022 22.3931C18.8665 21.8925 19.2052 21.0026 19.4517 20.3547L19.4555 20.345C19.5304 20.1497 19.6545 19.8265 19.7281 19.7285C19.8276 19.6536 20.1553 19.5282 20.3525 19.4528C21.0029 19.205 21.8934 18.8655 22.3927 18.0024C22.8873 17.1475 22.7393 16.2125 22.6309 15.5288C22.597 15.3144 22.5408 14.9594 22.5582 14.8332C22.6071 14.7242 22.8182 14.4641 22.9459 14.3069L22.9501 14.3016C23.3936 13.7574 24 13.0124 24 12.0002C24 10.9878 23.3928 10.2418 22.9482 9.69543V9.69543ZM21.8591 13.4145L21.854 13.4207C21.5671 13.7741 21.2961 14.1081 21.2 14.4659C21.0989 14.844 21.1716 15.3038 21.2421 15.7498C21.3298 16.303 21.4204 16.8748 21.1754 17.2982C20.926 17.7294 20.3798 17.9374 19.851 18.139C19.4158 18.3054 19.0047 18.4627 18.7322 18.7343C18.4642 19.0032 18.308 19.4103 18.1425 19.8411L18.1381 19.8527C17.9372 20.3802 17.7297 20.9258 17.2974 21.1761C16.8757 21.4204 16.3293 21.3342 15.7495 21.2426C15.5107 21.2049 15.2637 21.1661 15.0326 21.1545C14.8116 21.1425 14.6259 21.1575 14.4655 21.2005C14.1074 21.2961 13.7717 21.5691 13.4139 21.86C12.95 22.2374 12.5114 22.5938 12 22.5938C11.4886 22.5938 11.05 22.2374 10.585 21.8593C10.2297 21.5704 9.89429 21.2974 9.53485 21.2005C9.40924 21.167 9.26862 21.1503 9.10913 21.1503C8.87347 21.1622 8.47723 21.2067 8.24908 21.243C7.67065 21.3342 7.12408 21.4202 6.70258 21.1761C6.27026 20.9257 6.06262 20.3802 5.86102 19.8506L5.85663 19.8391C5.69147 19.4086 5.53528 19.0018 5.26611 18.7326C4.99512 18.4627 4.58423 18.3054 4.14825 18.1388C3.62 17.9374 3.07397 17.7294 2.82458 17.298C2.58032 16.8761 2.66638 16.3297 2.75812 15.7485C2.82843 15.3038 2.90112 14.844 2.79987 14.4648C2.70337 14.1061 2.43036 13.7704 2.14105 13.4145C1.76312 12.9507 1.40625 12.5127 1.40625 12.0002C1.40625 11.4877 1.76312 11.0491 2.14288 10.5826C2.43109 10.2281 2.70355 9.89319 2.80005 9.53412C2.90112 9.15564 2.82825 8.69531 2.75757 8.24872C2.66638 7.67029 2.58032 7.1239 2.82458 6.70184C3.07397 6.27063 3.62 6.06262 4.14807 5.86121L4.15302 5.85938C4.58679 5.69348 4.99658 5.53674 5.26776 5.26575C5.53583 4.99677 5.69202 4.58972 5.85736 4.15887L5.86194 4.14734C6.06281 3.61963 6.27045 3.07379 6.70221 2.82404C7.12518 2.57941 7.69702 2.67004 8.25037 2.75775C8.69495 2.82806 9.15472 2.90076 9.53357 2.79968C9.89117 2.70428 10.2253 2.43311 10.5791 2.14581L10.5851 2.14105C11.0495 1.76312 11.488 1.40625 12 1.40625C12.512 1.40625 12.9505 1.76312 13.4156 2.14178L13.4209 2.146C13.7745 2.43311 14.1086 2.70428 14.4659 2.79968C14.8455 2.90076 15.3051 2.82825 15.75 2.75775C16.303 2.67023 16.8748 2.57941 17.2976 2.82404C17.7296 3.07379 17.9372 3.61963 18.1388 4.14935L18.1425 4.15906C18.308 4.5899 18.4642 4.99695 18.733 5.26648C19.0032 5.53674 19.413 5.69348 19.8468 5.85938L19.8517 5.86121C20.3798 6.06262 20.926 6.27063 21.1754 6.70203C21.4204 7.12518 21.3298 7.69702 21.2421 8.25018C21.1718 8.69531 21.0989 9.15564 21.2001 9.53522C21.2963 9.89319 21.5687 10.2281 21.8588 10.5848C22.2367 11.0491 22.5936 11.4877 22.5936 12.0002C22.5937 12.5127 22.2369 12.9507 21.8591 13.4145V13.4145Z" fill="#A3A3A3"/>
<path d="M17.1447 9.25836C16.6591 8.4234 15.9786 7.71552 15.1583 7.19586C14.1978 6.58722 13.0865 6.26569 11.9445 6.26569C10.7964 6.26569 9.67999 6.59052 8.71594 7.20538C7.90259 7.72394 7.22821 8.42725 6.74609 9.25562C5.26587 9.46545 4.12402 10.7408 4.12402 12.278C4.12402 13.8149 5.26605 15.0903 6.74609 15.2999C7.22821 16.1285 7.90259 16.8318 8.71594 17.3503C9.67999 17.9652 10.7964 18.29 11.9445 18.29C13.0865 18.29 14.1978 17.9683 15.1583 17.3599C15.9786 16.8402 16.6591 16.1321 17.1447 15.2974C18.6159 15.0798 19.7486 13.8085 19.7486 12.2778C19.7486 10.7472 18.6159 9.47589 17.1447 9.25836V9.25836ZM9.47198 8.39099C10.2097 7.92059 11.0648 7.67194 11.9446 7.67194C13.2941 7.67194 14.5374 8.24707 15.398 9.22559H8.49475C8.77856 8.90497 9.10706 8.62372 9.47198 8.39099V8.39099ZM11.9446 16.884C11.0648 16.884 10.2097 16.6353 9.47198 16.1647C9.10706 15.932 8.77856 15.6508 8.49475 15.3303H15.398C14.5374 16.3088 13.2939 16.884 11.9446 16.884V16.884ZM16.696 13.9241H7.17639C6.26874 13.9241 5.53027 13.1856 5.53027 12.278C5.53027 11.3701 6.26874 10.6317 7.17639 10.6317H16.696C17.6039 10.6317 18.3423 11.3701 18.3423 12.278C18.3423 13.1856 17.6039 13.9241 16.696 13.9241Z" fill="#A3A3A3"/>
<path d="M15.3285 11.5748H8.60742C8.21924 11.5748 7.9043 11.8896 7.9043 12.278C7.9043 12.6661 8.21924 12.9811 8.60742 12.9811H15.3285C15.7169 12.9811 16.0316 12.6661 16.0316 12.278C16.0316 11.8896 15.7169 11.5748 15.3285 11.5748Z" fill="#A3A3A3"/>
</g>
<defs>
<clipPath id="clip0">
<rect width="24" height="24" fill="white"/>
</clipPath>
</defs>
</svg>
