<svg width="24" height="24" viewBox="0 0 24 24" fill="none" xmlns="http://www.w3.org/2000/svg">
<g clip-path="url(#clip0)">
<path d="M23.9912 7.83588C23.9114 6.14425 23.2303 4.54028 22.0734 3.31933C20.8749 2.0546 19.296 1.35091 17.6274 1.33783C16.0332 1.32578 14.6298 1.90736 13.4559 3.06775C12.7876 3.72827 12.2981 4.47916 11.9532 5.13513C11.6083 4.47916 11.1189 3.72827 10.4506 3.06775C9.27648 1.90741 7.87224 1.32597 6.27901 1.33783C4.61284 1.35086 3.04852 2.0567 1.87431 3.32533C0.751369 4.53846 0.0888843 6.14031 0.00891556 7.83588C-0.200334 12.2719 3.29185 15.2478 8.57795 19.7523C9.5072 20.5441 10.4681 21.363 11.4902 22.2573L11.9532 22.6624L12.4162 22.2573C13.5 21.309 14.5168 20.446 15.5001 19.6114C20.738 15.1659 24.1984 12.229 23.9912 7.83588ZM20.6165 12.9129C19.2116 14.617 17.1722 16.3479 14.5901 18.5393C13.7437 19.2577 12.8725 19.9971 11.9533 20.7954C11.0959 20.0504 10.2815 19.3564 9.48999 18.6819C6.87578 16.4542 4.81098 14.6947 3.39531 12.9709C1.94284 11.2023 1.33168 9.63906 1.41362 7.90216C1.54909 5.03008 3.69104 2.76442 6.28998 2.74408C6.30268 2.74399 6.31496 2.74394 6.32762 2.74394C9.04473 2.74394 10.4304 5.05553 11.0154 6.43778C11.1759 6.817 11.544 7.06206 11.9532 7.06206C12.3624 7.06206 12.7305 6.817 12.891 6.43778C13.476 5.05544 14.8613 2.74399 17.5787 2.74399C17.5912 2.74399 17.6038 2.74403 17.6163 2.74413C20.2237 2.76452 22.4533 5.07846 22.5864 7.90221C22.6674 9.6168 22.0598 11.1621 20.6165 12.9129Z" fill="#A3A3A3"/>
</g>
<defs>
<clipPath id="clip0">
<rect width="24" height="24" fill="white"/>
</clipPath>
</defs>
</svg>
