<svg width="80" height="30" viewBox="0 0 80 30" fill="none" xmlns="http://www.w3.org/2000/svg">
<path d="M76.8906 4.6641C78.2197 2.67043 76.7905 0 74.3944 0H0V30H74.3944C76.7905 30 78.2197 27.3296 76.8906 25.3359L71.1094 16.6641C70.4376 15.6564 70.4376 14.3436 71.1094 13.3359L76.8906 4.6641Z" fill="#E83E39"/>
<path d="M29.15 15.016L26.42 10.2H28.73L30.242 13.028L30.578 14.022L30.9 13.028L32.482 10.2H34.568L31.74 14.918L34.708 20H32.426L30.704 16.976L30.326 15.94L29.962 16.976L28.226 20H26.14L29.15 15.016ZM41.4114 14.568L41.5234 13.294H41.4534L40.7954 14.61L37.1414 20H35.6994V10.2H37.6174V15.534L37.4774 16.85H37.5614L38.2474 15.492L41.9014 10.2H43.3294V20H41.4114V14.568ZM51.9816 11.908H49.1256V20H47.2076V11.908H44.3376V10.2H51.9816V11.908Z" fill="white"/>
</svg>
