<svg width="40" height="40" viewBox="0 0 40 40" fill="none" xmlns="http://www.w3.org/2000/svg">
<rect width="40" height="40" rx="10" fill="url(#paint0_radial)"/>
<path d="M25.5949 7.5H14.4051C10.6161 7.5 7.5 10.5807 7.5 14.4051V25.5949C7.5 29.3839 10.5807 32.5 14.4051 32.5H25.5949C29.3839 32.5 32.5 29.4193 32.5 25.5949V14.4051C32.5 10.6161 29.4193 7.5 25.5949 7.5ZM30.2691 25.5949C30.2691 28.1799 28.1799 30.2691 25.5949 30.2691H14.4051C11.8201 30.2691 9.73088 28.1799 9.73088 25.5949V14.4051C9.73088 11.8201 11.8201 9.73088 14.4051 9.73088H25.5949C28.1799 9.73088 30.2691 11.8201 30.2691 14.4051V25.5949Z" fill="white"/>
<path d="M19.9999 13.5553C16.4588 13.5553 13.5551 16.4589 13.5551 20C13.5551 23.5411 16.4588 26.4448 19.9999 26.4448C23.541 26.4448 26.4447 23.5411 26.4447 20C26.4447 16.4589 23.541 13.5553 19.9999 13.5553ZM19.9999 24.2139C17.6628 24.2139 15.786 22.3372 15.786 20C15.786 17.6629 17.6628 15.7861 19.9999 15.7861C22.337 15.7861 24.2138 17.6983 24.2138 20C24.2138 22.3372 22.337 24.2139 19.9999 24.2139Z" fill="white"/>
<path d="M26.6927 11.6782C26.2678 11.6782 25.8428 11.8553 25.5595 12.1386C25.2408 12.4573 25.0992 12.8468 25.0992 13.2717C25.0992 13.6967 25.2762 14.1216 25.5595 14.4049C25.8782 14.7236 26.2678 14.8652 26.6927 14.8652C27.1177 14.8652 27.5426 14.6882 27.8259 14.4049C28.1446 14.0862 28.2863 13.6967 28.2863 13.2717C28.2863 12.8468 28.1092 12.4219 27.8259 12.1386C27.5072 11.8199 27.1177 11.6782 26.6927 11.6782Z" fill="white"/>
<defs>
<radialGradient id="paint0_radial" cx="0" cy="0" r="1" gradientUnits="userSpaceOnUse" gradientTransform="translate(4.5 45.5) rotate(-55.008) scale(48.8262)">
<stop offset="0.341618" stop-color="#D6A226"/>
<stop offset="1" stop-color="#B100AA"/>
</radialGradient>
</defs>
</svg>
