<svg width="16" height="16" viewBox="0 0 16 16" fill="none" xmlns="http://www.w3.org/2000/svg">
<path d="M8.00041 0C4.80117 0 2.21777 2.5834 2.21777 5.78263C2.21777 6.8981 2.5741 7.96322 3.06987 8.83852L6.83846 15.3609C7.07472 15.7869 7.55112 16 8.00041 16C8.44973 16 8.90285 15.7869 9.16235 15.3609L12.9309 8.84239C13.4306 7.96702 13.783 6.92127 13.783 5.78643C13.783 2.58727 11.1996 0 8.00041 0ZM8.00041 7.4907C6.83846 7.4907 5.88953 6.54177 5.88953 5.37982C5.88953 4.21788 6.83846 3.26895 8.00041 3.26895C9.16235 3.26895 10.1113 4.21788 10.1113 5.37982C10.1113 6.54565 9.16235 7.4907 8.00041 7.4907Z" fill="#00B4D8"/>
</svg>
