<svg width="20" height="20" viewBox="0 0 20 20" fill="none" xmlns="http://www.w3.org/2000/svg">
<g clip-path="url(#clip0)">
<path d="M18.7801 14.7095L15.9831 12.6117C16.6823 11.413 16.982 10.0144 16.982 8.51603C16.982 3.821 13.186 0.0250244 8.49101 0.0250244C3.79598 0.0250244 0 3.821 0 8.51599C0 13.211 3.79598 17.007 8.49101 17.007C9.98943 17.007 11.288 16.6074 12.5867 16.0081L14.6845 18.8051C15.7833 20.2036 17.8811 20.4034 19.1797 19.1048C20.3784 17.9061 20.2785 15.8083 18.7801 14.7095ZM8.49101 15.0092C4.89482 15.0092 1.99789 12.1122 1.99789 8.51603C1.99789 4.91984 4.89482 2.02291 8.49101 2.02291C12.0872 2.02291 14.9841 4.91984 14.9841 8.51599C14.9841 12.1121 12.0872 15.0092 8.49101 15.0092Z" fill="#00B4D8"/>
</g>
<defs>
<clipPath id="clip0">
<rect width="20" height="20" fill="white"/>
</clipPath>
</defs>
</svg>
