<svg width="21" height="20" viewBox="0 0 21 20" fill="none" xmlns="http://www.w3.org/2000/svg">
<g clip-path="url(#clip0)">
<path d="M19.7191 14.7095L16.7822 12.6117C17.5165 11.413 17.8311 10.0144 17.8311 8.51602C17.8311 3.82099 13.8453 0.0250092 8.91556 0.0250092C3.98578 0.0250092 0 3.82099 0 8.51598C0 13.211 3.98578 17.007 8.91556 17.007C10.4889 17.007 11.8525 16.6074 13.216 16.008L15.4187 18.8051C16.5725 20.2036 18.7751 20.4034 20.1387 19.1048C21.3973 17.906 21.2925 15.8083 19.7191 14.7095ZM8.91556 15.0091C5.13956 15.0091 2.09778 12.1122 2.09778 8.51602C2.09778 4.91983 5.13956 2.02289 8.91556 2.02289C12.6916 2.02289 15.7333 4.91983 15.7333 8.51598C15.7333 12.1121 12.6916 15.0091 8.91556 15.0091Z" fill="white"/>
</g>
<defs>
<clipPath id="clip0">
<rect width="21" height="20" fill="white"/>
</clipPath>
</defs>
</svg>
