<svg width="90" height="30" viewBox="0 0 90 30" fill="none" xmlns="http://www.w3.org/2000/svg">
<path d="M86.8906 4.6641C88.2197 2.67043 86.7905 0 84.3944 0H0V30H84.3944C86.7905 30 88.2197 27.3296 86.8906 25.3359L81.1094 16.6641C80.4376 15.6564 80.4376 14.3436 81.1094 13.3359L86.8906 4.6641Z" fill="#00B4D8"/>
<path d="M16.342 15.898H12.758V20H10.84V10.2H12.758V14.19H16.342V10.2H18.26V20H16.342V15.898ZM19.6511 15.1C19.6511 13.4667 20.0105 12.2113 20.7291 11.334C21.4478 10.4473 22.4745 10.004 23.8091 10.004C24.5091 10.004 25.1205 10.1253 25.6431 10.368C26.1658 10.6107 26.5998 10.956 26.9451 11.404C27.2905 11.852 27.5471 12.3887 27.7151 13.014C27.8831 13.6393 27.9671 14.3347 27.9671 15.1C27.9671 16.7333 27.6031 17.9933 26.8751 18.88C26.1565 19.7573 25.1345 20.196 23.8091 20.196C23.0998 20.196 22.4838 20.0747 21.9611 19.832C21.4385 19.5893 21.0045 19.244 20.6591 18.796C20.3231 18.348 20.0711 17.8113 19.9031 17.186C19.7351 16.5607 19.6511 15.8653 19.6511 15.1ZM21.6671 15.1C21.6671 15.5947 21.7091 16.052 21.7931 16.472C21.8771 16.8827 22.0031 17.2373 22.1711 17.536C22.3485 17.8347 22.5725 18.068 22.8431 18.236C23.1138 18.404 23.4358 18.488 23.8091 18.488C24.4905 18.488 25.0178 18.222 25.3911 17.69C25.7645 17.158 25.9511 16.2947 25.9511 15.1C25.9511 14.624 25.9091 14.1807 25.8251 13.77C25.7505 13.3593 25.6291 13 25.4611 12.692C25.2931 12.384 25.0738 12.146 24.8031 11.978C24.5325 11.8007 24.2011 11.712 23.8091 11.712C23.1278 11.712 22.6005 11.9873 22.2271 12.538C21.8538 13.0793 21.6671 13.9333 21.6671 15.1ZM35.932 12.482C35.932 12.7247 35.8994 12.9673 35.834 13.21C35.778 13.4527 35.68 13.6767 35.54 13.882C35.4 14.078 35.218 14.2553 34.994 14.414C34.77 14.5633 34.4994 14.6753 34.182 14.75V14.834C34.462 14.8807 34.728 14.96 34.98 15.072C35.232 15.184 35.4514 15.338 35.638 15.534C35.8247 15.73 35.9694 15.968 36.072 16.248C36.184 16.528 36.24 16.8593 36.24 17.242C36.24 17.746 36.1327 18.1847 35.918 18.558C35.7034 18.922 35.414 19.2207 35.05 19.454C34.6954 19.6873 34.2894 19.86 33.832 19.972C33.3747 20.084 32.9034 20.14 32.418 20.14C32.2594 20.14 32.054 20.14 31.802 20.14C31.5594 20.14 31.2934 20.1307 31.004 20.112C30.724 20.1027 30.4347 20.084 30.136 20.056C29.8467 20.028 29.5807 19.986 29.338 19.93V10.27C29.5154 10.242 29.716 10.214 29.94 10.186C30.1734 10.158 30.4207 10.1347 30.682 10.116C30.9434 10.0973 31.2094 10.0833 31.48 10.074C31.76 10.0647 32.0354 10.06 32.306 10.06C32.7634 10.06 33.2067 10.0973 33.636 10.172C34.0747 10.2373 34.462 10.3587 34.798 10.536C35.1434 10.7133 35.4187 10.9607 35.624 11.278C35.8294 11.5953 35.932 11.9967 35.932 12.482ZM32.432 18.558C32.6654 18.558 32.8894 18.53 33.104 18.474C33.328 18.418 33.524 18.334 33.692 18.222C33.86 18.1007 33.9954 17.9513 34.098 17.774C34.2007 17.5967 34.252 17.3867 34.252 17.144C34.252 16.836 34.1914 16.5933 34.07 16.416C33.9487 16.2387 33.79 16.1033 33.594 16.01C33.398 15.9073 33.1787 15.842 32.936 15.814C32.6934 15.786 32.4507 15.772 32.208 15.772H31.186V18.474C31.2327 18.4927 31.3074 18.5067 31.41 18.516C31.5127 18.5253 31.62 18.5347 31.732 18.544C31.8534 18.544 31.9747 18.5487 32.096 18.558C32.2267 18.558 32.3387 18.558 32.432 18.558ZM31.802 14.316C31.9327 14.316 32.082 14.3113 32.25 14.302C32.4274 14.2927 32.572 14.2787 32.684 14.26C33.0387 14.148 33.342 13.98 33.594 13.756C33.8554 13.532 33.986 13.238 33.986 12.874C33.986 12.6313 33.9394 12.4307 33.846 12.272C33.7527 12.1133 33.6267 11.9873 33.468 11.894C33.3187 11.8007 33.146 11.7353 32.95 11.698C32.754 11.6607 32.5487 11.642 32.334 11.642C32.0914 11.642 31.8674 11.6467 31.662 11.656C31.4567 11.6653 31.298 11.6793 31.186 11.698V14.316H31.802ZM43.3215 14.568L43.4335 13.294H43.3635L42.7055 14.61L39.0515 20H37.6095V10.2H39.5275V15.534L39.3875 16.85H39.4715L40.1575 15.492L43.8115 10.2H45.2395V20H43.3215V14.568ZM52.4358 15.898H48.8518V20H46.9338V10.2H48.8518V14.19H52.4358V10.2H54.3538V20H52.4358V15.898ZM58.4749 15.814H57.9709V20H56.0529V10.2H57.9709V14.54L58.4189 14.344L61.1209 10.2H63.3049L60.4489 14.316L59.6929 14.848L60.4769 15.394L63.7389 20H61.3729L58.4749 15.814ZM69.3321 17.83H66.3221L65.5801 20H63.6621L67.1901 10.13H68.6041L72.1321 20H70.1161L69.3321 17.83ZM66.8121 16.29H68.9121L68.1841 14.106L67.8901 12.566H67.8201L67.5261 14.12L66.8121 16.29Z" fill="white"/>
</svg>
