<svg width="17" height="16" viewBox="0 0 17 16" fill="none" xmlns="http://www.w3.org/2000/svg">
<g clip-path="url(#clip0)">
<path d="M15.75 0H1.05C0.470137 0 0 0.44775 0 1V3C0 3.55225 0.470137 4 1.05 4C1.62986 4 2.1 3.55225 2.1 3V2H14.7V14H2.1V13C2.1 12.4477 1.62986 12 1.05 12C0.470137 12 0 12.4477 0 13V15C0 15.5523 0.470137 16 1.05 16H15.75C16.3299 16 16.8 15.5523 16.8 15V1C16.8 0.44775 16.3299 0 15.75 0Z" fill="white"/>
<path d="M4.69527 5.11846C4.35432 4.9444 3.93957 4.96318 3.61758 5.16803L0.467578 7.16803C0.17535 7.35359 0 7.66559 0 8.00006C0 8.33453 0.17535 8.64656 0.467578 8.83209L3.61758 10.8321C3.79342 10.9437 3.99646 11.0001 4.2 11.0001C4.36971 11.0001 4.54043 10.9607 4.69527 10.8817C5.03672 10.7078 5.25 10.369 5.25 10.0001V9.00006H11.55C12.1299 9.00006 12.6 8.55231 12.6 8.00006C12.6 7.44781 12.1299 7.00006 11.55 7.00006H5.25V6.00006C5.25 5.63115 5.03672 5.29231 4.69527 5.11846Z" fill="white"/>
</g>
<defs>
<clipPath id="clip0">
<rect width="16.8" height="16" fill="white"/>
</clipPath>
</defs>
</svg>
