<svg width="16" height="32" viewBox="0 0 16 32" fill="none" xmlns="http://www.w3.org/2000/svg">
<path d="M7.25256 0.411748C7.61248 -0.137248 8.38752 -0.13725 8.74744 0.411747L11.0135 3.86823C11.1313 4.04795 11.3048 4.17972 11.5047 4.24132L15.3496 5.42615C15.9602 5.61434 16.1997 6.38489 15.8115 6.91238L13.3671 10.2334C13.24 10.4061 13.1738 10.6193 13.1795 10.8371L13.2897 15.0258C13.3072 15.6912 12.6802 16.1674 12.0803 15.9444L8.30359 14.5404C8.10722 14.4674 7.89278 14.4674 7.69641 14.5404L3.91966 15.9444C3.3198 16.1674 2.69278 15.6912 2.71029 15.0259L2.82049 10.8371C2.82622 10.6193 2.75995 10.4061 2.63286 10.2334L0.1885 6.91238C-0.19974 6.38489 0.039758 5.61434 0.65044 5.42615L4.49529 4.24132C4.69521 4.17972 4.86869 4.04795 4.98652 3.86823L7.25256 0.411748Z" fill="#FFE45E"/>
<path d="M7.25256 16.4117C7.61248 15.8628 8.38752 15.8628 8.74744 16.4117L11.0135 19.8682C11.1313 20.048 11.3048 20.1797 11.5047 20.2413L15.3496 21.4262C15.9602 21.6143 16.1997 22.3849 15.8115 22.9124L13.3671 26.2334C13.24 26.4061 13.1738 26.6193 13.1795 26.8371L13.2897 31.0258C13.3072 31.6912 12.6802 32.1674 12.0803 31.9444L8.30359 30.5404C8.10722 30.4674 7.89278 30.4674 7.69641 30.5404L3.91966 31.9444C3.3198 32.1674 2.69278 31.6912 2.71029 31.0259L2.82049 26.8371C2.82622 26.6193 2.75995 26.4061 2.63286 26.2334L0.1885 22.9124C-0.19974 22.3849 0.039758 21.6143 0.65044 21.4262L4.49529 20.2413C4.69521 20.1797 4.86869 20.048 4.98652 19.8682L7.25256 16.4117Z" fill="#EAEAF1"/>
</svg>
