<svg width="48" height="48" viewBox="0 0 48 48" fill="none" xmlns="http://www.w3.org/2000/svg">
<path d="M33 29.25H37.5C39.2896 29.2479 41.0053 28.5361 42.2707 27.2706C43.5361 26.0052 44.2479 24.2895 44.25 22.5V14.25C44.2479 12.4604 43.5361 10.7447 42.2707 9.47925C41.0053 8.21383 39.2896 7.50201 37.5 7.49995H27.2381V6.37964L24 8.24995L27.2381 10.1203V8.99995H37.5C38.8919 9.00149 40.2264 9.55511 41.2106 10.5393C42.1948 11.5236 42.7485 12.858 42.75 14.25V22.5C42.7485 23.8919 42.1948 25.2263 41.2106 26.2106C40.2264 27.1948 38.8919 27.7484 37.5 27.75H33V18.75C32.9992 18.1535 32.7619 17.5816 32.3401 17.1598C31.9183 16.7381 31.3465 16.5007 30.75 16.5H11.25C10.6535 16.5007 10.0817 16.7381 9.65989 17.1598C9.2381 17.5816 9.00079 18.1535 9 18.75V38.25C8.99993 38.5055 9.04369 38.7592 9.12937 39H1.5C1.30109 39 1.11032 39.079 0.96967 39.2196C0.829018 39.3603 0.75 39.551 0.75 39.75C0.75 39.9489 0.829018 40.1396 0.96967 40.2803C1.11032 40.4209 1.30109 40.5 1.5 40.5H43.5C43.6989 40.5 43.8897 40.4209 44.0303 40.2803C44.171 40.1396 44.25 39.9489 44.25 39.75C44.25 39.551 44.171 39.3603 44.0303 39.2196C43.8897 39.079 43.6989 39 43.5 39H32.8706C32.9563 38.7592 33.0001 38.5055 33 38.25V29.25ZM18 18H24V27.689L21.4688 25.664C21.3356 25.5578 21.1703 25.5 21 25.5C20.8297 25.5 20.6644 25.5578 20.5312 25.664L18 27.689V18ZM31.5 27.75H28.5C28.3011 27.75 28.1103 27.829 27.9697 27.9696C27.829 28.1103 27.75 28.301 27.75 28.5C27.75 28.6989 27.829 28.8896 27.9697 29.0303C28.1103 29.1709 28.3011 29.25 28.5 29.25H31.5V38.25C31.4997 38.4488 31.4206 38.6394 31.28 38.78C31.1394 38.9206 30.9488 38.9997 30.75 39H11.25C11.0512 38.9997 10.8606 38.9206 10.72 38.78C10.5794 38.6394 10.5003 38.4488 10.5 38.25V18.75C10.5003 18.5511 10.5794 18.3605 10.72 18.2199C10.8606 18.0793 11.0512 18.0002 11.25 18H16.5V29.25C16.4999 29.3913 16.5398 29.5298 16.615 29.6495C16.6902 29.7691 16.7976 29.8651 16.925 29.9264C17.0524 29.9876 17.1945 30.0116 17.3349 29.9956C17.4754 29.9796 17.6084 29.9242 17.7188 29.8359L21 27.2109L24.2812 29.8359C24.3916 29.9242 24.5246 29.9796 24.6651 29.9956C24.8055 30.0116 24.9476 29.9876 25.075 29.9264C25.2024 29.8651 25.3098 29.7691 25.385 29.6495C25.4602 29.5298 25.5001 29.3913 25.5 29.25V18H30.75C30.9488 18.0002 31.1394 18.0793 31.28 18.2199C31.4206 18.3605 31.4997 18.5511 31.5 18.75V27.75Z" fill="#A3A3A3"/>
<path d="M15 34.5H12C11.8011 34.5 11.6103 34.579 11.4697 34.7197C11.329 34.8603 11.25 35.0511 11.25 35.25V37.5C11.25 37.6989 11.329 37.8897 11.4697 38.0303C11.6103 38.171 11.8011 38.25 12 38.25H15C15.1989 38.25 15.3897 38.171 15.5303 38.0303C15.671 37.8897 15.75 37.6989 15.75 37.5V35.25C15.75 35.0511 15.671 34.8603 15.5303 34.7197C15.3897 34.579 15.1989 34.5 15 34.5ZM14.25 36.75H12.75V36H14.25V36.75Z" fill="#A3A3A3"/>
<path d="M20.25 34.5H17.25C17.0511 34.5 16.8603 34.579 16.7197 34.7197C16.579 34.8603 16.5 35.0511 16.5 35.25C16.5 35.4489 16.579 35.6397 16.7197 35.7803C16.8603 35.921 17.0511 36 17.25 36H20.25C20.4489 36 20.6397 35.921 20.7803 35.7803C20.921 35.6397 21 35.4489 21 35.25C21 35.0511 20.921 34.8603 20.7803 34.7197C20.6397 34.579 20.4489 34.5 20.25 34.5Z" fill="#A3A3A3"/>
<path d="M18 36.75H17.25C17.0511 36.75 16.8603 36.829 16.7197 36.9697C16.579 37.1103 16.5 37.3011 16.5 37.5C16.5 37.6989 16.579 37.8897 16.7197 38.0303C16.8603 38.171 17.0511 38.25 17.25 38.25H18C18.1989 38.25 18.3897 38.171 18.5303 38.0303C18.671 37.8897 18.75 37.6989 18.75 37.5C18.75 37.3011 18.671 37.1103 18.5303 36.9697C18.3897 36.829 18.1989 36.75 18 36.75Z" fill="#A3A3A3"/>
<path d="M46.5 39H45.75C45.5511 39 45.3603 39.079 45.2197 39.2197C45.079 39.3603 45 39.5511 45 39.75C45 39.9489 45.079 40.1397 45.2197 40.2803C45.3603 40.421 45.5511 40.5 45.75 40.5H46.5C46.6989 40.5 46.8897 40.421 47.0303 40.2803C47.171 40.1397 47.25 39.9489 47.25 39.75C47.25 39.5511 47.171 39.3603 47.0303 39.2197C46.8897 39.079 46.6989 39 46.5 39Z" fill="#A3A3A3"/>
</svg>
