<svg width="24" height="24" viewBox="0 0 24 24" fill="none" xmlns="http://www.w3.org/2000/svg">
<g clip-path="url(#clip0)">
<path d="M23.2967 5.71921H5.47787L4.96403 1.79157C4.96305 1.78412 4.96197 1.77667 4.96075 1.76926C4.79303 0.744344 3.91756 0.000488281 2.87905 0.000488281H0.703121C0.314811 0.000488281 0 0.315299 0 0.70361C0 1.09192 0.314811 1.40673 0.703121 1.40673H2.87905C3.22207 1.40673 3.51176 1.6502 3.57139 1.98704C3.59562 2.17238 5.40297 15.9868 5.46639 16.4716C5.46737 16.479 5.46845 16.4865 5.46967 16.4939C5.50455 16.7072 5.57144 16.9081 5.66411 17.093C4.8498 17.3855 4.2656 18.1648 4.2656 19.0785C4.2656 20.2416 5.21186 21.1879 6.37496 21.1879H7.19902C7.12097 21.408 7.07808 21.6445 7.07808 21.891C7.07808 23.0541 8.02434 24.0004 9.18745 24.0004C10.3505 24.0004 11.2968 23.0541 11.2968 21.891C11.2968 21.6445 11.2539 21.408 11.1759 21.1879H15.6834C15.6053 21.408 15.5625 21.6445 15.5625 21.891C15.5625 23.0541 16.5087 24.0004 17.6718 24.0004C18.8349 24.0004 19.7812 23.0541 19.7812 21.891C19.7812 21.6445 19.7383 21.408 19.6602 21.1879H21.8905C22.2788 21.1879 22.5936 20.8731 22.5936 20.4848C22.5936 20.0964 22.2788 19.7816 21.8905 19.7816H6.37496C5.98726 19.7816 5.67184 19.4662 5.67184 19.0785C5.67184 18.6908 5.98726 18.3754 6.37496 18.3754C6.39624 18.3754 6.41748 18.3744 6.43862 18.3725C8.49384 18.1856 18.6136 17.2692 20.8728 17.0645C21.8278 16.9777 22.6049 16.2565 22.7626 15.3106C22.7635 15.3046 22.7645 15.2985 22.7653 15.2925L23.9931 6.51978C24.0523 6.09678 23.7232 5.71921 23.2967 5.71921ZM17.6718 21.1879C18.0595 21.1879 18.3749 21.5033 18.3749 21.891C18.3749 22.2787 18.0595 22.5941 17.6718 22.5941C17.2841 22.5941 16.9687 22.2787 16.9687 21.891C16.9687 21.5033 17.2841 21.1879 17.6718 21.1879ZM9.18745 21.1879C9.57515 21.1879 9.89057 21.5033 9.89057 21.891C9.89057 22.2787 9.57515 22.5941 9.18745 22.5941C8.79975 22.5941 8.48433 22.2787 8.48433 21.891C8.48433 21.5033 8.79975 21.1879 9.18745 21.1879ZM7.61499 16.8535C7.2525 16.8864 6.92237 16.6334 6.85904 16.2761L6.02982 9.93794H8.54198L9.12262 16.7164L7.61499 16.8535ZM13.4062 16.3289C13.144 16.3527 10.5231 16.5891 10.5231 16.5891L9.95338 9.93794H13.4062V16.3289ZM17.7248 15.9377L14.8124 16.2016V9.93794H18.3038L17.7248 15.9377ZM21.3741 15.087C21.3188 15.3986 21.0614 15.6354 20.7458 15.6641L19.1501 15.8087L19.7165 9.93798H22.0947L21.3741 15.087ZM22.2916 8.53169C21.613 8.53169 6.42217 8.53169 5.84584 8.53169L5.66186 7.12545H22.4883L22.2916 8.53169Z" fill="#A3A3A3"/>
</g>
<defs>
<clipPath id="clip0">
<rect width="24" height="24" fill="white"/>
</clipPath>
</defs>
</svg>
