<svg width="24" height="24" viewBox="0 0 24 24" fill="none" xmlns="http://www.w3.org/2000/svg">
<g clip-path="url(#clip0)">
<path d="M23.2969 16.9219H22.264C22.4444 16.57 22.5469 16.1719 22.5469 15.75V4.5C22.5469 3.07842 21.3903 1.92188 19.9688 1.92188H4.03125C2.60967 1.92188 1.45312 3.07842 1.45312 4.5V15.75C1.45312 16.1719 1.55564 16.57 1.73602 16.9219H0.703125C0.314812 16.9219 0 17.2367 0 17.625V19.5C0 20.9216 1.15655 22.0781 2.57812 22.0781H21.4219C22.8435 22.0781 24 20.9216 24 19.5V17.625C24 17.2367 23.6852 16.9219 23.2969 16.9219ZM2.85938 15.75V4.5C2.85938 3.85383 3.38508 3.32812 4.03125 3.32812H19.9688C20.6149 3.32812 21.1406 3.85383 21.1406 4.5V15.75C21.1406 16.3962 20.6149 16.9219 19.9688 16.9219H4.03125C3.38508 16.9219 2.85938 16.3962 2.85938 15.75ZM22.5938 19.5C22.5938 20.1462 22.068 20.6719 21.4219 20.6719H2.57812C1.93195 20.6719 1.40625 20.1462 1.40625 19.5V18.3281H22.5938V19.5Z" fill="#A3A3A3"/>
<path d="M19.0312 8.48438H17.8594V7.3125C17.8594 5.89092 16.7028 4.73438 15.2812 4.73438C13.8597 4.73438 12.7031 5.89092 12.7031 7.3125V8.48438H11.5312C11.1429 8.48438 10.8281 8.79919 10.8281 9.1875V14.8125C10.8281 15.2008 11.1429 15.5156 11.5312 15.5156H19.0312C19.4196 15.5156 19.7344 15.2008 19.7344 14.8125V9.1875C19.7344 8.79919 19.4196 8.48438 19.0312 8.48438ZM14.1094 7.3125C14.1094 6.66633 14.6351 6.14062 15.2812 6.14062C15.9274 6.14062 16.4531 6.66633 16.4531 7.3125V8.48438H14.1094V7.3125ZM18.3281 14.1094H12.2344V9.89062H12.7031V10.5938C12.7031 10.9821 13.0179 11.2969 13.4062 11.2969C13.7946 11.2969 14.1094 10.9821 14.1094 10.5938V9.89062H16.4531V10.5938C16.4531 10.9821 16.7679 11.2969 17.1562 11.2969C17.5446 11.2969 17.8594 10.9821 17.8594 10.5938V9.89062H18.3281V14.1094Z" fill="#A3A3A3"/>
<path d="M8.71875 4.73438H4.96875C4.58044 4.73438 4.26562 5.04919 4.26562 5.4375C4.26562 5.82581 4.58044 6.14062 4.96875 6.14062H8.71875C9.10706 6.14062 9.42188 5.82581 9.42188 5.4375C9.42188 5.04919 9.10706 4.73438 8.71875 4.73438Z" fill="#A3A3A3"/>
<path d="M8.71875 7.54688H4.96875C4.58044 7.54688 4.26562 7.86169 4.26562 8.25C4.26562 8.63831 4.58044 8.95312 4.96875 8.95312H8.71875C9.10706 8.95312 9.42188 8.63831 9.42188 8.25C9.42188 7.86169 9.10706 7.54688 8.71875 7.54688Z" fill="#A3A3A3"/>
<path d="M8.71875 10.3594H4.96875C4.58044 10.3594 4.26562 10.6742 4.26562 11.0625C4.26562 11.4508 4.58044 11.7656 4.96875 11.7656H8.71875C9.10706 11.7656 9.42188 11.4508 9.42188 11.0625C9.42188 10.6742 9.10706 10.3594 8.71875 10.3594Z" fill="#A3A3A3"/>
<path d="M8.71875 13.1719H4.96875C4.58044 13.1719 4.26562 13.4867 4.26562 13.875C4.26562 14.2633 4.58044 14.5781 4.96875 14.5781H8.71875C9.10706 14.5781 9.42188 14.2633 9.42188 13.875C9.42188 13.4867 9.10706 13.1719 8.71875 13.1719Z" fill="#A3A3A3"/>
</g>
<defs>
<clipPath id="clip0">
<rect width="24" height="24" fill="white"/>
</clipPath>
</defs>
</svg>
