<svg width="48" height="48" viewBox="0 0 48 48" fill="none" xmlns="http://www.w3.org/2000/svg">
<g clip-path="url(#clip0)">
<path d="M35.2013 42.1803C38.4324 42.1803 41.061 39.5516 41.061 36.3206V32.6403C41.9316 32.3462 42.5603 31.5222 42.5603 30.5537C42.5603 29.3393 41.5723 28.3513 40.3578 28.3513C39.1435 28.3513 38.1555 29.3393 38.1555 30.5537C38.1555 31.5222 38.7842 32.3461 39.6547 32.6403V36.3206C39.6547 38.7762 37.6568 40.774 35.2013 40.774C32.7456 40.774 30.7478 38.7761 30.7478 36.3206V32.6403C31.6183 32.3461 32.247 31.5222 32.247 30.5537C32.247 29.3393 31.259 28.3513 30.0446 28.3513C28.8302 28.3513 27.8423 29.3393 27.8423 30.5537C27.8423 31.5222 28.471 32.3461 29.3415 32.6403V36.3206C29.3415 39.5516 31.9702 42.1803 35.2013 42.1803ZM40.3578 29.7575C40.7969 29.7575 41.154 30.1146 41.154 30.5536C41.154 30.9925 40.7968 31.3497 40.3578 31.3497C39.9189 31.3497 39.5618 30.9925 39.5618 30.5536C39.5618 30.1146 39.9189 29.7575 40.3578 29.7575ZM30.0446 29.7575C30.4836 29.7575 30.8407 30.1146 30.8407 30.5536C30.8407 30.9925 30.4835 31.3497 30.0446 31.3497C29.6058 31.3497 29.2486 30.9925 29.2486 30.5536C29.2486 30.1146 29.6058 29.7575 30.0446 29.7575Z" fill="#A3A3A3"/>
<path d="M3.47722 47.9999H45.1678C46.2437 47.9999 47.0821 47.0641 46.9648 45.9951L46.1439 38.5042C46.1016 38.118 45.7552 37.8401 45.3684 37.8818C44.9824 37.9241 44.7038 38.2713 44.7461 38.6573L45.567 46.1483C45.5929 46.386 45.4071 46.5936 45.1678 46.5936H25.2358H25.2349C24.9974 46.5936 24.8095 46.3879 24.8357 46.1483L26.8636 27.6443C26.8859 27.4404 27.0575 27.2865 27.2628 27.2865H43.1401C43.3452 27.2865 43.5169 27.4404 43.5393 27.6443L44.3865 35.376C44.4288 35.7619 44.7736 36.0404 45.1621 35.9984C45.548 35.956 45.8267 35.6088 45.7844 35.2229L44.9371 27.4912C44.8365 26.5729 44.0639 25.8803 43.1401 25.8803H35.3611L34.2753 15.9717C34.1387 14.7256 33.0905 13.786 31.837 13.786H29.0396V9.7765C29.0396 4.38574 24.6538 0 19.2631 0C13.8723 0 9.48656 4.38574 9.48656 9.7765V13.786H6.68918C5.43562 13.786 4.38737 14.7256 4.25087 15.9717L1.039 45.28C0.880093 46.7308 2.01834 47.9999 3.47722 47.9999ZM2.43694 45.4331L5.64881 16.1248C5.70712 15.5933 6.15441 15.1923 6.68927 15.1923H9.48666V17.8106C8.56807 18.108 7.90177 18.9713 7.90177 19.9876C7.90177 21.2493 8.92817 22.2757 10.1898 22.2757C11.4514 22.2757 12.4778 21.2493 12.4778 19.9876C12.4778 18.9713 11.8115 18.108 10.8929 17.8106V15.1923H17.6225C18.0109 15.1923 18.3256 14.8775 18.3256 14.4891C18.3256 14.1008 18.0109 13.786 17.6225 13.786H10.8929V9.7765C10.8929 5.16116 14.6478 1.40629 19.2632 1.40629C23.8785 1.40629 27.6334 5.16116 27.6334 9.7765V13.786H20.9038C20.5154 13.786 20.2007 14.1008 20.2007 14.4891C20.2007 14.8775 20.5154 15.1923 20.9038 15.1923H27.6334V17.8106C26.7148 18.108 26.0486 18.9713 26.0486 19.9876C26.0486 21.2493 27.0749 22.2757 28.3365 22.2757C29.5981 22.2757 30.6245 21.2493 30.6245 19.9876C30.6245 18.9713 29.9582 18.108 29.0396 17.8106V15.1923H31.8371C32.3719 15.1923 32.8192 15.5932 32.8775 16.1248L33.9465 25.8803H27.2629C26.3389 25.8803 25.5663 26.5729 25.4658 27.4913L23.4379 45.9953C23.4158 46.1967 23.4336 46.423 23.4725 46.5937H3.47722C2.85377 46.5936 2.36897 46.0543 2.43694 45.4331ZM10.1897 19.1059C10.676 19.1059 11.0714 19.5014 11.0714 19.9876C11.0714 20.4738 10.6759 20.8694 10.1897 20.8694C9.7035 20.8694 9.30796 20.4738 9.30796 19.9876C9.30796 19.5014 9.70341 19.1059 10.1897 19.1059ZM28.3364 19.1059C28.8227 19.1059 29.2182 19.5014 29.2182 19.9876C29.2182 20.4738 28.8226 20.8694 28.3364 20.8694C27.8502 20.8694 27.4548 20.4738 27.4548 19.9876C27.4548 19.5014 27.8503 19.1059 28.3364 19.1059Z" fill="#A3A3A3"/>
</g>
<defs>
<clipPath id="clip0">
<rect width="48" height="48" fill="white"/>
</clipPath>
</defs>
</svg>
