<svg width="70" height="30" viewBox="0 0 70 30" fill="none" xmlns="http://www.w3.org/2000/svg">
<path d="M67.9271 3.1094C68.8131 1.78029 67.8604 0 66.263 0H0V30H66.263C67.8604 30 68.8131 28.2197 67.9271 26.8906L61.1094 16.6641C60.4376 15.6564 60.4376 14.3436 61.1094 13.3359L67.9271 3.1094Z" fill="#FFE45E"/>
<path d="M15.67 17.83H12.66L11.918 20H10L13.528 10.13H14.942L18.47 20H16.454L15.67 17.83ZM13.15 16.29H15.25L14.522 14.106L14.228 12.566H14.158L13.864 14.12L13.15 16.29ZM21.7386 15.814H21.2346V20H19.3166V10.2H21.2346V14.54L21.6826 14.344L24.3846 10.2H26.5686L23.7126 14.316L22.9566 14.848L23.7406 15.394L27.0026 20H24.6366L21.7386 15.814ZM36.4682 21.75H35.1102L34.9002 20H27.9982V10.2H29.9162V18.292H33.2902V10.2H35.2082V18.292H36.4682V21.75ZM43.2532 14.568L43.3652 13.294H43.2952L42.6372 14.61L38.9832 20H37.5412V10.2H39.4592V15.534L39.3192 16.85H39.4032L40.0892 15.492L43.7432 10.2H45.1712V20H43.2532V14.568ZM53.2914 20H51.3734V16.122L50.3654 16.388L48.3214 20H46.0954L48.1114 16.738L48.9514 16.136C48.6527 16.0613 48.3727 15.9493 48.1114 15.8C47.8501 15.6413 47.6214 15.4407 47.4254 15.198C47.2294 14.9553 47.0754 14.6707 46.9634 14.344C46.8514 14.008 46.7954 13.63 46.7954 13.21C46.7954 12.622 46.8981 12.1273 47.1034 11.726C47.3087 11.3247 47.5934 11.0027 47.9574 10.76C48.3214 10.508 48.7554 10.3307 49.2594 10.228C49.7634 10.116 50.3094 10.06 50.8974 10.06C51.0561 10.06 51.2381 10.0647 51.4434 10.074C51.6487 10.0833 51.8587 10.0973 52.0734 10.116C52.2974 10.1347 52.5121 10.158 52.7174 10.186C52.9321 10.214 53.1234 10.2513 53.2914 10.298V20ZM50.6594 11.768C50.4074 11.768 50.1694 11.7913 49.9454 11.838C49.7214 11.8847 49.5254 11.964 49.3574 12.076C49.1894 12.188 49.0541 12.342 48.9514 12.538C48.8581 12.734 48.8114 12.986 48.8114 13.294C48.8114 13.5833 48.8581 13.8307 48.9514 14.036C49.0447 14.232 49.1754 14.3953 49.3434 14.526C49.5114 14.6473 49.7074 14.736 49.9314 14.792C50.1554 14.848 50.3981 14.876 50.6594 14.876H51.3734V11.838C51.2707 11.8193 51.1634 11.8053 51.0514 11.796C50.9487 11.7773 50.8181 11.768 50.6594 11.768Z" fill="#333333"/>
</svg>
