<svg width="48" height="48" viewBox="0 0 48 48" fill="none" xmlns="http://www.w3.org/2000/svg">
<path d="M41.1429 18.4714C41.1429 8.95707 33.4714 1.28564 24 1.28564C14.5286 1.28564 6.85714 8.95707 6.85714 18.4285C6.85714 18.4285 6.85714 18.4285 6.85714 18.4714C3.04286 18.6856 0 21.8571 0 25.7142V26.5714C0 30.5999 3.25714 33.8571 7.28571 33.8571H7.67143L10.7143 38.6999C12.8571 42.1285 16.5 44.1428 20.5286 44.1428H21.1286C21.5143 45.5999 22.8429 46.7142 24.4286 46.7142C26.3143 46.7142 27.8571 45.1714 27.8571 43.2856C27.8571 41.3999 26.3143 39.8571 24.4286 39.8571C22.8429 39.8571 21.5143 40.9714 21.1286 42.4285H20.5286C17.1 42.4285 13.9714 40.6714 12.1714 37.7571L9.68571 33.8571H10.2857C11.2286 33.8571 12 33.0856 12 32.1428V20.1428C12 19.1999 11.2286 18.4285 10.2857 18.4285H8.57143C8.57143 9.89993 15.4714 2.99993 24 2.99993C32.5286 2.99993 39.4286 9.89993 39.4286 18.4285H37.7143C36.7714 18.4285 36 19.1999 36 20.1428V32.1428C36 33.0856 36.7714 33.8571 37.7143 33.8571H40.7143C44.7429 33.8571 48 30.5999 48 26.5714V25.7142C48 21.8571 44.9571 18.6856 41.1429 18.4714ZM24.4286 41.5714C25.3714 41.5714 26.1429 42.3428 26.1429 43.2856C26.1429 44.2285 25.3714 44.9999 24.4286 44.9999C23.4857 44.9999 22.7143 44.2285 22.7143 43.2856C22.7143 42.3428 23.4857 41.5714 24.4286 41.5714ZM10.2857 20.1428V32.1428H7.28571C4.2 32.1428 1.71429 29.6571 1.71429 26.5714V25.7142C1.71429 22.6285 4.2 20.1428 7.28571 20.1428H10.2857ZM46.2857 26.5714C46.2857 29.6571 43.8 32.1428 40.7143 32.1428H37.7143V20.1428H40.7143C43.8 20.1428 46.2857 22.6285 46.2857 25.7142V26.5714Z" fill="#A3A3A3"/>
<path d="M31.1142 7.75704C31.0285 7.71418 30.8999 7.62847 30.7714 7.54276C30.6428 7.45704 30.5142 7.37133 30.4285 7.32847C30.0428 7.07133 29.4857 7.1999 29.2714 7.62847C29.0571 8.05704 29.1428 8.52847 29.5714 8.78561C29.6571 8.82847 29.7857 8.91418 29.9142 8.9999C30.0428 9.08561 30.1714 9.17132 30.2999 9.21418C30.4285 9.29989 30.5999 9.34275 30.7285 9.34275C31.0285 9.34275 31.2857 9.21418 31.4571 8.91418C31.6714 8.52847 31.5428 8.01418 31.1142 7.75704Z" fill="#A3A3A3"/>
<path d="M24 5.57153C20.3572 5.57153 16.9286 7.15725 14.5715 9.9001C14.2715 10.243 14.3143 10.8001 14.6572 11.1001C14.8286 11.2287 15 11.3144 15.2143 11.3144C15.4715 11.3144 15.6858 11.2287 15.8572 11.0144C17.9143 8.65725 20.8715 7.28582 24 7.28582C24.7715 7.28582 25.5429 7.37153 26.3143 7.54296C26.7858 7.62868 27.2143 7.32868 27.3429 6.9001C27.4715 6.47153 27.1286 6.0001 26.7 5.87153C25.8 5.65725 24.9 5.57153 24 5.57153Z" fill="#A3A3A3"/>
</svg>
