<svg width="24" height="24" viewBox="0 0 24 24" fill="none" xmlns="http://www.w3.org/2000/svg">
<g clip-path="url(#clip0)">
<path d="M13.2469 8.76465L12.2526 7.77029C11.978 7.4957 11.5328 7.4957 11.2582 7.77029C10.9836 8.04488 10.9836 8.49005 11.2582 8.76465L12.2526 9.75901C12.5271 10.0336 12.9723 10.0336 13.2469 9.75901C13.5215 9.48436 13.5215 9.03919 13.2469 8.76465Z" fill="#A3A3A3"/>
<path d="M16.2298 11.7477L15.2355 10.7534C14.9609 10.4788 14.5157 10.4788 14.2411 10.7534C13.9665 11.028 13.9665 11.4731 14.2411 11.7477L15.2355 12.7421C15.51 13.0167 15.9552 13.0167 16.2298 12.7421C16.5044 12.4674 16.5044 12.0223 16.2298 11.7477Z" fill="#A3A3A3"/>
<path d="M23.1902 0.809711C22.4875 0.106914 21.4522 -0.150524 20.2752 0.0848826C19.4017 0.259586 18.5217 0.696367 17.7425 1.33452C17.1792 0.836054 16.4011 0.674383 15.6801 0.914664L10.8533 2.52355C10.5442 2.62663 10.2591 2.80284 10.0289 3.03313C9.7485 3.31349 1.0335 12.0284 0.616781 12.4452C-0.205594 13.2676 -0.205594 14.6058 0.616781 15.4282L8.57166 23.3831C9.39408 24.2055 10.7322 24.2055 11.5547 23.3831L20.9667 13.9711C21.1971 13.7408 21.3733 13.4557 21.4763 13.1466L23.0852 8.31984C23.3256 7.59885 23.1638 6.82073 22.6654 6.25748C23.3035 5.47832 23.7403 4.59824 23.915 3.72473C24.1504 2.54774 23.893 1.51251 23.1902 0.809711ZM21.7512 7.87518L20.1423 12.7018C20.1079 12.8049 20.0492 12.8999 19.9724 12.9767L18.7156 14.2336L18.2184 13.7364C17.9438 13.4618 17.4986 13.4618 17.224 13.7364C16.9494 14.011 16.9494 14.4561 17.224 14.7307L17.7212 15.2279L10.5604 22.3888C10.2862 22.6629 9.84019 22.663 9.56597 22.3888L1.61119 14.4339C1.33702 14.1598 1.33702 13.7137 1.61119 13.4395L8.77209 6.27866L9.2693 6.77582C9.54384 7.05041 9.98906 7.05046 10.2637 6.77582C10.5382 6.50123 10.5382 6.05605 10.2637 5.78146L9.76645 5.2843L11.0233 4.02744C11.1 3.95066 11.1951 3.89193 11.2981 3.85762L16.1248 2.24868C16.3785 2.16412 16.6545 2.22862 16.8444 2.41855L20.6725 6.2467C20.0828 6.70209 19.4335 7.00991 18.8295 7.12359C18.795 6.63426 18.5918 6.15473 18.2185 5.78146C17.3961 4.95899 16.0579 4.95899 15.2355 5.78146C14.4131 6.60388 14.4131 7.94207 15.2355 8.76449C16.0579 9.58691 17.3961 9.58696 18.2185 8.76449C18.2782 8.70482 18.333 8.6421 18.3841 8.57737C19.4623 8.56007 20.6471 8.08129 21.664 7.25526C21.7878 7.43507 21.8221 7.66255 21.7512 7.87518ZM17.2241 7.77018C16.95 8.0443 16.5039 8.0443 16.2297 7.77018C15.9556 7.49601 15.9556 7.04994 16.2297 6.77582C16.5046 6.50099 16.9492 6.50099 17.2241 6.77582C17.4989 7.05069 17.4989 7.49535 17.2241 7.77018ZM22.5361 3.44896C22.4141 4.05895 22.1118 4.68252 21.6678 5.25346L18.7465 2.33207C19.3175 1.88812 19.941 1.58577 20.551 1.4638C20.9571 1.38262 21.7107 1.31882 22.1959 1.80407C22.6811 2.28927 22.6173 3.04288 22.5361 3.44896Z" fill="#A3A3A3"/>
<path d="M12.9959 16.1012L11.754 14.4371L12.4209 12.4707C12.5068 12.2172 12.4414 11.9369 12.2522 11.7477C12.0629 11.5584 11.7827 11.493 11.5292 11.579L9.56278 12.2458L7.89867 11.0039C7.68417 10.8439 7.39743 10.8194 7.15893 10.9409C6.92048 11.0624 6.77165 11.3088 6.77512 11.5764L6.80165 13.6526L5.10632 14.8516C4.63139 15.1875 4.74787 15.9244 5.30357 16.0971L7.28639 16.7135L7.90274 18.6963C8.07543 19.2518 8.81156 19.3696 9.14826 18.8935L10.3472 17.1982L12.4234 17.2247C12.6911 17.2295 12.9374 17.0794 13.0589 16.8409C13.1804 16.6025 13.156 16.3157 12.9959 16.1012ZM9.99557 15.7874C9.99257 15.7874 9.98957 15.7874 9.98657 15.7874C9.75853 15.7874 9.5444 15.8981 9.4125 16.0845L8.82271 16.9185L8.51953 15.9431C8.45085 15.7222 8.27779 15.5491 8.05682 15.4804L7.08145 15.1772L7.9154 14.5874C8.10435 14.4538 8.21545 14.2358 8.21245 14.0044L8.19942 12.9831L9.018 13.5939C9.20348 13.7323 9.44512 13.7706 9.66435 13.6963L10.6317 13.3683L10.3036 14.3356C10.2293 14.5548 10.2676 14.7965 10.406 14.9819L11.0169 15.8005L9.99557 15.7874Z" fill="#A3A3A3"/>
</g>
<defs>
<clipPath id="clip0">
<rect width="24" height="24" fill="white"/>
</clipPath>
</defs>
</svg>
