<svg width="16" height="32" viewBox="0 0 16 32" fill="none" xmlns="http://www.w3.org/2000/svg">
<path d="M6 0.666667C6 0.298477 6.29848 0 6.66667 0H15.3333C15.7015 0 16 0.298477 16 0.666667V3.33333C16 3.70152 15.7015 4 15.3333 4H6.66667C6.29848 4 6 3.70152 6 3.33333V0.666667Z" fill="#D1D1D1"/>
<path d="M0 0.666667C0 0.298477 0.298477 0 0.666667 0H3.33333C3.70152 0 4 0.298477 4 0.666667V3.33333C4 3.70152 3.70152 4 3.33333 4H0.666667C0.298477 4 0 3.70152 0 3.33333V0.666667Z" fill="#D1D1D1"/>
<path d="M6 6.66667C6 6.29848 6.29848 6 6.66667 6H15.3333C15.7015 6 16 6.29848 16 6.66667V9.33333C16 9.70152 15.7015 10 15.3333 10H6.66667C6.29848 10 6 9.70152 6 9.33333V6.66667Z" fill="#D1D1D1"/>
<path d="M0 6.66667C0 6.29848 0.298477 6 0.666667 6H3.33333C3.70152 6 4 6.29848 4 6.66667V9.33333C4 9.70152 3.70152 10 3.33333 10H0.666667C0.298477 10 0 9.70152 0 9.33333V6.66667Z" fill="#D1D1D1"/>
<path d="M6 12.6667C6 12.2985 6.29848 12 6.66667 12H15.3333C15.7015 12 16 12.2985 16 12.6667V15.3333C16 15.7015 15.7015 16 15.3333 16H6.66667C6.29848 16 6 15.7015 6 15.3333V12.6667Z" fill="#D1D1D1"/>
<path d="M0 12.6667C0 12.2985 0.298477 12 0.666667 12H3.33333C3.70152 12 4 12.2985 4 12.6667V15.3333C4 15.7015 3.70152 16 3.33333 16H0.666667C0.298477 16 0 15.7015 0 15.3333V12.6667Z" fill="#D1D1D1"/>
<path d="M6 16.6667C6 16.2985 6.29848 16 6.66667 16H15.3333C15.7015 16 16 16.2985 16 16.6667V19.3333C16 19.7015 15.7015 20 15.3333 20H6.66667C6.29848 20 6 19.7015 6 19.3333V16.6667Z" fill="#00B4D8"/>
<path d="M0 16.6667C0 16.2985 0.298477 16 0.666667 16H3.33333C3.70152 16 4 16.2985 4 16.6667V19.3333C4 19.7015 3.70152 20 3.33333 20H0.666667C0.298477 20 0 19.7015 0 19.3333V16.6667Z" fill="#00B4D8"/>
<path d="M6 22.6667C6 22.2985 6.29848 22 6.66667 22H15.3333C15.7015 22 16 22.2985 16 22.6667V25.3333C16 25.7015 15.7015 26 15.3333 26H6.66667C6.29848 26 6 25.7015 6 25.3333V22.6667Z" fill="#00B4D8"/>
<path d="M0 22.6667C0 22.2985 0.298477 22 0.666667 22H3.33333C3.70152 22 4 22.2985 4 22.6667V25.3333C4 25.7015 3.70152 26 3.33333 26H0.666667C0.298477 26 0 25.7015 0 25.3333V22.6667Z" fill="#00B4D8"/>
<path d="M6 28.6667C6 28.2985 6.29848 28 6.66667 28H15.3333C15.7015 28 16 28.2985 16 28.6667V31.3333C16 31.7015 15.7015 32 15.3333 32H6.66667C6.29848 32 6 31.7015 6 31.3333V28.6667Z" fill="#00B4D8"/>
<path d="M0 28.6667C0 28.2985 0.298477 28 0.666667 28H3.33333C3.70152 28 4 28.2985 4 28.6667V31.3333C4 31.7015 3.70152 32 3.33333 32H0.666667C0.298477 32 0 31.7015 0 31.3333V28.6667Z" fill="#00B4D8"/>
</svg>
