<svg width="16" height="32" viewBox="0 0 16 32" fill="none" xmlns="http://www.w3.org/2000/svg">
<path d="M0 0.666667C0 0.298477 0.298477 0 0.666667 0H6C6.36819 0 6.66667 0.298477 6.66667 0.666667V6C6.66667 6.36819 6.36819 6.66667 6 6.66667H0.666667C0.298477 6.66667 0 6.36819 0 6V0.666667Z" fill="#D1D1D1"/>
<path d="M0 10C0 9.63181 0.298477 9.33333 0.666667 9.33333H6C6.36819 9.33333 6.66667 9.63181 6.66667 10V15.3333C6.66667 15.7015 6.36819 16 6 16H0.666667C0.298477 16 0 15.7015 0 15.3333V10Z" fill="#D1D1D1"/>
<path d="M9.33333 0.666667C9.33333 0.298477 9.63181 0 10 0H15.3333C15.7015 0 16 0.298477 16 0.666667V6C16 6.36819 15.7015 6.66667 15.3333 6.66667H10C9.63181 6.66667 9.33333 6.36819 9.33333 6V0.666667Z" fill="#D1D1D1"/>
<path d="M9.33333 10C9.33333 9.63181 9.63181 9.33333 10 9.33333H15.3333C15.7015 9.33333 16 9.63181 16 10V15.3333C16 15.7015 15.7015 16 15.3333 16H10C9.63181 16 9.33333 15.7015 9.33333 15.3333V10Z" fill="#D1D1D1"/>
<path d="M0 16.6667C0 16.2985 0.298477 16 0.666667 16H6C6.36819 16 6.66667 16.2985 6.66667 16.6667V22C6.66667 22.3682 6.36819 22.6667 6 22.6667H0.666667C0.298477 22.6667 0 22.3682 0 22V16.6667Z" fill="#00B4D8"/>
<path d="M0 26C0 25.6318 0.298477 25.3333 0.666667 25.3333H6C6.36819 25.3333 6.66667 25.6318 6.66667 26V31.3333C6.66667 31.7015 6.36819 32 6 32H0.666667C0.298477 32 0 31.7015 0 31.3333V26Z" fill="#00B4D8"/>
<path d="M9.33333 16.6667C9.33333 16.2985 9.63181 16 10 16H15.3333C15.7015 16 16 16.2985 16 16.6667V22C16 22.3682 15.7015 22.6667 15.3333 22.6667H10C9.63181 22.6667 9.33333 22.3682 9.33333 22V16.6667Z" fill="#00B4D8"/>
<path d="M9.33333 26C9.33333 25.6318 9.63181 25.3333 10 25.3333H15.3333C15.7015 25.3333 16 25.6318 16 26V31.3333C16 31.7015 15.7015 32 15.3333 32H10C9.63181 32 9.33333 31.7015 9.33333 31.3333V26Z" fill="#00B4D8"/>
</svg>
