<svg width="40" height="40" viewBox="0 0 40 40" fill="none" xmlns="http://www.w3.org/2000/svg">
<rect width="40" height="40" rx="10" fill="#1F95C3"/>
<path d="M28.795 20.6617C28.3639 20.1127 28.4873 19.8684 28.795 19.3777C28.8006 19.3721 32.3596 14.413 32.7263 12.7312L32.7285 12.7301C32.9107 12.1172 32.7285 11.6667 31.8474 11.6667H28.9317C28.1895 11.6667 27.8472 12.0533 27.6639 12.4858C27.6639 12.4858 26.1794 16.069 24.0793 18.3917C23.4015 19.0628 23.0882 19.278 22.7182 19.278C22.5359 19.278 22.2526 19.0628 22.2526 18.4499V12.7301C22.2526 11.995 22.0448 11.6667 21.4303 11.6667H16.8457C16.3802 11.6667 16.1035 12.0096 16.1035 12.3289C16.1035 13.0259 17.1535 13.1861 17.2624 15.1469V19.4012C17.2624 20.3334 17.0946 20.5048 16.7224 20.5048C15.7313 20.5048 13.3256 16.9071 11.9 12.7894C11.6122 11.9906 11.3311 11.6679 10.5833 11.6679H7.66654C6.83429 11.6679 6.6665 12.0544 6.6665 12.4869C6.6665 13.2511 7.65765 17.0505 11.2756 22.0701C13.6867 25.4964 17.0824 27.353 20.1714 27.353C22.0281 27.353 22.2548 26.9407 22.2548 26.2315C22.2548 22.9575 22.087 22.6483 23.0171 22.6483C23.4482 22.6483 24.1904 22.8634 25.9238 24.5161C27.905 26.4757 28.2306 27.353 29.3395 27.353H32.2552C33.0863 27.353 33.5074 26.9407 33.2652 26.1273C32.7107 24.4163 28.9639 20.897 28.795 20.6617V20.6617Z" fill="white"/>
</svg>
