<svg width="48" height="48" viewBox="0 0 48 48" fill="none" xmlns="http://www.w3.org/2000/svg">
<path d="M24.0004 2C20.4416 2.00188 16.9633 3.05838 14.0046 5.03606C11.046 7.01375 8.73983 9.82389 7.37743 13.1115C6.01504 16.3992 5.65752 20.0168 6.35005 23.5076C7.04258 26.9983 8.75408 30.2055 11.2684 32.724C14.5284 35.984 22.2004 40.7 22.6544 45.654C22.7224 46.394 23.2604 47 24.0004 47C24.7404 47 25.2804 46.394 25.3464 45.654C25.8004 40.7 33.4664 35.992 36.7244 32.734C39.2416 30.2165 40.956 27.0091 41.6507 23.5175C42.3455 20.0258 41.9894 16.4065 40.6276 13.1171C39.2658 9.82777 36.9594 7.01598 33.9998 5.0372C31.0403 3.05842 27.5605 2.00148 24.0004 2ZM24.0004 26.158C23.1917 26.158 22.3909 25.9987 21.6438 25.6893C20.8967 25.3798 20.2178 24.9262 19.646 24.3544C19.0742 23.7825 18.6206 23.1037 18.3111 22.3566C18.0017 21.6094 17.8424 20.8087 17.8424 20C17.8424 19.1913 18.0017 18.3906 18.3111 17.6434C18.6206 16.8963 19.0742 16.2175 19.646 15.6456C20.2178 15.0738 20.8967 14.6202 21.6438 14.3108C22.3909 14.0013 23.1917 13.842 24.0004 13.842C25.6336 13.842 27.1999 14.4908 28.3547 15.6456C29.5096 16.8005 30.1584 18.3668 30.1584 20C30.1584 21.6332 29.5096 23.1995 28.3547 24.3544C27.1999 25.5092 25.6336 26.158 24.0004 26.158Z" fill="#FF4433"/>
</svg>
