<svg width="122" height="140" viewBox="0 0 122 140" fill="none" xmlns="http://www.w3.org/2000/svg">
<path d="M24.4602 137.719L27.6998 121.645H15.645L18.8846 137.719C19.4977 140.761 23.8471 140.761 24.4602 137.719Z" fill="#FAB700"/>
<path d="M103.116 137.719L106.357 121.645H94.3008L97.5414 137.719C98.1545 140.761 102.503 140.761 103.116 137.719Z" fill="#FAB700"/>
<path d="M23.0916 121.645L19.9385 137.287C19.8371 137.79 19.6352 138.211 19.3682 138.553C20.7695 140.342 24.0155 139.921 24.5475 137.287L27.6995 121.645H23.0916Z" fill="#FAA200"/>
<path d="M101.747 121.645L98.5943 137.287C98.4928 137.79 98.292 138.211 98.0239 138.553C99.4264 140.342 102.672 139.921 103.203 137.287L106.356 121.645H101.747Z" fill="#FAA200"/>
<path d="M111.036 48.7499C115.305 26.8492 101.326 5.31281 79.4657 0.839539C76.774 0.28946 73.9873 0 71.1322 0H50.9438C44.2809 0 37.9865 1.57654 32.412 4.37607C16.2364 12.5002 7.58039 30.5374 10.9012 48.3312L18.2284 87.5919V107.27H103.351L103.416 87.8408L111.036 48.7499Z" fill="#D1390A"/>
<path d="M71.1323 0H56.2812C59.1363 0 61.923 0.28946 64.6147 0.839539C86.4737 5.31388 100.454 26.8492 96.185 48.7499L89.2348 84.4036C88.7894 86.6894 88.5608 89.0136 88.5533 91.3432L88.4999 107.27H103.351L103.404 91.3432C103.412 89.0136 103.639 86.6894 104.086 84.4036L111.036 48.7499C115.305 26.8492 101.326 5.31281 79.4658 0.839539C76.7741 0.28946 73.9874 0 71.1323 0V0Z" fill="#B8280A"/>
<path d="M38.2021 57.6259C38.2021 60.1242 36.177 62.1494 33.6787 62.1494C31.1814 62.1494 29.1562 60.1242 29.1562 57.6259C29.1562 55.1287 31.1814 53.1035 33.6787 53.1035C36.177 53.1035 38.2021 55.1287 38.2021 57.6259Z" fill="#B8280A"/>
<path d="M65.4381 57.6259C65.4381 60.1242 63.4129 62.1494 60.9146 62.1494C58.4163 62.1494 56.3911 60.1242 56.3911 57.6259C56.3911 55.1287 58.4163 53.1035 60.9146 53.1035C63.4129 53.1035 65.4381 55.1287 65.4381 57.6259Z" fill="#B8280A"/>
<path d="M92.8447 57.6259C92.8447 60.1242 90.8196 62.1494 88.3212 62.1494C85.8229 62.1494 83.7988 60.1242 83.7988 57.6259C83.7988 55.1287 85.8229 53.1035 88.3212 53.1035C90.8196 53.1035 92.8447 55.1287 92.8447 57.6259Z" fill="#B8280A"/>
<path d="M50.5869 80.9034C50.5869 83.4017 48.5617 85.4258 46.0634 85.4258C43.5651 85.4258 41.541 83.4017 41.541 80.9034C41.541 78.405 43.5651 76.3799 46.0634 76.3799C48.5617 76.3799 50.5869 78.405 50.5869 80.9034Z" fill="#B8280A"/>
<path d="M77.9941 80.9034C77.9941 83.4017 75.969 85.4258 73.4706 85.4258C70.9734 85.4258 68.9482 83.4017 68.9482 80.9034C68.9482 78.405 70.9734 76.3799 73.4706 76.3799C75.969 76.3799 77.9941 78.405 77.9941 80.9034Z" fill="#B8280A"/>
<path d="M110.104 124.068H11.8964C9.07767 124.068 6.79297 121.783 6.79297 118.965V117.196C6.79297 107.841 14.3766 100.258 23.7322 100.258H98.2686C107.623 100.258 115.207 107.841 115.207 117.196V118.965C115.207 121.783 112.922 124.068 110.104 124.068Z" fill="#FF6914"/>
<path d="M97.7391 100.258H83.0536C86.3508 103.434 88.4048 107.892 88.4048 112.832V113.913C88.4048 116.82 86.0496 119.175 83.1433 119.175H6.8125C7.00262 121.908 9.27451 124.068 12.0559 124.068H109.946C112.852 124.068 115.207 121.712 115.207 118.805V117.724C115.207 108.078 107.386 100.258 97.7391 100.258Z" fill="#ED500A"/>
<path d="M10.6076 114.831C9.44226 114.831 8.49805 113.887 8.49805 112.721V93.4066C8.49805 92.2413 9.44226 91.2971 10.6076 91.2971C11.7729 91.2971 12.7171 92.2413 12.7171 93.4066V112.721C12.7171 113.887 11.7729 114.831 10.6076 114.831Z" fill="#D1390A"/>
<path d="M111.393 114.831C110.228 114.831 109.284 113.887 109.284 112.721V93.4066C109.284 92.2413 110.228 91.2971 111.393 91.2971C112.558 91.2971 113.502 92.2413 113.502 93.4066V112.721C113.502 113.887 112.558 114.831 111.393 114.831Z" fill="#D1390A"/>
<path d="M17.0674 93.9085H7.65839C3.42865 93.9085 0 90.4798 0 86.2512V84.6009C0 80.3723 3.42865 76.9436 7.65839 76.9436H17.0674C21.2961 76.9436 24.7248 80.3723 24.7248 84.6009V86.2512C24.7248 90.4798 21.2961 93.9085 17.0674 93.9085Z" fill="#FF6914"/>
<path d="M114.343 93.9085H104.934C100.704 93.9085 97.2754 90.4798 97.2754 86.2512V84.6009C97.2754 80.3723 100.704 76.9436 104.934 76.9436H114.343C118.571 76.9436 122 80.3723 122 84.6009V86.2512C122 90.4798 118.573 93.9085 114.343 93.9085Z" fill="#FF6914"/>
<path d="M114.15 76.9436H105.938C110.274 76.9436 113.789 80.4577 113.789 84.7943V86.0578C113.789 90.3933 110.274 93.9085 105.938 93.9085H114.15C118.486 93.9085 122 90.3933 122 86.0578V84.7943C122 80.4577 118.486 76.9436 114.15 76.9436Z" fill="#ED500A"/>
<path d="M71.3556 32.6268C72.3286 32.6268 73.1361 31.8748 73.2055 30.9039L74.3484 14.8181C74.3944 14.2028 73.5901 13.9326 73.2557 14.4506L66.4369 25.0004C66.1645 25.4223 65.5236 25.3369 65.3709 24.8594L60.7438 10.4014C60.5676 9.85025 59.7879 9.85025 59.6116 10.4014L54.9845 24.8594C54.8307 25.3369 54.1909 25.4223 53.9186 25.0004L47.0741 14.4111C46.7419 13.8963 45.9419 14.1612 45.9814 14.7732L47.1018 30.9007C47.1691 31.8737 47.9766 32.6268 48.9518 32.6268H71.3556Z" fill="#FAB700"/>
<path d="M73.2558 14.4505L68.1043 22.4197L67.5018 30.9038C67.4324 31.8747 66.6249 32.6266 65.6519 32.6266H71.3556C72.3286 32.6266 73.1361 31.8747 73.2045 30.9038L74.3474 14.8179C74.3944 14.2027 73.5901 13.9325 73.2558 14.4505Z" fill="#FAA200"/>
</svg>
