<svg width="24" height="24" viewBox="0 0 24 24" fill="none" xmlns="http://www.w3.org/2000/svg">
<path fill-rule="evenodd" clip-rule="evenodd" d="M5.75583 0C8.92582 0 11.5117 2.59204 11.5117 5.76965V11.5393H5.75583C2.58583 11.5393 0 8.94727 0 5.76965C0 2.59204 2.58583 0 5.75583 0Z" fill="#91C8E8"/>
<path fill-rule="evenodd" clip-rule="evenodd" d="M0 18.2306C0 15.053 2.58583 12.4609 5.75583 12.4609H11.5117V18.2306C11.5117 21.4082 8.92582 24.0002 5.75583 24.0002C2.58583 24.0002 0 21.4082 0 18.2306Z" fill="#91C8E8"/>
<path fill-rule="evenodd" clip-rule="evenodd" d="M23.9423 5.77844C23.9423 8.95606 21.3565 11.5481 18.1865 11.5481H12.4307V5.77844C12.4307 2.60083 15.0165 0.00878906 18.1865 0.00878906C21.3565 0.00878906 23.9423 2.60083 23.9423 5.77844Z" fill="#91C8E8"/>
</svg>
