<svg width="20" height="20" viewBox="0 0 20 20" fill="none" xmlns="http://www.w3.org/2000/svg">
<g clip-path="url(#clip0)">
<path d="M18.2141 17.8572C18.6636 17.8572 19.0532 17.7087 19.3843 17.4156L13.718 11.7491C13.5821 11.8464 13.4503 11.9411 13.3258 12.0311C12.9018 12.3435 12.5576 12.5873 12.2933 12.762C12.0291 12.9371 11.6775 13.1156 11.2387 13.2978C10.7995 13.4802 10.3904 13.5711 10.0109 13.5711H9.99978H9.98867C9.60911 13.5711 9.19999 13.4803 8.76088 13.2978C8.32177 13.1156 7.9702 12.9371 7.70622 12.762C7.44199 12.5873 7.09801 12.3436 6.67375 12.0311C6.55552 11.9444 6.4244 11.8493 6.28264 11.7476L0.615234 17.4156C0.946356 17.7087 1.33616 17.8572 1.78569 17.8572H18.2141V17.8572Z" fill="#52575F"/>
<path d="M1.12735 8.18107C0.703347 7.89838 0.327345 7.57463 0 7.20996V15.8311L4.99427 10.8369C3.99513 10.1393 2.7078 9.25508 1.12735 8.18107Z" fill="#52575F"/>
<path d="M18.884 8.18107C17.3639 9.20998 16.0718 10.0958 15.0078 10.8389L20.0001 15.8314V7.20996C19.68 7.5673 19.308 7.89083 18.884 8.18107Z" fill="#52575F"/>
<path d="M18.2144 2.14307H1.78609C1.21295 2.14307 0.772318 2.3366 0.463637 2.72328C0.154702 3.11014 0.000488281 3.59395 0.000488281 4.17417C0.000488281 4.64284 0.205138 5.15065 0.614256 5.69775C1.02337 6.24463 1.45871 6.67419 1.92004 6.98665C2.17295 7.16533 2.93563 7.69555 4.20808 8.57711C4.89498 9.05312 5.49233 9.46801 6.00566 9.82603C6.44321 10.1309 6.82056 10.3949 7.13211 10.614C7.16787 10.6391 7.22412 10.6793 7.29877 10.7327C7.3792 10.7905 7.48098 10.8638 7.60655 10.9545C7.84834 11.1294 8.04922 11.2707 8.2092 11.3787C8.36897 11.4867 8.56255 11.6074 8.78964 11.7414C9.01655 11.8752 9.23056 11.9758 9.43144 12.0427C9.63235 12.1096 9.81833 12.1432 9.98943 12.1432H10.0005H10.0117C10.1827 12.1432 10.3687 12.1096 10.5697 12.0427C10.7705 11.9758 10.9844 11.8754 11.2114 11.7414C11.4383 11.6074 11.6316 11.4865 11.7919 11.3787C11.9519 11.2707 12.1528 11.1294 12.3946 10.9545C12.5199 10.8638 12.6217 10.7905 12.7021 10.7329C12.7768 10.6793 12.833 10.6393 12.869 10.614C13.1117 10.4451 13.4899 10.1822 13.9984 9.82912C14.9237 9.18623 16.2864 8.24 18.0922 6.98665C18.6353 6.60731 19.0891 6.14953 19.4538 5.61398C19.8178 5.07842 20.0003 4.51665 20.0003 3.92885C20.0003 3.43774 19.8233 3.01751 19.4702 2.66751C19.1167 2.31794 18.698 2.14307 18.2144 2.14307Z" fill="#52575F"/>
</g>
<defs>
<clipPath id="clip0">
<rect width="20" height="20" fill="white"/>
</clipPath>
</defs>
</svg>
