<svg width="137" height="140" viewBox="0 0 137 140" fill="none" xmlns="http://www.w3.org/2000/svg">
<path d="M107.908 57.5444C100.736 64.7164 97.6036 74.9137 99.2546 84.9193C101.303 97.3421 98.3842 110.421 90.5024 120.965C90.6856 119.384 91.0208 116.508 91.125 115.41C91.9587 106.672 88.8798 98.1025 82.6826 91.9054C73.2657 82.4884 58.9753 80.8404 47.8513 86.9674C46.2399 80.0264 42.7216 73.6572 37.5553 68.4912C33.0821 64.0207 27.5466 60.6938 21.5466 58.8714C21.1381 58.7475 20.5354 58.5728 19.8789 58.3896C31.0622 47.7162 46.1863 43.581 60.4286 45.9725C70.3779 47.6429 80.5219 44.4286 87.6543 37.2963L96.2375 28.7158L116.488 48.9639L107.908 57.5444Z" fill="#B5DBFD"/>
<path d="M84.9677 39.6875C84.0093 42.3459 82.5661 45.0679 80.6914 47.7156C76.635 53.4428 70.8813 58.3256 64.0497 61.8365C63.1337 62.3079 62.1909 62.758 61.2456 63.1763C60.3744 63.5603 59.4529 63.7536 58.5025 63.7536C57.552 63.7536 56.6278 63.5603 55.7594 63.1763C54.8113 62.758 53.8688 62.3079 52.9552 61.8365C46.267 58.3997 40.6109 53.6495 36.5703 48.0782C44.2383 45.3378 52.4707 44.6334 60.4272 45.9706C69.1868 47.443 78.0968 45.1286 84.9677 39.6875Z" fill="#8DCAFC"/>
<path d="M89.604 35.3428L96.2231 28.7237L116.47 48.9704L109.851 55.5895L89.604 35.3428Z" fill="#8DCAFC"/>
<path d="M107.905 57.5467C100.736 64.7157 97.6038 74.913 99.2518 84.9189C101.3 97.3388 98.3842 110.418 90.5024 120.959C90.6883 119.376 91.0208 116.505 91.125 115.409C91.7137 109.226 90.3476 103.128 87.2969 97.8966C89.8292 90.4711 90.4603 82.5387 89.1926 74.8597C87.5446 64.8541 90.6771 54.6568 97.8461 47.4875L106.429 38.9043L116.489 48.9635L107.905 57.5467Z" fill="#8DCAFC"/>
<path d="M120.868 44.5689L100.633 24.3334L108.894 9.90796C109.874 8.19734 112.212 7.88534 113.606 9.27933L135.923 31.5965C137.317 32.9905 137.005 35.3281 135.294 36.3078L120.868 44.5689Z" fill="#EA806F"/>
<path d="M135.293 36.3078L120.869 44.5681L112.915 36.6146L127.339 28.3543C129.051 27.3749 129.364 25.0353 127.97 23.6414L135.923 31.5948C137.317 32.9888 137.004 35.3284 135.293 36.3078Z" fill="#C4715C"/>
<path d="M39.5471 125.035C36.0991 128.483 32.195 131.193 28.0316 133.17C25.0148 131.345 22.1584 129.148 19.5274 126.587C0.811419 108.364 0.597315 77.6514 19.068 59.1807C20.1301 58.1186 21.2315 57.1159 22.3668 56.175C28.6569 58.085 34.5752 61.5273 39.5474 66.4992C55.7133 82.6654 55.7133 108.871 39.5471 125.035Z" fill="#FC5A95"/>
<path d="M0.0505589 135.965C0.0448167 135.979 0.0393479 135.988 0.0366135 135.988C-0.0169803 135.987 -0.0112381 135.979 0.0505589 135.965Z" fill="black"/>
<path d="M93.9277 115.677C91.843 119.424 89.2066 122.951 86.0235 126.134C67.6851 144.469 38.051 144.621 19.527 126.587C11.2875 118.565 6.63383 108.122 5.58301 97.3672C16.9408 101.514 30.1722 99.0291 39.2905 89.9135C51.823 77.381 72.1416 77.381 84.674 89.9135C91.7222 96.9614 94.8065 106.472 93.9277 115.677Z" fill="#FCA5CD"/>
<path d="M93.9306 115.674V115.677C91.8432 119.424 89.2067 122.95 86.0236 126.133C67.6852 144.469 38.0512 144.621 19.5271 126.587C17.6568 124.767 15.9721 122.821 14.4707 120.776C32.9947 134.401 59.2007 132.835 75.9616 116.074C82.1985 109.838 86.3307 102.294 88.359 94.322C92.7786 100.677 94.635 108.274 93.9306 115.674Z" fill="#FC7CB6"/>
<path d="M116.725 54.4427L90.7589 28.477C89.5908 27.3089 89.5908 25.4148 90.7589 24.2464L94.9261 20.0792C96.0942 18.9111 97.9883 18.9111 99.1567 20.0792L125.122 46.0449C126.29 47.213 126.29 49.1071 125.122 50.2755L120.955 54.4427C119.787 55.6111 117.893 55.6111 116.725 54.4427Z" fill="#EAF6FF"/>
<path d="M125.122 50.2744L120.954 54.4427C119.787 55.6103 117.894 55.6103 116.726 54.4427L109.247 46.9631C110.414 48.1307 112.309 48.1328 113.477 46.9653L117.645 42.797C118.813 41.6294 118.81 39.7345 117.643 38.5669L125.122 46.0465C126.29 47.2141 126.29 49.1068 125.122 50.2744Z" fill="#C5E2FF"/>
<path d="M68.2199 18.675C64.8433 18.675 61.772 20.0655 59.4801 22.3388C58.9408 22.8737 58.0626 22.8737 57.5233 22.3388C55.2311 20.0655 52.1599 18.675 48.7834 18.675C41.6888 18.675 35.9365 24.8129 35.9365 32.3849C35.9365 39.0024 41.9831 50.2445 55.3747 57.1275C56.1887 57.5459 57.0301 57.9484 57.8988 58.332C58.2816 58.5013 58.7221 58.5013 59.1049 58.332C59.9736 57.9481 60.815 57.5459 61.629 57.1275C75.019 50.2445 81.0655 39.0024 81.0655 32.3849C81.0655 24.8129 75.3146 18.675 68.2199 18.675Z" fill="#FB3A82"/>
<path d="M57.3642 22.1838C55.2683 24.2937 52.6654 26.2488 49.5274 27.8629C48.9415 28.1615 48.3388 28.4516 47.7274 28.7193C46.8907 29.0884 46.0064 29.2771 45.0936 29.2771C44.1809 29.2771 43.2936 29.0884 42.4599 28.722C41.8488 28.4516 41.2431 28.1615 40.6598 27.8629C39.5388 27.2854 38.4598 26.6488 37.4316 25.9586C39.5893 21.6263 43.8654 18.677 48.784 18.677C52.0824 18.6767 55.0911 20.0034 57.3642 22.1838Z" fill="#FB1466"/>
<path d="M81.0665 32.3856C81.0665 39.0017 75.0186 50.2468 61.6289 57.1282C60.816 57.5471 59.9738 57.9496 59.1029 58.331C58.7212 58.5011 58.2815 58.5011 57.9 58.331C57.0289 57.9493 56.1911 57.5471 55.374 57.1282C54.2168 56.5351 53.1176 55.9086 52.0723 55.2532C63.1599 48.3426 68.2078 38.4291 68.2078 32.3853C68.2078 27.3123 65.6277 22.8864 61.7908 20.5179C63.6822 19.344 65.8765 18.6763 68.2201 18.6763C75.3134 18.6765 81.0665 24.8114 81.0665 32.3856Z" fill="#FB1466"/>
<path d="M50.8672 0C49.0297 0 47.3445 0.692891 46.0276 1.84707C45.4901 2.3182 44.6944 2.3182 44.1568 1.84707C42.8399 0.692891 41.1547 0 39.3172 0C35.1013 0 31.6831 3.64739 31.6831 8.14708C31.6831 12.0794 35.2763 18.76 43.2342 22.8504C43.7176 23.0989 44.2175 23.3379 44.7335 23.566C44.9607 23.6663 45.2243 23.6663 45.4515 23.566C45.9675 23.3379 46.4673 23.0989 46.9508 22.8504C54.9078 18.76 58.5011 12.0794 58.5011 8.14708C58.5008 3.64739 55.0834 0 50.8672 0V0Z" fill="#FCA5CD"/>
<path d="M58.5013 8.14726C58.5013 12.0787 54.9076 18.7613 46.9508 22.8506C46.4676 23.0994 45.9672 23.3386 45.4496 23.5653C45.2229 23.6665 44.9615 23.6665 44.7348 23.5653C44.2172 23.3386 43.7193 23.0994 43.2337 22.8506C42.546 22.4981 41.8927 22.1259 41.2715 21.7363C47.8602 17.6298 50.8601 11.7386 50.8601 8.14726C50.8601 5.13261 49.327 2.50241 47.0468 1.09503C48.1709 0.397491 49.4746 0.000732422 50.8675 0.000732422C55.0826 0.000732422 58.5013 3.64648 58.5013 8.14726Z" fill="#FC7CB6"/>
</svg>
