<svg width="130" height="140" viewBox="0 0 130 140" fill="none" xmlns="http://www.w3.org/2000/svg">
<path d="M64.8762 111.173C95.5758 111.173 120.463 86.2863 120.463 55.5866C120.463 24.887 95.5758 0 64.8762 0C34.1765 0 9.28955 24.887 9.28955 55.5866C9.28955 86.2863 34.1765 111.173 64.8762 111.173Z" fill="#FFD15C"/>
<path d="M19.8447 88.1062L0.71875 121.26L23.0416 120.075L33.1833 140L50.8762 109.327C38.1991 106.047 27.3132 98.4133 19.8447 88.1062Z" fill="#D1390A"/>
<path d="M110.018 87.9409C102.605 98.2756 91.7189 105.937 79.0693 109.272L96.8174 140L106.959 120.075L129.282 121.26L110.018 87.9409Z" fill="#D1390A"/>
<path d="M64.8763 95.8778C87.1286 95.8778 105.168 77.8388 105.168 55.5865C105.168 33.3342 87.1286 15.2952 64.8763 15.2952C42.624 15.2952 24.585 33.3342 24.585 55.5865C24.585 77.8388 42.624 95.8778 64.8763 95.8778Z" fill="#F8B64C"/>
<path d="M92.4904 51.2321C93.7306 50.0195 93.0416 47.8975 91.3329 47.6494L75.4314 45.3345C74.7424 45.2242 74.1637 44.8108 73.8605 44.177L66.7503 29.7636C65.9786 28.1927 63.7463 28.1927 62.9747 29.7636L55.892 44.177C55.5889 44.7833 54.9826 45.2242 54.3211 45.3345L38.4196 47.6494C36.7109 47.8975 36.0219 50.0195 37.2621 51.2321L48.7542 62.4486C49.2503 62.9447 49.4707 63.6337 49.3605 64.2951L46.6597 80.114C46.3566 81.8226 48.1755 83.1455 49.7188 82.3187L63.9392 74.8502C64.5455 74.5195 65.2896 74.5195 65.8959 74.8502L80.1164 82.3187C81.6597 83.1179 83.4511 81.8226 83.1755 80.114L80.4471 64.2951C80.3369 63.6061 80.5574 62.9171 81.0534 62.4486L92.4904 51.2321Z" fill="white"/>
</svg>
