<svg width="172" height="50" viewBox="0 0 172 50" fill="none" xmlns="http://www.w3.org/2000/svg">
<path fill-rule="evenodd" clip-rule="evenodd" d="M84.4271 1.2045C83.7171 1.41666 82.9726 1.98116 82.2894 2.77752C81.6122 3.56689 81.0323 4.54124 80.6402 5.49813C80.5585 5.69753 80.3768 5.83224 80.1699 5.84693C79.9629 5.86162 79.7655 5.75381 79.6588 5.56778C79.2673 4.88541 78.5906 3.94143 77.7914 3.17589C76.9735 2.39243 76.1257 1.8901 75.3838 1.8901C74.8566 1.8901 74.5092 2.19846 74.2627 2.66264C74.0647 3.03524 74.1093 3.57341 74.5511 4.33792C74.9826 5.08449 75.7136 5.89771 76.5737 6.68376C78.0589 8.04124 79.8179 9.21931 80.7794 9.73988C81.7541 8.33916 82.8648 7.04804 83.8295 5.63941C84.8612 4.13288 85.4988 2.78502 85.3829 1.57304C85.3366 1.08931 84.7683 1.10255 84.4271 1.2045ZM86.4822 1.45807C86.6425 3.13456 85.7653 4.79707 84.7277 6.31216C83.6754 7.84874 82.4442 9.24418 81.4152 10.7986C81.2666 11.0231 80.9879 11.1081 80.7472 11.0024C79.8218 10.5961 77.6316 9.18518 75.8466 7.55371C74.9529 6.73681 74.1235 5.83163 73.6056 4.93556C73.0981 4.05745 72.8044 3.02879 73.2969 2.10157C73.7366 1.27383 74.4565 0.734713 75.3838 0.734713C76.5542 0.734713 77.6664 1.48935 78.5376 2.32391C79.1229 2.88456 79.644 3.5242 80.0565 4.11316C80.4459 3.36365 80.9264 2.63613 81.4671 2.00593C82.2239 1.12377 83.1367 0.388465 84.1236 0.0935668C85.1416 -0.210594 86.364 0.222315 86.4822 1.45807Z" fill="white"/>
<path d="M2.32944 12.2541L8.67498 28.1337L15.0442 12.2541H16.9821V30.2469H15.5286V22.4121L15.6468 14.3796L9.24218 30.2469H8.1196L1.7386 14.4414L1.85677 22.3627V30.2469H0.40332V12.2541H2.32944Z" fill="#91C8E8"/>
<path d="M22.595 30.2469H21.177V16.8758H22.595V30.2469ZM20.9289 13.0079C20.9289 12.7278 21.0155 12.493 21.1888 12.3035C21.3621 12.1058 21.5985 12.0069 21.8978 12.0069C22.1972 12.0069 22.4335 12.1058 22.6068 12.3035C22.788 12.493 22.8786 12.7278 22.8786 13.0079C22.8786 13.288 22.788 13.5228 22.6068 13.7123C22.4335 13.9018 22.1972 13.9965 21.8978 13.9965C21.5985 13.9965 21.3621 13.9018 21.1888 13.7123C21.0155 13.5228 20.9289 13.288 20.9289 13.0079Z" fill="#91C8E8"/>
<path d="M28.0307 30.2469H26.6127V11.2654H28.0307V30.2469Z" fill="#91C8E8"/>
<path d="M33.4663 30.2469H32.0483V16.8758H33.4663V30.2469ZM31.8002 13.0079C31.8002 12.7278 31.8868 12.493 32.0602 12.3035C32.2335 12.1058 32.4698 12.0069 32.7692 12.0069C33.0685 12.0069 33.3048 12.1058 33.4782 12.3035C33.6593 12.493 33.7499 12.7278 33.7499 13.0079C33.7499 13.288 33.6593 13.5228 33.4782 13.7123C33.3048 13.9018 33.0685 13.9965 32.7692 13.9965C32.4698 13.9965 32.2335 13.9018 32.0602 13.7123C31.8868 13.5228 31.8002 13.288 31.8002 13.0079Z" fill="#91C8E8"/>
<path d="M39.5165 13.4528V16.8758H42.1634V18.0869H39.5165V26.9968C39.5165 27.7383 39.6425 28.2903 39.8946 28.6528C40.1546 29.0153 40.5839 29.1965 41.1826 29.1965C41.419 29.1965 41.801 29.1553 42.3288 29.0729L42.3879 30.284C42.0177 30.424 41.5135 30.4941 40.8754 30.4941C39.9064 30.4941 39.2014 30.2016 38.7602 29.6167C38.3191 29.0235 38.0985 28.1543 38.0985 27.0092V18.0869H35.747V16.8758H38.0985V13.4528H39.5165Z" fill="#91C8E8"/>
<path d="M53.1647 30.2469C53.0229 29.8268 52.9323 29.2047 52.8929 28.3809C52.3966 29.0565 51.7625 29.5796 50.9905 29.9503C50.2263 30.3128 49.4149 30.4941 48.5562 30.4941C47.3273 30.4941 46.3307 30.1357 45.5666 29.4189C44.8103 28.7022 44.4322 27.796 44.4322 26.7002C44.4322 25.3986 44.9482 24.3688 45.9802 23.6108C47.0201 22.8529 48.4656 22.4739 50.3169 22.4739H52.8811V20.9539C52.8811 19.9982 52.5975 19.2485 52.0303 18.7048C51.471 18.1528 50.6517 17.8768 49.5725 17.8768C48.5877 17.8768 47.7724 18.1405 47.1264 18.6677C46.4804 19.195 46.1574 19.8293 46.1574 20.5708L44.7394 20.5585C44.7394 19.4957 45.2121 18.5771 46.1574 17.8027C47.1028 17.02 48.2647 16.6287 49.6434 16.6287C51.0692 16.6287 52.1918 17.0035 53.0111 17.7532C53.8383 18.4947 54.2637 19.5328 54.2873 20.8674V27.1946C54.2873 28.488 54.4173 29.456 54.6773 30.0986V30.2469H53.1647ZM48.7217 29.1842C49.667 29.1842 50.5099 28.9452 51.2504 28.4674C51.9988 27.9896 52.5424 27.3511 52.8811 26.552V23.6108H50.3524C48.9422 23.6273 47.8393 23.8992 47.0437 24.4264C46.248 24.9454 45.8502 25.6622 45.8502 26.5767C45.8502 27.3264 46.1141 27.9484 46.6419 28.4427C47.1776 28.937 47.8709 29.1842 48.7217 29.1842Z" fill="#91C8E8"/>
<path d="M63.977 18.1363C63.6776 18.0787 63.3586 18.0498 63.0198 18.0498C62.1375 18.0498 61.3891 18.3093 60.7746 18.8284C60.1681 19.3392 59.7348 20.0847 59.4748 21.0651V30.2469H58.0686V16.8758H59.4512L59.4748 19.0014C60.2232 17.4196 61.4246 16.6287 63.0789 16.6287C63.4728 16.6287 63.784 16.6822 64.0124 16.7893L63.977 18.1363Z" fill="#91C8E8"/>
<path d="M70.4879 28.1214L74.222 16.8758H75.7464L70.2871 32.5207L70.0035 33.2128C69.3023 34.8358 68.2191 35.6472 66.7539 35.6472C66.4151 35.6472 66.0528 35.5896 65.6667 35.4742L65.6549 34.2508L66.3876 34.325C67.0808 34.325 67.6401 34.1437 68.0655 33.7812C68.4988 33.427 68.8651 32.8132 69.1645 31.9399L69.7908 30.1357L64.9696 16.8758H66.5175L70.4879 28.1214Z" fill="#91C8E8"/>
<path d="M99.3542 24.6365C99.1572 26.5314 98.5073 27.9813 97.4044 28.9864C96.3094 29.9915 94.8481 30.4941 93.0205 30.4941C91.7443 30.4941 90.6138 30.1604 89.6291 29.4931C88.6522 28.8258 87.896 27.8825 87.3603 26.6632C86.8246 25.4356 86.5528 24.0351 86.5449 22.4615V20.1259C86.5449 18.5277 86.8128 17.1106 87.3485 15.8749C87.8841 14.6391 88.6522 13.6876 89.6527 13.0202C90.6611 12.3447 91.8191 12.0069 93.1268 12.0069C94.9702 12.0069 96.4237 12.53 97.4872 13.5763C98.5585 14.6144 99.1809 16.052 99.3542 17.8892H97.8889C97.5265 14.8327 95.9392 13.3045 93.1268 13.3045C91.567 13.3045 90.3223 13.9141 89.3927 15.1334C88.471 16.3527 88.0102 18.0375 88.0102 20.1877V22.3874C88.0102 24.4635 88.4592 26.1194 89.3573 27.3552C90.2632 28.591 91.4843 29.2089 93.0205 29.2089C94.5409 29.2089 95.6871 28.8299 96.4591 28.072C97.2311 27.3058 97.7077 26.1606 97.8889 24.6365H99.3542Z" fill="white"/>
<path d="M110.781 28.5539C109.93 29.8473 108.571 30.4941 106.704 30.4941C105.341 30.4941 104.305 30.0821 103.596 29.2583C102.887 28.4262 102.525 27.1987 102.509 25.5757V16.8758H103.915V25.3903C103.915 27.936 104.9 29.2089 106.87 29.2089C108.918 29.2089 110.214 28.3232 110.757 26.552V16.8758H112.175V30.2469H110.805L110.781 28.5539Z" fill="white"/>
<path d="M126.143 23.6973C126.143 25.7817 125.701 27.4376 124.819 28.6651C123.937 29.8844 122.755 30.4941 121.274 30.4941C119.525 30.4941 118.186 29.8515 117.256 28.5663V35.3877H115.85V16.8758H117.162L117.233 18.7666C118.154 17.3413 119.49 16.6287 121.239 16.6287C122.767 16.6287 123.964 17.2342 124.831 18.4453C125.705 19.6563 126.143 21.337 126.143 23.4872V23.6973ZM124.725 23.4378C124.725 21.7324 124.39 20.3854 123.72 19.3968C123.051 18.4082 122.117 17.9139 120.92 17.9139C120.053 17.9139 119.309 18.1322 118.686 18.5689C118.064 19.0055 117.587 19.6399 117.256 20.4719V26.8856C117.595 27.6518 118.08 28.2367 118.71 28.6404C119.34 29.0441 120.085 29.2459 120.943 29.2459C122.133 29.2459 123.058 28.7516 123.72 27.763C124.39 26.7662 124.725 25.3244 124.725 23.4378Z" fill="white"/>
<path d="M130.869 30.2469H129.451V16.8758H130.869V30.2469ZM129.203 13.0079C129.203 12.7278 129.29 12.493 129.463 12.3035C129.636 12.1058 129.873 12.0069 130.172 12.0069C130.471 12.0069 130.708 12.1058 130.881 12.3035C131.062 12.493 131.153 12.7278 131.153 13.0079C131.153 13.288 131.062 13.5228 130.881 13.7123C130.708 13.9018 130.471 13.9965 130.172 13.9965C129.873 13.9965 129.636 13.9018 129.463 13.7123C129.29 13.5228 129.203 13.288 129.203 13.0079Z" fill="white"/>
<path d="M134.154 23.4378C134.154 21.3617 134.595 19.7099 135.478 18.4824C136.368 17.2466 137.573 16.6287 139.094 16.6287C140.819 16.6287 142.134 17.3413 143.04 18.7666V11.2654H144.447V30.2469H143.123L143.064 28.4674C142.158 29.8185 140.827 30.4941 139.07 30.4941C137.597 30.4941 136.407 29.8762 135.501 28.6404C134.603 27.3964 134.154 25.7199 134.154 23.6108V23.4378ZM135.584 23.6973C135.584 25.4027 135.911 26.7497 136.565 27.7383C137.219 28.7187 138.14 29.2089 139.33 29.2089C141.071 29.2089 142.308 28.4056 143.04 26.7991V20.5214C142.308 18.7831 141.079 17.9139 139.354 17.9139C138.164 17.9139 137.238 18.4041 136.577 19.3845C135.915 20.3566 135.584 21.7942 135.584 23.6973Z" fill="white"/>
<path d="M148.039 29.3572C148.039 29.0688 148.125 28.8258 148.299 28.6281C148.48 28.4221 148.728 28.3191 149.043 28.3191C149.358 28.3191 149.607 28.4221 149.788 28.6281C149.969 28.8258 150.059 29.0688 150.059 29.3572C150.059 29.6455 149.969 29.8844 149.788 30.0739C149.607 30.2552 149.358 30.3458 149.043 30.3458C148.728 30.3458 148.48 30.2552 148.299 30.0739C148.125 29.8844 148.039 29.6455 148.039 29.3572Z" fill="white"/>
<path d="M159.867 18.1363C159.568 18.0787 159.249 18.0498 158.91 18.0498C158.028 18.0498 157.279 18.3093 156.665 18.8284C156.058 19.3392 155.625 20.0847 155.365 21.0651V30.2469H153.959V16.8758H155.342L155.365 19.0014C156.114 17.4196 157.315 16.6287 158.969 16.6287C159.363 16.6287 159.674 16.6822 159.903 16.7893L159.867 18.1363Z" fill="white"/>
<path d="M170.337 28.5539C169.486 29.8473 168.127 30.4941 166.26 30.4941C164.897 30.4941 163.861 30.0821 163.152 29.2583C162.443 28.4262 162.081 27.1987 162.065 25.5757V16.8758H163.471V25.3903C163.471 27.936 164.456 29.2089 166.426 29.2089C168.474 29.2089 169.77 28.3232 170.313 26.552V16.8758H171.731V30.2469H170.361L170.337 28.5539Z" fill="white"/>
<path d="M116.142 46.9136C116.081 46.7882 116.036 46.6323 116.009 46.4458C115.686 46.822 115.266 47.01 114.75 47.01C114.261 47.01 113.855 46.8621 113.532 46.5664C113.213 46.2706 113.053 45.8976 113.053 45.4475C113.053 44.8945 113.248 44.4702 113.638 44.1744C114.032 43.8786 114.599 43.7291 115.34 43.7259H115.953V43.4269C115.953 43.1858 115.893 42.9929 115.773 42.8482C115.657 42.7035 115.471 42.6312 115.215 42.6312C114.991 42.6312 114.814 42.6874 114.685 42.8C114.559 42.9125 114.496 43.0668 114.496 43.2629H113.163C113.163 42.9607 113.253 42.681 113.431 42.4238C113.609 42.1666 113.861 41.9657 114.187 41.821C114.513 41.6731 114.879 41.5992 115.285 41.5992C115.899 41.5992 116.387 41.7615 116.746 42.0862C117.109 42.4077 117.291 42.861 117.291 43.4462V45.7079C117.294 46.2031 117.36 46.5776 117.489 46.8316V46.9136H116.142ZM115.04 45.9443C115.237 45.9443 115.418 45.8992 115.584 45.8092C115.75 45.716 115.873 45.5922 115.953 45.4379V44.5409H115.455C114.788 44.5409 114.433 44.782 114.39 45.2643L114.385 45.3463C114.385 45.5199 114.444 45.6629 114.561 45.7755C114.677 45.888 114.837 45.9443 115.04 45.9443Z" fill="#91C8E8"/>
<path d="M120.954 44.266C120.954 43.4655 121.135 42.8209 121.498 42.3322C121.864 41.8435 122.356 41.5992 122.974 41.5992C123.521 41.5992 123.947 41.7953 124.251 42.1875L124.306 41.6956H125.515V46.74C125.515 47.1965 125.415 47.5936 125.215 47.9311C125.018 48.2687 124.74 48.5259 124.38 48.7027C124.02 48.8796 123.599 48.968 123.117 48.968C122.751 48.968 122.394 48.8908 122.047 48.7365C121.699 48.5854 121.437 48.3893 121.258 48.1481L121.848 47.2994C122.181 47.6884 122.583 47.8829 123.057 47.8829C123.41 47.8829 123.685 47.7832 123.882 47.5839C124.079 47.3878 124.177 47.1081 124.177 46.7448V46.4651C123.87 46.8284 123.466 47.01 122.964 47.01C122.365 47.01 121.879 46.7657 121.507 46.277C121.138 45.7851 120.954 45.1341 120.954 44.3239V44.266ZM122.287 44.3673C122.287 44.8399 122.377 45.2112 122.559 45.4813C122.74 45.7481 122.989 45.8816 123.306 45.8816C123.711 45.8816 124.002 45.7224 124.177 45.4041V43.2099C123.999 42.8916 123.711 42.7324 123.315 42.7324C122.995 42.7324 122.743 42.8691 122.559 43.1424C122.377 43.4156 122.287 43.8239 122.287 44.3673Z" fill="#91C8E8"/>
<path d="M131.673 47.01C130.941 47.01 130.344 46.7753 129.883 46.3059C129.425 45.8365 129.196 45.2112 129.196 44.43V44.2949C129.196 43.7709 129.293 43.3031 129.487 42.8916C129.68 42.4769 129.954 42.1586 130.308 41.9367C130.664 41.7117 131.07 41.5992 131.525 41.5992C132.207 41.5992 132.744 41.8242 133.134 42.2743C133.528 42.7244 133.725 43.3626 133.725 44.1889V44.7579H130.547C130.59 45.0987 130.72 45.372 130.935 45.5777C131.153 45.7835 131.428 45.8864 131.76 45.8864C132.274 45.8864 132.675 45.6919 132.964 45.3029L133.619 46.0696C133.419 46.3654 133.148 46.5969 132.807 46.7641C132.466 46.928 132.088 47.01 131.673 47.01ZM131.52 42.7276C131.256 42.7276 131.041 42.8209 130.875 43.0073C130.712 43.1938 130.607 43.4606 130.561 43.8079H132.415V43.697C132.409 43.3883 132.329 43.1504 132.175 42.9832C132.021 42.8128 131.803 42.7276 131.52 42.7276Z" fill="#91C8E8"/>
<path d="M138.545 41.6956L138.587 42.2984C138.943 41.8322 139.422 41.5992 140.021 41.5992C140.55 41.5992 140.943 41.7615 141.202 42.0862C141.46 42.4109 141.592 42.8964 141.598 43.5426V46.9136H140.265V43.5764C140.265 43.2806 140.204 43.0668 140.081 42.935C139.958 42.8 139.754 42.7324 139.468 42.7324C139.093 42.7324 138.811 42.8996 138.624 43.234V46.9136H137.291V41.6956H138.545Z" fill="#91C8E8"/>
<path d="M147.521 45.8864C147.767 45.8864 147.967 45.8157 148.12 45.6742C148.274 45.5327 148.354 45.3447 148.36 45.11H149.61C149.607 45.4636 149.515 45.7883 149.333 46.0841C149.152 46.3767 148.903 46.6049 148.586 46.7689C148.273 46.9297 147.925 47.01 147.544 47.01C146.831 47.01 146.268 46.7737 145.856 46.3011C145.444 45.8253 145.238 45.1694 145.238 44.3335V44.2419C145.238 43.4381 145.443 42.7967 145.852 42.3177C146.261 41.8387 146.822 41.5992 147.535 41.5992C148.159 41.5992 148.658 41.7856 149.033 42.1586C149.412 42.5283 149.604 43.0218 149.61 43.6391H148.36C148.354 43.369 148.274 43.1504 148.12 42.9832C147.967 42.8128 147.764 42.7276 147.512 42.7276C147.201 42.7276 146.966 42.8466 146.806 43.0845C146.649 43.3192 146.571 43.7018 146.571 44.2323V44.3769C146.571 44.9138 146.649 45.2996 146.806 45.5343C146.963 45.769 147.201 45.8864 147.521 45.8864Z" fill="#91C8E8"/>
<path d="M155.067 44.9412L155.989 41.6956H157.419L155.413 47.7238L155.302 47.9986C155.004 48.6802 154.512 49.021 153.827 49.021C153.633 49.021 153.436 48.9905 153.236 48.9294V47.8733L153.439 47.8781C153.691 47.8781 153.879 47.8379 154.002 47.7575C154.128 47.6771 154.226 47.5437 154.297 47.3573L154.454 46.928L152.706 41.6956H154.14L155.067 44.9412Z" fill="#91C8E8"/>
<path d="M15.9279 41.6956L15.9694 42.2791C16.3229 41.8258 16.801 41.5992 17.4035 41.5992C18.0461 41.5992 18.4872 41.8644 18.727 42.3949C19.0775 41.8644 19.577 41.5992 20.2257 41.5992C20.7668 41.5992 21.1695 41.7647 21.4339 42.0959C21.6983 42.4238 21.8305 42.9189 21.8305 43.5812V46.9136H20.4932V43.586C20.4932 43.2903 20.4378 43.0748 20.3272 42.9398C20.2165 42.8016 20.0213 42.7324 19.7415 42.7324C19.3419 42.7324 19.0652 42.9318 18.9115 43.3304L18.9161 46.9136H17.5834V43.5909C17.5834 43.2886 17.5265 43.07 17.4128 42.935C17.299 42.8 17.1053 42.7324 16.8317 42.7324C16.4536 42.7324 16.18 42.8964 16.0109 43.2243V46.9136H14.6782V41.6956H15.9279Z" fill="white"/>
<path d="M28.5834 46.9136C28.5219 46.7882 28.4773 46.6323 28.4497 46.4458C28.1269 46.822 27.7072 47.01 27.1907 47.01C26.7019 47.01 26.2961 46.8621 25.9733 46.5664C25.6536 46.2706 25.4938 45.8976 25.4938 45.4475C25.4938 44.8945 25.689 44.4702 26.0794 44.1744C26.4729 43.8786 27.0401 43.7291 27.781 43.7259H28.3943V43.4269C28.3943 43.1858 28.3344 42.9929 28.2145 42.8482C28.0976 42.7035 27.9117 42.6312 27.6565 42.6312C27.4321 42.6312 27.2553 42.6874 27.1262 42.8C27.0001 42.9125 26.9371 43.0668 26.9371 43.2629H25.6044C25.6044 42.9607 25.6936 42.681 25.8719 42.4238C26.0502 42.1666 26.3023 41.9657 26.6282 41.821C26.954 41.6731 27.3199 41.5992 27.7257 41.5992C28.3405 41.5992 28.8278 41.7615 29.1875 42.0862C29.5502 42.4077 29.7316 42.861 29.7316 43.4462V45.7079C29.7347 46.2031 29.8008 46.5776 29.9299 46.8316V46.9136H28.5834ZM27.4813 45.9443C27.678 45.9443 27.8594 45.8992 28.0254 45.8092C28.1914 45.716 28.3144 45.5922 28.3943 45.4379V44.5409H27.8963C27.2292 44.5409 26.8741 44.782 26.8311 45.2643L26.8264 45.3463C26.8264 45.5199 26.8849 45.6629 27.0017 45.7755C27.1185 45.888 27.2784 45.9443 27.4813 45.9443Z" fill="white"/>
<path d="M35.1841 40.4128V41.6956H36.0372V42.718H35.1841V45.3221C35.1841 45.515 35.2195 45.6533 35.2902 45.7369C35.3609 45.8205 35.4961 45.8623 35.696 45.8623C35.8435 45.8623 35.9742 45.851 36.0879 45.8285V46.8846C35.8266 46.9682 35.5576 47.01 35.2809 47.01C34.3464 47.01 33.8699 46.5165 33.8514 45.5295V42.718H33.1228V41.6956H33.8514V40.4128H35.1841Z" fill="white"/>
<path d="M41.688 45.8864C41.9339 45.8864 42.1338 45.8157 42.2875 45.6742C42.4412 45.5327 42.5211 45.3447 42.5273 45.11H43.777C43.7739 45.4636 43.6817 45.7883 43.5003 46.0841C43.3189 46.3767 43.0699 46.6049 42.7532 46.7689C42.4397 46.9297 42.0923 47.01 41.7111 47.01C40.9978 47.01 40.4352 46.7737 40.0233 46.3011C39.6113 45.8253 39.4054 45.1694 39.4054 44.3335V44.2419C39.4054 43.4381 39.6098 42.7967 40.0187 42.3177C40.4276 41.8387 40.9886 41.5992 41.7018 41.5992C42.3259 41.5992 42.8255 41.7856 43.2005 42.1586C43.5787 42.5283 43.7708 43.0218 43.777 43.6391H42.5273C42.5211 43.369 42.4412 43.1504 42.2875 42.9832C42.1338 42.8128 41.9309 42.7276 41.6788 42.7276C41.3683 42.7276 41.1331 42.8466 40.9732 43.0845C40.8165 43.3192 40.7381 43.7018 40.7381 44.2323V44.3769C40.7381 44.9138 40.8165 45.2996 40.9732 45.5343C41.13 45.769 41.3683 45.8864 41.688 45.8864Z" fill="white"/>
<path d="M48.6715 42.2647C49.025 41.821 49.4692 41.5992 50.0042 41.5992C51.0863 41.5992 51.6351 42.2566 51.6504 43.5716V46.9136H50.3177V43.6101C50.3177 43.3111 50.2563 43.0909 50.1333 42.9495C50.0103 42.8048 49.8059 42.7324 49.52 42.7324C49.1295 42.7324 48.8467 42.89 48.6715 43.2051V46.9136H47.3388V39.5062H48.6715V42.2647Z" fill="white"/>
<path d="M56.7386 41.6956L56.7801 42.2791C57.1337 41.8258 57.6117 41.5992 58.2143 41.5992C58.8568 41.5992 59.2979 41.8644 59.5377 42.3949C59.8882 41.8644 60.3878 41.5992 61.0364 41.5992C61.5775 41.5992 61.9802 41.7647 62.2446 42.0959C62.509 42.4238 62.6412 42.9189 62.6412 43.5812V46.9136H61.3039V43.586C61.3039 43.2903 61.2486 43.0748 61.1379 42.9398C61.0272 42.8016 60.832 42.7324 60.5522 42.7324C60.1526 42.7324 59.8759 42.9318 59.7222 43.3304L59.7268 46.9136H58.3941V43.5909C58.3941 43.2886 58.3372 43.07 58.2235 42.935C58.1097 42.8 57.9161 42.7324 57.6425 42.7324C57.2643 42.7324 56.9907 42.8964 56.8216 43.2243V46.9136H55.4889V41.6956H56.7386Z" fill="white"/>
<path d="M69.3941 46.9136C69.3326 46.7882 69.288 46.6323 69.2604 46.4458C68.9376 46.822 68.5179 47.01 68.0015 47.01C67.5127 47.01 67.1069 46.8621 66.7841 46.5664C66.4643 46.2706 66.3045 45.8976 66.3045 45.4475C66.3045 44.8945 66.4997 44.4702 66.8901 44.1744C67.2836 43.8786 67.8508 43.7291 68.5917 43.7259H69.205V43.4269C69.205 43.1858 69.1451 42.9929 69.0252 42.8482C68.9084 42.7035 68.7224 42.6312 68.4672 42.6312C68.2428 42.6312 68.066 42.6874 67.9369 42.8C67.8109 42.9125 67.7478 43.0668 67.7478 43.2629H66.4152C66.4152 42.9607 66.5043 42.681 66.6826 42.4238C66.8609 42.1666 67.113 41.9657 67.4389 41.821C67.7647 41.6731 68.1306 41.5992 68.5364 41.5992C69.1512 41.5992 69.6385 41.7615 69.9982 42.0862C70.361 42.4077 70.5423 42.861 70.5423 43.4462V45.7079C70.5454 46.2031 70.6115 46.5776 70.7406 46.8316V46.9136H69.3941ZM68.292 45.9443C68.4887 45.9443 68.6701 45.8992 68.8361 45.8092C69.0021 45.716 69.1251 45.5922 69.205 45.4379V44.5409H68.707C68.0399 44.5409 67.6848 44.782 67.6418 45.2643L67.6372 45.3463C67.6372 45.5199 67.6956 45.6629 67.8124 45.7755C67.9292 45.888 68.0891 45.9443 68.292 45.9443Z" fill="white"/>
<path d="M76.2116 44.8206L75.732 45.3221V46.9136H74.3993V39.5062H75.732V43.6101L75.9902 43.2629L77.2676 41.6956H78.8677L77.0647 43.8706L79.0245 46.9136H77.4935L76.2116 44.8206Z" fill="white"/>
<path d="M83.6838 46.9136H82.3465V41.6956H83.6838V46.9136ZM82.2682 40.3453C82.2682 40.1363 82.3343 39.9643 82.4664 39.8293C82.6017 39.6943 82.7846 39.6267 83.0152 39.6267C83.2427 39.6267 83.4241 39.6943 83.5593 39.8293C83.6946 39.9643 83.7622 40.1363 83.7622 40.3453C83.7622 40.5575 83.6931 40.7311 83.5547 40.8661C83.4195 41.0012 83.2396 41.0687 83.0152 41.0687C82.7908 41.0687 82.6094 41.0012 82.4711 40.8661C82.3358 40.7311 82.2682 40.5575 82.2682 40.3453Z" fill="white"/>
<path d="M88.8458 41.6956L88.8873 42.2984C89.2439 41.8322 89.722 41.5992 90.3215 41.5992C90.8502 41.5992 91.2438 41.7615 91.502 42.0862C91.7602 42.4109 91.8924 42.8964 91.8986 43.5426V46.9136H90.5659V43.5764C90.5659 43.2806 90.5044 43.0668 90.3814 42.935C90.2585 42.8 90.054 42.7324 89.7681 42.7324C89.393 42.7324 89.1118 42.8996 88.9242 43.234V46.9136H87.5915V41.6956H88.8458Z" fill="white"/>
<path d="M95.5526 44.266C95.5526 43.4655 95.734 42.8209 96.0968 42.3322C96.4626 41.8435 96.9545 41.5992 97.5724 41.5992C98.1196 41.5992 98.5454 41.7953 98.8498 42.1875L98.9051 41.6956H100.113V46.74C100.113 47.1965 100.013 47.5936 99.8135 47.9311C99.6168 48.2687 99.3386 48.5259 98.9789 48.7027C98.6192 48.8796 98.198 48.968 97.7154 48.968C97.3495 48.968 96.9929 48.8908 96.6455 48.7365C96.2981 48.5854 96.0353 48.3893 95.857 48.1481L96.4472 47.2994C96.7792 47.6884 97.182 47.8829 97.6554 47.8829C98.0089 47.8829 98.2841 47.7832 98.4808 47.5839C98.6776 47.3878 98.776 47.1081 98.776 46.7448V46.4651C98.4686 46.8284 98.0643 47.01 97.5632 47.01C96.9637 47.01 96.478 46.7657 96.106 46.277C95.7371 45.7851 95.5526 45.1341 95.5526 44.3239V44.266ZM96.8853 44.3673C96.8853 44.8399 96.976 45.2112 97.1574 45.4813C97.3388 45.7481 97.5878 45.8816 97.9044 45.8816C98.3102 45.8816 98.6007 45.7224 98.776 45.4041V43.2099C98.5977 42.8916 98.3102 42.7324 97.9136 42.7324C97.5939 42.7324 97.3418 42.8691 97.1574 43.1424C96.976 43.4156 96.8853 43.8239 96.8853 44.3673Z" fill="white"/>
</svg>
