<svg width="24" height="24" viewBox="0 0 24 24" fill="none" xmlns="http://www.w3.org/2000/svg">
<g clip-path="url(#clip0)">
<path d="M18.7769 16.9977L21.3142 9.07735L23.7941 6.59738C24.0687 6.32278 24.0687 5.87761 23.7941 5.60301L18.3973 0.20619C18.1227 -0.0684044 17.6775 -0.0684044 17.4029 0.20619L14.9229 2.68612L7.00253 5.22337C6.79759 5.28904 6.634 5.44495 6.55853 5.64651L0.0447638 23.0506C-0.124783 23.504 0.207327 24.0002 0.703406 24.0002C0.703593 24.0002 0.703734 24.0002 0.703921 24.0002H21.7418C22.1302 24.0002 22.445 23.6854 22.445 23.2971C22.445 22.9088 22.1302 22.594 21.7418 22.594H4.5878L18.3537 17.4418C18.5554 17.3663 18.7113 17.2027 18.7769 16.9977ZM17.9 1.69776L22.3026 6.10022L20.6965 7.7063L16.294 3.30379L17.9 1.69776ZM3.49219 21.5025L9.88408 15.1106C11.0634 15.8366 12.6173 15.6796 13.6247 14.6722C14.8121 13.4848 14.8121 11.5631 13.6247 10.3757C12.4401 9.19121 10.5128 9.19116 9.32828 10.3757C8.30551 11.3986 8.17061 12.955 8.88911 14.1171L2.49783 20.5082L7.75614 6.45863L15.1057 4.10423C15.8391 4.83764 19.4376 8.43615 19.896 8.89458L17.5416 16.2442L3.49219 21.5025ZM10.3225 11.3701C10.9588 10.7339 11.994 10.7338 12.6303 11.3701C13.268 12.0077 13.2681 13.04 12.6303 13.6778C11.9941 14.314 10.9588 14.314 10.3225 13.6778C9.68486 13.0401 9.68472 12.0079 10.3225 11.3701Z" fill="white"/>
</g>
<defs>
<clipPath id="clip0">
<rect width="24" height="24" fill="white"/>
</clipPath>
</defs>
</svg>
