<svg width="20" height="20" viewBox="0 0 20 20" fill="none" xmlns="http://www.w3.org/2000/svg">
<g clip-path="url(#clip0)">
<path d="M18.5391 16.2266L14.753 12.4405C14.233 11.9206 13.383 11.9245 12.8582 12.4494L12.4929 12.8146C12.1193 13.1883 11.5171 13.1986 11.1505 12.8376C11.1487 12.8357 11.1468 12.8339 11.1449 12.8321C11.1103 12.7986 9.85957 11.5879 7.16258 8.84965C6.80156 8.48305 6.81176 7.88082 7.18543 7.50715L7.55066 7.14191C8.07555 6.61711 8.07953 5.76707 7.55953 5.24711L3.77344 1.46102C3.24207 0.929649 2.39551 0.953008 1.87863 1.46988L1.01262 2.3359C0.030624 3.31793 -0.267735 4.77316 0.252421 6.04328C1.31465 8.63695 2.29297 11.506 5.39351 14.6066C8.49043 17.7034 11.3366 18.6746 13.9569 19.7477C15.2269 20.2679 16.6822 19.9696 17.6642 18.9875L18.5302 18.1214C19.0563 17.5954 19.0604 16.7479 18.5391 16.2266Z" fill="#52575F"/>
<path d="M18.1499 1.85045C15.6826 -0.616816 11.6682 -0.616816 9.20092 1.85045C8.97209 2.07924 8.97209 2.45021 9.20092 2.679C9.42971 2.90779 9.80068 2.90779 10.0295 2.679C12.0398 0.668652 15.3109 0.668652 17.3213 2.679C19.3316 4.68935 19.3316 7.96049 17.3213 9.97084C17.0925 10.1996 17.0925 10.5706 17.3213 10.7994C17.5501 11.0282 17.9211 11.0282 18.1499 10.7994C20.6172 8.33217 20.6172 4.31771 18.1499 1.85045Z" fill="#52575F"/>
<path d="M15.8209 4.17899C14.6377 2.99567 12.7123 2.99567 11.529 4.17899C11.3002 4.40778 11.3002 4.77876 11.529 5.00755C11.7578 5.23634 12.1288 5.23634 12.3576 5.00755C13.084 4.28122 14.2659 4.28122 14.9923 5.00755C15.7187 5.73396 15.7187 6.91591 14.9923 7.64228C14.7635 7.87106 14.7635 8.24204 14.9923 8.47083C15.2211 8.69962 15.592 8.69966 15.8209 8.47087C17.0042 7.28759 17.0042 5.36228 15.8209 4.17899Z" fill="#52575F"/>
</g>
<defs>
<clipPath id="clip0">
<rect width="20" height="20" fill="white"/>
</clipPath>
</defs>
</svg>
