<svg width="140" height="140" viewBox="0 0 140 140" fill="none" xmlns="http://www.w3.org/2000/svg">
<path d="M113.75 140H26.25C11.7513 140 0 128.249 0 113.75V26.25C0 11.7513 11.7513 0 26.25 0H113.75C128.249 0 140 11.7513 140 26.25V113.75C140 128.249 128.249 140 113.75 140Z" fill="#FFE6E2"/>
<path d="M70.0001 90.1906C69.5626 90.1906 69.1207 90.0594 68.7488 89.7969C67.4888 88.9175 37.8569 68.04 37.8569 51.2575C37.8569 41.9912 45.8501 34.4531 55.6763 34.4531C61.4076 34.4531 66.6969 37.0344 70.0044 41.2519C73.3119 37.0344 78.6013 34.4531 84.3326 34.4531C94.1588 34.4531 102.152 41.9912 102.152 51.2575C102.152 68.04 72.5201 88.9131 71.2601 89.7969C70.8794 90.0594 70.4376 90.1906 70.0001 90.1906Z" fill="#FC573B"/>
<path d="M58.3055 87.3381L53.493 100.17C53.1736 101.045 52.3555 101.601 51.4499 101.601H51.3317C50.3692 101.544 49.5511 100.87 49.3192 99.9381L47.1317 91.1881L38.1499 95.6813C37.3624 96.0619 36.3999 95.9438 35.7305 95.3313C35.0611 94.7494 34.8249 93.8131 35.118 92.9688L42.7305 72.0256C47.5999 78.0369 53.5192 83.4313 58.3055 87.3381Z" fill="#FD907E"/>
<path d="M104.269 95.3313C103.6 95.9438 102.637 96.0619 101.85 95.6813L92.8681 91.1881L90.6806 99.9381C90.4487 100.87 89.6306 101.544 88.6681 101.601H88.55C87.6443 101.601 86.8306 101.045 86.5068 100.17L81.6943 87.3381C86.4762 83.4313 92.4 78.0325 97.2693 72.0256L104.882 92.9688C105.175 93.8131 104.943 94.7494 104.269 95.3313Z" fill="#FD907E"/>
</svg>
