<svg width="17" height="29" viewBox="0 0 17 29" fill="none" xmlns="http://www.w3.org/2000/svg">
<path d="M8.05 28.5C7.75 28.7334 7.21667 28.4667 6.45 27.7C6.25 27.5334 6.15 27.3334 6.15 27.1C6.15 26.9334 6.28333 26.2334 6.55 25C6.61667 24.5334 6.68333 24.2 6.75 24C6.91667 23.2 7.11667 22.35 7.35 21.45C7.61667 20.5167 7.78333 19.9167 7.85 19.65C8.11667 19.5167 8.71667 17.8834 9.65 14.75C10.15 12.95 10.7167 11.1 11.35 9.20004C11.65 8.26671 11.8833 7.45004 12.05 6.75004C12.2167 6.05004 12.3333 5.60004 12.4 5.40004C12.1 5.56671 11.45 5.95004 10.45 6.55004C9.48333 7.11671 8.56667 7.73337 7.7 8.40004C7.63333 8.43337 7 8.88337 5.8 9.75004C5.53333 9.91671 5.16667 10.1667 4.7 10.5C4.26667 10.8334 3.9 11.0834 3.6 11.25C3.1 11.65 2.68333 11.9667 2.35 12.2C2.05 12.4 1.83333 12.5 1.7 12.5C1.63333 12.5 1.46667 12.4334 1.2 12.3C0.566667 11.7334 0.25 11.1834 0.25 10.65C0.25 10.45 0.3 10.25 0.4 10.05C0.533333 10.0167 1.13333 9.61671 2.2 8.85004C3.4 7.98337 4.08333 7.51671 4.25 7.45004C4.31667 7.45004 4.5 7.33337 4.8 7.10004C5.1 6.83337 5.38333 6.61671 5.65 6.45004C5.75 6.31671 6.53333 5.73337 8 4.70004L10.65 2.75004C13.45 1.01671 14.9833 0.183374 15.25 0.250042C15.4167 0.283375 15.6833 0.450041 16.05 0.750041C16.45 1.01671 16.6667 1.28337 16.7 1.55004C16.7667 1.68337 16.8 1.80004 16.8 1.90004C16.8 2.13337 16.6667 2.55004 16.4 3.15004C16.1 3.78337 15.55 5.25004 14.75 7.55004C13.9833 9.85004 13.4 11.6667 13 13C12.7667 13.8667 12.4167 14.9334 11.95 16.2C11.85 16.5 11.7 16.9334 11.5 17.5C11.3333 18.0334 11.1833 18.5834 11.05 19.15C10.75 19.8834 10.4167 20.9 10.05 22.2C9.68333 23.5 9.4 24.6 9.2 25.5L8.7 27C8.4 27.9 8.18333 28.4 8.05 28.5Z" fill="#938361"/>
</svg>
