<svg width="20" height="26" viewBox="0 0 20 26" fill="none" xmlns="http://www.w3.org/2000/svg">
<path d="M1.95005 25.85C1.71672 25.75 1.38338 25.5166 0.950049 25.15C0.516715 24.7833 0.233382 24.45 0.100049 24.15C0.0667155 24.1166 0.0500488 24.0166 0.0500488 23.85C0.0500488 23.6166 0.100049 23.35 0.200049 23.05C0.300049 22.75 0.400049 22.6 0.500049 22.6C0.600049 22.7 0.866715 22.45 1.30005 21.85C1.76672 21.2166 2.01672 20.8166 2.05005 20.65C2.08338 20.5166 2.18338 20.4 2.35005 20.3C2.55005 20.1666 2.68338 20.0833 2.75005 20.05C2.91672 19.7833 3.15005 19.5 3.45005 19.2C3.78338 18.8666 4.00005 18.6333 4.10005 18.5C4.23338 18.3333 4.48338 18.0666 4.85005 17.7C5.21672 17.3 5.55005 16.95 5.85005 16.65C6.65005 15.9166 7.23338 15.35 7.60005 14.95C9.33338 13.0833 10.2334 12 10.3 11.7C10.3334 11.6666 10.4 11.6 10.5 11.5C10.6 11.4 10.7334 11.3 10.9001 11.2C11.4 10.8666 11.8667 10.4833 12.3 10.05C12.3334 9.81662 12.5167 9.44995 12.85 8.94995C13.1834 8.44995 13.5167 8.03329 13.85 7.69995C14.1167 7.33329 14.35 6.93328 14.55 6.49995C14.7834 6.03328 14.95 5.63328 15.05 5.29995L15.15 4.84995C15.15 4.71662 15.0667 4.61662 14.9 4.54995C14.7334 4.44995 14.5334 4.36662 14.3 4.29995C14.1 4.23328 13.9334 4.18328 13.8 4.14995C13.0334 3.91662 12.3667 3.79995 11.8 3.79995C10.5667 3.79995 9.30005 4.24995 8.00005 5.14995C7.53338 5.24995 7.16672 5.36662 6.90005 5.49995C6.30005 5.69995 5.91672 5.78328 5.75005 5.74995C5.65005 5.71662 5.50005 5.56662 5.30005 5.29995C5.10005 5.03328 4.91672 4.81662 4.75005 4.64995L4.25005 3.59995L5.80005 2.74995C7.86672 1.38328 9.66672 0.699951 11.2 0.699951C11.7334 0.699951 12.2 0.766618 12.6 0.899952C12.9 0.899952 13.2 0.933284 13.5 0.99995C13.8 1.06662 13.9834 1.11662 14.05 1.14995C14.45 1.11662 14.9667 1.43328 15.6 2.09995C16.2667 2.76662 16.7667 3.44995 17.1 4.14995C17.5001 4.74995 17.7001 5.36662 17.7001 5.99995C17.7001 6.99995 17.1667 8.28328 16.1 9.84995C15.3667 10.7166 14.25 11.9666 12.75 13.6C11.25 15.2333 10.3334 16.1833 10 16.45C9.60005 16.65 8.63338 17.6166 7.10005 19.35C5.56672 21.0833 4.86672 21.95 5.00005 21.95V22.05C5.00005 21.85 6.03338 21.6 8.10005 21.3C10.2 20.9666 11.8167 20.8 12.95 20.8C13.3167 20.8 13.5667 20.8333 13.7 20.9C13.7667 21.0333 13.8167 21.1 13.85 21.1C13.9167 21.0666 13.95 21.0333 13.95 21C13.9834 20.8666 14.2167 20.8 14.65 20.8C15.4167 20.8 16.3167 20.95 17.35 21.25C17.45 21.2833 17.6167 21.3333 17.85 21.4C18.1167 21.4666 18.3001 21.5333 18.4001 21.6C18.5001 21.6666 18.5501 21.7333 18.5501 21.8C18.5834 21.8333 18.6334 21.9333 18.7 22.1C18.8 22.2333 18.9334 22.4 19.1 22.6C19.4001 22.8333 19.5501 23.0333 19.5501 23.2C19.5501 23.4333 19.2667 23.55 18.7 23.55C18.3 23.55 17.6334 23.4666 16.7001 23.3C15.8334 23.3 15.1167 23.35 14.55 23.45C14.45 23.5166 14.1334 23.5666 13.6 23.6C13.1 23.6 12.7167 23.6 12.45 23.6C12.2834 23.5666 12.05 23.55 11.75 23.55C10.9834 23.55 9.90005 23.7833 8.50005 24.25C7.76672 24.55 6.56672 24.9166 4.90005 25.35C3.23338 25.7833 2.25005 25.95 1.95005 25.85Z" fill="#938361"/>
</svg>
