<svg width="19" height="27" viewBox="0 0 19 27" fill="none" xmlns="http://www.w3.org/2000/svg">
<path d="M5.1501 26.2C3.81676 26.2 2.63343 26 1.6001 25.6C0.600098 25.1667 0.133431 24.6667 0.200098 24.1C0.233431 23.7333 0.283431 23.5 0.350097 23.4C0.450097 23.2667 0.633431 23.2 0.900098 23.2L1.9501 23.3C2.68343 23.4333 3.28343 23.5 3.7501 23.5C5.2501 23.5 6.78343 23.2167 8.3501 22.65C9.91676 22.0833 11.1001 21.4 11.9001 20.6C12.7001 19.8333 13.1001 19.0333 13.1001 18.2C13.1001 17.2667 12.5834 16.45 11.5501 15.75C10.9168 15.3167 9.9501 14.9167 8.6501 14.55C7.3501 14.1833 6.3501 14.0333 5.6501 14.1C5.5501 14.1333 5.41676 14.15 5.2501 14.15C4.91676 14.15 4.5001 14 4.0001 13.7C3.7001 13.3667 3.4001 12.9 3.1001 12.3C3.06676 12.1333 3.1501 11.9667 3.3501 11.8C3.58343 11.6333 4.11676 11.3167 4.9501 10.85C5.78343 10.35 6.86676 9.74998 8.2001 9.04998C10.2334 7.91665 11.6834 7.08332 12.5501 6.54999C13.4501 5.98332 14.1501 5.49998 14.6501 5.09999C14.9168 4.76665 15.1334 4.46665 15.3001 4.19999C15.4668 3.93332 15.5501 3.73332 15.5501 3.59999C15.5501 3.46665 15.4501 3.34998 15.2501 3.24999C15.0501 3.14999 14.7168 3.04999 14.2501 2.94998C13.2834 2.84998 12.4001 2.79998 11.6001 2.79998C11.0001 2.79998 10.7001 2.84998 10.7001 2.94998H10.5001C10.2668 2.84998 9.61677 2.91665 8.5501 3.14998C7.51676 3.38332 6.98343 3.56665 6.9501 3.69999C6.91677 3.79998 6.56676 3.96665 5.9001 4.19999C5.23343 4.43332 4.81676 4.54998 4.6501 4.54998C4.38343 4.48332 4.08343 4.16665 3.7501 3.59999C3.4501 3.03332 3.3501 2.63332 3.4501 2.39999C3.5501 2.09998 4.58343 1.48332 6.5501 0.549984C7.18343 0.383318 8.23343 0.266651 9.7001 0.199986C11.2001 0.0999849 12.3001 0.0833185 13.0001 0.149986C16.0001 0.483319 17.7001 1.73332 18.1001 3.89999C18.2001 4.23332 18.2501 4.53332 18.2501 4.79998C18.2501 5.16665 18.1168 5.51665 17.8501 5.84999C17.6168 6.14999 17.1168 6.64999 16.3501 7.34999L15.1501 8.14999C14.0501 8.84999 12.9668 9.49999 11.9001 10.1C11.8334 10.1667 11.4168 10.45 10.6501 10.95C9.78343 11.4833 9.3501 11.8 9.3501 11.9C9.41677 11.9667 9.56677 12.0833 9.8001 12.25C10.0668 12.3833 10.3334 12.5667 10.6001 12.8C11.4668 13.1 12.3001 13.6 13.1001 14.3C13.9001 14.9667 14.5168 15.6 14.9501 16.2C15.3501 17.1 15.5501 17.9667 15.5501 18.8C15.5501 19.8667 15.2334 20.8667 14.6001 21.8C14.0001 22.7 13.0834 23.5167 11.8501 24.25C10.9501 24.75 9.88343 25.1833 8.6501 25.55C7.41677 25.9167 6.2501 26.1333 5.1501 26.2Z" fill="#938361"/>
</svg>
