<svg width="18" height="29" viewBox="0 0 18 29" fill="none" xmlns="http://www.w3.org/2000/svg">
<path d="M6.84998 27.65C6.61664 27.3833 6.49998 27.05 6.49998 26.65C6.49998 26.2833 6.64998 25.45 6.94998 24.15C7.14998 22.9833 7.41664 21.7667 7.74998 20.5L8.09998 18.9C8.33331 18.3667 8.51664 17.85 8.64998 17.35C8.81664 16.8167 8.91664 16.4833 8.94998 16.35C8.81664 16.35 8.53331 16.3833 8.09998 16.45C7.69998 16.5167 7.24998 16.65 6.74998 16.85C5.54998 17.15 4.56664 17.3 3.79998 17.3C3.06664 17.3 2.44998 17.1667 1.94998 16.9C1.48331 16.6333 1.06664 16.2 0.699975 15.6C0.533309 15.4333 0.383309 15.15 0.249975 14.75C0.149975 14.35 0.0999756 13.95 0.0999756 13.55C0.0999756 13.0833 0.183309 12.7833 0.349975 12.65C0.516642 12.2833 0.666642 11.95 0.799976 11.65C0.966642 11.35 1.09998 11.0833 1.19998 10.85C1.56664 10.1167 1.74998 9.70001 1.74998 9.60001C1.74998 9.53334 1.78331 9.43334 1.84998 9.30001C1.94998 9.13334 1.99998 9.00001 1.99998 8.90001C2.29998 8.26668 3.21664 6.81668 4.74998 4.55001C6.31664 2.25001 7.34998 0.850009 7.84998 0.35001C8.14998 0.216676 8.43331 0.116676 8.69998 0.0500107C8.99998 -0.0166571 9.19998 9.33558e-06 9.29998 0.10001C9.43331 0.40001 9.56664 0.816676 9.69998 1.35001C9.83331 1.88334 9.84998 2.15001 9.74998 2.15001C9.71664 2.15001 9.66664 2.16668 9.59998 2.20001C9.53331 2.23334 9.49998 2.30001 9.49998 2.40001C9.49998 2.60001 8.96664 3.33334 7.89998 4.60001C5.96664 7.23334 4.44998 9.56668 3.34998 11.6C2.91664 12.8667 2.69998 13.6667 2.69998 14C2.69998 14.1667 2.74998 14.3 2.84998 14.4C3.04998 14.4667 3.29998 14.5 3.59998 14.5C4.39998 14.5 5.48331 14.3 6.84998 13.9C8.44998 13.5667 9.43331 13.3167 9.79998 13.15C10.0666 13.15 10.3 13.1 10.5 13C10.7333 12.9 10.85 12.7833 10.85 12.65C10.85 12.55 10.9666 12.25 11.2 11.75C11.4666 11.2167 11.6333 10.8333 11.7 10.6L12.45 9.10001C13.1166 7.70001 13.5833 6.78334 13.85 6.35001C14.45 5.05001 14.85 4.13334 15.05 3.60001C15.2833 3.03334 15.4666 2.61668 15.6 2.35001C15.7666 2.05001 15.8833 1.90001 15.95 1.90001C16.1166 1.90001 16.3166 1.96668 16.55 2.10001C16.7833 2.23334 16.95 2.41668 17.05 2.65001C17.1833 2.78334 17.2833 2.91668 17.35 3.05001C17.45 3.18334 17.5 3.33334 17.5 3.50001C17.5 3.66668 17.4 3.95001 17.2 4.35001C17.1 4.75001 16.9833 5.11668 16.85 5.45001C16.7166 5.78334 16.5333 6.16668 16.3 6.60001L15.5 8.15001C14.6333 9.85001 13.6333 11.9833 12.5 14.55C11.4 17.0833 10.6666 18.9333 10.3 20.1C9.86664 21.3333 9.51664 22.3833 9.24998 23.25C8.98331 24.1167 8.84998 24.75 8.84998 25.15C8.84998 25.45 8.93331 25.7667 9.09998 26.1C9.13331 26.7 8.98331 27.2167 8.64998 27.65C8.31664 28.0833 7.96664 28.3 7.59998 28.3C7.19998 28.3 6.94998 28.0833 6.84998 27.65Z" fill="#938361"/>
</svg>
