<svg width="19" height="28" viewBox="0 0 19 28" fill="none" xmlns="http://www.w3.org/2000/svg">
<path d="M2.35001 26.8001C2.11668 26.6334 1.90001 26.45 1.70001 26.25C1.53334 26.0167 1.45001 25.8334 1.45001 25.7001C1.38334 25.5667 1.31667 25.4834 1.25001 25.4501C1.18334 25.4167 1.10001 25.4 1.00001 25.4C0.866675 25.4667 0.733341 25.25 0.600008 24.75C0.466675 24.2167 0.433341 23.8334 0.500008 23.6C0.633341 23.3001 0.900008 23.15 1.30001 23.15C1.53334 23.15 1.75001 23.2167 1.95001 23.35C2.15001 23.45 2.26667 23.6 2.30001 23.8C2.36667 24.0667 2.60001 24.2834 3.00001 24.4501C3.43334 24.5834 3.96667 24.65 4.60001 24.65C5.93334 24.65 7.40001 24.2 9.00001 23.3C10.6333 22.4 11.8833 21.3834 12.75 20.25C13.0167 19.6834 13.25 18.95 13.45 18.05C13.6833 17.1167 13.8 16.4 13.8 15.9C13.8 15.6 13.75 15.45 13.65 15.45C13.65 15.3834 13.6167 15.25 13.55 15.05C13.5167 14.85 13.45 14.6167 13.35 14.35C13.1833 13.8834 12.8 13.3834 12.2 12.85C11.6 12.3167 11.0167 11.9334 10.45 11.7C9.51668 11.5667 8.81668 11.5 8.35001 11.5C7.95001 11.5 7.66667 11.5167 7.50001 11.55L6.75001 11.6C6.41668 11.6 6.13334 11.5834 5.90001 11.55C5.66667 11.5167 5.51668 11.5 5.45001 11.5C5.18334 11.4334 4.78334 11.1834 4.25001 10.75C3.71667 10.2834 3.45001 9.93338 3.45001 9.70005C3.55001 9.20005 4.05001 8.23338 4.95001 6.80005C5.85001 5.33338 6.66667 4.23338 7.40001 3.50005C8.36668 2.46672 9.43334 1.68338 10.6 1.15005C11.8 0.583382 13.0333 0.300049 14.3 0.300049C15.5333 0.300049 16.3667 0.366716 16.8 0.500049C17.2667 0.633383 17.7 0.966716 18.1 1.50005C18.3333 1.93338 18.45 2.31672 18.45 2.65005C18.45 2.91672 18.3833 3.13338 18.25 3.30005C18.1167 3.46672 17.9333 3.55005 17.7 3.55005C17.5 3.55005 17.3 3.50005 17.1 3.40005C16.7333 3.16672 16.2 3.05005 15.5 3.05005C14.7333 3.05005 13.7667 3.21672 12.6 3.55005C11.9 3.81672 11.15 4.25005 10.35 4.85005C9.58334 5.41672 9.11668 5.88338 8.95001 6.25005C8.88334 6.31671 8.80001 6.41672 8.70001 6.55005C8.60001 6.65005 8.50001 6.68338 8.40001 6.65005C8.36667 6.68338 8.30001 6.76672 8.20001 6.90005C8.13334 7.00005 8.10001 7.10005 8.10001 7.20005C8.00001 7.30005 7.91668 7.40005 7.85001 7.50005C7.78334 7.60005 7.71667 7.66672 7.65001 7.70005C7.61667 7.70005 7.56667 7.65005 7.50001 7.55005L7.45001 8.05005V8.30005C7.45001 8.50005 7.51668 8.65005 7.65001 8.75005C7.81668 8.85005 8.13334 8.91672 8.60001 8.95005C9.53334 9.08338 10.2 9.21672 10.6 9.35005C11.0333 9.48338 11.6333 9.78338 12.4 10.25C13.5333 10.9167 14.4167 11.8834 15.05 13.15C15.6833 14.3834 16 15.75 16 17.25C16 17.55 15.9667 18.0334 15.9 18.7001C15.8 19.5334 15.6833 20.1334 15.55 20.5C15.45 20.8667 15.1833 21.3834 14.75 22.05C13.5833 23.65 12.0667 24.9667 10.2 26C8.33334 27 6.58334 27.5 4.95001 27.5C3.95001 27.5 3.08334 27.2667 2.35001 26.8001Z" fill="#938361"/>
</svg>
