<svg width="19" height="26" viewBox="0 0 19 26" fill="none" xmlns="http://www.w3.org/2000/svg">
<path d="M7.65002 25.45C6.85002 25.6834 6.11669 25.8 5.45002 25.8C4.41669 25.8 3.51669 25.4167 2.75002 24.65C2.25002 24.2834 1.88336 23.9334 1.65002 23.6C1.45002 23.2334 1.30002 22.7334 1.20002 22.1C1.00002 21.4334 0.900024 20.9334 0.900024 20.6C0.900024 20.2334 1.05002 19.3 1.35002 17.8C1.65002 16.4334 1.90002 15.45 2.10002 14.85C2.30002 14.2167 2.68336 13.5 3.25002 12.7C3.48336 12.0334 3.78336 11.3334 4.15002 10.6C4.51669 9.86669 4.78336 9.40002 4.95002 9.20002C5.08336 9.03336 5.31669 8.70002 5.65002 8.20002C6.01669 7.66669 6.38336 7.21669 6.75002 6.85002L8.10003 5.05002C8.56669 4.75002 8.88336 4.48336 9.05002 4.25002C9.65003 3.55002 10.6167 2.80002 11.95 2.00002C13.2834 1.16669 14.4334 0.700024 15.4 0.600025C15.8 0.466691 16.15 0.400024 16.45 0.400024C16.8167 0.400024 16.9667 0.483358 16.9 0.650024C16.9334 0.683357 17 0.750024 17.1 0.850025C17.2 0.950023 17.3667 1.01669 17.6 1.05002C17.7 1.08336 17.8 1.21669 17.9 1.45002C18.0334 1.65002 18.1334 1.80002 18.2 1.90002C18.2667 2.20002 18.25 2.45002 18.15 2.65002C18.05 2.85002 17.7834 3.15002 17.35 3.55002C16.8834 3.88336 16.55 4.08336 16.35 4.15002C16.1834 4.18336 16.0334 4.11669 15.9 3.95002C15.9334 3.85002 15.8834 3.76669 15.75 3.70002C15.6167 3.63336 15.5167 3.60002 15.45 3.60002C15.1167 3.53336 14.3167 3.90002 13.05 4.70002C11.8167 5.50002 10.85 6.30002 10.15 7.10002C9.41669 7.76669 9.00003 8.23336 8.90003 8.50002C8.53336 8.86669 8.18336 9.25002 7.85002 9.65002C7.55002 10.0167 7.35002 10.2667 7.25002 10.4C7.28336 10.5334 7.41669 10.6 7.65002 10.6C7.85002 10.6 8.05002 10.55 8.25002 10.45C8.45003 10.35 8.56669 10.2667 8.60002 10.2C8.60002 10.0667 8.96669 9.90002 9.70002 9.70002C10.4667 9.46669 11.2334 9.31669 12 9.25002C12.2 9.18336 12.4 9.15002 12.6 9.15002C12.8667 9.15002 13.5 9.25002 14.5 9.45002C15.2667 9.61669 15.7834 9.76669 16.05 9.90002C16.3167 10.0334 16.6334 10.3334 17 10.8C17.6334 11.4 18.0667 12 18.3 12.6C18.5667 13.1667 18.7 13.85 18.7 14.65C18.7 15.3167 18.6334 15.8667 18.5 16.3C18.4 16.7 18.1834 17.1167 17.85 17.55C17.4167 18.25 16.8334 19.05 16.1 19.95C15.4 20.8167 14.85 21.3834 14.45 21.65C14.3167 21.7167 14.2 21.7834 14.1 21.85C14 21.9167 13.9334 21.9667 13.9 22C13.8334 22.3667 13.0334 22.9667 11.5 23.8C10 24.6334 8.71669 25.1834 7.65002 25.45ZM4.30002 23C4.96669 23.1334 5.36669 23.2 5.50002 23.2C5.93336 23.2 6.58336 23.0167 7.45002 22.65C8.18336 22.45 8.61669 22.3667 8.75002 22.4C8.88336 22.3 9.15002 22.1167 9.55002 21.85C9.98336 21.5834 10.5 21.2667 11.1 20.9C12.7 19.8667 13.9834 18.7167 14.95 17.45C15.95 16.1834 16.45 15.0667 16.45 14.1C16.45 13.9334 16.4334 13.8 16.4 13.7V13.6C16.4 13.4334 16.35 13.2 16.25 12.9C16.1834 12.6 16.15 12.4167 16.15 12.35C16.0167 12.35 15.8167 12.3167 15.55 12.25C15.3167 12.1834 15.05 12.1167 14.75 12.05C14.35 11.9834 14.05 11.95 13.85 11.95C13.3167 11.95 12.0167 12.1834 9.95003 12.65C9.78336 12.6834 9.56669 12.7334 9.30002 12.8C9.06669 12.8667 8.78336 12.9334 8.45003 13C8.21669 13.0667 7.93336 13.1834 7.60002 13.35C7.26669 13.4834 6.98336 13.5834 6.75002 13.65C6.28336 14.0167 5.83336 14.25 5.40002 14.35C5.00002 14.3834 4.66669 14.7 4.40002 15.3C4.13336 15.9 3.81669 17.0334 3.45002 18.7C3.18336 20.1334 3.05002 20.9834 3.05002 21.25C3.05002 21.5834 3.11669 21.8334 3.25002 22C3.28336 22.3667 3.38336 22.6167 3.55002 22.75C3.71669 22.85 3.96669 22.9334 4.30002 23Z" fill="#938361"/>
</svg>
