<svg width="16" height="30" viewBox="0 0 16 30" fill="none" xmlns="http://www.w3.org/2000/svg">
<path d="M2.04999 29.9C1.31666 29.7667 0.716659 29.1334 0.249992 28C0.0166585 26.9 1.18333 23.9334 3.74999 19.1C4.48333 17.9334 4.84999 17.2334 4.84999 17C4.84999 16.8667 4.74999 16.7834 4.54999 16.75C4.38333 16.7167 4.14999 16.7 3.84999 16.7C3.68333 16.6667 3.36666 16.6 2.89999 16.5C2.43333 16.4 2.14999 16.2834 2.04999 16.15C1.41666 15.8167 1.09999 15.4667 1.09999 15.1C1.09999 14.9 1.21666 14.7834 1.44999 14.75C1.78333 14.6834 1.94999 14.5834 1.94999 14.45C1.94999 14.35 1.74999 14.2334 1.34999 14.1L1.89999 14.2L4.39999 14.25C4.99999 14.25 5.43333 14.2667 5.69999 14.3C5.79999 14.3334 5.93333 14.35 6.09999 14.35C6.33333 14.35 6.51666 14.3 6.64999 14.2C6.78333 14.0667 6.94999 13.8834 7.14999 13.65C7.34999 13.3834 7.49999 13.1834 7.59999 13.05L8.54999 11.55C9.21666 10.6167 9.81666 9.68336 10.35 8.75002C12.15 6.18336 13.05 4.55003 13.05 3.85003C13.05 3.38336 12.7167 3.15003 12.05 3.15003C11.5167 3.15003 10.9167 3.25002 10.25 3.45002C9.61666 3.61669 8.59999 3.96669 7.19999 4.50003C6.46666 4.80002 5.81666 5.05002 5.24999 5.25002C4.71666 5.45003 4.31666 5.55003 4.04999 5.55003C3.74999 5.55003 3.51666 5.48336 3.34999 5.35003C3.11666 5.31669 2.93333 5.18336 2.79999 4.95002C2.69999 4.71669 2.64999 4.45002 2.64999 4.15003C2.64999 3.91669 2.66666 3.75003 2.69999 3.65002C2.83333 3.05002 5.01666 2.21669 9.24999 1.15002C10.3167 0.983358 11.2333 0.900024 12 0.900024C13.2667 0.900024 14.0167 1.11669 14.25 1.55002C14.2833 1.58336 14.3333 1.63336 14.4 1.70003C14.4667 1.73336 14.5167 1.70003 14.55 1.60002C14.65 1.63336 14.75 1.78336 14.85 2.05002C14.9833 2.28336 15.1167 2.53336 15.25 2.80002C15.3167 2.93336 15.45 3.18336 15.65 3.55003C15.85 3.91669 15.95 4.23336 15.95 4.50003C15.95 4.63336 15.9167 4.86669 15.85 5.20003C15.75 5.53336 15.5833 5.88336 15.35 6.25003C15.1167 6.61669 14.9333 6.86669 14.8 7.00002C14.6667 7.13336 14.55 7.28336 14.45 7.45003C14.3833 7.58336 14.3333 7.66669 14.3 7.70002C14.2667 7.80003 14.15 7.93336 13.95 8.10003C13.7833 8.23336 13.6333 8.38336 13.5 8.55003C13.4667 8.65003 13.3833 8.80003 13.25 9.00003C13.15 9.16669 13.0833 9.30003 13.05 9.40003L10.3 13.55C9.83333 13.9834 9.59999 14.3 9.59999 14.5C9.59999 14.7 9.81666 14.9 10.25 15.1C11.4167 15.6334 12.1333 16.3 12.4 17.1V17.55C12.4 17.9167 12.3167 18.15 12.15 18.25C12.0167 18.45 11.7833 18.55 11.45 18.55C11.05 18.55 10.8 18.4667 10.7 18.3C10.5667 18.0334 10.1833 17.7834 9.54999 17.55C8.94999 17.2834 8.54999 17.15 8.34999 17.15C8.18333 17.25 7.89999 17.5667 7.49999 18.1C7.23333 18.4667 6.68333 19.4834 5.84999 21.15L4.54999 23.5C4.51666 23.6 4.41666 23.7667 4.24999 24C4.11666 24.2334 4.01666 24.4334 3.94999 24.6C3.81666 24.8334 3.69999 25.1834 3.59999 25.65C3.49999 26.1167 3.44999 26.5334 3.44999 26.9C3.44999 27.2334 3.49999 27.4 3.59999 27.4C3.66666 27.3667 3.74999 27.35 3.84999 27.35C4.14999 27.35 4.34999 27.5834 4.44999 28.05C4.61666 28.2834 4.56666 28.5667 4.29999 28.9C4.03333 29.2334 3.68333 29.5 3.24999 29.7C2.81666 29.9 2.41666 29.9667 2.04999 29.9Z" fill="#938361"/>
</svg>
