<svg width="21" height="30" viewBox="0 0 21 30" fill="none" xmlns="http://www.w3.org/2000/svg">
<path d="M2.79995 29.6C2.49995 29.5667 2.19995 29.4333 1.89995 29.2C1.59995 29 1.23328 28.7 0.799951 28.3C0.733284 28.1667 0.616618 27.9167 0.449951 27.55C0.283285 27.1833 0.199951 26.8 0.199951 26.4C0.199951 26.2667 0.233284 25.9667 0.299951 25.5C0.299951 24.3333 0.499951 23.4333 0.899951 22.8C1.29995 21.6667 2.13328 20.15 3.39995 18.25C4.66662 16.35 5.76662 14.8167 6.69995 13.65C7.06662 13.2167 7.24995 12.8667 7.24995 12.6C7.24995 12.4 7.14995 12.1333 6.94995 11.8C6.74995 11.4667 6.49995 11.0833 6.19995 10.65C6.09995 10.3833 5.96662 10.1333 5.79995 9.9C5.66662 9.66667 5.63328 9.55 5.69995 9.55C5.66662 9.51667 5.61662 9.45 5.54995 9.35C5.48328 9.25 5.39995 9.08333 5.29995 8.85C4.79995 8.38333 4.54995 7.66667 4.54995 6.7C4.54995 5.73333 4.79995 4.78333 5.29995 3.85C5.83328 2.65 6.41662 1.75 7.04995 1.15C7.71662 0.516665 8.54995 0.133332 9.54995 0C10.4833 0.133332 11.65 0.349997 13.05 0.649998C14.4833 0.916665 15.5833 1.21666 16.35 1.55C16.95 1.78333 17.65 2.23333 18.45 2.9C19.25 3.53333 19.6833 3.98333 19.75 4.25C19.75 4.31667 19.8 4.43333 19.9 4.6C20 4.73333 20.0833 4.86667 20.15 5C20.35 5.43333 20.45 5.98333 20.45 6.65C20.45 7.61667 20.2666 8.38333 19.9 8.95C19.0666 9.88333 18.4833 10.4167 18.15 10.55C18.05 10.6167 17.8666 10.7667 17.6 11C17.3666 11.2333 17.1166 11.3833 16.85 11.45C16.4166 12.0167 16.1166 12.3 15.95 12.3C15.7833 12.2 15.6333 12.15 15.5 12.15C15.4 12.1167 15.35 12.1667 15.35 12.3C15.3166 12.4333 14.8666 12.7 14 13.1C13.1333 13.4667 12.6 13.6 12.4 13.5H12.35C12.1833 13.5 12 13.5667 11.8 13.7C11.6333 13.6667 11.6 13.8 11.7 14.1C11.8333 14.3667 12.1166 14.7667 12.55 15.3C13.85 17.7333 14.5 19.6167 14.5 20.95C14.5 21.5833 14.3666 22.0833 14.1 22.45C13.4666 23.8833 12.7833 25.0667 12.05 26C11.3166 26.9333 10.7333 27.3667 10.3 27.3L9.59995 27.75C9.53328 27.95 9.39995 28.1 9.19995 28.2C8.99995 28.3 8.79995 28.3333 8.59995 28.3L8.44995 28.25C8.08329 28.25 7.61662 28.4333 7.04995 28.8C6.61662 29.1 6.08328 29.3333 5.44995 29.5C4.84995 29.6667 4.28328 29.75 3.74995 29.75C3.31662 29.75 2.99995 29.7 2.79995 29.6ZM11.35 10.55C12.1833 9.81667 12.8833 9.45 13.45 9.45C13.85 9.45 14.1166 9.6 14.25 9.9C14.3166 10.0333 14.7 9.88333 15.4 9.45C16.1333 8.98333 16.7666 8.48333 17.3 7.95C17.4333 7.75 17.5333 7.56667 17.6 7.4C17.6666 7.2 17.7 7 17.7 6.8L17.6 6C17.6333 5.5 17.5166 5.11667 17.25 4.85C17.0166 4.58333 16.3833 4.25 15.35 3.85C13.8833 3.31667 12.5666 3.05 11.4 3.05C9.36662 3.05 8.08328 4 7.54995 5.9C7.34995 6.5 7.24995 7.05 7.24995 7.55C7.24995 8.15 7.38328 8.7 7.64995 9.2C7.91662 9.3 8.09995 9.45 8.19995 9.65C8.33328 9.85 8.39995 9.98333 8.39995 10.05C8.39995 10.15 8.43329 10.25 8.49995 10.35C8.56662 10.45 8.66662 10.5 8.79995 10.5C8.83329 10.6333 8.93329 10.7667 9.09995 10.9C9.29995 11.0333 9.53329 11.1 9.79995 11.1C10.2333 11.1 10.75 10.9167 11.35 10.55ZM3.59995 27.05C4.03328 27.0833 4.78328 26.85 5.84995 26.35C6.91662 25.85 7.86662 25.3167 8.69995 24.75C9.69995 23.9167 10.4333 23.1333 10.9 22.4C11.4 21.6667 11.65 20.9167 11.65 20.15C11.65 19.65 11.55 19.1833 11.35 18.75C10.6833 17.3833 10.2666 16.5833 10.1 16.35C9.79995 15.8833 9.46662 15.55 9.09995 15.35C9.03328 15.3833 8.88329 15.5 8.64995 15.7C8.41662 15.9 8.23328 16.15 8.09995 16.45C7.49995 17.1833 7.03328 17.8667 6.69995 18.5L5.59995 19.6C5.59995 19.7 5.49995 19.9833 5.29995 20.45C5.09995 20.9167 4.86662 21.4 4.59995 21.9C4.13329 22.7 3.76662 23.4833 3.49995 24.25C3.26662 24.9833 3.14995 25.6167 3.14995 26.15C3.14995 26.6833 3.29995 26.9833 3.59995 27.05Z" fill="#938361"/>
</svg>
