<svg width="16" height="31" viewBox="0 0 16 31" fill="none" xmlns="http://www.w3.org/2000/svg">
<path d="M5.65 30.35C5.41667 30.3166 5.15 30.1666 4.85 29.9C4.55 29.6333 4.4 29.4333 4.4 29.3C4.43333 29.2 4.43333 29.1333 4.4 29.1C4.36667 29.0666 4.3 29.05 4.2 29.05C4.16667 28.9833 4.11667 28.85 4.05 28.65C4.01667 28.45 4.01667 28.25 4.05 28.05C4.05 27.9166 4.06667 27.7 4.1 27.4C4.13333 27.0666 4.15 26.7166 4.15 26.35C4.21667 25.45 4.5 24.0833 5 22.25C5.53333 20.3833 6.08333 18.6166 6.65 16.95C7.08333 15.8166 7.3 15.1333 7.3 14.9C7.3 14.5666 7.06667 14.4 6.6 14.4C6.36667 14.4 6.16667 14.4166 6 14.45C5.8 14.4833 5.53333 14.5 5.2 14.5C3.9 14.5 2.78333 14.0333 1.85 13.1C0.95 12.1666 0.5 11.05 0.5 9.74998C0.5 9.14998 0.583333 8.63331 0.75 8.19998C0.916667 7.73331 1.25 7.09998 1.75 6.29997C2.78333 4.76664 3.98333 3.46664 5.35 2.39998C6.71667 1.33331 8.05 0.683309 9.35 0.449974C9.81667 0.383308 10.25 0.349976 10.65 0.349976C11.6833 0.349976 12.45 0.449975 12.95 0.649975C13.6833 0.949975 14.3667 1.61664 15 2.64998C15.6333 3.64998 15.8667 4.43331 15.7 4.99998C15.5 6.03331 15.25 6.84997 14.95 7.44998C14.65 8.01664 14.2667 8.54997 13.8 9.04998C13.0333 9.71664 12.0667 11.2 10.9 13.5C9.73333 15.8 8.73333 18.1333 7.9 20.5C7.26667 22.3 6.95 23.8666 6.95 25.2C6.95 25.7666 7.03333 26.05 7.2 26.05C7.3 26.05 7.48333 26.1 7.75 26.2C8.01667 26.3 8.18333 26.35 8.25 26.35C8.35 26.4833 8.4 26.6166 8.4 26.75C8.4 26.8833 8.31667 27.1666 8.15 27.6C7.98333 28.0666 7.58333 28.65 6.95 29.35C6.31667 30.05 5.88333 30.3833 5.65 30.35ZM3.4 11.3C3.73333 11.6666 4.2 11.85 4.8 11.85C5.7 11.85 6.7 11.4666 7.8 10.7C8.9 9.89998 9.85 8.88331 10.65 7.64998L11.6 6.39998C12 5.89998 12.2333 5.61664 12.3 5.54998C12.8 4.98331 13.05 4.54997 13.05 4.24997C13.05 4.01664 12.95 3.79997 12.75 3.59998C12.5167 3.19997 12.1333 2.99997 11.6 2.99997C11.2667 2.99997 10.7 3.13331 9.9 3.39998C9.4 3.49998 8.91667 3.66664 8.45 3.89997C8.01667 4.09997 7.43333 4.43331 6.7 4.89998C6.5 5.09998 6.23333 5.16664 5.9 5.09998C5.86667 5.09998 5.81667 5.11664 5.75 5.14997C5.71667 5.18331 5.7 5.24998 5.7 5.34998C5.73333 5.38331 5.75 5.44998 5.75 5.54998C5.75 5.84998 5.53333 6.16664 5.1 6.49998C4.46667 7.13331 3.98333 7.81664 3.65 8.54998C3.31667 9.24998 3.15 9.88331 3.15 10.45C3.15 10.7833 3.23333 11.0666 3.4 11.3Z" fill="#938361"/>
</svg>
