<svg width="290" height="290" viewBox="0 0 290 290" fill="none" xmlns="http://www.w3.org/2000/svg">
<path d="M226.313 254.854L225.27 253.758L226.687 253.228C260.925 240.429 285.365 207.388 285.365 168.747C285.365 164.518 281.936 161.089 277.708 161.089H12.2909C8.0621 161.089 4.63333 164.518 4.63333 168.747C4.63333 207.387 29.0728 240.429 63.31 253.228L64.727 253.758L63.6845 254.854C57.1985 261.674 53.1829 271.027 53.1829 281.342C53.1829 285.571 56.6116 289 60.8404 289C65.0691 289 68.4979 285.571 68.4979 281.342C68.4979 269.029 77.9068 258.903 89.6065 258.903C89.9523 258.903 90.3006 258.871 90.6661 258.821L90.7559 258.808L90.8465 258.812C92.158 258.869 93.4715 258.903 94.7902 258.903H195.208C196.527 258.903 197.84 258.869 199.152 258.812L199.242 258.808L199.332 258.821C199.697 258.871 200.046 258.903 200.392 258.903C212.091 258.903 221.5 269.03 221.5 281.342C221.5 285.571 224.928 289 229.157 289C233.386 289 236.815 285.571 236.815 281.342C236.815 271.026 232.799 261.673 226.313 254.854Z" stroke="#E1DDD2" stroke-width="2"/>
<path d="M112.719 42.05C112.719 19.4159 94.3029 1 71.6687 1C49.0346 1 30.6182 19.4159 30.6187 42.05V141.773H45.9338V42.05C45.9338 27.8587 57.4774 16.315 71.6687 16.315C85.8601 16.315 97.4037 27.8587 97.4037 42.05V57.8323C97.4037 62.0611 100.832 65.4899 105.061 65.4899C109.29 65.4899 112.719 62.0611 112.719 57.8323V42.05Z" stroke="#E1DDD2" stroke-width="2"/>
<path d="M112.719 88.4381C112.719 84.2094 109.29 80.7806 105.061 80.7806C100.832 80.7806 97.4037 84.2088 97.4037 88.4381V95.9413C97.4037 100.17 100.832 103.599 105.061 103.599C109.29 103.599 112.719 100.17 112.719 95.9413V88.4381Z" stroke="#E1DDD2" stroke-width="2"/>
<path d="M112.719 126.613C112.719 122.385 109.29 118.956 105.061 118.956C100.832 118.956 97.4037 122.385 97.4037 126.613V134.117C97.4037 138.345 100.832 141.774 105.061 141.774C109.29 141.774 112.719 138.345 112.719 134.117V126.613Z" stroke="#E1DDD2" stroke-width="2"/>
</svg>
