<svg width="500" height="500" viewBox="0 0 500 500" fill="none" xmlns="http://www.w3.org/2000/svg">
<path d="M109.28 438.905L110.323 437.809L108.906 437.279C49.6021 415.109 7.2666 357.878 7.2666 290.942C7.2666 283.251 13.5025 277.016 21.1934 277.016H478.809C486.5 277.016 492.735 283.251 492.735 290.942C492.735 357.877 450.401 415.109 391.098 437.279L389.681 437.809L390.724 438.905C402.031 450.793 409.029 467.097 409.029 485.073C409.029 492.764 402.793 499 395.103 499C387.412 499 381.176 492.764 381.176 485.073C381.176 464.199 365.235 447.109 345.506 447.109C344.865 447.109 344.229 447.05 343.58 446.96L343.49 446.947L343.399 446.951C341.13 447.049 338.855 447.109 336.568 447.109H163.435C161.148 447.109 158.873 447.049 156.604 446.951L156.513 446.947L156.423 446.96C155.774 447.05 155.138 447.109 154.497 447.109C134.768 447.109 118.828 464.2 118.828 485.073C118.828 492.764 112.592 499 104.901 499C97.2105 499 90.9746 492.764 90.9746 485.073C90.9746 467.096 97.972 450.792 109.28 438.905Z" stroke="#E1DDD2" stroke-width="2"/>
<path d="M304.933 72.5C304.933 33.0757 337.008 1 376.433 1C415.857 1 447.934 33.0757 447.933 72.5V245.161H420.079V72.5C420.079 48.4321 400.501 28.8535 376.433 28.8535C352.365 28.8535 332.786 48.4321 332.786 72.5V99.7109C332.786 107.402 326.55 113.638 318.859 113.638C311.168 113.638 304.933 107.402 304.933 99.7109V72.5Z" stroke="#E1DDD2" stroke-width="2"/>
<path d="M304.933 152.479C304.933 144.789 311.168 138.553 318.859 138.553C326.55 138.553 332.786 144.788 332.786 152.479V165.416C332.786 173.107 326.55 179.343 318.859 179.343C311.168 179.343 304.933 173.107 304.933 165.416V152.479Z" stroke="#E1DDD2" stroke-width="2"/>
<path d="M304.933 218.299C304.933 210.608 311.168 204.372 318.859 204.372C326.55 204.372 332.786 210.608 332.786 218.299V231.235C332.786 238.926 326.55 245.162 318.859 245.162C311.168 245.162 304.933 238.926 304.933 231.235V218.299Z" stroke="#E1DDD2" stroke-width="2"/>
</svg>
