<svg width="12" height="12" viewBox="0 0 12 12" fill="none" xmlns="http://www.w3.org/2000/svg">
<circle opacity="0.2" cx="6" cy="6" r="6" fill="#181818"/>
<path fill-rule="evenodd" clip-rule="evenodd" d="M3.14553 8.14123C2.95149 8.33771 2.95149 8.65627 3.14553 8.85275C3.33956 9.04923 3.65415 9.04923 3.84819 8.85275L5.9995 6.6743L8.1516 8.85537C8.34555 9.05193 8.66001 9.05193 8.85396 8.85537C9.04791 8.65881 9.04791 8.34012 8.85396 8.14355L6.70216 5.96278L8.77985 3.85889C8.97389 3.6624 8.97389 3.34384 8.77985 3.14736C8.58582 2.95088 8.27122 2.95088 8.07719 3.14736L5.99979 5.25096L3.92439 3.14762C3.73043 2.95106 3.41598 2.95106 3.22202 3.14762C3.02807 3.34419 3.02807 3.66288 3.22202 3.85944L5.29713 5.96248L3.14553 8.14123Z" fill="white"/>
</svg>
