<svg width="192" height="192" viewBox="0 0 192 192" fill="none" xmlns="http://www.w3.org/2000/svg">
<path d="M177.23 13H177.799L178.09 12.5114C179.332 10.4229 181.48 8.99988 184 8.99988C187.858 8.99988 191 12.142 191 16.0001C191 19.8578 187.858 23 184 23C181.48 23 179.332 21.577 178.09 19.4886L177.799 18.9999H177.23H168H167V19.9999V188C167 189.659 165.659 191 164 191C149.222 191 141.814 186.772 134.533 182.616L134.512 182.604C134.512 182.604 134.512 182.604 134.512 182.604C127.726 178.729 121.185 175 108 175C106.342 175 105 173.658 105 172V19.9999V18.9999H104H88.0001H87.0001V19.9999V172C87.0001 173.658 85.6587 175 84 175C70.8157 175 64.274 178.729 57.4887 182.604C57.4886 182.604 57.4885 182.604 57.4885 182.604L57.4674 182.616C50.186 186.772 42.7782 191 28.0001 191C26.3414 191 25 189.659 25 188V19.9999V18.9999H24H14.7698H14.2012L13.9104 19.4885C12.6676 21.577 10.5202 23 7.99988 23C4.14216 23 1 19.8578 1 16.0001C1 12.142 4.14216 8.99988 8.00025 8.99988C10.5202 8.99988 12.668 10.4229 13.9108 12.5114L14.2015 13H14.7701H24H25V12V4.00012C25 2.34141 26.3414 1 28.0001 1H84C85.6587 1 87 2.34141 86.9997 3.99996V4.00012V12V13H87.9997H104H105V12V4.00012C105 2.34141 106.341 1 108 1H164C165.659 1 167 2.34141 167 4.00012V12V13H168H177.23ZM68 10.9996H67.9999H43.9999C41.2366 10.9996 38.9997 13.2365 38.9997 15.9998C38.9997 18.763 41.2366 20.9999 43.9999 20.9999H67.9999C70.763 20.9999 73 18.7635 73 16.0001C73 13.2368 70.7632 11.0001 68 10.9996ZM124 20.9999H148C150.763 20.9999 153 18.7634 153 16.0003C153 13.2368 150.763 11 148 11H124C121.237 11 119 13.2368 119 15.9998C119 18.763 121.237 20.9999 124 20.9999Z" stroke="white" stroke-width="2"/>
</svg>
