<svg width="192" height="192" viewBox="0 0 192 192" fill="none" xmlns="http://www.w3.org/2000/svg">
<g clip-path="url(#clip0)">
<path d="M160.656 50.199L160.656 50.1995L173.668 74.5084H133.256C130.637 74.5084 128.394 72.3835 128.394 69.8626V42.8401L148.343 42.8401L148.346 42.8401C153.494 42.8287 158.229 45.6588 160.656 50.199Z" stroke="white" stroke-width="2"/>
<path d="M57.3417 144.073C57.3417 153.416 49.7678 160.99 40.4248 160.99C31.0818 160.99 23.5078 153.416 23.5078 144.073C23.5078 134.73 31.0818 127.156 40.4248 127.156C49.7678 127.156 57.3417 134.73 57.3417 144.073Z" stroke="white" stroke-width="2"/>
<path d="M124.804 144.075C124.804 134.731 132.378 127.157 141.721 127.156C151.061 127.167 158.629 134.735 158.64 144.074V144.075V144.075V144.075V144.075V144.075V144.075C158.64 153.419 151.066 160.993 141.722 160.993C132.378 160.993 124.804 153.419 124.804 144.075Z" stroke="white" stroke-width="2"/>
<path d="M187.983 95.2101L187.983 95.2106C189.91 97.663 190.971 100.684 191 103.803V135.011C191 137.525 188.824 139.57 186.199 139.57H167.543C165.63 128.322 156.627 119.563 145.255 118.015L145.12 119.006L145.255 118.015C131.212 116.104 118.255 125.7 115.901 139.57H66.2441C64.3318 128.321 55.3277 119.561 43.955 118.014C29.9121 116.103 16.9568 125.701 14.6037 139.57H5.80186C3.17626 139.57 1 137.525 1 135.011V35.3981C1 32.923 3.13332 31.0107 5.80186 31.0107H114.654H114.674L114.693 31.0099C114.774 31.0068 114.856 31.0063 114.942 31.0082C117.3 31.0622 119.168 33.0172 119.114 35.3753L119.114 35.3867V35.3981V69.8626C119.114 77.5716 125.589 83.788 133.256 83.788H179.02L187.983 95.2101Z" stroke="white" stroke-width="2"/>
</g>
<defs>
<clipPath id="clip0">
<path d="M0 0H192V192H0V0Z" fill="white"/>
</clipPath>
</defs>
</svg>
