<svg width="192" height="192" viewBox="0 0 192 192" fill="none" xmlns="http://www.w3.org/2000/svg">
<g clip-path="url(#clip0)">
<path d="M177.993 95.3161L177.893 95.6251L177.993 95.9341L186.442 121.937L186.442 121.937C187.102 123.966 186.379 126.19 184.652 127.444L184.652 127.444L162.533 143.515L162.27 143.706L162.17 144.015L153.721 170.019C153.721 170.019 153.72 170.019 153.72 170.019C153.06 172.049 151.169 173.422 149.036 173.422H121.695H121.37L121.107 173.613L98.9866 189.684C98.1227 190.311 97.1077 190.625 96.0924 190.625C95.0754 190.625 94.0604 190.311 93.1967 189.684L71.0761 173.613L70.8132 173.422H70.4883H43.1485C41.0137 173.422 39.1228 172.049 38.4628 170.019C38.4628 170.019 38.4627 170.019 38.4627 170.019L30.0136 144.015L29.9132 143.706L29.6503 143.515L7.53113 127.444L7.53104 127.444C5.80472 126.19 5.08238 123.967 5.74107 121.937C5.74111 121.936 5.74114 121.936 5.74118 121.936L14.1903 95.9341L14.2907 95.6251L14.1903 95.3161L5.74118 69.3139C5.74114 69.3138 5.74111 69.3137 5.74107 69.3136C5.08233 67.2833 5.80484 65.0586 7.53104 63.8047L7.53113 63.8047L29.6503 47.7339L29.9131 47.5429L30.0136 47.2339L38.4627 21.2316C39.1228 19.2013 41.0141 17.8267 43.1485 17.8267H70.4883H70.8132L71.0761 17.6357L93.1965 1.56502C93.1966 1.56497 93.1967 1.56493 93.1967 1.56489C94.9219 0.312193 97.2613 0.312193 98.9865 1.56489C98.9866 1.56493 98.9866 1.56497 98.9867 1.56502L121.107 17.6357L121.37 17.8267H121.695H149.036C151.169 17.8267 153.062 19.2015 153.72 21.2311L153.72 21.2314L162.17 47.2339L162.27 47.5429L162.533 47.7339L184.653 63.8045C186.38 65.0601 187.102 67.2836 186.442 69.3134L186.442 69.3136L177.993 95.3161ZM59.3632 60.4766L59.3632 60.4766C51.272 68.5693 51.272 81.7342 59.3647 89.8268L59.3648 89.827C63.4115 93.8721 68.7274 95.8956 74.0391 95.8956C79.3508 95.8956 84.6667 93.8721 88.7134 89.827L88.7136 89.8268C96.8047 81.7341 96.8047 68.5693 88.7136 60.4766L88.7134 60.4765C80.6209 52.3854 67.456 52.3838 59.3632 60.4766ZM132.137 61.1592L132.137 61.1589C129.432 58.4558 125.046 58.4555 122.343 61.1592L60.0475 123.456C60.0475 123.456 60.0474 123.456 60.0473 123.456C57.3421 126.16 57.3425 130.546 60.0473 133.251C61.3995 134.603 63.1732 135.279 64.9439 135.279C66.7143 135.279 68.4896 134.603 69.8419 133.251L132.137 70.954C132.137 70.9539 132.137 70.9538 132.137 70.9538C134.843 68.2501 134.842 63.864 132.137 61.1592ZM132.82 104.583L132.133 105.27L132.82 104.583C124.729 96.4933 111.564 96.4918 103.471 104.585C95.3799 112.676 95.38 125.841 103.471 133.933L104.178 133.226L103.471 133.933C107.518 137.98 112.834 140.002 118.146 140.002C123.457 140.002 128.773 137.98 132.82 133.933C140.913 125.841 140.913 112.676 132.82 104.583Z" stroke="white" stroke-width="2"/>
</g>
<defs>
<clipPath id="clip0">
<path d="M0 0H192V192H0V0Z" fill="white"/>
</clipPath>
</defs>
</svg>
