<svg width="192" height="192" viewBox="0 0 192 192" fill="none" xmlns="http://www.w3.org/2000/svg">
<g clip-path="url(#clip0)">
<path d="M130.884 98.8108L130.884 98.8125C129.545 115.605 115.965 129.226 99.1314 130.565M130.884 98.8108L99.0521 129.568M130.884 98.8108C132.546 77.4863 114.868 59.7636 93.538 61.4667C76.7046 62.8054 63.1243 76.4269 61.7858 93.2191M130.884 98.8108L62.7826 93.2985M99.1314 130.565L99.0521 129.568M99.1314 130.565C99.1314 130.565 99.1315 130.565 99.1316 130.565L99.0521 129.568M99.1314 130.565C77.7637 132.268 60.0829 114.546 61.7858 93.2191M99.0521 129.568C78.2985 131.222 61.1286 114.013 62.7826 93.2985M61.7858 93.2191L62.7826 93.2985M61.7858 93.2191C61.7858 93.219 61.7858 93.219 61.7858 93.2189L62.7826 93.2985M188.794 90.2528L188.796 90.2547C191.737 93.621 191.732 98.5694 188.799 101.891L188.795 101.896C178.376 113.846 153.469 138.797 120.382 148.104C103.863 152.75 85.3062 153.497 65.4662 146.778C45.619 140.057 24.4176 125.841 2.65963 100.445C0.426553 97.8336 0.453986 93.975 2.69957 91.3494L2.70019 91.3487C12.1963 80.2241 36.8123 54.6707 69.9859 44.5419C86.5474 39.4852 105.236 38.2742 125.266 44.6194C145.301 50.9665 166.754 64.8987 188.794 90.2528Z" stroke="white" stroke-width="2"/>
<path d="M75.5967 96.0158C75.5967 84.5964 84.9153 75.2777 96.3347 75.2777C98.6228 75.2777 100.533 77.1584 100.533 79.4759C100.533 81.7984 98.6572 83.6742 96.3347 83.6742C89.5209 83.6742 83.9931 89.202 83.9931 96.0158C83.9931 98.3383 82.1174 100.214 79.7949 100.214C77.4724 100.214 75.5967 98.3383 75.5967 96.0158Z" stroke="white" stroke-width="2"/>
</g>
<defs>
<clipPath id="clip0">
<path d="M0 0H192V192H0V0Z" fill="white"/>
</clipPath>
</defs>
</svg>
