<svg width="240" height="73" viewBox="0 0 240 73" fill="none" xmlns="http://www.w3.org/2000/svg">
<g clip-path="url(#clip0)">
<path fill-rule="evenodd" clip-rule="evenodd" d="M143.167 39.1897L138.653 39.7494C137.267 39.8859 135.391 40.0566 134.051 40.2272L129.388 40.6368C127.818 40.7119 126.132 40.8757 124.671 40.9918C123.862 41.0601 122.951 40.9508 122.142 40.9986C121.285 41.0532 120.449 41.5925 120.354 40.6573C120.3 40.1385 121.292 37.3124 121.523 36.7322C122.543 34.186 123.535 32.0221 124.684 29.7079L133.059 15.1816C133.392 14.6833 133.752 14.1645 134.153 13.7344C136.451 11.2497 140.196 10.5943 143.555 10.4168C144.289 10.3759 145.036 10.5943 146.076 10.5943C146.471 12.2804 145.906 15.7687 145.662 17.6391L143.181 39.176L143.167 39.1897ZM225.466 43.1967C225.466 44.6712 225.33 47.0535 228.627 44.5551C231.21 42.596 229.844 41.1966 227.098 41.1966C225.983 41.1966 225.466 42.0635 225.466 43.1967ZM161.657 36.4591C158.305 36.4591 159.339 32.3019 161.793 29.8581C168.189 23.4892 167.999 29.0799 165.973 32.7866C165.198 34.1996 163.682 36.4591 161.657 36.4591ZM155.491 35.3669C155.491 37.6742 156.864 40.4662 158.938 40.4662C161.099 40.4662 161.99 40.3569 164.185 39.0053C165.28 38.3295 165.987 37.3602 166.762 36.309C168.135 34.4522 171.384 28.4314 168.414 25.6736C166.537 23.9329 163.56 24.6906 161.589 25.6599C158.387 27.2368 155.491 31.3804 155.491 35.3738V35.3669ZM227.641 38.2818C227.641 38.7186 227.934 38.8142 228.185 39.1897C228.96 39.0122 229.246 38.7323 229.586 38.0428C229.864 37.4694 230.177 36.6093 230.326 36.0564C233.127 25.9876 233.311 25.8443 237.355 16.1714C238.205 14.1303 241.998 6.41664 238.341 6.41664C234.466 6.41664 232.06 17.2431 231.237 20.5812C230.415 23.9192 227.648 35.442 227.648 38.2749L227.641 38.2818ZM52.8875 43.1967C56.5446 43.1967 58.0877 40.1044 59.957 40.1044C61.0923 40.1044 60.5077 42.2888 63.9473 42.2888C65.7826 42.2888 68.6172 39.8586 65.4359 40.1249C61.9556 40.4184 63.3967 37.1281 64.1512 34.8481C64.5183 33.7423 65.2184 32.4862 65.2184 31.1892C65.2184 29.667 63.1859 28.5611 61.5273 31.8514C60.9699 32.9641 60.5077 33.9675 59.9638 35.012C56.8573 41.0054 53.6148 40.2955 53.6148 37.7425C53.6148 32.2337 61.3302 27.3665 57.0612 27.3665C53.8188 27.3665 46.7764 38.5889 50.4811 42.1659C51.0657 42.7325 51.8203 43.2035 52.8943 43.2035L52.8875 43.1967ZM197.371 41.3741C197.371 42.9305 197.426 44.6848 199.934 44.7189C202.864 44.7599 206.657 41.4082 208.921 39.4968C209.288 39.1897 209.315 39.0873 209.702 38.8279C209.702 42.0703 212.659 43.3264 215.997 42.7871C217.363 42.5618 222.937 40.4798 222.937 39.0122C222.937 38.3159 222.292 37.8927 221.619 37.8244C220.15 37.6742 219.233 39.7426 215.324 39.7426C212.082 39.7426 213.55 34.7457 214.413 33.005C215.48 30.8684 216.412 30.7319 216.412 29.9127C216.412 28.9229 215.032 29.0048 214.42 29.0048C211.218 29.0048 207.65 40.473 203.727 40.473C202.946 40.473 201.736 40.7051 201.736 38.4729C201.736 37.1554 202.286 35.8926 202.755 34.9505C204.652 31.1892 208.676 31.1415 210.002 30.3974C213.251 28.5748 209.22 26.0149 204.346 29.2711C203.714 29.6943 203.183 30.1516 202.606 30.6227C201.165 31.7831 199.452 34.4317 198.697 36.3431C198.153 37.722 197.378 39.5788 197.378 41.3877L197.371 41.3741ZM62.6829 52.4804C62.6829 57.764 68.5017 54.542 69.1611 49.8796C69.6097 46.7054 72.084 42.596 73.6883 39.6811L77.1279 33.3054C77.8485 31.8446 78.134 30.8479 79.5479 31.1824C79.5479 34.4181 76.8288 39.3535 76.8288 42.6506C76.8288 44.8282 78.2835 45.7838 80.3772 45.1217C82.3213 44.5073 83.1234 41.5311 84.2654 39.1897C85.02 37.6401 86.6582 33.6467 87.8954 32.8207C87.8954 37.8244 84.2722 44.4732 89.7103 44.4732C92.7761 44.4732 96.0933 41.3809 94.2444 41.3809C92.5925 41.3809 90.798 43.1011 90.798 38.8347C90.798 36.2134 91.1582 33.831 91.1582 30.6431C91.1582 28.5065 89.7375 28.2471 88.0449 28.7864C86.8689 29.1618 85.7065 30.4657 85.1151 31.4896C84.3946 32.7525 83.8712 33.8993 83.307 35.3191C83.0894 35.8721 82.4165 37.879 81.9202 38.1589C80.4723 38.9917 81.492 35.2509 81.6143 34.8959C82.3417 32.6979 82.8175 30.3633 82.8175 27.9126C82.8175 23.6052 79.6838 25.107 77.4202 27.4075C76.3802 28.4656 75.0546 31.0459 74.2389 32.5818C72.5735 35.7219 70.8061 38.5616 69.1611 41.8656C67.6044 44.9852 66.877 46.0228 64.8174 48.7942C64.2192 49.5929 62.6965 51.32 62.6965 52.4873L62.6829 52.4804ZM162.751 52.8422C162.751 54.5625 164.947 57.0199 167.829 53.2108C170.215 50.0571 168.522 50.1527 170.419 46.3504C172.173 42.8417 173.294 40.5959 175.361 37.1145C176.741 34.7935 177.883 31.1824 179.242 31.1824C180.486 31.1824 178.787 35.5649 178.447 36.5752C177.849 38.3705 175.116 45.3811 179.419 45.3811C181.716 45.3811 182.627 43.2786 183.3 41.6335C183.586 40.9304 183.858 40.4662 184.191 39.7972L186.726 34.5136C186.91 34.1655 187.025 33.9812 187.202 33.715C187.501 33.2644 187.542 33.1416 187.936 32.9982C189.065 35.3533 183.674 44.4664 189.928 44.4664C192.722 44.4664 196.461 41.3741 194.462 41.3741C192.967 41.3741 190.785 43.1489 190.914 38.664C190.975 36.5479 191.383 33.2849 191.383 31.1756C191.383 28.4382 190.2 28.6294 189.208 28.6294C185.965 28.6294 184.306 33.4965 183.287 35.7902C182.451 37.6674 182.566 38.2476 181.411 38.2749C181.275 36.6434 181.112 37.1622 181.791 34.8345C182.111 33.7491 182.396 32.6501 182.634 31.4896C183.735 26.0832 182.369 22.6973 177.74 27.2983C176.442 28.5884 175.211 30.923 174.341 32.6228L171.744 37.2988C171.54 37.6674 171.438 37.9268 171.248 38.2613C168.883 42.3707 168.271 44.8009 164.77 49.0536C164.063 49.9069 162.731 51.6476 162.731 52.8354L162.751 52.8422ZM8.11819 9.70009C8.11819 12.0142 10.5857 15.5434 12.829 16.069C12.6182 16.8609 11.551 17.6254 10.9732 18.2056L7.05776 22.2809C4.9165 24.95 3.63174 26.3494 2.0139 29.5987C-0.406061 34.4659 -1.20139 40.5208 3.71331 44.1592C9.45053 48.412 19.511 46.0091 25.1599 43.1899C25.8125 42.8622 26.3563 42.712 27.0156 42.3229C27.7362 41.8929 28.2188 41.7427 28.4296 40.828C26.9341 38.5889 24.1198 42.1045 19.1848 42.1045C14.4876 42.1045 10.1915 41.3126 7.52679 37.9746C5.65744 35.64 5.23599 32.9436 5.99732 29.7625C6.97618 25.6736 10.4022 22.4448 13.4339 19.3934C15.4936 17.3251 14.4196 18.1647 18.7973 17.68C23.0798 17.2022 23.5488 12.7924 21.36 12.7924C18.9944 12.7924 16.9211 15.7823 14.1341 12.0415C11.8025 8.90824 12.4007 8.25291 14.3992 6.89448C15.1809 6.36203 16.0035 5.91832 16.826 5.50875C17.7301 5.06504 20.7754 3.78852 21.9242 3.84996C22.8895 3.90457 22.7943 4.10253 22.6108 4.47115C22.1757 5.37905 20.6327 5.43366 20.6327 7.33136C20.6327 7.93208 21.1833 8.78536 21.5367 8.78536C22.3049 8.78536 23.1682 8.05495 23.6576 7.63855C24.3986 7.0037 24.6841 6.51904 25.2958 5.82958C26.1523 4.85342 27.8789 3.36529 27.8789 1.68602C27.8789 -3.39956 13.3252 4.89438 11.3879 6.06168C10.2594 6.7443 8.11819 7.97986 8.11819 9.69326V9.70009ZM25.3366 68.6792L23.8887 68.4949C22.9371 64.406 28.0149 58.8425 30.4892 55.6478C31.3525 54.5351 34.9417 50.6305 36.2129 50.2892C36.1041 51.6272 33.2015 59.1224 32.2226 60.8426C31.1418 62.7403 27.9333 68.6792 25.3366 68.6792ZM40.3798 36.6366C39.7272 39.4354 37.7287 43.7155 36.2876 45.818L29.456 52.2483C25.7581 55.9618 23.3313 58.904 20.9793 63.58C19.8169 65.8941 17.9476 69.512 20.3879 71.6418C23.9431 74.7546 28.6471 69.9967 30.9107 67.5392L32.379 65.7371C35.7914 61.1635 38.0618 55.839 39.6185 50.2482C39.87 49.3472 40.1147 48.4871 40.3322 47.6884C41.1004 44.9101 46.0015 45.0466 46.0015 43.5448C46.0015 41.968 41.8549 43.2718 41.4674 43.3605L47.0687 28.7796C48.8973 23.4073 44.7575 23.6121 44.1253 25.2777C43.799 26.1241 44.4516 28.3359 42.3307 31.3053C39.8904 34.7184 34.765 37.3602 34.765 34.0836C34.765 31.79 36.3216 29.6738 37.5248 28.4792C40.8421 25.1958 43.1057 27.6601 43.1057 24.9773C43.1057 23.4619 39.6593 22.6223 35.3496 26.4791C35.0097 26.7795 34.9757 26.7522 34.6358 27.0389C31.8216 29.3939 26.8933 38.7801 33.1879 39.2852C34.9757 39.4286 37.2189 38.3364 38.6736 37.4626C39.4146 37.0189 39.6661 36.9711 40.3798 36.6298V36.6366ZM131.38 11.1473C132.447 11.1473 130.585 13.3522 130.184 13.9529C129.524 14.9427 128.878 15.8437 128.307 16.7994C126.227 20.2808 123.413 25.4825 121.822 29.2233L117.39 39.1555C116.758 40.746 116.704 41.5038 115.066 41.5584C113.658 41.6062 109.757 41.8178 108.608 42.1727C107.819 42.4185 107.663 42.7325 107.364 43.4697C106.385 45.8589 102.191 55.4704 102.191 57.3885C102.191 59.0678 105.522 63.7916 106.956 55.0744C108.193 47.5587 107.207 47.4904 113.686 46.5416C119.552 45.6815 129.83 45.0125 135.187 45.0125C137.967 45.0125 140.523 44.6643 142.61 44.8418C143.786 44.9374 144.805 45.0193 146.246 45.0125C147.606 45.0057 148.694 45.2855 149.87 45.3811C149.87 47.1491 149.734 47.4222 149.224 48.7328C148.795 49.8318 148.578 50.7466 148.136 51.8319C147.477 53.4771 146.246 56.3714 146.246 58.3101C146.246 59.7436 147.47 60.2624 148.53 59.5183C150.794 57.921 149.829 54.8969 151.623 51.3336C151.929 50.7261 152.052 50.3097 152.351 49.6953C153.139 48.0502 154.41 44.9988 154.723 43.1557C155.77 36.8619 148.061 42.084 148.061 38.6572C148.061 32.2132 149.502 19.5231 151.032 13.4272C151.345 12.1712 151.63 11.1131 151.848 9.87074C152.582 5.72719 148.551 7.89795 142.256 7.89795C139.354 7.89795 136.349 7.87064 133.725 8.0686C131.026 8.27339 128.26 8.36213 127.097 10.1574C126.356 11.2906 126.703 12.6832 128.151 12.335C129.13 12.0961 130.421 11.1814 131.38 11.1814V11.1473Z" fill="#A82236"/>
</g>
<defs>
<clipPath id="clip0">
<path d="M0 0L240 0V72.7273H0L0 0Z" fill="white"/>
</clipPath>
</defs>
</svg>
