<svg width="48" height="48" viewBox="0 0 48 48" fill="none" xmlns="http://www.w3.org/2000/svg">
<path d="M24 0C10.7664 0 0 10.7665 0 24.0001C0 37.2337 10.7664 48 24 48C37.2336 48 48 37.2337 48 24.0001C48 10.7665 37.2336 0 24 0ZM24 43.6364C13.1724 43.6364 4.36364 34.8276 4.36364 24.0001C4.36364 13.1727 13.1724 4.36364 24 4.36364C34.8276 4.36364 43.6364 13.1727 43.6364 24.0001C43.6364 34.8276 34.8275 43.6364 24 43.6364Z" fill="#938361"/>
<path d="M23.9998 10.1816C22.396 10.1816 21.0912 11.4872 21.0912 13.092C21.0912 14.6954 22.396 15.9998 23.9998 15.9998C25.6035 15.9998 26.9083 14.6954 26.9083 13.092C26.9083 11.4872 25.6035 10.1816 23.9998 10.1816Z" fill="#938361"/>
<path d="M24 20.3638C22.795 20.3638 21.8182 21.3406 21.8182 22.5456V35.6365C21.8182 36.8414 22.795 37.8183 24 37.8183C25.2049 37.8183 26.1818 36.8414 26.1818 35.6365V22.5456C26.1818 21.3406 25.2049 20.3638 24 20.3638Z" fill="#938361"/>
</svg>
