<svg width="84" height="60" viewBox="0 0 84 60" fill="none" xmlns="http://www.w3.org/2000/svg">
<path d="M17.5781 60C12.3884 60 8.1194 58.4034 4.7712 55.2101C1.5904 51.8487 0 47.563 0 42.3529C0 35.7983 2.67857 28.6555 8.0357 20.9244C13.5602 13.0252 20.8426 6.05042 29.8828 0L33.6495 3.78151C30.1339 7.47899 27.3716 10.9244 25.3627 14.1176C23.3538 17.3109 22.3493 19.916 22.3493 21.9328C22.3493 23.1092 22.6841 24.2017 23.3538 25.2101C24.1908 26.2185 25.3627 27.3109 26.8694 28.4874C29.2131 30.3361 31.0546 32.2689 32.3939 34.2857C33.7332 36.3025 34.4028 38.9916 34.4028 42.3529C34.4028 47.563 32.8124 51.8487 29.6316 55.2101C26.4508 58.4034 22.433 60 17.5781 60ZM66.2945 60C61.1048 60 56.8358 58.4034 53.4876 55.2101C50.3068 51.8487 48.7164 47.563 48.7164 42.3529C48.7164 35.7983 51.395 28.6555 56.7521 20.9244C62.2767 13.0252 69.559 6.05042 78.5992 0L82.3659 3.78151C78.8503 7.47899 76.088 10.9244 74.0791 14.1176C72.0702 17.3109 71.0657 19.916 71.0657 21.9328C71.0657 23.1092 71.4005 24.2017 72.0702 25.2101C72.9072 26.2185 74.0791 27.3109 75.5858 28.4874C77.9295 30.3361 79.771 32.2689 81.1103 34.2857C82.4496 36.3025 83.1193 38.9916 83.1193 42.3529C83.1193 47.563 81.5289 51.8487 78.3481 55.2101C75.1673 58.4034 71.1494 60 66.2945 60Z" fill="#E1DDD2"/>
</svg>
