<svg width="30" height="24" viewBox="0 0 30 24" fill="none" xmlns="http://www.w3.org/2000/svg">
<path d="M16.678 16.3729C16.678 15.9661 16.7458 15.1864 16.8814 14.0339C17.0508 12.8475 17.4068 11.4915 17.9492 9.9661C18.4915 8.40678 19.2542 6.76271 20.2373 5.0339C21.2542 3.27119 22.6102 1.59322 24.3051 0L30 1.98305C29.4576 2.69492 28.9492 3.49153 28.4746 4.37288C28.0678 5.15254 27.661 6.1017 27.2542 7.22034C26.8475 8.33898 26.5254 9.64407 26.2881 11.1356C27.2712 11.7119 28.0847 12.5254 28.7288 13.5763C29.3729 14.5932 29.6949 15.6949 29.6949 16.8814C29.6949 17.7966 29.5254 18.661 29.1864 19.4746C28.8475 20.2542 28.3729 20.9492 27.7627 21.5593C27.1864 22.1356 26.5085 22.5932 25.7288 22.9322C24.9492 23.2712 24.1186 23.4407 23.2373 23.4407C22.322 23.4407 21.4576 23.2712 20.6441 22.9322C19.8644 22.5932 19.1695 22.1356 18.5593 21.5593C17.983 20.9492 17.5254 20.2542 17.1864 19.4746C16.8475 18.661 16.678 17.7966 16.678 16.8814V16.3729ZM13.3729 1.98305C12.8305 2.69492 12.322 3.49153 11.8475 4.37288C11.4407 5.15254 11.0169 6.1017 10.5763 7.22034C10.1695 8.33898 9.84746 9.64407 9.61017 11.1356C10.5932 11.7119 11.4068 12.5254 12.0508 13.5763C12.6949 14.5932 13.0169 15.6949 13.0169 16.8814C13.0169 17.7966 12.8475 18.661 12.5085 19.4746C12.1695 20.2542 11.6949 20.9492 11.0847 21.5593C10.5085 22.1356 9.83051 22.5932 9.05085 22.9322C8.27119 23.2712 7.44068 23.4407 6.55932 23.4407C5.64407 23.4407 4.77966 23.2712 3.9661 22.9322C3.18644 22.5932 2.49153 22.1356 1.88136 21.5593C1.30508 20.9492 0.847458 20.2542 0.508475 19.4746C0.169492 18.661 0 17.7966 0 16.8814C0.0677966 15.0169 0.38983 13.1017 0.966102 11.1356C1.44068 9.47458 2.18644 7.66102 3.20339 5.69492C4.25424 3.69492 5.72881 1.79661 7.62712 0L13.3729 1.98305Z" fill="#E1DDD2"/>
</svg>
