<svg width="24" height="24" viewBox="0 0 24 24" fill="none" xmlns="http://www.w3.org/2000/svg">
<path d="M11.28 21.3208C10.5061 20.5469 3.70776 13.5967 3.70776 8.90939C3.70776 4.01633 7.41552 0 12 0C16.5845 0 20.2923 4.01633 20.2923 8.90939C20.2923 13.5429 13.4939 20.498 12.72 21.3208C12.5143 21.5265 11.858 21.8988 11.28 21.3208ZM12 2.00816C8.54695 2.00816 5.71593 5.09878 5.71593 8.96327C5.71593 11.8482 9.78613 16.7902 12 19.2098C14.2678 16.7902 18.2841 11.8971 18.2841 8.96327C18.2841 5.09878 15.4531 2.00816 12 2.00816Z" fill="#B6000B"/>
<path d="M12 12.054C9.93799 12.054 8.2384 10.3544 8.2384 8.2924C8.2384 6.23036 9.93799 4.53076 12 4.53076C14.0621 4.53076 15.7617 6.23036 15.7617 8.2924C15.7617 10.3544 14.0621 12.054 12 12.054ZM12 6.49485C11.0204 6.49485 10.1976 7.3177 10.1976 8.2973C10.1976 9.27689 11.0204 10.0997 12 10.0997C12.9796 10.0997 13.8025 9.27689 13.8025 8.2973C13.8025 7.26383 12.9796 6.49485 12 6.49485Z" fill="#B6000B"/>
<path d="M16.9422 24.0002H7.05808C6.48992 24.0002 6.07849 23.5349 6.07849 23.0206C6.07849 22.5063 6.5438 22.041 7.05808 22.041H16.996C17.5642 22.041 17.9756 22.5063 17.9756 23.0206C17.9756 23.5349 17.5103 24.0002 16.9422 24.0002Z" fill="#B6000B"/>
</svg>
