<svg width="192" height="192" viewBox="0 0 192 192" fill="none" xmlns="http://www.w3.org/2000/svg">
<path d="M49.75 90.375C49.75 73.3514 63.6014 59.5 80.625 59.5C97.6486 59.5 111.5 73.3514 111.5 90.375C111.5 107.399 97.6486 121.25 80.625 121.25C63.6014 121.25 49.75 107.399 49.75 90.375Z" stroke="white" stroke-width="2"/>
<path d="M80.625 10.75C101.896 10.75 121.888 19.0311 136.928 34.0716C151.969 49.1121 160.25 69.1043 160.25 90.375V170H80.625C59.3543 170 39.3621 161.719 24.3216 146.678C9.28114 131.638 1 111.646 1 90.375C1 69.1043 9.28114 49.1121 24.3216 34.0716C39.3621 19.0311 59.3543 10.75 80.625 10.75ZM36.5 90.375C36.5 114.706 56.2936 134.5 80.625 134.5C104.956 134.5 124.75 114.706 124.75 90.375C124.75 66.0436 104.956 46.25 80.625 46.25C56.2936 46.25 36.5 66.0436 36.5 90.375Z" stroke="white" stroke-width="2"/>
<path d="M181.75 171V170H180.75H173.5V160.75H191V176.625C191 179.179 188.929 181.25 186.375 181.25C183.821 181.25 181.75 179.179 181.75 176.625V171Z" stroke="white" stroke-width="2"/>
</svg>
