<svg width="24" height="24" viewBox="0 0 24 24" fill="none" xmlns="http://www.w3.org/2000/svg">
<g clip-path="url(#clip0)">
<path d="M17.4692 0H6.26921C4.74225 0 3.5 1.24231 3.5 2.76921V21.2308C3.5 22.7578 4.74225 24 6.26921 24H17.4692C18.9962 24 20.2384 22.7578 20.2384 21.2308V2.76927C20.2384 1.24231 18.9962 0 17.4692 0ZM5.34612 2.76927C5.34612 2.26028 5.76016 1.84618 6.26921 1.84618H17.4692C17.9782 1.84618 18.3923 2.26028 18.3923 2.76927V3.69236H5.34612V2.76927ZM5.34612 5.53849H18.3923V18.4616H5.34612V5.53849ZM18.3923 21.2309C18.3923 21.7398 17.9782 22.1539 17.4692 22.1539H6.26921C5.76022 22.1539 5.34612 21.7398 5.34612 21.2309V20.3078H18.3923V21.2309Z" fill="white"/>
</g>
<defs>
<clipPath id="clip0">
<path d="M0 0H24V24H0V0Z" fill="white"/>
</clipPath>
</defs>
</svg>
