<svg width="192" height="192" viewBox="0 0 192 192" fill="none" xmlns="http://www.w3.org/2000/svg">
<path d="M21.5 55.125V56.125H22.5H44.9927H45.9927V55.125V20.25C45.9927 17.6954 48.063 15.625 50.6177 15.625H64.5869V27.9873C64.5869 31.6465 67.5527 34.6123 71.2119 34.6123C74.8695 34.6123 77.8369 31.6467 77.8369 27.9873V15.625H91.4927C94.0473 15.625 96.1177 17.6954 96.1177 20.25V55.125V56.125H97.1177H169.5H170.5V55.125V5.625C170.5 3.08353 172.584 1 175.125 1H186.375C188.916 1 191 3.08353 191 5.625V186.375C191 188.916 188.916 191 186.375 191H175.125C172.584 191 170.5 188.916 170.5 186.375V151.125V150.125H169.5H169.213H168.926H168.639H168.352H168.064H167.777H167.49H167.203H166.916H166.629H166.342H166.055H165.768H165.48H165.193H164.906H164.619H164.332H164.045H163.758H163.471H163.184H162.896H162.609H162.322H162.035H161.748H161.461H161.174H160.887H160.6H160.312H160.025H159.738H159.451H159.164H158.877H158.59H158.303H158.016H157.728H157.441H157.154H156.867H156.58H156.293H156.006H155.719H155.432H155.144H154.857H154.57H154.283H153.996H153.709H153.422H153.135H152.847H152.56H152.273H151.986H151.699H151.412H151.125H150.838H150.551H150.263H149.976H149.689H149.402H149.115H148.828H148.541H148.254H147.967H147.679H147.392H147.105H146.818H146.531H146.244H145.957H145.67H145.383H145.095H144.808H144.521H144.234H143.947H143.66H143.373H143.086H142.799H142.511H142.224H141.937H141.65H141.363H141.076H140.789H140.502H140.215H139.927H139.64H139.353H139.066H138.779H138.492H138.205H137.918H137.631H137.343H137.056H136.769H136.482H136.195H135.908H135.621H135.334H135.047H134.759H134.472H134.185H133.898H133.611H133.324H133.037H132.75H132.463H132.175H131.888H131.601H131.314H131.027H130.74H130.453H130.166H129.879H129.591H129.304H129.017H128.73H128.443H128.156H127.869H127.582H127.295H127.007H126.72H126.433H126.146H125.859H125.572H125.285H124.998H124.711H124.423H124.136H123.849H123.562H123.275H122.988H122.701H122.414H122.127H121.839H121.552H121.265H120.978H120.691H120.404H120.117H119.83H119.543H119.255H118.968H118.681H118.394H118.107H117.82H117.533H117.246H116.959H116.671H116.384H116.097H115.81H115.523H115.236H114.949H114.662H114.375H114.087H113.8H113.513H113.226H112.939H112.652H112.365H112.078H111.791H111.503H111.216H110.929H110.642H110.355H110.068H109.781H109.494H109.207H108.919H108.632H108.345H108.058H107.771H107.484H107.197H106.91H106.623H106.335H106.048H105.761H105.474H105.187H104.9H104.613H104.326H104.039H103.751H103.464H103.177H102.89H102.603H102.316H102.029H101.742H101.455H101.167H100.88H100.593H100.306H100.019H99.7319H99.4448H99.1577H98.8706H98.5834H98.2963H98.0092H97.7221H97.435H97.1479H96.8608H96.5737H96.2866H95.9995H95.7123H95.4252H95.1381H94.851H94.5639H94.2768H93.9897H93.7026H93.4155H93.1283H92.8412H92.5541H92.267H91.9799H91.6928H91.4057H91.1186H90.8315H90.5444H90.2573H89.9701H89.683H89.3959H89.1088H88.8217H88.5346H88.2475H87.9604H87.6733H87.3862H87.099H86.8119H86.5248H86.2377H85.9506H85.6635H85.3764H85.0893H84.8022H84.5151H84.228H83.9408H83.6537H83.3666H83.0795H82.7924H82.5053H82.2182H81.9311H81.644H81.3569H81.0697H80.7826H80.4955H80.2084H79.9213H79.6342H79.3471H79.06H78.7729H78.4858H78.1987H77.9116H77.6244H77.3373H77.0502H76.7631H76.476H76.1889H75.9018H75.6147H75.3276H75.0405H74.7534H74.4662H74.1791H73.892H73.6049H73.3178H73.0307H72.7436H72.4565H72.1694H71.8823H71.5952H71.3081H71.0209H70.7338H70.4467H70.1596H69.8725H69.5854H69.2983H69.0112H68.7241H68.437H68.1499H67.8628H67.5756H67.2885H67.0014H66.7143H66.4272H66.1401H65.853H65.5659H65.2788H64.9917H64.7046H64.4175H64.1303H63.8432H63.5561H63.269H62.9819H62.6948H62.4077H62.1206H61.8335H61.5464H61.2593H60.9722H60.6851H60.3979H60.1108H59.8237H59.5366H59.2495H58.9624H58.6753H58.3882H58.1011H57.814H57.5269H57.2398H56.9527H56.6656H56.3784H56.0913H55.8042H55.5171H55.23H54.9429H54.6558H54.3687H54.0816H53.7945H53.5074H53.2203H52.9332H52.6461H52.3589H52.0718H51.7847H51.4976H51.2105H50.9234H50.6363H50.3492H50.0621H49.775H49.4879H49.2008H48.9137H48.6266H48.3395H48.0523H47.7652H47.4781H47.191H46.9039H46.6168H46.3297H46.0426H45.7555H45.4684H45.1813H44.8942H44.6071H44.32H44.0329H43.7458H43.4587H43.1715H42.8844H42.5973H42.3102H42.0231H41.736H41.4489H41.1618H40.8747H40.5876H40.3005H40.0134H39.7263H39.4392H39.1521H38.865H38.5779H38.2907H38.0036H37.7165H37.4294H37.1423H36.8552H36.5681H36.281H35.9939H35.7068H35.4197H35.1326H34.8455H34.5584H34.2713H33.9842H33.6971H33.41H33.1229H32.8358H32.5486H32.2615H31.9744H31.6873H31.4002H31.1131H30.826H30.5389H30.2518H29.9647H29.6776H29.3905H29.1034H28.8163H28.5292H28.2421H27.955H27.6679H27.3808H27.0937H26.8066H26.5195H26.2323H25.9452H25.6581H25.371H25.0839H24.7968H24.5097H24.2226H23.9355H23.6484H23.3613H23.0742H22.7871H22.5H21.5V151.125V186.375C21.5 188.916 19.4165 191 16.875 191H5.625C3.08353 191 1 188.916 1 186.375V5.625C1 3.08353 3.08353 1 5.625 1H16.875C19.4165 1 21.5 3.08353 21.5 5.625V55.125ZM42.75 104.875H54.5V117.363C54.5 121.022 57.4658 123.988 61.125 123.988C64.7842 123.988 67.75 121.022 67.75 117.363V104.875H79.5C82.0546 104.875 84.125 106.945 84.125 109.5V139.875V140.875H85.125H96.3677H97.3677V139.875V96.375C97.3677 93.8204 99.438 91.75 101.993 91.75H120.118V106.125C120.118 109.784 123.083 112.75 126.743 112.75C130.402 112.75 133.368 109.784 133.368 106.125V91.75H151.493C154.047 91.75 156.118 93.8204 156.118 96.375V139.875V140.875H157.118H169.5H170.5V139.875V66.375V65.375H169.5H22.5H21.5V66.375V139.875V140.875H22.5H37.125H38.125V139.875V109.5C38.125 106.945 40.1954 104.875 42.75 104.875Z" stroke="white" stroke-width="2"/>
</svg>
