<svg width="46" height="45" viewBox="0 0 46 45" fill="none" xmlns="http://www.w3.org/2000/svg">
<path d="M37.4423 24.6281C34.7427 24.0202 33.0455 21.333 33.6521 18.6261L34.2317 16.0391C35.7855 9.10198 31.6355 1.99693 24.7365 0.354808C17.707 -1.31837 10.689 3.13752 9.19165 10.2246C7.72172 17.18 12.3524 23.9797 19.2708 25.5378L21.8509 26.1189C24.5505 26.7267 26.2473 29.4138 25.641 32.1207C24.402 37.6524 27.7196 43.3354 33.2303 44.6026C38.7463 45.8711 44.2341 42.3871 45.4494 36.8446C46.6633 31.3076 42.9588 25.8705 37.4423 24.6281Z" fill="#1F95C3"/>
<path d="M3.01551 27.837C-0.958296 31.7322 -0.958296 38.0472 3.01551 41.9421C6.98871 45.8371 13.4309 45.8371 17.4047 41.9421C21.3778 38.0472 21.3778 31.7322 17.4047 27.837C13.4309 23.9423 6.98871 23.9423 3.01551 27.837Z" fill="url(#paint0_linear)"/>
<defs>
<linearGradient id="paint0_linear" x1="0.0351469" y1="34.8896" x2="20.3846" y2="34.8896" gradientUnits="userSpaceOnUse">
<stop stop-color="#F18E3F"/>
<stop offset="0.580392" stop-color="#EC693C"/>
<stop offset="1" stop-color="#E83E39"/>
</linearGradient>
</defs>
</svg>
