<svg width="1497" height="265" viewBox="0 0 1497 265" fill="none" xmlns="http://www.w3.org/2000/svg">
<mask id="path-2-inside-1" fill="white">
<path fill-rule="evenodd" clip-rule="evenodd" d="M1968.29 125.803C1968.29 135.912 1955.74 157.084 1936.01 157.084C1915.09 157.084 1902.14 144.114 1907.32 124.468C1907.92 122.37 1908.32 120.463 1908.92 118.555C1903.74 118.746 1898.16 120.463 1892.38 123.705C1886.6 126.948 1881.62 134.959 1877.04 140.49V229.946C1877.04 246.731 1891.19 248.829 1909.52 249.783V261.799H1795.16V249.783C1810.5 248.638 1820.66 247.684 1820.66 232.044V133.814C1820.66 118.174 1806.91 112.07 1792.57 110.735V98.7186L1874.25 94.3316L1876.84 96.8112V120.272H1877.64C1924.66 68.0099 1968.29 100.054 1968.29 125.994V125.803ZM284.814 39.2086C265.289 40.9252 252.14 50.4621 244.171 67.4377C218.272 122.37 184.602 202.289 159.499 261.036H125.232L41.7558 66.484C33.3882 48.5547 20.2392 41.6882 0.316395 39.0178V26.2384H131.607V38.6364C97.5395 42.6419 97.938 45.3122 102.52 58.473C106.106 68.0099 112.88 83.8411 122.443 105.585C132.006 127.329 146.151 160.517 165.078 205.15C174.641 182.452 223.85 69.3451 223.85 53.1324C223.85 42.4511 200.939 40.353 186.594 39.2086V26.0477H285.013V39.2086H284.814ZM391.002 261.036H283.618V249.02C296.568 248.066 309.518 246.921 309.518 231.281V136.294C309.518 120.653 292.982 114.741 279.036 113.215V101.198L362.313 93.378L365.501 99.2908V228.992C365.501 243.297 378.451 247.494 391.002 249.02V261.036ZM371.278 35.966C371.278 61.9063 335.816 76.4023 313.702 57.1379C282.024 29.481 329.64 -13.4349 361.317 14.7942C367.892 20.7071 371.278 27.7643 371.278 35.966ZM606.367 109.591C594.613 111.307 585.05 117.792 579.272 128.855L516.515 261.227H485.037C471.888 232.235 462.326 208.011 452.962 188.747C443.598 169.673 433.836 149.073 423.476 127.138C418.695 116.839 407.538 111.117 396.78 109.591V100.244H502.171V109.591C498.187 109.781 480.057 112.07 480.057 117.983C480.057 123.133 516.914 198.856 522.492 210.491C528.868 196.948 560.146 133.433 560.146 122.179C560.146 114.168 541.618 110.544 535.243 109.591V100.244H605.969V109.591H606.367ZM808.583 254.932C783.082 265.804 735.865 271.336 725.904 240.246L713.751 249.783C680.281 274.197 617.922 267.521 617.922 222.698C617.922 170.245 682.671 174.251 725.107 154.795C725.107 135.722 728.693 104.441 700.403 104.441C692.035 104.441 685.461 106.73 679.484 110.544C680.679 117.983 699.606 154.032 654.979 154.032C617.125 154.032 607.762 107.493 676.894 94.1409C701 89.5632 737.658 90.1354 758.179 101.198C776.109 110.735 780.492 126.566 780.492 147.166C780.492 158.801 779.098 228.801 782.285 234.714C787.067 243.679 798.024 242.916 808.783 242.916V254.932H808.583ZM724.908 169.864C699.606 178.065 676.695 186.648 676.695 213.924C676.695 242.153 702.793 241.009 713.552 234.524C717.735 232.044 721.322 228.992 724.31 225.368L725.107 169.864H724.908ZM1125.55 50.2713C1159.02 71.4432 1175.16 104.441 1175.16 145.068C1175.16 225.177 1104.64 260.845 1029.33 260.845H907.002V247.875C923.139 247.303 942.664 247.494 942.664 228.038V61.5248C942.664 40.7345 921.745 40.7345 907.002 39.3993V25.857H1035.9C1066.78 25.857 1098.26 32.7235 1125.55 50.0806V50.2713ZM1090.69 218.692C1117.19 176.73 1121.37 40.9252 1028.13 40.9252C1024.15 40.9252 1019.57 40.9252 1014.39 41.116C1009.4 41.3067 1007.61 42.6419 1005.02 42.6419V221.172C1005.02 239.673 1014.78 245.968 1034.91 245.968C1059.01 245.968 1078.34 237.766 1090.49 218.692H1090.69ZM1382.76 219.265C1364.63 247.684 1334.15 263.516 1299.08 263.516C1192.89 263.516 1181.14 162.616 1225.97 117.22C1263.62 79.4541 1354.67 80.0264 1373.59 134.005C1378.37 147.357 1377.98 159.755 1377.98 173.297H1262.42C1262.42 212.017 1276.77 239.864 1318.81 239.864C1340.72 239.864 1357.85 226.894 1369.61 210.109L1382.56 219.074L1382.76 219.265ZM1318.01 160.517C1318.01 140.872 1317.61 104.822 1292.31 104.822C1267.4 104.822 1263.42 136.485 1262.82 160.517H1318.01ZM1496.92 263.516C1439.14 263.516 1401.68 232.616 1401.68 176.921C1401.68 127.329 1445.32 91.2798 1499.9 91.2798C1570.43 91.2798 1576.61 135.531 1561.46 152.507C1550.71 164.332 1496.92 166.049 1511.86 122.37C1515.44 112.07 1516.84 109.4 1510.26 105.967C1500.7 101.007 1484.96 105.394 1475.6 119.89C1461.25 142.397 1457.87 196.376 1478.19 221.935C1496.72 245.205 1526.4 243.297 1542.34 231.662C1549.71 226.322 1556.48 218.502 1562.26 208.583L1575.01 217.166C1559.47 245.968 1531.38 263.706 1497.11 263.706L1496.92 263.516ZM1759.7 115.313C1807.31 158.038 1793.96 263.516 1684.99 263.516C1582.58 263.516 1564.05 160.708 1613.86 115.313C1648.93 83.4596 1722.64 82.6967 1759.7 115.313ZM1716.07 228.611C1725.63 205.341 1729.81 130.381 1705.31 110.544C1692.36 100.054 1666.46 101.198 1656.3 127.52C1647.73 149.645 1643.55 224.414 1668.25 244.251C1681.2 254.551 1706.1 253.407 1716.07 228.611Z"/>
</mask>
<path fill-rule="evenodd" clip-rule="evenodd" d="M1968.29 125.803C1968.29 135.912 1955.74 157.084 1936.01 157.084C1915.09 157.084 1902.14 144.114 1907.32 124.468C1907.92 122.37 1908.32 120.463 1908.92 118.555C1903.74 118.746 1898.16 120.463 1892.38 123.705C1886.6 126.948 1881.62 134.959 1877.04 140.49V229.946C1877.04 246.731 1891.19 248.829 1909.52 249.783V261.799H1795.16V249.783C1810.5 248.638 1820.66 247.684 1820.66 232.044V133.814C1820.66 118.174 1806.91 112.07 1792.57 110.735V98.7186L1874.25 94.3316L1876.84 96.8112V120.272H1877.64C1924.66 68.0099 1968.29 100.054 1968.29 125.994V125.803ZM284.814 39.2086C265.289 40.9252 252.14 50.4621 244.171 67.4377C218.272 122.37 184.602 202.289 159.499 261.036H125.232L41.7558 66.484C33.3882 48.5547 20.2392 41.6882 0.316395 39.0178V26.2384H131.607V38.6364C97.5395 42.6419 97.938 45.3122 102.52 58.473C106.106 68.0099 112.88 83.8411 122.443 105.585C132.006 127.329 146.151 160.517 165.078 205.15C174.641 182.452 223.85 69.3451 223.85 53.1324C223.85 42.4511 200.939 40.353 186.594 39.2086V26.0477H285.013V39.2086H284.814ZM391.002 261.036H283.618V249.02C296.568 248.066 309.518 246.921 309.518 231.281V136.294C309.518 120.653 292.982 114.741 279.036 113.215V101.198L362.313 93.378L365.501 99.2908V228.992C365.501 243.297 378.451 247.494 391.002 249.02V261.036ZM371.278 35.966C371.278 61.9063 335.816 76.4023 313.702 57.1379C282.024 29.481 329.64 -13.4349 361.317 14.7942C367.892 20.7071 371.278 27.7643 371.278 35.966ZM606.367 109.591C594.613 111.307 585.05 117.792 579.272 128.855L516.515 261.227H485.037C471.888 232.235 462.326 208.011 452.962 188.747C443.598 169.673 433.836 149.073 423.476 127.138C418.695 116.839 407.538 111.117 396.78 109.591V100.244H502.171V109.591C498.187 109.781 480.057 112.07 480.057 117.983C480.057 123.133 516.914 198.856 522.492 210.491C528.868 196.948 560.146 133.433 560.146 122.179C560.146 114.168 541.618 110.544 535.243 109.591V100.244H605.969V109.591H606.367ZM808.583 254.932C783.082 265.804 735.865 271.336 725.904 240.246L713.751 249.783C680.281 274.197 617.922 267.521 617.922 222.698C617.922 170.245 682.671 174.251 725.107 154.795C725.107 135.722 728.693 104.441 700.403 104.441C692.035 104.441 685.461 106.73 679.484 110.544C680.679 117.983 699.606 154.032 654.979 154.032C617.125 154.032 607.762 107.493 676.894 94.1409C701 89.5632 737.658 90.1354 758.179 101.198C776.109 110.735 780.492 126.566 780.492 147.166C780.492 158.801 779.098 228.801 782.285 234.714C787.067 243.679 798.024 242.916 808.783 242.916V254.932H808.583ZM724.908 169.864C699.606 178.065 676.695 186.648 676.695 213.924C676.695 242.153 702.793 241.009 713.552 234.524C717.735 232.044 721.322 228.992 724.31 225.368L725.107 169.864H724.908ZM1125.55 50.2713C1159.02 71.4432 1175.16 104.441 1175.16 145.068C1175.16 225.177 1104.64 260.845 1029.33 260.845H907.002V247.875C923.139 247.303 942.664 247.494 942.664 228.038V61.5248C942.664 40.7345 921.745 40.7345 907.002 39.3993V25.857H1035.9C1066.78 25.857 1098.26 32.7235 1125.55 50.0806V50.2713ZM1090.69 218.692C1117.19 176.73 1121.37 40.9252 1028.13 40.9252C1024.15 40.9252 1019.57 40.9252 1014.39 41.116C1009.4 41.3067 1007.61 42.6419 1005.02 42.6419V221.172C1005.02 239.673 1014.78 245.968 1034.91 245.968C1059.01 245.968 1078.34 237.766 1090.49 218.692H1090.69ZM1382.76 219.265C1364.63 247.684 1334.15 263.516 1299.08 263.516C1192.89 263.516 1181.14 162.616 1225.97 117.22C1263.62 79.4541 1354.67 80.0264 1373.59 134.005C1378.37 147.357 1377.98 159.755 1377.98 173.297H1262.42C1262.42 212.017 1276.77 239.864 1318.81 239.864C1340.72 239.864 1357.85 226.894 1369.61 210.109L1382.56 219.074L1382.76 219.265ZM1318.01 160.517C1318.01 140.872 1317.61 104.822 1292.31 104.822C1267.4 104.822 1263.42 136.485 1262.82 160.517H1318.01ZM1496.92 263.516C1439.14 263.516 1401.68 232.616 1401.68 176.921C1401.68 127.329 1445.32 91.2798 1499.9 91.2798C1570.43 91.2798 1576.61 135.531 1561.46 152.507C1550.71 164.332 1496.92 166.049 1511.86 122.37C1515.44 112.07 1516.84 109.4 1510.26 105.967C1500.7 101.007 1484.96 105.394 1475.6 119.89C1461.25 142.397 1457.87 196.376 1478.19 221.935C1496.72 245.205 1526.4 243.297 1542.34 231.662C1549.71 226.322 1556.48 218.502 1562.26 208.583L1575.01 217.166C1559.47 245.968 1531.38 263.706 1497.11 263.706L1496.92 263.516ZM1759.7 115.313C1807.31 158.038 1793.96 263.516 1684.99 263.516C1582.58 263.516 1564.05 160.708 1613.86 115.313C1648.93 83.4596 1722.64 82.6967 1759.7 115.313ZM1716.07 228.611C1725.63 205.341 1729.81 130.381 1705.31 110.544C1692.36 100.054 1666.46 101.198 1656.3 127.52C1647.73 149.645 1643.55 224.414 1668.25 244.251C1681.2 254.551 1706.1 253.407 1716.07 228.611Z" stroke="#938361" stroke-width="4" mask="url(#path-2-inside-1)"/>
</svg>
