<svg width="220" height="30" viewBox="0 0 220 30" fill="none" xmlns="http://www.w3.org/2000/svg">
<path fill-rule="evenodd" clip-rule="evenodd" d="M219.252 14.2419C219.252 15.3863 217.854 17.7831 215.657 17.7831C213.327 17.7831 211.884 16.3148 212.461 14.0907C212.528 13.8532 212.572 13.6373 212.639 13.4214C212.062 13.4429 211.441 13.6373 210.797 14.0044C210.153 14.3714 209.599 15.2783 209.088 15.9045V26.0316C209.088 27.9318 210.664 28.1693 212.706 28.2773V29.6376H199.967V28.2773C201.676 28.1477 202.808 28.0397 202.808 26.2691V15.1488C202.808 13.3782 201.276 12.6872 199.679 12.536V11.1757L208.777 10.6791L209.066 10.9598V13.6157H209.155C214.392 7.69923 219.252 11.3268 219.252 14.2635V14.2419ZM31.726 4.43871C29.5512 4.63304 28.0865 5.71269 27.1988 7.63446C24.3138 13.8532 20.5632 22.9006 17.767 29.5512H13.9499L4.65125 7.52649C3.71916 5.49676 2.25446 4.71941 0.0352173 4.41711V2.97039H14.66V4.37393C10.8651 4.82738 10.9095 5.12968 11.4199 6.61959C11.8194 7.69923 12.574 9.49144 13.6392 11.953C14.7044 14.4146 16.2801 18.1718 18.3884 23.2245C19.4536 20.655 24.9352 7.85038 24.9352 6.01499C24.9352 4.80579 22.383 4.56826 20.7852 4.43871V2.9488H31.7482V4.43871H31.726ZM43.5546 29.5512H31.5929V28.1909C33.0354 28.0829 34.4779 27.9534 34.4779 26.1828V15.4295C34.4779 13.6589 32.6359 12.9895 31.0825 12.8168V11.4564L40.3589 10.5711L40.714 11.2405V25.9236C40.714 27.5431 42.1565 28.0182 43.5546 28.1909V29.5512ZM41.3576 4.07163C41.3576 7.00826 37.4073 8.64932 34.944 6.46844C31.4153 3.33747 36.7193 -1.52093 40.2479 1.67482C40.9803 2.3442 41.3576 3.14313 41.3576 4.07163ZM67.5447 12.4065C66.2353 12.6008 65.1701 13.335 64.5265 14.5874L57.5359 29.5728H54.0295C52.5648 26.2907 51.4995 23.5484 50.4565 21.3675C49.4134 19.2082 48.326 16.8762 47.172 14.393C46.6394 13.227 45.3966 12.5792 44.1982 12.4065V11.3484H55.938V12.4065C55.4942 12.4281 53.4747 12.6872 53.4747 13.3566C53.4747 13.9396 57.5803 22.512 58.2016 23.8291C58.9118 22.296 62.396 15.1056 62.396 13.8316C62.396 12.9247 60.3321 12.5145 59.622 12.4065V11.3484H67.5003V12.4065H67.5447ZM90.07 28.8603C87.2294 30.0911 81.9698 30.7173 80.8601 27.1976L79.5064 28.2773C75.7781 31.0412 68.8318 30.2854 68.8318 25.2111C68.8318 19.273 76.0444 19.7265 80.7714 17.524C80.7714 15.3647 81.1708 11.8235 78.0195 11.8235C77.0874 11.8235 76.3551 12.0826 75.6893 12.5145C75.8225 13.3566 77.9307 17.4376 72.9596 17.4376C68.7431 17.4376 67.7 12.169 75.4008 10.6575C78.0861 10.1392 82.1695 10.204 84.4553 11.4564C86.4526 12.536 86.9409 14.3283 86.9409 16.6603C86.9409 17.9775 86.7855 25.902 87.1406 26.5714C87.6732 27.5863 88.8938 27.4999 90.0922 27.4999V28.8603H90.07ZM80.7492 19.2298C77.9307 20.1583 75.3786 21.13 75.3786 24.2178C75.3786 27.4136 78.2858 27.284 79.4842 26.5498C79.9502 26.2691 80.3497 25.9236 80.6826 25.5134L80.7714 19.2298H80.7492ZM125.378 5.69109C129.107 8.08791 130.904 11.8235 130.904 16.4228C130.904 25.4918 123.048 29.5297 114.659 29.5297H101.033V28.0613C102.831 27.9966 105.006 28.0182 105.006 25.8157V6.96508C105.006 4.61145 102.675 4.61145 101.033 4.4603V2.9272H115.392C118.831 2.9272 122.338 3.70455 125.378 5.6695V5.69109ZM121.495 24.7576C124.446 20.0072 124.912 4.63304 114.526 4.63304C114.082 4.63304 113.572 4.63304 112.995 4.65464C112.44 4.67623 112.24 4.82738 111.952 4.82738V25.0383C111.952 27.1328 113.039 27.8454 115.281 27.8454C117.966 27.8454 120.119 26.9169 121.472 24.7576H121.495ZM154.029 24.8224C152.009 28.0397 148.614 29.832 144.708 29.832C132.879 29.832 131.57 18.4093 136.563 13.2702C140.758 8.99481 150.9 9.05959 153.008 15.1704C153.54 16.6819 153.496 18.0854 153.496 19.6185H140.624C140.624 24.0019 142.222 27.1544 146.905 27.1544C149.346 27.1544 151.255 25.6861 152.564 23.7859L154.006 24.8008L154.029 24.8224ZM146.816 18.1718C146.816 15.9477 146.772 11.8667 143.953 11.8667C141.179 11.8667 140.735 15.4511 140.669 18.1718H146.816ZM166.745 29.832C160.309 29.832 156.137 26.3339 156.137 20.0288C156.137 14.4146 160.997 10.3336 167.078 10.3336C174.934 10.3336 175.622 15.3431 173.935 17.2649C172.737 18.6036 166.745 18.798 168.409 13.8532C168.809 12.6872 168.964 12.3849 168.232 11.9962C167.167 11.4348 165.413 11.9314 164.37 13.5725C162.772 16.1205 162.395 22.2313 164.659 25.1247C166.723 27.759 170.029 27.5431 171.805 26.2259C172.626 25.6213 173.38 24.736 174.024 23.6132L175.444 24.5849C173.713 27.8454 170.584 29.8535 166.767 29.8535L166.745 29.832ZM196.017 13.0543C201.321 17.8911 199.834 29.832 187.695 29.832C176.288 29.832 174.224 18.1934 179.772 13.0543C183.678 9.44826 191.889 9.36189 196.017 13.0543ZM191.157 25.8805C192.222 23.2461 192.688 14.7601 189.958 12.5145C188.516 11.3268 185.631 11.4564 184.499 14.4362C183.545 16.941 183.079 25.4054 185.83 27.6511C187.273 28.8171 190.047 28.6875 191.157 25.8805Z" fill="white"/>
</svg>
