<svg width="220" height="30" viewBox="0 0 220 30" fill="none" xmlns="http://www.w3.org/2000/svg">
<g clip-path="url(#clip0)">
<path fill-rule="evenodd" clip-rule="evenodd" d="M219.252 14.0103C219.252 15.1361 217.854 17.4939 215.657 17.4939C213.327 17.4939 211.884 16.0495 212.461 13.8616C212.528 13.6279 212.572 13.4155 212.639 13.2031C212.062 13.2243 211.441 13.4155 210.797 13.7766C210.153 14.1377 209.599 15.0299 209.088 15.6459V25.6083C209.088 27.4776 210.664 27.7112 212.706 27.8174V29.1557H199.967V27.8174C201.676 27.69 202.808 27.5838 202.808 25.8419V14.9024C202.808 13.1606 201.276 12.4809 199.679 12.3322V10.9939L208.777 10.5054L209.066 10.7815V13.3943H209.155C214.392 7.574 219.252 11.1426 219.252 14.0315V14.0103ZM31.726 4.36649C29.5512 4.55767 28.0865 5.61976 27.1988 7.51027C24.3137 13.6279 20.5632 22.5282 17.767 29.0707H13.9499L4.65122 7.40407C3.71913 5.40734 2.25443 4.64263 0.0351868 4.34525V2.92205H14.66V4.30276C10.8651 4.74884 10.9095 5.04623 11.4199 6.51191C11.8194 7.574 12.5739 9.33707 13.6392 11.7586C14.7044 14.1802 16.2801 17.8763 18.3883 22.8468C19.4536 20.3191 24.9351 7.72269 24.9351 5.91714C24.9351 4.7276 22.383 4.49394 20.7851 4.36649V2.90081H31.7482V4.36649H31.726ZM43.5546 29.0707H31.5929V27.7325C33.0354 27.6263 34.4779 27.4988 34.4779 25.757V15.1786C34.4779 13.4367 32.6359 12.7782 31.0824 12.6083V11.2701L40.3589 10.3992L40.714 11.0577V25.5021C40.714 27.0952 42.1565 27.5625 43.5546 27.7325V29.0707ZM41.3575 4.00538C41.3575 6.89426 37.4073 8.50864 34.9439 6.36322C31.4153 3.28316 36.7193 -1.49625 40.2479 1.64754C40.9803 2.30604 41.3575 3.09198 41.3575 4.00538ZM67.5446 12.2047C66.2353 12.3959 65.1701 13.1181 64.5265 14.3501L57.5358 29.0919H54.0294C52.5647 25.8632 51.4995 23.1655 50.4564 21.0201C49.4134 18.8959 48.326 16.6018 47.172 14.159C46.6393 13.0119 45.3966 12.3746 44.1982 12.2047V11.1639H55.938V12.2047C55.4941 12.226 53.4746 12.4809 53.4746 13.1393C53.4746 13.7129 57.5802 22.1459 58.2016 23.4416C58.9118 21.9335 62.396 14.8599 62.396 13.6067C62.396 12.7145 60.3321 12.3109 59.6219 12.2047V11.1639H67.5003V12.2047H67.5446ZM90.07 28.391C87.2294 29.6017 81.9697 30.2178 80.8601 26.7553L79.5064 27.8174C75.778 30.5364 68.8318 29.7929 68.8318 24.8011C68.8318 18.9596 76.0443 19.4057 80.7713 17.239C80.7713 15.1148 81.1708 11.6312 78.0195 11.6312C77.0874 11.6312 76.355 11.8861 75.6893 12.3109C75.8224 13.1393 77.9307 17.154 72.9596 17.154C68.743 17.154 67.7 11.9711 75.4008 10.4841C78.0861 9.97432 82.1695 10.038 84.4553 11.2701C86.4526 12.3322 86.9408 14.0952 86.9408 16.3893C86.9408 17.6851 86.7855 25.4808 87.1406 26.1393C87.6732 27.1377 88.8938 27.0527 90.0922 27.0527V28.391H90.07ZM80.7492 18.9171C77.9307 19.8305 75.3786 20.7864 75.3786 23.824C75.3786 26.9678 78.2858 26.8403 79.4842 26.1181C79.9502 25.8419 80.3497 25.5021 80.6826 25.0985L80.7713 18.9171H80.7492ZM125.378 5.59851C129.107 7.95635 130.904 11.6312 130.904 16.1557C130.904 25.0772 123.048 29.0495 114.659 29.0495H101.033V27.605C102.831 27.5413 105.006 27.5625 105.006 25.3959V6.85178C105.006 4.53642 102.675 4.53642 101.033 4.38773V2.87956H115.392C118.831 2.87956 122.338 3.64427 125.378 5.57727V5.59851ZM121.495 24.355C124.446 19.6818 124.912 4.55767 114.526 4.55767C114.082 4.55767 113.572 4.55767 112.995 4.57891C112.44 4.60015 112.24 4.74884 111.952 4.74884V24.6312C111.952 26.6916 113.039 27.3926 115.281 27.3926C117.966 27.3926 120.119 26.4792 121.472 24.355H121.495ZM154.029 24.4187C152.009 27.5838 148.614 29.3468 144.708 29.3468C132.879 29.3468 131.57 18.1099 136.563 13.0544C140.758 8.84851 150.9 8.91223 153.008 14.9237C153.54 16.4106 153.496 17.7913 153.496 19.2995H140.624C140.624 23.6116 142.222 26.7129 146.905 26.7129C149.346 26.7129 151.255 25.2684 152.564 23.3991L154.006 24.3975L154.029 24.4187ZM146.816 17.8763C146.816 15.6884 146.772 11.6737 143.953 11.6737C141.179 11.6737 140.735 15.1998 140.669 17.8763H146.816ZM166.745 29.3468C160.309 29.3468 156.137 25.9057 156.137 19.7031C156.137 14.1802 160.997 10.1655 167.078 10.1655C174.934 10.1655 175.622 15.0936 173.935 16.9841C172.737 18.3011 166.745 18.4923 168.409 13.6279C168.809 12.4809 168.964 12.1835 168.232 11.8011C167.167 11.2488 165.413 11.7374 164.37 13.3518C162.772 15.8583 162.395 21.8697 164.659 24.7161C166.723 27.3076 170.029 27.0952 171.805 25.7995C172.626 25.2047 173.38 24.3338 174.024 23.2292L175.444 24.1851C173.713 27.3926 170.584 29.3681 166.767 29.3681L166.745 29.3468ZM196.017 12.842C201.321 17.6001 199.834 29.3468 187.695 29.3468C176.288 29.3468 174.224 17.8975 179.772 12.842C183.678 9.29459 191.889 9.20962 196.017 12.842ZM191.157 25.4596C192.222 22.8681 192.688 14.5201 189.958 12.3109C188.516 11.1426 185.631 11.2701 184.499 14.2014C183.545 16.6655 183.079 24.9923 185.83 27.2014C187.273 28.3485 190.047 28.221 191.157 25.4596Z" fill="#B6000B"/>
</g>
<defs>
<clipPath id="clip0">
<path d="M0 0H220V29.5122H0V0Z" fill="white"/>
</clipPath>
</defs>
</svg>
