<svg width="1863" height="264" viewBox="0 0 1863 264" fill="none" xmlns="http://www.w3.org/2000/svg">
<path fill-rule="evenodd" clip-rule="evenodd" d="M1956.33 125.328C1956.33 135.399 1943.85 156.491 1924.25 156.491C1903.46 156.491 1890.59 143.57 1895.74 123.998C1896.33 121.908 1896.73 120.008 1897.32 118.108C1892.17 118.298 1886.63 120.008 1880.88 123.238C1875.14 126.469 1870.19 134.449 1865.64 139.96V229.078C1865.64 245.8 1879.7 247.89 1897.91 248.84V260.811H1784.25V248.84C1799.5 247.7 1809.6 246.75 1809.6 231.168V133.309C1809.6 117.728 1795.93 111.647 1781.68 110.317V98.346L1862.86 93.9756L1865.44 96.4458V119.818H1866.23C1912.96 67.7532 1956.33 99.6761 1956.33 125.518V125.328ZM283.083 39.0605C263.677 40.7707 250.608 50.2716 242.688 67.1831C216.945 121.908 183.48 201.525 158.53 260.051H124.471L41.502 66.233C33.1853 48.3714 20.1162 41.5308 0.314453 38.8705V26.1393H130.808V38.4905C96.9469 42.4808 97.3429 45.1411 101.897 58.2523C105.462 67.7532 112.194 83.5246 121.699 105.187C131.204 126.849 145.263 159.912 164.075 204.376C173.58 181.764 222.49 69.0833 222.49 52.9318C222.49 42.2908 199.718 40.2006 185.461 39.0605V25.9493H283.281V39.0605H283.083ZM388.626 260.051H281.895V248.08C294.766 247.13 307.637 245.99 307.637 230.408V135.779C307.637 120.198 291.202 114.307 277.341 112.787V100.816L360.112 93.0255L363.28 98.916V228.128C363.28 242.379 376.151 246.56 388.626 248.08V260.051ZM369.023 35.8302C369.023 61.6726 333.775 76.1139 311.796 56.9222C280.311 29.3696 327.637 -13.3843 359.122 14.7383C365.656 20.6288 369.023 27.6595 369.023 35.8302ZM602.683 109.177C591 110.887 581.495 117.348 575.753 128.369L513.377 260.241H482.09C469.021 231.358 459.516 207.226 450.21 188.034C440.903 169.032 431.2 148.511 420.903 126.659C416.151 116.398 405.062 110.697 394.369 109.177V99.8661H499.12V109.177C495.16 109.367 477.14 111.647 477.14 117.538C477.14 122.668 513.773 198.105 519.318 209.696C525.654 196.205 556.743 132.929 556.743 121.718C556.743 113.737 538.327 110.127 531.991 109.177V99.8661H602.287V109.177H602.683ZM803.67 253.97C778.324 264.801 731.394 270.312 721.493 239.339L709.414 248.84C676.147 273.162 614.168 266.511 614.168 221.857C614.168 169.603 678.523 173.593 720.701 154.211C720.701 135.209 724.265 104.047 696.147 104.047C687.83 104.047 681.296 106.327 675.355 110.127C676.543 117.538 695.355 153.451 650.999 153.451C613.376 153.451 604.069 107.087 672.781 93.7856C696.741 89.2251 733.176 89.7952 753.572 100.816C771.394 110.317 775.75 126.089 775.75 146.61C775.75 158.201 774.364 227.938 777.532 233.828C782.285 242.759 793.175 241.999 803.868 241.999V253.97H803.67ZM720.503 169.223C695.355 177.393 672.583 185.944 672.583 213.117C672.583 241.239 698.523 240.099 709.216 233.638C713.375 231.168 716.939 228.128 719.909 224.518L720.701 169.223H720.503ZM1118.72 50.0815C1151.98 71.1735 1168.02 104.047 1168.02 144.52C1168.02 224.328 1097.92 259.861 1023.07 259.861H901.491V246.94C917.53 246.37 936.936 246.56 936.936 227.178V61.2926C936.936 40.5807 916.144 40.5807 901.491 39.2506V25.7593H1029.61C1060.3 25.7593 1091.59 32.5999 1118.72 49.8915V50.0815ZM1084.06 217.867C1110.4 176.063 1114.56 40.7707 1021.89 40.7707C1017.93 40.7707 1013.37 40.7707 1008.22 40.9607C1003.27 41.1507 1001.49 42.4808 998.915 42.4808V220.337C998.915 238.769 1008.62 245.04 1028.62 245.04C1052.58 245.04 1071.79 236.869 1083.86 217.867H1084.06ZM1374.36 218.437C1356.34 246.75 1326.04 262.521 1291.19 262.521C1185.65 262.521 1173.96 162.002 1218.52 116.778C1255.94 79.1542 1346.44 79.7243 1365.25 133.499C1370 146.8 1369.6 159.152 1369.6 172.643H1254.75C1254.75 211.216 1269.01 238.959 1310.79 238.959C1332.57 238.959 1349.6 226.038 1361.29 209.316L1374.16 218.247L1374.36 218.437ZM1310 159.912C1310 140.34 1309.6 104.427 1284.46 104.427C1259.7 104.427 1255.74 135.969 1255.15 159.912H1310ZM1487.82 262.521C1430.39 262.521 1393.17 231.738 1393.17 176.253C1393.17 126.849 1436.53 90.9353 1490.79 90.9353C1560.89 90.9353 1567.03 135.019 1551.98 151.931C1541.28 163.712 1487.82 165.422 1502.67 121.908C1506.24 111.647 1507.62 108.987 1501.09 105.567C1491.58 100.626 1475.94 104.997 1466.63 119.438C1452.37 141.86 1449.01 195.635 1469.21 221.097C1487.62 244.279 1517.13 242.379 1532.97 230.788C1540.29 225.468 1547.03 217.677 1552.77 207.796L1565.44 216.347C1550 245.04 1522.08 262.711 1488.02 262.711L1487.82 262.521ZM1749 114.878C1796.33 157.441 1783.06 262.521 1674.75 262.521C1572.97 262.521 1554.55 160.102 1604.06 114.878C1638.91 83.1446 1712.17 82.3845 1749 114.878ZM1705.64 227.748C1715.14 204.566 1719.3 129.889 1694.95 110.127C1682.07 99.6761 1656.33 100.816 1646.23 127.039C1637.72 149.081 1633.56 223.568 1658.11 243.329C1670.99 253.59 1695.74 252.45 1705.64 227.748Z" fill="#E1DDD2"/>
</svg>
