<svg width="1897" height="265" viewBox="0 0 1897 265" fill="none" xmlns="http://www.w3.org/2000/svg">
<mask id="path-2-inside-1" fill="white">
<path fill-rule="evenodd" clip-rule="evenodd" d="M1890.29 125.803C1890.29 135.912 1877.74 157.084 1858.01 157.084C1837.09 157.084 1824.14 144.114 1829.32 124.468C1829.92 122.37 1830.32 120.463 1830.92 118.555C1825.74 118.746 1820.16 120.463 1814.38 123.705C1808.6 126.948 1803.62 134.959 1799.04 140.49V229.946C1799.04 246.731 1813.19 248.829 1831.52 249.783V261.799H1717.16V249.783C1732.5 248.638 1742.66 247.684 1742.66 232.044V133.814C1742.66 118.174 1728.91 112.07 1714.57 110.735V98.7186L1796.25 94.3316L1798.84 96.8112V120.272H1799.64C1846.66 68.0099 1890.29 100.054 1890.29 125.994V125.803ZM206.814 39.2086C187.289 40.9252 174.14 50.4621 166.171 67.4377C140.272 122.37 106.602 202.289 81.4994 261.036H47.2322L-36.2442 66.484C-44.6118 48.5547 -57.7608 41.6882 -77.6836 39.0178V26.2384H53.6075V38.6364C19.5395 42.6419 19.938 45.3122 24.5202 58.473C28.1063 68.0099 34.8801 83.8411 44.443 105.585C54.0059 127.329 68.1511 160.517 87.0777 205.15C96.6407 182.452 145.85 69.3451 145.85 53.1324C145.85 42.4511 122.939 40.353 108.594 39.2086V26.0477H207.013V39.2086H206.814ZM313.002 261.036H205.618V249.02C218.568 248.066 231.518 246.921 231.518 231.281V136.294C231.518 120.653 214.982 114.741 201.036 113.215V101.198L284.313 93.378L287.501 99.2908V228.992C287.501 243.297 300.451 247.494 313.002 249.02V261.036ZM293.278 35.966C293.278 61.9063 257.816 76.4023 235.702 57.1379C204.024 29.481 251.64 -13.4349 283.317 14.7942C289.892 20.7071 293.278 27.7643 293.278 35.966ZM528.367 109.591C516.613 111.307 507.05 117.792 501.272 128.855L438.515 261.227H407.037C393.888 232.235 384.326 208.011 374.962 188.747C365.598 169.673 355.836 149.073 345.476 127.138C340.695 116.839 329.538 111.117 318.78 109.591V100.244H424.171V109.591C420.187 109.781 402.057 112.07 402.057 117.983C402.057 123.133 438.914 198.856 444.492 210.491C450.868 196.948 482.146 133.433 482.146 122.179C482.146 114.168 463.618 110.544 457.243 109.591V100.244H527.969V109.591H528.367ZM730.583 254.932C705.082 265.804 657.865 271.336 647.904 240.246L635.751 249.783C602.281 274.197 539.922 267.521 539.922 222.698C539.922 170.245 604.671 174.251 647.107 154.795C647.107 135.722 650.693 104.441 622.403 104.441C614.035 104.441 607.461 106.73 601.484 110.544C602.679 117.983 621.606 154.032 576.979 154.032C539.125 154.032 529.762 107.493 598.894 94.1409C623 89.5632 659.658 90.1354 680.179 101.198C698.109 110.735 702.492 126.566 702.492 147.166C702.492 158.801 701.098 228.801 704.285 234.714C709.067 243.679 720.024 242.916 730.783 242.916V254.932H730.583ZM646.908 169.864C621.606 178.065 598.695 186.648 598.695 213.924C598.695 242.153 624.793 241.009 635.552 234.524C639.735 232.044 643.322 228.992 646.31 225.368L647.107 169.864H646.908ZM1047.55 50.2713C1081.02 71.4432 1097.16 104.441 1097.16 145.068C1097.16 225.177 1026.64 260.845 951.328 260.845H829.002V247.875C845.139 247.303 864.664 247.494 864.664 228.038V61.5248C864.664 40.7345 843.745 40.7345 829.002 39.3993V25.857H957.902C988.782 25.857 1020.26 32.7235 1047.55 50.0806V50.2713ZM1012.69 218.692C1039.19 176.73 1043.37 40.9252 950.132 40.9252C946.148 40.9252 941.566 40.9252 936.386 41.116C931.405 41.3067 929.612 42.6419 927.022 42.6419V221.172C927.022 239.673 936.784 245.968 956.906 245.968C981.013 245.968 1000.34 237.766 1012.49 218.692H1012.69ZM1304.76 219.265C1286.63 247.684 1256.15 263.516 1221.08 263.516C1114.89 263.516 1103.14 162.616 1147.97 117.22C1185.62 79.4541 1276.67 80.0264 1295.59 134.005C1300.37 147.357 1299.98 159.755 1299.98 173.297H1184.42C1184.42 212.017 1198.77 239.864 1240.81 239.864C1262.72 239.864 1279.85 226.894 1291.61 210.109L1304.56 219.074L1304.76 219.265ZM1240.01 160.517C1240.01 140.872 1239.61 104.822 1214.31 104.822C1189.4 104.822 1185.42 136.485 1184.82 160.517H1240.01ZM1418.92 263.516C1361.14 263.516 1323.68 232.616 1323.68 176.921C1323.68 127.329 1367.32 91.2798 1421.9 91.2798C1492.43 91.2798 1498.61 135.531 1483.46 152.507C1472.71 164.332 1418.92 166.049 1433.86 122.37C1437.44 112.07 1438.84 109.4 1432.26 105.967C1422.7 101.007 1406.96 105.394 1397.6 119.89C1383.25 142.397 1379.87 196.376 1400.19 221.935C1418.72 245.205 1448.4 243.297 1464.34 231.662C1471.71 226.322 1478.48 218.502 1484.26 208.583L1497.01 217.166C1481.47 245.968 1453.38 263.706 1419.11 263.706L1418.92 263.516ZM1681.7 115.313C1729.31 158.038 1715.96 263.516 1606.99 263.516C1504.58 263.516 1486.05 160.708 1535.86 115.313C1570.93 83.4596 1644.64 82.6967 1681.7 115.313ZM1638.07 228.611C1647.63 205.341 1651.81 130.381 1627.31 110.544C1614.36 100.054 1588.46 101.198 1578.3 127.52C1569.73 149.645 1565.55 224.414 1590.25 244.251C1603.2 254.551 1628.1 253.407 1638.07 228.611Z"/>
</mask>
<path fill-rule="evenodd" clip-rule="evenodd" d="M1890.29 125.803C1890.29 135.912 1877.74 157.084 1858.01 157.084C1837.09 157.084 1824.14 144.114 1829.32 124.468C1829.92 122.37 1830.32 120.463 1830.92 118.555C1825.74 118.746 1820.16 120.463 1814.38 123.705C1808.6 126.948 1803.62 134.959 1799.04 140.49V229.946C1799.04 246.731 1813.19 248.829 1831.52 249.783V261.799H1717.16V249.783C1732.5 248.638 1742.66 247.684 1742.66 232.044V133.814C1742.66 118.174 1728.91 112.07 1714.57 110.735V98.7186L1796.25 94.3316L1798.84 96.8112V120.272H1799.64C1846.66 68.0099 1890.29 100.054 1890.29 125.994V125.803ZM206.814 39.2086C187.289 40.9252 174.14 50.4621 166.171 67.4377C140.272 122.37 106.602 202.289 81.4994 261.036H47.2322L-36.2442 66.484C-44.6118 48.5547 -57.7608 41.6882 -77.6836 39.0178V26.2384H53.6075V38.6364C19.5395 42.6419 19.938 45.3122 24.5202 58.473C28.1063 68.0099 34.8801 83.8411 44.443 105.585C54.0059 127.329 68.1511 160.517 87.0777 205.15C96.6407 182.452 145.85 69.3451 145.85 53.1324C145.85 42.4511 122.939 40.353 108.594 39.2086V26.0477H207.013V39.2086H206.814ZM313.002 261.036H205.618V249.02C218.568 248.066 231.518 246.921 231.518 231.281V136.294C231.518 120.653 214.982 114.741 201.036 113.215V101.198L284.313 93.378L287.501 99.2908V228.992C287.501 243.297 300.451 247.494 313.002 249.02V261.036ZM293.278 35.966C293.278 61.9063 257.816 76.4023 235.702 57.1379C204.024 29.481 251.64 -13.4349 283.317 14.7942C289.892 20.7071 293.278 27.7643 293.278 35.966ZM528.367 109.591C516.613 111.307 507.05 117.792 501.272 128.855L438.515 261.227H407.037C393.888 232.235 384.326 208.011 374.962 188.747C365.598 169.673 355.836 149.073 345.476 127.138C340.695 116.839 329.538 111.117 318.78 109.591V100.244H424.171V109.591C420.187 109.781 402.057 112.07 402.057 117.983C402.057 123.133 438.914 198.856 444.492 210.491C450.868 196.948 482.146 133.433 482.146 122.179C482.146 114.168 463.618 110.544 457.243 109.591V100.244H527.969V109.591H528.367ZM730.583 254.932C705.082 265.804 657.865 271.336 647.904 240.246L635.751 249.783C602.281 274.197 539.922 267.521 539.922 222.698C539.922 170.245 604.671 174.251 647.107 154.795C647.107 135.722 650.693 104.441 622.403 104.441C614.035 104.441 607.461 106.73 601.484 110.544C602.679 117.983 621.606 154.032 576.979 154.032C539.125 154.032 529.762 107.493 598.894 94.1409C623 89.5632 659.658 90.1354 680.179 101.198C698.109 110.735 702.492 126.566 702.492 147.166C702.492 158.801 701.098 228.801 704.285 234.714C709.067 243.679 720.024 242.916 730.783 242.916V254.932H730.583ZM646.908 169.864C621.606 178.065 598.695 186.648 598.695 213.924C598.695 242.153 624.793 241.009 635.552 234.524C639.735 232.044 643.322 228.992 646.31 225.368L647.107 169.864H646.908ZM1047.55 50.2713C1081.02 71.4432 1097.16 104.441 1097.16 145.068C1097.16 225.177 1026.64 260.845 951.328 260.845H829.002V247.875C845.139 247.303 864.664 247.494 864.664 228.038V61.5248C864.664 40.7345 843.745 40.7345 829.002 39.3993V25.857H957.902C988.782 25.857 1020.26 32.7235 1047.55 50.0806V50.2713ZM1012.69 218.692C1039.19 176.73 1043.37 40.9252 950.132 40.9252C946.148 40.9252 941.566 40.9252 936.386 41.116C931.405 41.3067 929.612 42.6419 927.022 42.6419V221.172C927.022 239.673 936.784 245.968 956.906 245.968C981.013 245.968 1000.34 237.766 1012.49 218.692H1012.69ZM1304.76 219.265C1286.63 247.684 1256.15 263.516 1221.08 263.516C1114.89 263.516 1103.14 162.616 1147.97 117.22C1185.62 79.4541 1276.67 80.0264 1295.59 134.005C1300.37 147.357 1299.98 159.755 1299.98 173.297H1184.42C1184.42 212.017 1198.77 239.864 1240.81 239.864C1262.72 239.864 1279.85 226.894 1291.61 210.109L1304.56 219.074L1304.76 219.265ZM1240.01 160.517C1240.01 140.872 1239.61 104.822 1214.31 104.822C1189.4 104.822 1185.42 136.485 1184.82 160.517H1240.01ZM1418.92 263.516C1361.14 263.516 1323.68 232.616 1323.68 176.921C1323.68 127.329 1367.32 91.2798 1421.9 91.2798C1492.43 91.2798 1498.61 135.531 1483.46 152.507C1472.71 164.332 1418.92 166.049 1433.86 122.37C1437.44 112.07 1438.84 109.4 1432.26 105.967C1422.7 101.007 1406.96 105.394 1397.6 119.89C1383.25 142.397 1379.87 196.376 1400.19 221.935C1418.72 245.205 1448.4 243.297 1464.34 231.662C1471.71 226.322 1478.48 218.502 1484.26 208.583L1497.01 217.166C1481.47 245.968 1453.38 263.706 1419.11 263.706L1418.92 263.516ZM1681.7 115.313C1729.31 158.038 1715.96 263.516 1606.99 263.516C1504.58 263.516 1486.05 160.708 1535.86 115.313C1570.93 83.4596 1644.64 82.6967 1681.7 115.313ZM1638.07 228.611C1647.63 205.341 1651.81 130.381 1627.31 110.544C1614.36 100.054 1588.46 101.198 1578.3 127.52C1569.73 149.645 1565.55 224.414 1590.25 244.251C1603.2 254.551 1628.1 253.407 1638.07 228.611Z" stroke="#E1DDD2" stroke-width="4" mask="url(#path-2-inside-1)"/>
</svg>
