<svg width="1920" height="264" viewBox="0 0 1920 264" fill="none" xmlns="http://www.w3.org/2000/svg">
<g opacity="0.5">
<path fill-rule="evenodd" clip-rule="evenodd" d="M1935.33 125.329C1935.33 135.399 1922.85 156.491 1903.25 156.491C1882.46 156.491 1869.59 143.57 1874.74 123.998C1875.33 121.908 1875.73 120.008 1876.32 118.108C1871.17 118.298 1865.63 120.008 1859.88 123.238C1854.14 126.469 1849.19 134.449 1844.64 139.96V229.078C1844.64 245.8 1858.7 247.89 1876.91 248.84V260.811H1763.25V248.84C1778.5 247.7 1788.6 246.75 1788.6 231.168V133.309C1788.6 117.728 1774.93 111.647 1760.68 110.317V98.346L1841.86 93.9756L1844.44 96.4459V119.818H1845.23C1891.96 67.7532 1935.33 99.6762 1935.33 125.519V125.329ZM262.083 39.0606C242.677 40.7708 229.608 50.2716 221.688 67.1832C195.945 121.908 162.48 201.526 137.53 260.051H103.471L20.502 66.2331C12.1853 48.3714 -0.883823 41.5308 -20.6855 38.8706V26.1394H109.808V38.4905C75.9469 42.4809 76.3429 45.1412 80.8973 58.2524C84.4616 67.7532 91.1942 83.5247 100.699 105.187C110.204 126.849 124.263 159.912 143.075 204.376C152.58 181.764 201.49 69.0834 201.49 52.9319C201.49 42.2909 178.718 40.2007 164.461 39.0606V25.9494H262.281V39.0606H262.083ZM367.626 260.051H260.895V248.08C273.766 247.13 286.637 245.99 286.637 230.408V135.779C286.637 120.198 270.202 114.308 256.341 112.787V100.816L339.112 93.0256L342.28 98.9161V228.128C342.28 242.379 355.151 246.56 367.626 248.08V260.051ZM348.023 35.8303C348.023 61.6727 312.775 76.114 290.796 56.9222C259.311 29.3697 306.637 -13.3842 338.122 14.7384C344.656 20.6289 348.023 27.6595 348.023 35.8303ZM581.683 109.177C570 110.887 560.495 117.348 554.753 128.369L492.377 260.241H461.09C448.021 231.358 438.516 207.226 429.21 188.034C419.903 169.033 410.2 148.511 399.903 126.659C395.151 116.398 384.062 110.697 373.369 109.177V99.8662H478.12V109.177C474.16 109.367 456.14 111.647 456.14 117.538C456.14 122.668 492.773 198.105 498.318 209.696C504.654 196.205 535.743 132.929 535.743 121.718C535.743 113.737 517.327 110.127 510.991 109.177V99.8662H581.287V109.177H581.683ZM782.67 253.97C757.324 264.801 710.394 270.312 700.493 239.339L688.414 248.84C655.147 273.162 593.168 266.512 593.168 221.857C593.168 169.603 657.523 173.593 699.701 154.211C699.701 135.209 703.266 104.047 675.147 104.047C666.83 104.047 660.296 106.327 654.355 110.127C655.543 117.538 674.355 153.451 629.999 153.451C592.376 153.451 583.069 107.087 651.781 93.7856C675.741 89.2252 712.176 89.7953 732.572 100.816C750.394 110.317 754.75 126.089 754.75 146.61C754.75 158.202 753.364 227.938 756.532 233.829C761.285 242.759 772.175 241.999 782.868 241.999V253.97H782.67ZM699.503 169.223C674.355 177.393 651.583 185.944 651.583 213.117C651.583 241.239 677.523 240.099 688.216 233.639C692.375 231.168 695.939 228.128 698.909 224.518L699.701 169.223H699.503ZM1097.72 50.0816C1130.98 71.1736 1147.02 104.047 1147.02 144.52C1147.02 224.328 1076.92 259.861 1002.07 259.861H880.491V246.94C896.53 246.37 915.936 246.56 915.936 227.178V61.2926C915.936 40.5807 895.144 40.5807 880.491 39.2506V25.7594H1008.61C1039.3 25.7594 1070.59 32.6 1097.72 49.8916V50.0816ZM1063.06 217.867C1089.4 176.063 1093.56 40.7708 1000.89 40.7708C996.925 40.7708 992.371 40.7708 987.222 40.9608C982.272 41.1508 980.49 42.4809 977.915 42.4809V220.337C977.915 238.769 987.618 245.04 1007.62 245.04C1031.58 245.04 1050.79 236.869 1062.86 217.867H1063.06ZM1353.36 218.437C1335.34 246.75 1305.04 262.521 1270.19 262.521C1164.65 262.521 1152.96 162.002 1197.52 116.778C1234.94 79.1543 1325.44 79.7243 1344.25 133.499C1349 146.801 1348.6 159.152 1348.6 172.643H1233.75C1233.75 211.216 1248.01 238.959 1289.79 238.959C1311.57 238.959 1328.6 226.038 1340.29 209.316L1353.16 218.247L1353.36 218.437ZM1289 159.912C1289 140.34 1288.6 104.427 1263.46 104.427C1238.7 104.427 1234.74 135.97 1234.15 159.912H1289ZM1466.82 262.521C1409.39 262.521 1372.17 231.738 1372.17 176.253C1372.17 126.849 1415.53 90.9354 1469.79 90.9354C1539.89 90.9354 1546.03 135.019 1530.98 151.931C1520.28 163.712 1466.82 165.422 1481.67 121.908C1485.24 111.647 1486.62 108.987 1480.09 105.567C1470.58 100.626 1454.94 104.997 1445.63 119.438C1431.37 141.86 1428.01 195.635 1448.21 221.097C1466.62 244.279 1496.13 242.379 1511.97 230.788C1519.29 225.468 1526.03 217.677 1531.77 207.796L1544.44 216.347C1529 245.04 1501.08 262.711 1467.02 262.711L1466.82 262.521ZM1728 114.878C1775.33 157.441 1762.06 262.521 1653.75 262.521C1551.97 262.521 1533.55 160.102 1583.06 114.878C1617.91 83.1447 1691.17 82.3846 1728 114.878ZM1684.64 227.748C1694.14 204.566 1698.3 129.889 1673.95 110.127C1661.07 99.6762 1635.33 100.816 1625.23 127.039C1616.72 149.081 1612.56 223.568 1637.11 243.329C1649.99 253.59 1674.74 252.45 1684.64 227.748Z" fill="white"/>
</g>
</svg>
