<svg width="20" height="20" viewBox="0 0 20 20" fill="none" xmlns="http://www.w3.org/2000/svg">
<g clip-path="url(#clip0)">
<path fill-rule="evenodd" clip-rule="evenodd" d="M12.5722 5.81477C12.5248 5.55036 12.5 5.27807 12.5 5C12.5 4.71732 12.5256 4.44062 12.5746 4.17208H3.54072L3.30827 1.58255C3.27025 1.15907 2.91534 0.834595 2.49019 0.834595H0.821366C0.367738 0.834595 0 1.20233 0 1.65596C0 2.10959 0.367738 2.47733 0.821366 2.47733H1.73926C1.93975 4.71096 1.85301 3.74442 1.78767 3.01643L1.78682 3.00688C1.68926 1.91986 1.64275 1.40163 2.68395 13.0021C2.75099 13.7607 3.16085 14.5838 3.86691 15.1431C2.59391 16.7688 3.75705 19.1654 5.82779 19.1654C7.54648 19.1654 8.7587 17.4513 8.16931 15.8278H12.6648C12.0761 17.4492 13.2857 19.1654 15.0063 19.1654C16.3794 19.1654 17.4965 18.0483 17.4965 16.6752C17.4965 15.3021 16.3794 14.185 15.0063 14.185H5.83334C5.20942 14.185 4.66571 13.8086 4.43104 13.2602L17.5576 12.4887C17.9159 12.4677 18.2191 12.2163 18.3062 11.868L18.9798 9.1738C18.4307 9.42369 17.8237 9.56842 17.1844 9.58224L16.8589 10.8842L4.20993 11.6276L3.68817 5.81477H12.5722ZM5.82779 17.5227C5.36055 17.5227 4.98037 17.1425 4.98037 16.6752C4.98037 16.208 5.36055 15.8278 5.82779 15.8278C6.29507 15.8278 6.67524 16.208 6.67524 16.6752C6.67524 17.1425 6.29507 17.5227 5.82779 17.5227ZM15.0062 17.5227C14.539 17.5227 14.1588 17.1425 14.1588 16.6752C14.1588 16.208 14.539 15.8278 15.0062 15.8278C15.4735 15.8278 15.8537 16.208 15.8537 16.6752C15.8537 17.1425 15.4735 17.5227 15.0062 17.5227Z" fill="#FF5B51"/>
<path d="M14.8791 2.87868C14.4886 3.2692 14.4886 3.90237 14.8791 4.29289L15.5862 5L14.8791 5.70711C14.4886 6.09763 14.4886 6.7308 14.8791 7.12132C15.2697 7.51184 15.9028 7.51184 16.2933 7.12132L17.0005 6.41421L17.7076 7.12132C18.0981 7.51184 18.7312 7.51184 19.1218 7.12132C19.5123 6.7308 19.5123 6.09763 19.1218 5.70711L18.4147 5L19.1218 4.29289C19.5123 3.90237 19.5123 3.2692 19.1218 2.87868C18.7312 2.48816 18.0981 2.48816 17.7076 2.87868L17.0005 3.58579L16.2933 2.87868C15.9028 2.48816 15.2697 2.48816 14.8791 2.87868Z" fill="#FF5B51"/>
</g>
<defs>
<clipPath id="clip0">
<path d="M0 0H20V20H0V0Z" fill="white"/>
</clipPath>
</defs>
</svg>
