<svg width="80" height="40" viewBox="0 0 80 40" fill="none" xmlns="http://www.w3.org/2000/svg">
<path d="M28.7354 37.871C27.5158 37.871 26.9266 37.4177 26.9266 36.4836C26.9266 35.9205 27.1321 34.9864 27.4884 33.6677C27.8721 32.349 28.0503 31.4012 28.0503 30.8106C28.0503 29.8353 27.6392 29.3545 26.7621 29.3545C26.584 29.3545 26.351 29.3957 26.0633 29.4232L24.3641 37.5001H21.2808L24.3641 22.9534C23.4322 23.3655 22.6922 23.9562 22.1441 24.7254C21.6234 25.5221 21.3493 26.4699 21.3493 27.61C21.3493 28.1732 21.4178 28.6128 21.596 28.9287C21.6371 28.9974 21.6371 29.0386 21.6371 29.0661C20.486 29.0661 19.7597 28.6815 19.4857 27.9534C19.376 27.6787 19.3486 27.3628 19.3486 26.9782C19.3486 26.2501 19.5953 25.5908 20.0475 24.9315C20.9519 23.5716 22.336 22.5688 24.1722 21.9095C25.0355 21.5935 25.9399 21.4287 26.8444 21.4287C27.1184 21.4287 27.4336 21.4287 27.7077 21.4699L26.351 27.871C26.8032 26.5798 27.4336 25.371 28.2284 24.2172C29.0232 23.0633 29.7495 22.3078 30.3798 21.9507C31.0102 21.6073 31.5309 21.4287 32.0105 21.4287C32.4901 21.4287 32.8464 21.5386 33.052 21.7034C33.4357 22.0194 33.6412 22.3628 33.6412 22.7062C33.6412 23.2968 33.5042 23.7501 33.2301 23.9974C32.956 24.2446 32.6409 24.3408 32.2572 24.3408C31.6268 24.3408 31.2157 24.0661 31.0102 23.4754C29.6535 24.2721 28.4476 25.9067 27.3377 28.3518C27.5158 28.3518 27.6803 28.3106 27.8173 28.3106H28.2284C29.6535 28.3106 30.4894 28.7639 30.7635 29.6979C30.832 29.9727 30.9005 30.3298 30.9005 30.7007C30.9005 31.2913 30.7224 32.1979 30.3798 33.4891C30.0372 34.7391 29.8591 35.5771 29.8591 35.9617C29.8591 36.7584 30.1332 37.2529 30.695 37.4589C29.7906 37.7062 29.1328 37.8435 28.7217 37.8435L28.7628 37.8847L28.7354 37.871ZM45.5357 33.6677C44.6313 36.3051 43.3158 37.6375 41.5754 37.6375C40.7806 37.6375 40.1503 37.4314 39.6981 36.9782C39.2459 36.5249 39.0403 36.0441 39.0403 35.4534C39.0403 34.8628 39.2185 33.8875 39.5199 32.4589L40.4518 28.2144C39.7255 28.2144 39.2048 28.5304 38.8211 29.121C38.4374 29.7117 38.1222 30.6183 37.8892 31.7996C37.6426 32.9809 37.4096 33.9287 37.2589 34.588C37.0807 35.2474 36.8752 35.8106 36.6285 36.2639C36.1489 37.1705 35.3404 37.6512 34.2716 37.6512C33.5042 37.6512 32.9149 37.404 32.5038 36.9507C32.1201 36.4699 31.9146 35.8655 31.9146 35.1375C31.9146 34.4095 32.1613 33.915 32.682 33.6402C32.8601 33.5716 33.0657 33.5029 33.3397 33.5029C33.6138 33.5029 33.8605 33.6128 34.066 33.8188C34.2716 34.0249 34.3812 34.2996 34.3812 34.6567C34.3812 35.0001 34.3127 35.2474 34.1345 35.426C33.9564 35.6045 33.7508 35.6732 33.5453 35.632C33.5453 35.7694 33.6138 35.9479 33.7234 36.0853C33.8331 36.2227 34.066 36.3325 34.3812 36.3325C34.7238 36.3325 35.0115 36.2227 35.2171 35.9891C35.6008 35.6045 35.916 34.8353 36.1215 33.7227L36.4367 32.1567C37.067 29.1622 37.9578 27.5001 39.2185 27.0743C39.6296 26.9369 40.0544 26.8683 40.534 26.8683H43.6858L42.1921 33.8325C42.0825 34.2446 42.0551 34.5331 42.0551 34.7391C42.0551 35.3298 42.3291 35.6457 42.9184 35.6457C43.3295 35.6457 43.6858 35.4672 43.9598 35.165C44.2065 34.8216 44.4805 34.3683 44.7272 33.7776H45.6316L45.522 33.7089L45.5357 33.6677ZM53.5522 33.6677C51.9489 36.3051 50.0167 37.6375 47.6871 37.6375C46.6868 37.6375 45.8783 37.3628 45.2616 36.8408C44.6724 36.3188 44.3572 35.4534 44.3572 34.2309C44.3572 32.5963 44.7683 31.0304 45.6042 29.5056C46.2346 28.3518 47.0979 27.5276 48.1667 27.0331C48.7286 26.7584 49.3178 26.6485 49.9071 26.6485C50.88 26.6485 51.5789 26.8271 51.9215 27.2117C52.264 27.5963 52.4422 28.0771 52.4422 28.7089C52.4422 29.9315 51.9626 30.9754 50.9896 31.7996C50.0167 32.6375 48.8656 33.1183 47.5501 33.1869C47.509 33.599 47.509 33.8875 47.509 34.0523C47.509 34.7803 47.646 35.2749 47.8927 35.5084C48.1393 35.7556 48.523 35.8518 48.9752 35.8518C49.8111 35.8518 50.4689 35.6732 51.0581 35.2886C51.62 34.9452 52.2092 34.382 52.8259 33.6814H53.5522V33.6402V33.6677ZM50.8115 28.5166C50.8115 27.9946 50.6333 27.7474 50.2908 27.7474C49.77 27.7474 49.2493 28.2282 48.7697 29.1347C48.2901 30.0413 47.9338 31.0441 47.7282 32.1567C48.5641 32.088 49.2493 31.7034 49.8797 31.0029C50.51 30.3023 50.8115 29.4782 50.8115 28.5029V28.5166ZM61.0205 31.1265C61.089 31.3738 61.1301 31.7858 61.1301 32.3765C61.1301 32.9672 61.0205 33.5578 60.7875 34.2172C60.5409 34.8765 60.2257 35.4397 59.7872 35.9617C58.8142 37.0743 57.5672 37.6375 56.0325 37.6375C54.854 37.6375 53.9907 37.2941 53.4014 36.5935C52.8122 35.893 52.497 34.9589 52.497 33.8051C52.497 32.6512 52.7711 31.1265 53.3603 29.2172C53.9907 27.1293 54.7855 25.3848 55.7173 23.9699C56.8273 22.2941 57.9783 21.4699 59.1842 21.4699C59.842 21.4699 60.4038 21.676 60.8149 22.1293C61.226 22.5826 61.4727 23.3518 61.4727 24.4644C61.4727 25.5771 61.089 26.8957 60.3216 28.393L59.7324 29.5056C60.0475 29.643 60.3216 29.849 60.5272 30.1375C61.459 30.1375 62.5004 29.8628 63.6104 29.2721C63.9256 29.0935 64.1996 28.9562 64.4052 28.7913L64.6107 29.382C63.7748 30.2474 62.569 30.838 61.0068 31.1265V31.1677L61.0205 31.1265ZM55.6762 33.8051C55.6762 35.0551 56.0873 35.6457 56.9917 35.6457C57.6495 35.6457 58.1702 35.3298 58.595 34.7117C59.0061 34.0798 59.1842 33.4617 59.1842 32.8023C59.1842 32.143 59.1157 31.7172 59.0061 31.4424C58.8005 31.5111 58.5265 31.5798 58.2113 31.5798C57.8961 31.5798 57.622 31.4699 57.4439 31.3051C57.2384 31.1265 57.1287 30.893 57.1287 30.6045C57.1287 30.1238 57.2658 29.8078 57.5124 29.6018C57.7591 29.3957 58.1428 29.2858 58.6224 29.2584C59.2802 28.0771 59.7324 26.8271 59.979 25.4946C60.0475 25.0413 60.1161 24.6293 60.1161 24.2034C60.1161 23.7913 60.0475 23.4754 59.9379 23.2968C59.8283 23.1183 59.6638 23.0496 59.4172 23.0496C58.965 23.0496 58.5128 23.5029 58.0331 24.4095C57.2384 25.9067 56.5806 28.1732 55.9914 31.1265C55.7858 32.2804 55.6762 33.1457 55.6762 33.7639V33.8051ZM71.298 33.6677C69.6947 36.3051 67.7625 37.6375 65.4329 37.6375C64.4326 37.6375 63.6241 37.3628 63.0075 36.8408C62.4182 36.3188 62.103 35.4534 62.103 34.2309C62.103 32.5963 62.5141 31.0304 63.35 29.5056C63.9804 28.3518 64.8437 27.5276 65.9126 27.0331C66.4744 26.7584 67.0636 26.6485 67.6529 26.6485C68.6258 26.6485 69.3247 26.8271 69.6673 27.2117C70.0099 27.5963 70.188 28.0771 70.188 28.7089C70.188 29.9315 69.7084 30.9754 68.7355 31.7996C67.7625 32.6375 66.6114 33.1183 65.2959 33.1869C65.2548 33.599 65.2548 33.8875 65.2548 34.0523C65.2548 34.7803 65.3918 35.2749 65.6385 35.5084C65.8852 35.7556 66.2689 35.8518 66.7211 35.8518C67.557 35.8518 68.2147 35.6732 68.804 35.2886C69.3658 34.9452 69.955 34.382 70.5717 33.6814H71.298V33.6402V33.6677ZM68.5573 28.5166C68.5573 27.9946 68.3792 27.7474 68.0366 27.7474C67.5159 27.7474 66.9951 28.2282 66.5155 29.1347C66.0359 30.0413 65.6796 31.0441 65.4741 32.1567C66.31 32.088 66.9951 31.7034 67.6255 31.0029C68.2558 30.3023 68.5573 29.4782 68.5573 28.5029V28.5166ZM72.9287 36.8683L72.4216 39.2309L69.1877 40.0001L72.1613 26.0166H75.2445L74.902 27.6238C75.6008 26.9919 76.423 26.7172 77.396 26.7172C78.6156 26.7172 79.4378 27.3078 79.794 28.4891C79.9311 28.9012 79.9996 29.4232 79.9996 29.9864C79.9996 30.5496 79.9585 31.099 79.89 31.6622C79.8214 32.2254 79.7118 32.7749 79.5474 33.338C79.3692 33.9012 79.1637 34.4507 78.917 34.9452C78.6704 35.4672 78.3278 35.9205 77.9441 36.3051C77.5604 36.7172 77.1082 37.0331 76.5601 37.2803C76.0393 37.5276 75.3816 37.6238 74.5868 37.6238C73.792 37.6238 73.2301 37.3765 72.915 36.8545V36.8957L72.9287 36.8683ZM77.0945 30.0139C77.0945 28.8326 76.7519 28.2419 76.0119 28.2419C75.7653 28.2419 75.5323 28.3518 75.2445 28.5166C74.9705 28.6952 74.7649 28.9699 74.5457 29.3133L73.2987 35.3023C73.4357 35.6183 73.7098 35.7831 74.2031 35.7831C74.6827 35.7831 75.1075 35.5771 75.4912 35.1924C76.2175 34.3957 76.7108 33.2831 76.9163 31.7858C77.026 31.1265 77.0945 30.5358 77.0945 30.0413V30.0001V30.0139Z" fill="#CFFBFA"/>
<path fill-rule="evenodd" clip-rule="evenodd" d="M9.18124 0C14.2378 0 18.3625 4.13461 18.3625 9.20329V18.4066H9.18124C4.1247 18.4066 0 14.272 0 9.20329C0 4.13461 4.1247 0 9.18124 0Z" fill="#CFFBFA"/>
<path fill-rule="evenodd" clip-rule="evenodd" d="M0 29.0795C0 24.0108 4.1247 19.8762 9.18124 19.8762H18.3625V29.0795C18.3625 34.1482 14.2378 38.2828 9.18124 38.2828C4.1247 38.2828 0 34.1482 0 29.0795Z" fill="#CFFBFA"/>
<path fill-rule="evenodd" clip-rule="evenodd" d="M38.1916 9.21721C38.1916 14.2859 34.0669 18.4205 29.0103 18.4205H19.8291V9.21721C19.8291 4.14853 23.9538 0.013916 29.0103 0.013916C34.0669 0.013916 38.1916 4.14853 38.1916 9.21721Z" fill="#CFFBFA"/>
</svg>
