<svg width="40" height="40" viewBox="0 0 40 40" fill="none" xmlns="http://www.w3.org/2000/svg">
<circle cx="20" cy="20" r="20" fill="#E8E8E8"/>
<path fill-rule="evenodd" clip-rule="evenodd" d="M12.2659 11.1612C11.9608 10.8561 11.4662 10.8561 11.1611 11.1612C10.856 11.4663 10.856 11.9609 11.1611 12.266L18.8951 20L11.1611 27.734C10.856 28.0391 10.856 28.5337 11.1611 28.8388C11.4662 29.1439 11.9609 29.1439 12.266 28.8388L19.9999 21.1049L27.7339 28.8388C28.039 29.1439 28.5337 29.1439 28.8388 28.8388C29.1439 28.5337 29.1439 28.0391 28.8388 27.734L21.1048 20L28.8388 12.266C29.1439 11.9609 29.1439 11.4663 28.8388 11.1612C28.5337 10.8561 28.039 10.8561 27.7339 11.1612L19.9999 18.8952L12.2659 11.1612Z" fill="#4D4D4D"/>
</svg>
