<svg width="16" height="16" viewBox="0 0 16 16" fill="none" xmlns="http://www.w3.org/2000/svg">
<g clip-path="url(#clip0)">
<path d="M14.0468 1.91187H1.95655C0.877302 1.91187 0 2.78917 0 3.86841V12.1316C0 13.2109 0.877302 14.0882 1.95655 14.0882H14.0435C15.1227 14.0882 16 13.2109 16 12.1316V3.87172C16.0033 2.79248 15.126 1.91187 14.0468 1.91187ZM15.1095 12.1316C15.1095 12.7176 14.6327 13.1943 14.0468 13.1943H1.95655C1.37058 13.1943 0.893855 12.7176 0.893855 12.1316V3.87172C0.893855 3.28575 1.37058 2.80903 1.95655 2.80903H14.0435C14.6294 2.80903 15.1061 3.28575 15.1061 3.87172V12.1316H15.1095Z" fill="#CFFBFA"/>
<path d="M10.0906 7.8973L14.0037 4.3881C14.1858 4.22257 14.2023 3.94117 14.0368 3.75578C13.8713 3.5737 13.5899 3.55714 13.4045 3.72267L8.00826 8.56604L6.95549 7.62584C6.95218 7.62253 6.94887 7.61922 6.94887 7.61591C6.9257 7.59273 6.90252 7.57287 6.87604 7.553L2.59216 3.71936C2.40677 3.55383 2.12537 3.57038 1.95984 3.75578C1.79431 3.94117 1.81086 4.22257 1.99626 4.3881L5.9557 7.9271L2.01281 11.6184C1.83404 11.7872 1.82411 12.0686 1.99294 12.2507C2.08233 12.3434 2.20151 12.3931 2.32069 12.3931C2.42994 12.3931 2.53919 12.3533 2.62526 12.2739L6.62775 8.52962L7.71361 9.49962C7.79969 9.57577 7.90563 9.61218 8.01157 9.61218C8.11751 9.61218 8.22675 9.57245 8.30952 9.49631L9.42518 8.49652L13.4045 12.2772C13.4906 12.36 13.6031 12.3997 13.7124 12.3997C13.8316 12.3997 13.9474 12.3533 14.0368 12.2606C14.2056 12.0819 14.199 11.7972 14.0203 11.6283L10.0906 7.8973Z" fill="#CFFBFA"/>
</g>
<defs>
<clipPath id="clip0">
<path d="M0 0H16V16H0V0Z" fill="white"/>
</clipPath>
</defs>
</svg>
