<svg width="24" height="24" viewBox="0 0 24 24" fill="none" xmlns="http://www.w3.org/2000/svg">
<circle cx="12" cy="12" r="12" fill="#003A42"/>
<path d="M14.6856 6H9.31445C7.49575 6 6 7.47875 6 9.31445V14.6856C6 16.5042 7.47875 18 9.31445 18H14.6856C16.5042 18 18 16.5212 18 14.6856V9.31445C18 7.49575 16.5212 6 14.6856 6ZM16.9292 14.6856C16.9292 15.9263 15.9263 16.9292 14.6856 16.9292H9.31445C8.07365 16.9292 7.07082 15.9263 7.07082 14.6856V9.31445C7.07082 8.07365 8.07365 7.07082 9.31445 7.07082H14.6856C15.9263 7.07082 16.9292 8.07365 16.9292 9.31445V14.6856Z" fill="#CFFBFA"/>
<path d="M11.9999 8.90652C10.3002 8.90652 8.90646 10.3003 8.90646 12C8.90646 13.6997 10.3002 15.0935 11.9999 15.0935C13.6997 15.0935 15.0934 13.6997 15.0934 12C15.0934 10.3003 13.6997 8.90652 11.9999 8.90652ZM11.9999 14.0227C10.8781 14.0227 9.97728 13.1218 9.97728 12C9.97728 10.8782 10.8781 9.97735 11.9999 9.97735C13.1218 9.97735 14.0226 10.8952 14.0226 12C14.0226 13.1218 13.1218 14.0227 11.9999 14.0227Z" fill="#CFFBFA"/>
<path d="M15.2125 8.00555C15.0085 8.00555 14.8046 8.09053 14.6686 8.22651C14.5156 8.37949 14.4476 8.56646 14.4476 8.77043C14.4476 8.9744 14.5326 9.17836 14.6686 9.31434C14.8216 9.46732 15.0085 9.53531 15.2125 9.53531C15.4165 9.53531 15.6204 9.45032 15.7564 9.31434C15.9094 9.16137 15.9774 8.9744 15.9774 8.77043C15.9774 8.56646 15.8924 8.36249 15.7564 8.22651C15.6035 8.07354 15.4165 8.00555 15.2125 8.00555Z" fill="#CFFBFA"/>
</svg>
