<svg width="42" height="60" viewBox="0 0 42 60" fill="none" xmlns="http://www.w3.org/2000/svg">
<path d="M21 60L42 51.3074V0H21V60Z" fill="#008EC7"/>
<path d="M20.9998 0H0V51.3074L20.9998 59.9999V0Z" fill="#0074B5"/>
<path d="M4.93656 16.8552H13.5856L21.7044 38.773L29.5959 16.8552H37.8696V18.5213H37.1716C36.3256 18.5213 35.7627 18.5955 35.4668 18.7448C35.1779 18.887 34.9505 19.1445 34.7827 19.5102C34.6149 19.8829 34.5275 20.4851 34.5275 21.3247V39.5665C34.5275 40.7177 34.595 41.4621 34.7291 41.8078C34.8701 42.1534 35.0915 42.4099 35.4132 42.5863C35.7289 42.7686 36.3127 42.8568 37.1716 42.8568H37.8696V44.523H27.482V42.8568H28.2267C28.8979 42.8568 29.3874 42.8027 29.6961 42.7015C30.0049 42.5933 30.2601 42.417 30.4607 42.1735C30.6622 41.93 30.7764 41.6725 30.8032 41.408C30.8707 40.866 30.9035 40.4402 30.9035 40.1346V19.7737L21.9854 44.522H20.0125L10.9743 20.1254V39.7278C10.9743 40.7227 11.0617 41.4 11.2295 41.7527C11.4042 42.1044 11.6653 42.3759 12.0277 42.5652C12.3901 42.7616 13.0345 42.8568 13.9668 42.8568H14.5973V44.523H4.93457V42.8568H5.48463C6.41695 42.8568 7.08119 42.7556 7.4843 42.5592C7.88642 42.3628 8.1684 42.0783 8.34315 41.7196C8.51094 41.3539 8.59832 40.6366 8.59832 39.5665V21.4469C8.59832 20.452 8.52484 19.7948 8.38385 19.4762C8.23591 19.1515 7.99464 18.9141 7.666 18.7588C7.3304 18.6035 6.73368 18.5213 5.88079 18.5213H4.93457V16.8552H4.93656Z" fill="white"/>
<path d="M7.83886 9.66895H5.50061V9.26469H7.83886C7.81907 8.66365 7.6558 8.19899 7.34608 7.87168C7.03537 7.54437 6.6257 7.38071 6.11412 7.38071C5.74502 7.38071 5.41452 7.47131 5.1236 7.6525C4.83169 7.83369 4.55462 8.22237 4.29042 8.81659L3.9609 8.72892L4.42301 7.09237H4.6793L4.79409 7.41676C5.17011 7.14692 5.63914 7.01249 6.2002 7.01249C6.9374 7.01249 7.5232 7.24141 7.95761 7.69926C8.39102 8.1571 8.60872 8.7445 8.60872 9.45854C8.60872 10.2047 8.39894 10.8282 7.97839 11.3308C7.55784 11.8335 6.94631 12.0848 6.14281 12.0848C5.60253 12.0848 5.13646 11.9601 4.74065 11.7098C4.34583 11.4594 4.0371 11.1662 3.81445 10.8282L4.10043 10.6343C4.31219 10.9207 4.58431 11.1623 4.91778 11.3581C5.25224 11.5539 5.61935 11.6513 6.01615 11.6513C6.4842 11.6513 6.88892 11.5023 7.22931 11.2042C7.57169 10.9071 7.77454 10.3947 7.83886 9.66701V9.66895ZM11.0726 7.72751L9.78724 11.249C9.74667 11.3601 9.72688 11.4351 9.72688 11.4789C9.72688 11.5412 9.74667 11.5929 9.78526 11.6318C9.82484 11.6708 9.86146 11.6922 9.8951 11.6971C9.92776 11.702 10.0406 11.7068 10.2325 11.7117V12.0078H8.73735V11.7117C8.93328 11.7117 9.06588 11.6796 9.13613 11.6143C9.2054 11.551 9.28555 11.399 9.3756 11.1623L10.9222 7.09335H11.5229L13.0695 11.2013C13.1408 11.3941 13.214 11.5276 13.2892 11.6016C13.3654 11.6747 13.4713 11.7127 13.6108 11.7127H13.6929V12.0088H11.9118V11.7127C11.9622 11.7078 12.0374 11.7059 12.1374 11.7059C12.3194 11.7039 12.4095 11.6357 12.4095 11.5013C12.4095 11.4419 12.3768 11.3221 12.3095 11.1379L11.0717 7.72945L11.0726 7.72751ZM13.9442 7.09237H18.0053L18.4743 8.3831L18.1586 8.49999C18.0795 8.28861 17.9934 8.12203 17.8994 8.00221C17.8064 7.88045 17.6946 7.77816 17.563 7.69439C17.4323 7.60866 17.3017 7.55411 17.1681 7.52489C17.0345 7.49761 16.7941 7.483 16.4478 7.483H15.2336V9.28709H15.8372C16.0599 9.28709 16.2271 9.25008 16.3409 9.17507C16.4547 9.10201 16.5338 9.00947 16.5764 8.89744C16.609 8.81561 16.6269 8.67144 16.6269 8.46687V8.38505H16.9791V10.5428H16.6269V10.3567C16.6269 10.1921 16.615 10.0732 16.5893 10.0011C16.5645 9.92807 16.518 9.85891 16.4507 9.79462C16.3834 9.72935 16.3112 9.68649 16.233 9.66214C16.1558 9.63973 16.0232 9.62707 15.8372 9.62707H15.2336V11.2198C15.2336 11.3854 15.2405 11.4867 15.2564 11.5227C15.2722 11.5588 15.2979 11.5851 15.3335 11.6016C15.3702 11.6172 15.4681 11.626 15.6284 11.626H16.3795C16.799 11.626 17.1256 11.5763 17.3621 11.4779C17.5976 11.3795 17.8054 11.2285 17.9855 11.0259C18.126 10.8681 18.2616 10.645 18.3902 10.3557L18.7167 10.4687L18.1596 12.0078H13.9442V11.7117H14.0867C14.253 11.7117 14.3559 11.701 14.3955 11.6805C14.4578 11.6494 14.5053 11.6007 14.538 11.5325C14.5607 11.4867 14.5736 11.3844 14.5736 11.2285V7.84343C14.5736 7.68952 14.5578 7.58626 14.5271 7.53463C14.4964 7.483 14.443 7.44209 14.3668 7.41481C14.3262 7.39825 14.1847 7.38948 13.9433 7.38948V7.09335L13.9442 7.09237ZM19.1502 7.09237H22.6541L23.1162 8.3831L22.8084 8.49999C22.6283 8.08988 22.4324 7.8181 22.2207 7.68367C22.0089 7.55021 21.6636 7.483 21.1817 7.483H20.4177V11.25C20.4177 11.4399 20.4504 11.5646 20.5177 11.624C20.585 11.6835 20.7146 11.7117 20.9085 11.7117H21.0402V12.0078H19.1492V11.7117H19.2709C19.4737 11.7117 19.6043 11.6815 19.6657 11.6211C19.727 11.5607 19.7577 11.4243 19.7577 11.21V7.86486C19.7577 7.65347 19.7251 7.52099 19.6588 7.46839C19.5945 7.41578 19.4787 7.38948 19.3184 7.38948H19.1502V7.09335V7.09237ZM25.0804 7.09237H25.6781L27.2247 11.2022C27.3009 11.4078 27.3771 11.5451 27.4553 11.6114C27.5324 11.6776 27.6373 11.7107 27.768 11.7107H27.8471V12.0069H26.0719V11.7107C26.1293 11.7059 26.1847 11.7039 26.2391 11.7039C26.3539 11.7039 26.4301 11.6922 26.4647 11.6689C26.534 11.624 26.5686 11.5675 26.5686 11.5003C26.5686 11.4506 26.536 11.3299 26.4687 11.1379L26.1313 10.1882H24.3303L23.9414 11.25C23.9009 11.361 23.8811 11.436 23.8811 11.4789C23.8811 11.5257 23.893 11.5666 23.9177 11.6016C23.9434 11.6377 23.9781 11.664 24.0206 11.6805C24.0632 11.699 24.1334 11.7068 24.2284 11.7068C24.2927 11.7068 24.3462 11.7078 24.3857 11.7107V12.0069H22.8925V11.7107C23.0311 11.7107 23.131 11.6971 23.1924 11.6698C23.2527 11.6435 23.3062 11.5997 23.3517 11.5403C23.3972 11.4808 23.4566 11.3552 23.5318 11.1623L25.0794 7.09237H25.0804ZM24.459 9.84235H25.9997L25.2308 7.72751L24.459 9.84235ZM28.1024 7.09237H30.03V7.38851H29.8984C29.744 7.38851 29.6362 7.40312 29.5699 7.4304C29.5036 7.45962 29.4591 7.50833 29.4313 7.57944C29.4106 7.63107 29.3997 7.74017 29.3997 7.90772V9.2793H31.9952V7.94376C31.9952 7.76258 31.9893 7.6525 31.9764 7.61451C31.9576 7.5395 31.9161 7.48202 31.8547 7.44501C31.7914 7.40799 31.6954 7.38851 31.5677 7.38851H31.3718V7.09237H33.2776V7.38851H33.1055C32.9719 7.38851 32.8769 7.40312 32.8225 7.43332C32.7661 7.46254 32.7255 7.50151 32.7037 7.55216C32.681 7.60379 32.6691 7.71192 32.6691 7.87947V11.2276C32.6691 11.4136 32.681 11.5315 32.7047 11.5822C32.7294 11.6328 32.7769 11.6689 32.8472 11.6893C32.8907 11.7039 33.0342 11.7107 33.2776 11.7107V12.0069H31.3718V11.7107H31.5113C31.6865 11.7107 31.8032 11.699 31.8616 11.6757C31.919 11.6533 31.9566 11.6153 31.9725 11.5636C31.9873 11.5237 31.9942 11.4 31.9942 11.1906V9.66019H29.3987V11.2266C29.3987 11.4127 29.4106 11.5305 29.4363 11.5822C29.461 11.6338 29.5095 11.6698 29.5818 11.6883C29.6342 11.7029 29.7836 11.7098 30.029 11.7098V12.0059H28.1014V11.7098H28.2231C28.4092 11.7098 28.5249 11.7 28.5714 11.6796C28.6189 11.6591 28.6556 11.6201 28.6823 11.5636C28.71 11.5071 28.7238 11.4058 28.7238 11.2617V7.87655C28.7238 7.72361 28.712 7.6184 28.6862 7.55898C28.6615 7.49956 28.6219 7.4567 28.5685 7.42747C28.515 7.4002 28.426 7.38559 28.3013 7.38559H28.1004V7.08945L28.1024 7.09237ZM33.9584 6.92677H34.2078L34.2434 7.09237H37.2951L37.3228 6.92677H37.587L38.1145 8.37043L37.7919 8.48636C37.6365 8.10157 37.4534 7.83076 37.2407 7.6749C37.028 7.51807 36.7558 7.44014 36.4243 7.44014C36.2848 7.44014 36.2037 7.44501 36.1779 7.45572C36.1512 7.46644 36.1324 7.48495 36.1215 7.51125C36.1107 7.53658 36.1057 7.6184 36.1057 7.75673V11.1642C36.1057 11.3269 36.1146 11.437 36.1324 11.4935C36.1493 11.55 36.175 11.5929 36.2096 11.6231C36.2423 11.6542 36.2878 11.6757 36.3462 11.6893C36.4036 11.7029 36.5342 11.7098 36.736 11.7117V12.0078H34.8223V11.7117C35.035 11.7098 35.1647 11.702 35.2132 11.6903C35.2963 11.6679 35.3557 11.6231 35.3913 11.5568C35.4269 11.4906 35.4447 11.3688 35.4447 11.1925V7.70997C35.4447 7.60282 35.4398 7.53658 35.4289 7.5132C35.418 7.49079 35.3972 7.47228 35.3675 7.45865C35.3378 7.44501 35.2775 7.43916 35.1845 7.43916C34.9242 7.43916 34.7164 7.47131 34.5601 7.53755C34.4047 7.60379 34.2573 7.71484 34.1187 7.87168C33.9802 8.02949 33.8634 8.23406 33.7655 8.48538L33.4429 8.36946L33.9565 6.92579L33.9584 6.92677Z" fill="white"/>
<path d="M3.53252 2.04948V2.402H1.96111V2.92723H1.61269V2.04948H3.53485H3.53252ZM1.61035 3.98715H1.95877V5.75447H1.61035V3.98715ZM1.61035 6.81439H1.95877V8.58172H1.61035V6.81439ZM1.61035 9.64164H1.95877V11.409H1.61035V9.64164ZM1.61035 12.4689H1.95877V14.2362H1.61035V12.4689ZM1.61035 15.2961H1.95877V17.0634H1.61035V15.2961ZM1.61035 18.1234H1.95877V19.8907H1.61035V18.1234ZM1.61035 20.9506H1.95877V22.7179H1.61035V20.9506ZM1.61035 23.7779H1.95877V25.5452H1.61035V23.7779ZM1.61035 26.6051H1.95877V28.3724H1.61035V26.6051ZM1.61035 29.4323H1.95877V31.1997H1.61035V29.4323ZM1.61035 32.2596H1.95877V34.0269H1.61035V32.2596ZM1.61035 35.0868H1.95877V36.8542H1.61035V35.0868ZM1.61035 37.9141H1.95877V39.6814H1.61035V37.9141ZM1.61035 40.7413H1.95877V42.5086H1.61035V40.7413ZM1.61035 43.5686H1.95877V45.3359H1.61035V43.5686ZM1.61035 46.3958H1.95877V48.1631H1.61035V46.3958ZM1.61035 49.2231H1.95877V49.6773L2.94324 50.0842L2.81229 50.4107L1.61035 49.9163V49.2254V49.2231ZM3.78272 50.8106L3.91367 50.4841L5.53185 51.1513L5.4009 51.4777L3.78272 50.8106ZM6.37133 51.8776L6.50228 51.5511L8.12045 52.2183L7.9895 52.5448L6.37133 51.8776ZM8.95994 52.9446L9.09089 52.6181L10.7091 53.2853L10.5781 53.6118L8.95994 52.9446ZM11.5485 54.0116L11.6795 53.6851L13.2977 54.3523L13.1667 54.6788L11.5485 54.0116ZM14.1372 55.0786L14.2681 54.7521L15.8863 55.4193L15.7553 55.7458L14.1372 55.0786ZM16.7258 56.1457L16.8567 55.8192L18.4749 56.4864L18.3439 56.8128L16.7258 56.1457ZM19.3144 57.2127L19.4453 56.8862L21.0635 57.5534L20.9325 57.8799L19.3144 57.2127ZM22.0339 57.48L21.903 57.1535L23.5211 56.4864L23.6521 56.8128L22.0339 57.48ZM24.6225 56.413L24.4916 56.0865L26.1098 55.4193L26.2407 55.7458L24.6225 56.413ZM27.2111 55.346L27.0802 55.0195L28.6984 54.3523L28.8293 54.6788L27.2111 55.346ZM29.7997 54.279L29.6688 53.9525L31.287 53.2853L31.4179 53.6118L29.7997 54.279ZM32.3884 53.212L32.2574 52.8855L33.8756 52.2183L34.0065 52.5448L32.3884 53.212ZM34.977 52.1449L34.846 51.8184L36.4642 51.1513L36.5951 51.4777L34.977 52.1449ZM37.5656 51.0779L37.4346 50.7514L39.0528 50.0842L39.1837 50.4107L37.5656 51.0779ZM40.1542 50.0109L40.077 49.8193L40.0419 49.7956V49.7317L40.0232 49.6844L40.0419 49.6773V48.1679H40.3904V49.9139L40.1542 50.0109ZM40.3904 47.1079H40.0419V45.3406H40.3904V47.1079ZM40.3904 44.2807H40.0419V42.5134H40.3904V44.2807ZM40.3904 41.4535H40.0419V39.6861H40.3904V41.4535ZM40.3904 38.6262H40.0419V36.8589H40.3904V38.6262ZM40.3904 35.799H40.0419V34.0316H40.3904V35.799ZM40.3904 32.9717H40.0419V31.2044H40.3904V32.9717ZM40.3904 30.1445H40.0419V28.3772H40.3904V30.1445ZM40.3904 27.3172H40.0419V25.5499H40.3904V27.3172ZM40.3904 24.49H40.0419V22.7227H40.3904V24.49ZM40.3904 21.6627H40.0419V19.8954H40.3904V21.6627ZM40.3904 18.8355H40.0419V17.0682H40.3904V18.8355ZM40.3904 16.0083H40.0419V14.2409H40.3904V16.0083ZM40.3904 13.181H40.0419V11.4137H40.3904V13.181ZM40.3904 10.3538H40.0419V8.58645H40.3904V10.3538ZM40.3904 7.52653H40.0419V5.7592H40.3904V7.52653ZM40.3904 4.69928H40.0419V2.93196H40.3904V4.69928ZM39.8666 2.04948V2.402H38.1198V2.04948H39.8666ZM37.0722 2.04948V2.402H35.3254V2.04948H37.0722ZM34.2778 2.04948V2.402H32.531V2.04948H34.2778ZM31.4834 2.04948V2.402H29.7366V2.04948H31.4834ZM28.689 2.04948V2.402H26.9422V2.04948H28.689ZM25.8946 2.04948V2.402H24.1478V2.04948H25.8946ZM23.1002 2.04948V2.402H21.3535V2.04948H23.1002ZM20.3058 2.04948V2.402H18.5591V2.04948H20.3058ZM17.5115 2.04948V2.402H15.7647V2.04948H17.5115ZM14.7171 2.04948V2.402H12.9703V2.04948H14.7171ZM11.9227 2.04948V2.402H10.1759V2.04948H11.9227ZM9.1283 2.04948V2.402H7.38152V2.04948H9.1283ZM6.33392 2.04948V2.402H4.58713V2.04948H6.33392Z" fill="white"/>
</svg>
