<svg width="16" height="16" viewBox="0 0 16 16" fill="none" xmlns="http://www.w3.org/2000/svg">
<path d="M7.99642 0C4.46099 0 1.58301 2.87799 1.58301 6.41342C1.58301 6.81593 1.61991 7.2218 1.69705 7.61761C1.70041 7.64109 1.71383 7.71153 1.74066 7.83228C1.83793 8.26499 1.98217 8.69099 2.17001 9.09686C2.861 10.7237 4.38049 13.2226 7.71466 15.8994C7.79852 15.9665 7.89915 16 7.99978 16C8.10041 16 8.20104 15.9665 8.28489 15.8994C11.6157 13.2226 13.1386 10.7237 13.8295 9.09686C14.0174 8.69099 14.1616 8.26834 14.2589 7.83228C14.2857 7.71153 14.2991 7.64109 14.3025 7.61761C14.3763 7.2218 14.4165 6.81593 14.4165 6.41342C14.4098 2.87799 11.5319 0 7.99642 0ZM13.4036 7.45996C13.4036 7.46667 13.4002 7.47337 13.4002 7.48008C13.3968 7.49686 13.3868 7.54717 13.37 7.62432C13.37 7.62767 13.37 7.62767 13.37 7.63103C13.2862 8.00671 13.162 8.37233 12.9977 8.72453C12.9943 8.72788 12.9943 8.73459 12.991 8.73795C12.3637 10.2239 10.9885 12.4914 7.99642 14.9635C5.00439 12.4914 3.62913 10.2239 3.00188 8.73795C2.99852 8.73459 2.99852 8.72788 2.99517 8.72453C2.83416 8.37568 2.71005 8.00671 2.62284 7.63103C2.62284 7.62767 2.62284 7.62767 2.62284 7.62432C2.60271 7.54717 2.59601 7.49686 2.59265 7.48008C2.59265 7.47337 2.5893 7.46667 2.5893 7.4566C2.52221 7.11111 2.48867 6.76226 2.48867 6.41006C2.48867 3.37442 4.96079 0.902306 7.99642 0.902306C11.0321 0.902306 13.5042 3.37442 13.5042 6.41006C13.5042 6.76562 13.4706 7.11782 13.4036 7.45996Z" fill="#CFFBFA"/>
<path d="M7.99594 2.41187C5.75192 2.41187 3.92383 4.23996 3.92383 6.48398C3.92383 8.72801 5.75192 10.5561 7.99594 10.5561C10.24 10.5561 12.0681 8.72801 12.0681 6.48398C12.0681 4.23996 10.24 2.41187 7.99594 2.41187ZM7.99594 9.65044C6.24836 9.65044 4.82949 8.22822 4.82949 6.48398C4.82949 4.73975 6.25171 3.31753 7.99594 3.31753C9.74018 3.31753 11.1624 4.73975 11.1624 6.48398C11.1624 8.22822 9.74353 9.65044 7.99594 9.65044Z" fill="#CFFBFA"/>
</svg>
