<svg width="24" height="24" viewBox="0 0 24 24" fill="none" xmlns="http://www.w3.org/2000/svg">
<circle cx="12" cy="12" r="12" fill="#834995"/>
<path fill-rule="evenodd" clip-rule="evenodd" d="M17.4316 15.1342C17.4316 15.1342 16.7274 14.5335 16.3872 14.2786C16.0653 14.0356 15.5491 13.7082 15.2639 13.5441C14.7477 13.2525 14.2195 13.435 14.0012 13.7265L13.5456 14.3097C13.3145 14.6068 12.9568 14.5526 12.866 14.5343C12.1984 14.3646 11.4878 13.9512 10.7597 13.2477C10.0252 12.5371 9.57587 11.7971 9.41814 11.0259L9.40619 10.9773C9.36397 10.6618 9.41814 10.516 9.5456 10.2978L9.5695 10.2794C9.87302 9.99424 10.4434 9.6485 10.5167 9.32028C10.7414 8.74988 9.77025 7.55412 9.63642 7.34699C9.63642 7.34699 8.93218 6.4181 8.68363 6.23647C8.41675 6.01181 7.99772 5.88435 7.57311 6.14565L7.54921 6.16397C6.33512 6.98372 5.89776 7.45693 6.01965 8.15479L6.0802 8.43999C6.69361 10.3766 7.883 12.4407 9.64996 14.2794C11.3986 16.0942 13.2922 17.1808 15.1556 17.9336C15.6415 18.0977 16.145 17.9575 16.6612 17.5146L16.6676 17.5082C17.0619 17.1378 17.3782 16.7434 17.6084 16.318V16.3116C17.845 15.844 17.7662 15.4194 17.4324 15.1342H17.4316Z" fill="white"/>
<path fill-rule="evenodd" clip-rule="evenodd" d="M14.5289 10.8905C14.4564 10.8905 14.3951 10.8299 14.3895 10.7566C14.3656 10.2532 14.2318 9.86998 13.9888 9.61506C13.7458 9.36013 13.3881 9.22072 12.9141 9.19044C12.8352 9.18407 12.7803 9.11795 12.7803 9.03828C12.7866 8.95942 12.8472 8.89887 12.9261 8.90445C13.4726 8.93472 13.8916 9.10441 14.1824 9.4143C14.4739 9.7242 14.638 10.1671 14.6619 10.7439C14.6683 10.8228 14.607 10.8897 14.5281 10.8961V10.8897L14.5289 10.8905Z" fill="white"/>
<path fill-rule="evenodd" clip-rule="evenodd" d="M15.9076 11.3645C15.8288 11.3645 15.7682 11.2976 15.7682 11.2187C15.7921 10.2532 15.5069 9.4398 14.9302 8.79691C14.645 8.47506 14.2928 8.22014 13.8921 8.04408C13.4914 7.86165 13.0182 7.75251 12.502 7.71666C12.4231 7.71028 12.3682 7.64416 12.3745 7.5645C12.3809 7.48563 12.447 7.42509 12.5267 7.43066C13.6372 7.5159 14.5175 7.91024 15.1429 8.6081C15.7682 9.30596 16.0773 10.1926 16.0534 11.2307C16.0471 11.3032 15.9865 11.3645 15.9076 11.3645Z" fill="white"/>
<path fill-rule="evenodd" clip-rule="evenodd" d="M17.3227 11.9349C17.2438 11.9349 17.1833 11.8743 17.1833 11.7955C17.1769 10.9454 17.0495 10.1743 16.8009 9.5067C16.5524 8.84469 16.1819 8.26234 15.696 7.77081C15.21 7.28486 14.6516 6.91522 14.0509 6.66587C13.4439 6.41731 12.7699 6.28985 12.0418 6.28985C11.9629 6.28985 11.9023 6.22293 11.9023 6.14406C11.9023 6.0652 11.9629 6.00465 12.0418 6.00465C13.5713 6.0166 14.8643 6.5392 15.8903 7.56448C16.4066 8.08071 16.8009 8.6997 17.0622 9.40393C17.3235 10.1018 17.4566 10.9096 17.4629 11.7955C17.4629 11.868 17.4024 11.9293 17.3235 11.9349H17.3227Z" fill="white"/>
</svg>
