<svg width="24" height="24" viewBox="0 0 24 24" fill="none" xmlns="http://www.w3.org/2000/svg">
<circle cx="12" cy="12" r="12" fill="#003A42"/>
<path fill-rule="evenodd" clip-rule="evenodd" d="M7.94349 8.82271C8.32641 9.79084 8.79637 10.6873 9.42298 11.494C9.51 11.6016 9.61444 11.6912 9.71887 11.7809C9.87552 11.8884 10.0322 11.8526 10.1018 11.6733C10.1714 11.4761 10.241 11.0637 10.241 10.8486C10.2585 10.2928 10.241 9.93426 10.2062 9.39641C10.1888 9.03785 10.067 8.73307 9.56222 8.64343C9.40557 8.60757 9.38816 8.48207 9.4926 8.35657C9.70147 8.08765 9.99736 8.03386 10.3107 8.01594C10.8154 7.98008 11.3202 8.01594 11.8424 8.01594C12.0512 8.01594 12.2601 8.03386 12.469 8.08765C12.7301 8.14143 12.8693 8.33865 12.9215 8.60757C12.9389 8.751 12.9563 8.89442 12.9563 9.01992C12.9389 9.61155 12.9215 10.2211 12.9041 10.8127C12.9041 11.0458 12.9215 11.2968 12.9737 11.512C13.0434 11.8347 13.2522 11.9064 13.4611 11.6733C13.7396 11.3865 13.9833 11.0458 14.2096 10.7231C14.6273 10.1135 14.9232 9.4502 15.2017 8.751C15.3409 8.39243 15.4454 8.32072 15.8109 8.32072C16.5071 8.32072 17.2034 8.32072 17.8996 8.32072C18.0214 8.32072 18.1607 8.33865 18.2651 8.3745C18.4566 8.42829 18.5262 8.58964 18.4914 8.80478C18.3869 9.27092 18.1433 9.68327 17.8648 10.0598C17.4296 10.6873 16.9945 11.2789 16.5593 11.9064C16.5071 11.9781 16.4549 12.0677 16.4027 12.1574C16.246 12.4622 16.246 12.6414 16.4897 12.8924C16.8726 13.3048 17.273 13.6813 17.6385 14.0936C17.8996 14.3984 18.1607 14.7211 18.3695 15.0618C18.6306 15.492 18.474 15.9044 17.9692 15.9761C17.6559 16.0299 16.1242 15.9761 16.0372 15.9761C15.6194 15.9761 15.2539 15.8327 14.9754 15.5458C14.6447 15.2231 14.3488 14.8645 14.0529 14.5418C13.9659 14.4343 13.8614 14.3446 13.757 14.255C13.4959 14.0578 13.2522 14.0936 13.1304 14.4163C13.026 14.6853 12.9389 15.3845 12.9389 15.4382C12.9215 15.743 12.7301 15.9402 12.382 15.9582C11.4072 16.012 10.4673 15.9044 9.57963 15.4203C8.83118 15.008 8.23938 14.4343 7.71721 13.753C6.89914 12.6773 6.25513 11.494 5.66333 10.2749C5.62852 10.2211 5.03672 8.89442 5.01932 8.84064C4.9671 8.6255 5.01932 8.42829 5.19338 8.3745C5.29781 8.33865 7.28207 8.3745 7.29947 8.3745C7.61278 8.39243 7.82165 8.53586 7.96089 8.85857L7.94349 8.82271Z" fill="#CFFBFA"/>
</svg>
