<svg width="24" height="24" viewBox="0 0 24 24" fill="none" xmlns="http://www.w3.org/2000/svg">
<circle cx="12" cy="12" r="12" fill="#55CD6C"/>
<path d="M8.66181 6.04093L7.88451 6.00001C7.63903 6.00001 7.39359 6.08186 7.22994 6.2455C6.86174 6.57278 6.24809 7.18643 6.08445 8.00469C5.79808 9.23203 6.24809 10.7048 7.31179 12.1776C8.37549 13.6504 10.421 16.0232 14.0212 17.046C15.1667 17.3733 16.0667 17.1687 16.8032 16.7187C17.3759 16.3505 17.7441 15.7778 17.8668 15.1641L17.9896 14.5913C18.0305 14.4277 17.9486 14.2231 17.785 14.1413L15.2076 12.9549C15.044 12.873 14.8394 12.914 14.7167 13.0776L13.6939 14.3867C13.6121 14.4686 13.4893 14.5095 13.3666 14.4686C12.6711 14.2231 10.3392 13.2412 9.07094 10.7866C9.03001 10.6639 9.03001 10.5411 9.11186 10.4593L10.0937 9.35475C10.1756 9.23203 10.2164 9.06839 10.1756 8.94562L8.98914 6.28642C8.94817 6.16365 8.82545 6.04093 8.66181 6.04093Z" fill="#FEFEFE"/>
</svg>
