<svg width="48" height="24" viewBox="0 0 48 24" fill="none" xmlns="http://www.w3.org/2000/svg">
<path d="M17.2414 22.7226C16.5097 22.7226 16.1561 22.4506 16.1561 21.8901C16.1561 21.5522 16.2795 20.9918 16.4932 20.2006C16.7235 19.4094 16.8303 18.8407 16.8303 18.4863C16.8303 17.9011 16.5837 17.6127 16.0575 17.6127C15.9506 17.6127 15.8108 17.6374 15.6382 17.6539L14.6186 22.5H12.7687L14.6186 13.772C14.0595 14.0193 13.6155 14.3737 13.2867 14.8352C12.9742 15.3132 12.8098 15.8819 12.8098 16.566C12.8098 16.9039 12.8509 17.1676 12.9578 17.3572C12.9824 17.3984 12.9824 17.4231 12.9824 17.4396C12.2918 17.4396 11.856 17.2088 11.6916 16.772C11.6258 16.6072 11.6094 16.4176 11.6094 16.1868C11.6094 15.75 11.7574 15.3544 12.0287 14.9588C12.5713 14.1429 13.4018 13.5412 14.5035 13.1456C15.0215 12.9561 15.5642 12.8572 16.1068 12.8572C16.2712 12.8572 16.4604 12.8572 16.6248 12.8819L15.8108 16.7226C16.0821 15.9478 16.4604 15.2226 16.9372 14.5303C17.4141 13.8379 17.8499 13.3846 18.2281 13.1704C18.6063 12.9643 18.9187 12.8572 19.2065 12.8572C19.4943 12.8572 19.708 12.9231 19.8314 13.022C20.0616 13.2116 20.1849 13.4176 20.1849 13.6237C20.1849 13.9781 20.1027 14.25 19.9383 14.3984C19.7738 14.5467 19.5847 14.6044 19.3545 14.6044C18.9763 14.6044 18.7296 14.4396 18.6063 14.0852C17.7923 14.5632 17.0688 15.544 16.4028 17.011C16.5097 17.011 16.6084 16.9863 16.6906 16.9863H16.9372C17.7923 16.9863 18.2939 17.2583 18.4583 17.8187C18.4994 17.9835 18.5405 18.1978 18.5405 18.4204C18.5405 18.7748 18.4336 19.3187 18.2281 20.0934C18.0225 20.8434 17.9157 21.3462 17.9157 21.577C17.9157 22.055 18.0801 22.3517 18.4172 22.4753C17.8745 22.6237 17.4799 22.7061 17.2332 22.7061L17.2579 22.7308L17.2414 22.7226ZM27.3216 20.2006C26.779 21.783 25.9897 22.5824 24.9455 22.5824C24.4686 22.5824 24.0904 22.4588 23.819 22.1868C23.5477 21.9149 23.4244 21.6264 23.4244 21.272C23.4244 20.9176 23.5313 20.3324 23.7122 19.4753L24.2713 16.9286C23.8355 16.9286 23.5231 17.1182 23.2928 17.4726C23.0626 17.827 22.8735 18.3709 22.7337 19.0797C22.5857 19.7885 22.446 20.3572 22.3555 20.7528C22.2486 21.1484 22.1253 21.4863 21.9773 21.7583C21.6895 22.3022 21.2045 22.5907 20.5631 22.5907C20.1027 22.5907 19.7492 22.4423 19.5025 22.1704C19.2723 21.8819 19.149 21.5193 19.149 21.0824C19.149 20.6456 19.2969 20.3489 19.6094 20.1841C19.7163 20.1429 19.8396 20.1017 20.004 20.1017C20.1685 20.1017 20.3165 20.1676 20.4398 20.2912C20.5631 20.4149 20.6289 20.5797 20.6289 20.794C20.6289 21 20.5878 21.1484 20.4809 21.2555C20.374 21.3627 20.2507 21.4039 20.1274 21.3792C20.1274 21.4616 20.1685 21.5687 20.2343 21.6511C20.3 21.7335 20.4398 21.7995 20.6289 21.7995C20.8345 21.7995 21.0071 21.7335 21.1305 21.5934C21.3607 21.3627 21.5498 20.9011 21.6731 20.2335L21.8622 19.294C22.2404 17.4973 22.7749 16.5 23.5313 16.2445C23.7779 16.1621 24.0328 16.1209 24.3206 16.1209H26.2116L25.3155 20.2995C25.2497 20.5467 25.2332 20.7198 25.2332 20.8434C25.2332 21.1978 25.3977 21.3874 25.7512 21.3874C25.9979 21.3874 26.2116 21.2802 26.3761 21.0989C26.5241 20.8929 26.6885 20.6209 26.8365 20.2665H27.3792L27.3134 20.2253L27.3216 20.2006ZM32.1315 20.2006C31.1695 21.783 30.0102 22.5824 28.6125 22.5824C28.0123 22.5824 27.5272 22.4176 27.1572 22.1044C26.8036 21.7912 26.6145 21.272 26.6145 20.5385C26.6145 19.5577 26.8612 18.6182 27.3627 17.7033C27.7409 17.011 28.2589 16.5165 28.9002 16.2198C29.2373 16.055 29.5909 15.989 29.9444 15.989C30.5282 15.989 30.9475 16.0962 31.1531 16.327C31.3586 16.5577 31.4655 16.8462 31.4655 17.2253C31.4655 17.9588 31.1777 18.5852 30.594 19.0797C30.0102 19.5824 29.3196 19.8709 28.5303 19.9121C28.5056 20.1594 28.5056 20.3324 28.5056 20.4313C28.5056 20.8682 28.5878 21.1649 28.7358 21.305C28.8838 21.4533 29.114 21.511 29.3853 21.511C29.8869 21.511 30.2815 21.4039 30.6351 21.1731C30.9722 20.9671 31.3257 20.6292 31.6957 20.2088H32.1315V20.1841V20.2006ZM30.4871 17.1099C30.4871 16.7967 30.3802 16.6484 30.1747 16.6484C29.8622 16.6484 29.5498 16.9368 29.262 17.4808C28.9742 18.0248 28.7605 18.6264 28.6371 19.294C29.1387 19.2528 29.5498 19.022 29.928 18.6017C30.3062 18.1814 30.4871 17.6868 30.4871 17.1017V17.1099ZM36.6125 18.6759C36.6536 18.8242 36.6783 19.0715 36.6783 19.4259C36.6783 19.7803 36.6125 20.1346 36.4727 20.5302C36.3247 20.9259 36.1356 21.2638 35.8725 21.577C35.2887 22.2445 34.5405 22.5824 33.6197 22.5824C32.9126 22.5824 32.3946 22.3764 32.041 21.9561C31.6875 21.5357 31.4984 20.9753 31.4984 20.283C31.4984 19.5907 31.6628 18.6759 32.0164 17.5303C32.3946 16.2775 32.8715 15.2308 33.4306 14.3819C34.0965 13.3764 34.7872 12.8819 35.5107 12.8819C35.9054 12.8819 36.2425 13.0055 36.4892 13.2775C36.7358 13.5495 36.8838 14.011 36.8838 14.6786C36.8838 15.3462 36.6536 16.1374 36.1932 17.0357L35.8396 17.7033C36.0287 17.7857 36.1932 17.9094 36.3165 18.0824C36.8756 18.0824 37.5005 17.9176 38.1664 17.5632C38.3555 17.4561 38.52 17.3737 38.6433 17.2748L38.7666 17.6292C38.2651 18.1484 37.5416 18.5028 36.6043 18.6759V18.7006L36.6125 18.6759ZM33.4059 20.283C33.4059 21.033 33.6526 21.3874 34.1952 21.3874C34.5899 21.3874 34.9023 21.1978 35.1572 20.827C35.4038 20.4478 35.5107 20.077 35.5107 19.6813C35.5107 19.2857 35.4696 19.0303 35.4038 18.8654C35.2805 18.9066 35.1161 18.9478 34.927 18.9478C34.7379 18.9478 34.5734 18.8819 34.4665 18.783C34.3432 18.6759 34.2774 18.5357 34.2774 18.3627C34.2774 18.0742 34.3597 17.8846 34.5076 17.761C34.6556 17.6374 34.8859 17.5715 35.1736 17.555C35.5683 16.8462 35.8396 16.0962 35.9876 15.2967C36.0287 15.0248 36.0698 14.7775 36.0698 14.522C36.0698 14.2748 36.0287 14.0852 35.9629 13.9781C35.8972 13.8709 35.7985 13.8297 35.6505 13.8297C35.3792 13.8297 35.1079 14.1017 34.8201 14.6456C34.3432 15.544 33.9486 16.9039 33.595 18.6759C33.4717 19.3682 33.4059 19.8874 33.4059 20.2583V20.283ZM42.779 20.2006C41.817 21.783 40.6577 22.5824 39.26 22.5824C38.6598 22.5824 38.1747 22.4176 37.8047 22.1044C37.4511 21.7912 37.262 21.272 37.262 20.5385C37.262 19.5577 37.5087 18.6182 38.0102 17.7033C38.3884 17.011 38.9064 16.5165 39.5477 16.2198C39.8848 16.055 40.2384 15.989 40.5919 15.989C41.1757 15.989 41.595 16.0962 41.8006 16.327C42.0061 16.5577 42.113 16.8462 42.113 17.2253C42.113 17.9588 41.8252 18.5852 41.2415 19.0797C40.6577 19.5824 39.9671 19.8709 39.1777 19.9121C39.1531 20.1594 39.1531 20.3324 39.1531 20.4313C39.1531 20.8682 39.2353 21.1649 39.3833 21.305C39.5313 21.4533 39.7615 21.511 40.0328 21.511C40.5344 21.511 40.929 21.4039 41.2826 21.1731C41.6197 20.9671 41.9732 20.6292 42.3432 20.2088H42.779V20.1841V20.2006ZM41.1346 17.1099C41.1346 16.7967 41.0277 16.6484 40.8221 16.6484C40.5097 16.6484 40.1973 16.9368 39.9095 17.4808C39.6217 18.0248 39.408 18.6264 39.2846 19.294C39.7862 19.2528 40.1973 19.022 40.5755 18.6017C40.9537 18.1814 41.1346 17.6868 41.1346 17.1017V17.1099ZM43.7574 22.1209L43.4532 23.5385L41.5128 24L43.297 15.6099H45.1469L44.9414 16.5742C45.3607 16.1951 45.854 16.0303 46.4378 16.0303C47.1695 16.0303 47.6629 16.3846 47.8766 17.0934C47.9588 17.3407 48 17.6539 48 17.9918C48 18.3297 47.9753 18.6594 47.9342 18.9973C47.8931 19.3352 47.8273 19.6649 47.7286 20.0028C47.6217 20.3407 47.4984 20.6704 47.3504 20.9671C47.2024 21.2802 46.9969 21.5522 46.7667 21.783C46.5364 22.0302 46.2651 22.2198 45.9362 22.3682C45.6238 22.5165 45.2291 22.5742 44.7523 22.5742C44.2754 22.5742 43.9383 22.4259 43.7492 22.1127V22.1374L43.7574 22.1209ZM46.2569 18.0083C46.2569 17.2995 46.0513 16.9451 45.6074 16.9451C45.4594 16.9451 45.3196 17.011 45.1469 17.1099C44.9825 17.2171 44.8591 17.3819 44.7276 17.5879L43.9794 21.1813C44.0616 21.3709 44.2261 21.4698 44.522 21.4698C44.8098 21.4698 45.0647 21.3462 45.2949 21.1154C45.7307 20.6374 46.0267 19.9698 46.15 19.0715C46.2158 18.6759 46.2569 18.3215 46.2569 18.0248V18V18.0083Z" fill="white"/>
<path fill-rule="evenodd" clip-rule="evenodd" d="M5.50874 0C8.54266 0 11.0175 2.48077 11.0175 5.52198V11.044H5.50874C2.47482 11.044 0 8.56318 0 5.52198C0 2.48077 2.47482 0 5.50874 0Z" fill="#F2F7F2"/>
<path fill-rule="evenodd" clip-rule="evenodd" d="M0 17.4478C0 14.4065 2.47482 11.9258 5.50874 11.9258H11.0175V17.4478C11.0175 20.489 8.54266 22.9697 5.50874 22.9697C2.47482 22.9697 0 20.489 0 17.4478Z" fill="#F2F7F2"/>
<path fill-rule="evenodd" clip-rule="evenodd" d="M22.9149 5.53028C22.9149 8.57148 20.4401 11.0523 17.4062 11.0523H11.8975V5.53028C11.8975 2.48907 14.3723 0.00830078 17.4062 0.00830078C20.4401 0.00830078 22.9149 2.48907 22.9149 5.53028Z" fill="#F2F7F2"/>
</svg>
