<svg width="216" height="80" viewBox="0 0 216 80" fill="none" xmlns="http://www.w3.org/2000/svg">
<g clip-path="url(#clip0)">
<path d="M1.18082 24.2038C1.1394 23.8581 1.1236 23.8675 0.944965 23.6098C0.967345 23.7374 0.989726 23.8645 1.01211 23.9915C1.25424 23.9302 1.11783 24.0185 1.01211 24.0766L1.23105 25.8999L9.04452 28.2745C9.07267 31.6525 9.10052 35.0304 9.12847 38.4086C6.88687 36.8303 4.07197 34.7992 2.25823 32.769C2.25823 32.7773 2.25246 33.5117 2.32558 33.2355C2.12405 34.1248 1.92191 35.0141 1.73598 35.907C1.80252 34.6653 1.85335 33.5023 1.83735 32.2604H1.83705C1.59896 31.9604 1.35339 31.5712 1.24796 31.2001L1.16401 38.0695C0.964003 39.3788 1.82844 40.9621 2.52781 42.0128C2.53257 41.6629 2.6703 37.435 2.73005 40.1046C2.74382 40.8409 2.73005 41.5739 2.73005 42.3097C4.32251 44.6384 6.63835 46.8318 8.77494 48.6701C6.77031 47.5115 4.71159 46.4402 2.6623 45.3628C2.7422 48.8106 3.00449 46.5648 2.99902 47.6946C2.9813 50.0084 2.55039 49.3368 3.01613 52.2745C2.99841 52.2648 2.64569 52.0528 2.64569 52.1046C2.64569 52.433 3.39093 51.753 2.99902 54.0128L2.5109 58.5075C1.96161 55.7408 2.14066 59.5168 2.14066 60.034C2.18532 59.9774 2.23038 59.921 2.27504 59.8644C2.17286 60.637 2.15544 61.4193 2.10683 62.1965C2.20628 61.3762 2.13478 60.0211 2.6623 59.398C2.44305 57.9895 2.5667 58.5568 2.62888 57.0659C2.64498 56.1979 2.62979 57.8425 2.62888 57.9564C2.70483 57.3208 2.77521 56.6856 2.83081 56.0482C2.84813 56.884 2.84458 57.7149 2.79709 58.5499C2.80843 58.4369 2.81947 58.324 2.83081 58.2106C2.81947 58.5216 2.80843 58.8324 2.79709 59.1433C2.83213 58.485 2.68802 59.4781 2.67941 59.5676C2.6623 59.949 2.64569 60.3306 2.62888 60.7123L2.78028 59.2707C2.77916 59.5954 2.98403 60.3127 3.01613 60.8396C3.01006 60.8114 3.00479 60.783 2.99902 60.7545L2.84792 63.1294C2.8299 61.9634 2.46269 66.5284 2.42695 67.1152C2.37621 66.8327 2.32558 66.5499 2.27504 66.2673V66.3097C2.33337 65.1858 2.54938 64.1024 2.57834 62.9599C2.60488 61.403 1.81801 68.9491 1.7531 69.9986C1.78824 68.6605 1.65557 67.3069 1.58489 65.9705C1.54013 67.8653 1.42063 69.9914 1.58489 71.8642C1.70388 72.7769 1.76221 70.2786 1.78652 70.0833C1.67461 72.4842 0.289851 75.6843 2.25661 77.6559C5.75953 81.1684 9.55158 78.0972 11.5818 78.1917C10.2495 78.0732 6.16005 78.034 5.00497 77.5413C3.07598 76.718 1.75421 74.7572 1.79178 72.6709C1.84201 71.654 1.76859 70.4524 1.87098 69.4898C1.8572 70.3797 1.85386 71.2715 1.85416 72.161C1.98399 70.6086 2.09914 69.051 2.208 67.4969L2.27504 69.6595C2.29773 69.518 2.32011 69.3769 2.34249 69.2352C2.30876 69.942 2.27504 70.649 2.24162 71.3554C2.32841 70.3955 2.44355 69.4374 2.44355 68.4721C2.45459 68.4721 2.47728 68.4721 2.47728 68.4721C2.47728 68.5572 2.47728 68.7265 2.47728 68.7265C2.73774 67.8516 2.53936 68.3752 2.67941 67.4969C2.67364 67.5254 2.66807 67.5533 2.6623 67.5818C2.67941 67.3978 2.69622 67.2142 2.71283 67.0305C2.67496 68.908 2.60954 70.7948 2.58472 72.6709C2.58472 75.1333 4.51584 77.1066 7.06946 77.1618L8.88573 77.1621C8.71276 77.1716 8.50546 77.1839 8.33442 77.213C10.2755 77.213 11.2728 77.4485 13.0409 77.2464H20.674L16.7301 77.5325C16.1509 77.5355 9.61436 77.1748 14.1012 77.6672C11.8053 77.7813 4.98806 77.3214 10.8359 77.9536C8.38657 77.857 9.7366 78.0169 11.2179 78.1386C10.7671 78.1556 11.3239 78.1458 11.4299 78.1556C9.97691 78.2342 8.52116 78.3386 7.06946 78.4414C4.21395 78.5833 1.43845 76.2033 1.28331 72.6709C1.18973 71.3563 1.09606 70.0403 0.995498 68.7265C0.888557 62.3378 0.782022 55.9491 0.675385 49.5607C0.691993 57.2639 0.716804 64.9677 0.725108 72.6709C0.753869 76.2068 3.54496 78.9921 7.06946 79.0147C9.71067 79.0089 12.3511 79.0035 14.9917 78.9976C16.473 78.9824 16.1804 78.3022 18.1721 78.408C18.0024 78.3914 17.8329 78.3746 17.6633 78.3577C19.6414 78.1903 21.9983 78.0929 23.9814 78.1218C23.8826 78.1108 23.7834 78.0995 23.6848 78.0884C25.7775 78.011 27.9111 77.8462 30.0029 77.9199C30.048 78.0271 30.0929 78.0708 30.2151 78.0545C31.9762 77.8932 33.9124 77.9368 35.6853 77.9368L29.9604 77.7683C29.9159 77.6628 29.9115 77.5283 29.8756 77.4148L40.0526 77.9873L38.4836 77.7849C40.2518 77.7899 37.3009 77.6374 37.1267 77.6335C37.9666 77.6335 38.7896 77.6236 39.6287 77.6841C39.4306 77.6672 39.2329 77.6506 39.0349 77.6335L49.2119 77.8526L46.2862 77.5999L57.6507 77.5496C57.3678 77.5382 57.0853 77.527 56.8024 77.5157L64.3927 77.6167C64.6493 77.662 65.026 77.7349 65.2832 77.7349L63.8837 78.004C64.0674 78.0268 66.2909 78.2027 66.0888 77.8017C66.7674 77.8468 67.4458 77.8918 68.1243 77.9368C67.3032 77.818 66.8826 77.7661 66.0468 77.7515C66.0333 77.7512 66.0095 77.7509 66.0043 77.7352C66.2586 77.7352 66.7674 77.7349 66.7674 77.7349C66.4998 77.7051 66.2299 77.6791 65.9618 77.6506C68.3846 77.678 70.8758 77.4565 73.3065 77.4196C74.5872 77.3994 75.7544 76.9354 76.6622 76.0264C78.5171 74.1683 77.9376 72.3017 78.0172 70.1C78.0114 70.1706 78.0058 70.241 78 70.3118C78.0224 69.803 78.0453 69.2943 78.0675 68.7856L78 69.2518L78.2022 65.775C78.2022 65.775 78.4488 67.1048 78.5389 66.7077L78.5894 66.4107C78.5784 66.4814 78.5671 66.5521 78.5557 66.6228C78.6137 66.0884 78.5726 65.509 78.5726 64.9693C78.5952 65.662 78.6174 66.3544 78.64 67.0468L78.89 63.3019C77.2673 64.811 75.0186 65.6287 72.6592 65.3477L71.3579 65.1926L71.2983 65.6051C71.3317 65.6051 71.3654 65.6051 71.399 65.6051C71.3486 66.157 71.2812 66.707 71.2306 67.2588L71.0961 65.5203C71.1433 65.7891 71.2474 66.326 71.2474 66.326C71.2474 66.326 71.2587 65.766 71.2641 65.1815L70.1605 65.05C70.1043 65.485 70.0728 65.2839 70.069 65.5628C69.9314 66.374 70.0434 68.573 69.7489 68.5735C69.7033 67.5716 69.6475 67.25 69.5807 68.5735H69.5638C69.5863 67.3785 69.6187 66.1841 69.6538 64.9897L69.4978 64.971L69.4965 65.1386L69.4919 64.9703L69.4334 64.9635L69.3953 66.2836C69.3793 66.0431 69.3641 65.8028 69.3448 65.5628C69.3266 65.6092 69.321 65.6816 69.3112 65.7325C69.3166 65.6351 69.3242 65.3536 69.3339 64.9515L69.0155 64.9136L68.7386 68.9126C68.7346 69.8911 69.1558 66.1845 69.1595 66.1567C69.1595 67.018 69.1937 67.8825 69.1427 68.7431C68.619 69.1391 68.934 71.7084 68.9982 72.6709C69.0277 70.8594 70.0803 69.3653 71.6251 68.7204L71.6518 68.8279C71.7029 68.8202 71.7433 68.7564 71.7751 68.6613C72.2476 68.4846 72.7626 68.3848 73.3065 68.3782C72.8336 68.4133 72.3315 68.4614 71.8151 68.5061C71.9766 67.7165 72.1015 66.3306 71.7527 65.8594C71.5872 66.9421 71.3729 67.7143 71.5762 68.5263C71.3093 68.5484 71.0392 68.5688 70.768 68.5851L71.0119 66.4107L70.776 68.1493C70.6711 67.6648 70.576 67.3939 70.5909 66.8772C70.5517 67.4425 70.5122 68.0081 70.473 68.5735C70.5213 68.5735 70.5672 68.5837 70.6136 68.5942C69.3017 68.666 67.9721 68.6339 66.8522 68.238C66.1172 68.3221 65.3823 68.4064 64.6471 68.4906L60.8307 68.3387C60.845 68.3387 60.8592 68.3387 60.873 68.3387C60.6067 68.3111 60.3352 68.2916 60.0676 68.2714C60.096 68.2714 60.1523 68.2714 60.1523 68.2714L50.3289 67.8184C50.3316 67.8228 50.3855 67.8367 50.5266 67.8673C50.4883 67.8825 50.483 67.8842 50.4418 67.8842C50.5407 67.8896 50.6396 67.8952 50.7384 67.9008C50.1488 67.9206 49.6615 67.9897 49.0849 68.0692C49.3752 68.0885 49.684 68.0938 49.975 68.1029C49.2398 68.2321 48.5052 68.3614 47.77 68.4906C49.2465 68.3056 49.4288 68.2211 50.8658 68.2211C49.4912 68.6179 50.8701 68.4881 51.5866 68.5072L41.4519 69.2314C40.7992 69.1134 40.2104 69.0248 39.5436 68.9786C38.3946 68.9008 37.161 68.851 36.0241 68.6756C37.0126 68.5122 38.0038 68.3647 38.9926 68.204C37.7771 68.3332 36.5616 68.4622 35.3458 68.5914C32.2848 68.6282 29.2047 68.7474 26.144 68.8439C23.9339 67.651 21.104 67.6643 18.6814 67.9849C16.5928 68.2457 14.4982 68.5116 12.4052 68.726C11.6702 68.6926 10.935 68.6588 10.2001 68.6248C10.2147 68.619 10.8177 68.4125 10.6666 68.3725C12.9283 68.162 15.1895 67.9438 17.4514 67.7326C16.5182 67.8198 15.5077 67.7996 14.5678 67.7996C17.9765 67.4045 14.9784 67.6734 13.7195 67.7831C13.0409 67.7662 12.3626 67.7497 11.6843 67.7326C4.0025 68.5996 11.3491 71.1327 11.1897 68.8439L11.3874 68.827L11.1894 68.8202C11.1625 66.6642 11.188 64.2839 11.082 68.0479L10.6277 61.6878C10.6105 62.2247 10.5936 62.7618 10.5768 63.299C10.8508 65.6794 10.8599 65.8849 10.5768 63.6385C10.566 63.9646 10.561 64.2869 10.5599 64.6134C10.4876 64.1118 10.376 63.5929 10.3581 63.0869L10.7619 50.1966C12.8687 51.7887 12.5566 50.9941 10.7452 49.8148L10.8124 39.596C10.3421 39.2698 9.86916 38.9463 9.39805 38.6205C9.32534 35.1861 9.25222 31.7516 9.17931 28.3168C10.1448 28.6134 11.1104 28.9103 12.0754 29.2074C12.1975 27.3673 10.2426 25.0098 9.07794 23.7374C9.04999 22.2958 9.02194 20.8541 8.99399 19.4124C8.99946 20.8256 9.00533 22.2392 9.0108 23.6527C6.46933 20.9441 3.26131 18.4657 0.978687 15.8929C1.05322 18.6629 1.11753 21.4332 1.18082 24.2038ZM103.464 70.4139V58.3015V54.915H113.513V57.1359H107.74V69.2444V70.4139H103.464ZM127.682 70.4139H123.031L119.699 62.5581L116.526 70.4139H114.277L119.282 58.3053L120.999 54.1748L125.988 66.2871L127.682 70.4139ZM133.08 54.915H137.361L141.858 67.0274L143.13 70.4139H138.314L136.64 65.9249H131.604L130.119 70.4177L127.693 70.4139L131.903 58.3015L133.08 54.915ZM134.029 58.6597L132.167 63.8733L135.86 63.8694L134.029 58.6597ZM159.535 58.2818L157.471 59.7662C157.125 59.0221 156.707 58.4157 156.223 57.9432C155.739 57.4706 155.231 57.1321 154.699 56.9272C154.167 56.7185 153.663 56.6161 153.187 56.6161C152.75 56.6161 152.344 56.6908 151.978 56.8406C151.608 56.9903 151.261 57.2146 150.938 57.5139C150.32 58.0692 149.856 58.8094 149.54 59.7348C149.225 60.6602 149.068 61.6367 149.068 62.6565C149.068 63.6804 149.225 64.6648 149.54 65.6099C149.71 66.0863 149.907 66.5076 150.135 66.8738C150.363 67.2401 150.639 67.5669 150.962 67.8582C151.592 68.4293 152.332 68.7128 153.187 68.7128C154.305 68.7128 155.231 68.4568 155.963 67.9448C156.699 67.4329 157.388 66.5707 158.034 65.3578L159.905 66.6808C159.55 67.5669 159.007 68.3269 158.27 68.9647C157.538 69.6026 156.691 70.083 155.731 70.402C154.766 70.725 153.77 70.8864 152.73 70.8864C151.659 70.8864 150.643 70.721 149.674 70.3902C147.95 69.8153 146.638 68.8466 145.74 67.4843C144.839 66.1257 144.39 64.6136 144.39 62.9557C144.39 62.0305 144.528 61.1288 144.803 60.2388C145.083 59.3528 145.496 58.5298 146.051 57.7739C146.603 57.0138 147.284 56.3721 148.087 55.8404C148.891 55.3127 149.789 54.9544 150.781 54.7693C151.572 54.663 152.25 54.6079 152.809 54.6079C155.888 54.6079 158.129 55.8326 159.535 58.2818ZM177.034 58.2818L174.971 59.7662C174.624 59.0221 174.207 58.4157 173.723 57.9432C173.238 57.4706 172.73 57.1321 172.199 56.9272C171.667 56.7185 171.163 56.6161 170.687 56.6161C170.249 56.6161 169.844 56.6908 169.478 56.8406C169.107 56.9903 168.761 57.2146 168.438 57.5139C167.82 58.0692 167.355 58.8094 167.04 59.7348C166.725 60.6602 166.568 61.6367 166.568 62.6565C166.568 63.6804 166.725 64.6648 167.04 65.6099C167.209 66.0863 167.406 66.5076 167.635 66.8738C167.863 67.2401 168.139 67.5669 168.462 67.8582C169.092 68.4293 169.832 68.7128 170.687 68.7128C171.805 68.7128 172.73 68.4568 173.463 67.9448C174.199 67.4329 174.888 66.5707 175.534 65.3578L177.405 66.6808C177.05 67.5669 176.507 68.3269 175.77 68.9647C175.038 69.6026 174.191 70.083 173.23 70.402C172.266 70.725 171.269 70.8864 170.23 70.8864C169.159 70.8864 168.143 70.721 167.174 70.3902C165.449 69.8153 164.138 68.8466 163.24 67.4843C162.338 66.1257 161.889 64.6136 161.889 62.9557C161.889 62.0305 162.027 61.1288 162.303 60.2388C162.583 59.3528 162.996 58.5298 163.551 57.7739C164.102 57.0138 164.784 56.3721 165.587 55.8404C166.39 55.3127 167.288 54.9544 168.281 54.7693C169.072 54.663 169.749 54.6079 170.309 54.6079C173.388 54.6079 175.629 55.8326 177.034 58.2818ZM215.031 28.6635C215.031 30.1361 214.717 31.6478 214.091 33.1987C213.464 34.7495 212.689 36.2299 211.764 37.6397C210.84 39.0496 209.845 40.3264 208.78 41.4699C207.715 42.6135 206.728 43.4985 205.819 44.1252C205.005 44.6891 204.104 45.2139 203.117 45.6995C202.13 46.1851 201.151 46.4279 200.179 46.4279C199.553 46.4279 199.122 46.3027 198.887 46.0521C198.652 45.8013 198.535 45.5194 198.535 45.2061C198.535 44.5481 198.715 43.8432 199.075 43.0912C199.435 42.3393 199.897 41.603 200.461 40.8824C201.025 40.1618 201.66 39.4491 202.365 38.7441C203.07 38.0392 203.783 37.4048 204.503 36.8408C205.788 35.8383 206.971 35.0001 208.052 34.3266C209.133 33.653 210.112 33.0811 210.989 32.6111C211.146 32.1099 211.224 31.6713 211.224 31.2953C211.224 30.9193 211.224 30.512 211.224 30.0734C211.224 29.3528 211.146 28.7654 210.989 28.3111C210.832 27.8568 210.621 27.4965 210.354 27.2302C210.088 26.9638 209.79 26.7837 209.461 26.6897C209.133 26.5957 208.78 26.5488 208.404 26.5488C207.683 26.5488 206.783 26.8934 205.702 27.5826C204.621 28.2719 203.375 29.3685 201.965 30.8723C201.652 31.5929 201.299 32.4781 200.908 33.5276C200.516 34.5772 200.093 35.7364 199.639 37.0053C199.185 38.2742 198.699 39.6449 198.182 41.1175C197.665 42.59 197.14 44.0939 196.608 45.6291C196.106 47.0389 195.613 48.4409 195.127 49.8351C194.642 51.2294 194.187 52.5609 193.764 53.8298C193.341 55.0987 192.957 56.2736 192.613 57.3545C192.268 58.4354 191.986 59.3675 191.767 60.1508C191.735 60.3074 191.712 60.5424 191.696 60.8557C191.681 61.169 191.641 61.4823 191.579 61.7957C191.516 62.0776 191.383 62.4066 191.179 62.7825C190.976 63.1585 190.608 63.5658 190.075 64.0045C189.386 64.537 188.681 64.8033 187.96 64.8033C187.709 64.8033 187.49 64.7094 187.302 64.5214C187.114 64.3334 187.02 64.0201 187.02 63.5815C187.02 63.2994 187.083 62.8531 187.208 62.242C187.333 61.6311 187.615 60.7773 188.054 59.6808C188.869 57.425 189.699 55.1848 190.545 52.9604C191.265 51.0492 192.041 48.9893 192.871 46.7805C193.593 44.8603 194.273 43.0527 194.912 41.3574C193.287 42.4585 191.698 43.3812 190.145 44.1252C188.25 45.0337 186.127 45.488 183.777 45.488C183.119 45.488 182.602 45.4254 182.226 45.3C180.754 46.0833 179.203 46.4749 177.574 46.4749C177.01 46.4749 176.461 46.3888 175.929 46.2165C175.396 46.0442 174.918 45.7543 174.495 45.347C174.072 44.9397 173.735 44.4072 173.485 43.7492C173.34 43.3702 173.238 42.9446 173.176 42.4721C172.479 43.0434 171.752 43.5945 170.994 44.1252C170.054 44.7831 169.106 45.3784 168.151 45.911C167.195 46.4436 166.239 46.8666 165.284 47.18C164.328 47.4932 163.427 47.6498 162.581 47.6498C161.986 47.6498 161.414 47.5793 160.866 47.4384C160.318 47.2974 159.801 47.0311 159.315 46.6395C158.829 46.2478 158.383 45.6917 157.975 44.9711C157.568 44.2505 157.224 43.3106 156.942 42.1514C156.503 40.3029 156.197 38.9008 156.025 37.9452C155.853 36.9897 155.688 36.2299 155.532 35.6659C155.281 36.0105 155.038 36.3473 154.803 36.6764C154.568 37.0053 154.325 37.4674 154.075 38.0627C153.855 38.5327 153.652 39.0104 153.464 39.4961C153.276 39.9817 153.103 40.4125 152.947 40.7885C152.759 41.2271 152.586 41.65 152.43 42.0573C152.148 42.7779 151.921 43.3184 151.748 43.6787C151.576 44.039 151.38 44.3288 151.161 44.5481C150.91 44.7988 150.511 45.0572 149.962 45.3235C149.414 45.5899 148.952 45.723 148.576 45.723C148.2 45.723 147.941 45.676 147.8 45.5821C147.66 45.488 147.589 45.3157 147.589 45.0651C147.589 44.9085 147.667 44.6108 147.824 44.1721C147.981 43.7336 148.247 43.013 148.623 42.0103C148.659 41.9213 148.693 41.8334 148.727 41.7467C148.637 41.8151 148.539 41.8873 148.435 41.9633C147.62 42.5587 146.563 43.1931 145.263 43.8667C143.962 44.5403 142.513 45.1434 140.915 45.676C139.317 46.2086 137.735 46.4749 136.169 46.4749C134.195 46.4749 132.714 46.005 131.727 45.0651C130.74 44.1252 130.247 42.637 130.247 40.6005C130.247 39.6123 130.455 38.4562 130.87 37.1323C130.438 37.9935 129.902 38.8284 129.26 39.6371C128.477 40.624 127.599 41.5169 126.628 42.3158C125.657 43.1147 124.654 43.7649 123.62 44.2661C122.336 44.8928 121.09 45.3705 119.884 45.6995C118.678 46.0285 117.479 46.2713 116.288 46.4279C115.098 46.5846 113.892 46.6786 112.67 46.71C111.448 46.7413 110.179 46.757 108.863 46.757C108.142 46.757 107.57 46.757 107.147 46.757C106.724 46.757 106.38 46.7648 106.114 46.7805C105.847 46.7962 105.636 46.8039 105.479 46.8039C105.322 46.8039 105.181 46.8039 105.056 46.8039C104.711 46.8039 104.382 46.7883 104.069 46.757C103.756 46.7256 103.599 46.5846 103.599 46.334C103.599 46.1773 103.889 45.6447 104.469 44.7361C105.048 43.8275 105.683 42.6057 106.372 41.0705C107.719 38.0314 108.996 35.2116 110.202 32.6111C111.409 30.0107 112.497 27.6922 113.469 25.6558C114.44 23.6193 115.27 21.904 115.96 20.5098C116.649 19.1155 117.15 18.1365 117.463 17.5725C116.962 17.2592 116.351 16.9302 115.631 16.5856C114.91 16.241 114.119 15.9277 113.257 15.6457C112.396 15.3637 111.456 15.1287 110.437 14.9408C109.419 14.7528 108.346 14.6587 107.218 14.6587C106.027 14.6587 104.946 14.8154 103.975 15.1287C103.004 15.442 102.236 15.8807 101.672 16.4447C101.265 16.8832 100.952 17.314 100.732 17.737C100.513 18.16 100.348 18.5516 100.239 18.9119C100.129 19.2722 100.066 19.5933 100.051 19.8753C100.035 20.1573 100.027 20.3453 100.027 20.4393C100.027 20.8779 100.145 21.3009 100.38 21.7081C100.615 22.1154 100.732 22.4914 100.732 22.836C100.732 23.2433 100.544 23.6741 100.168 24.1284C99.7924 24.5827 99.432 24.8099 99.0873 24.8099C98.7114 24.8099 98.4059 24.6846 98.1709 24.4339C97.9359 24.1833 97.8184 23.729 97.8184 23.071C97.8184 21.7551 98.0535 20.4471 98.5233 19.1468C98.9933 17.8467 99.8863 16.6326 101.202 15.5047C101.704 15.066 102.291 14.6744 102.965 14.3298C103.638 13.9852 104.328 13.6875 105.033 13.4369C105.737 13.1862 106.419 12.9904 107.077 12.8494C107.735 12.7084 108.299 12.638 108.769 12.638C111.244 12.638 113.265 12.8416 114.832 13.2489C116.398 13.6562 117.792 14.1889 119.014 14.8468C119.234 14.5021 119.547 14.0087 119.954 13.3664C120.362 12.7241 120.785 12.0896 121.223 11.4631C121.662 10.8364 122.101 10.2882 122.539 9.81822C122.978 9.34824 123.338 9.11321 123.62 9.11321C123.777 9.11321 123.941 9.1211 124.114 9.1368C124.286 9.1524 124.372 9.28556 124.372 9.53619C124.372 9.84951 124.215 10.249 123.902 10.7346C123.589 11.2202 123.213 11.792 122.774 12.4499C122.586 12.7632 122.375 13.0922 122.14 13.4369C121.905 13.7815 121.678 14.1027 121.458 14.4003C121.239 14.6979 121.051 14.9642 120.894 15.1992C120.738 15.4342 120.644 15.5987 120.612 15.6927C122.054 16.6326 123.456 17.6978 124.819 18.8884C126.182 20.079 127.38 21.4105 128.414 22.883C129.448 24.3555 130.278 25.9691 130.905 27.7236C131.531 29.4782 131.845 31.3893 131.845 33.4571C131.845 33.9669 131.784 34.4848 131.662 35.0107C132.404 33.3455 133.483 31.6684 134.9 29.9794C135.84 28.8515 136.803 27.8803 137.79 27.0657C138.777 26.251 139.725 25.5931 140.633 25.0918C141.542 24.5906 142.396 24.2224 143.195 23.9874C143.994 23.7525 144.675 23.6349 145.239 23.6349C146.148 23.6349 146.774 23.7525 147.119 23.9874C147.464 24.2224 147.636 24.6376 147.636 25.2328C147.636 25.9848 147.111 26.9638 146.062 28.1701C145.012 29.3763 143.657 30.7627 141.996 32.3292C141.338 32.9558 140.578 33.6608 139.717 34.444C138.855 35.2272 138.048 35.9792 137.296 36.6998C136.388 37.5144 135.479 38.3447 134.571 39.1906C134.445 41.1645 134.774 42.5195 135.558 43.2558C136.341 43.992 137.453 44.3601 138.894 44.3601C140.116 44.3601 141.354 44.133 142.607 43.6787C143.861 43.2244 144.988 42.7309 145.991 42.1984C147.151 41.5876 148.267 40.8728 149.338 40.0538L149.539 39.4726C149.68 39.0653 149.829 38.6423 149.986 38.2036C150.143 37.7651 150.315 37.2794 150.503 36.7468C151.255 34.679 151.913 32.8462 152.477 31.2483C153.041 29.6504 153.448 28.5225 153.699 27.8646C153.918 27.2694 154.106 26.7602 154.263 26.3372C154.419 25.9143 154.623 25.5775 154.874 25.3268C155.062 25.1075 155.304 24.9117 155.602 24.7393C155.9 24.5671 156.213 24.4261 156.542 24.3165C156.871 24.2068 157.192 24.1206 157.506 24.0579C157.819 23.9952 158.085 23.9639 158.305 23.9639C158.524 23.9639 158.634 24.1363 158.634 24.4809C158.634 24.7002 158.524 25.0918 158.305 25.6558C158.085 26.2197 157.866 26.7524 157.647 27.2537C157.114 28.5695 156.628 29.7993 156.19 30.9428C155.751 32.0864 155.359 33.1595 155.015 34.162L155.25 34.209C155.814 33.6138 156.331 33.0576 156.801 32.5407C157.271 32.0237 157.764 31.5068 158.281 30.9899C158.798 30.4729 159.37 29.9403 159.996 29.392C160.623 28.8436 161.359 28.2249 162.205 27.5356C162.832 27.0343 163.49 26.58 164.179 26.1728C164.868 25.7655 165.558 25.4209 166.247 25.1388C166.936 24.8569 167.602 24.6454 168.245 24.5044C168.887 24.3634 169.459 24.293 169.96 24.293C170.085 24.293 170.242 24.3008 170.43 24.3165C170.618 24.332 170.798 24.379 170.97 24.4574C171.143 24.5357 171.292 24.6533 171.417 24.8099C171.542 24.9665 171.605 25.1858 171.605 25.4678C171.605 26.0004 171.252 26.721 170.547 27.6297C169.842 28.5382 168.597 29.5408 166.811 30.6374L166.529 30.2144C167.124 29.7758 167.532 29.2588 167.751 28.6635C167.97 28.0683 168.08 27.614 168.08 27.3007C168.08 26.8621 167.767 26.6427 167.14 26.6427C166.607 26.6427 165.887 26.8229 164.978 27.1832C164.07 27.5435 163.098 28.1309 162.064 28.9455C161.375 29.4782 160.772 29.9794 160.255 30.4494C159.738 30.9193 159.307 31.3423 158.962 31.7183C158.555 32.1569 158.195 32.5641 157.882 32.9402H158.164C158.226 32.9402 158.305 32.9324 158.398 32.9167C158.492 32.901 158.571 32.8932 158.634 32.8932C158.79 32.8932 158.955 32.9479 159.127 33.0576C159.299 33.1673 159.417 33.4101 159.479 33.7861C159.636 34.6633 159.816 35.6737 160.02 36.8173C160.224 37.9609 160.451 39.0339 160.701 40.0366C161.046 41.603 161.563 42.8406 162.252 43.7492C162.942 44.6578 163.882 45.1121 165.072 45.1121C165.918 45.1121 166.733 44.9789 167.516 44.7126C168.299 44.4463 169.043 44.1095 169.748 43.7022C170.453 43.2949 171.104 42.8719 171.699 42.4333C172.232 42.0408 172.702 41.6733 173.109 41.331C173.11 40.462 173.188 39.6545 173.344 38.9087C173.5 38.1567 173.72 37.3108 174.002 36.3708C174.221 35.6189 174.48 34.8748 174.777 34.1385C175.075 33.4023 175.38 32.713 175.694 32.0708C176.007 31.4285 176.328 30.8488 176.657 30.3318C176.986 29.8149 177.292 29.4155 177.574 29.1335C177.793 28.9142 178.075 28.7184 178.42 28.546C178.764 28.3738 179.156 28.2876 179.594 28.2876C179.908 28.2876 180.135 28.3346 180.276 28.4286C180.417 28.5225 180.534 28.6165 180.628 28.7106H180.769C181.271 28.2406 181.788 27.7784 182.32 27.3241C182.853 26.8699 183.425 26.4626 184.036 26.1023C184.647 25.742 185.312 25.4444 186.033 25.2093C186.754 24.9744 187.584 24.8569 188.524 24.8569C189.715 24.8569 190.709 25.2407 191.508 26.0083C192.307 26.7759 192.707 28.0839 192.707 29.9325C192.707 31.0604 192.487 32.2979 192.049 33.6451C191.61 34.9923 190.999 36.3161 190.216 37.6162C189.433 38.9165 188.524 40.1305 187.49 41.2584C186.456 42.3863 185.328 43.3106 184.106 44.0312C184.138 44.0625 184.294 44.1017 184.576 44.1487C184.858 44.1956 185.25 44.2191 185.751 44.2191C187.098 44.2191 188.626 43.851 190.333 43.1147C191.968 42.41 193.639 41.4395 195.345 40.2035C195.694 39.2608 196.013 38.3906 196.302 37.5927C196.631 36.6842 196.944 35.7991 197.242 34.9375C197.54 34.0758 197.853 33.1987 198.182 32.3057C198.511 31.4128 198.863 30.418 199.239 29.3215C199.584 28.4129 199.913 27.4808 200.226 26.5253C200.54 25.5696 200.822 24.9665 201.072 24.7158C201.542 24.246 202.067 23.8778 202.647 23.6114C203.226 23.3452 203.595 23.212 203.751 23.212C203.877 23.212 203.978 23.2198 204.057 23.2355C204.135 23.2511 204.174 23.3373 204.174 23.494C204.174 23.5879 204.127 23.7995 204.033 24.1284C203.939 24.4574 203.822 24.8647 203.681 25.3503C203.54 25.8359 203.367 26.3607 203.164 26.9247C202.96 27.4886 202.764 28.0213 202.576 28.5225L202.811 28.5695C203.375 28.0056 204.025 27.4495 204.762 26.9012C205.498 26.3529 206.25 25.8594 207.018 25.4209C207.785 24.9822 208.529 24.6298 209.25 24.3634C209.971 24.0971 210.613 23.9639 211.177 23.9639C212.493 23.9639 213.464 24.3086 214.091 24.9979C214.717 25.6871 215.031 26.9091 215.031 28.6635ZM210.66 34.209C210.409 34.3031 210.057 34.4675 209.602 34.7025C209.148 34.9375 208.655 35.2194 208.122 35.5485C207.589 35.8774 207.033 36.2534 206.454 36.6764C205.874 37.0992 205.349 37.5457 204.879 38.0157C204.472 38.423 204.065 38.846 203.657 39.2846C203.25 39.7232 202.89 40.1775 202.576 40.6475C202.263 41.1175 202.005 41.5874 201.801 42.0573C201.597 42.5273 201.495 43.013 201.495 43.5142C201.495 44.0782 201.934 44.3601 202.811 44.3601C203.25 44.3601 203.736 44.2426 204.268 44.0077C204.801 43.7727 205.349 43.3733 205.913 42.8093C206.258 42.4646 206.657 42.0103 207.112 41.4464C207.566 40.8824 208.02 40.2323 208.475 39.4961C208.929 38.7598 209.352 37.9452 209.743 37.0523C210.135 36.1594 210.441 35.2116 210.66 34.209ZM188.947 31.4832C188.947 30.3553 188.712 29.4233 188.242 28.687C187.772 27.9508 186.942 27.5826 185.751 27.5826C185.406 27.5826 184.897 27.6767 184.224 27.8646C183.55 28.0526 182.947 28.3659 182.414 28.8046C182.101 29.0552 181.756 29.4311 181.38 29.9325C181.004 30.4337 180.644 31.0447 180.299 31.7653C179.955 32.4859 179.649 33.3239 179.383 34.2795C179.117 35.2351 178.936 36.2926 178.842 37.4517C178.842 37.7338 178.85 38.1802 178.866 38.7912C178.882 39.4021 178.999 40.0444 179.218 40.718C179.438 41.3916 179.798 42.0182 180.299 42.5978C180.801 43.1774 181.537 43.5455 182.508 43.7022C183.511 43.2009 184.412 42.4725 185.211 41.5169C186.01 40.5613 186.683 39.5117 187.232 38.3682C187.78 37.2246 188.203 36.0419 188.501 34.82C188.798 33.5981 188.947 32.4859 188.947 31.4832ZM179.829 44.4542C179.077 43.9842 178.521 43.3889 178.161 42.6683C177.801 41.9477 177.558 41.2036 177.433 40.436C177.307 39.6684 177.268 38.9243 177.315 38.2036C177.362 37.4831 177.417 36.8721 177.48 36.3708H177.339C177.245 36.6529 177.127 37.0445 176.986 37.5457C176.845 38.0471 176.743 38.8303 176.681 39.8955C176.618 40.8668 176.688 41.65 176.892 42.2454C177.096 42.8406 177.354 43.3028 177.667 43.6317C177.981 43.9607 178.302 44.1799 178.631 44.2896C178.96 44.3993 179.203 44.4542 179.359 44.4542H179.829ZM143.641 27.3476C143.641 26.8464 143.5 26.5331 143.218 26.4077C142.936 26.2824 142.623 26.2197 142.278 26.2197C141.683 26.2197 140.939 26.4547 140.046 26.9247C139.153 27.3946 138.315 28.1309 137.531 29.1335C137.187 29.5721 136.842 30.1047 136.498 30.7313C136.153 31.358 135.832 32.0472 135.534 32.7992C135.236 33.5511 134.986 34.3422 134.782 35.1725C134.578 36.0027 134.461 36.8251 134.43 37.6397C135.056 37.1071 135.699 36.5589 136.357 35.9949C136.92 35.4936 137.531 34.9453 138.189 34.3501C138.847 33.7547 139.474 33.1438 140.069 32.5172C141.103 31.4519 141.957 30.4964 142.631 29.6504C143.304 28.8046 143.641 28.037 143.641 27.3476ZM128.367 34.679C128.367 33.0185 128.132 31.4128 127.662 29.862C127.192 28.3111 126.542 26.8542 125.712 25.4913C124.881 24.1284 123.886 22.8673 122.727 21.7081C121.568 20.549 120.299 19.515 118.92 18.6064C118.419 19.4211 117.832 20.4863 117.158 21.8021C116.484 23.1181 115.779 24.5514 115.043 26.1023C114.307 27.6532 113.563 29.2745 112.811 30.9664C112.059 32.6582 111.354 34.2795 110.696 35.8304C110.038 37.3813 109.443 38.8147 108.91 40.1305C108.377 41.4464 107.986 42.5117 107.735 43.3263C108.048 43.3576 108.424 43.3889 108.863 43.4203C109.239 43.4515 109.724 43.4672 110.32 43.4672C110.915 43.4672 111.651 43.4672 112.529 43.4672C113.187 43.4672 114.056 43.4829 115.137 43.5142C116.218 43.5455 117.354 43.5377 118.544 43.4907C119.735 43.4437 120.902 43.3106 122.046 43.0912C123.189 42.8719 124.153 42.5117 124.936 42.0103C125.594 41.603 126.142 41.0861 126.581 40.4595C127.02 39.8329 127.372 39.1828 127.638 38.5092C127.905 37.8355 128.093 37.1619 128.202 36.4883C128.312 35.8148 128.367 35.2116 128.367 34.679ZM76.3386 22.329L76.3329 22.3121L76.7707 7.81042C76.8583 6.42956 77.1392 5.20738 75.8422 3.90105C75.1572 3.21123 74.2753 2.85852 73.3065 2.8406C73.3054 2.83918 70.7423 2.59037 70.4043 2.53487C70.6164 2.5288 70.8282 2.52323 71.04 2.51776L66.6301 2.24819C68.1452 1.81265 68.174 2.37406 67.3516 2.04627C69.1967 2.08495 71.0712 2.31584 72.9059 2.31584C72.8714 2.32961 72.8571 2.34925 72.9059 2.34925C72.2125 2.34925 71.5206 2.26581 70.8282 2.23158C71.6687 2.35229 72.0984 2.38682 72.9485 2.39979C72.9485 2.41113 72.9485 2.42217 72.9485 2.43351C73.966 2.76323 75.8866 2.58703 76.8688 4.92627C77.3965 6.18348 77.0524 6.80323 77.0232 8.14956C77.0177 8.9607 77.2756 7.0484 77.2761 7.04738C77.1706 8.37498 77.0497 9.74531 77.0232 11.0751C77.0207 12.6533 77.4278 7.17437 77.4278 7.17437C77.4835 7.4569 77.5396 7.73964 77.5959 8.02257C77.5959 8.02257 77.636 7.53812 77.6463 7.30166C77.6634 8.22055 77.6802 9.13913 77.697 10.0577C77.7136 9.40759 77.7304 8.75746 77.7475 8.10723C77.8233 6.833 78.508 5.07047 76.5915 3.15179C74.9865 1.545 73.609 1.89994 72.1429 1.777L75.0733 2.26966C76.8506 3.02915 77.9636 4.8327 77.7813 6.7927C77.6612 4.83179 77.0839 3.20566 75.0417 2.34318C74.003 1.90429 73.4973 2.02966 72.482 1.99574L74.0775 2.01204L68.5386 1.777L69.2595 1.87776C68.8637 1.85548 68.4679 1.8331 68.0721 1.81072C68.4757 1.69963 68.891 1.58895 69.3017 1.50743C68.8123 1.50743 68.4383 1.52212 67.9447 1.4569C68.0296 1.45143 68.1144 1.44586 68.1992 1.43979C67.7896 1.42298 67.3796 1.40637 66.9695 1.38956C67.0544 1.4008 67.1391 1.41214 67.224 1.42298C66.2056 1.38156 65.1887 1.3613 64.1709 1.3053C64.3551 1.3213 64.9211 1.32323 64.383 1.32212C64.4538 1.33538 64.5236 1.34612 64.5951 1.35584C62.6141 1.30865 60.5368 1.39644 58.5736 1.25477C57.6104 1.18541 56.6524 1.06834 55.6903 1.01913C55.8173 1.00201 55.9443 0.985507 56.0714 0.968596C55.577 0.957558 55.0821 0.946014 54.5875 0.934976C54.6014 0.934976 54.6156 0.934976 54.63 0.934976C54.2908 0.912596 53.9517 0.890216 53.6122 0.867533C54.4741 0.817001 55.3367 0.766773 56.1988 0.715938L52.637 0.884343C53.1703 0.791077 53.7501 0.731634 54.2908 0.665609C53.2705 0.650419 52.258 0.647685 51.2378 0.68252C51.2378 0.659026 51.121 0.850925 51.1105 0.867533L56.0291 1.42298L54.1212 1.47371C54.1212 1.49751 54.1422 1.49062 54.1634 1.49062C53.0043 1.49609 51.8454 1.50196 50.6865 1.50743C50.7288 1.4569 50.7713 1.40637 50.8135 1.35584H49.5412C49.4931 1.43229 49.4519 1.49366 49.3719 1.54115L43.0957 1.65882C42.1207 1.55685 41.1452 1.45639 40.17 1.35584C40.1418 1.4569 40.1137 1.55796 40.0852 1.65882C38.983 1.67594 37.8804 1.67594 36.7779 1.67594C36.9192 1.4569 37.0604 1.23786 37.2018 1.01913C36.9475 0.985507 36.6928 0.951786 36.4384 0.917761C36.5373 0.917761 36.6365 0.917761 36.7353 0.917761C36.608 0.917761 36.4809 0.917761 36.3539 0.917761C36.3594 0.91695 36.4809 0.901254 36.4809 0.90095C35.8355 0.890723 35.798 1.1526 35.4206 1.69275C32.5765 1.68617 29.7787 1.60191 26.94 1.52404C28.0441 1.95705 19.7247 1.76374 20.2824 2.14733C21.5637 2.42601 22.849 2.68262 24.1413 2.9049C24.0002 2.94217 23.8535 2.98612 23.7174 3.03969C21.881 3.12171 19.8758 2.99472 18.035 2.85467C17.5953 3.09275 17.1575 3.33548 16.7207 3.57852C17.4421 3.68728 18.004 3.7851 18.4486 3.86976C18.4278 3.86804 18.4032 3.86622 18.3745 3.8646C18.4498 3.88201 18.5123 3.88738 18.5361 3.88647C21.3825 4.43634 19.1604 4.39695 23.7174 3.03969C23.9317 3.02561 24.1427 2.99746 24.3535 2.95543C26.0984 3.25488 27.8516 3.51614 29.6116 3.71331C31.0955 3.78065 32.5798 3.84809 34.064 3.91523C34.0245 3.96212 34.0182 4.02014 33.979 4.06682C32.6983 3.92536 31.4482 3.84941 30.1628 3.78065C31.4187 3.91655 32.6764 4.04171 33.9367 4.13417C33.6718 4.625 33.3819 5.10085 33.1313 5.59908C33.4862 5.65204 33.8734 5.633 34.233 5.633L34.2333 5.59908C34.1769 5.59351 34.1203 5.58804 34.064 5.58247C34.1203 5.58247 34.1769 5.58247 34.2333 5.58247L35.2936 3.96576C36.2406 4.01072 37.1877 4.05579 38.1348 4.10055L35.1662 4.20161C36.5072 4.2886 37.8514 4.33639 39.1948 4.33639C39.1666 4.42612 39.1385 4.51584 39.1103 4.60586C38.7139 4.71584 38.3167 4.8249 37.9227 4.94257C38.2061 4.9047 38.4878 4.8647 38.7708 4.8246C35.9883 5.61346 36.8348 5.58247 34.2333 5.58247C34.2333 5.58804 34.2333 5.59351 34.2333 5.59908L35.5903 5.73386C35.5458 5.75148 35.5076 5.78379 35.4632 5.80141C35.6858 5.85427 35.9161 5.88323 36.1415 5.91918C35.4784 5.88161 34.8089 5.8089 34.1485 5.73386C29.7908 11.9721 25.7681 12.2478 35.7176 12.537C35.7176 12.537 35.6613 12.537 35.6325 12.537L37.9652 12.604C37.2302 12.4751 36.495 12.3458 35.7604 12.2169C36.6787 10.2693 37.5976 8.32161 38.5161 6.37346C40.9715 6.47118 43.4379 6.50358 45.8947 6.54217C45.7653 6.78166 45.6299 7.01093 45.4706 7.2327C43.8168 7.36718 42.1633 7.50197 40.5094 7.63634C40.4694 7.70014 40.4219 7.75847 40.3821 7.82166C40.9715 8.0728 41.591 8.29508 42.2055 8.47847C41.923 8.57407 41.6399 8.66966 41.3574 8.76465C42.3088 8.95351 43.3581 9.02288 44.3259 9.08475C44.1206 9.49154 43.8726 9.86936 43.6473 10.2635C42.2246 10.7324 40.6194 11.2856 39.1522 11.577C40.4391 11.5001 41.7244 11.4029 43.0111 11.3242C42.815 11.6573 42.5779 12.0354 42.4177 12.3851C42.9968 12.3909 43.5768 12.3963 44.156 12.4019C44.3819 11.9993 44.6321 11.5974 44.8771 11.2064C48.8407 10.9583 53.0441 10.6404 57.0046 10.6004C57.4927 10.5929 60.3949 10.5451 59.7185 9.92678C61.9584 10.0569 63.5758 10.2555 65.9517 10.2635C68.4038 10.2635 70.8545 10.2461 73.3065 10.2358C71.4626 10.2074 69.9927 8.98308 69.6078 7.27574C70.6347 7.26136 71.167 7.21548 72.6516 7.03047C72.5809 7.0247 72.5103 7.01913 72.4398 7.01356L73.1609 6.97994C71.9523 6.88941 70.7391 6.80536 69.5252 6.74622C69.516 6.64414 69.5108 6.54105 69.5091 6.43634L69.5133 6.74571C68.4246 6.69275 67.3358 6.65984 66.2488 6.65984C66.2551 6.66095 66.8246 6.72475 66.7574 6.77802C66.7856 6.77802 66.8422 6.77802 66.8422 6.77802C66.8422 6.77802 66.7856 6.77802 66.7574 6.77802C67.0527 6.78713 67.3526 6.79543 67.6482 6.79483C67.6341 6.79483 67.6197 6.79483 67.6059 6.79483C68.1003 6.81143 68.5952 6.82824 69.0899 6.84515C69.0758 6.84515 69.0616 6.84515 69.0474 6.84515L69.5147 6.8568L69.5149 6.86419C66.9226 6.89295 64.3955 6.93153 61.7962 6.82824C61.7822 6.8565 61.7681 6.88465 61.754 6.9126L58.8703 6.7609C59.1528 6.7609 59.4356 6.77802 59.7185 6.77802C59.3448 6.7449 59.4141 6.69518 59.7185 6.62612C57.8947 6.61093 56.0714 6.59604 54.2483 6.55908C51.7365 7.45832 49.2208 8.34591 46.7006 9.21953C46.4879 9.21953 46.2757 9.20262 46.0642 9.18581C46.0225 9.30237 45.941 9.39462 45.8947 9.50561C46.1646 9.4164 46.4359 9.32445 46.7006 9.21953C50.3172 9.3927 54.1121 9.58318 57.7252 9.42136C57.4427 9.225 57.1601 9.02865 56.8776 8.83229C59.1619 8.70105 58.2514 9.05103 60.1002 9.05103C60.1002 9.0565 60.1002 9.06237 60.1002 9.06784C60.0858 9.06784 60.072 9.06784 60.0578 9.06784H60.1002C59.7892 9.06784 59.4779 9.06784 59.1672 9.06784H60.2698C60.1002 9.05103 59.9305 9.03422 59.761 9.01731C60.199 9.02308 60.637 9.02865 61.0751 9.03422C60.2084 8.8964 62.3633 9.16617 63.3227 8.76485C58.0083 8.61822 60.5716 8.5685 63.7467 8.61326C64.0431 8.47604 64.3671 8.2004 64.6375 8.00698C65.3157 8.00698 65.9943 8.00698 66.6727 8.00698C66.5454 8.06895 66.4183 8.13052 66.2913 8.19229C67.2381 7.97751 68.178 7.75108 69.1324 7.56931C68.8211 7.54115 68.5104 7.513 68.1992 7.48505C67.6743 7.86399 67.3328 8.00698 66.6727 8.00698C67.0685 7.82207 67.4642 7.63675 67.86 7.45143C67.3507 7.41052 64.0284 7.23817 64.8918 7.19888C66.0791 7.15472 67.6012 7.54278 68.6648 7.08212C68.5881 7.15533 68.4977 7.22186 68.4113 7.28323C68.8524 7.28181 69.2095 7.2804 69.5204 7.27685C69.5898 12.0873 69.7441 16.8304 69.913 21.5636L76.3386 22.329ZM70.0339 65.0349L70.0352 65.1812V65.035L70.0339 65.0349ZM22.3605 11.8799C30.8939 11.9368 28.5385 11.187 33.131 5.59928C32.4975 5.51533 31.4441 5.61477 30.7986 5.70014C31.1946 5.73386 31.5902 5.76748 31.986 5.8012L30.5443 5.75067C31.4524 5.74409 31.8404 5.73457 30.502 5.73386C28.493 5.99979 26.4763 6.35827 24.4808 6.71037L27.3642 7.04738C26.5964 7.01781 25.7963 6.92222 25.0318 6.82824C27.7887 6.85599 24.7241 6.65984 23.4627 6.87888C23.4737 6.8808 24.4305 6.99675 24.0143 6.99675C22.4621 6.98865 22.6909 7.03007 21.0036 7.31685C19.3533 7.61548 16.4652 8.23827 14.8547 8.31027C13.9378 8.31027 18.3598 7.19402 18.544 7.14845C17.5122 7.05366 16.481 6.96394 15.4485 6.87888C15.4626 6.87888 15.477 6.87888 15.4907 6.87888L14.8124 7.03047L16.1266 7.13153C15.7336 7.12688 15.3326 7.09295 14.9392 7.06419C15.9866 7.05062 15.2325 7.0885 14.7696 7.04738C13.3539 7.59614 11.9514 8.17994 10.5719 8.81548L12.353 8.89943C11.5871 8.91736 10.7033 8.74035 10.0206 9.10156C11.8301 9.1049 13.6394 9.12971 15.4485 9.1689C11.2035 9.3927 11.7857 9.38136 16.1266 9.18581C17.1727 9.21953 18.2188 9.25315 19.2647 9.28688C16.0299 9.32829 12.8783 9.38875 9.63918 9.28688C9.52322 9.34905 6.2517 11.0494 7.22166 11.5433C8.4764 11.4261 18.5117 10.4695 18.7137 10.5667C18.0597 10.7437 20.676 10.6852 20.7489 10.6843C16.8617 10.9594 12.9747 11.2345 9.08786 11.5096L8.74851 11.5433L16.9751 12.3348C15.5372 12.0302 20.7003 11.8471 21.0883 11.8631C28.7485 12.2649 32.5538 12.7794 22.3605 11.8799ZM18.9677 4.72353H18.9255H18.9677ZM17.95 4.58905C19.5416 4.70531 18.7535 4.75948 20.0706 4.30267L16.2964 3.81437L15.3212 4.40374C16.1975 4.46531 17.0739 4.52718 17.95 4.58905ZM12.3201 76.8591C12.0009 76.8884 11.5302 76.9677 11.2179 76.9265C11.562 76.8809 11.9768 76.8249 12.3201 76.8591ZM13.8895 76.9602C13.8895 76.9599 13.9518 76.9771 13.9742 76.9771C13.9176 76.9826 13.8612 76.9882 13.8046 76.9939C13.8185 76.9939 13.8329 76.9939 13.8466 76.9939C13.7621 76.9826 13.677 76.9712 13.5925 76.9602C13.6914 76.9602 13.7903 76.9602 13.8895 76.9602ZM13.8046 76.5053C13.9035 76.5053 14.0024 76.5053 14.1012 76.5053C14.1012 76.4943 14.1012 76.4717 14.1012 76.4719C14.5724 76.4095 14.8473 76.3237 15.3311 76.3878L14.1012 76.5053C14.1012 76.528 14.1012 76.5504 14.1012 76.5728L13.5925 76.5222C13.6643 76.5222 13.7323 76.5053 13.8046 76.5053ZM15.9247 77.0273C15.8564 77.0273 15.7849 77.0105 15.7128 77.0105C17.8448 76.6338 17.8127 76.6857 15.9247 77.0273ZM14.2286 77.0779C14.2286 77.0723 14.2286 77.0668 14.2286 77.0611C14.2571 77.0668 14.2849 77.0723 14.3134 77.0779C14.3134 77.0779 14.2571 77.0779 14.2286 77.0779ZM21.6918 76.354C21.5677 76.3291 21.4358 76.3159 21.3101 76.3035C25.7518 76.0093 25.3345 76.0566 21.6918 76.354ZM29.5365 76.354C29.5083 76.354 29.4798 76.354 29.4516 76.354C29.5425 76.348 29.7827 76.3294 29.5365 76.354ZM31.1903 77.1284C31.1049 77.1284 31.0207 77.1116 30.9359 77.1116C31.7451 77.0591 32.4383 77.0174 31.1903 77.1284ZM34.5402 77.3475C34.5402 77.3643 34.5402 77.3812 34.5402 77.398C34.2151 77.3795 33.89 77.3635 33.565 77.3475C33.89 77.3475 34.2151 77.3475 34.5402 77.3475ZM36.5334 77.2295C36.5191 77.224 36.5049 77.2181 36.4907 77.2127C37.1154 77.1796 37.0463 77.1887 36.5334 77.2295ZM56.5904 68.1702L59.8555 68.4061C58.4844 68.3893 57.1134 68.3725 55.7421 68.3725C55.6521 68.3672 53.9162 68.2128 54.8943 68.3893C54.3516 68.3893 52.8983 68.5893 52.5196 68.2882C52.7458 68.305 52.9717 68.3219 53.1978 68.3387C52.9717 68.3164 52.7458 68.294 52.5196 68.2714C52.6041 68.2714 52.7739 68.2714 52.7739 68.2714C52.6751 68.2589 52.5764 68.2476 52.4771 68.238C53.8412 68.238 55.2282 68.238 56.5904 68.1702ZM58.4561 68.1871C58.5416 68.1871 58.6269 68.2043 58.7107 68.2211C57.8658 68.2015 57.1625 68.1633 58.4561 68.1871ZM61.5093 77.5157C61.3004 77.5728 61.05 77.532 61.5093 77.5157V77.5157ZM70.6075 65.6476C70.6075 65.6255 70.6243 65.5628 70.6243 65.5628L70.8097 66.7502C70.7426 66.3842 70.6662 66.0147 70.6075 65.6476ZM74.3124 18.5383C74.2786 19.0615 74.2449 19.5842 74.2112 20.1073C74.1801 19.785 73.8555 18.4085 74.3124 18.5383ZM75.5248 19.0471C75.5041 19.5738 75.5003 19.5166 75.5078 19.0896C75.4832 19.1843 75.468 19.2893 75.4574 19.3865C74.9536 15.3518 75.0263 15.6044 75.5248 19.0471ZM73.4358 5.69457L68.4535 5.32981L73.6795 5.55594C74.5924 5.7606 74.311 8.34926 74.3463 9.84586C74.357 9.06845 74.3685 8.29093 74.3797 7.51351C74.4601 7.47898 74.5413 7.43209 74.6156 7.38652L74.0765 13.6195C73.9193 13.45 73.7625 13.2804 73.605 13.1109C73.6 13.0727 73.5647 12.7714 73.5039 12.7714C73.1544 8.1846 74.8772 5.97326 73.4358 5.69457ZM69.5373 6.86419L69.5365 6.85731L69.7257 6.86207L69.5373 6.86419ZM59.8883 9.28688C59.6931 9.2648 59.3752 9.21123 59.2095 9.10156C59.3368 9.10156 59.4641 9.10156 59.5912 9.10156C59.5629 9.10156 59.5346 9.10156 59.5063 9.10156C59.6902 9.10156 59.8739 9.10156 60.0578 9.10156C60.1173 9.22278 60.9995 9.13964 61.2025 9.15209C60.7646 9.20434 60.328 9.25508 59.8883 9.28688ZM47.633 6.57589C49.4566 6.60485 51.2798 6.61234 53.1034 6.5927C51.1809 6.75533 49.2588 6.91837 47.3366 7.081C47.4244 6.90652 47.5452 6.75017 47.633 6.57589ZM64.934 1.49062L68.0296 1.50743C66.5171 1.50743 65.0048 1.50743 63.4923 1.50743C63.9728 1.50166 64.4535 1.49609 64.934 1.49062ZM77.9578 6.55462C77.9622 6.50136 77.9661 6.44799 77.9686 6.39422L77.9578 6.55462ZM77.9717 6.30308C78.0102 4.59574 76.8118 2.82976 75.1867 2.17356C76.7892 2.90075 77.9501 4.51918 77.9717 6.30308ZM73.7423 1.79715C72.8786 1.66794 72.0288 1.67148 71.337 1.62541C73.2305 1.67401 74.9349 1.19867 76.743 3.00019C78.2803 4.53163 78.1796 6.22733 78.2864 8.31918C78.3895 6.24171 78.4826 4.5046 76.861 2.88232C75.9002 1.9209 74.6618 1.42794 73.3065 1.40829C72.8279 1.40141 69.5517 1.33315 69.3017 1.50743L73.7423 1.79715ZM67.9025 1.86095C67.9025 1.86125 67.9447 1.84414 67.9447 1.84434C69.2161 1.87168 68.7346 1.86287 67.9025 1.86095ZM72.482 3.37639C72.5528 3.38763 72.6234 3.39898 72.6942 3.41001C69.4843 3.62298 69.7629 3.58267 72.482 3.37639ZM76.1653 5.90034C75.7552 3.89093 73.4683 3.19523 72.9485 3.76384C72.1288 3.70227 71.3091 3.64039 70.4893 3.57852C72.1178 3.65447 75.5844 2.7931 76.1653 5.90034Z" fill="white"/>
<path fill-rule="evenodd" clip-rule="evenodd" d="M50.3924 19.2385L77.7633 22.4987C82.0201 23.0059 85.0881 26.9036 84.5811 31.1603L81.3207 58.53C80.8136 62.7867 76.9157 65.8547 72.6589 65.3476L45.288 62.0873C41.0312 61.5802 37.963 57.6825 38.4701 53.4258L41.7306 26.0561C42.2376 21.7994 46.1356 18.7314 50.3924 19.2385ZM50.2754 23.4264L76.8922 26.5969C77.9853 26.7271 78.9263 27.2929 79.5604 28.0985C80.1943 28.9039 80.5229 29.9506 80.3929 31.0434L77.2222 57.6591C77.0921 58.7525 76.5262 59.6931 75.7206 60.3273C74.9152 60.9614 73.8685 61.2898 72.7755 61.1597L46.1586 57.9891C45.0657 57.8591 44.125 57.2934 43.4905 56.4876C42.8633 55.6902 42.535 54.6568 42.6546 53.5772L45.8288 26.9273C45.9589 25.8341 46.5245 24.8932 47.3304 24.2588C48.1358 23.625 49.1825 23.2964 50.2754 23.4264Z" fill="url(#paint0_linear)"/>
<path fill-rule="evenodd" clip-rule="evenodd" d="M50.2757 23.4264L76.8924 26.597C77.9855 26.7271 78.9265 27.293 79.5607 28.0985C80.1945 28.9039 80.5232 29.9506 80.3931 31.0434L77.2225 57.6591C77.0923 58.7525 76.5264 59.6932 75.7208 60.3273C74.9154 60.9614 73.8687 61.2898 72.7758 61.1597L46.1589 57.9892C45.066 57.8591 44.1253 57.2935 43.4908 56.4876C42.8635 55.6902 42.5352 54.6568 42.6548 53.5772L45.829 26.9273C45.9592 25.8341 46.5248 24.8933 47.3307 24.2588C48.1361 23.625 49.1828 23.2964 50.2757 23.4264ZM76.7781 27.5636L50.1614 24.3931C49.3347 24.2948 48.5417 24.5436 47.9317 25.0239C47.322 25.5036 46.8941 26.2155 46.7958 27.0416L43.6253 53.6576C43.5268 54.484 43.7759 55.2763 44.2559 55.8867C44.7345 56.4942 45.4432 56.9217 46.2657 57.0218L72.8902 60.1931C73.7168 60.2915 74.5098 60.0425 75.1198 59.5623C75.7295 59.0825 76.1575 58.3708 76.2558 57.5448L79.4265 30.9291C79.5247 30.1025 79.2759 29.3096 78.7956 28.6995C78.3159 28.09 77.604 27.662 76.7781 27.5636Z" fill="url(#paint1_linear)"/>
<path fill-rule="evenodd" clip-rule="evenodd" d="M69.9754 26.7534L50.161 24.3931C49.3343 24.2948 48.5414 24.5436 47.9313 25.0239C47.3217 25.5036 46.8937 26.2155 46.7954 27.0416L43.6249 53.6576C43.6157 53.7352 43.6095 53.8124 43.6063 53.8891C49.9303 48.1286 59.4232 42.5615 69.9754 38.6074V26.7534Z" fill="url(#paint2_linear)"/>
<path fill-rule="evenodd" clip-rule="evenodd" d="M43.6061 53.8893C43.5752 54.6311 43.8205 55.3335 44.2556 55.8867C44.7342 56.4942 45.4429 56.9217 46.2654 57.0218L69.9755 59.846V38.6074C59.4231 42.5614 49.9301 48.1287 43.6061 53.8893Z" fill="url(#paint3_linear)"/>
<path fill-rule="evenodd" clip-rule="evenodd" d="M76.7772 27.5636L69.975 26.7533V59.8459L72.8893 60.1931C73.716 60.2914 74.5089 60.0425 75.1189 59.5623C75.7285 59.0825 76.1566 58.3708 76.255 57.5448L79.4256 30.9291C79.5239 30.1025 79.275 29.3096 78.7948 28.6995C78.315 28.09 77.6029 27.662 76.7772 27.5636Z" fill="url(#paint4_linear)"/>
<path d="M50.1154 20.1647C50.749 20.3341 52.0181 20.5098 51.7129 21.6522C51.3385 23.054 49.9307 21.7384 47.1638 23.4176C44.4057 25.0916 44.5084 27.4516 43.0496 26.6304C42.6348 26.3967 42.4459 25.9167 42.5638 25.4768L42.5606 25.4759C43.1002 23.4633 43.5561 21.9581 45.623 20.762C46.9104 20.0169 48.5804 19.7263 50.1154 20.1647Z" fill="url(#paint5_linear)"/>
<path d="M72.7919 64.5164C72.1583 64.3471 70.8892 64.1713 71.1944 63.0288C71.5688 61.6272 72.9767 62.9427 75.7436 61.2635C78.5017 59.5895 78.399 57.2295 79.8578 58.0508C80.2727 58.2844 80.4615 58.7644 80.3437 59.2043L80.3468 59.2052C79.8072 61.2178 79.3512 62.7231 77.2844 63.9192C75.997 64.6642 74.327 64.9548 72.7919 64.5164Z" fill="url(#paint6_linear)"/>
</g>
<defs>
<linearGradient id="paint0_linear" x1="61.2329" y1="30.2487" x2="78.5782" y2="47.5944" gradientUnits="userSpaceOnUse">
<stop stop-color="#D4D4D4"/>
<stop offset="1" stop-color="#787879"/>
</linearGradient>
<linearGradient id="paint1_linear" x1="31.6012" y1="35.4359" x2="146.327" y2="115.076" gradientUnits="userSpaceOnUse">
<stop stop-color="#EFEFF0"/>
<stop offset="1" stop-color="#787878"/>
</linearGradient>
<linearGradient id="paint2_linear" x1="50.3756" y1="19.255" x2="76.1105" y2="44.9907" gradientUnits="userSpaceOnUse">
<stop stop-color="#787879"/>
<stop offset="1" stop-color="#D4D4D4"/>
</linearGradient>
<linearGradient id="paint3_linear" x1="54.8662" y1="45.2859" x2="64.7877" y2="58.194" gradientUnits="userSpaceOnUse">
<stop stop-color="#C5C5C6"/>
<stop offset="1" stop-color="#E1E1E1"/>
</linearGradient>
<linearGradient id="paint4_linear" x1="74.7109" y1="26.7533" x2="74.7109" y2="60.2143" gradientUnits="userSpaceOnUse">
<stop stop-color="#D4D4D4"/>
<stop offset="1" stop-color="#787878"/>
</linearGradient>
<linearGradient id="paint5_linear" x1="42.7744" y1="16.2028" x2="48.4658" y2="25.7181" gradientUnits="userSpaceOnUse">
<stop stop-color="white"/>
<stop offset="1" stop-color="white" stop-opacity="0"/>
</linearGradient>
<linearGradient id="paint6_linear" x1="77.0298" y1="64.7399" x2="74.3975" y2="60.1156" gradientUnits="userSpaceOnUse">
<stop stop-color="#5E5E5E"/>
<stop offset="1" stop-color="#5E5E5E" stop-opacity="0"/>
</linearGradient>
<clipPath id="clip0">
<rect width="215.705" height="80" fill="white"/>
</clipPath>
</defs>
</svg>
