<svg width="48" height="48" viewBox="0 0 48 48" fill="none" xmlns="http://www.w3.org/2000/svg">
<path d="M48 24C48 10.7355 37.266 0 24 0C10.7355 0 0 10.734 0 24C0 37.147 10.6443 48 24 48C37.3008 48 48 37.2074 48 24ZM24 2.8125C35.6829 2.8125 45.1875 12.3171 45.1875 24C45.1875 28.2737 43.9164 32.3815 41.5591 35.8608C32.0933 25.6787 15.924 25.6604 6.44092 35.8608C4.08362 32.3815 2.8125 28.2737 2.8125 24C2.8125 12.3171 12.3171 2.8125 24 2.8125ZM8.19507 38.1094C16.6113 28.6692 31.3909 28.6714 39.8046 38.1094C31.3601 47.5569 16.6432 47.5598 8.19507 38.1094Z" fill="white"/>
<path d="M24 25.4062C28.6523 25.4062 32.4375 21.6211 32.4375 16.9688V14.1562C32.4375 9.50391 28.6523 5.71875 24 5.71875C19.3477 5.71875 15.5625 9.50391 15.5625 14.1562V16.9688C15.5625 21.6211 19.3477 25.4062 24 25.4062ZM18.375 14.1562C18.375 11.0544 20.8982 8.53125 24 8.53125C27.1018 8.53125 29.625 11.0544 29.625 14.1562V16.9688C29.625 20.0706 27.1018 22.5938 24 22.5938C20.8982 22.5938 18.375 20.0706 18.375 16.9688V14.1562Z" fill="white"/>
</svg>
