<svg width="24" height="24" viewBox="0 0 24 24" fill="none" xmlns="http://www.w3.org/2000/svg">
<path d="M16.8651 4.86487V17.1892C16.8651 19.8717 14.6828 22.0541 12.0002 22.0541C9.31773 22.0541 7.13538 19.8717 7.13538 17.1892V4.86487C7.13538 3.25537 8.44478 1.94597 10.0543 1.94597C11.6638 1.94597 12.9732 3.25537 12.9732 4.86487V17.1892C12.9732 17.7257 12.5367 18.1622 12.0002 18.1622C11.4637 18.1622 11.0272 17.7257 11.0272 17.1892V4.86487H9.08134V17.1892C9.08134 18.7987 10.3907 20.1081 12.0002 20.1081C13.6097 20.1081 14.9192 18.7987 14.9192 17.1892V4.86487C14.9192 2.18236 12.7368 0 10.0543 0C7.37186 0 5.18945 2.18236 5.18945 4.86487V17.1892C5.18945 20.9447 8.24477 24 12.0002 24C15.7557 24 18.811 20.9447 18.811 17.1892V4.86487H16.8651Z" fill="white"/>
</svg>
