<svg width="30" height="30" viewBox="0 0 30 30" fill="none" xmlns="http://www.w3.org/2000/svg">
<path fill-rule="evenodd" clip-rule="evenodd" d="M15 30C23.2843 30 30 23.2843 30 15C30 6.71573 23.2843 0 15 0C6.71573 0 0 6.71573 0 15C0 23.2843 6.71573 30 15 30ZM9.70711 8.2929C9.31659 7.90237 8.68342 7.90237 8.2929 8.29289C7.90237 8.68341 7.90237 9.31658 8.29289 9.7071L13.5858 15L8.29296 20.2929C7.90244 20.6834 7.90244 21.3166 8.29297 21.7071C8.68349 22.0976 9.31666 22.0976 9.70718 21.7071L15 16.4143L20.2928 21.7071C20.6833 22.0976 21.3165 22.0976 21.707 21.7071C22.0976 21.3166 22.0976 20.6834 21.707 20.2929L16.4142 15L21.7071 9.7071C22.0976 9.31658 22.0976 8.68341 21.7071 8.29289C21.3166 7.90237 20.6834 7.90237 20.2929 8.2929L15 13.5858L9.70711 8.2929Z" fill="#2D2E2E"/>
</svg>
