<svg width="24" height="24" viewBox="0 0 24 24" fill="none" xmlns="http://www.w3.org/2000/svg">
<g clip-path="url(#clip0)">
<path d="M19.714 12.0001C19.2406 12.0001 18.8569 12.3838 18.8569 12.8572V21.4285C18.8569 21.9019 18.4731 22.2856 17.9997 22.2856H2.57139C2.098 22.2856 1.71425 21.9019 1.71425 21.4285V4.28587C1.71425 3.81247 2.098 3.42872 2.57139 3.42872H12.857C13.3304 3.42872 13.7141 3.04497 13.7141 2.57158C13.7141 2.09818 13.3304 1.71448 12.857 1.71448H2.57139C1.15125 1.71448 0 2.86573 0 4.28587V21.4285C0 22.8486 1.15125 23.9999 2.57139 23.9999H17.9998C19.4199 23.9999 20.5712 22.8486 20.5712 21.4285V12.8572C20.5712 12.3838 20.1874 12.0001 19.714 12.0001Z" fill="white"/>
<path d="M23.0386 0.961417C22.4231 0.345889 21.5884 0.000157256 20.718 0.000257701C19.8471 -0.00225343 19.0115 0.344081 18.3977 0.961969L7.10756 12.2512C7.01389 12.3456 6.94323 12.4603 6.90099 12.5863L5.18674 17.7291C5.03713 18.1783 5.27996 18.6636 5.7291 18.8132C5.81623 18.8422 5.90749 18.857 5.99929 18.8571C6.0913 18.857 6.18276 18.8422 6.27014 18.8134L11.4129 17.0992C11.5392 17.057 11.654 16.986 11.7481 16.8918L23.0382 5.60163C24.3196 4.32035 24.3198 2.24285 23.0386 0.961417ZM21.8262 4.39046L10.6835 15.5332L7.3544 16.6449L8.46266 13.32L19.6097 2.17736C20.2225 1.56574 21.2151 1.56675 21.8267 2.17956C22.1189 2.47231 22.2835 2.86862 22.2848 3.2822C22.2858 3.69799 22.1207 4.09696 21.8262 4.39046Z" fill="white"/>
</g>
<defs>
<clipPath id="clip0">
<rect width="24" height="24" fill="white"/>
</clipPath>
</defs>
</svg>
