<svg width="48" height="48" viewBox="0 0 48 48" fill="none" xmlns="http://www.w3.org/2000/svg">
<path d="M46.5938 11.7513C47.3705 11.7513 48 11.1215 48 10.3451V3.75C48 2.97327 47.3705 2.34375 46.5938 2.34375H1.40625C0.629517 2.34375 0 2.97327 0 3.75V10.3451C0 11.1215 0.629517 11.7513 1.40625 11.7513H3.94006V36.3241H1.40625C0.629517 36.3241 0 36.954 0 37.7303V44.3254C0 45.1022 0.629517 45.7317 1.40625 45.7317H46.5938C47.3705 45.7317 48 45.1022 48 44.3254V37.7303C48 36.954 47.3705 36.3241 46.5938 36.3241H44.0599V11.7513H46.5938ZM45.1875 8.93884H32.9377V5.15625H45.1875V8.93884ZM30.1252 8.93884H17.8751V5.15625H30.1252V8.93884ZM2.8125 5.15625H15.0626V8.93884H2.8125V5.15625ZM2.8125 39.1366H15.0626V42.9192H2.8125V39.1366ZM35.6528 36.3241H29.4705C30.2659 35.2185 30.7361 33.8646 30.7361 32.402C30.7361 30.8712 29.7839 28.7366 27.8251 25.8765C26.4683 23.8949 25.1309 22.3063 25.0745 22.2396C24.8071 21.9232 24.4142 21.7405 24 21.7405C23.5858 21.7405 23.1929 21.9232 22.9255 22.2396C22.8691 22.3063 21.5317 23.8945 20.1749 25.8765C18.2164 28.7366 17.2643 30.8712 17.2643 32.402C17.2643 33.8646 17.7345 35.2185 18.5295 36.3241H11.911V29.6144C11.911 23.0702 17.2361 17.7458 23.7817 17.7458C30.3274 17.7458 35.6528 23.0702 35.6528 29.6144V36.3241ZM20.0768 32.402C20.0768 32.0735 20.2504 30.7485 22.4828 27.4838C23.0164 26.7041 23.554 25.9797 24 25.4C24.4464 25.9801 24.9836 26.7041 25.5172 27.4838C27.75 30.7485 27.9236 32.0735 27.9236 32.402C27.9236 34.5648 26.1636 36.3245 24 36.3245C21.8368 36.3241 20.0768 34.5648 20.0768 32.402V32.402ZM17.8751 39.1366H30.1252V42.9192H17.8751V39.1366ZM45.1875 42.9192H32.9377V39.1366H45.1875V42.9192ZM41.2474 36.3241H38.4653V29.6144C38.4653 21.5193 31.8783 14.9333 23.7817 14.9333C15.6855 14.9333 9.09851 21.5193 9.09851 29.6144V36.3241H6.75256V11.7513H41.2474V36.3241Z" fill="white"/>
</svg>
