<svg width="24" height="24" viewBox="0 0 24 24" fill="none" xmlns="http://www.w3.org/2000/svg">
<g clip-path="url(#clip0)">
<path d="M16.7028 11.627C18.3985 10.4653 19.5 8.52758 19.5 6.375C19.5 2.86008 16.6399 0 13.125 0H3V1.5H4.5V22.5H3V24H14.625C18.1399 24 21 21.1399 21 17.625C21 14.8414 19.1951 12.494 16.7028 11.627ZM13.125 1.5C15.813 1.5 18 3.68703 18 6.375C18 8.68508 16.3601 10.6941 14.1006 11.1526C13.782 11.2171 13.4539 11.25 13.125 11.25H5.99999V1.5H13.125ZM14.625 22.5H5.99999V12.75H13.125H14.625C17.313 12.75 19.5 14.937 19.5 17.625C19.5 20.313 17.313 22.5 14.625 22.5Z" fill="black"/>
</g>
<defs>
<clipPath id="clip0">
<rect width="24" height="24" fill="white"/>
</clipPath>
</defs>
</svg>
