<svg width="20" height="20" viewBox="0 0 20 20" fill="none" xmlns="http://www.w3.org/2000/svg">
<path d="M17.6262 2.40479H2.37383C1.06491 2.40479 0 3.42746 0 4.68445V15.3156C0 16.5726 1.06491 17.5953 2.37383 17.5953H17.6262C18.9351 17.5953 20 16.5726 20 15.3156V4.68445C20 3.42746 18.9351 2.40479 17.6262 2.40479ZM17.6262 15.5827H2.37383C2.18143 15.5827 2.01268 15.4579 2.01268 15.3156V6.09025L8.91094 11.9141C9.05236 12.0336 9.2322 12.0993 9.41738 12.0993L10.5824 12.0994C10.7675 12.0994 10.9474 12.0336 11.0889 11.9141L17.9875 6.09004V15.3157C17.9874 15.4579 17.8186 15.5827 17.6262 15.5827ZM10 10.101L3.29062 4.41736H16.7094L10 10.101Z" fill="#E30713"/>
</svg>
