<svg width="12" height="12" viewBox="0 0 12 12" fill="none" xmlns="http://www.w3.org/2000/svg">
<path d="M11.4251 9.53772C11.0056 8.11732 8.89985 8.27488 7.99096 7.86698C7.08212 7.45908 7.22399 6.09049 7.10876 5.85238H4.89156C4.77651 6.09049 4.91842 7.45927 4.00935 7.86698C3.10051 8.27488 0.994554 8.11736 0.575215 9.53772C0.343875 10.3212 0.354861 10.5608 0.291016 11.4286C0.291016 11.4286 3.18042 12 5.9349 12C8.68939 12 11.7095 11.4286 11.7095 11.4286C11.6454 10.5606 11.6564 10.3212 11.4251 9.53772Z" fill="#888888"/>
<path d="M11.425 9.53772C11.0055 8.11732 8.89979 8.27488 7.99091 7.86698C7.08206 7.45908 7.22394 6.09049 7.1087 5.85238H5.93466C5.93466 5.85238 5.90761 7.77202 6.81645 8.17993C7.72529 8.58783 9.83124 8.4303 10.2506 9.85066C10.4709 10.5967 10.4713 10.8496 10.5261 11.6217C11.2498 11.5157 11.709 11.4288 11.709 11.4288C11.6454 10.5606 11.6564 10.3212 11.425 9.53772Z" fill="#888888"/>
<path d="M5.52265 7.73186L5.47656 8.71219C5.63537 8.77415 5.8079 8.82171 5.99759 8.84857C6.19255 8.82088 6.36912 8.77095 6.53131 8.70606L6.43785 7.73205H5.52265V7.73186Z" fill="#888888"/>
<path d="M5.99794 7.94905C6.16013 7.92598 6.30942 7.8875 6.44836 7.83784L6.4382 7.73189H5.52299L5.51855 7.82832C5.66577 7.88264 5.82473 7.92452 5.99794 7.94905Z" fill="#888888"/>
<path d="M7.86847 7.80293L6.62505 8.88326L6.4375 7.73186L7.86847 7.80293Z" fill="#888888"/>
<path d="M4.10938 7.81561L5.37281 8.88326L5.52258 7.73186L4.10938 7.81561Z" fill="#888888"/>
<path d="M5.52258 7.73185L4.55494 7.20574C4.55494 7.20574 4.42743 7.38697 4.10938 7.8156L5.30287 8.67538L5.4046 8.11394L5.52258 7.73185Z" fill="#888888"/>
<path d="M6.4375 7.73185L7.40515 7.20574C7.40515 7.20574 7.55041 7.37429 7.86847 7.80292L6.65722 8.67542L6.55548 8.11398L6.4375 7.73185Z" fill="#888888"/>
<path d="M7.40515 7.20574L6.4375 7.73185L6.50432 7.94901C6.59356 8.0469 6.69653 8.12643 6.81579 8.17993C6.9211 8.22707 7.04228 8.26684 7.17528 8.30217L7.86825 7.80311C7.55045 7.37429 7.40515 7.20574 7.40515 7.20574Z" fill="#888888"/>
<path d="M2.28027 11.7405C3.31982 11.8741 4.64187 12 5.93431 12C7.25531 12 8.63763 11.8685 9.71841 11.7316V10.8718C9.71841 10.8718 7.5795 11.1926 5.92904 11.1926C4.27859 11.1926 2.2805 10.8718 2.2805 10.8718V11.7405H2.28027Z" fill="#888888"/>
<path d="M8.16729 4.38266C8.08864 4.82 8.21766 5.20921 8.45548 5.25198C8.69329 5.29475 8.94983 4.97488 9.02849 4.53754C9.10714 4.1002 8.97811 3.71099 8.7403 3.66822C8.50249 3.62545 8.24594 3.94532 8.16729 4.38266Z" fill="#888888"/>
<path d="M3.25333 3.66861C3.01551 3.71138 2.88649 4.10059 2.96514 4.53793C3.04379 4.97528 3.30034 5.29514 3.53815 5.25237C3.77596 5.20961 3.90499 4.8204 3.82634 4.38305C3.74768 3.94571 3.49114 3.62585 3.25333 3.66861Z" fill="#888888"/>
<path d="M8.41442 1.78176H5.99828H3.58337C3.58337 1.78176 2.22938 7.29773 5.99824 7.83166C9.76856 7.29773 8.41442 1.78176 8.41442 1.78176Z" fill="#888888"/>
<path d="M5.99805 7.83166C9.76841 7.29773 8.41419 1.78176 8.41419 1.78176H7.84896C8.00373 4.08583 8.21796 5.30976 7.3292 6.64407C6.62502 7.70141 5.99805 7.83166 5.99805 7.83166Z" fill="#888888"/>
<path d="M7.95894 1.6365L3.2666 2.02473V3.17022C3.2666 3.17022 3.39516 3.25923 3.50046 3.29181C3.50046 3.29181 4.78677 3.57981 5.67259 3.24128C6.46451 2.93869 6.81428 2.01438 7.60492 2.00234C7.7396 2.00023 7.85676 2.02751 7.95868 2.07593L7.95894 1.6365Z" fill="#888888"/>
<path d="M8.87059 1.83315C8.65532 0.976526 7.56905 0 5.99978 0C4.43051 0 3.34428 0.976526 3.12878 1.83315C3.12878 1.83315 2.71749 3.61957 3.41783 4.38888C3.41783 4.38888 3.38337 3.69106 3.4538 3.13556C3.4538 3.13556 4.74011 3.42356 5.62593 3.08503C6.41784 2.78244 6.76762 1.85813 7.55825 1.84609C8.2914 1.83511 8.50942 2.68834 8.54535 3.1356C8.58128 3.58285 8.58128 4.38891 8.58128 4.38891C9.28185 3.61957 8.87059 1.83315 8.87059 1.83315Z" fill="#888888"/>
</svg>
