<svg width="12" height="12" viewBox="0 0 12 12" fill="none" xmlns="http://www.w3.org/2000/svg">
<g clip-path="url(#clip0)">
<path d="M10.6609 4.66051C10.6609 8.39235 6.44796 11.8485 6.44796 11.8485C6.2018 12.0505 5.79893 12.0505 5.55277 11.8485C5.55277 11.8485 1.33984 8.39235 1.33984 4.66051C1.33989 2.08657 3.42646 0 6.00038 0C8.57429 0 10.6609 2.08657 10.6609 4.66051Z" fill="#888888"/>
<path d="M5.99999 7.00524C4.70708 7.00524 3.65527 5.95339 3.65527 4.66052C3.65527 3.36766 4.70713 2.31576 5.99999 2.31576C7.29286 2.31576 8.34471 3.36762 8.34471 4.66048C8.34471 5.95334 7.2929 7.00524 5.99999 7.00524Z" fill="white"/>
</g>
<defs>
<clipPath id="clip0">
<rect width="12" height="12" fill="white"/>
</clipPath>
</defs>
</svg>
