<svg width="20" height="20" viewBox="0 0 20 20" fill="none" xmlns="http://www.w3.org/2000/svg">
<g clip-path="url(#clip0)">
<path d="M18.9532 13.6498L16.9411 12.0013C15.6302 10.9273 13.5953 11.029 12.3994 12.2248L12.3195 12.3047C12.119 12.5052 11.7924 12.5036 11.5947 12.3059L7.70701 8.41821C7.51074 8.22194 7.50686 7.90627 7.69599 7.70584C7.69944 7.7022 7.70293 7.69861 7.70648 7.69501L7.69579 7.7057C7.69934 7.70215 7.70288 7.69856 7.70643 7.69501C8.8957 6.49434 9.0095 4.45005 7.96772 3.13294L6.33575 1.06973C5.28677 -0.256488 3.46367 -0.358932 2.26793 0.83681L1.96816 1.13657C-0.15571 3.26044 -0.656192 7.08844 0.936917 9.63359C0.936917 9.63359 1.87473 11.8085 5.03957 14.9733C8.20442 18.1382 10.3793 19.076 10.3793 19.076C12.9482 20.6303 16.7512 20.1699 18.8746 18.0465L19.1601 17.761C20.3567 16.5644 20.2632 14.723 18.9532 13.6498ZM17.7144 16.3154L17.4289 16.6009C15.9711 18.0587 13.2018 18.3942 11.4376 17.3268L11.3176 17.2542L11.1888 17.1987C11.0306 17.1305 10.6343 16.9156 10.035 16.5136C8.97079 15.7998 7.77567 14.8183 6.48515 13.5278C5.19463 12.2372 4.21307 11.0421 3.49927 9.97787C3.09735 9.37863 2.8824 8.98227 2.81426 8.82415L2.75255 8.68103L2.66984 8.54892C1.59725 6.83535 1.94306 4.05297 3.41379 2.58224L3.71355 2.28248C4.04594 1.95009 4.44336 1.9727 4.73239 2.33811L6.36435 4.40132C6.76675 4.91004 6.71467 5.79572 6.25027 6.26017C5.26233 7.25965 5.26722 8.86977 6.26143 9.86392L10.1491 13.7516C11.1457 14.7482 12.7668 14.7488 13.7653 13.7504L13.8451 13.6705C14.2984 13.2172 15.1481 13.1752 15.6455 13.5828L17.6577 15.2313C18.0333 15.539 18.0553 15.9745 17.7144 16.3154Z" fill="#E30713"/>
</g>
<defs>
<clipPath id="clip0">
<rect width="20" height="20" fill="white"/>
</clipPath>
</defs>
</svg>
