<svg width="48" height="48" viewBox="0 0 48 48" fill="none" xmlns="http://www.w3.org/2000/svg">
<g clip-path="url(#clip0)">
<path d="M47.6545 10.8097C48.1153 10.349 48.1153 9.60203 47.6545 9.14147L38.8589 0.345784C38.3981 -0.114936 37.6511 -0.114936 37.1906 0.345784L27.0316 10.5048C26.5709 10.9655 26.5709 11.7125 27.0316 12.173C27.4923 12.6338 28.2393 12.6338 28.6999 12.173L38.0247 2.84821L45.152 9.97545L41.8552 13.2722L39.259 10.676C38.7983 10.2153 38.0513 10.2153 37.5907 10.676C37.13 11.1368 37.13 11.8838 37.5907 12.3443L40.1869 14.9405L37.3694 17.758L34.7731 15.162C34.3124 14.7013 33.5654 14.7013 33.1048 15.162C32.6441 15.6227 32.6441 16.3697 33.1048 16.8303L35.701 19.4264L33.2937 21.8337L18.1577 6.69771L14.5102 3.05018C13.2586 1.79857 11.5946 1.1093 9.82467 1.1093C8.05478 1.1093 6.39059 1.79857 5.13914 3.05002L3.04977 5.13938C0.466186 7.72297 0.466186 11.9267 3.04977 14.5105L6.69731 18.158C6.69778 18.1585 6.69841 18.1589 6.69889 18.1594L13.0378 24.4983L0.34554 37.1908C-0.11518 37.6515 -0.11518 38.3985 0.34554 38.8591L9.14106 47.6546C9.37135 47.8849 9.67335 48.0002 9.97521 48.0002C10.2771 48.0002 10.5791 47.8851 10.8093 47.6546L21.5244 36.9396C21.9851 36.4789 21.9851 35.7319 21.5244 35.2713C21.0638 34.8106 20.3168 34.8106 19.8561 35.2713L19.4262 35.7012L16.83 33.1051C16.3693 32.6443 15.6223 32.6443 15.1617 33.1051C14.701 33.5658 14.701 34.3128 15.1617 34.7733L17.7579 37.3695L14.9404 40.187L12.3444 37.5908C11.8837 37.1301 11.1367 37.1301 10.6761 37.5908C10.2154 38.0515 10.2154 38.7985 10.6761 39.2591L13.2723 41.8553L9.97552 45.152L2.84812 38.025L14.7064 26.1667L29.8423 41.3027C29.8493 41.3096 29.857 41.3156 29.864 41.3224C29.8821 41.3395 29.9002 41.3563 29.9194 41.3724C29.9317 41.3826 29.9443 41.3924 29.9568 41.402C29.9745 41.4155 29.9921 41.4288 30.0106 41.4414C30.0264 41.4523 30.0424 41.4622 30.0586 41.4721C30.0747 41.482 30.0905 41.4918 30.1072 41.5007C30.127 41.5116 30.147 41.5215 30.1673 41.5312C30.1815 41.538 30.1955 41.5448 30.2099 41.5511C30.2332 41.5611 30.2566 41.5698 30.2804 41.5783C30.2895 41.5816 30.298 41.5857 30.3073 41.5887L44.9151 46.4046C45.0362 46.4445 45.1608 46.4639 45.2842 46.4639C45.5922 46.4639 45.8938 46.3431 46.1185 46.1183C46.4335 45.8034 46.5443 45.3378 46.4048 44.9148L41.5889 30.3069C41.5856 30.297 41.5812 30.2877 41.5777 30.278C41.5695 30.2553 41.5612 30.2328 41.5518 30.2106C41.5452 30.1952 41.5379 30.1801 41.5307 30.1652C41.5214 30.146 41.512 30.1268 41.5016 30.1081C41.492 30.0905 41.4816 30.0736 41.4712 30.0567C41.4618 30.0414 41.4524 30.0263 41.4423 30.0114C41.4291 29.992 41.4151 29.9734 41.4009 29.955C41.3918 29.9432 41.3828 29.9314 41.3732 29.92C41.3566 29.9 41.3389 29.8811 41.3212 29.8624C41.3147 29.8558 41.3094 29.8486 41.3028 29.8421L34.9623 23.5017L47.6545 10.8097ZM32.8654 39.9479L39.9478 32.8655L43.4311 43.4314L32.8654 39.9479ZM30.6765 38.8001L8.36591 16.4897C8.36544 16.4892 8.36481 16.4888 8.36434 16.4883L4.71821 12.8422C3.05465 11.1784 3.05465 8.47154 4.71821 6.80782L6.80758 4.71846C7.61356 3.91247 8.68491 3.46874 9.82467 3.46874C10.9644 3.46874 12.0359 3.91247 12.8418 4.71846L15.6552 7.53186L11.6801 11.5067C11.2194 11.9674 11.2194 12.7144 11.6801 13.175C12.1407 13.6359 12.8877 13.6357 13.3484 13.175L17.3234 9.20014L38.7999 30.6766L30.6765 38.8001Z" fill="white"/>
</g>
<defs>
<clipPath id="clip0">
<rect width="48" height="48" fill="white"/>
</clipPath>
</defs>
</svg>
