<svg width="30" height="30" viewBox="0 0 30 30" fill="none" xmlns="http://www.w3.org/2000/svg">
<path d="M29.3903 26.46L23.0504 20.1192C24.5913 17.9759 25.4385 15.4148 25.4385 12.7188C25.4385 9.3229 24.1163 6.1292 21.7117 3.72667C19.3122 1.32518 16.1163 0 12.7182 0C9.32114 0 6.1263 1.32207 3.72472 3.72667C1.32315 6.12713 0 9.32186 0 12.7188C0 16.1157 1.32211 19.3094 3.72472 21.713C6.1263 24.1145 9.32011 25.4397 12.7182 25.4397C15.4132 25.4397 17.9724 24.5966 20.1179 23.0516L26.4578 29.3924C26.8643 29.7978 27.3931 30 27.924 30C28.456 30 28.9859 29.7978 29.3903 29.3924C30.2001 28.5815 30.2001 27.2698 29.3903 26.46ZM6.65826 18.7796C5.03854 17.1599 4.1478 15.0062 4.1478 12.7178C4.1478 10.4293 5.03854 8.27769 6.65826 6.65803C8.27693 5.03837 10.4286 4.14662 12.7182 4.14662C15.0078 4.14662 17.1605 5.03837 18.7792 6.65803C20.3989 8.27769 21.2907 10.4303 21.2907 12.7188C21.2907 15.0073 20.3999 17.1599 18.7792 18.7806C17.1594 20.4002 15.0088 21.2899 12.7182 21.2899C10.4276 21.2899 8.27486 20.3982 6.65826 18.7796Z" fill="#E30713"/>
</svg>
