<svg width="48" height="48" viewBox="0 0 48 48" fill="none" xmlns="http://www.w3.org/2000/svg">
<g clip-path="url(#clip0)">
<path d="M24.5 24C23.672 24 23 23.328 23 22.5V21H9V22.5C9 23.328 8.328 24 7.5 24C6.672 24 6 23.328 6 22.5V19.5C6 18.672 6.672 18 7.5 18H24.5C25.328 18 26 18.672 26 19.5V22.5C26 23.328 25.328 24 24.5 24Z" fill="white"/>
<path d="M16 37.5C15.172 37.5 14.5 36.828 14.5 36V20C14.5 19.172 15.172 18.5 16 18.5C16.828 18.5 17.5 19.172 17.5 20V36C17.5 36.828 16.828 37.5 16 37.5Z" fill="white"/>
<path d="M18.5 38H13.5C12.672 38 12 37.328 12 36.5C12 35.672 12.672 35 13.5 35H18.5C19.328 35 20 35.672 20 36.5C20 37.328 19.328 38 18.5 38Z" fill="white"/>
<path d="M40.5 21H31.5C30.672 21 30 20.328 30 19.5C30 18.672 30.672 18 31.5 18H40.5C41.328 18 42 18.672 42 19.5C42 20.328 41.328 21 40.5 21Z" fill="white"/>
<path d="M40.5 29H31.5C30.672 29 30 28.328 30 27.5C30 26.672 30.672 26 31.5 26H40.5C41.328 26 42 26.672 42 27.5C42 28.328 41.328 29 40.5 29Z" fill="white"/>
<path d="M40.5 37H31.5C30.672 37 30 36.328 30 35.5C30 34.672 30.672 34 31.5 34H40.5C41.328 34 42 34.672 42 35.5C42 36.328 41.328 37 40.5 37Z" fill="white"/>
<path d="M42.5 46H5.5C2.466 46 0 43.534 0 40.5V7.5C0 4.466 2.466 2 5.5 2H42.5C45.534 2 48 4.466 48 7.5V40.5C48 43.534 45.534 46 42.5 46ZM5.5 5C4.122 5 3 6.122 3 7.5V40.5C3 41.878 4.122 43 5.5 43H42.5C43.878 43 45 41.878 45 40.5V7.5C45 6.122 43.878 5 42.5 5H5.5Z" fill="white"/>
<path d="M46.5 12H1.5C0.672 12 0 11.328 0 10.5C0 9.672 0.672 9 1.5 9H46.5C47.328 9 48 9.672 48 10.5C48 11.328 47.328 12 46.5 12Z" fill="white"/>
</g>
<defs>
<clipPath id="clip0">
<rect width="48" height="48" fill="white"/>
</clipPath>
</defs>
</svg>
